<?xml version="1.0" encoding="UTF-8" standalone="no"?>
<!DOCTYPE svg PUBLIC "-//W3C//DTD SVG 1.1//EN"
 "http://www.w3.org/Graphics/SVG/1.1/DTD/svg11.dtd">
<!-- Generated by graphviz version 14.1.3 (20260303.0454)
 -->
<!-- Pages: 1 -->
<svg width="350pt" height="787pt"
 viewBox="0.00 0.00 350.00 787.00" xmlns="http://www.w3.org/2000/svg" xmlns:xlink="http://www.w3.org/1999/xlink">
<g id="graph0" class="graph" transform="scale(1 1) rotate(0) translate(4 782.5)">
<polygon fill="white" stroke="none" points="-4,4 -4,-782.5 346,-782.5 346,4 -4,4"/>
<!-- n0 -->
<g id="node1" class="node">
<title>n0</title>
<ellipse fill="none" stroke="black" cx="135" cy="-18" rx="27" ry="18"/>
<text xml:space="preserve" text-anchor="middle" x="135" y="-14.3" font-family="Times,serif" font-size="11.00">{1, 3}</text>
</g>
<!-- n1 -->
<g id="node2" class="node">
<title>n1</title>
<ellipse fill="none" stroke="black" cx="279" cy="-265.5" rx="33.82" ry="18"/>
<text xml:space="preserve" text-anchor="middle" x="279" y="-261.8" font-family="Times,serif" font-size="11.00">{2, 4, 6}</text>
</g>
<!-- n2 -->
<g id="node3" class="node">
<title>n2</title>
<ellipse fill="#ccddff" stroke="black" cx="135" cy="-100.5" rx="27" ry="18"/>
<text xml:space="preserve" text-anchor="middle" x="135" y="-96.8" font-family="Times,serif" font-size="11.00">{9}</text>
</g>
<!-- n2&#45;&gt;n0 -->
<g id="edge11" class="edge">
<title>n2&#45;&gt;n0</title>
<path fill="none" stroke="#6688bb" d="M135,-82.03C135,-72.01 135,-59.18 135,-47.71"/>
<polygon fill="#6688bb" stroke="#6688bb" points="138.5,-47.95 135,-37.95 131.5,-47.95 138.5,-47.95"/>
<text xml:space="preserve" text-anchor="middle" x="137.25" y="-55.95" font-family="Times,serif" font-size="9.00" fill="#6688bb"> &#160;</text>
</g>
<!-- n3 -->
<g id="node4" class="node">
<title>n3</title>
<ellipse fill="#ccddff" stroke="black" cx="99" cy="-183" rx="27" ry="18"/>
<text xml:space="preserve" text-anchor="middle" x="99" y="-179.3" font-family="Times,serif" font-size="11.00">{7}</text>
</g>
<!-- n3&#45;&gt;n2 -->
<g id="edge21" class="edge">
<title>n3&#45;&gt;n2</title>
<path fill="none" stroke="#6688bb" d="M106.46,-165.32C111.19,-154.74 117.42,-140.81 122.85,-128.66"/>
<polygon fill="#6688bb" stroke="#6688bb" points="126.05,-130.1 126.93,-119.54 119.65,-127.24 126.05,-130.1"/>
<text xml:space="preserve" text-anchor="middle" x="121.41" y="-138.45" font-family="Times,serif" font-size="9.00" fill="#6688bb"> &#160;</text>
</g>
<!-- n4 -->
<g id="node5" class="node">
<title>n4</title>
<ellipse fill="#ccddff" stroke="black" cx="27" cy="-265.5" rx="27" ry="18"/>
<text xml:space="preserve" text-anchor="middle" x="27" y="-261.8" font-family="Times,serif" font-size="11.00">{5}</text>
</g>
<!-- n4&#45;&gt;n3 -->
<g id="edge22" class="edge">
<title>n4&#45;&gt;n3</title>
<path fill="none" stroke="#6688bb" d="M40.21,-249.74C50.8,-237.89 65.86,-221.06 78.08,-207.39"/>
<polygon fill="#6688bb" stroke="#6688bb" points="80.57,-209.86 84.62,-200.07 75.35,-205.19 80.57,-209.86"/>
<text xml:space="preserve" text-anchor="middle" x="69.56" y="-220.95" font-family="Times,serif" font-size="9.00" fill="#6688bb"> &#160;</text>
</g>
<!-- n5 -->
<g id="node6" class="node">
<title>n5</title>
<ellipse fill="#ccddff" stroke="black" cx="243" cy="-348" rx="27" ry="18"/>
<text xml:space="preserve" text-anchor="middle" x="243" y="-344.3" font-family="Times,serif" font-size="11.00">{12}</text>
</g>
<!-- n5&#45;&gt;n1 -->
<g id="edge23" class="edge">
<title>n5&#45;&gt;n1</title>
<path fill="none" stroke="#6688bb" d="M250.46,-330.32C255.16,-319.81 261.34,-306 266.74,-293.91"/>
<polygon fill="#6688bb" stroke="#6688bb" points="269.92,-295.37 270.81,-284.82 263.53,-292.52 269.92,-295.37"/>
<text xml:space="preserve" text-anchor="middle" x="265.41" y="-303.45" font-family="Times,serif" font-size="9.00" fill="#6688bb"> &#160;</text>
</g>
<!-- n6 -->
<g id="node7" class="node">
<title>n6</title>
<ellipse fill="#ccddff" stroke="black" cx="243" cy="-430.5" rx="27" ry="18"/>
<text xml:space="preserve" text-anchor="middle" x="243" y="-426.8" font-family="Times,serif" font-size="11.00">{10}</text>
</g>
<!-- n6&#45;&gt;n5 -->
<g id="edge24" class="edge">
<title>n6&#45;&gt;n5</title>
<path fill="none" stroke="#6688bb" d="M243,-412.03C243,-402.01 243,-389.18 243,-377.71"/>
<polygon fill="#6688bb" stroke="#6688bb" points="246.5,-377.95 243,-367.95 239.5,-377.95 246.5,-377.95"/>
<text xml:space="preserve" text-anchor="middle" x="245.25" y="-385.95" font-family="Times,serif" font-size="9.00" fill="#6688bb"> &#160;</text>
</g>
<!-- n7 -->
<g id="node8" class="node">
<title>n7</title>
<ellipse fill="#ccddff" stroke="black" cx="171" cy="-513" rx="27" ry="18"/>
<text xml:space="preserve" text-anchor="middle" x="171" y="-509.3" font-family="Times,serif" font-size="11.00">{8}</text>
</g>
<!-- n7&#45;&gt;n6 -->
<g id="edge25" class="edge">
<title>n7&#45;&gt;n6</title>
<path fill="none" stroke="#6688bb" d="M184.21,-497.24C194.8,-485.39 209.86,-468.56 222.08,-454.89"/>
<polygon fill="#6688bb" stroke="#6688bb" points="224.57,-457.36 228.62,-447.57 219.35,-452.69 224.57,-457.36"/>
<text xml:space="preserve" text-anchor="middle" x="213.56" y="-468.45" font-family="Times,serif" font-size="9.00" fill="#6688bb"> &#160;</text>
</g>
<!-- n8 -->
<g id="node9" class="node">
<title>n8</title>
<ellipse fill="#ccddff" stroke="black" cx="27" cy="-348" rx="27" ry="18"/>
<text xml:space="preserve" text-anchor="middle" x="27" y="-344.3" font-family="Times,serif" font-size="11.00">{15}</text>
</g>
<!-- n8&#45;&gt;n4 -->
<g id="edge26" class="edge">
<title>n8&#45;&gt;n4</title>
<path fill="none" stroke="#6688bb" d="M27,-329.53C27,-319.51 27,-306.68 27,-295.21"/>
<polygon fill="#6688bb" stroke="#6688bb" points="30.5,-295.45 27,-285.45 23.5,-295.45 30.5,-295.45"/>
<text xml:space="preserve" text-anchor="middle" x="29.25" y="-303.45" font-family="Times,serif" font-size="9.00" fill="#6688bb"> &#160;</text>
</g>
<!-- n9 -->
<g id="node10" class="node">
<title>n9</title>
<ellipse fill="#ccddff" stroke="black" cx="27" cy="-430.5" rx="27" ry="18"/>
<text xml:space="preserve" text-anchor="middle" x="27" y="-426.8" font-family="Times,serif" font-size="11.00">{13}</text>
</g>
<!-- n9&#45;&gt;n8 -->
<g id="edge27" class="edge">
<title>n9&#45;&gt;n8</title>
<path fill="none" stroke="#6688bb" d="M27,-412.03C27,-402.01 27,-389.18 27,-377.71"/>
<polygon fill="#6688bb" stroke="#6688bb" points="30.5,-377.95 27,-367.95 23.5,-377.95 30.5,-377.95"/>
<text xml:space="preserve" text-anchor="middle" x="29.25" y="-385.95" font-family="Times,serif" font-size="9.00" fill="#6688bb"> &#160;</text>
</g>
<!-- n10 -->
<g id="node11" class="node">
<title>n10</title>
<ellipse fill="#ccddff" stroke="black" cx="27" cy="-513" rx="27" ry="18"/>
<text xml:space="preserve" text-anchor="middle" x="27" y="-509.3" font-family="Times,serif" font-size="11.00">{11}</text>
</g>
<!-- n10&#45;&gt;n9 -->
<g id="edge1" class="edge">
<title>n10&#45;&gt;n9</title>
<path fill="none" stroke="#6688bb" d="M27,-494.53C27,-484.51 27,-471.68 27,-460.21"/>
<polygon fill="#6688bb" stroke="#6688bb" points="30.5,-460.45 27,-450.45 23.5,-460.45 30.5,-460.45"/>
<text xml:space="preserve" text-anchor="middle" x="29.25" y="-468.45" font-family="Times,serif" font-size="9.00" fill="#6688bb"> &#160;</text>
</g>
<!-- n11 -->
<g id="node12" class="node">
<title>n11</title>
<ellipse fill="#ccddff" stroke="black" cx="315" cy="-348" rx="27" ry="18"/>
<text xml:space="preserve" text-anchor="middle" x="315" y="-344.3" font-family="Times,serif" font-size="11.00">{18}</text>
</g>
<!-- n11&#45;&gt;n1 -->
<g id="edge2" class="edge">
<title>n11&#45;&gt;n1</title>
<path fill="none" stroke="#6688bb" d="M307.54,-330.32C302.84,-319.81 296.66,-306 291.26,-293.91"/>
<polygon fill="#6688bb" stroke="#6688bb" points="294.47,-292.52 287.19,-284.82 288.08,-295.37 294.47,-292.52"/>
<text xml:space="preserve" text-anchor="middle" x="301.41" y="-303.45" font-family="Times,serif" font-size="9.00" fill="#6688bb"> &#160;</text>
</g>
<!-- n12 -->
<g id="node13" class="node">
<title>n12</title>
<ellipse fill="#ccddff" stroke="black" cx="315" cy="-430.5" rx="27" ry="18"/>
<text xml:space="preserve" text-anchor="middle" x="315" y="-426.8" font-family="Times,serif" font-size="11.00">{16}</text>
</g>
<!-- n12&#45;&gt;n11 -->
<g id="edge3" class="edge">
<title>n12&#45;&gt;n11</title>
<path fill="none" stroke="#6688bb" d="M315,-412.03C315,-402.01 315,-389.18 315,-377.71"/>
<polygon fill="#6688bb" stroke="#6688bb" points="318.5,-377.95 315,-367.95 311.5,-377.95 318.5,-377.95"/>
<text xml:space="preserve" text-anchor="middle" x="317.25" y="-385.95" font-family="Times,serif" font-size="9.00" fill="#6688bb"> &#160;</text>
</g>
<!-- n13 -->
<g id="node14" class="node">
<title>n13</title>
<ellipse fill="#ccddff" stroke="black" cx="315" cy="-513" rx="27" ry="18"/>
<text xml:space="preserve" text-anchor="middle" x="315" y="-509.3" font-family="Times,serif" font-size="11.00">{14}</text>
</g>
<!-- n13&#45;&gt;n12 -->
<g id="edge4" class="edge">
<title>n13&#45;&gt;n12</title>
<path fill="none" stroke="#6688bb" d="M315,-494.53C315,-484.51 315,-471.68 315,-460.21"/>
<polygon fill="#6688bb" stroke="#6688bb" points="318.5,-460.45 315,-450.45 311.5,-460.45 318.5,-460.45"/>
<text xml:space="preserve" text-anchor="middle" x="317.25" y="-468.45" font-family="Times,serif" font-size="9.00" fill="#6688bb"> &#160;</text>
</g>
<!-- n14 -->
<g id="node15" class="node">
<title>n14</title>
<ellipse fill="#ccddff" stroke="black" cx="99" cy="-265.5" rx="27" ry="18"/>
<text xml:space="preserve" text-anchor="middle" x="99" y="-261.8" font-family="Times,serif" font-size="11.00">{21}</text>
</g>
<!-- n14&#45;&gt;n3 -->
<g id="edge5" class="edge">
<title>n14&#45;&gt;n3</title>
<path fill="none" stroke="#6688bb" d="M99,-247.03C99,-237.01 99,-224.18 99,-212.71"/>
<polygon fill="#6688bb" stroke="#6688bb" points="102.5,-212.95 99,-202.95 95.5,-212.95 102.5,-212.95"/>
<text xml:space="preserve" text-anchor="middle" x="101.25" y="-220.95" font-family="Times,serif" font-size="9.00" fill="#6688bb"> &#160;</text>
</g>
<!-- n15 -->
<g id="node16" class="node">
<title>n15</title>
<ellipse fill="#ccddff" stroke="black" cx="99" cy="-348" rx="27" ry="18"/>
<text xml:space="preserve" text-anchor="middle" x="99" y="-344.3" font-family="Times,serif" font-size="11.00">{19}</text>
</g>
<!-- n15&#45;&gt;n14 -->
<g id="edge6" class="edge">
<title>n15&#45;&gt;n14</title>
<path fill="none" stroke="#6688bb" d="M99,-329.53C99,-319.51 99,-306.68 99,-295.21"/>
<polygon fill="#6688bb" stroke="#6688bb" points="102.5,-295.45 99,-285.45 95.5,-295.45 102.5,-295.45"/>
<text xml:space="preserve" text-anchor="middle" x="101.25" y="-303.45" font-family="Times,serif" font-size="9.00" fill="#6688bb"> &#160;</text>
</g>
<!-- n16 -->
<g id="node17" class="node">
<title>n16</title>
<ellipse fill="#ccddff" stroke="black" cx="99" cy="-430.5" rx="27" ry="18"/>
<text xml:space="preserve" text-anchor="middle" x="99" y="-426.8" font-family="Times,serif" font-size="11.00">{17}</text>
</g>
<!-- n16&#45;&gt;n15 -->
<g id="edge7" class="edge">
<title>n16&#45;&gt;n15</title>
<path fill="none" stroke="#6688bb" d="M99,-412.03C99,-402.01 99,-389.18 99,-377.71"/>
<polygon fill="#6688bb" stroke="#6688bb" points="102.5,-377.95 99,-367.95 95.5,-377.95 102.5,-377.95"/>
<text xml:space="preserve" text-anchor="middle" x="101.25" y="-385.95" font-family="Times,serif" font-size="9.00" fill="#6688bb"> &#160;</text>
</g>
<!-- n17 -->
<g id="node18" class="node">
<title>n17</title>
<ellipse fill="#ccddff" stroke="black" cx="171" cy="-595.5" rx="27" ry="18"/>
<text xml:space="preserve" text-anchor="middle" x="171" y="-591.8" font-family="Times,serif" font-size="11.00">{24}</text>
</g>
<!-- n17&#45;&gt;n7 -->
<g id="edge8" class="edge">
<title>n17&#45;&gt;n7</title>
<path fill="none" stroke="#6688bb" d="M171,-577.03C171,-567.01 171,-554.18 171,-542.71"/>
<polygon fill="#6688bb" stroke="#6688bb" points="174.5,-542.95 171,-532.95 167.5,-542.95 174.5,-542.95"/>
<text xml:space="preserve" text-anchor="middle" x="173.25" y="-550.95" font-family="Times,serif" font-size="9.00" fill="#6688bb"> &#160;</text>
</g>
<!-- n18 -->
<g id="node19" class="node">
<title>n18</title>
<ellipse fill="#ccddff" stroke="black" cx="171" cy="-678" rx="27" ry="18"/>
<text xml:space="preserve" text-anchor="middle" x="171" y="-674.3" font-family="Times,serif" font-size="11.00">{22}</text>
</g>
<!-- n18&#45;&gt;n17 -->
<g id="edge9" class="edge">
<title>n18&#45;&gt;n17</title>
<path fill="none" stroke="#6688bb" d="M171,-659.53C171,-649.51 171,-636.68 171,-625.21"/>
<polygon fill="#6688bb" stroke="#6688bb" points="174.5,-625.45 171,-615.45 167.5,-625.45 174.5,-625.45"/>
<text xml:space="preserve" text-anchor="middle" x="173.25" y="-633.45" font-family="Times,serif" font-size="9.00" fill="#6688bb"> &#160;</text>
</g>
<!-- n19 -->
<g id="node20" class="node">
<title>n19</title>
<ellipse fill="#ccddff" stroke="black" cx="171" cy="-760.5" rx="27" ry="18"/>
<text xml:space="preserve" text-anchor="middle" x="171" y="-756.8" font-family="Times,serif" font-size="11.00">{20}</text>
</g>
<!-- n19&#45;&gt;n18 -->
<g id="edge10" class="edge">
<title>n19&#45;&gt;n18</title>
<path fill="none" stroke="#6688bb" d="M171,-742.03C171,-732.01 171,-719.18 171,-707.71"/>
<polygon fill="#6688bb" stroke="#6688bb" points="174.5,-707.95 171,-697.95 167.5,-707.95 174.5,-707.95"/>
<text xml:space="preserve" text-anchor="middle" x="173.25" y="-715.95" font-family="Times,serif" font-size="9.00" fill="#6688bb"> &#160;</text>
</g>
<!-- n20 -->
<g id="node21" class="node">
<title>n20</title>
<ellipse fill="#ccddff" stroke="black" cx="171" cy="-183" rx="27" ry="18"/>
<text xml:space="preserve" text-anchor="middle" x="171" y="-179.3" font-family="Times,serif" font-size="11.00">{27}</text>
</g>
<!-- n20&#45;&gt;n2 -->
<g id="edge12" class="edge">
<title>n20&#45;&gt;n2</title>
<path fill="none" stroke="#6688bb" d="M163.54,-165.32C158.81,-154.74 152.58,-140.81 147.15,-128.66"/>
<polygon fill="#6688bb" stroke="#6688bb" points="150.35,-127.24 143.07,-119.54 143.95,-130.1 150.35,-127.24"/>
<text xml:space="preserve" text-anchor="middle" x="157.41" y="-138.45" font-family="Times,serif" font-size="9.00" fill="#6688bb"> &#160;</text>
</g>
<!-- n21 -->
<g id="node22" class="node">
<title>n21</title>
<ellipse fill="#ccddff" stroke="black" cx="171" cy="-265.5" rx="27" ry="18"/>
<text xml:space="preserve" text-anchor="middle" x="171" y="-261.8" font-family="Times,serif" font-size="11.00">{25}</text>
</g>
<!-- n21&#45;&gt;n20 -->
<g id="edge13" class="edge">
<title>n21&#45;&gt;n20</title>
<path fill="none" stroke="#6688bb" d="M171,-247.03C171,-237.01 171,-224.18 171,-212.71"/>
<polygon fill="#6688bb" stroke="#6688bb" points="174.5,-212.95 171,-202.95 167.5,-212.95 174.5,-212.95"/>
<text xml:space="preserve" text-anchor="middle" x="173.25" y="-220.95" font-family="Times,serif" font-size="9.00" fill="#6688bb"> &#160;</text>
</g>
<!-- n22 -->
<g id="node23" class="node">
<title>n22</title>
<ellipse fill="#ccddff" stroke="black" cx="171" cy="-348" rx="27" ry="18"/>
<text xml:space="preserve" text-anchor="middle" x="171" y="-344.3" font-family="Times,serif" font-size="11.00">{23}</text>
</g>
<!-- n22&#45;&gt;n21 -->
<g id="edge14" class="edge">
<title>n22&#45;&gt;n21</title>
<path fill="none" stroke="#6688bb" d="M171,-329.53C171,-319.51 171,-306.68 171,-295.21"/>
<polygon fill="#6688bb" stroke="#6688bb" points="174.5,-295.45 171,-285.45 167.5,-295.45 174.5,-295.45"/>
<text xml:space="preserve" text-anchor="middle" x="173.25" y="-303.45" font-family="Times,serif" font-size="9.00" fill="#6688bb"> &#160;</text>
</g>
<!-- n23 -->
<g id="node24" class="node">
<title>n23</title>
<ellipse fill="#ccddff" stroke="black" cx="243" cy="-513" rx="27" ry="18"/>
<text xml:space="preserve" text-anchor="middle" x="243" y="-509.3" font-family="Times,serif" font-size="11.00">{30}</text>
</g>
<!-- n23&#45;&gt;n6 -->
<g id="edge15" class="edge">
<title>n23&#45;&gt;n6</title>
<path fill="none" stroke="#6688bb" d="M243,-494.53C243,-484.51 243,-471.68 243,-460.21"/>
<polygon fill="#6688bb" stroke="#6688bb" points="246.5,-460.45 243,-450.45 239.5,-460.45 246.5,-460.45"/>
<text xml:space="preserve" text-anchor="middle" x="245.25" y="-468.45" font-family="Times,serif" font-size="9.00" fill="#6688bb"> &#160;</text>
</g>
<!-- n24 -->
<g id="node25" class="node">
<title>n24</title>
<ellipse fill="#ccddff" stroke="black" cx="243" cy="-595.5" rx="27" ry="18"/>
<text xml:space="preserve" text-anchor="middle" x="243" y="-591.8" font-family="Times,serif" font-size="11.00">{28}</text>
</g>
<!-- n24&#45;&gt;n23 -->
<g id="edge16" class="edge">
<title>n24&#45;&gt;n23</title>
<path fill="none" stroke="#6688bb" d="M243,-577.03C243,-567.01 243,-554.18 243,-542.71"/>
<polygon fill="#6688bb" stroke="#6688bb" points="246.5,-542.95 243,-532.95 239.5,-542.95 246.5,-542.95"/>
<text xml:space="preserve" text-anchor="middle" x="245.25" y="-550.95" font-family="Times,serif" font-size="9.00" fill="#6688bb"> &#160;</text>
</g>
<!-- n25 -->
<g id="node26" class="node">
<title>n25</title>
<ellipse fill="#ccddff" stroke="black" cx="243" cy="-678" rx="27" ry="18"/>
<text xml:space="preserve" text-anchor="middle" x="243" y="-674.3" font-family="Times,serif" font-size="11.00">{26}</text>
</g>
<!-- n25&#45;&gt;n24 -->
<g id="edge17" class="edge">
<title>n25&#45;&gt;n24</title>
<path fill="none" stroke="#6688bb" d="M243,-659.53C243,-649.51 243,-636.68 243,-625.21"/>
<polygon fill="#6688bb" stroke="#6688bb" points="246.5,-625.45 243,-615.45 239.5,-625.45 246.5,-625.45"/>
<text xml:space="preserve" text-anchor="middle" x="245.25" y="-633.45" font-family="Times,serif" font-size="9.00" fill="#6688bb"> &#160;</text>
</g>
<!-- n26 -->
<g id="node27" class="node">
<title>n26</title>
<ellipse fill="#ccddff" stroke="black" cx="27" cy="-595.5" rx="27" ry="18"/>
<text xml:space="preserve" text-anchor="middle" x="27" y="-591.8" font-family="Times,serif" font-size="11.00">{33}</text>
</g>
<!-- n26&#45;&gt;n10 -->
<g id="edge18" class="edge">
<title>n26&#45;&gt;n10</title>
<path fill="none" stroke="#6688bb" d="M27,-577.03C27,-567.01 27,-554.18 27,-542.71"/>
<polygon fill="#6688bb" stroke="#6688bb" points="30.5,-542.95 27,-532.95 23.5,-542.95 30.5,-542.95"/>
<text xml:space="preserve" text-anchor="middle" x="29.25" y="-550.95" font-family="Times,serif" font-size="9.00" fill="#6688bb"> &#160;</text>
</g>
<!-- n27 -->
<g id="node28" class="node">
<title>n27</title>
<ellipse fill="#ccddff" stroke="black" cx="27" cy="-678" rx="27" ry="18"/>
<text xml:space="preserve" text-anchor="middle" x="27" y="-674.3" font-family="Times,serif" font-size="11.00">{31}</text>
</g>
<!-- n27&#45;&gt;n26 -->
<g id="edge19" class="edge">
<title>n27&#45;&gt;n26</title>
<path fill="none" stroke="#6688bb" d="M27,-659.53C27,-649.51 27,-636.68 27,-625.21"/>
<polygon fill="#6688bb" stroke="#6688bb" points="30.5,-625.45 27,-615.45 23.5,-625.45 30.5,-625.45"/>
<text xml:space="preserve" text-anchor="middle" x="29.25" y="-633.45" font-family="Times,serif" font-size="9.00" fill="#6688bb"> &#160;</text>
</g>
<!-- n28 -->
<g id="node29" class="node">
<title>n28</title>
<ellipse fill="#ccddff" stroke="black" cx="27" cy="-760.5" rx="27" ry="18"/>
<text xml:space="preserve" text-anchor="middle" x="27" y="-756.8" font-family="Times,serif" font-size="11.00">{29}</text>
</g>
<!-- n28&#45;&gt;n27 -->
<g id="edge20" class="edge">
<title>n28&#45;&gt;n27</title>
<path fill="none" stroke="#6688bb" d="M27,-742.03C27,-732.01 27,-719.18 27,-707.71"/>
<polygon fill="#6688bb" stroke="#6688bb" points="30.5,-707.95 27,-697.95 23.5,-707.95 30.5,-707.95"/>
<text xml:space="preserve" text-anchor="middle" x="29.25" y="-715.95" font-family="Times,serif" font-size="9.00" fill="#6688bb"> &#160;</text>
</g>
</g>
</svg>
