<?xml version="1.0" encoding="UTF-8" standalone="no"?>
<!DOCTYPE svg PUBLIC "-//W3C//DTD SVG 1.1//EN"
 "http://www.w3.org/Graphics/SVG/1.1/DTD/svg11.dtd">
<!-- Generated by graphviz version 14.1.3 (20260303.0454)
 -->
<!-- Pages: 1 -->
<svg width="257pt" height="704pt"
 viewBox="0.00 0.00 257.00 704.00" xmlns="http://www.w3.org/2000/svg" xmlns:xlink="http://www.w3.org/1999/xlink">
<g id="graph0" class="graph" transform="scale(1 1) rotate(0) translate(4 700)">
<polygon fill="white" stroke="none" points="-4,4 -4,-700 253,-700 253,4 -4,4"/>
<!-- n1 -->
<g id="node1" class="node">
<title>n1</title>
<ellipse fill="#ffddcc" stroke="black" stroke-width="3" cx="172" cy="-100.5" rx="27" ry="18"/>
<text xml:space="preserve" text-anchor="middle" x="172" y="-96.8" font-family="Times,serif" font-size="11.00">1</text>
</g>
<!-- n3 -->
<g id="node2" class="node">
<title>n3</title>
<ellipse fill="#ccddff" stroke="black" stroke-width="3" cx="167" cy="-18" rx="27" ry="18"/>
<text xml:space="preserve" text-anchor="middle" x="167" y="-14.3" font-family="Times,serif" font-size="11.00">3</text>
</g>
<!-- n1&#45;&gt;n3 -->
<g id="edge1" class="edge">
<title>n1&#45;&gt;n3</title>
<path fill="none" stroke="#ddbb99" d="M156.76,-84.46C151.96,-78.72 147.25,-71.78 144.75,-64.5 142.43,-57.73 143.83,-50.67 146.82,-44.18"/>
<polygon fill="#ddbb99" stroke="#ddbb99" points="149.65,-46.27 151.76,-35.89 143.63,-42.7 149.65,-46.27"/>
<text xml:space="preserve" text-anchor="middle" x="156.38" y="-55.95" font-family="Times,serif" font-size="9.00" fill="#ddbb99"> x + 2 </text>
</g>
<!-- n3&#45;&gt;n1 -->
<g id="edge13" class="edge">
<title>n3&#45;&gt;n1</title>
<path fill="none" stroke="#6688bb" d="M168.15,-37.47C168.75,-47.11 169.49,-59.14 170.17,-70.03"/>
<polygon fill="#6688bb" stroke="#6688bb" points="166.66,-69.96 170.77,-79.72 173.64,-69.52 166.66,-69.96"/>
<text xml:space="preserve" text-anchor="middle" x="181.05" y="-55.95" font-family="Times,serif" font-size="9.00" fill="#6688bb"> x // 3 </text>
</g>
<!-- n5 -->
<g id="node3" class="node">
<title>n5</title>
<ellipse fill="#cceecc" stroke="black" stroke-width="3" cx="172" cy="-183" rx="27" ry="18"/>
<text xml:space="preserve" text-anchor="middle" x="172" y="-179.3" font-family="Times,serif" font-size="11.00">5</text>
</g>
<!-- n5&#45;&gt;n1 -->
<g id="edge16" class="edge">
<title>n5&#45;&gt;n1</title>
<path fill="none" stroke="#77aa77" d="M172,-163.73C172,-154.13 172,-142.11 172,-131.2"/>
<polygon fill="#77aa77" stroke="#77aa77" points="175.5,-131.49 172,-121.49 168.5,-131.49 175.5,-131.49"/>
<text xml:space="preserve" text-anchor="middle" x="183.25" y="-138.45" font-family="Times,serif" font-size="9.00" fill="#77aa77"> x // 5 </text>
</g>
<!-- n7 -->
<g id="node4" class="node">
<title>n7</title>
<ellipse fill="#ffddcc" stroke="black" stroke-width="3" cx="27" cy="-183" rx="27" ry="18"/>
<text xml:space="preserve" text-anchor="middle" x="27" y="-179.3" font-family="Times,serif" font-size="11.00">7</text>
</g>
<!-- n9 -->
<g id="node5" class="node">
<title>n9</title>
<ellipse fill="#ccddff" stroke="black" stroke-width="3" cx="98" cy="-100.5" rx="27" ry="18"/>
<text xml:space="preserve" text-anchor="middle" x="98" y="-96.8" font-family="Times,serif" font-size="11.00">9</text>
</g>
<!-- n7&#45;&gt;n9 -->
<g id="edge17" class="edge">
<title>n7&#45;&gt;n9</title>
<path fill="none" stroke="#ddbb99" d="M41.03,-166.1C51.14,-154.63 64.98,-138.94 76.48,-125.9"/>
<polygon fill="#ddbb99" stroke="#ddbb99" points="79.01,-128.32 83,-118.51 73.76,-123.69 79.01,-128.32"/>
<text xml:space="preserve" text-anchor="middle" x="78.38" y="-138.45" font-family="Times,serif" font-size="9.00" fill="#ddbb99"> x + 2 </text>
</g>
<!-- n9&#45;&gt;n3 -->
<g id="edge18" class="edge">
<title>n9&#45;&gt;n3</title>
<path fill="none" stroke="#6688bb" d="M103.17,-81.41C106.32,-72.52 111.01,-62.02 117.5,-54 122.78,-47.47 129.57,-41.62 136.42,-36.65"/>
<polygon fill="#6688bb" stroke="#6688bb" points="138.06,-39.76 144.41,-31.28 134.16,-33.95 138.06,-39.76"/>
<text xml:space="preserve" text-anchor="middle" x="128.75" y="-55.95" font-family="Times,serif" font-size="9.00" fill="#6688bb"> x // 3 </text>
</g>
<!-- n11 -->
<g id="node6" class="node">
<title>n11</title>
<ellipse fill="#ffddcc" stroke="black" stroke-width="3" cx="222" cy="-430.5" rx="27" ry="18"/>
<text xml:space="preserve" text-anchor="middle" x="222" y="-426.8" font-family="Times,serif" font-size="11.00">11</text>
</g>
<!-- n13 -->
<g id="node7" class="node">
<title>n13</title>
<ellipse fill="#ffddcc" stroke="black" stroke-width="3" cx="222" cy="-348" rx="27" ry="18"/>
<text xml:space="preserve" text-anchor="middle" x="222" y="-344.3" font-family="Times,serif" font-size="11.00">13</text>
</g>
<!-- n11&#45;&gt;n13 -->
<g id="edge2" class="edge">
<title>n11&#45;&gt;n13</title>
<path fill="none" stroke="#ddbb99" d="M222,-411.23C222,-401.63 222,-389.61 222,-378.7"/>
<polygon fill="#ddbb99" stroke="#ddbb99" points="225.5,-378.99 222,-368.99 218.5,-378.99 225.5,-378.99"/>
<text xml:space="preserve" text-anchor="middle" x="233.62" y="-385.95" font-family="Times,serif" font-size="9.00" fill="#ddbb99"> x + 2 </text>
</g>
<!-- n15 -->
<g id="node8" class="node">
<title>n15</title>
<path fill="#ccddff" stroke="black" stroke-width="0.5" d="M222,-265.5C222,-265.5 249,-265.5 249,-265.5 249,-266.09 248.96,-266.68 248.87,-267.26 248.78,-267.85 248.65,-268.43 248.48,-269.01 248.31,-269.59 248.09,-270.16 247.84,-270.73 247.58,-271.29 247.28,-271.84 246.94,-272.39 246.61,-272.93 246.23,-273.47 245.81,-273.99 245.4,-274.5 244.94,-275.01 244.45,-275.5 243.96,-275.99 243.43,-276.46 242.87,-276.92 242.31,-277.37 241.72,-277.81 241.09,-278.23 240.47,-278.64 239.81,-279.04 239.13,-279.41 238.45,-279.79 237.74,-280.14 237,-280.47 236.27,-280.79 235.51,-281.1 234.73,-281.37 233.95,-281.65 233.15,-281.9 232.33,-282.13 231.52,-282.36 230.68,-282.55 229.84,-282.72 228.99,-282.9 228.13,-283.04 227.27,-283.15 226.4,-283.27 225.53,-283.36 224.65,-283.41 223.77,-283.47 222.88,-283.5 222,-283.5 221.12,-283.5 220.23,-283.47 219.35,-283.41 218.47,-283.36 217.6,-283.27 216.73,-283.15 215.87,-283.04 215.01,-282.9 214.16,-282.72 213.32,-282.55 212.48,-282.36 211.67,-282.13 210.85,-281.9 210.05,-281.65 209.27,-281.37 208.49,-281.1 207.73,-280.79 207,-280.47 206.26,-280.14 205.55,-279.79 204.87,-279.41 204.19,-279.04 203.53,-278.64 202.91,-278.23 202.28,-277.81 201.69,-277.37 201.13,-276.92 200.57,-276.46 200.04,-275.99 199.55,-275.5 199.06,-275.01 198.6,-274.5 198.19,-273.99 197.77,-273.47 197.39,-272.93 197.06,-272.39 196.72,-271.84 196.42,-271.29 196.16,-270.73 195.91,-270.16 195.69,-269.59 195.52,-269.01 195.35,-268.43 195.22,-267.85 195.13,-267.26 195.04,-266.68 195,-266.09 195,-265.5 195,-265.5 222,-265.5 222,-265.5"/>
<path fill="#cceecc" stroke="black" stroke-width="0.5" d="M222,-265.5C222,-265.5 195,-265.5 195,-265.5 195,-264.91 195.04,-264.32 195.13,-263.74 195.22,-263.15 195.35,-262.57 195.52,-261.99 195.69,-261.41 195.91,-260.84 196.16,-260.27 196.42,-259.71 196.72,-259.16 197.06,-258.61 197.39,-258.07 197.77,-257.53 198.19,-257.01 198.6,-256.5 199.06,-255.99 199.55,-255.5 200.04,-255.01 200.57,-254.54 201.13,-254.08 201.69,-253.63 202.28,-253.19 202.91,-252.77 203.53,-252.36 204.19,-251.96 204.87,-251.59 205.55,-251.21 206.26,-250.86 207,-250.53 207.73,-250.21 208.49,-249.9 209.27,-249.63 210.05,-249.35 210.85,-249.1 211.67,-248.87 212.48,-248.64 213.32,-248.45 214.16,-248.28 215.01,-248.1 215.87,-247.96 216.73,-247.85 217.6,-247.73 218.47,-247.64 219.35,-247.59 220.23,-247.53 221.12,-247.5 222,-247.5 222.88,-247.5 223.77,-247.53 224.65,-247.59 225.53,-247.64 226.4,-247.73 227.27,-247.85 228.13,-247.96 228.99,-248.1 229.84,-248.28 230.68,-248.45 231.52,-248.64 232.33,-248.87 233.15,-249.1 233.95,-249.35 234.73,-249.63 235.51,-249.9 236.27,-250.21 237,-250.53 237.74,-250.86 238.45,-251.21 239.13,-251.59 239.81,-251.96 240.47,-252.36 241.09,-252.77 241.72,-253.19 242.31,-253.63 242.87,-254.08 243.43,-254.54 243.96,-255.01 244.45,-255.5 244.94,-255.99 245.4,-256.5 245.81,-257.01 246.23,-257.53 246.61,-258.07 246.94,-258.61 247.28,-259.16 247.58,-259.71 247.84,-260.27 248.09,-260.84 248.31,-261.41 248.48,-261.99 248.65,-262.57 248.78,-263.15 248.87,-263.74 248.96,-264.32 249,-264.91 249,-265.5 249,-265.5 222,-265.5 222,-265.5"/>
<ellipse fill="none" stroke="black" stroke-width="3" cx="222" cy="-265.5" rx="27" ry="18"/>
<text xml:space="preserve" text-anchor="middle" x="222" y="-261.8" font-family="Times,serif" font-size="11.00">15</text>
</g>
<!-- n13&#45;&gt;n15 -->
<g id="edge3" class="edge">
<title>n13&#45;&gt;n15</title>
<path fill="none" stroke="#ddbb99" d="M222,-328.73C222,-319.13 222,-307.11 222,-296.2"/>
<polygon fill="#ddbb99" stroke="#ddbb99" points="225.5,-296.49 222,-286.49 218.5,-296.49 225.5,-296.49"/>
<text xml:space="preserve" text-anchor="middle" x="233.62" y="-303.45" font-family="Times,serif" font-size="9.00" fill="#ddbb99"> x + 2 </text>
</g>
<!-- n15&#45;&gt;n3 -->
<g id="edge4" class="edge">
<title>n15&#45;&gt;n3</title>
<path fill="none" stroke="#77aa77" d="M222.51,-246.12C223.02,-212.93 222.17,-141.02 208,-82.5 204.76,-69.14 203.13,-65.75 196,-54 193.83,-50.42 191.31,-46.81 188.68,-43.35"/>
<polygon fill="#77aa77" stroke="#77aa77" points="191.59,-41.38 182.57,-35.81 186.14,-45.79 191.59,-41.38"/>
<text xml:space="preserve" text-anchor="middle" x="229.6" y="-138.45" font-family="Times,serif" font-size="9.00" fill="#77aa77"> x // 5 </text>
</g>
<!-- n15&#45;&gt;n5 -->
<g id="edge5" class="edge">
<title>n15&#45;&gt;n5</title>
<path fill="none" stroke="#6688bb" d="M206.91,-249.3C201.6,-243.43 195.87,-236.46 191.5,-229.5 188.13,-224.13 185.08,-218.08 182.45,-212.19"/>
<polygon fill="#6688bb" stroke="#6688bb" points="185.84,-211.21 178.77,-203.32 179.37,-213.9 185.84,-211.21"/>
<text xml:space="preserve" text-anchor="middle" x="202.75" y="-220.95" font-family="Times,serif" font-size="9.00" fill="#6688bb"> x // 3 </text>
</g>
<!-- n17 -->
<g id="node9" class="node">
<title>n17</title>
<ellipse fill="#ffddcc" stroke="black" stroke-width="3" cx="27" cy="-430.5" rx="27" ry="18"/>
<text xml:space="preserve" text-anchor="middle" x="27" y="-426.8" font-family="Times,serif" font-size="11.00">17</text>
</g>
<!-- n19 -->
<g id="node10" class="node">
<title>n19</title>
<ellipse fill="#ffddcc" stroke="black" stroke-width="3" cx="27" cy="-348" rx="27" ry="18"/>
<text xml:space="preserve" text-anchor="middle" x="27" y="-344.3" font-family="Times,serif" font-size="11.00">19</text>
</g>
<!-- n17&#45;&gt;n19 -->
<g id="edge6" class="edge">
<title>n17&#45;&gt;n19</title>
<path fill="none" stroke="#ddbb99" d="M27,-411.23C27,-401.63 27,-389.61 27,-378.7"/>
<polygon fill="#ddbb99" stroke="#ddbb99" points="30.5,-378.99 27,-368.99 23.5,-378.99 30.5,-378.99"/>
<text xml:space="preserve" text-anchor="middle" x="38.62" y="-385.95" font-family="Times,serif" font-size="9.00" fill="#ddbb99"> x + 2 </text>
</g>
<!-- n21 -->
<g id="node11" class="node">
<title>n21</title>
<ellipse fill="#ccddff" stroke="black" stroke-width="3" cx="27" cy="-265.5" rx="27" ry="18"/>
<text xml:space="preserve" text-anchor="middle" x="27" y="-261.8" font-family="Times,serif" font-size="11.00">21</text>
</g>
<!-- n19&#45;&gt;n21 -->
<g id="edge7" class="edge">
<title>n19&#45;&gt;n21</title>
<path fill="none" stroke="#ddbb99" d="M27,-328.73C27,-319.13 27,-307.11 27,-296.2"/>
<polygon fill="#ddbb99" stroke="#ddbb99" points="30.5,-296.49 27,-286.49 23.5,-296.49 30.5,-296.49"/>
<text xml:space="preserve" text-anchor="middle" x="38.62" y="-303.45" font-family="Times,serif" font-size="9.00" fill="#ddbb99"> x + 2 </text>
</g>
<!-- n21&#45;&gt;n7 -->
<g id="edge8" class="edge">
<title>n21&#45;&gt;n7</title>
<path fill="none" stroke="#6688bb" d="M27,-246.23C27,-236.63 27,-224.61 27,-213.7"/>
<polygon fill="#6688bb" stroke="#6688bb" points="30.5,-213.99 27,-203.99 23.5,-213.99 30.5,-213.99"/>
<text xml:space="preserve" text-anchor="middle" x="38.25" y="-220.95" font-family="Times,serif" font-size="9.00" fill="#6688bb"> x // 3 </text>
</g>
<!-- n23 -->
<g id="node12" class="node">
<title>n23</title>
<ellipse fill="#ffddcc" stroke="black" stroke-width="3" cx="144" cy="-348" rx="27" ry="18"/>
<text xml:space="preserve" text-anchor="middle" x="144" y="-344.3" font-family="Times,serif" font-size="11.00">23</text>
</g>
<!-- n25 -->
<g id="node13" class="node">
<title>n25</title>
<ellipse fill="#cceecc" stroke="black" stroke-width="3" cx="144" cy="-265.5" rx="27" ry="18"/>
<text xml:space="preserve" text-anchor="middle" x="144" y="-261.8" font-family="Times,serif" font-size="11.00">25</text>
</g>
<!-- n23&#45;&gt;n25 -->
<g id="edge9" class="edge">
<title>n23&#45;&gt;n25</title>
<path fill="none" stroke="#ddbb99" d="M144,-328.73C144,-319.13 144,-307.11 144,-296.2"/>
<polygon fill="#ddbb99" stroke="#ddbb99" points="147.5,-296.49 144,-286.49 140.5,-296.49 147.5,-296.49"/>
<text xml:space="preserve" text-anchor="middle" x="155.62" y="-303.45" font-family="Times,serif" font-size="9.00" fill="#ddbb99"> x + 2 </text>
</g>
<!-- n25&#45;&gt;n5 -->
<g id="edge10" class="edge">
<title>n25&#45;&gt;n5</title>
<path fill="none" stroke="#77aa77" d="M142.11,-246.31C141.84,-237.79 142.44,-227.64 145.5,-219 146.75,-215.48 148.49,-212.02 150.49,-208.74"/>
<polygon fill="#77aa77" stroke="#77aa77" points="153.24,-210.91 156.15,-200.73 147.52,-206.87 153.24,-210.91"/>
<text xml:space="preserve" text-anchor="middle" x="156.75" y="-220.95" font-family="Times,serif" font-size="9.00" fill="#77aa77"> x // 5 </text>
</g>
<!-- n27 -->
<g id="node14" class="node">
<title>n27</title>
<ellipse fill="#ccddff" stroke="black" stroke-width="3" cx="99" cy="-183" rx="27" ry="18"/>
<text xml:space="preserve" text-anchor="middle" x="99" y="-179.3" font-family="Times,serif" font-size="11.00">27</text>
</g>
<!-- n27&#45;&gt;n9 -->
<g id="edge11" class="edge">
<title>n27&#45;&gt;n9</title>
<path fill="none" stroke="#6688bb" d="M98.77,-163.73C98.65,-154.13 98.5,-142.11 98.37,-131.2"/>
<polygon fill="#6688bb" stroke="#6688bb" points="101.87,-131.44 98.25,-121.49 94.87,-131.53 101.87,-131.44"/>
<text xml:space="preserve" text-anchor="middle" x="109.81" y="-138.45" font-family="Times,serif" font-size="9.00" fill="#6688bb"> x // 3 </text>
</g>
<!-- n29 -->
<g id="node15" class="node">
<title>n29</title>
<ellipse fill="#ffddcc" stroke="black" stroke-width="3" cx="222" cy="-678" rx="27" ry="18"/>
<text xml:space="preserve" text-anchor="middle" x="222" y="-674.3" font-family="Times,serif" font-size="11.00">29</text>
</g>
<!-- n31 -->
<g id="node16" class="node">
<title>n31</title>
<ellipse fill="#ffddcc" stroke="black" cx="222" cy="-595.5" rx="27" ry="18"/>
<text xml:space="preserve" text-anchor="middle" x="222" y="-591.8" font-family="Times,serif" font-size="11.00">31</text>
</g>
<!-- n29&#45;&gt;n31 -->
<g id="edge12" class="edge">
<title>n29&#45;&gt;n31</title>
<path fill="none" stroke="#ddbb99" d="M222,-658.73C222,-648.85 222,-636.43 222,-625.28"/>
<polygon fill="#ddbb99" stroke="#ddbb99" points="225.5,-625.38 222,-615.38 218.5,-625.38 225.5,-625.38"/>
<text xml:space="preserve" text-anchor="middle" x="233.62" y="-633.45" font-family="Times,serif" font-size="9.00" fill="#ddbb99"> x + 2 </text>
</g>
<!-- n33 -->
<g id="node17" class="node">
<title>n33</title>
<ellipse fill="#ccddff" stroke="black" cx="222" cy="-513" rx="27" ry="18"/>
<text xml:space="preserve" text-anchor="middle" x="222" y="-509.3" font-family="Times,serif" font-size="11.00">33</text>
</g>
<!-- n31&#45;&gt;n33 -->
<g id="edge14" class="edge">
<title>n31&#45;&gt;n33</title>
<path fill="none" stroke="#ddbb99" d="M222,-577.03C222,-567.01 222,-554.18 222,-542.71"/>
<polygon fill="#ddbb99" stroke="#ddbb99" points="225.5,-542.95 222,-532.95 218.5,-542.95 225.5,-542.95"/>
<text xml:space="preserve" text-anchor="middle" x="233.62" y="-550.95" font-family="Times,serif" font-size="9.00" fill="#ddbb99"> x + 2 </text>
</g>
<!-- n33&#45;&gt;n11 -->
<g id="edge15" class="edge">
<title>n33&#45;&gt;n11</title>
<path fill="none" stroke="#6688bb" d="M222,-494.53C222,-484.82 222,-472.47 222,-461.28"/>
<polygon fill="#6688bb" stroke="#6688bb" points="225.5,-461.28 222,-451.28 218.5,-461.28 225.5,-461.28"/>
<text xml:space="preserve" text-anchor="middle" x="233.25" y="-468.45" font-family="Times,serif" font-size="9.00" fill="#6688bb"> x // 3 </text>
</g>
</g>
</svg>
