<?xml version="1.0" encoding="UTF-8" standalone="no"?>
<!DOCTYPE svg PUBLIC "-//W3C//DTD SVG 1.1//EN"
 "http://www.w3.org/Graphics/SVG/1.1/DTD/svg11.dtd">
<!-- Generated by graphviz version 14.1.3 (20260303.0454)
 -->
<!-- Pages: 1 -->
<svg width="472pt" height="422pt"
 viewBox="0.00 0.00 472.00 422.00" xmlns="http://www.w3.org/2000/svg" xmlns:xlink="http://www.w3.org/1999/xlink">
<g id="graph0" class="graph" transform="scale(1 1) rotate(0) translate(4 417.94)">
<polygon fill="white" stroke="none" points="-4,4 -4,-417.94 468.41,-417.94 468.41,4 -4,4"/>
<!-- n1 -->
<g id="node1" class="node">
<title>n1</title>
<path fill="#ccddff" stroke="black" stroke-width="0.5" d="M189,-395.94C189,-395.94 216,-395.94 216,-395.94 216,-396.53 215.96,-397.12 215.87,-397.7 215.78,-398.29 215.65,-398.87 215.48,-399.45 215.31,-400.03 215.09,-400.6 214.84,-401.17 214.58,-401.73 214.28,-402.28 213.94,-402.83 213.61,-403.37 213.23,-403.91 212.81,-404.43 212.4,-404.94 211.94,-405.45 211.45,-405.94 210.96,-406.43 210.43,-406.9 209.87,-407.36 209.31,-407.81 208.72,-408.25 208.09,-408.67 207.47,-409.08 206.81,-409.48 206.13,-409.85 205.45,-410.23 204.74,-410.58 204,-410.91 203.27,-411.23 202.51,-411.54 201.73,-411.81 200.95,-412.09 200.15,-412.34 199.33,-412.57 198.52,-412.8 197.68,-412.99 196.84,-413.16 195.99,-413.34 195.13,-413.48 194.27,-413.59 193.4,-413.71 192.53,-413.8 191.65,-413.85 190.77,-413.91 189.88,-413.94 189,-413.94 188.12,-413.94 187.23,-413.91 186.35,-413.85 185.47,-413.8 184.6,-413.71 183.73,-413.59 182.87,-413.48 182.01,-413.34 181.16,-413.16 180.32,-412.99 179.48,-412.8 178.67,-412.57 177.85,-412.34 177.05,-412.09 176.27,-411.81 175.49,-411.54 174.73,-411.23 174,-410.91 173.26,-410.58 172.55,-410.23 171.87,-409.85 171.19,-409.48 170.53,-409.08 169.91,-408.67 169.28,-408.25 168.69,-407.81 168.13,-407.36 167.57,-406.9 167.04,-406.43 166.55,-405.94 166.06,-405.45 165.6,-404.94 165.19,-404.43 164.77,-403.91 164.39,-403.37 164.06,-402.83 163.72,-402.28 163.42,-401.73 163.16,-401.17 162.91,-400.6 162.69,-400.03 162.52,-399.45 162.35,-398.87 162.22,-398.29 162.13,-397.7 162.04,-397.12 162,-396.53 162,-395.94 162,-395.94 189,-395.94 189,-395.94"/>
<path fill="#ffddcc" stroke="black" stroke-width="0.5" d="M189,-395.94C189,-395.94 162,-395.94 162,-395.94 162,-395.35 162.04,-394.76 162.13,-394.18 162.22,-393.59 162.35,-393.01 162.52,-392.43 162.69,-391.85 162.91,-391.28 163.16,-390.71 163.42,-390.15 163.72,-389.6 164.06,-389.05 164.39,-388.51 164.77,-387.97 165.19,-387.45 165.6,-386.94 166.06,-386.43 166.55,-385.94 167.04,-385.45 167.57,-384.98 168.13,-384.52 168.69,-384.07 169.28,-383.63 169.91,-383.21 170.53,-382.8 171.19,-382.4 171.87,-382.03 172.55,-381.65 173.26,-381.3 174,-380.97 174.73,-380.65 175.49,-380.34 176.27,-380.07 177.05,-379.79 177.85,-379.54 178.67,-379.31 179.48,-379.08 180.32,-378.89 181.16,-378.72 182.01,-378.54 182.87,-378.4 183.73,-378.29 184.6,-378.17 185.47,-378.08 186.35,-378.03 187.23,-377.97 188.12,-377.94 189,-377.94 189.88,-377.94 190.77,-377.97 191.65,-378.03 192.53,-378.08 193.4,-378.17 194.27,-378.29 195.13,-378.4 195.99,-378.54 196.84,-378.72 197.68,-378.89 198.52,-379.08 199.33,-379.31 200.15,-379.54 200.95,-379.79 201.73,-380.07 202.51,-380.34 203.27,-380.65 204,-380.97 204.74,-381.3 205.45,-381.65 206.13,-382.03 206.81,-382.4 207.47,-382.8 208.09,-383.21 208.72,-383.63 209.31,-384.07 209.87,-384.52 210.43,-384.98 210.96,-385.45 211.45,-385.94 211.94,-386.43 212.4,-386.94 212.81,-387.45 213.23,-387.97 213.61,-388.51 213.94,-389.05 214.28,-389.6 214.58,-390.15 214.84,-390.71 215.09,-391.28 215.31,-391.85 215.48,-392.43 215.65,-393.01 215.78,-393.59 215.87,-394.18 215.96,-394.76 216,-395.35 216,-395.94 216,-395.94 189,-395.94 189,-395.94"/>
<ellipse fill="none" stroke="black" stroke-width="3" cx="189" cy="-395.94" rx="27" ry="18"/>
<text xml:space="preserve" text-anchor="middle" x="189" y="-392.24" font-family="Times,serif" font-size="11.00">1</text>
</g>
<!-- n2 -->
<g id="node2" class="node">
<title>n2</title>
<path fill="#ccddff" stroke="black" stroke-width="0.5" d="M156,-313.44C156,-313.44 183,-313.44 183,-313.44 183,-314.03 182.96,-314.62 182.87,-315.2 182.78,-315.79 182.65,-316.37 182.48,-316.95 182.31,-317.53 182.09,-318.1 181.84,-318.67 181.58,-319.23 181.28,-319.78 180.94,-320.33 180.61,-320.87 180.23,-321.41 179.81,-321.93 179.4,-322.44 178.94,-322.95 178.45,-323.44 177.96,-323.93 177.43,-324.4 176.87,-324.86 176.31,-325.31 175.72,-325.75 175.09,-326.17 174.47,-326.58 173.81,-326.98 173.13,-327.35 172.45,-327.73 171.74,-328.08 171,-328.41 170.27,-328.73 169.51,-329.04 168.73,-329.31 167.95,-329.59 167.15,-329.84 166.33,-330.07 165.52,-330.3 164.68,-330.49 163.84,-330.66 162.99,-330.84 162.13,-330.98 161.27,-331.09 160.4,-331.21 159.53,-331.3 158.65,-331.35 157.77,-331.41 156.88,-331.44 156,-331.44 155.12,-331.44 154.23,-331.41 153.35,-331.35 152.47,-331.3 151.6,-331.21 150.73,-331.09 149.87,-330.98 149.01,-330.84 148.16,-330.66 147.32,-330.49 146.48,-330.3 145.67,-330.07 144.85,-329.84 144.05,-329.59 143.27,-329.31 142.49,-329.04 141.73,-328.73 141,-328.41 140.26,-328.08 139.55,-327.73 138.87,-327.35 138.19,-326.98 137.53,-326.58 136.91,-326.17 136.28,-325.75 135.69,-325.31 135.13,-324.86 134.57,-324.4 134.04,-323.93 133.55,-323.44 133.06,-322.95 132.6,-322.44 132.19,-321.93 131.77,-321.41 131.39,-320.87 131.06,-320.33 130.72,-319.78 130.42,-319.23 130.16,-318.67 129.91,-318.1 129.69,-317.53 129.52,-316.95 129.35,-316.37 129.22,-315.79 129.13,-315.2 129.04,-314.62 129,-314.03 129,-313.44 129,-313.44 156,-313.44 156,-313.44"/>
<path fill="#ffddcc" stroke="black" stroke-width="0.5" d="M156,-313.44C156,-313.44 129,-313.44 129,-313.44 129,-312.85 129.04,-312.26 129.13,-311.68 129.22,-311.09 129.35,-310.51 129.52,-309.93 129.69,-309.35 129.91,-308.78 130.16,-308.21 130.42,-307.65 130.72,-307.1 131.06,-306.55 131.39,-306.01 131.77,-305.47 132.19,-304.95 132.6,-304.44 133.06,-303.93 133.55,-303.44 134.04,-302.95 134.57,-302.48 135.13,-302.02 135.69,-301.57 136.28,-301.13 136.91,-300.71 137.53,-300.3 138.19,-299.9 138.87,-299.53 139.55,-299.15 140.26,-298.8 141,-298.47 141.73,-298.15 142.49,-297.84 143.27,-297.57 144.05,-297.29 144.85,-297.04 145.67,-296.81 146.48,-296.58 147.32,-296.39 148.16,-296.22 149.01,-296.04 149.87,-295.9 150.73,-295.79 151.6,-295.67 152.47,-295.58 153.35,-295.53 154.23,-295.47 155.12,-295.44 156,-295.44 156.88,-295.44 157.77,-295.47 158.65,-295.53 159.53,-295.58 160.4,-295.67 161.27,-295.79 162.13,-295.9 162.99,-296.04 163.84,-296.22 164.68,-296.39 165.52,-296.58 166.33,-296.81 167.15,-297.04 167.95,-297.29 168.73,-297.57 169.51,-297.84 170.27,-298.15 171,-298.47 171.74,-298.8 172.45,-299.15 173.13,-299.53 173.81,-299.9 174.47,-300.3 175.09,-300.71 175.72,-301.13 176.31,-301.57 176.87,-302.02 177.43,-302.48 177.96,-302.95 178.45,-303.44 178.94,-303.93 179.4,-304.44 179.81,-304.95 180.23,-305.47 180.61,-306.01 180.94,-306.55 181.28,-307.1 181.58,-307.65 181.84,-308.21 182.09,-308.78 182.31,-309.35 182.48,-309.93 182.65,-310.51 182.78,-311.09 182.87,-311.68 182.96,-312.26 183,-312.85 183,-313.44 183,-313.44 156,-313.44 156,-313.44"/>
<ellipse fill="none" stroke="black" cx="156" cy="-313.44" rx="27" ry="18"/>
<text xml:space="preserve" text-anchor="middle" x="156" y="-309.74" font-family="Times,serif" font-size="11.00">2</text>
</g>
<!-- n1&#45;&gt;n2 -->
<g id="edge1" class="edge">
<title>n1&#45;&gt;n2</title>
<path fill="none" stroke="#6688bb" d="M179.15,-377.79C176.16,-372.2 173,-365.9 170.5,-359.94 168.15,-354.35 165.96,-348.24 164.03,-342.37"/>
<polygon fill="#6688bb" stroke="#6688bb" points="167.43,-341.51 161.12,-333 160.75,-343.59 167.43,-341.51"/>
<text xml:space="preserve" text-anchor="middle" x="181.75" y="-351.39" font-family="Times,serif" font-size="9.00" fill="#6688bb"> 2 * x </text>
</g>
<!-- n3 -->
<g id="node3" class="node">
<title>n3</title>
<path fill="#ccddff" stroke="black" stroke-width="0.5" d="M228,-313.44C228,-313.44 255,-313.44 255,-313.44 255,-314.03 254.96,-314.62 254.87,-315.2 254.78,-315.79 254.65,-316.37 254.48,-316.95 254.31,-317.53 254.09,-318.1 253.84,-318.67 253.58,-319.23 253.28,-319.78 252.94,-320.33 252.61,-320.87 252.23,-321.41 251.81,-321.93 251.4,-322.44 250.94,-322.95 250.45,-323.44 249.96,-323.93 249.43,-324.4 248.87,-324.86 248.31,-325.31 247.72,-325.75 247.09,-326.17 246.47,-326.58 245.81,-326.98 245.13,-327.35 244.45,-327.73 243.74,-328.08 243,-328.41 242.27,-328.73 241.51,-329.04 240.73,-329.31 239.95,-329.59 239.15,-329.84 238.33,-330.07 237.52,-330.3 236.68,-330.49 235.84,-330.66 234.99,-330.84 234.13,-330.98 233.27,-331.09 232.4,-331.21 231.53,-331.3 230.65,-331.35 229.77,-331.41 228.88,-331.44 228,-331.44 227.12,-331.44 226.23,-331.41 225.35,-331.35 224.47,-331.3 223.6,-331.21 222.73,-331.09 221.87,-330.98 221.01,-330.84 220.16,-330.66 219.32,-330.49 218.48,-330.3 217.67,-330.07 216.85,-329.84 216.05,-329.59 215.27,-329.31 214.49,-329.04 213.73,-328.73 213,-328.41 212.26,-328.08 211.55,-327.73 210.87,-327.35 210.19,-326.98 209.53,-326.58 208.91,-326.17 208.28,-325.75 207.69,-325.31 207.13,-324.86 206.57,-324.4 206.04,-323.93 205.55,-323.44 205.06,-322.95 204.6,-322.44 204.19,-321.93 203.77,-321.41 203.39,-320.87 203.06,-320.33 202.72,-319.78 202.42,-319.23 202.16,-318.67 201.91,-318.1 201.69,-317.53 201.52,-316.95 201.35,-316.37 201.22,-315.79 201.13,-315.2 201.04,-314.62 201,-314.03 201,-313.44 201,-313.44 228,-313.44 228,-313.44"/>
<path fill="#ffddcc" stroke="black" stroke-width="0.5" d="M228,-313.44C228,-313.44 201,-313.44 201,-313.44 201,-312.85 201.04,-312.26 201.13,-311.68 201.22,-311.09 201.35,-310.51 201.52,-309.93 201.69,-309.35 201.91,-308.78 202.16,-308.21 202.42,-307.65 202.72,-307.1 203.06,-306.55 203.39,-306.01 203.77,-305.47 204.19,-304.95 204.6,-304.44 205.06,-303.93 205.55,-303.44 206.04,-302.95 206.57,-302.48 207.13,-302.02 207.69,-301.57 208.28,-301.13 208.91,-300.71 209.53,-300.3 210.19,-299.9 210.87,-299.53 211.55,-299.15 212.26,-298.8 213,-298.47 213.73,-298.15 214.49,-297.84 215.27,-297.57 216.05,-297.29 216.85,-297.04 217.67,-296.81 218.48,-296.58 219.32,-296.39 220.16,-296.22 221.01,-296.04 221.87,-295.9 222.73,-295.79 223.6,-295.67 224.47,-295.58 225.35,-295.53 226.23,-295.47 227.12,-295.44 228,-295.44 228.88,-295.44 229.77,-295.47 230.65,-295.53 231.53,-295.58 232.4,-295.67 233.27,-295.79 234.13,-295.9 234.99,-296.04 235.84,-296.22 236.68,-296.39 237.52,-296.58 238.33,-296.81 239.15,-297.04 239.95,-297.29 240.73,-297.57 241.51,-297.84 242.27,-298.15 243,-298.47 243.74,-298.8 244.45,-299.15 245.13,-299.53 245.81,-299.9 246.47,-300.3 247.09,-300.71 247.72,-301.13 248.31,-301.57 248.87,-302.02 249.43,-302.48 249.96,-302.95 250.45,-303.44 250.94,-303.93 251.4,-304.44 251.81,-304.95 252.23,-305.47 252.61,-306.01 252.94,-306.55 253.28,-307.1 253.58,-307.65 253.84,-308.21 254.09,-308.78 254.31,-309.35 254.48,-309.93 254.65,-310.51 254.78,-311.09 254.87,-311.68 254.96,-312.26 255,-312.85 255,-313.44 255,-313.44 228,-313.44 228,-313.44"/>
<ellipse fill="none" stroke="black" cx="228" cy="-313.44" rx="27" ry="18"/>
<text xml:space="preserve" text-anchor="middle" x="228" y="-309.74" font-family="Times,serif" font-size="11.00">3</text>
</g>
<!-- n1&#45;&gt;n3 -->
<g id="edge2" class="edge">
<title>n1&#45;&gt;n3</title>
<path fill="none" stroke="#ddbb99" d="M197.46,-377.47C202.57,-366.92 209.19,-353.26 214.96,-341.35"/>
<polygon fill="#ddbb99" stroke="#ddbb99" points="218.08,-342.94 219.29,-332.41 211.78,-339.88 218.08,-342.94"/>
<text xml:space="preserve" text-anchor="middle" x="222.09" y="-351.39" font-family="Times,serif" font-size="9.00" fill="#ddbb99"> 3 * x </text>
</g>
<!-- n4 -->
<g id="node4" class="node">
<title>n4</title>
<path fill="#ccddff" stroke="black" stroke-width="0.5" d="M119,-230.94C119,-230.94 146,-230.94 146,-230.94 146,-231.53 145.96,-232.12 145.87,-232.7 145.78,-233.29 145.65,-233.87 145.48,-234.45 145.31,-235.03 145.09,-235.6 144.84,-236.17 144.58,-236.73 144.28,-237.28 143.94,-237.83 143.61,-238.37 143.23,-238.91 142.81,-239.43 142.4,-239.94 141.94,-240.45 141.45,-240.94 140.96,-241.43 140.43,-241.9 139.87,-242.36 139.31,-242.81 138.72,-243.25 138.09,-243.67 137.47,-244.08 136.81,-244.48 136.13,-244.85 135.45,-245.23 134.74,-245.58 134,-245.91 133.27,-246.23 132.51,-246.54 131.73,-246.81 130.95,-247.09 130.15,-247.34 129.33,-247.57 128.52,-247.8 127.68,-247.99 126.84,-248.16 125.99,-248.34 125.13,-248.48 124.27,-248.59 123.4,-248.71 122.53,-248.8 121.65,-248.85 120.77,-248.91 119.88,-248.94 119,-248.94 118.12,-248.94 117.23,-248.91 116.35,-248.85 115.47,-248.8 114.6,-248.71 113.73,-248.59 112.87,-248.48 112.01,-248.34 111.16,-248.16 110.32,-247.99 109.48,-247.8 108.67,-247.57 107.85,-247.34 107.05,-247.09 106.27,-246.81 105.49,-246.54 104.73,-246.23 104,-245.91 103.26,-245.58 102.55,-245.23 101.87,-244.85 101.19,-244.48 100.53,-244.08 99.91,-243.67 99.28,-243.25 98.69,-242.81 98.13,-242.36 97.57,-241.9 97.04,-241.43 96.55,-240.94 96.06,-240.45 95.6,-239.94 95.19,-239.43 94.77,-238.91 94.39,-238.37 94.06,-237.83 93.72,-237.28 93.42,-236.73 93.16,-236.17 92.91,-235.6 92.69,-235.03 92.52,-234.45 92.35,-233.87 92.22,-233.29 92.13,-232.7 92.04,-232.12 92,-231.53 92,-230.94 92,-230.94 119,-230.94 119,-230.94"/>
<path fill="#ffddcc" stroke="black" stroke-width="0.5" d="M119,-230.94C119,-230.94 92,-230.94 92,-230.94 92,-230.35 92.04,-229.76 92.13,-229.18 92.22,-228.59 92.35,-228.01 92.52,-227.43 92.69,-226.85 92.91,-226.28 93.16,-225.71 93.42,-225.15 93.72,-224.6 94.06,-224.05 94.39,-223.51 94.77,-222.97 95.19,-222.45 95.6,-221.94 96.06,-221.43 96.55,-220.94 97.04,-220.45 97.57,-219.98 98.13,-219.52 98.69,-219.07 99.28,-218.63 99.91,-218.21 100.53,-217.8 101.19,-217.4 101.87,-217.03 102.55,-216.65 103.26,-216.3 104,-215.97 104.73,-215.65 105.49,-215.34 106.27,-215.07 107.05,-214.79 107.85,-214.54 108.67,-214.31 109.48,-214.08 110.32,-213.89 111.16,-213.72 112.01,-213.54 112.87,-213.4 113.73,-213.29 114.6,-213.17 115.47,-213.08 116.35,-213.03 117.23,-212.97 118.12,-212.94 119,-212.94 119.88,-212.94 120.77,-212.97 121.65,-213.03 122.53,-213.08 123.4,-213.17 124.27,-213.29 125.13,-213.4 125.99,-213.54 126.84,-213.72 127.68,-213.89 128.52,-214.08 129.33,-214.31 130.15,-214.54 130.95,-214.79 131.73,-215.07 132.51,-215.34 133.27,-215.65 134,-215.97 134.74,-216.3 135.45,-216.65 136.13,-217.03 136.81,-217.4 137.47,-217.8 138.09,-218.21 138.72,-218.63 139.31,-219.07 139.87,-219.52 140.43,-219.98 140.96,-220.45 141.45,-220.94 141.94,-221.43 142.4,-221.94 142.81,-222.45 143.23,-222.97 143.61,-223.51 143.94,-224.05 144.28,-224.6 144.58,-225.15 144.84,-225.71 145.09,-226.28 145.31,-226.85 145.48,-227.43 145.65,-228.01 145.78,-228.59 145.87,-229.18 145.96,-229.76 146,-230.35 146,-230.94 146,-230.94 119,-230.94 119,-230.94"/>
<ellipse fill="none" stroke="black" cx="119" cy="-230.94" rx="27" ry="18"/>
<text xml:space="preserve" text-anchor="middle" x="119" y="-227.24" font-family="Times,serif" font-size="11.00">4</text>
</g>
<!-- n2&#45;&gt;n4 -->
<g id="edge3" class="edge">
<title>n2&#45;&gt;n4</title>
<path fill="none" stroke="#6688bb" d="M148.33,-295.76C143.42,-285.07 136.94,-270.97 131.31,-258.73"/>
<polygon fill="#6688bb" stroke="#6688bb" points="134.65,-257.6 127.29,-249.97 128.28,-260.52 134.65,-257.6"/>
<text xml:space="preserve" text-anchor="middle" x="150.97" y="-268.89" font-family="Times,serif" font-size="9.00" fill="#6688bb"> 2 * x </text>
</g>
<!-- n6 -->
<g id="node6" class="node">
<title>n6</title>
<path fill="#ccddff" stroke="black" stroke-width="0.5" d="M191,-230.94C191,-230.94 218,-230.94 218,-230.94 218,-231.53 217.96,-232.12 217.87,-232.7 217.78,-233.29 217.65,-233.87 217.48,-234.45 217.31,-235.03 217.09,-235.6 216.84,-236.17 216.58,-236.73 216.28,-237.28 215.94,-237.83 215.61,-238.37 215.23,-238.91 214.81,-239.43 214.4,-239.94 213.94,-240.45 213.45,-240.94 212.96,-241.43 212.43,-241.9 211.87,-242.36 211.31,-242.81 210.72,-243.25 210.09,-243.67 209.47,-244.08 208.81,-244.48 208.13,-244.85 207.45,-245.23 206.74,-245.58 206,-245.91 205.27,-246.23 204.51,-246.54 203.73,-246.81 202.95,-247.09 202.15,-247.34 201.33,-247.57 200.52,-247.8 199.68,-247.99 198.84,-248.16 197.99,-248.34 197.13,-248.48 196.27,-248.59 195.4,-248.71 194.53,-248.8 193.65,-248.85 192.77,-248.91 191.88,-248.94 191,-248.94 190.12,-248.94 189.23,-248.91 188.35,-248.85 187.47,-248.8 186.6,-248.71 185.73,-248.59 184.87,-248.48 184.01,-248.34 183.16,-248.16 182.32,-247.99 181.48,-247.8 180.67,-247.57 179.85,-247.34 179.05,-247.09 178.27,-246.81 177.49,-246.54 176.73,-246.23 176,-245.91 175.26,-245.58 174.55,-245.23 173.87,-244.85 173.19,-244.48 172.53,-244.08 171.91,-243.67 171.28,-243.25 170.69,-242.81 170.13,-242.36 169.57,-241.9 169.04,-241.43 168.55,-240.94 168.06,-240.45 167.6,-239.94 167.19,-239.43 166.77,-238.91 166.39,-238.37 166.06,-237.83 165.72,-237.28 165.42,-236.73 165.16,-236.17 164.91,-235.6 164.69,-235.03 164.52,-234.45 164.35,-233.87 164.22,-233.29 164.13,-232.7 164.04,-232.12 164,-231.53 164,-230.94 164,-230.94 191,-230.94 191,-230.94"/>
<path fill="#ffddcc" stroke="black" stroke-width="0.5" d="M191,-230.94C191,-230.94 164,-230.94 164,-230.94 164,-230.35 164.04,-229.76 164.13,-229.18 164.22,-228.59 164.35,-228.01 164.52,-227.43 164.69,-226.85 164.91,-226.28 165.16,-225.71 165.42,-225.15 165.72,-224.6 166.06,-224.05 166.39,-223.51 166.77,-222.97 167.19,-222.45 167.6,-221.94 168.06,-221.43 168.55,-220.94 169.04,-220.45 169.57,-219.98 170.13,-219.52 170.69,-219.07 171.28,-218.63 171.91,-218.21 172.53,-217.8 173.19,-217.4 173.87,-217.03 174.55,-216.65 175.26,-216.3 176,-215.97 176.73,-215.65 177.49,-215.34 178.27,-215.07 179.05,-214.79 179.85,-214.54 180.67,-214.31 181.48,-214.08 182.32,-213.89 183.16,-213.72 184.01,-213.54 184.87,-213.4 185.73,-213.29 186.6,-213.17 187.47,-213.08 188.35,-213.03 189.23,-212.97 190.12,-212.94 191,-212.94 191.88,-212.94 192.77,-212.97 193.65,-213.03 194.53,-213.08 195.4,-213.17 196.27,-213.29 197.13,-213.4 197.99,-213.54 198.84,-213.72 199.68,-213.89 200.52,-214.08 201.33,-214.31 202.15,-214.54 202.95,-214.79 203.73,-215.07 204.51,-215.34 205.27,-215.65 206,-215.97 206.74,-216.3 207.45,-216.65 208.13,-217.03 208.81,-217.4 209.47,-217.8 210.09,-218.21 210.72,-218.63 211.31,-219.07 211.87,-219.52 212.43,-219.98 212.96,-220.45 213.45,-220.94 213.94,-221.43 214.4,-221.94 214.81,-222.45 215.23,-222.97 215.61,-223.51 215.94,-224.05 216.28,-224.6 216.58,-225.15 216.84,-225.71 217.09,-226.28 217.31,-226.85 217.48,-227.43 217.65,-228.01 217.78,-228.59 217.87,-229.18 217.96,-229.76 218,-230.35 218,-230.94 218,-230.94 191,-230.94 191,-230.94"/>
<ellipse fill="none" stroke="black" cx="191" cy="-230.94" rx="27" ry="18"/>
<text xml:space="preserve" text-anchor="middle" x="191" y="-227.24" font-family="Times,serif" font-size="11.00">6</text>
</g>
<!-- n2&#45;&gt;n6 -->
<g id="edge4" class="edge">
<title>n2&#45;&gt;n6</title>
<path fill="none" stroke="#ddbb99" d="M160.5,-295.25C163.01,-286.59 166.45,-276.03 170.5,-266.94 171.84,-263.92 173.38,-260.84 175,-257.81"/>
<polygon fill="#ddbb99" stroke="#ddbb99" points="177.98,-259.66 179.88,-249.24 171.89,-256.2 177.98,-259.66"/>
<text xml:space="preserve" text-anchor="middle" x="181.75" y="-268.89" font-family="Times,serif" font-size="9.00" fill="#ddbb99"> 3 * x </text>
</g>
<!-- n3&#45;&gt;n6 -->
<g id="edge5" class="edge">
<title>n3&#45;&gt;n6</title>
<path fill="none" stroke="#6688bb" d="M220.33,-295.76C215.42,-285.07 208.94,-270.97 203.31,-258.73"/>
<polygon fill="#6688bb" stroke="#6688bb" points="206.65,-257.6 199.29,-249.97 200.28,-260.52 206.65,-257.6"/>
<text xml:space="preserve" text-anchor="middle" x="222.97" y="-268.89" font-family="Times,serif" font-size="9.00" fill="#6688bb"> 2 * x </text>
</g>
<!-- n9 -->
<g id="node8" class="node">
<title>n9</title>
<path fill="#ccddff" stroke="black" stroke-width="0.5" d="M263,-230.94C263,-230.94 290,-230.94 290,-230.94 290,-231.53 289.96,-232.12 289.87,-232.7 289.78,-233.29 289.65,-233.87 289.48,-234.45 289.31,-235.03 289.09,-235.6 288.84,-236.17 288.58,-236.73 288.28,-237.28 287.94,-237.83 287.61,-238.37 287.23,-238.91 286.81,-239.43 286.4,-239.94 285.94,-240.45 285.45,-240.94 284.96,-241.43 284.43,-241.9 283.87,-242.36 283.31,-242.81 282.72,-243.25 282.09,-243.67 281.47,-244.08 280.81,-244.48 280.13,-244.85 279.45,-245.23 278.74,-245.58 278,-245.91 277.27,-246.23 276.51,-246.54 275.73,-246.81 274.95,-247.09 274.15,-247.34 273.33,-247.57 272.52,-247.8 271.68,-247.99 270.84,-248.16 269.99,-248.34 269.13,-248.48 268.27,-248.59 267.4,-248.71 266.53,-248.8 265.65,-248.85 264.77,-248.91 263.88,-248.94 263,-248.94 262.12,-248.94 261.23,-248.91 260.35,-248.85 259.47,-248.8 258.6,-248.71 257.73,-248.59 256.87,-248.48 256.01,-248.34 255.16,-248.16 254.32,-247.99 253.48,-247.8 252.67,-247.57 251.85,-247.34 251.05,-247.09 250.27,-246.81 249.49,-246.54 248.73,-246.23 248,-245.91 247.26,-245.58 246.55,-245.23 245.87,-244.85 245.19,-244.48 244.53,-244.08 243.91,-243.67 243.28,-243.25 242.69,-242.81 242.13,-242.36 241.57,-241.9 241.04,-241.43 240.55,-240.94 240.06,-240.45 239.6,-239.94 239.19,-239.43 238.77,-238.91 238.39,-238.37 238.06,-237.83 237.72,-237.28 237.42,-236.73 237.16,-236.17 236.91,-235.6 236.69,-235.03 236.52,-234.45 236.35,-233.87 236.22,-233.29 236.13,-232.7 236.04,-232.12 236,-231.53 236,-230.94 236,-230.94 263,-230.94 263,-230.94"/>
<path fill="#ffddcc" stroke="black" stroke-width="0.5" d="M263,-230.94C263,-230.94 236,-230.94 236,-230.94 236,-230.35 236.04,-229.76 236.13,-229.18 236.22,-228.59 236.35,-228.01 236.52,-227.43 236.69,-226.85 236.91,-226.28 237.16,-225.71 237.42,-225.15 237.72,-224.6 238.06,-224.05 238.39,-223.51 238.77,-222.97 239.19,-222.45 239.6,-221.94 240.06,-221.43 240.55,-220.94 241.04,-220.45 241.57,-219.98 242.13,-219.52 242.69,-219.07 243.28,-218.63 243.91,-218.21 244.53,-217.8 245.19,-217.4 245.87,-217.03 246.55,-216.65 247.26,-216.3 248,-215.97 248.73,-215.65 249.49,-215.34 250.27,-215.07 251.05,-214.79 251.85,-214.54 252.67,-214.31 253.48,-214.08 254.32,-213.89 255.16,-213.72 256.01,-213.54 256.87,-213.4 257.73,-213.29 258.6,-213.17 259.47,-213.08 260.35,-213.03 261.23,-212.97 262.12,-212.94 263,-212.94 263.88,-212.94 264.77,-212.97 265.65,-213.03 266.53,-213.08 267.4,-213.17 268.27,-213.29 269.13,-213.4 269.99,-213.54 270.84,-213.72 271.68,-213.89 272.52,-214.08 273.33,-214.31 274.15,-214.54 274.95,-214.79 275.73,-215.07 276.51,-215.34 277.27,-215.65 278,-215.97 278.74,-216.3 279.45,-216.65 280.13,-217.03 280.81,-217.4 281.47,-217.8 282.09,-218.21 282.72,-218.63 283.31,-219.07 283.87,-219.52 284.43,-219.98 284.96,-220.45 285.45,-220.94 285.94,-221.43 286.4,-221.94 286.81,-222.45 287.23,-222.97 287.61,-223.51 287.94,-224.05 288.28,-224.6 288.58,-225.15 288.84,-225.71 289.09,-226.28 289.31,-226.85 289.48,-227.43 289.65,-228.01 289.78,-228.59 289.87,-229.18 289.96,-229.76 290,-230.35 290,-230.94 290,-230.94 263,-230.94 263,-230.94"/>
<ellipse fill="none" stroke="black" cx="263" cy="-230.94" rx="27" ry="18"/>
<text xml:space="preserve" text-anchor="middle" x="263" y="-227.24" font-family="Times,serif" font-size="11.00">9</text>
</g>
<!-- n3&#45;&gt;n9 -->
<g id="edge6" class="edge">
<title>n3&#45;&gt;n9</title>
<path fill="none" stroke="#ddbb99" d="M235.25,-295.76C239.85,-285.18 245.91,-271.25 251.19,-259.1"/>
<polygon fill="#ddbb99" stroke="#ddbb99" points="254.38,-260.55 255.15,-249.99 247.96,-257.76 254.38,-260.55"/>
<text xml:space="preserve" text-anchor="middle" x="258.85" y="-268.89" font-family="Times,serif" font-size="9.00" fill="#ddbb99"> 3 * x </text>
</g>
<!-- n8 -->
<g id="node7" class="node">
<title>n8</title>
<path fill="#ccddff" stroke="black" stroke-width="0.5" d="M72,-148.44C72,-148.44 99,-148.44 99,-148.44 99,-149.03 98.96,-149.62 98.87,-150.2 98.78,-150.79 98.65,-151.37 98.48,-151.95 98.31,-152.53 98.09,-153.1 97.84,-153.67 97.58,-154.23 97.28,-154.78 96.94,-155.33 96.61,-155.87 96.23,-156.41 95.81,-156.93 95.4,-157.44 94.94,-157.95 94.45,-158.44 93.96,-158.93 93.43,-159.4 92.87,-159.86 92.31,-160.31 91.72,-160.75 91.09,-161.17 90.47,-161.58 89.81,-161.98 89.13,-162.35 88.45,-162.73 87.74,-163.08 87,-163.41 86.27,-163.73 85.51,-164.04 84.73,-164.31 83.95,-164.59 83.15,-164.84 82.33,-165.07 81.52,-165.3 80.68,-165.49 79.84,-165.66 78.99,-165.84 78.13,-165.98 77.27,-166.09 76.4,-166.21 75.53,-166.3 74.65,-166.35 73.77,-166.41 72.88,-166.44 72,-166.44 71.12,-166.44 70.23,-166.41 69.35,-166.35 68.47,-166.3 67.6,-166.21 66.73,-166.09 65.87,-165.98 65.01,-165.84 64.16,-165.66 63.32,-165.49 62.48,-165.3 61.67,-165.07 60.85,-164.84 60.05,-164.59 59.27,-164.31 58.49,-164.04 57.73,-163.73 57,-163.41 56.26,-163.08 55.55,-162.73 54.87,-162.35 54.19,-161.98 53.53,-161.58 52.91,-161.17 52.28,-160.75 51.69,-160.31 51.13,-159.86 50.57,-159.4 50.04,-158.93 49.55,-158.44 49.06,-157.95 48.6,-157.44 48.19,-156.93 47.77,-156.41 47.39,-155.87 47.06,-155.33 46.72,-154.78 46.42,-154.23 46.16,-153.67 45.91,-153.1 45.69,-152.53 45.52,-151.95 45.35,-151.37 45.22,-150.79 45.13,-150.2 45.04,-149.62 45,-149.03 45,-148.44 45,-148.44 72,-148.44 72,-148.44"/>
<path fill="#ffddcc" stroke="black" stroke-width="0.5" d="M72,-148.44C72,-148.44 45,-148.44 45,-148.44 45,-147.85 45.04,-147.26 45.13,-146.68 45.22,-146.09 45.35,-145.51 45.52,-144.93 45.69,-144.35 45.91,-143.78 46.16,-143.21 46.42,-142.65 46.72,-142.1 47.06,-141.55 47.39,-141.01 47.77,-140.47 48.19,-139.95 48.6,-139.44 49.06,-138.93 49.55,-138.44 50.04,-137.95 50.57,-137.48 51.13,-137.02 51.69,-136.57 52.28,-136.13 52.91,-135.71 53.53,-135.3 54.19,-134.9 54.87,-134.53 55.55,-134.15 56.26,-133.8 57,-133.47 57.73,-133.15 58.49,-132.84 59.27,-132.57 60.05,-132.29 60.85,-132.04 61.67,-131.81 62.48,-131.58 63.32,-131.39 64.16,-131.22 65.01,-131.04 65.87,-130.9 66.73,-130.79 67.6,-130.67 68.47,-130.58 69.35,-130.53 70.23,-130.47 71.12,-130.44 72,-130.44 72.88,-130.44 73.77,-130.47 74.65,-130.53 75.53,-130.58 76.4,-130.67 77.27,-130.79 78.13,-130.9 78.99,-131.04 79.84,-131.22 80.68,-131.39 81.52,-131.58 82.33,-131.81 83.15,-132.04 83.95,-132.29 84.73,-132.57 85.51,-132.84 86.27,-133.15 87,-133.47 87.74,-133.8 88.45,-134.15 89.13,-134.53 89.81,-134.9 90.47,-135.3 91.09,-135.71 91.72,-136.13 92.31,-136.57 92.87,-137.02 93.43,-137.48 93.96,-137.95 94.45,-138.44 94.94,-138.93 95.4,-139.44 95.81,-139.95 96.23,-140.47 96.61,-141.01 96.94,-141.55 97.28,-142.1 97.58,-142.65 97.84,-143.21 98.09,-143.78 98.31,-144.35 98.48,-144.93 98.65,-145.51 98.78,-146.09 98.87,-146.68 98.96,-147.26 99,-147.85 99,-148.44 99,-148.44 72,-148.44 72,-148.44"/>
<ellipse fill="none" stroke="black" cx="72" cy="-148.44" rx="27" ry="18"/>
<text xml:space="preserve" text-anchor="middle" x="72" y="-144.74" font-family="Times,serif" font-size="11.00">8</text>
</g>
<!-- n4&#45;&gt;n8 -->
<g id="edge8" class="edge">
<title>n4&#45;&gt;n8</title>
<path fill="none" stroke="#6688bb" d="M107.26,-214.25C103.03,-208.33 98.36,-201.45 94.5,-194.94 90.99,-189.01 87.52,-182.47 84.41,-176.23"/>
<polygon fill="#6688bb" stroke="#6688bb" points="87.71,-175.02 80.2,-167.55 81.41,-178.07 87.71,-175.02"/>
<text xml:space="preserve" text-anchor="middle" x="105.75" y="-186.39" font-family="Times,serif" font-size="9.00" fill="#6688bb"> 2 * x </text>
</g>
<!-- n12 -->
<g id="node10" class="node">
<title>n12</title>
<path fill="#ccddff" stroke="black" stroke-width="0.5" d="M144,-148.44C144,-148.44 171,-148.44 171,-148.44 171,-149.03 170.96,-149.62 170.87,-150.2 170.78,-150.79 170.65,-151.37 170.48,-151.95 170.31,-152.53 170.09,-153.1 169.84,-153.67 169.58,-154.23 169.28,-154.78 168.94,-155.33 168.61,-155.87 168.23,-156.41 167.81,-156.93 167.4,-157.44 166.94,-157.95 166.45,-158.44 165.96,-158.93 165.43,-159.4 164.87,-159.86 164.31,-160.31 163.72,-160.75 163.09,-161.17 162.47,-161.58 161.81,-161.98 161.13,-162.35 160.45,-162.73 159.74,-163.08 159,-163.41 158.27,-163.73 157.51,-164.04 156.73,-164.31 155.95,-164.59 155.15,-164.84 154.33,-165.07 153.52,-165.3 152.68,-165.49 151.84,-165.66 150.99,-165.84 150.13,-165.98 149.27,-166.09 148.4,-166.21 147.53,-166.3 146.65,-166.35 145.77,-166.41 144.88,-166.44 144,-166.44 143.12,-166.44 142.23,-166.41 141.35,-166.35 140.47,-166.3 139.6,-166.21 138.73,-166.09 137.87,-165.98 137.01,-165.84 136.16,-165.66 135.32,-165.49 134.48,-165.3 133.67,-165.07 132.85,-164.84 132.05,-164.59 131.27,-164.31 130.49,-164.04 129.73,-163.73 129,-163.41 128.26,-163.08 127.55,-162.73 126.87,-162.35 126.19,-161.98 125.53,-161.58 124.91,-161.17 124.28,-160.75 123.69,-160.31 123.13,-159.86 122.57,-159.4 122.04,-158.93 121.55,-158.44 121.06,-157.95 120.6,-157.44 120.19,-156.93 119.77,-156.41 119.39,-155.87 119.06,-155.33 118.72,-154.78 118.42,-154.23 118.16,-153.67 117.91,-153.1 117.69,-152.53 117.52,-151.95 117.35,-151.37 117.22,-150.79 117.13,-150.2 117.04,-149.62 117,-149.03 117,-148.44 117,-148.44 144,-148.44 144,-148.44"/>
<path fill="#ffddcc" stroke="black" stroke-width="0.5" d="M144,-148.44C144,-148.44 117,-148.44 117,-148.44 117,-147.85 117.04,-147.26 117.13,-146.68 117.22,-146.09 117.35,-145.51 117.52,-144.93 117.69,-144.35 117.91,-143.78 118.16,-143.21 118.42,-142.65 118.72,-142.1 119.06,-141.55 119.39,-141.01 119.77,-140.47 120.19,-139.95 120.6,-139.44 121.06,-138.93 121.55,-138.44 122.04,-137.95 122.57,-137.48 123.13,-137.02 123.69,-136.57 124.28,-136.13 124.91,-135.71 125.53,-135.3 126.19,-134.9 126.87,-134.53 127.55,-134.15 128.26,-133.8 129,-133.47 129.73,-133.15 130.49,-132.84 131.27,-132.57 132.05,-132.29 132.85,-132.04 133.67,-131.81 134.48,-131.58 135.32,-131.39 136.16,-131.22 137.01,-131.04 137.87,-130.9 138.73,-130.79 139.6,-130.67 140.47,-130.58 141.35,-130.53 142.23,-130.47 143.12,-130.44 144,-130.44 144.88,-130.44 145.77,-130.47 146.65,-130.53 147.53,-130.58 148.4,-130.67 149.27,-130.79 150.13,-130.9 150.99,-131.04 151.84,-131.22 152.68,-131.39 153.52,-131.58 154.33,-131.81 155.15,-132.04 155.95,-132.29 156.73,-132.57 157.51,-132.84 158.27,-133.15 159,-133.47 159.74,-133.8 160.45,-134.15 161.13,-134.53 161.81,-134.9 162.47,-135.3 163.09,-135.71 163.72,-136.13 164.31,-136.57 164.87,-137.02 165.43,-137.48 165.96,-137.95 166.45,-138.44 166.94,-138.93 167.4,-139.44 167.81,-139.95 168.23,-140.47 168.61,-141.01 168.94,-141.55 169.28,-142.1 169.58,-142.65 169.84,-143.21 170.09,-143.78 170.31,-144.35 170.48,-144.93 170.65,-145.51 170.78,-146.09 170.87,-146.68 170.96,-147.26 171,-147.85 171,-148.44 171,-148.44 144,-148.44 144,-148.44"/>
<ellipse fill="none" stroke="black" cx="144" cy="-148.44" rx="27" ry="18"/>
<text xml:space="preserve" text-anchor="middle" x="144" y="-144.74" font-family="Times,serif" font-size="11.00">12</text>
</g>
<!-- n4&#45;&gt;n12 -->
<g id="edge7" class="edge">
<title>n4&#45;&gt;n12</title>
<path fill="none" stroke="#ddbb99" d="M118.97,-212.73C119.38,-204.06 120.56,-193.5 123.5,-184.44 124.52,-181.3 125.85,-178.14 127.35,-175.06"/>
<polygon fill="#ddbb99" stroke="#ddbb99" points="130.34,-176.9 132.13,-166.45 124.22,-173.5 130.34,-176.9"/>
<text xml:space="preserve" text-anchor="middle" x="134.75" y="-186.39" font-family="Times,serif" font-size="9.00" fill="#ddbb99"> 3 * x </text>
</g>
<!-- n5 -->
<g id="node5" class="node">
<title>n5</title>
<path fill="#ccddff" stroke="black" stroke-width="0.5" d="M382,-395.94C382,-395.94 409,-395.94 409,-395.94 409,-396.53 408.96,-397.12 408.87,-397.7 408.78,-398.29 408.65,-398.87 408.48,-399.45 408.31,-400.03 408.09,-400.6 407.84,-401.17 407.58,-401.73 407.28,-402.28 406.94,-402.83 406.61,-403.37 406.23,-403.91 405.81,-404.43 405.4,-404.94 404.94,-405.45 404.45,-405.94 403.96,-406.43 403.43,-406.9 402.87,-407.36 402.31,-407.81 401.72,-408.25 401.09,-408.67 400.47,-409.08 399.81,-409.48 399.13,-409.85 398.45,-410.23 397.74,-410.58 397,-410.91 396.27,-411.23 395.51,-411.54 394.73,-411.81 393.95,-412.09 393.15,-412.34 392.33,-412.57 391.52,-412.8 390.68,-412.99 389.84,-413.16 388.99,-413.34 388.13,-413.48 387.27,-413.59 386.4,-413.71 385.53,-413.8 384.65,-413.85 383.77,-413.91 382.88,-413.94 382,-413.94 381.12,-413.94 380.23,-413.91 379.35,-413.85 378.47,-413.8 377.6,-413.71 376.73,-413.59 375.87,-413.48 375.01,-413.34 374.16,-413.16 373.32,-412.99 372.48,-412.8 371.67,-412.57 370.85,-412.34 370.05,-412.09 369.27,-411.81 368.49,-411.54 367.73,-411.23 367,-410.91 366.26,-410.58 365.55,-410.23 364.87,-409.85 364.19,-409.48 363.53,-409.08 362.91,-408.67 362.28,-408.25 361.69,-407.81 361.13,-407.36 360.57,-406.9 360.04,-406.43 359.55,-405.94 359.06,-405.45 358.6,-404.94 358.19,-404.43 357.77,-403.91 357.39,-403.37 357.06,-402.83 356.72,-402.28 356.42,-401.73 356.16,-401.17 355.91,-400.6 355.69,-400.03 355.52,-399.45 355.35,-398.87 355.22,-398.29 355.13,-397.7 355.04,-397.12 355,-396.53 355,-395.94 355,-395.94 382,-395.94 382,-395.94"/>
<path fill="#ffddcc" stroke="black" stroke-width="0.5" d="M382,-395.94C382,-395.94 355,-395.94 355,-395.94 355,-395.35 355.04,-394.76 355.13,-394.18 355.22,-393.59 355.35,-393.01 355.52,-392.43 355.69,-391.85 355.91,-391.28 356.16,-390.71 356.42,-390.15 356.72,-389.6 357.06,-389.05 357.39,-388.51 357.77,-387.97 358.19,-387.45 358.6,-386.94 359.06,-386.43 359.55,-385.94 360.04,-385.45 360.57,-384.98 361.13,-384.52 361.69,-384.07 362.28,-383.63 362.91,-383.21 363.53,-382.8 364.19,-382.4 364.87,-382.03 365.55,-381.65 366.26,-381.3 367,-380.97 367.73,-380.65 368.49,-380.34 369.27,-380.07 370.05,-379.79 370.85,-379.54 371.67,-379.31 372.48,-379.08 373.32,-378.89 374.16,-378.72 375.01,-378.54 375.87,-378.4 376.73,-378.29 377.6,-378.17 378.47,-378.08 379.35,-378.03 380.23,-377.97 381.12,-377.94 382,-377.94 382.88,-377.94 383.77,-377.97 384.65,-378.03 385.53,-378.08 386.4,-378.17 387.27,-378.29 388.13,-378.4 388.99,-378.54 389.84,-378.72 390.68,-378.89 391.52,-379.08 392.33,-379.31 393.15,-379.54 393.95,-379.79 394.73,-380.07 395.51,-380.34 396.27,-380.65 397,-380.97 397.74,-381.3 398.45,-381.65 399.13,-382.03 399.81,-382.4 400.47,-382.8 401.09,-383.21 401.72,-383.63 402.31,-384.07 402.87,-384.52 403.43,-384.98 403.96,-385.45 404.45,-385.94 404.94,-386.43 405.4,-386.94 405.81,-387.45 406.23,-387.97 406.61,-388.51 406.94,-389.05 407.28,-389.6 407.58,-390.15 407.84,-390.71 408.09,-391.28 408.31,-391.85 408.48,-392.43 408.65,-393.01 408.78,-393.59 408.87,-394.18 408.96,-394.76 409,-395.35 409,-395.94 409,-395.94 382,-395.94 382,-395.94"/>
<ellipse fill="none" stroke="black" stroke-width="3" cx="382" cy="-395.94" rx="27" ry="18"/>
<text xml:space="preserve" text-anchor="middle" x="382" y="-392.24" font-family="Times,serif" font-size="11.00">5</text>
</g>
<!-- n10 -->
<g id="node9" class="node">
<title>n10</title>
<path fill="#ccddff" stroke="black" stroke-width="0.5" d="M347,-313.44C347,-313.44 374,-313.44 374,-313.44 374,-314.03 373.96,-314.62 373.87,-315.2 373.78,-315.79 373.65,-316.37 373.48,-316.95 373.31,-317.53 373.09,-318.1 372.84,-318.67 372.58,-319.23 372.28,-319.78 371.94,-320.33 371.61,-320.87 371.23,-321.41 370.81,-321.93 370.4,-322.44 369.94,-322.95 369.45,-323.44 368.96,-323.93 368.43,-324.4 367.87,-324.86 367.31,-325.31 366.72,-325.75 366.09,-326.17 365.47,-326.58 364.81,-326.98 364.13,-327.35 363.45,-327.73 362.74,-328.08 362,-328.41 361.27,-328.73 360.51,-329.04 359.73,-329.31 358.95,-329.59 358.15,-329.84 357.33,-330.07 356.52,-330.3 355.68,-330.49 354.84,-330.66 353.99,-330.84 353.13,-330.98 352.27,-331.09 351.4,-331.21 350.53,-331.3 349.65,-331.35 348.77,-331.41 347.88,-331.44 347,-331.44 346.12,-331.44 345.23,-331.41 344.35,-331.35 343.47,-331.3 342.6,-331.21 341.73,-331.09 340.87,-330.98 340.01,-330.84 339.16,-330.66 338.32,-330.49 337.48,-330.3 336.67,-330.07 335.85,-329.84 335.05,-329.59 334.27,-329.31 333.49,-329.04 332.73,-328.73 332,-328.41 331.26,-328.08 330.55,-327.73 329.87,-327.35 329.19,-326.98 328.53,-326.58 327.91,-326.17 327.28,-325.75 326.69,-325.31 326.13,-324.86 325.57,-324.4 325.04,-323.93 324.55,-323.44 324.06,-322.95 323.6,-322.44 323.19,-321.93 322.77,-321.41 322.39,-320.87 322.06,-320.33 321.72,-319.78 321.42,-319.23 321.16,-318.67 320.91,-318.1 320.69,-317.53 320.52,-316.95 320.35,-316.37 320.22,-315.79 320.13,-315.2 320.04,-314.62 320,-314.03 320,-313.44 320,-313.44 347,-313.44 347,-313.44"/>
<path fill="#ffddcc" stroke="black" stroke-width="0.5" d="M347,-313.44C347,-313.44 320,-313.44 320,-313.44 320,-312.85 320.04,-312.26 320.13,-311.68 320.22,-311.09 320.35,-310.51 320.52,-309.93 320.69,-309.35 320.91,-308.78 321.16,-308.21 321.42,-307.65 321.72,-307.1 322.06,-306.55 322.39,-306.01 322.77,-305.47 323.19,-304.95 323.6,-304.44 324.06,-303.93 324.55,-303.44 325.04,-302.95 325.57,-302.48 326.13,-302.02 326.69,-301.57 327.28,-301.13 327.91,-300.71 328.53,-300.3 329.19,-299.9 329.87,-299.53 330.55,-299.15 331.26,-298.8 332,-298.47 332.73,-298.15 333.49,-297.84 334.27,-297.57 335.05,-297.29 335.85,-297.04 336.67,-296.81 337.48,-296.58 338.32,-296.39 339.16,-296.22 340.01,-296.04 340.87,-295.9 341.73,-295.79 342.6,-295.67 343.47,-295.58 344.35,-295.53 345.23,-295.47 346.12,-295.44 347,-295.44 347.88,-295.44 348.77,-295.47 349.65,-295.53 350.53,-295.58 351.4,-295.67 352.27,-295.79 353.13,-295.9 353.99,-296.04 354.84,-296.22 355.68,-296.39 356.52,-296.58 357.33,-296.81 358.15,-297.04 358.95,-297.29 359.73,-297.57 360.51,-297.84 361.27,-298.15 362,-298.47 362.74,-298.8 363.45,-299.15 364.13,-299.53 364.81,-299.9 365.47,-300.3 366.09,-300.71 366.72,-301.13 367.31,-301.57 367.87,-302.02 368.43,-302.48 368.96,-302.95 369.45,-303.44 369.94,-303.93 370.4,-304.44 370.81,-304.95 371.23,-305.47 371.61,-306.01 371.94,-306.55 372.28,-307.1 372.58,-307.65 372.84,-308.21 373.09,-308.78 373.31,-309.35 373.48,-309.93 373.65,-310.51 373.78,-311.09 373.87,-311.68 373.96,-312.26 374,-312.85 374,-313.44 374,-313.44 347,-313.44 347,-313.44"/>
<ellipse fill="none" stroke="black" cx="347" cy="-313.44" rx="27" ry="18"/>
<text xml:space="preserve" text-anchor="middle" x="347" y="-309.74" font-family="Times,serif" font-size="11.00">10</text>
</g>
<!-- n5&#45;&gt;n10 -->
<g id="edge9" class="edge">
<title>n5&#45;&gt;n10</title>
<path fill="none" stroke="#6688bb" d="M374.41,-377.47C369.82,-366.92 363.88,-353.26 358.7,-341.35"/>
<polygon fill="#6688bb" stroke="#6688bb" points="362.02,-340.21 354.82,-332.44 355.6,-343 362.02,-340.21"/>
<text xml:space="preserve" text-anchor="middle" x="377.85" y="-351.39" font-family="Times,serif" font-size="9.00" fill="#6688bb"> 2 * x </text>
</g>
<!-- n15 -->
<g id="node11" class="node">
<title>n15</title>
<path fill="#ccddff" stroke="black" stroke-width="0.5" d="M419,-313.44C419,-313.44 446,-313.44 446,-313.44 446,-314.03 445.96,-314.62 445.87,-315.2 445.78,-315.79 445.65,-316.37 445.48,-316.95 445.31,-317.53 445.09,-318.1 444.84,-318.67 444.58,-319.23 444.28,-319.78 443.94,-320.33 443.61,-320.87 443.23,-321.41 442.81,-321.93 442.4,-322.44 441.94,-322.95 441.45,-323.44 440.96,-323.93 440.43,-324.4 439.87,-324.86 439.31,-325.31 438.72,-325.75 438.09,-326.17 437.47,-326.58 436.81,-326.98 436.13,-327.35 435.45,-327.73 434.74,-328.08 434,-328.41 433.27,-328.73 432.51,-329.04 431.73,-329.31 430.95,-329.59 430.15,-329.84 429.33,-330.07 428.52,-330.3 427.68,-330.49 426.84,-330.66 425.99,-330.84 425.13,-330.98 424.27,-331.09 423.4,-331.21 422.53,-331.3 421.65,-331.35 420.77,-331.41 419.88,-331.44 419,-331.44 418.12,-331.44 417.23,-331.41 416.35,-331.35 415.47,-331.3 414.6,-331.21 413.73,-331.09 412.87,-330.98 412.01,-330.84 411.16,-330.66 410.32,-330.49 409.48,-330.3 408.67,-330.07 407.85,-329.84 407.05,-329.59 406.27,-329.31 405.49,-329.04 404.73,-328.73 404,-328.41 403.26,-328.08 402.55,-327.73 401.87,-327.35 401.19,-326.98 400.53,-326.58 399.91,-326.17 399.28,-325.75 398.69,-325.31 398.13,-324.86 397.57,-324.4 397.04,-323.93 396.55,-323.44 396.06,-322.95 395.6,-322.44 395.19,-321.93 394.77,-321.41 394.39,-320.87 394.06,-320.33 393.72,-319.78 393.42,-319.23 393.16,-318.67 392.91,-318.1 392.69,-317.53 392.52,-316.95 392.35,-316.37 392.22,-315.79 392.13,-315.2 392.04,-314.62 392,-314.03 392,-313.44 392,-313.44 419,-313.44 419,-313.44"/>
<path fill="#ffddcc" stroke="black" stroke-width="0.5" d="M419,-313.44C419,-313.44 392,-313.44 392,-313.44 392,-312.85 392.04,-312.26 392.13,-311.68 392.22,-311.09 392.35,-310.51 392.52,-309.93 392.69,-309.35 392.91,-308.78 393.16,-308.21 393.42,-307.65 393.72,-307.1 394.06,-306.55 394.39,-306.01 394.77,-305.47 395.19,-304.95 395.6,-304.44 396.06,-303.93 396.55,-303.44 397.04,-302.95 397.57,-302.48 398.13,-302.02 398.69,-301.57 399.28,-301.13 399.91,-300.71 400.53,-300.3 401.19,-299.9 401.87,-299.53 402.55,-299.15 403.26,-298.8 404,-298.47 404.73,-298.15 405.49,-297.84 406.27,-297.57 407.05,-297.29 407.85,-297.04 408.67,-296.81 409.48,-296.58 410.32,-296.39 411.16,-296.22 412.01,-296.04 412.87,-295.9 413.73,-295.79 414.6,-295.67 415.47,-295.58 416.35,-295.53 417.23,-295.47 418.12,-295.44 419,-295.44 419.88,-295.44 420.77,-295.47 421.65,-295.53 422.53,-295.58 423.4,-295.67 424.27,-295.79 425.13,-295.9 425.99,-296.04 426.84,-296.22 427.68,-296.39 428.52,-296.58 429.33,-296.81 430.15,-297.04 430.95,-297.29 431.73,-297.57 432.51,-297.84 433.27,-298.15 434,-298.47 434.74,-298.8 435.45,-299.15 436.13,-299.53 436.81,-299.9 437.47,-300.3 438.09,-300.71 438.72,-301.13 439.31,-301.57 439.87,-302.02 440.43,-302.48 440.96,-302.95 441.45,-303.44 441.94,-303.93 442.4,-304.44 442.81,-304.95 443.23,-305.47 443.61,-306.01 443.94,-306.55 444.28,-307.1 444.58,-307.65 444.84,-308.21 445.09,-308.78 445.31,-309.35 445.48,-309.93 445.65,-310.51 445.78,-311.09 445.87,-311.68 445.96,-312.26 446,-312.85 446,-313.44 446,-313.44 419,-313.44 419,-313.44"/>
<ellipse fill="none" stroke="black" cx="419" cy="-313.44" rx="27" ry="18"/>
<text xml:space="preserve" text-anchor="middle" x="419" y="-309.74" font-family="Times,serif" font-size="11.00">15</text>
</g>
<!-- n5&#45;&gt;n15 -->
<g id="edge10" class="edge">
<title>n5&#45;&gt;n15</title>
<path fill="none" stroke="#ddbb99" d="M390.03,-377.47C394.88,-366.92 401.16,-353.26 406.63,-341.35"/>
<polygon fill="#ddbb99" stroke="#ddbb99" points="409.74,-342.97 410.73,-332.42 403.38,-340.05 409.74,-342.97"/>
<text xml:space="preserve" text-anchor="middle" x="413.97" y="-351.39" font-family="Times,serif" font-size="9.00" fill="#ddbb99"> 3 * x </text>
</g>
<!-- n6&#45;&gt;n12 -->
<g id="edge11" class="edge">
<title>n6&#45;&gt;n12</title>
<path fill="none" stroke="#6688bb" d="M181.49,-213.65C175.12,-202.74 166.59,-188.13 159.28,-175.61"/>
<polygon fill="#6688bb" stroke="#6688bb" points="162.32,-173.88 154.26,-167.01 156.28,-177.41 162.32,-173.88"/>
<text xml:space="preserve" text-anchor="middle" x="181.56" y="-186.39" font-family="Times,serif" font-size="9.00" fill="#6688bb"> 2 * x </text>
</g>
<!-- n18 -->
<g id="node13" class="node">
<title>n18</title>
<path fill="#ccddff" stroke="black" stroke-width="0.5" d="M216,-148.44C216,-148.44 243,-148.44 243,-148.44 243,-149.03 242.96,-149.62 242.87,-150.2 242.78,-150.79 242.65,-151.37 242.48,-151.95 242.31,-152.53 242.09,-153.1 241.84,-153.67 241.58,-154.23 241.28,-154.78 240.94,-155.33 240.61,-155.87 240.23,-156.41 239.81,-156.93 239.4,-157.44 238.94,-157.95 238.45,-158.44 237.96,-158.93 237.43,-159.4 236.87,-159.86 236.31,-160.31 235.72,-160.75 235.09,-161.17 234.47,-161.58 233.81,-161.98 233.13,-162.35 232.45,-162.73 231.74,-163.08 231,-163.41 230.27,-163.73 229.51,-164.04 228.73,-164.31 227.95,-164.59 227.15,-164.84 226.33,-165.07 225.52,-165.3 224.68,-165.49 223.84,-165.66 222.99,-165.84 222.13,-165.98 221.27,-166.09 220.4,-166.21 219.53,-166.3 218.65,-166.35 217.77,-166.41 216.88,-166.44 216,-166.44 215.12,-166.44 214.23,-166.41 213.35,-166.35 212.47,-166.3 211.6,-166.21 210.73,-166.09 209.87,-165.98 209.01,-165.84 208.16,-165.66 207.32,-165.49 206.48,-165.3 205.67,-165.07 204.85,-164.84 204.05,-164.59 203.27,-164.31 202.49,-164.04 201.73,-163.73 201,-163.41 200.26,-163.08 199.55,-162.73 198.87,-162.35 198.19,-161.98 197.53,-161.58 196.91,-161.17 196.28,-160.75 195.69,-160.31 195.13,-159.86 194.57,-159.4 194.04,-158.93 193.55,-158.44 193.06,-157.95 192.6,-157.44 192.19,-156.93 191.77,-156.41 191.39,-155.87 191.06,-155.33 190.72,-154.78 190.42,-154.23 190.16,-153.67 189.91,-153.1 189.69,-152.53 189.52,-151.95 189.35,-151.37 189.22,-150.79 189.13,-150.2 189.04,-149.62 189,-149.03 189,-148.44 189,-148.44 216,-148.44 216,-148.44"/>
<path fill="#ffddcc" stroke="black" stroke-width="0.5" d="M216,-148.44C216,-148.44 189,-148.44 189,-148.44 189,-147.85 189.04,-147.26 189.13,-146.68 189.22,-146.09 189.35,-145.51 189.52,-144.93 189.69,-144.35 189.91,-143.78 190.16,-143.21 190.42,-142.65 190.72,-142.1 191.06,-141.55 191.39,-141.01 191.77,-140.47 192.19,-139.95 192.6,-139.44 193.06,-138.93 193.55,-138.44 194.04,-137.95 194.57,-137.48 195.13,-137.02 195.69,-136.57 196.28,-136.13 196.91,-135.71 197.53,-135.3 198.19,-134.9 198.87,-134.53 199.55,-134.15 200.26,-133.8 201,-133.47 201.73,-133.15 202.49,-132.84 203.27,-132.57 204.05,-132.29 204.85,-132.04 205.67,-131.81 206.48,-131.58 207.32,-131.39 208.16,-131.22 209.01,-131.04 209.87,-130.9 210.73,-130.79 211.6,-130.67 212.47,-130.58 213.35,-130.53 214.23,-130.47 215.12,-130.44 216,-130.44 216.88,-130.44 217.77,-130.47 218.65,-130.53 219.53,-130.58 220.4,-130.67 221.27,-130.79 222.13,-130.9 222.99,-131.04 223.84,-131.22 224.68,-131.39 225.52,-131.58 226.33,-131.81 227.15,-132.04 227.95,-132.29 228.73,-132.57 229.51,-132.84 230.27,-133.15 231,-133.47 231.74,-133.8 232.45,-134.15 233.13,-134.53 233.81,-134.9 234.47,-135.3 235.09,-135.71 235.72,-136.13 236.31,-136.57 236.87,-137.02 237.43,-137.48 237.96,-137.95 238.45,-138.44 238.94,-138.93 239.4,-139.44 239.81,-139.95 240.23,-140.47 240.61,-141.01 240.94,-141.55 241.28,-142.1 241.58,-142.65 241.84,-143.21 242.09,-143.78 242.31,-144.35 242.48,-144.93 242.65,-145.51 242.78,-146.09 242.87,-146.68 242.96,-147.26 243,-147.85 243,-148.44 243,-148.44 216,-148.44 216,-148.44"/>
<ellipse fill="none" stroke="black" cx="216" cy="-148.44" rx="27" ry="18"/>
<text xml:space="preserve" text-anchor="middle" x="216" y="-144.74" font-family="Times,serif" font-size="11.00">18</text>
</g>
<!-- n6&#45;&gt;n18 -->
<g id="edge12" class="edge">
<title>n6&#45;&gt;n18</title>
<path fill="none" stroke="#ddbb99" d="M196.3,-212.87C199.52,-202.52 203.7,-189.06 207.38,-177.21"/>
<polygon fill="#ddbb99" stroke="#ddbb99" points="210.63,-178.52 210.26,-167.93 203.95,-176.44 210.63,-178.52"/>
<text xml:space="preserve" text-anchor="middle" x="216.25" y="-186.39" font-family="Times,serif" font-size="9.00" fill="#ddbb99"> 3 * x </text>
</g>
<!-- n16 -->
<g id="node12" class="node">
<title>n16</title>
<path fill="#ccddff" stroke="black" stroke-width="0.5" d="M27,-65.94C27,-65.94 54,-65.94 54,-65.94 54,-66.53 53.96,-67.12 53.87,-67.7 53.78,-68.29 53.65,-68.87 53.48,-69.45 53.31,-70.03 53.09,-70.6 52.84,-71.17 52.58,-71.73 52.28,-72.28 51.94,-72.83 51.61,-73.37 51.23,-73.91 50.81,-74.43 50.4,-74.94 49.94,-75.45 49.45,-75.94 48.96,-76.43 48.43,-76.9 47.87,-77.36 47.31,-77.81 46.72,-78.25 46.09,-78.67 45.47,-79.08 44.81,-79.48 44.13,-79.85 43.45,-80.23 42.74,-80.58 42,-80.91 41.27,-81.23 40.51,-81.54 39.73,-81.81 38.95,-82.09 38.15,-82.34 37.33,-82.57 36.52,-82.8 35.68,-82.99 34.84,-83.16 33.99,-83.34 33.13,-83.48 32.27,-83.59 31.4,-83.71 30.53,-83.8 29.65,-83.85 28.77,-83.91 27.88,-83.94 27,-83.94 26.12,-83.94 25.23,-83.91 24.35,-83.85 23.47,-83.8 22.6,-83.71 21.73,-83.59 20.87,-83.48 20.01,-83.34 19.16,-83.16 18.32,-82.99 17.48,-82.8 16.67,-82.57 15.85,-82.34 15.05,-82.09 14.27,-81.81 13.49,-81.54 12.73,-81.23 12,-80.91 11.26,-80.58 10.55,-80.23 9.87,-79.85 9.19,-79.48 8.53,-79.08 7.91,-78.67 7.28,-78.25 6.69,-77.81 6.13,-77.36 5.57,-76.9 5.04,-76.43 4.55,-75.94 4.06,-75.45 3.6,-74.94 3.19,-74.43 2.77,-73.91 2.39,-73.37 2.06,-72.83 1.72,-72.28 1.42,-71.73 1.16,-71.17 0.91,-70.6 0.69,-70.03 0.52,-69.45 0.35,-68.87 0.22,-68.29 0.13,-67.7 0.04,-67.12 0,-66.53 0,-65.94 0,-65.94 27,-65.94 27,-65.94"/>
<path fill="#ffddcc" stroke="black" stroke-width="0.5" d="M27,-65.94C27,-65.94 0,-65.94 0,-65.94 0,-65.35 0.04,-64.76 0.13,-64.18 0.22,-63.59 0.35,-63.01 0.52,-62.43 0.69,-61.85 0.91,-61.28 1.16,-60.71 1.42,-60.15 1.72,-59.6 2.06,-59.05 2.39,-58.51 2.77,-57.97 3.19,-57.45 3.6,-56.94 4.06,-56.43 4.55,-55.94 5.04,-55.45 5.57,-54.98 6.13,-54.52 6.69,-54.07 7.28,-53.63 7.91,-53.21 8.53,-52.8 9.19,-52.4 9.87,-52.03 10.55,-51.65 11.26,-51.3 12,-50.97 12.73,-50.65 13.49,-50.34 14.27,-50.07 15.05,-49.79 15.85,-49.54 16.67,-49.31 17.48,-49.08 18.32,-48.89 19.16,-48.72 20.01,-48.54 20.87,-48.4 21.73,-48.29 22.6,-48.17 23.47,-48.08 24.35,-48.03 25.23,-47.97 26.12,-47.94 27,-47.94 27.88,-47.94 28.77,-47.97 29.65,-48.03 30.53,-48.08 31.4,-48.17 32.27,-48.29 33.13,-48.4 33.99,-48.54 34.84,-48.72 35.68,-48.89 36.52,-49.08 37.33,-49.31 38.15,-49.54 38.95,-49.79 39.73,-50.07 40.51,-50.34 41.27,-50.65 42,-50.97 42.74,-51.3 43.45,-51.65 44.13,-52.03 44.81,-52.4 45.47,-52.8 46.09,-53.21 46.72,-53.63 47.31,-54.07 47.87,-54.52 48.43,-54.98 48.96,-55.45 49.45,-55.94 49.94,-56.43 50.4,-56.94 50.81,-57.45 51.23,-57.97 51.61,-58.51 51.94,-59.05 52.28,-59.6 52.58,-60.15 52.84,-60.71 53.09,-61.28 53.31,-61.85 53.48,-62.43 53.65,-63.01 53.78,-63.59 53.87,-64.18 53.96,-64.76 54,-65.35 54,-65.94 54,-65.94 27,-65.94 27,-65.94"/>
<ellipse fill="none" stroke="black" cx="27" cy="-65.94" rx="27" ry="18"/>
<text xml:space="preserve" text-anchor="middle" x="27" y="-62.24" font-family="Times,serif" font-size="11.00">16</text>
</g>
<!-- n8&#45;&gt;n16 -->
<g id="edge13" class="edge">
<title>n8&#45;&gt;n16</title>
<path fill="none" stroke="#6688bb" d="M59.21,-132.36C54.53,-126.4 49.42,-119.33 45.5,-112.44 42.29,-106.79 39.34,-100.47 36.8,-94.38"/>
<polygon fill="#6688bb" stroke="#6688bb" points="40.14,-93.3 33.23,-85.26 33.62,-95.85 40.14,-93.3"/>
<text xml:space="preserve" text-anchor="middle" x="56.75" y="-103.89" font-family="Times,serif" font-size="9.00" fill="#6688bb"> 2 * x </text>
</g>
<!-- ghost_out_8_6 -->
<g id="node20" class="node">
<title>ghost_out_8_6</title>
</g>
<!-- n8&#45;&gt;ghost_out_8_6 -->
<g id="edge20" class="edge">
<title>n8&#45;&gt;ghost_out_8_6</title>
<path fill="none" stroke="#ddbb99" stroke-dasharray="5,2" d="M72.22,-129.97C72.41,-114.38 72.69,-92 72.86,-78.52"/>
<polygon fill="#ddbb99" stroke="#ddbb99" points="76.36,-78.61 72.98,-68.57 69.36,-78.52 76.36,-78.61"/>
<text xml:space="preserve" text-anchor="middle" x="83.81" y="-103.89" font-family="Times,serif" font-size="9.00" fill="#ddbb99"> 3 * x </text>
</g>
<!-- ghost_out_9_4 -->
<g id="node18" class="node">
<title>ghost_out_9_4</title>
</g>
<!-- n9&#45;&gt;ghost_out_9_4 -->
<g id="edge18" class="edge">
<title>n9&#45;&gt;ghost_out_9_4</title>
<path fill="none" stroke="#6688bb" stroke-dasharray="5,2" d="M262.57,-212.47C262.18,-196.88 261.62,-174.5 261.29,-161.02"/>
<polygon fill="#6688bb" stroke="#6688bb" points="264.79,-160.98 261.04,-151.07 257.79,-161.15 264.79,-160.98"/>
<text xml:space="preserve" text-anchor="middle" x="273.37" y="-186.39" font-family="Times,serif" font-size="9.00" fill="#6688bb"> 2 * x </text>
</g>
<!-- ghost_out_9_5 -->
<g id="node19" class="node">
<title>ghost_out_9_5</title>
</g>
<!-- n9&#45;&gt;ghost_out_9_5 -->
<g id="edge19" class="edge">
<title>n9&#45;&gt;ghost_out_9_5</title>
<path fill="none" stroke="#ddbb99" stroke-dasharray="5,2" d="M273.46,-214.13C277.24,-208.2 281.45,-201.34 285,-194.94 291.51,-183.19 298.1,-169.23 302.35,-159.89"/>
<polygon fill="#ddbb99" stroke="#ddbb99" points="305.48,-161.46 306.35,-150.9 299.09,-158.61 305.48,-161.46"/>
<text xml:space="preserve" text-anchor="middle" x="301.45" y="-186.39" font-family="Times,serif" font-size="9.00" fill="#ddbb99"> 3 * x </text>
</g>
<!-- ghost_out_10_0 -->
<g id="node14" class="node">
<title>ghost_out_10_0</title>
</g>
<!-- n10&#45;&gt;ghost_out_10_0 -->
<g id="edge14" class="edge">
<title>n10&#45;&gt;ghost_out_10_0</title>
<path fill="none" stroke="#6688bb" stroke-dasharray="5,2" d="M335.32,-296.94C331.22,-291.05 326.81,-284.13 323.5,-277.44 317.9,-266.14 313.51,-252.32 310.85,-242.9"/>
<polygon fill="#6688bb" stroke="#6688bb" points="314.31,-242.27 308.4,-233.48 307.53,-244.04 314.31,-242.27"/>
<text xml:space="preserve" text-anchor="middle" x="334.75" y="-268.89" font-family="Times,serif" font-size="9.00" fill="#6688bb"> 2 * x </text>
</g>
<!-- ghost_out_10_1 -->
<g id="node15" class="node">
<title>ghost_out_10_1</title>
</g>
<!-- n10&#45;&gt;ghost_out_10_1 -->
<g id="edge15" class="edge">
<title>n10&#45;&gt;ghost_out_10_1</title>
<path fill="none" stroke="#ddbb99" stroke-dasharray="5,2" d="M348.52,-294.97C349.87,-279.38 351.82,-257 352.99,-243.52"/>
<polygon fill="#ddbb99" stroke="#ddbb99" points="356.48,-243.83 353.86,-233.56 349.51,-243.22 356.48,-243.83"/>
<text xml:space="preserve" text-anchor="middle" x="362.17" y="-268.89" font-family="Times,serif" font-size="9.00" fill="#ddbb99"> 3 * x </text>
</g>
<!-- ghost_out_12_7 -->
<g id="node21" class="node">
<title>ghost_out_12_7</title>
</g>
<!-- n12&#45;&gt;ghost_out_12_7 -->
<g id="edge21" class="edge">
<title>n12&#45;&gt;ghost_out_12_7</title>
<path fill="none" stroke="#6688bb" stroke-dasharray="5,2" d="M132.62,-131.83C129.01,-126.03 125.46,-119.2 123.5,-112.44 120.23,-101.11 120.26,-87.54 120.86,-78.18"/>
<polygon fill="#6688bb" stroke="#6688bb" points="124.31,-78.82 121.84,-68.52 117.34,-78.12 124.31,-78.82"/>
<text xml:space="preserve" text-anchor="middle" x="134.75" y="-103.89" font-family="Times,serif" font-size="9.00" fill="#6688bb"> 2 * x </text>
</g>
<!-- ghost_out_12_8 -->
<g id="node22" class="node">
<title>ghost_out_12_8</title>
</g>
<!-- n12&#45;&gt;ghost_out_12_8 -->
<g id="edge22" class="edge">
<title>n12&#45;&gt;ghost_out_12_8</title>
<path fill="none" stroke="#ddbb99" stroke-dasharray="5,2" d="M149.09,-130.37C153.84,-114.45 160.77,-91.2 164.79,-77.71"/>
<polygon fill="#ddbb99" stroke="#ddbb99" points="168.03,-79.09 167.53,-68.51 161.32,-77.09 168.03,-79.09"/>
<text xml:space="preserve" text-anchor="middle" x="168.69" y="-103.89" font-family="Times,serif" font-size="9.00" fill="#ddbb99"> 3 * x </text>
</g>
<!-- ghost_out_15_2 -->
<g id="node16" class="node">
<title>ghost_out_15_2</title>
</g>
<!-- n15&#45;&gt;ghost_out_15_2 -->
<g id="edge16" class="edge">
<title>n15&#45;&gt;ghost_out_15_2</title>
<path fill="none" stroke="#6688bb" stroke-dasharray="5,2" d="M416.43,-295.03C415.69,-289.42 414.96,-283.18 414.5,-277.44 413.57,-265.84 413.21,-252.53 413.08,-243.32"/>
<polygon fill="#6688bb" stroke="#6688bb" points="416.58,-243.5 413.01,-233.53 409.58,-243.55 416.58,-243.5"/>
<text xml:space="preserve" text-anchor="middle" x="425.75" y="-268.89" font-family="Times,serif" font-size="9.00" fill="#6688bb"> 2 * x </text>
</g>
<!-- ghost_out_15_3 -->
<g id="node17" class="node">
<title>ghost_out_15_3</title>
</g>
<!-- n15&#45;&gt;ghost_out_15_3 -->
<g id="edge17" class="edge">
<title>n15&#45;&gt;ghost_out_15_3</title>
<path fill="none" stroke="#ddbb99" stroke-dasharray="5,2" d="M427.51,-296.1C430.54,-290.23 433.95,-283.55 437,-277.44 442.99,-265.42 449.69,-251.51 454.1,-242.26"/>
<polygon fill="#ddbb99" stroke="#ddbb99" points="457.19,-243.92 458.32,-233.38 450.86,-240.91 457.19,-243.92"/>
<text xml:space="preserve" text-anchor="middle" x="453.16" y="-268.89" font-family="Times,serif" font-size="9.00" fill="#ddbb99"> 3 * x </text>
</g>
<!-- ghost_out_16_11 -->
<g id="node25" class="node">
<title>ghost_out_16_11</title>
</g>
<!-- n16&#45;&gt;ghost_out_16_11 -->
<g id="edge25" class="edge">
<title>n16&#45;&gt;ghost_out_16_11</title>
<path fill="none" stroke="#6688bb" stroke-dasharray="5,2" d="M15.14,-49.37C11.36,-43.58 7.62,-36.75 5.5,-29.94 3.79,-24.44 3.32,-18.06 3.32,-12.73"/>
<polygon fill="#6688bb" stroke="#6688bb" points="6.8,-13.19 3.9,-3 -0.19,-12.77 6.8,-13.19"/>
<text xml:space="preserve" text-anchor="middle" x="16.75" y="-21.39" font-family="Times,serif" font-size="9.00" fill="#6688bb"> 2 * x </text>
</g>
<!-- ghost_out_16_12 -->
<g id="node26" class="node">
<title>ghost_out_16_12</title>
</g>
<!-- n16&#45;&gt;ghost_out_16_12 -->
<g id="edge26" class="edge">
<title>n16&#45;&gt;ghost_out_16_12</title>
<path fill="none" stroke="#ddbb99" stroke-dasharray="5,2" d="M33.16,-47.92C37.29,-36.53 42.59,-21.9 46.13,-12.12"/>
<polygon fill="#ddbb99" stroke="#ddbb99" points="49.34,-13.54 49.46,-2.94 42.76,-11.15 49.34,-13.54"/>
<text xml:space="preserve" text-anchor="middle" x="54.45" y="-21.39" font-family="Times,serif" font-size="9.00" fill="#ddbb99"> 3 * x </text>
</g>
<!-- ghost_out_18_9 -->
<g id="node23" class="node">
<title>ghost_out_18_9</title>
</g>
<!-- n18&#45;&gt;ghost_out_18_9 -->
<g id="edge23" class="edge">
<title>n18&#45;&gt;ghost_out_18_9</title>
<path fill="none" stroke="#6688bb" stroke-dasharray="5,2" d="M215.78,-129.97C215.59,-114.38 215.31,-92 215.14,-78.52"/>
<polygon fill="#6688bb" stroke="#6688bb" points="218.64,-78.52 215.02,-68.57 211.64,-78.61 218.64,-78.52"/>
<text xml:space="preserve" text-anchor="middle" x="226.81" y="-103.89" font-family="Times,serif" font-size="9.00" fill="#6688bb"> 2 * x </text>
</g>
<!-- ghost_out_18_10 -->
<g id="node24" class="node">
<title>ghost_out_18_10</title>
</g>
<!-- n18&#45;&gt;ghost_out_18_10 -->
<g id="edge24" class="edge">
<title>n18&#45;&gt;ghost_out_18_10</title>
<path fill="none" stroke="#ddbb99" stroke-dasharray="5,2" d="M226.98,-131.68C230.95,-125.76 235.34,-118.89 239,-112.44 245.63,-100.76 252.19,-86.78 256.4,-77.43"/>
<polygon fill="#ddbb99" stroke="#ddbb99" points="259.55,-78.97 260.36,-68.4 253.14,-76.15 259.55,-78.97"/>
<text xml:space="preserve" text-anchor="middle" x="255.51" y="-103.89" font-family="Times,serif" font-size="9.00" fill="#ddbb99"> 3 * x </text>
</g>
</g>
</svg>
