<?xml version="1.0" encoding="UTF-8" standalone="no"?>
<!DOCTYPE svg PUBLIC "-//W3C//DTD SVG 1.1//EN"
 "http://www.w3.org/Graphics/SVG/1.1/DTD/svg11.dtd">
<!-- Generated by graphviz version 14.1.3 (20260303.0454)
 -->
<!-- Pages: 1 -->
<svg width="742pt" height="704pt"
 viewBox="0.00 0.00 742.00 704.00" xmlns="http://www.w3.org/2000/svg" xmlns:xlink="http://www.w3.org/1999/xlink">
<g id="graph0" class="graph" transform="scale(1 1) rotate(0) translate(4 700)">
<polygon fill="white" stroke="none" points="-4,4 -4,-700 738,-700 738,4 -4,4"/>
<!-- n1 -->
<g id="node1" class="node">
<title>n1</title>
<ellipse fill="#eeccee" stroke="black" stroke-width="3" cx="390" cy="-100.5" rx="27" ry="18"/>
<text xml:space="preserve" text-anchor="middle" x="390" y="-96.8" font-family="Times,serif" font-size="11.00">1</text>
</g>
<!-- n2 -->
<g id="node2" class="node">
<title>n2</title>
<ellipse fill="#ccddff" stroke="black" stroke-width="3" cx="427" cy="-18" rx="27" ry="18"/>
<text xml:space="preserve" text-anchor="middle" x="427" y="-14.3" font-family="Times,serif" font-size="11.00">2</text>
</g>
<!-- n1&#45;&gt;n2 -->
<g id="edge1" class="edge">
<title>n1&#45;&gt;n2</title>
<path fill="none" stroke="#aa77aa" d="M387.15,-81.1C386.6,-72.54 387.1,-62.41 390.75,-54 392.94,-48.95 396.25,-44.27 399.99,-40.08"/>
<polygon fill="#aa77aa" stroke="#aa77aa" points="402.26,-42.75 406.97,-33.26 397.37,-37.74 402.26,-42.75"/>
<text xml:space="preserve" text-anchor="middle" x="397.88" y="-55.95" font-family="Times,serif" font-size="9.00" fill="#aa77aa"> +1 </text>
</g>
<!-- n2&#45;&gt;n1 -->
<g id="edge16" class="edge">
<title>n2&#45;&gt;n1</title>
<path fill="none" stroke="#6688bb" d="M418.99,-36.43C414.24,-46.76 408.11,-60.09 402.72,-71.83"/>
<polygon fill="#6688bb" stroke="#6688bb" points="399.66,-70.11 398.66,-80.66 406.02,-73.03 399.66,-70.11"/>
<text xml:space="preserve" text-anchor="middle" x="417.84" y="-55.95" font-family="Times,serif" font-size="9.00" fill="#6688bb"> ÷2 </text>
</g>
<!-- n3 -->
<g id="node3" class="node">
<title>n3</title>
<ellipse fill="#ffddcc" stroke="black" stroke-width="3" cx="297" cy="-183" rx="27" ry="18"/>
<text xml:space="preserve" text-anchor="middle" x="297" y="-179.3" font-family="Times,serif" font-size="11.00">3</text>
</g>
<!-- n3&#45;&gt;n1 -->
<g id="edge29" class="edge">
<title>n3&#45;&gt;n1</title>
<path fill="none" stroke="#ddbb99" d="M313.63,-167.61C327.82,-155.32 348.46,-137.46 364.7,-123.4"/>
<polygon fill="#ddbb99" stroke="#ddbb99" points="366.79,-126.22 372.06,-117.03 362.21,-120.93 366.79,-126.22"/>
<text xml:space="preserve" text-anchor="middle" x="356.19" y="-138.45" font-family="Times,serif" font-size="9.00" fill="#ddbb99"> ÷3 </text>
</g>
<!-- n4 -->
<g id="node4" class="node">
<title>n4</title>
<ellipse fill="#ccddff" stroke="black" stroke-width="3" cx="532" cy="-265.5" rx="27" ry="18"/>
<text xml:space="preserve" text-anchor="middle" x="532" y="-261.8" font-family="Times,serif" font-size="11.00">4</text>
</g>
<!-- n4&#45;&gt;n2 -->
<g id="edge43" class="edge">
<title>n4&#45;&gt;n2</title>
<path fill="none" stroke="#6688bb" d="M525.5,-246.75C511.95,-210.17 479.14,-123.92 446,-54 444.78,-51.43 443.47,-48.78 442.11,-46.15"/>
<polygon fill="#6688bb" stroke="#6688bb" points="445.35,-44.78 437.56,-37.59 439.17,-48.06 445.35,-44.78"/>
<text xml:space="preserve" text-anchor="middle" x="493.48" y="-138.45" font-family="Times,serif" font-size="9.00" fill="#6688bb"> ÷2 </text>
</g>
<!-- n5 -->
<g id="node5" class="node">
<title>n5</title>
<ellipse fill="#cceecc" stroke="black" stroke-width="3" cx="390" cy="-183" rx="27" ry="18"/>
<text xml:space="preserve" text-anchor="middle" x="390" y="-179.3" font-family="Times,serif" font-size="11.00">5</text>
</g>
<!-- n5&#45;&gt;n1 -->
<g id="edge58" class="edge">
<title>n5&#45;&gt;n1</title>
<path fill="none" stroke="#77aa77" d="M390,-163.73C390,-154.13 390,-142.11 390,-131.2"/>
<polygon fill="#77aa77" stroke="#77aa77" points="393.5,-131.49 390,-121.49 386.5,-131.49 393.5,-131.49"/>
<text xml:space="preserve" text-anchor="middle" x="397.12" y="-138.45" font-family="Times,serif" font-size="9.00" fill="#77aa77"> ÷5 </text>
</g>
<!-- n6 -->
<g id="node6" class="node">
<title>n6</title>
<path fill="#ccddff" stroke="black" stroke-width="0.5" d="M209,-265.5C209,-265.5 236,-265.5 236,-265.5 236,-266.09 235.96,-266.68 235.87,-267.26 235.78,-267.85 235.65,-268.43 235.48,-269.01 235.31,-269.59 235.09,-270.16 234.84,-270.73 234.58,-271.29 234.28,-271.84 233.94,-272.39 233.61,-272.93 233.23,-273.47 232.81,-273.99 232.4,-274.5 231.94,-275.01 231.45,-275.5 230.96,-275.99 230.43,-276.46 229.87,-276.92 229.31,-277.37 228.72,-277.81 228.09,-278.23 227.47,-278.64 226.81,-279.04 226.13,-279.41 225.45,-279.79 224.74,-280.14 224,-280.47 223.27,-280.79 222.51,-281.1 221.73,-281.37 220.95,-281.65 220.15,-281.9 219.33,-282.13 218.52,-282.36 217.68,-282.55 216.84,-282.72 215.99,-282.9 215.13,-283.04 214.27,-283.15 213.4,-283.27 212.53,-283.36 211.65,-283.41 210.77,-283.47 209.88,-283.5 209,-283.5 208.12,-283.5 207.23,-283.47 206.35,-283.41 205.47,-283.36 204.6,-283.27 203.73,-283.15 202.87,-283.04 202.01,-282.9 201.16,-282.72 200.32,-282.55 199.48,-282.36 198.67,-282.13 197.85,-281.9 197.05,-281.65 196.27,-281.37 195.49,-281.1 194.73,-280.79 194,-280.47 193.26,-280.14 192.55,-279.79 191.87,-279.41 191.19,-279.04 190.53,-278.64 189.91,-278.23 189.28,-277.81 188.69,-277.37 188.13,-276.92 187.57,-276.46 187.04,-275.99 186.55,-275.5 186.06,-275.01 185.6,-274.5 185.19,-273.99 184.77,-273.47 184.39,-272.93 184.06,-272.39 183.72,-271.84 183.42,-271.29 183.16,-270.73 182.91,-270.16 182.69,-269.59 182.52,-269.01 182.35,-268.43 182.22,-267.85 182.13,-267.26 182.04,-266.68 182,-266.09 182,-265.5 182,-265.5 209,-265.5 209,-265.5"/>
<path fill="#ffddcc" stroke="black" stroke-width="0.5" d="M209,-265.5C209,-265.5 182,-265.5 182,-265.5 182,-264.91 182.04,-264.32 182.13,-263.74 182.22,-263.15 182.35,-262.57 182.52,-261.99 182.69,-261.41 182.91,-260.84 183.16,-260.27 183.42,-259.71 183.72,-259.16 184.06,-258.61 184.39,-258.07 184.77,-257.53 185.19,-257.01 185.6,-256.5 186.06,-255.99 186.55,-255.5 187.04,-255.01 187.57,-254.54 188.13,-254.08 188.69,-253.63 189.28,-253.19 189.91,-252.77 190.53,-252.36 191.19,-251.96 191.87,-251.59 192.55,-251.21 193.26,-250.86 194,-250.53 194.73,-250.21 195.49,-249.9 196.27,-249.63 197.05,-249.35 197.85,-249.1 198.67,-248.87 199.48,-248.64 200.32,-248.45 201.16,-248.28 202.01,-248.1 202.87,-247.96 203.73,-247.85 204.6,-247.73 205.47,-247.64 206.35,-247.59 207.23,-247.53 208.12,-247.5 209,-247.5 209.88,-247.5 210.77,-247.53 211.65,-247.59 212.53,-247.64 213.4,-247.73 214.27,-247.85 215.13,-247.96 215.99,-248.1 216.84,-248.28 217.68,-248.45 218.52,-248.64 219.33,-248.87 220.15,-249.1 220.95,-249.35 221.73,-249.63 222.51,-249.9 223.27,-250.21 224,-250.53 224.74,-250.86 225.45,-251.21 226.13,-251.59 226.81,-251.96 227.47,-252.36 228.09,-252.77 228.72,-253.19 229.31,-253.63 229.87,-254.08 230.43,-254.54 230.96,-255.01 231.45,-255.5 231.94,-255.99 232.4,-256.5 232.81,-257.01 233.23,-257.53 233.61,-258.07 233.94,-258.61 234.28,-259.16 234.58,-259.71 234.84,-260.27 235.09,-260.84 235.31,-261.41 235.48,-261.99 235.65,-262.57 235.78,-263.15 235.87,-263.74 235.96,-264.32 236,-264.91 236,-265.5 236,-265.5 209,-265.5 209,-265.5"/>
<ellipse fill="none" stroke="black" stroke-width="3" cx="209" cy="-265.5" rx="27" ry="18"/>
<text xml:space="preserve" text-anchor="middle" x="209" y="-261.8" font-family="Times,serif" font-size="11.00">6</text>
</g>
<!-- n6&#45;&gt;n2 -->
<g id="edge61" class="edge">
<title>n6&#45;&gt;n2</title>
<path fill="none" stroke="#ddbb99" d="M213.19,-246.28C215.51,-237.76 218.78,-227.61 223,-219 235.92,-192.65 241.54,-186.97 261,-165 304.85,-115.5 364.87,-66.49 399.43,-39.74"/>
<polygon fill="#ddbb99" stroke="#ddbb99" points="401.47,-42.59 407.27,-33.72 397.2,-37.04 401.47,-42.59"/>
<text xml:space="preserve" text-anchor="middle" x="293.55" y="-138.45" font-family="Times,serif" font-size="9.00" fill="#ddbb99"> ÷3 </text>
</g>
<!-- n6&#45;&gt;n3 -->
<g id="edge62" class="edge">
<title>n6&#45;&gt;n3</title>
<path fill="none" stroke="#6688bb" d="M228.44,-251.78C237.48,-245.51 248.16,-237.57 257,-229.5 263.88,-223.22 270.79,-215.83 276.88,-208.86"/>
<polygon fill="#6688bb" stroke="#6688bb" points="279.31,-211.41 283.12,-201.52 273.98,-206.88 279.31,-211.41"/>
<text xml:space="preserve" text-anchor="middle" x="274.77" y="-220.95" font-family="Times,serif" font-size="9.00" fill="#6688bb"> ÷2 </text>
</g>
<!-- n7 -->
<g id="node7" class="node">
<title>n7</title>
<ellipse fill="#eeccee" stroke="black" stroke-width="3" cx="536" cy="-430.5" rx="27" ry="18"/>
<text xml:space="preserve" text-anchor="middle" x="536" y="-426.8" font-family="Times,serif" font-size="11.00">7</text>
</g>
<!-- n8 -->
<g id="node8" class="node">
<title>n8</title>
<ellipse fill="#ccddff" stroke="black" stroke-width="3" cx="532" cy="-348" rx="27" ry="18"/>
<text xml:space="preserve" text-anchor="middle" x="532" y="-344.3" font-family="Times,serif" font-size="11.00">8</text>
</g>
<!-- n7&#45;&gt;n8 -->
<g id="edge63" class="edge">
<title>n7&#45;&gt;n8</title>
<path fill="none" stroke="#aa77aa" d="M534.74,-411.34C534.39,-405.92 534.03,-399.97 533.75,-394.5 533.48,-389.3 533.24,-383.76 533.02,-378.4"/>
<polygon fill="#aa77aa" stroke="#aa77aa" points="536.53,-378.53 532.65,-368.67 529.53,-378.8 536.53,-378.53"/>
<text xml:space="preserve" text-anchor="middle" x="540.88" y="-385.95" font-family="Times,serif" font-size="9.00" fill="#aa77aa"> +1 </text>
</g>
<!-- n8&#45;&gt;n4 -->
<g id="edge64" class="edge">
<title>n8&#45;&gt;n4</title>
<path fill="none" stroke="#6688bb" d="M532,-328.73C532,-319.13 532,-307.11 532,-296.2"/>
<polygon fill="#6688bb" stroke="#6688bb" points="535.5,-296.49 532,-286.49 528.5,-296.49 535.5,-296.49"/>
<text xml:space="preserve" text-anchor="middle" x="539.12" y="-303.45" font-family="Times,serif" font-size="9.00" fill="#6688bb"> ÷2 </text>
</g>
<!-- n9 -->
<g id="node9" class="node">
<title>n9</title>
<ellipse fill="#ffddcc" stroke="black" stroke-width="3" cx="116" cy="-265.5" rx="27" ry="18"/>
<text xml:space="preserve" text-anchor="middle" x="116" y="-261.8" font-family="Times,serif" font-size="11.00">9</text>
</g>
<!-- n9&#45;&gt;n3 -->
<g id="edge65" class="edge">
<title>n9&#45;&gt;n3</title>
<path fill="none" stroke="#ddbb99" d="M138.92,-254.3C170.53,-240.25 227.67,-214.84 263.9,-198.72"/>
<polygon fill="#ddbb99" stroke="#ddbb99" points="264.88,-202.12 272.59,-194.85 262.03,-195.72 264.88,-202.12"/>
<text xml:space="preserve" text-anchor="middle" x="224.46" y="-220.95" font-family="Times,serif" font-size="9.00" fill="#ddbb99"> ÷3 </text>
</g>
<!-- n10 -->
<g id="node10" class="node">
<title>n10</title>
<path fill="#ccddff" stroke="black" stroke-width="0.5" d="M460,-265.5C460,-265.5 487,-265.5 487,-265.5 487,-266.09 486.96,-266.68 486.87,-267.26 486.78,-267.85 486.65,-268.43 486.48,-269.01 486.31,-269.59 486.09,-270.16 485.84,-270.73 485.58,-271.29 485.28,-271.84 484.94,-272.39 484.61,-272.93 484.23,-273.47 483.81,-273.99 483.4,-274.5 482.94,-275.01 482.45,-275.5 481.96,-275.99 481.43,-276.46 480.87,-276.92 480.31,-277.37 479.72,-277.81 479.09,-278.23 478.47,-278.64 477.81,-279.04 477.13,-279.41 476.45,-279.79 475.74,-280.14 475,-280.47 474.27,-280.79 473.51,-281.1 472.73,-281.37 471.95,-281.65 471.15,-281.9 470.33,-282.13 469.52,-282.36 468.68,-282.55 467.84,-282.72 466.99,-282.9 466.13,-283.04 465.27,-283.15 464.4,-283.27 463.53,-283.36 462.65,-283.41 461.77,-283.47 460.88,-283.5 460,-283.5 459.12,-283.5 458.23,-283.47 457.35,-283.41 456.47,-283.36 455.6,-283.27 454.73,-283.15 453.87,-283.04 453.01,-282.9 452.16,-282.72 451.32,-282.55 450.48,-282.36 449.67,-282.13 448.85,-281.9 448.05,-281.65 447.27,-281.37 446.49,-281.1 445.73,-280.79 445,-280.47 444.26,-280.14 443.55,-279.79 442.87,-279.41 442.19,-279.04 441.53,-278.64 440.91,-278.23 440.28,-277.81 439.69,-277.37 439.13,-276.92 438.57,-276.46 438.04,-275.99 437.55,-275.5 437.06,-275.01 436.6,-274.5 436.19,-273.99 435.77,-273.47 435.39,-272.93 435.06,-272.39 434.72,-271.84 434.42,-271.29 434.16,-270.73 433.91,-270.16 433.69,-269.59 433.52,-269.01 433.35,-268.43 433.22,-267.85 433.13,-267.26 433.04,-266.68 433,-266.09 433,-265.5 433,-265.5 460,-265.5 460,-265.5"/>
<path fill="#cceecc" stroke="black" stroke-width="0.5" d="M460,-265.5C460,-265.5 433,-265.5 433,-265.5 433,-264.91 433.04,-264.32 433.13,-263.74 433.22,-263.15 433.35,-262.57 433.52,-261.99 433.69,-261.41 433.91,-260.84 434.16,-260.27 434.42,-259.71 434.72,-259.16 435.06,-258.61 435.39,-258.07 435.77,-257.53 436.19,-257.01 436.6,-256.5 437.06,-255.99 437.55,-255.5 438.04,-255.01 438.57,-254.54 439.13,-254.08 439.69,-253.63 440.28,-253.19 440.91,-252.77 441.53,-252.36 442.19,-251.96 442.87,-251.59 443.55,-251.21 444.26,-250.86 445,-250.53 445.73,-250.21 446.49,-249.9 447.27,-249.63 448.05,-249.35 448.85,-249.1 449.67,-248.87 450.48,-248.64 451.32,-248.45 452.16,-248.28 453.01,-248.1 453.87,-247.96 454.73,-247.85 455.6,-247.73 456.47,-247.64 457.35,-247.59 458.23,-247.53 459.12,-247.5 460,-247.5 460.88,-247.5 461.77,-247.53 462.65,-247.59 463.53,-247.64 464.4,-247.73 465.27,-247.85 466.13,-247.96 466.99,-248.1 467.84,-248.28 468.68,-248.45 469.52,-248.64 470.33,-248.87 471.15,-249.1 471.95,-249.35 472.73,-249.63 473.51,-249.9 474.27,-250.21 475,-250.53 475.74,-250.86 476.45,-251.21 477.13,-251.59 477.81,-251.96 478.47,-252.36 479.09,-252.77 479.72,-253.19 480.31,-253.63 480.87,-254.08 481.43,-254.54 481.96,-255.01 482.45,-255.5 482.94,-255.99 483.4,-256.5 483.81,-257.01 484.23,-257.53 484.61,-258.07 484.94,-258.61 485.28,-259.16 485.58,-259.71 485.84,-260.27 486.09,-260.84 486.31,-261.41 486.48,-261.99 486.65,-262.57 486.78,-263.15 486.87,-263.74 486.96,-264.32 487,-264.91 487,-265.5 487,-265.5 460,-265.5 460,-265.5"/>
<ellipse fill="none" stroke="black" stroke-width="3" cx="460" cy="-265.5" rx="27" ry="18"/>
<text xml:space="preserve" text-anchor="middle" x="460" y="-261.8" font-family="Times,serif" font-size="11.00">10</text>
</g>
<!-- n10&#45;&gt;n2 -->
<g id="edge2" class="edge">
<title>n10&#45;&gt;n2</title>
<path fill="none" stroke="#77aa77" d="M457.57,-246.45C451.94,-204.52 437.92,-100.21 430.99,-48.72"/>
<polygon fill="#77aa77" stroke="#77aa77" points="434.48,-48.36 429.68,-38.91 427.54,-49.29 434.48,-48.36"/>
<text xml:space="preserve" text-anchor="middle" x="451.01" y="-138.45" font-family="Times,serif" font-size="9.00" fill="#77aa77"> ÷5 </text>
</g>
<!-- n10&#45;&gt;n5 -->
<g id="edge3" class="edge">
<title>n10&#45;&gt;n5</title>
<path fill="none" stroke="#6688bb" d="M446.17,-248.6C436.2,-237.13 422.56,-221.44 411.21,-208.4"/>
<polygon fill="#6688bb" stroke="#6688bb" points="414,-206.26 404.79,-201.01 408.71,-210.86 414,-206.26"/>
<text xml:space="preserve" text-anchor="middle" x="436.32" y="-220.95" font-family="Times,serif" font-size="9.00" fill="#6688bb"> ÷2 </text>
</g>
<!-- n11 -->
<g id="node11" class="node">
<title>n11</title>
<ellipse fill="#eeccee" stroke="black" stroke-width="3" cx="176" cy="-430.5" rx="27" ry="18"/>
<text xml:space="preserve" text-anchor="middle" x="176" y="-426.8" font-family="Times,serif" font-size="11.00">11</text>
</g>
<!-- n12 -->
<g id="node12" class="node">
<title>n12</title>
<path fill="#ccddff" stroke="black" stroke-width="0.5" d="M243,-348C243,-348 270,-348 270,-348 270,-348.59 269.96,-349.18 269.87,-349.76 269.78,-350.35 269.65,-350.93 269.48,-351.51 269.31,-352.09 269.09,-352.66 268.84,-353.23 268.58,-353.79 268.28,-354.34 267.94,-354.89 267.61,-355.43 267.23,-355.97 266.81,-356.49 266.4,-357 265.94,-357.51 265.45,-358 264.96,-358.49 264.43,-358.96 263.87,-359.42 263.31,-359.87 262.72,-360.31 262.09,-360.73 261.47,-361.14 260.81,-361.54 260.13,-361.91 259.45,-362.29 258.74,-362.64 258,-362.97 257.27,-363.29 256.51,-363.6 255.73,-363.87 254.95,-364.15 254.15,-364.4 253.33,-364.63 252.52,-364.86 251.68,-365.05 250.84,-365.22 249.99,-365.4 249.13,-365.54 248.27,-365.65 247.4,-365.77 246.53,-365.86 245.65,-365.91 244.77,-365.97 243.88,-366 243,-366 242.12,-366 241.23,-365.97 240.35,-365.91 239.47,-365.86 238.6,-365.77 237.73,-365.65 236.87,-365.54 236.01,-365.4 235.16,-365.22 234.32,-365.05 233.48,-364.86 232.67,-364.63 231.85,-364.4 231.05,-364.15 230.27,-363.87 229.49,-363.6 228.73,-363.29 228,-362.97 227.26,-362.64 226.55,-362.29 225.87,-361.91 225.19,-361.54 224.53,-361.14 223.91,-360.73 223.28,-360.31 222.69,-359.87 222.13,-359.42 221.57,-358.96 221.04,-358.49 220.55,-358 220.06,-357.51 219.6,-357 219.19,-356.49 218.77,-355.97 218.39,-355.43 218.06,-354.89 217.72,-354.34 217.42,-353.79 217.16,-353.23 216.91,-352.66 216.69,-352.09 216.52,-351.51 216.35,-350.93 216.22,-350.35 216.13,-349.76 216.04,-349.18 216,-348.59 216,-348 216,-348 243,-348 243,-348"/>
<path fill="#ffddcc" stroke="black" stroke-width="0.5" d="M243,-348C243,-348 216,-348 216,-348 216,-347.41 216.04,-346.82 216.13,-346.24 216.22,-345.65 216.35,-345.07 216.52,-344.49 216.69,-343.91 216.91,-343.34 217.16,-342.77 217.42,-342.21 217.72,-341.66 218.06,-341.11 218.39,-340.57 218.77,-340.03 219.19,-339.51 219.6,-339 220.06,-338.49 220.55,-338 221.04,-337.51 221.57,-337.04 222.13,-336.58 222.69,-336.13 223.28,-335.69 223.91,-335.27 224.53,-334.86 225.19,-334.46 225.87,-334.09 226.55,-333.71 227.26,-333.36 228,-333.03 228.73,-332.71 229.49,-332.4 230.27,-332.13 231.05,-331.85 231.85,-331.6 232.67,-331.37 233.48,-331.14 234.32,-330.95 235.16,-330.78 236.01,-330.6 236.87,-330.46 237.73,-330.35 238.6,-330.23 239.47,-330.14 240.35,-330.09 241.23,-330.03 242.12,-330 243,-330 243.88,-330 244.77,-330.03 245.65,-330.09 246.53,-330.14 247.4,-330.23 248.27,-330.35 249.13,-330.46 249.99,-330.6 250.84,-330.78 251.68,-330.95 252.52,-331.14 253.33,-331.37 254.15,-331.6 254.95,-331.85 255.73,-332.13 256.51,-332.4 257.27,-332.71 258,-333.03 258.74,-333.36 259.45,-333.71 260.13,-334.09 260.81,-334.46 261.47,-334.86 262.09,-335.27 262.72,-335.69 263.31,-336.13 263.87,-336.58 264.43,-337.04 264.96,-337.51 265.45,-338 265.94,-338.49 266.4,-339 266.81,-339.51 267.23,-340.03 267.61,-340.57 267.94,-341.11 268.28,-341.66 268.58,-342.21 268.84,-342.77 269.09,-343.34 269.31,-343.91 269.48,-344.49 269.65,-345.07 269.78,-345.65 269.87,-346.24 269.96,-346.82 270,-347.41 270,-348 270,-348 243,-348 243,-348"/>
<ellipse fill="none" stroke="black" stroke-width="3" cx="243" cy="-348" rx="27" ry="18"/>
<text xml:space="preserve" text-anchor="middle" x="243" y="-344.3" font-family="Times,serif" font-size="11.00">12</text>
</g>
<!-- n11&#45;&gt;n12 -->
<g id="edge4" class="edge">
<title>n11&#45;&gt;n12</title>
<path fill="none" stroke="#aa77aa" d="M189.24,-413.6C198.72,-402.2 211.67,-386.64 222.48,-373.65"/>
<polygon fill="#aa77aa" stroke="#aa77aa" points="224.89,-376.24 228.59,-366.31 219.51,-371.76 224.89,-376.24"/>
<text xml:space="preserve" text-anchor="middle" x="220.64" y="-385.95" font-family="Times,serif" font-size="9.00" fill="#aa77aa"> +1 </text>
</g>
<!-- n12&#45;&gt;n4 -->
<g id="edge5" class="edge">
<title>n12&#45;&gt;n4</title>
<path fill="none" stroke="#ddbb99" d="M265.7,-336.68C271.58,-334.26 277.96,-331.85 284,-330 322.17,-318.3 334.58,-325.92 372,-312 380.95,-308.67 381.75,-304.68 390.75,-301.5 435.49,-285.68 450.74,-297.76 496,-283.5 497.33,-283.08 498.68,-282.62 500.04,-282.13"/>
<polygon fill="#ddbb99" stroke="#ddbb99" points="500.98,-285.52 508.9,-278.48 498.32,-279.05 500.98,-285.52"/>
<text xml:space="preserve" text-anchor="middle" x="397.88" y="-303.45" font-family="Times,serif" font-size="9.00" fill="#ddbb99"> ÷3 </text>
</g>
<!-- n12&#45;&gt;n6 -->
<g id="edge6" class="edge">
<title>n12&#45;&gt;n6</title>
<path fill="none" stroke="#6688bb" d="M225.24,-333.17C219.15,-327.36 213.05,-320.07 209.75,-312 207.74,-307.1 206.74,-301.64 206.35,-296.25"/>
<polygon fill="#6688bb" stroke="#6688bb" points="209.85,-296.33 206.32,-286.34 202.85,-296.35 209.85,-296.33"/>
<text xml:space="preserve" text-anchor="middle" x="216.88" y="-303.45" font-family="Times,serif" font-size="9.00" fill="#6688bb"> ÷2 </text>
</g>
<!-- n13 -->
<g id="node13" class="node">
<title>n13</title>
<ellipse fill="#eeccee" stroke="black" stroke-width="3" cx="608" cy="-595.5" rx="27" ry="18"/>
<text xml:space="preserve" text-anchor="middle" x="608" y="-591.8" font-family="Times,serif" font-size="11.00">13</text>
</g>
<!-- n14 -->
<g id="node14" class="node">
<title>n14</title>
<ellipse fill="#ccddff" stroke="black" stroke-width="3" cx="491" cy="-513" rx="27" ry="18"/>
<text xml:space="preserve" text-anchor="middle" x="491" y="-509.3" font-family="Times,serif" font-size="11.00">14</text>
</g>
<!-- n13&#45;&gt;n14 -->
<g id="edge7" class="edge">
<title>n13&#45;&gt;n14</title>
<path fill="none" stroke="#aa77aa" d="M585.31,-583.77C564.22,-573.79 535.89,-560.33 534.75,-559.5 526.45,-553.51 518.38,-545.83 511.48,-538.49"/>
<polygon fill="#aa77aa" stroke="#aa77aa" points="514.28,-536.37 504.98,-531.28 509.08,-541.05 514.28,-536.37"/>
<text xml:space="preserve" text-anchor="middle" x="541.88" y="-550.95" font-family="Times,serif" font-size="9.00" fill="#aa77aa"> +1 </text>
</g>
<!-- n14&#45;&gt;n7 -->
<g id="edge8" class="edge">
<title>n14&#45;&gt;n7</title>
<path fill="none" stroke="#6688bb" d="M500.54,-494.93C506.41,-484.43 514.06,-470.75 520.75,-458.78"/>
<polygon fill="#6688bb" stroke="#6688bb" points="523.75,-460.58 525.58,-450.15 517.64,-457.17 523.75,-460.58"/>
<text xml:space="preserve" text-anchor="middle" x="523.32" y="-468.45" font-family="Times,serif" font-size="9.00" fill="#6688bb"> ÷2 </text>
</g>
<!-- n15 -->
<g id="node15" class="node">
<title>n15</title>
<path fill="#ffddcc" stroke="black" stroke-width="0.5" d="M316,-265.5C316,-265.5 343,-265.5 343,-265.5 343,-266.09 342.96,-266.68 342.87,-267.26 342.78,-267.85 342.65,-268.43 342.48,-269.01 342.31,-269.59 342.09,-270.16 341.84,-270.73 341.58,-271.29 341.28,-271.84 340.94,-272.39 340.61,-272.93 340.23,-273.47 339.81,-273.99 339.4,-274.5 338.94,-275.01 338.45,-275.5 337.96,-275.99 337.43,-276.46 336.87,-276.92 336.31,-277.37 335.72,-277.81 335.09,-278.23 334.47,-278.64 333.81,-279.04 333.13,-279.41 332.45,-279.79 331.74,-280.14 331,-280.47 330.27,-280.79 329.51,-281.1 328.73,-281.37 327.95,-281.65 327.15,-281.9 326.33,-282.13 325.52,-282.36 324.68,-282.55 323.84,-282.72 322.99,-282.9 322.13,-283.04 321.27,-283.15 320.4,-283.27 319.53,-283.36 318.65,-283.41 317.77,-283.47 316.88,-283.5 316,-283.5 315.12,-283.5 314.23,-283.47 313.35,-283.41 312.47,-283.36 311.6,-283.27 310.73,-283.15 309.87,-283.04 309.01,-282.9 308.16,-282.72 307.32,-282.55 306.48,-282.36 305.67,-282.13 304.85,-281.9 304.05,-281.65 303.27,-281.37 302.49,-281.1 301.73,-280.79 301,-280.47 300.26,-280.14 299.55,-279.79 298.87,-279.41 298.19,-279.04 297.53,-278.64 296.91,-278.23 296.28,-277.81 295.69,-277.37 295.13,-276.92 294.57,-276.46 294.04,-275.99 293.55,-275.5 293.06,-275.01 292.6,-274.5 292.19,-273.99 291.77,-273.47 291.39,-272.93 291.06,-272.39 290.72,-271.84 290.42,-271.29 290.16,-270.73 289.91,-270.16 289.69,-269.59 289.52,-269.01 289.35,-268.43 289.22,-267.85 289.13,-267.26 289.04,-266.68 289,-266.09 289,-265.5 289,-265.5 316,-265.5 316,-265.5"/>
<path fill="#cceecc" stroke="black" stroke-width="0.5" d="M316,-265.5C316,-265.5 289,-265.5 289,-265.5 289,-264.91 289.04,-264.32 289.13,-263.74 289.22,-263.15 289.35,-262.57 289.52,-261.99 289.69,-261.41 289.91,-260.84 290.16,-260.27 290.42,-259.71 290.72,-259.16 291.06,-258.61 291.39,-258.07 291.77,-257.53 292.19,-257.01 292.6,-256.5 293.06,-255.99 293.55,-255.5 294.04,-255.01 294.57,-254.54 295.13,-254.08 295.69,-253.63 296.28,-253.19 296.91,-252.77 297.53,-252.36 298.19,-251.96 298.87,-251.59 299.55,-251.21 300.26,-250.86 301,-250.53 301.73,-250.21 302.49,-249.9 303.27,-249.63 304.05,-249.35 304.85,-249.1 305.67,-248.87 306.48,-248.64 307.32,-248.45 308.16,-248.28 309.01,-248.1 309.87,-247.96 310.73,-247.85 311.6,-247.73 312.47,-247.64 313.35,-247.59 314.23,-247.53 315.12,-247.5 316,-247.5 316.88,-247.5 317.77,-247.53 318.65,-247.59 319.53,-247.64 320.4,-247.73 321.27,-247.85 322.13,-247.96 322.99,-248.1 323.84,-248.28 324.68,-248.45 325.52,-248.64 326.33,-248.87 327.15,-249.1 327.95,-249.35 328.73,-249.63 329.51,-249.9 330.27,-250.21 331,-250.53 331.74,-250.86 332.45,-251.21 333.13,-251.59 333.81,-251.96 334.47,-252.36 335.09,-252.77 335.72,-253.19 336.31,-253.63 336.87,-254.08 337.43,-254.54 337.96,-255.01 338.45,-255.5 338.94,-255.99 339.4,-256.5 339.81,-257.01 340.23,-257.53 340.61,-258.07 340.94,-258.61 341.28,-259.16 341.58,-259.71 341.84,-260.27 342.09,-260.84 342.31,-261.41 342.48,-261.99 342.65,-262.57 342.78,-263.15 342.87,-263.74 342.96,-264.32 343,-264.91 343,-265.5 343,-265.5 316,-265.5 316,-265.5"/>
<ellipse fill="none" stroke="black" stroke-width="3" cx="316" cy="-265.5" rx="27" ry="18"/>
<text xml:space="preserve" text-anchor="middle" x="316" y="-261.8" font-family="Times,serif" font-size="11.00">15</text>
</g>
<!-- n15&#45;&gt;n3 -->
<g id="edge9" class="edge">
<title>n15&#45;&gt;n3</title>
<path fill="none" stroke="#77aa77" d="M311.69,-246.23C309.38,-236.46 306.48,-224.18 303.87,-213.12"/>
<polygon fill="#77aa77" stroke="#77aa77" points="307.35,-212.6 301.64,-203.67 300.53,-214.2 307.35,-212.6"/>
<text xml:space="preserve" text-anchor="middle" x="314.76" y="-220.95" font-family="Times,serif" font-size="9.00" fill="#77aa77"> ÷5 </text>
</g>
<!-- n15&#45;&gt;n5 -->
<g id="edge10" class="edge">
<title>n15&#45;&gt;n5</title>
<path fill="none" stroke="#ddbb99" d="M330.27,-248.98C340.95,-237.36 355.75,-221.25 367.95,-207.98"/>
<polygon fill="#ddbb99" stroke="#ddbb99" points="370.31,-210.59 374.5,-200.86 365.15,-205.86 370.31,-210.59"/>
<text xml:space="preserve" text-anchor="middle" x="364.56" y="-220.95" font-family="Times,serif" font-size="9.00" fill="#ddbb99"> ÷3 </text>
</g>
<!-- n16 -->
<g id="node16" class="node">
<title>n16</title>
<ellipse fill="#ccddff" stroke="black" stroke-width="3" cx="464" cy="-430.5" rx="27" ry="18"/>
<text xml:space="preserve" text-anchor="middle" x="464" y="-426.8" font-family="Times,serif" font-size="11.00">16</text>
</g>
<!-- n16&#45;&gt;n8 -->
<g id="edge11" class="edge">
<title>n16&#45;&gt;n8</title>
<path fill="none" stroke="#6688bb" d="M477.43,-413.6C487.12,-402.13 500.37,-386.44 511.39,-373.4"/>
<polygon fill="#6688bb" stroke="#6688bb" points="513.84,-375.93 517.62,-366.03 508.49,-371.41 513.84,-375.93"/>
<text xml:space="preserve" text-anchor="middle" x="509.2" y="-385.95" font-family="Times,serif" font-size="9.00" fill="#6688bb"> ÷2 </text>
</g>
<!-- n17 -->
<g id="node17" class="node">
<title>n17</title>
<ellipse fill="#eeccee" stroke="black" stroke-width="3" cx="32" cy="-430.5" rx="27" ry="18"/>
<text xml:space="preserve" text-anchor="middle" x="32" y="-426.8" font-family="Times,serif" font-size="11.00">17</text>
</g>
<!-- n18 -->
<g id="node18" class="node">
<title>n18</title>
<path fill="#ccddff" stroke="black" stroke-width="0.5" d="M99,-348C99,-348 126,-348 126,-348 126,-348.59 125.96,-349.18 125.87,-349.76 125.78,-350.35 125.65,-350.93 125.48,-351.51 125.31,-352.09 125.09,-352.66 124.84,-353.23 124.58,-353.79 124.28,-354.34 123.94,-354.89 123.61,-355.43 123.23,-355.97 122.81,-356.49 122.4,-357 121.94,-357.51 121.45,-358 120.96,-358.49 120.43,-358.96 119.87,-359.42 119.31,-359.87 118.72,-360.31 118.09,-360.73 117.47,-361.14 116.81,-361.54 116.13,-361.91 115.45,-362.29 114.74,-362.64 114,-362.97 113.27,-363.29 112.51,-363.6 111.73,-363.87 110.95,-364.15 110.15,-364.4 109.33,-364.63 108.52,-364.86 107.68,-365.05 106.84,-365.22 105.99,-365.4 105.13,-365.54 104.27,-365.65 103.4,-365.77 102.53,-365.86 101.65,-365.91 100.77,-365.97 99.88,-366 99,-366 98.12,-366 97.23,-365.97 96.35,-365.91 95.47,-365.86 94.6,-365.77 93.73,-365.65 92.87,-365.54 92.01,-365.4 91.16,-365.22 90.32,-365.05 89.48,-364.86 88.67,-364.63 87.85,-364.4 87.05,-364.15 86.27,-363.87 85.49,-363.6 84.73,-363.29 84,-362.97 83.26,-362.64 82.55,-362.29 81.87,-361.91 81.19,-361.54 80.53,-361.14 79.91,-360.73 79.28,-360.31 78.69,-359.87 78.13,-359.42 77.57,-358.96 77.04,-358.49 76.55,-358 76.06,-357.51 75.6,-357 75.19,-356.49 74.77,-355.97 74.39,-355.43 74.06,-354.89 73.72,-354.34 73.42,-353.79 73.16,-353.23 72.91,-352.66 72.69,-352.09 72.52,-351.51 72.35,-350.93 72.22,-350.35 72.13,-349.76 72.04,-349.18 72,-348.59 72,-348 72,-348 99,-348 99,-348"/>
<path fill="#ffddcc" stroke="black" stroke-width="0.5" d="M99,-348C99,-348 72,-348 72,-348 72,-347.41 72.04,-346.82 72.13,-346.24 72.22,-345.65 72.35,-345.07 72.52,-344.49 72.69,-343.91 72.91,-343.34 73.16,-342.77 73.42,-342.21 73.72,-341.66 74.06,-341.11 74.39,-340.57 74.77,-340.03 75.19,-339.51 75.6,-339 76.06,-338.49 76.55,-338 77.04,-337.51 77.57,-337.04 78.13,-336.58 78.69,-336.13 79.28,-335.69 79.91,-335.27 80.53,-334.86 81.19,-334.46 81.87,-334.09 82.55,-333.71 83.26,-333.36 84,-333.03 84.73,-332.71 85.49,-332.4 86.27,-332.13 87.05,-331.85 87.85,-331.6 88.67,-331.37 89.48,-331.14 90.32,-330.95 91.16,-330.78 92.01,-330.6 92.87,-330.46 93.73,-330.35 94.6,-330.23 95.47,-330.14 96.35,-330.09 97.23,-330.03 98.12,-330 99,-330 99.88,-330 100.77,-330.03 101.65,-330.09 102.53,-330.14 103.4,-330.23 104.27,-330.35 105.13,-330.46 105.99,-330.6 106.84,-330.78 107.68,-330.95 108.52,-331.14 109.33,-331.37 110.15,-331.6 110.95,-331.85 111.73,-332.13 112.51,-332.4 113.27,-332.71 114,-333.03 114.74,-333.36 115.45,-333.71 116.13,-334.09 116.81,-334.46 117.47,-334.86 118.09,-335.27 118.72,-335.69 119.31,-336.13 119.87,-336.58 120.43,-337.04 120.96,-337.51 121.45,-338 121.94,-338.49 122.4,-339 122.81,-339.51 123.23,-340.03 123.61,-340.57 123.94,-341.11 124.28,-341.66 124.58,-342.21 124.84,-342.77 125.09,-343.34 125.31,-343.91 125.48,-344.49 125.65,-345.07 125.78,-345.65 125.87,-346.24 125.96,-346.82 126,-347.41 126,-348 126,-348 99,-348 99,-348"/>
<ellipse fill="none" stroke="black" stroke-width="3" cx="99" cy="-348" rx="27" ry="18"/>
<text xml:space="preserve" text-anchor="middle" x="99" y="-344.3" font-family="Times,serif" font-size="11.00">18</text>
</g>
<!-- n17&#45;&gt;n18 -->
<g id="edge12" class="edge">
<title>n17&#45;&gt;n18</title>
<path fill="none" stroke="#aa77aa" d="M45.24,-413.6C54.72,-402.2 67.67,-386.64 78.48,-373.65"/>
<polygon fill="#aa77aa" stroke="#aa77aa" points="80.89,-376.24 84.59,-366.31 75.51,-371.76 80.89,-376.24"/>
<text xml:space="preserve" text-anchor="middle" x="76.64" y="-385.95" font-family="Times,serif" font-size="9.00" fill="#aa77aa"> +1 </text>
</g>
<!-- n18&#45;&gt;n6 -->
<g id="edge13" class="edge">
<title>n18&#45;&gt;n6</title>
<path fill="none" stroke="#ddbb99" d="M118.55,-333.95C128.12,-327.48 139.75,-319.46 150,-312 160.81,-304.13 172.51,-295.2 182.62,-287.35"/>
<polygon fill="#ddbb99" stroke="#ddbb99" points="184.46,-290.35 190.19,-281.43 180.15,-284.83 184.46,-290.35"/>
<text xml:space="preserve" text-anchor="middle" x="170.24" y="-303.45" font-family="Times,serif" font-size="9.00" fill="#ddbb99"> ÷3 </text>
</g>
<!-- n18&#45;&gt;n9 -->
<g id="edge14" class="edge">
<title>n18&#45;&gt;n9</title>
<path fill="none" stroke="#6688bb" d="M96.97,-328.63C96.53,-320.25 96.71,-310.27 98.75,-301.5 99.36,-298.88 100.19,-296.24 101.17,-293.63"/>
<polygon fill="#6688bb" stroke="#6688bb" points="104.26,-295.3 105.14,-284.74 97.87,-292.45 104.26,-295.3"/>
<text xml:space="preserve" text-anchor="middle" x="105.88" y="-303.45" font-family="Times,serif" font-size="9.00" fill="#6688bb"> ÷2 </text>
</g>
<!-- n19 -->
<g id="node19" class="node">
<title>n19</title>
<ellipse fill="#eeccee" stroke="black" stroke-width="3" cx="684" cy="-430.5" rx="27" ry="18"/>
<text xml:space="preserve" text-anchor="middle" x="684" y="-426.8" font-family="Times,serif" font-size="11.00">19</text>
</g>
<!-- n20 -->
<g id="node20" class="node">
<title>n20</title>
<path fill="#ccddff" stroke="black" stroke-width="0.5" d="M606,-348C606,-348 633,-348 633,-348 633,-348.59 632.96,-349.18 632.87,-349.76 632.78,-350.35 632.65,-350.93 632.48,-351.51 632.31,-352.09 632.09,-352.66 631.84,-353.23 631.58,-353.79 631.28,-354.34 630.94,-354.89 630.61,-355.43 630.23,-355.97 629.81,-356.49 629.4,-357 628.94,-357.51 628.45,-358 627.96,-358.49 627.43,-358.96 626.87,-359.42 626.31,-359.87 625.72,-360.31 625.09,-360.73 624.47,-361.14 623.81,-361.54 623.13,-361.91 622.45,-362.29 621.74,-362.64 621,-362.97 620.27,-363.29 619.51,-363.6 618.73,-363.87 617.95,-364.15 617.15,-364.4 616.33,-364.63 615.52,-364.86 614.68,-365.05 613.84,-365.22 612.99,-365.4 612.13,-365.54 611.27,-365.65 610.4,-365.77 609.53,-365.86 608.65,-365.91 607.77,-365.97 606.88,-366 606,-366 605.12,-366 604.23,-365.97 603.35,-365.91 602.47,-365.86 601.6,-365.77 600.73,-365.65 599.87,-365.54 599.01,-365.4 598.16,-365.22 597.32,-365.05 596.48,-364.86 595.67,-364.63 594.85,-364.4 594.05,-364.15 593.27,-363.87 592.49,-363.6 591.73,-363.29 591,-362.97 590.26,-362.64 589.55,-362.29 588.87,-361.91 588.19,-361.54 587.53,-361.14 586.91,-360.73 586.28,-360.31 585.69,-359.87 585.13,-359.42 584.57,-358.96 584.04,-358.49 583.55,-358 583.06,-357.51 582.6,-357 582.19,-356.49 581.77,-355.97 581.39,-355.43 581.06,-354.89 580.72,-354.34 580.42,-353.79 580.16,-353.23 579.91,-352.66 579.69,-352.09 579.52,-351.51 579.35,-350.93 579.22,-350.35 579.13,-349.76 579.04,-349.18 579,-348.59 579,-348 579,-348 606,-348 606,-348"/>
<path fill="#cceecc" stroke="black" stroke-width="0.5" d="M606,-348C606,-348 579,-348 579,-348 579,-347.41 579.04,-346.82 579.13,-346.24 579.22,-345.65 579.35,-345.07 579.52,-344.49 579.69,-343.91 579.91,-343.34 580.16,-342.77 580.42,-342.21 580.72,-341.66 581.06,-341.11 581.39,-340.57 581.77,-340.03 582.19,-339.51 582.6,-339 583.06,-338.49 583.55,-338 584.04,-337.51 584.57,-337.04 585.13,-336.58 585.69,-336.13 586.28,-335.69 586.91,-335.27 587.53,-334.86 588.19,-334.46 588.87,-334.09 589.55,-333.71 590.26,-333.36 591,-333.03 591.73,-332.71 592.49,-332.4 593.27,-332.13 594.05,-331.85 594.85,-331.6 595.67,-331.37 596.48,-331.14 597.32,-330.95 598.16,-330.78 599.01,-330.6 599.87,-330.46 600.73,-330.35 601.6,-330.23 602.47,-330.14 603.35,-330.09 604.23,-330.03 605.12,-330 606,-330 606.88,-330 607.77,-330.03 608.65,-330.09 609.53,-330.14 610.4,-330.23 611.27,-330.35 612.13,-330.46 612.99,-330.6 613.84,-330.78 614.68,-330.95 615.52,-331.14 616.33,-331.37 617.15,-331.6 617.95,-331.85 618.73,-332.13 619.51,-332.4 620.27,-332.71 621,-333.03 621.74,-333.36 622.45,-333.71 623.13,-334.09 623.81,-334.46 624.47,-334.86 625.09,-335.27 625.72,-335.69 626.31,-336.13 626.87,-336.58 627.43,-337.04 627.96,-337.51 628.45,-338 628.94,-338.49 629.4,-339 629.81,-339.51 630.23,-340.03 630.61,-340.57 630.94,-341.11 631.28,-341.66 631.58,-342.21 631.84,-342.77 632.09,-343.34 632.31,-343.91 632.48,-344.49 632.65,-345.07 632.78,-345.65 632.87,-346.24 632.96,-346.82 633,-347.41 633,-348 633,-348 606,-348 606,-348"/>
<ellipse fill="none" stroke="black" stroke-width="3" cx="606" cy="-348" rx="27" ry="18"/>
<text xml:space="preserve" text-anchor="middle" x="606" y="-344.3" font-family="Times,serif" font-size="11.00">20</text>
</g>
<!-- n19&#45;&gt;n20 -->
<g id="edge15" class="edge">
<title>n19&#45;&gt;n20</title>
<path fill="none" stroke="#aa77aa" d="M668.96,-413.98C657.63,-402.29 641.9,-386.05 628.99,-372.73"/>
<polygon fill="#aa77aa" stroke="#aa77aa" points="631.52,-370.31 622.05,-365.56 626.49,-375.18 631.52,-370.31"/>
<text xml:space="preserve" text-anchor="middle" x="656.8" y="-385.95" font-family="Times,serif" font-size="9.00" fill="#aa77aa"> +1 </text>
</g>
<!-- n20&#45;&gt;n4 -->
<g id="edge18" class="edge">
<title>n20&#45;&gt;n4</title>
<path fill="none" stroke="#77aa77" d="M599.99,-329.3C596.34,-320.3 591.01,-309.59 584,-301.5 578.13,-294.74 570.67,-288.71 563.24,-283.63"/>
<polygon fill="#77aa77" stroke="#77aa77" points="565.56,-280.96 555.24,-278.55 561.81,-286.87 565.56,-280.96"/>
<text xml:space="preserve" text-anchor="middle" x="598.35" y="-303.45" font-family="Times,serif" font-size="9.00" fill="#77aa77"> ÷5 </text>
</g>
<!-- n20&#45;&gt;n10 -->
<g id="edge17" class="edge">
<title>n20&#45;&gt;n10</title>
<path fill="none" stroke="#6688bb" d="M589.95,-332.35C578.6,-322.58 562.68,-310.03 547,-301.5 525.88,-290.02 518.23,-292.64 496,-283.5 494.88,-283.04 493.75,-282.56 492.61,-282.07"/>
<polygon fill="#6688bb" stroke="#6688bb" points="494.25,-278.98 483.69,-278.09 491.39,-285.37 494.25,-278.98"/>
<text xml:space="preserve" text-anchor="middle" x="569.73" y="-303.45" font-family="Times,serif" font-size="9.00" fill="#6688bb"> ÷2 </text>
</g>
<!-- n21 -->
<g id="node21" class="node">
<title>n21</title>
<ellipse fill="#ffddcc" stroke="black" stroke-width="3" cx="563" cy="-513" rx="27" ry="18"/>
<text xml:space="preserve" text-anchor="middle" x="563" y="-509.3" font-family="Times,serif" font-size="11.00">21</text>
</g>
<!-- n21&#45;&gt;n7 -->
<g id="edge19" class="edge">
<title>n21&#45;&gt;n7</title>
<path fill="none" stroke="#ddbb99" d="M557.01,-494.13C553.65,-484.13 549.39,-471.42 545.58,-460.07"/>
<polygon fill="#ddbb99" stroke="#ddbb99" points="548.96,-459.12 542.46,-450.75 542.32,-461.34 548.96,-459.12"/>
<text xml:space="preserve" text-anchor="middle" x="558.24" y="-468.45" font-family="Times,serif" font-size="9.00" fill="#ddbb99"> ÷3 </text>
</g>
<!-- n22 -->
<g id="node22" class="node">
<title>n22</title>
<ellipse fill="#ccddff" stroke="black" stroke-width="3" cx="104" cy="-513" rx="27" ry="18"/>
<text xml:space="preserve" text-anchor="middle" x="104" y="-509.3" font-family="Times,serif" font-size="11.00">22</text>
</g>
<!-- n22&#45;&gt;n11 -->
<g id="edge20" class="edge">
<title>n22&#45;&gt;n11</title>
<path fill="none" stroke="#6688bb" d="M117.88,-496.48C128.27,-484.86 142.68,-468.75 154.55,-455.48"/>
<polygon fill="#6688bb" stroke="#6688bb" points="156.85,-458.16 160.91,-448.38 151.63,-453.5 156.85,-458.16"/>
<text xml:space="preserve" text-anchor="middle" x="151.44" y="-468.45" font-family="Times,serif" font-size="9.00" fill="#6688bb"> ÷2 </text>
</g>
<!-- n23 -->
<g id="node23" class="node">
<title>n23</title>
<ellipse fill="#eeccee" stroke="black" stroke-width="3" cx="248" cy="-513" rx="27" ry="18"/>
<text xml:space="preserve" text-anchor="middle" x="248" y="-509.3" font-family="Times,serif" font-size="11.00">23</text>
</g>
<!-- n24 -->
<g id="node24" class="node">
<title>n24</title>
<path fill="#ccddff" stroke="black" stroke-width="0.5" d="M248,-430.5C248,-430.5 275,-430.5 275,-430.5 275,-431.09 274.96,-431.68 274.87,-432.26 274.78,-432.85 274.65,-433.43 274.48,-434.01 274.31,-434.59 274.09,-435.16 273.84,-435.73 273.58,-436.29 273.28,-436.84 272.94,-437.39 272.61,-437.93 272.23,-438.47 271.81,-438.99 271.4,-439.5 270.94,-440.01 270.45,-440.5 269.96,-440.99 269.43,-441.46 268.87,-441.92 268.31,-442.37 267.72,-442.81 267.09,-443.23 266.47,-443.64 265.81,-444.04 265.13,-444.41 264.45,-444.79 263.74,-445.14 263,-445.47 262.27,-445.79 261.51,-446.1 260.73,-446.37 259.95,-446.65 259.15,-446.9 258.33,-447.13 257.52,-447.36 256.68,-447.55 255.84,-447.72 254.99,-447.9 254.13,-448.04 253.27,-448.15 252.4,-448.27 251.53,-448.36 250.65,-448.41 249.77,-448.47 248.88,-448.5 248,-448.5 247.12,-448.5 246.23,-448.47 245.35,-448.41 244.47,-448.36 243.6,-448.27 242.73,-448.15 241.87,-448.04 241.01,-447.9 240.16,-447.72 239.32,-447.55 238.48,-447.36 237.67,-447.13 236.85,-446.9 236.05,-446.65 235.27,-446.37 234.49,-446.1 233.73,-445.79 233,-445.47 232.26,-445.14 231.55,-444.79 230.87,-444.41 230.19,-444.04 229.53,-443.64 228.91,-443.23 228.28,-442.81 227.69,-442.37 227.13,-441.92 226.57,-441.46 226.04,-440.99 225.55,-440.5 225.06,-440.01 224.6,-439.5 224.19,-438.99 223.77,-438.47 223.39,-437.93 223.06,-437.39 222.72,-436.84 222.42,-436.29 222.16,-435.73 221.91,-435.16 221.69,-434.59 221.52,-434.01 221.35,-433.43 221.22,-432.85 221.13,-432.26 221.04,-431.68 221,-431.09 221,-430.5 221,-430.5 248,-430.5 248,-430.5"/>
<path fill="#ffddcc" stroke="black" stroke-width="0.5" d="M248,-430.5C248,-430.5 221,-430.5 221,-430.5 221,-429.91 221.04,-429.32 221.13,-428.74 221.22,-428.15 221.35,-427.57 221.52,-426.99 221.69,-426.41 221.91,-425.84 222.16,-425.27 222.42,-424.71 222.72,-424.16 223.06,-423.61 223.39,-423.07 223.77,-422.53 224.19,-422.01 224.6,-421.5 225.06,-420.99 225.55,-420.5 226.04,-420.01 226.57,-419.54 227.13,-419.08 227.69,-418.63 228.28,-418.19 228.91,-417.77 229.53,-417.36 230.19,-416.96 230.87,-416.59 231.55,-416.21 232.26,-415.86 233,-415.53 233.73,-415.21 234.49,-414.9 235.27,-414.63 236.05,-414.35 236.85,-414.1 237.67,-413.87 238.48,-413.64 239.32,-413.45 240.16,-413.28 241.01,-413.1 241.87,-412.96 242.73,-412.85 243.6,-412.73 244.47,-412.64 245.35,-412.59 246.23,-412.53 247.12,-412.5 248,-412.5 248.88,-412.5 249.77,-412.53 250.65,-412.59 251.53,-412.64 252.4,-412.73 253.27,-412.85 254.13,-412.96 254.99,-413.1 255.84,-413.28 256.68,-413.45 257.52,-413.64 258.33,-413.87 259.15,-414.1 259.95,-414.35 260.73,-414.63 261.51,-414.9 262.27,-415.21 263,-415.53 263.74,-415.86 264.45,-416.21 265.13,-416.59 265.81,-416.96 266.47,-417.36 267.09,-417.77 267.72,-418.19 268.31,-418.63 268.87,-419.08 269.43,-419.54 269.96,-420.01 270.45,-420.5 270.94,-420.99 271.4,-421.5 271.81,-422.01 272.23,-422.53 272.61,-423.07 272.94,-423.61 273.28,-424.16 273.58,-424.71 273.84,-425.27 274.09,-425.84 274.31,-426.41 274.48,-426.99 274.65,-427.57 274.78,-428.15 274.87,-428.74 274.96,-429.32 275,-429.91 275,-430.5 275,-430.5 248,-430.5 248,-430.5"/>
<ellipse fill="none" stroke="black" stroke-width="3" cx="248" cy="-430.5" rx="27" ry="18"/>
<text xml:space="preserve" text-anchor="middle" x="248" y="-426.8" font-family="Times,serif" font-size="11.00">24</text>
</g>
<!-- n23&#45;&gt;n24 -->
<g id="edge21" class="edge">
<title>n23&#45;&gt;n24</title>
<path fill="none" stroke="#aa77aa" d="M248,-493.73C248,-484.13 248,-472.11 248,-461.2"/>
<polygon fill="#aa77aa" stroke="#aa77aa" points="251.5,-461.49 248,-451.49 244.5,-461.49 251.5,-461.49"/>
<text xml:space="preserve" text-anchor="middle" x="255.12" y="-468.45" font-family="Times,serif" font-size="9.00" fill="#aa77aa"> +1 </text>
</g>
<!-- n24&#45;&gt;n8 -->
<g id="edge23" class="edge">
<title>n24&#45;&gt;n8</title>
<path fill="none" stroke="#ddbb99" d="M261.85,-413.65C271.84,-403.36 286.25,-390.66 301.75,-384 369.64,-354.86 394.34,-379.38 467,-366 476.38,-364.27 486.4,-361.91 495.69,-359.5"/>
<polygon fill="#ddbb99" stroke="#ddbb99" points="496.36,-362.95 505.11,-356.97 494.54,-356.19 496.36,-362.95"/>
<text xml:space="preserve" text-anchor="middle" x="308.88" y="-385.95" font-family="Times,serif" font-size="9.00" fill="#ddbb99"> ÷3 </text>
</g>
<!-- n24&#45;&gt;n12 -->
<g id="edge22" class="edge">
<title>n24&#45;&gt;n12</title>
<path fill="none" stroke="#6688bb" d="M246.82,-411.34C246.47,-405.92 246.09,-399.97 245.75,-394.5 245.43,-389.29 245.09,-383.75 244.76,-378.39"/>
<polygon fill="#6688bb" stroke="#6688bb" points="248.27,-378.44 244.17,-368.67 241.28,-378.86 248.27,-378.44"/>
<text xml:space="preserve" text-anchor="middle" x="252.88" y="-385.95" font-family="Times,serif" font-size="9.00" fill="#6688bb"> ÷2 </text>
</g>
<!-- n25 -->
<g id="node25" class="node">
<title>n25</title>
<ellipse fill="#cceecc" stroke="black" stroke-width="3" cx="388" cy="-265.5" rx="27" ry="18"/>
<text xml:space="preserve" text-anchor="middle" x="388" y="-261.8" font-family="Times,serif" font-size="11.00">25</text>
</g>
<!-- n25&#45;&gt;n5 -->
<g id="edge24" class="edge">
<title>n25&#45;&gt;n5</title>
<path fill="none" stroke="#77aa77" d="M388.45,-246.23C388.69,-236.63 388.99,-224.61 389.26,-213.7"/>
<polygon fill="#77aa77" stroke="#77aa77" points="392.75,-214.07 389.5,-203.99 385.76,-213.9 392.75,-214.07"/>
<text xml:space="preserve" text-anchor="middle" x="396.24" y="-220.95" font-family="Times,serif" font-size="9.00" fill="#77aa77"> ÷5 </text>
</g>
<!-- n26 -->
<g id="node26" class="node">
<title>n26</title>
<ellipse fill="#ccddff" stroke="black" stroke-width="3" cx="608" cy="-678" rx="27" ry="18"/>
<text xml:space="preserve" text-anchor="middle" x="608" y="-674.3" font-family="Times,serif" font-size="11.00">26</text>
</g>
<!-- n26&#45;&gt;n13 -->
<g id="edge25" class="edge">
<title>n26&#45;&gt;n13</title>
<path fill="none" stroke="#6688bb" d="M608,-658.73C608,-649.13 608,-637.11 608,-626.2"/>
<polygon fill="#6688bb" stroke="#6688bb" points="611.5,-626.49 608,-616.49 604.5,-626.49 611.5,-626.49"/>
<text xml:space="preserve" text-anchor="middle" x="615.12" y="-633.45" font-family="Times,serif" font-size="9.00" fill="#6688bb"> ÷2 </text>
</g>
<!-- n27 -->
<g id="node27" class="node">
<title>n27</title>
<ellipse fill="#ffddcc" stroke="black" stroke-width="3" cx="27" cy="-348" rx="27" ry="18"/>
<text xml:space="preserve" text-anchor="middle" x="27" y="-344.3" font-family="Times,serif" font-size="11.00">27</text>
</g>
<!-- n27&#45;&gt;n9 -->
<g id="edge26" class="edge">
<title>n27&#45;&gt;n9</title>
<path fill="none" stroke="#ddbb99" d="M43.32,-332.24C56.75,-320.09 75.98,-302.7 91.29,-288.85"/>
<polygon fill="#ddbb99" stroke="#ddbb99" points="93.59,-291.49 98.66,-282.19 88.89,-286.3 93.59,-291.49"/>
<text xml:space="preserve" text-anchor="middle" x="83.95" y="-303.45" font-family="Times,serif" font-size="9.00" fill="#ddbb99"> ÷3 </text>
</g>
<!-- n28 -->
<g id="node28" class="node">
<title>n28</title>
<ellipse fill="#ccddff" stroke="black" stroke-width="3" cx="464" cy="-595.5" rx="27" ry="18"/>
<text xml:space="preserve" text-anchor="middle" x="464" y="-591.8" font-family="Times,serif" font-size="11.00">28</text>
</g>
<!-- n28&#45;&gt;n14 -->
<g id="edge27" class="edge">
<title>n28&#45;&gt;n14</title>
<path fill="none" stroke="#6688bb" d="M461.76,-576.34C461.35,-567.82 461.78,-557.67 464.75,-549 465.96,-545.48 467.66,-542.02 469.63,-538.74"/>
<polygon fill="#6688bb" stroke="#6688bb" points="472.37,-540.93 475.23,-530.73 466.63,-536.92 472.37,-540.93"/>
<text xml:space="preserve" text-anchor="middle" x="471.88" y="-550.95" font-family="Times,serif" font-size="9.00" fill="#6688bb"> ÷2 </text>
</g>
<!-- n29 -->
<g id="node29" class="node">
<title>n29</title>
<ellipse fill="#eeccee" stroke="black" stroke-width="3" cx="320" cy="-430.5" rx="27" ry="18"/>
<text xml:space="preserve" text-anchor="middle" x="320" y="-426.8" font-family="Times,serif" font-size="11.00">29</text>
</g>
<!-- n30 -->
<g id="node30" class="node">
<title>n30</title>
<path fill="#ccddff" stroke="black" stroke-width="0.5" d="M320,-348C320,-348 347,-348 347,-348 347,-348.73 346.93,-349.45 346.8,-350.18 346.67,-350.9 346.47,-351.61 346.21,-352.32 345.95,-353.02 345.62,-353.72 345.24,-354.4 344.85,-355.08 344.4,-355.74 343.89,-356.38 343.38,-357.03 342.82,-357.65 342.2,-358.25 341.58,-358.85 340.9,-359.42 340.18,-359.96 339.45,-360.5 338.68,-361.02 337.86,-361.5 337.04,-361.98 336.18,-362.43 335.28,-362.84 334.38,-363.25 333.45,-363.63 332.48,-363.96 331.51,-364.3 330.52,-364.59 329.5,-364.85 328.48,-365.11 327.43,-365.32 326.37,-365.49 325.31,-365.66 324.24,-365.79 323.16,-365.88 322.07,-365.96 320.98,-366 319.89,-366 318.8,-366 317.71,-365.95 316.63,-365.86 315.55,-365.77 314.48,-365.63 313.42,-365.46 312.36,-365.28 311.32,-365.06 310.3,-364.8 310.3,-364.8 320,-348 320,-348"/>
<path fill="#ffddcc" stroke="black" stroke-width="0.5" d="M320,-348C320,-348 310.3,-364.8 310.3,-364.8 309.04,-364.47 307.81,-364.09 306.63,-363.64 305.46,-363.19 304.33,-362.69 303.27,-362.13 302.21,-361.57 301.21,-360.96 300.28,-360.3 299.36,-359.64 298.51,-358.93 297.74,-358.19 296.98,-357.44 296.29,-356.66 295.7,-355.85 295.11,-355.04 294.61,-354.2 294.21,-353.33 293.81,-352.47 293.51,-351.59 293.3,-350.7 293.1,-349.8 293,-348.9 293,-348 293,-347.1 293.1,-346.2 293.3,-345.3 293.51,-344.41 293.81,-343.53 294.21,-342.67 294.61,-341.8 295.11,-340.96 295.7,-340.15 296.29,-339.34 296.98,-338.56 297.74,-337.81 298.51,-337.07 299.36,-336.36 300.28,-335.7 301.21,-335.04 302.21,-334.43 303.27,-333.87 304.33,-333.31 305.46,-332.81 306.63,-332.36 307.81,-331.91 309.04,-331.53 310.3,-331.2 310.3,-331.2 320,-348 320,-348"/>
<path fill="#cceecc" stroke="black" stroke-width="0.5" d="M320,-348C320,-348 310.3,-331.2 310.3,-331.2 311.32,-330.94 312.36,-330.72 313.42,-330.54 314.48,-330.37 315.55,-330.23 316.63,-330.14 317.71,-330.05 318.8,-330 319.89,-330 320.98,-330 322.07,-330.04 323.16,-330.12 324.24,-330.21 325.31,-330.34 326.37,-330.51 327.43,-330.68 328.48,-330.89 329.5,-331.15 330.52,-331.41 331.51,-331.7 332.48,-332.04 333.45,-332.37 334.38,-332.75 335.28,-333.16 336.18,-333.57 337.04,-334.02 337.86,-334.5 338.68,-334.98 339.45,-335.5 340.18,-336.04 340.9,-336.58 341.58,-337.15 342.2,-337.75 342.82,-338.35 343.38,-338.97 343.89,-339.62 344.4,-340.26 344.85,-340.92 345.24,-341.6 345.62,-342.28 345.95,-342.98 346.21,-343.68 346.47,-344.39 346.67,-345.1 346.8,-345.82 346.93,-346.55 347,-347.27 347,-348 347,-348 320,-348 320,-348"/>
<ellipse fill="none" stroke="black" stroke-width="3" cx="320" cy="-348" rx="27" ry="18"/>
<text xml:space="preserve" text-anchor="middle" x="320" y="-344.3" font-family="Times,serif" font-size="11.00">30</text>
</g>
<!-- n29&#45;&gt;n30 -->
<g id="edge28" class="edge">
<title>n29&#45;&gt;n30</title>
<path fill="none" stroke="#aa77aa" d="M320,-411.23C320,-401.63 320,-389.61 320,-378.7"/>
<polygon fill="#aa77aa" stroke="#aa77aa" points="323.5,-378.99 320,-368.99 316.5,-378.99 323.5,-378.99"/>
<text xml:space="preserve" text-anchor="middle" x="327.12" y="-385.95" font-family="Times,serif" font-size="9.00" fill="#aa77aa"> +1 </text>
</g>
<!-- n30&#45;&gt;n6 -->
<g id="edge32" class="edge">
<title>n30&#45;&gt;n6</title>
<path fill="none" stroke="#77aa77" d="M296.65,-337.15C278.49,-329.25 255.03,-318.45 246.75,-312 239.46,-306.32 232.63,-299.01 226.84,-291.92"/>
<polygon fill="#77aa77" stroke="#77aa77" points="229.91,-290.17 221.03,-284.39 224.37,-294.45 229.91,-290.17"/>
<text xml:space="preserve" text-anchor="middle" x="253.88" y="-303.45" font-family="Times,serif" font-size="9.00" fill="#77aa77"> ÷5 </text>
</g>
<!-- n30&#45;&gt;n10 -->
<g id="edge30" class="edge">
<title>n30&#45;&gt;n10</title>
<path fill="none" stroke="#ddbb99" d="M330.28,-330.03C336.97,-320.34 346.53,-308.72 357.75,-301.5 383.41,-284.99 395.37,-294.06 424,-283.5 425.31,-283.02 426.64,-282.5 427.98,-281.97"/>
<polygon fill="#ddbb99" stroke="#ddbb99" points="429,-285.34 436.79,-278.16 426.22,-278.91 429,-285.34"/>
<text xml:space="preserve" text-anchor="middle" x="364.88" y="-303.45" font-family="Times,serif" font-size="9.00" fill="#ddbb99"> ÷3 </text>
</g>
<!-- n30&#45;&gt;n15 -->
<g id="edge31" class="edge">
<title>n30&#45;&gt;n15</title>
<path fill="none" stroke="#6688bb" d="M319.09,-328.73C318.61,-319.13 318.02,-307.11 317.48,-296.2"/>
<polygon fill="#6688bb" stroke="#6688bb" points="320.99,-296.3 316.99,-286.48 313.99,-296.65 320.99,-296.3"/>
<text xml:space="preserve" text-anchor="middle" x="325.36" y="-303.45" font-family="Times,serif" font-size="9.00" fill="#6688bb"> ÷2 </text>
</g>
<!-- n31 -->
<g id="node31" class="node">
<title>n31</title>
<ellipse fill="#eeccee" stroke="black" stroke-width="3" cx="392" cy="-595.5" rx="27" ry="18"/>
<text xml:space="preserve" text-anchor="middle" x="392" y="-591.8" font-family="Times,serif" font-size="11.00">31</text>
</g>
<!-- n32 -->
<g id="node32" class="node">
<title>n32</title>
<ellipse fill="#ccddff" stroke="black" stroke-width="3" cx="415" cy="-513" rx="27" ry="18"/>
<text xml:space="preserve" text-anchor="middle" x="415" y="-509.3" font-family="Times,serif" font-size="11.00">32</text>
</g>
<!-- n31&#45;&gt;n32 -->
<g id="edge33" class="edge">
<title>n31&#45;&gt;n32</title>
<path fill="none" stroke="#aa77aa" d="M397.1,-576.63C399.91,-566.8 403.47,-554.36 406.67,-543.16"/>
<polygon fill="#aa77aa" stroke="#aa77aa" points="410.03,-544.13 409.41,-533.55 403.3,-542.2 410.03,-544.13"/>
<text xml:space="preserve" text-anchor="middle" x="412" y="-550.95" font-family="Times,serif" font-size="9.00" fill="#aa77aa"> +1 </text>
</g>
<!-- n32&#45;&gt;n16 -->
<g id="edge34" class="edge">
<title>n32&#45;&gt;n16</title>
<path fill="none" stroke="#6688bb" d="M425.39,-494.93C431.89,-484.26 440.39,-470.28 447.77,-458.17"/>
<polygon fill="#6688bb" stroke="#6688bb" points="450.63,-460.2 452.84,-449.84 444.65,-456.56 450.63,-460.2"/>
<text xml:space="preserve" text-anchor="middle" x="449.56" y="-468.45" font-family="Times,serif" font-size="9.00" fill="#6688bb"> ÷2 </text>
</g>
<!-- n33 -->
<g id="node33" class="node">
<title>n33</title>
<ellipse fill="#ffddcc" stroke="black" stroke-width="3" cx="176" cy="-513" rx="27" ry="18"/>
<text xml:space="preserve" text-anchor="middle" x="176" y="-509.3" font-family="Times,serif" font-size="11.00">33</text>
</g>
<!-- n33&#45;&gt;n11 -->
<g id="edge35" class="edge">
<title>n33&#45;&gt;n11</title>
<path fill="none" stroke="#ddbb99" d="M176,-493.73C176,-484.13 176,-472.11 176,-461.2"/>
<polygon fill="#ddbb99" stroke="#ddbb99" points="179.5,-461.49 176,-451.49 172.5,-461.49 179.5,-461.49"/>
<text xml:space="preserve" text-anchor="middle" x="183.12" y="-468.45" font-family="Times,serif" font-size="9.00" fill="#ddbb99"> ÷3 </text>
</g>
<!-- n34 -->
<g id="node34" class="node">
<title>n34</title>
<ellipse fill="#ccddff" stroke="black" stroke-width="3" cx="32" cy="-513" rx="27" ry="18"/>
<text xml:space="preserve" text-anchor="middle" x="32" y="-509.3" font-family="Times,serif" font-size="11.00">34</text>
</g>
<!-- n34&#45;&gt;n17 -->
<g id="edge36" class="edge">
<title>n34&#45;&gt;n17</title>
<path fill="none" stroke="#6688bb" d="M32,-493.73C32,-484.13 32,-472.11 32,-461.2"/>
<polygon fill="#6688bb" stroke="#6688bb" points="35.5,-461.49 32,-451.49 28.5,-461.49 35.5,-461.49"/>
<text xml:space="preserve" text-anchor="middle" x="39.12" y="-468.45" font-family="Times,serif" font-size="9.00" fill="#6688bb"> ÷2 </text>
</g>
<!-- n35 -->
<g id="node35" class="node">
<title>n35</title>
<ellipse fill="#cceecc" stroke="black" stroke-width="3" cx="635" cy="-513" rx="27" ry="18"/>
<text xml:space="preserve" text-anchor="middle" x="635" y="-509.3" font-family="Times,serif" font-size="11.00">35</text>
</g>
<!-- n35&#45;&gt;n7 -->
<g id="edge37" class="edge">
<title>n35&#45;&gt;n7</title>
<path fill="none" stroke="#77aa77" d="M617.76,-497.98C602.38,-485.47 579.64,-466.98 562.04,-452.68"/>
<polygon fill="#77aa77" stroke="#77aa77" points="564.52,-450.18 554.55,-446.59 560.1,-455.61 564.52,-450.18"/>
<text xml:space="preserve" text-anchor="middle" x="598.55" y="-468.45" font-family="Times,serif" font-size="9.00" fill="#77aa77"> ÷5 </text>
</g>
<!-- n36 -->
<g id="node36" class="node">
<title>n36</title>
<path fill="#ccddff" stroke="black" stroke-width="0.5" d="M104,-430.5C104,-430.5 131,-430.5 131,-430.5 131,-431.09 130.96,-431.68 130.87,-432.26 130.78,-432.85 130.65,-433.43 130.48,-434.01 130.31,-434.59 130.09,-435.16 129.84,-435.73 129.58,-436.29 129.28,-436.84 128.94,-437.39 128.61,-437.93 128.23,-438.47 127.81,-438.99 127.4,-439.5 126.94,-440.01 126.45,-440.5 125.96,-440.99 125.43,-441.46 124.87,-441.92 124.31,-442.37 123.72,-442.81 123.09,-443.23 122.47,-443.64 121.81,-444.04 121.13,-444.41 120.45,-444.79 119.74,-445.14 119,-445.47 118.27,-445.79 117.51,-446.1 116.73,-446.37 115.95,-446.65 115.15,-446.9 114.33,-447.13 113.52,-447.36 112.68,-447.55 111.84,-447.72 110.99,-447.9 110.13,-448.04 109.27,-448.15 108.4,-448.27 107.53,-448.36 106.65,-448.41 105.77,-448.47 104.88,-448.5 104,-448.5 103.12,-448.5 102.23,-448.47 101.35,-448.41 100.47,-448.36 99.6,-448.27 98.73,-448.15 97.87,-448.04 97.01,-447.9 96.16,-447.72 95.32,-447.55 94.48,-447.36 93.67,-447.13 92.85,-446.9 92.05,-446.65 91.27,-446.37 90.49,-446.1 89.73,-445.79 89,-445.47 88.26,-445.14 87.55,-444.79 86.87,-444.41 86.19,-444.04 85.53,-443.64 84.91,-443.23 84.28,-442.81 83.69,-442.37 83.13,-441.92 82.57,-441.46 82.04,-440.99 81.55,-440.5 81.06,-440.01 80.6,-439.5 80.19,-438.99 79.77,-438.47 79.39,-437.93 79.06,-437.39 78.72,-436.84 78.42,-436.29 78.16,-435.73 77.91,-435.16 77.69,-434.59 77.52,-434.01 77.35,-433.43 77.22,-432.85 77.13,-432.26 77.04,-431.68 77,-431.09 77,-430.5 77,-430.5 104,-430.5 104,-430.5"/>
<path fill="#ffddcc" stroke="black" stroke-width="0.5" d="M104,-430.5C104,-430.5 77,-430.5 77,-430.5 77,-429.91 77.04,-429.32 77.13,-428.74 77.22,-428.15 77.35,-427.57 77.52,-426.99 77.69,-426.41 77.91,-425.84 78.16,-425.27 78.42,-424.71 78.72,-424.16 79.06,-423.61 79.39,-423.07 79.77,-422.53 80.19,-422.01 80.6,-421.5 81.06,-420.99 81.55,-420.5 82.04,-420.01 82.57,-419.54 83.13,-419.08 83.69,-418.63 84.28,-418.19 84.91,-417.77 85.53,-417.36 86.19,-416.96 86.87,-416.59 87.55,-416.21 88.26,-415.86 89,-415.53 89.73,-415.21 90.49,-414.9 91.27,-414.63 92.05,-414.35 92.85,-414.1 93.67,-413.87 94.48,-413.64 95.32,-413.45 96.16,-413.28 97.01,-413.1 97.87,-412.96 98.73,-412.85 99.6,-412.73 100.47,-412.64 101.35,-412.59 102.23,-412.53 103.12,-412.5 104,-412.5 104.88,-412.5 105.77,-412.53 106.65,-412.59 107.53,-412.64 108.4,-412.73 109.27,-412.85 110.13,-412.96 110.99,-413.1 111.84,-413.28 112.68,-413.45 113.52,-413.64 114.33,-413.87 115.15,-414.1 115.95,-414.35 116.73,-414.63 117.51,-414.9 118.27,-415.21 119,-415.53 119.74,-415.86 120.45,-416.21 121.13,-416.59 121.81,-416.96 122.47,-417.36 123.09,-417.77 123.72,-418.19 124.31,-418.63 124.87,-419.08 125.43,-419.54 125.96,-420.01 126.45,-420.5 126.94,-420.99 127.4,-421.5 127.81,-422.01 128.23,-422.53 128.61,-423.07 128.94,-423.61 129.28,-424.16 129.58,-424.71 129.84,-425.27 130.09,-425.84 130.31,-426.41 130.48,-426.99 130.65,-427.57 130.78,-428.15 130.87,-428.74 130.96,-429.32 131,-429.91 131,-430.5 131,-430.5 104,-430.5 104,-430.5"/>
<ellipse fill="none" stroke="black" stroke-width="3" cx="104" cy="-430.5" rx="27" ry="18"/>
<text xml:space="preserve" text-anchor="middle" x="104" y="-426.8" font-family="Times,serif" font-size="11.00">36</text>
</g>
<!-- n36&#45;&gt;n12 -->
<g id="edge38" class="edge">
<title>n36&#45;&gt;n12</title>
<path fill="none" stroke="#ddbb99" d="M124.81,-417.45C147.94,-404.05 185.54,-382.28 212.11,-366.89"/>
<polygon fill="#ddbb99" stroke="#ddbb99" points="213.84,-369.93 220.74,-361.89 210.33,-363.88 213.84,-369.93"/>
<text xml:space="preserve" text-anchor="middle" x="188.95" y="-385.95" font-family="Times,serif" font-size="9.00" fill="#ddbb99"> ÷3 </text>
</g>
<!-- n36&#45;&gt;n18 -->
<g id="edge39" class="edge">
<title>n36&#45;&gt;n18</title>
<path fill="none" stroke="#6688bb" d="M102.87,-411.23C102.27,-401.63 101.52,-389.61 100.84,-378.7"/>
<polygon fill="#6688bb" stroke="#6688bb" points="104.35,-378.75 100.24,-368.98 97.37,-379.18 104.35,-378.75"/>
<text xml:space="preserve" text-anchor="middle" x="108.92" y="-385.95" font-family="Times,serif" font-size="9.00" fill="#6688bb"> ÷2 </text>
</g>
<!-- n37 -->
<g id="node37" class="node">
<title>n37</title>
<ellipse fill="#eeccee" stroke="black" stroke-width="3" cx="707" cy="-595.5" rx="27" ry="18"/>
<text xml:space="preserve" text-anchor="middle" x="707" y="-591.8" font-family="Times,serif" font-size="11.00">37</text>
</g>
<!-- n38 -->
<g id="node38" class="node">
<title>n38</title>
<ellipse fill="#ccddff" stroke="black" stroke-width="3" cx="707" cy="-513" rx="27" ry="18"/>
<text xml:space="preserve" text-anchor="middle" x="707" y="-509.3" font-family="Times,serif" font-size="11.00">38</text>
</g>
<!-- n37&#45;&gt;n38 -->
<g id="edge40" class="edge">
<title>n37&#45;&gt;n38</title>
<path fill="none" stroke="#aa77aa" d="M707,-576.23C707,-566.63 707,-554.61 707,-543.7"/>
<polygon fill="#aa77aa" stroke="#aa77aa" points="710.5,-543.99 707,-533.99 703.5,-543.99 710.5,-543.99"/>
<text xml:space="preserve" text-anchor="middle" x="714.12" y="-550.95" font-family="Times,serif" font-size="9.00" fill="#aa77aa"> +1 </text>
</g>
<!-- n38&#45;&gt;n19 -->
<g id="edge41" class="edge">
<title>n38&#45;&gt;n19</title>
<path fill="none" stroke="#6688bb" d="M701.9,-494.13C699.09,-484.3 695.53,-471.86 692.33,-460.66"/>
<polygon fill="#6688bb" stroke="#6688bb" points="695.7,-459.7 689.59,-451.05 688.97,-461.63 695.7,-459.7"/>
<text xml:space="preserve" text-anchor="middle" x="704" y="-468.45" font-family="Times,serif" font-size="9.00" fill="#6688bb"> ÷2 </text>
</g>
<!-- n39 -->
<g id="node39" class="node">
<title>n39</title>
<ellipse fill="#ffddcc" stroke="black" stroke-width="3" cx="680" cy="-678" rx="27" ry="18"/>
<text xml:space="preserve" text-anchor="middle" x="680" y="-674.3" font-family="Times,serif" font-size="11.00">39</text>
</g>
<!-- n39&#45;&gt;n13 -->
<g id="edge42" class="edge">
<title>n39&#45;&gt;n13</title>
<path fill="none" stroke="#ddbb99" d="M666.12,-661.48C655.73,-649.86 641.32,-633.75 629.45,-620.48"/>
<polygon fill="#ddbb99" stroke="#ddbb99" points="632.37,-618.5 623.09,-613.38 627.15,-623.16 632.37,-618.5"/>
<text xml:space="preserve" text-anchor="middle" x="655.44" y="-633.45" font-family="Times,serif" font-size="9.00" fill="#ddbb99"> ÷3 </text>
</g>
<!-- n40 -->
<g id="node40" class="node">
<title>n40</title>
<path fill="#ccddff" stroke="black" stroke-width="0.5" d="M608,-430.5C608,-430.5 635,-430.5 635,-430.5 635,-431.09 634.96,-431.68 634.87,-432.26 634.78,-432.85 634.65,-433.43 634.48,-434.01 634.31,-434.59 634.09,-435.16 633.84,-435.73 633.58,-436.29 633.28,-436.84 632.94,-437.39 632.61,-437.93 632.23,-438.47 631.81,-438.99 631.4,-439.5 630.94,-440.01 630.45,-440.5 629.96,-440.99 629.43,-441.46 628.87,-441.92 628.31,-442.37 627.72,-442.81 627.09,-443.23 626.47,-443.64 625.81,-444.04 625.13,-444.41 624.45,-444.79 623.74,-445.14 623,-445.47 622.27,-445.79 621.51,-446.1 620.73,-446.37 619.95,-446.65 619.15,-446.9 618.33,-447.13 617.52,-447.36 616.68,-447.55 615.84,-447.72 614.99,-447.9 614.13,-448.04 613.27,-448.15 612.4,-448.27 611.53,-448.36 610.65,-448.41 609.77,-448.47 608.88,-448.5 608,-448.5 607.12,-448.5 606.23,-448.47 605.35,-448.41 604.47,-448.36 603.6,-448.27 602.73,-448.15 601.87,-448.04 601.01,-447.9 600.16,-447.72 599.32,-447.55 598.48,-447.36 597.67,-447.13 596.85,-446.9 596.05,-446.65 595.27,-446.37 594.49,-446.1 593.73,-445.79 593,-445.47 592.26,-445.14 591.55,-444.79 590.87,-444.41 590.19,-444.04 589.53,-443.64 588.91,-443.23 588.28,-442.81 587.69,-442.37 587.13,-441.92 586.57,-441.46 586.04,-440.99 585.55,-440.5 585.06,-440.01 584.6,-439.5 584.19,-438.99 583.77,-438.47 583.39,-437.93 583.06,-437.39 582.72,-436.84 582.42,-436.29 582.16,-435.73 581.91,-435.16 581.69,-434.59 581.52,-434.01 581.35,-433.43 581.22,-432.85 581.13,-432.26 581.04,-431.68 581,-431.09 581,-430.5 581,-430.5 608,-430.5 608,-430.5"/>
<path fill="#cceecc" stroke="black" stroke-width="0.5" d="M608,-430.5C608,-430.5 581,-430.5 581,-430.5 581,-429.91 581.04,-429.32 581.13,-428.74 581.22,-428.15 581.35,-427.57 581.52,-426.99 581.69,-426.41 581.91,-425.84 582.16,-425.27 582.42,-424.71 582.72,-424.16 583.06,-423.61 583.39,-423.07 583.77,-422.53 584.19,-422.01 584.6,-421.5 585.06,-420.99 585.55,-420.5 586.04,-420.01 586.57,-419.54 587.13,-419.08 587.69,-418.63 588.28,-418.19 588.91,-417.77 589.53,-417.36 590.19,-416.96 590.87,-416.59 591.55,-416.21 592.26,-415.86 593,-415.53 593.73,-415.21 594.49,-414.9 595.27,-414.63 596.05,-414.35 596.85,-414.1 597.67,-413.87 598.48,-413.64 599.32,-413.45 600.16,-413.28 601.01,-413.1 601.87,-412.96 602.73,-412.85 603.6,-412.73 604.47,-412.64 605.35,-412.59 606.23,-412.53 607.12,-412.5 608,-412.5 608.88,-412.5 609.77,-412.53 610.65,-412.59 611.53,-412.64 612.4,-412.73 613.27,-412.85 614.13,-412.96 614.99,-413.1 615.84,-413.28 616.68,-413.45 617.52,-413.64 618.33,-413.87 619.15,-414.1 619.95,-414.35 620.73,-414.63 621.51,-414.9 622.27,-415.21 623,-415.53 623.74,-415.86 624.45,-416.21 625.13,-416.59 625.81,-416.96 626.47,-417.36 627.09,-417.77 627.72,-418.19 628.31,-418.63 628.87,-419.08 629.43,-419.54 629.96,-420.01 630.45,-420.5 630.94,-420.99 631.4,-421.5 631.81,-422.01 632.23,-422.53 632.61,-423.07 632.94,-423.61 633.28,-424.16 633.58,-424.71 633.84,-425.27 634.09,-425.84 634.31,-426.41 634.48,-426.99 634.65,-427.57 634.78,-428.15 634.87,-428.74 634.96,-429.32 635,-429.91 635,-430.5 635,-430.5 608,-430.5 608,-430.5"/>
<ellipse fill="none" stroke="black" stroke-width="3" cx="608" cy="-430.5" rx="27" ry="18"/>
<text xml:space="preserve" text-anchor="middle" x="608" y="-426.8" font-family="Times,serif" font-size="11.00">40</text>
</g>
<!-- n40&#45;&gt;n8 -->
<g id="edge45" class="edge">
<title>n40&#45;&gt;n8</title>
<path fill="none" stroke="#77aa77" d="M593.35,-413.98C582.31,-402.29 566.97,-386.05 554.4,-372.73"/>
<polygon fill="#77aa77" stroke="#77aa77" points="557.06,-370.44 547.65,-365.57 551.97,-375.25 557.06,-370.44"/>
<text xml:space="preserve" text-anchor="middle" x="581.68" y="-385.95" font-family="Times,serif" font-size="9.00" fill="#77aa77"> ÷5 </text>
</g>
<!-- n40&#45;&gt;n20 -->
<g id="edge44" class="edge">
<title>n40&#45;&gt;n20</title>
<path fill="none" stroke="#6688bb" d="M607.55,-411.23C607.31,-401.63 607.01,-389.61 606.74,-378.7"/>
<polygon fill="#6688bb" stroke="#6688bb" points="610.24,-378.9 606.5,-368.99 603.25,-379.07 610.24,-378.9"/>
<text xml:space="preserve" text-anchor="middle" x="614.24" y="-385.95" font-family="Times,serif" font-size="9.00" fill="#6688bb"> ÷2 </text>
</g>
<!-- n41 -->
<g id="node41" class="node">
<title>n41</title>
<ellipse fill="#eeccee" stroke="black" stroke-width="3" cx="536" cy="-678" rx="27" ry="18"/>
<text xml:space="preserve" text-anchor="middle" x="536" y="-674.3" font-family="Times,serif" font-size="11.00">41</text>
</g>
<!-- n42 -->
<g id="node42" class="node">
<title>n42</title>
<path fill="#ccddff" stroke="black" stroke-width="0.5" d="M536,-595.5C536,-595.5 563,-595.5 563,-595.5 563,-596.09 562.96,-596.68 562.87,-597.26 562.78,-597.85 562.65,-598.43 562.48,-599.01 562.31,-599.59 562.09,-600.16 561.84,-600.73 561.58,-601.29 561.28,-601.84 560.94,-602.39 560.61,-602.93 560.23,-603.47 559.81,-603.99 559.4,-604.5 558.94,-605.01 558.45,-605.5 557.96,-605.99 557.43,-606.46 556.87,-606.92 556.31,-607.37 555.72,-607.81 555.09,-608.23 554.47,-608.64 553.81,-609.04 553.13,-609.41 552.45,-609.79 551.74,-610.14 551,-610.47 550.27,-610.79 549.51,-611.1 548.73,-611.37 547.95,-611.65 547.15,-611.9 546.33,-612.13 545.52,-612.36 544.68,-612.55 543.84,-612.72 542.99,-612.9 542.13,-613.04 541.27,-613.15 540.4,-613.27 539.53,-613.36 538.65,-613.41 537.77,-613.47 536.88,-613.5 536,-613.5 535.12,-613.5 534.23,-613.47 533.35,-613.41 532.47,-613.36 531.6,-613.27 530.73,-613.15 529.87,-613.04 529.01,-612.9 528.16,-612.72 527.32,-612.55 526.48,-612.36 525.67,-612.13 524.85,-611.9 524.05,-611.65 523.27,-611.37 522.49,-611.1 521.73,-610.79 521,-610.47 520.26,-610.14 519.55,-609.79 518.87,-609.41 518.19,-609.04 517.53,-608.64 516.91,-608.23 516.28,-607.81 515.69,-607.37 515.13,-606.92 514.57,-606.46 514.04,-605.99 513.55,-605.5 513.06,-605.01 512.6,-604.5 512.19,-603.99 511.77,-603.47 511.39,-602.93 511.06,-602.39 510.72,-601.84 510.42,-601.29 510.16,-600.73 509.91,-600.16 509.69,-599.59 509.52,-599.01 509.35,-598.43 509.22,-597.85 509.13,-597.26 509.04,-596.68 509,-596.09 509,-595.5 509,-595.5 536,-595.5 536,-595.5"/>
<path fill="#ffddcc" stroke="black" stroke-width="0.5" d="M536,-595.5C536,-595.5 509,-595.5 509,-595.5 509,-594.91 509.04,-594.32 509.13,-593.74 509.22,-593.15 509.35,-592.57 509.52,-591.99 509.69,-591.41 509.91,-590.84 510.16,-590.27 510.42,-589.71 510.72,-589.16 511.06,-588.61 511.39,-588.07 511.77,-587.53 512.19,-587.01 512.6,-586.5 513.06,-585.99 513.55,-585.5 514.04,-585.01 514.57,-584.54 515.13,-584.08 515.69,-583.63 516.28,-583.19 516.91,-582.77 517.53,-582.36 518.19,-581.96 518.87,-581.59 519.55,-581.21 520.26,-580.86 521,-580.53 521.73,-580.21 522.49,-579.9 523.27,-579.63 524.05,-579.35 524.85,-579.1 525.67,-578.87 526.48,-578.64 527.32,-578.45 528.16,-578.28 529.01,-578.1 529.87,-577.96 530.73,-577.85 531.6,-577.73 532.47,-577.64 533.35,-577.59 534.23,-577.53 535.12,-577.5 536,-577.5 536.88,-577.5 537.77,-577.53 538.65,-577.59 539.53,-577.64 540.4,-577.73 541.27,-577.85 542.13,-577.96 542.99,-578.1 543.84,-578.28 544.68,-578.45 545.52,-578.64 546.33,-578.87 547.15,-579.1 547.95,-579.35 548.73,-579.63 549.51,-579.9 550.27,-580.21 551,-580.53 551.74,-580.86 552.45,-581.21 553.13,-581.59 553.81,-581.96 554.47,-582.36 555.09,-582.77 555.72,-583.19 556.31,-583.63 556.87,-584.08 557.43,-584.54 557.96,-585.01 558.45,-585.5 558.94,-585.99 559.4,-586.5 559.81,-587.01 560.23,-587.53 560.61,-588.07 560.94,-588.61 561.28,-589.16 561.58,-589.71 561.84,-590.27 562.09,-590.84 562.31,-591.41 562.48,-591.99 562.65,-592.57 562.78,-593.15 562.87,-593.74 562.96,-594.32 563,-594.91 563,-595.5 563,-595.5 536,-595.5 536,-595.5"/>
<ellipse fill="none" stroke="black" stroke-width="3" cx="536" cy="-595.5" rx="27" ry="18"/>
<text xml:space="preserve" text-anchor="middle" x="536" y="-591.8" font-family="Times,serif" font-size="11.00">42</text>
</g>
<!-- n41&#45;&gt;n42 -->
<g id="edge46" class="edge">
<title>n41&#45;&gt;n42</title>
<path fill="none" stroke="#aa77aa" d="M536,-658.73C536,-649.13 536,-637.11 536,-626.2"/>
<polygon fill="#aa77aa" stroke="#aa77aa" points="539.5,-626.49 536,-616.49 532.5,-626.49 539.5,-626.49"/>
<text xml:space="preserve" text-anchor="middle" x="543.12" y="-633.45" font-family="Times,serif" font-size="9.00" fill="#aa77aa"> +1 </text>
</g>
<!-- n42&#45;&gt;n14 -->
<g id="edge47" class="edge">
<title>n42&#45;&gt;n14</title>
<path fill="none" stroke="#ddbb99" d="M518.63,-580.33C512.47,-574.47 506.01,-567.25 501.75,-559.5 499.01,-554.52 496.96,-548.86 495.43,-543.26"/>
<polygon fill="#ddbb99" stroke="#ddbb99" points="498.87,-542.59 493.3,-533.57 492.03,-544.09 498.87,-542.59"/>
<text xml:space="preserve" text-anchor="middle" x="508.88" y="-550.95" font-family="Times,serif" font-size="9.00" fill="#ddbb99"> ÷3 </text>
</g>
<!-- n42&#45;&gt;n21 -->
<g id="edge48" class="edge">
<title>n42&#45;&gt;n21</title>
<path fill="none" stroke="#6688bb" d="M545.3,-577.4C548.07,-571.81 550.92,-565.5 553,-559.5 554.83,-554.24 556.4,-548.51 557.71,-542.96"/>
<polygon fill="#6688bb" stroke="#6688bb" points="561.07,-543.98 559.74,-533.47 554.23,-542.51 561.07,-543.98"/>
<text xml:space="preserve" text-anchor="middle" x="563.11" y="-550.95" font-family="Times,serif" font-size="9.00" fill="#6688bb"> ÷2 </text>
</g>
<!-- n43 -->
<g id="node43" class="node">
<title>n43</title>
<ellipse fill="#eeccee" stroke="black" stroke-width="3" cx="104" cy="-678" rx="27" ry="18"/>
<text xml:space="preserve" text-anchor="middle" x="104" y="-674.3" font-family="Times,serif" font-size="11.00">43</text>
</g>
<!-- n44 -->
<g id="node44" class="node">
<title>n44</title>
<ellipse fill="#ccddff" stroke="black" stroke-width="3" cx="104" cy="-595.5" rx="27" ry="18"/>
<text xml:space="preserve" text-anchor="middle" x="104" y="-591.8" font-family="Times,serif" font-size="11.00">44</text>
</g>
<!-- n43&#45;&gt;n44 -->
<g id="edge49" class="edge">
<title>n43&#45;&gt;n44</title>
<path fill="none" stroke="#aa77aa" d="M104,-658.73C104,-649.13 104,-637.11 104,-626.2"/>
<polygon fill="#aa77aa" stroke="#aa77aa" points="107.5,-626.49 104,-616.49 100.5,-626.49 107.5,-626.49"/>
<text xml:space="preserve" text-anchor="middle" x="111.12" y="-633.45" font-family="Times,serif" font-size="9.00" fill="#aa77aa"> +1 </text>
</g>
<!-- n44&#45;&gt;n22 -->
<g id="edge50" class="edge">
<title>n44&#45;&gt;n22</title>
<path fill="none" stroke="#6688bb" d="M104,-576.23C104,-566.63 104,-554.61 104,-543.7"/>
<polygon fill="#6688bb" stroke="#6688bb" points="107.5,-543.99 104,-533.99 100.5,-543.99 107.5,-543.99"/>
<text xml:space="preserve" text-anchor="middle" x="111.12" y="-550.95" font-family="Times,serif" font-size="9.00" fill="#6688bb"> ÷2 </text>
</g>
<!-- n45 -->
<g id="node45" class="node">
<title>n45</title>
<path fill="#ffddcc" stroke="black" stroke-width="0.5" d="M171,-348C171,-348 198,-348 198,-348 198,-348.59 197.96,-349.18 197.87,-349.76 197.78,-350.35 197.65,-350.93 197.48,-351.51 197.31,-352.09 197.09,-352.66 196.84,-353.23 196.58,-353.79 196.28,-354.34 195.94,-354.89 195.61,-355.43 195.23,-355.97 194.81,-356.49 194.4,-357 193.94,-357.51 193.45,-358 192.96,-358.49 192.43,-358.96 191.87,-359.42 191.31,-359.87 190.72,-360.31 190.09,-360.73 189.47,-361.14 188.81,-361.54 188.13,-361.91 187.45,-362.29 186.74,-362.64 186,-362.97 185.27,-363.29 184.51,-363.6 183.73,-363.87 182.95,-364.15 182.15,-364.4 181.33,-364.63 180.52,-364.86 179.68,-365.05 178.84,-365.22 177.99,-365.4 177.13,-365.54 176.27,-365.65 175.4,-365.77 174.53,-365.86 173.65,-365.91 172.77,-365.97 171.88,-366 171,-366 170.12,-366 169.23,-365.97 168.35,-365.91 167.47,-365.86 166.6,-365.77 165.73,-365.65 164.87,-365.54 164.01,-365.4 163.16,-365.22 162.32,-365.05 161.48,-364.86 160.67,-364.63 159.85,-364.4 159.05,-364.15 158.27,-363.87 157.49,-363.6 156.73,-363.29 156,-362.97 155.26,-362.64 154.55,-362.29 153.87,-361.91 153.19,-361.54 152.53,-361.14 151.91,-360.73 151.28,-360.31 150.69,-359.87 150.13,-359.42 149.57,-358.96 149.04,-358.49 148.55,-358 148.06,-357.51 147.6,-357 147.19,-356.49 146.77,-355.97 146.39,-355.43 146.06,-354.89 145.72,-354.34 145.42,-353.79 145.16,-353.23 144.91,-352.66 144.69,-352.09 144.52,-351.51 144.35,-350.93 144.22,-350.35 144.13,-349.76 144.04,-349.18 144,-348.59 144,-348 144,-348 171,-348 171,-348"/>
<path fill="#cceecc" stroke="black" stroke-width="0.5" d="M171,-348C171,-348 144,-348 144,-348 144,-347.41 144.04,-346.82 144.13,-346.24 144.22,-345.65 144.35,-345.07 144.52,-344.49 144.69,-343.91 144.91,-343.34 145.16,-342.77 145.42,-342.21 145.72,-341.66 146.06,-341.11 146.39,-340.57 146.77,-340.03 147.19,-339.51 147.6,-339 148.06,-338.49 148.55,-338 149.04,-337.51 149.57,-337.04 150.13,-336.58 150.69,-336.13 151.28,-335.69 151.91,-335.27 152.53,-334.86 153.19,-334.46 153.87,-334.09 154.55,-333.71 155.26,-333.36 156,-333.03 156.73,-332.71 157.49,-332.4 158.27,-332.13 159.05,-331.85 159.85,-331.6 160.67,-331.37 161.48,-331.14 162.32,-330.95 163.16,-330.78 164.01,-330.6 164.87,-330.46 165.73,-330.35 166.6,-330.23 167.47,-330.14 168.35,-330.09 169.23,-330.03 170.12,-330 171,-330 171.88,-330 172.77,-330.03 173.65,-330.09 174.53,-330.14 175.4,-330.23 176.27,-330.35 177.13,-330.46 177.99,-330.6 178.84,-330.78 179.68,-330.95 180.52,-331.14 181.33,-331.37 182.15,-331.6 182.95,-331.85 183.73,-332.13 184.51,-332.4 185.27,-332.71 186,-333.03 186.74,-333.36 187.45,-333.71 188.13,-334.09 188.81,-334.46 189.47,-334.86 190.09,-335.27 190.72,-335.69 191.31,-336.13 191.87,-336.58 192.43,-337.04 192.96,-337.51 193.45,-338 193.94,-338.49 194.4,-339 194.81,-339.51 195.23,-340.03 195.61,-340.57 195.94,-341.11 196.28,-341.66 196.58,-342.21 196.84,-342.77 197.09,-343.34 197.31,-343.91 197.48,-344.49 197.65,-345.07 197.78,-345.65 197.87,-346.24 197.96,-346.82 198,-347.41 198,-348 198,-348 171,-348 171,-348"/>
<ellipse fill="none" stroke="black" stroke-width="3" cx="171" cy="-348" rx="27" ry="18"/>
<text xml:space="preserve" text-anchor="middle" x="171" y="-344.3" font-family="Times,serif" font-size="11.00">45</text>
</g>
<!-- n45&#45;&gt;n9 -->
<g id="edge52" class="edge">
<title>n45&#45;&gt;n9</title>
<path fill="none" stroke="#77aa77" d="M153.83,-332.47C147.57,-326.57 140.81,-319.41 135.75,-312 132.11,-306.67 128.9,-300.55 126.19,-294.57"/>
<polygon fill="#77aa77" stroke="#77aa77" points="129.52,-293.44 122.45,-285.55 123.05,-296.13 129.52,-293.44"/>
<text xml:space="preserve" text-anchor="middle" x="142.88" y="-303.45" font-family="Times,serif" font-size="9.00" fill="#77aa77"> ÷5 </text>
</g>
<!-- n45&#45;&gt;n15 -->
<g id="edge51" class="edge">
<title>n45&#45;&gt;n15</title>
<path fill="none" stroke="#ddbb99" d="M193.29,-335.97C197.78,-333.89 202.51,-331.8 207,-330 230.48,-320.58 238.88,-324.27 261,-312 272.05,-305.87 283.03,-297.4 292.24,-289.43"/>
<polygon fill="#ddbb99" stroke="#ddbb99" points="294.57,-292.03 299.66,-282.74 289.89,-286.83 294.57,-292.03"/>
<text xml:space="preserve" text-anchor="middle" x="282.9" y="-303.45" font-family="Times,serif" font-size="9.00" fill="#ddbb99"> ÷3 </text>
</g>
<!-- n46 -->
<g id="node46" class="node">
<title>n46</title>
<ellipse fill="#ccddff" stroke="black" stroke-width="3" cx="248" cy="-595.5" rx="27" ry="18"/>
<text xml:space="preserve" text-anchor="middle" x="248" y="-591.8" font-family="Times,serif" font-size="11.00">46</text>
</g>
<!-- n46&#45;&gt;n23 -->
<g id="edge53" class="edge">
<title>n46&#45;&gt;n23</title>
<path fill="none" stroke="#6688bb" d="M248,-576.23C248,-566.63 248,-554.61 248,-543.7"/>
<polygon fill="#6688bb" stroke="#6688bb" points="251.5,-543.99 248,-533.99 244.5,-543.99 251.5,-543.99"/>
<text xml:space="preserve" text-anchor="middle" x="255.12" y="-550.95" font-family="Times,serif" font-size="9.00" fill="#6688bb"> ÷2 </text>
</g>
<!-- n47 -->
<g id="node47" class="node">
<title>n47</title>
<ellipse fill="#eeccee" stroke="black" stroke-width="3" cx="320" cy="-595.5" rx="27" ry="18"/>
<text xml:space="preserve" text-anchor="middle" x="320" y="-591.8" font-family="Times,serif" font-size="11.00">47</text>
</g>
<!-- n48 -->
<g id="node48" class="node">
<title>n48</title>
<path fill="#ccddff" stroke="black" stroke-width="0.5" d="M320,-513C320,-513 347,-513 347,-513 347,-513.59 346.96,-514.18 346.87,-514.76 346.78,-515.35 346.65,-515.93 346.48,-516.51 346.31,-517.09 346.09,-517.66 345.84,-518.23 345.58,-518.79 345.28,-519.34 344.94,-519.89 344.61,-520.43 344.23,-520.97 343.81,-521.49 343.4,-522 342.94,-522.51 342.45,-523 341.96,-523.49 341.43,-523.96 340.87,-524.42 340.31,-524.87 339.72,-525.31 339.09,-525.73 338.47,-526.14 337.81,-526.54 337.13,-526.91 336.45,-527.29 335.74,-527.64 335,-527.97 334.27,-528.29 333.51,-528.6 332.73,-528.87 331.95,-529.15 331.15,-529.4 330.33,-529.63 329.52,-529.86 328.68,-530.05 327.84,-530.22 326.99,-530.4 326.13,-530.54 325.27,-530.65 324.4,-530.77 323.53,-530.86 322.65,-530.91 321.77,-530.97 320.88,-531 320,-531 319.12,-531 318.23,-530.97 317.35,-530.91 316.47,-530.86 315.6,-530.77 314.73,-530.65 313.87,-530.54 313.01,-530.4 312.16,-530.22 311.32,-530.05 310.48,-529.86 309.67,-529.63 308.85,-529.4 308.05,-529.15 307.27,-528.87 306.49,-528.6 305.73,-528.29 305,-527.97 304.26,-527.64 303.55,-527.29 302.87,-526.91 302.19,-526.54 301.53,-526.14 300.91,-525.73 300.28,-525.31 299.69,-524.87 299.13,-524.42 298.57,-523.96 298.04,-523.49 297.55,-523 297.06,-522.51 296.6,-522 296.19,-521.49 295.77,-520.97 295.39,-520.43 295.06,-519.89 294.72,-519.34 294.42,-518.79 294.16,-518.23 293.91,-517.66 293.69,-517.09 293.52,-516.51 293.35,-515.93 293.22,-515.35 293.13,-514.76 293.04,-514.18 293,-513.59 293,-513 293,-513 320,-513 320,-513"/>
<path fill="#ffddcc" stroke="black" stroke-width="0.5" d="M320,-513C320,-513 293,-513 293,-513 293,-512.41 293.04,-511.82 293.13,-511.24 293.22,-510.65 293.35,-510.07 293.52,-509.49 293.69,-508.91 293.91,-508.34 294.16,-507.77 294.42,-507.21 294.72,-506.66 295.06,-506.11 295.39,-505.57 295.77,-505.03 296.19,-504.51 296.6,-504 297.06,-503.49 297.55,-503 298.04,-502.51 298.57,-502.04 299.13,-501.58 299.69,-501.13 300.28,-500.69 300.91,-500.27 301.53,-499.86 302.19,-499.46 302.87,-499.09 303.55,-498.71 304.26,-498.36 305,-498.03 305.73,-497.71 306.49,-497.4 307.27,-497.13 308.05,-496.85 308.85,-496.6 309.67,-496.37 310.48,-496.14 311.32,-495.95 312.16,-495.78 313.01,-495.6 313.87,-495.46 314.73,-495.35 315.6,-495.23 316.47,-495.14 317.35,-495.09 318.23,-495.03 319.12,-495 320,-495 320.88,-495 321.77,-495.03 322.65,-495.09 323.53,-495.14 324.4,-495.23 325.27,-495.35 326.13,-495.46 326.99,-495.6 327.84,-495.78 328.68,-495.95 329.52,-496.14 330.33,-496.37 331.15,-496.6 331.95,-496.85 332.73,-497.13 333.51,-497.4 334.27,-497.71 335,-498.03 335.74,-498.36 336.45,-498.71 337.13,-499.09 337.81,-499.46 338.47,-499.86 339.09,-500.27 339.72,-500.69 340.31,-501.13 340.87,-501.58 341.43,-502.04 341.96,-502.51 342.45,-503 342.94,-503.49 343.4,-504 343.81,-504.51 344.23,-505.03 344.61,-505.57 344.94,-506.11 345.28,-506.66 345.58,-507.21 345.84,-507.77 346.09,-508.34 346.31,-508.91 346.48,-509.49 346.65,-510.07 346.78,-510.65 346.87,-511.24 346.96,-511.82 347,-512.41 347,-513 347,-513 320,-513 320,-513"/>
<ellipse fill="none" stroke="black" stroke-width="3" cx="320" cy="-513" rx="27" ry="18"/>
<text xml:space="preserve" text-anchor="middle" x="320" y="-509.3" font-family="Times,serif" font-size="11.00">48</text>
</g>
<!-- n47&#45;&gt;n48 -->
<g id="edge54" class="edge">
<title>n47&#45;&gt;n48</title>
<path fill="none" stroke="#aa77aa" d="M320,-576.23C320,-566.63 320,-554.61 320,-543.7"/>
<polygon fill="#aa77aa" stroke="#aa77aa" points="323.5,-543.99 320,-533.99 316.5,-543.99 323.5,-543.99"/>
<text xml:space="preserve" text-anchor="middle" x="327.12" y="-550.95" font-family="Times,serif" font-size="9.00" fill="#aa77aa"> +1 </text>
</g>
<!-- n48&#45;&gt;n16 -->
<g id="edge55" class="edge">
<title>n48&#45;&gt;n16</title>
<path fill="none" stroke="#ddbb99" d="M341.25,-500.12C365.39,-486.63 405.02,-464.47 432.7,-449"/>
<polygon fill="#ddbb99" stroke="#ddbb99" points="434.32,-452.1 441.34,-444.17 430.91,-445.99 434.32,-452.1"/>
<text xml:space="preserve" text-anchor="middle" x="407.75" y="-468.45" font-family="Times,serif" font-size="9.00" fill="#ddbb99"> ÷3 </text>
</g>
<!-- n48&#45;&gt;n24 -->
<g id="edge56" class="edge">
<title>n48&#45;&gt;n24</title>
<path fill="none" stroke="#6688bb" d="M306.12,-496.48C295.73,-484.86 281.32,-468.75 269.45,-455.48"/>
<polygon fill="#6688bb" stroke="#6688bb" points="272.37,-453.5 263.09,-448.38 267.15,-458.16 272.37,-453.5"/>
<text xml:space="preserve" text-anchor="middle" x="295.44" y="-468.45" font-family="Times,serif" font-size="9.00" fill="#6688bb"> ÷2 </text>
</g>
<!-- n49 -->
<g id="node49" class="node">
<title>n49</title>
<ellipse fill="#eeccee" stroke="black" stroke-width="3" cx="392" cy="-430.5" rx="27" ry="18"/>
<text xml:space="preserve" text-anchor="middle" x="392" y="-426.8" font-family="Times,serif" font-size="11.00">49</text>
</g>
<!-- n50 -->
<g id="node50" class="node">
<title>n50</title>
<path fill="#ccddff" stroke="black" stroke-width="0.5" d="M431,-348C431,-348 458,-348 458,-348 458,-348.59 457.96,-349.18 457.87,-349.76 457.78,-350.35 457.65,-350.93 457.48,-351.51 457.31,-352.09 457.09,-352.66 456.84,-353.23 456.58,-353.79 456.28,-354.34 455.94,-354.89 455.61,-355.43 455.23,-355.97 454.81,-356.49 454.4,-357 453.94,-357.51 453.45,-358 452.96,-358.49 452.43,-358.96 451.87,-359.42 451.31,-359.87 450.72,-360.31 450.09,-360.73 449.47,-361.14 448.81,-361.54 448.13,-361.91 447.45,-362.29 446.74,-362.64 446,-362.97 445.27,-363.29 444.51,-363.6 443.73,-363.87 442.95,-364.15 442.15,-364.4 441.33,-364.63 440.52,-364.86 439.68,-365.05 438.84,-365.22 437.99,-365.4 437.13,-365.54 436.27,-365.65 435.4,-365.77 434.53,-365.86 433.65,-365.91 432.77,-365.97 431.88,-366 431,-366 430.12,-366 429.23,-365.97 428.35,-365.91 427.47,-365.86 426.6,-365.77 425.73,-365.65 424.87,-365.54 424.01,-365.4 423.16,-365.22 422.32,-365.05 421.48,-364.86 420.67,-364.63 419.85,-364.4 419.05,-364.15 418.27,-363.87 417.49,-363.6 416.73,-363.29 416,-362.97 415.26,-362.64 414.55,-362.29 413.87,-361.91 413.19,-361.54 412.53,-361.14 411.91,-360.73 411.28,-360.31 410.69,-359.87 410.13,-359.42 409.57,-358.96 409.04,-358.49 408.55,-358 408.06,-357.51 407.6,-357 407.19,-356.49 406.77,-355.97 406.39,-355.43 406.06,-354.89 405.72,-354.34 405.42,-353.79 405.16,-353.23 404.91,-352.66 404.69,-352.09 404.52,-351.51 404.35,-350.93 404.22,-350.35 404.13,-349.76 404.04,-349.18 404,-348.59 404,-348 404,-348 431,-348 431,-348"/>
<path fill="#cceecc" stroke="black" stroke-width="0.5" d="M431,-348C431,-348 404,-348 404,-348 404,-347.41 404.04,-346.82 404.13,-346.24 404.22,-345.65 404.35,-345.07 404.52,-344.49 404.69,-343.91 404.91,-343.34 405.16,-342.77 405.42,-342.21 405.72,-341.66 406.06,-341.11 406.39,-340.57 406.77,-340.03 407.19,-339.51 407.6,-339 408.06,-338.49 408.55,-338 409.04,-337.51 409.57,-337.04 410.13,-336.58 410.69,-336.13 411.28,-335.69 411.91,-335.27 412.53,-334.86 413.19,-334.46 413.87,-334.09 414.55,-333.71 415.26,-333.36 416,-333.03 416.73,-332.71 417.49,-332.4 418.27,-332.13 419.05,-331.85 419.85,-331.6 420.67,-331.37 421.48,-331.14 422.32,-330.95 423.16,-330.78 424.01,-330.6 424.87,-330.46 425.73,-330.35 426.6,-330.23 427.47,-330.14 428.35,-330.09 429.23,-330.03 430.12,-330 431,-330 431.88,-330 432.77,-330.03 433.65,-330.09 434.53,-330.14 435.4,-330.23 436.27,-330.35 437.13,-330.46 437.99,-330.6 438.84,-330.78 439.68,-330.95 440.52,-331.14 441.33,-331.37 442.15,-331.6 442.95,-331.85 443.73,-332.13 444.51,-332.4 445.27,-332.71 446,-333.03 446.74,-333.36 447.45,-333.71 448.13,-334.09 448.81,-334.46 449.47,-334.86 450.09,-335.27 450.72,-335.69 451.31,-336.13 451.87,-336.58 452.43,-337.04 452.96,-337.51 453.45,-338 453.94,-338.49 454.4,-339 454.81,-339.51 455.23,-340.03 455.61,-340.57 455.94,-341.11 456.28,-341.66 456.58,-342.21 456.84,-342.77 457.09,-343.34 457.31,-343.91 457.48,-344.49 457.65,-345.07 457.78,-345.65 457.87,-346.24 457.96,-346.82 458,-347.41 458,-348 458,-348 431,-348 431,-348"/>
<ellipse fill="none" stroke="black" cx="431" cy="-348" rx="27" ry="18"/>
<text xml:space="preserve" text-anchor="middle" x="431" y="-344.3" font-family="Times,serif" font-size="11.00">50</text>
</g>
<!-- n49&#45;&gt;n50 -->
<g id="edge57" class="edge">
<title>n49&#45;&gt;n50</title>
<path fill="none" stroke="#aa77aa" d="M400.46,-412.03C405.57,-401.48 412.19,-387.82 417.96,-375.91"/>
<polygon fill="#aa77aa" stroke="#aa77aa" points="421.08,-377.5 422.29,-366.97 414.78,-374.44 421.08,-377.5"/>
<text xml:space="preserve" text-anchor="middle" x="420.96" y="-385.95" font-family="Times,serif" font-size="9.00" fill="#aa77aa"> +1 </text>
</g>
<!-- n50&#45;&gt;n10 -->
<g id="edge59" class="edge">
<title>n50&#45;&gt;n10</title>
<path fill="none" stroke="#77aa77" d="M438.54,-330.41C441.05,-324.64 443.77,-318.08 446,-312 447.96,-306.66 449.88,-300.89 451.64,-295.33"/>
<polygon fill="#77aa77" stroke="#77aa77" points="454.97,-296.4 454.54,-285.81 448.27,-294.36 454.97,-296.4"/>
<text xml:space="preserve" text-anchor="middle" x="456.55" y="-303.45" font-family="Times,serif" font-size="9.00" fill="#77aa77"> ÷5 </text>
</g>
<!-- n50&#45;&gt;n25 -->
<g id="edge60" class="edge">
<title>n50&#45;&gt;n25</title>
<path fill="none" stroke="#6688bb" d="M423.41,-330.39C419.32,-321.69 414.09,-310.92 409,-301.5 407.53,-298.79 405.96,-295.99 404.36,-293.21"/>
<polygon fill="#6688bb" stroke="#6688bb" points="407.44,-291.54 399.34,-284.71 401.41,-295.1 407.44,-291.54"/>
<text xml:space="preserve" text-anchor="middle" x="421.25" y="-303.45" font-family="Times,serif" font-size="9.00" fill="#6688bb"> ÷2 </text>
</g>
</g>
</svg>
