<?xml version="1.0" encoding="UTF-8" standalone="no"?>
<!DOCTYPE svg PUBLIC "-//W3C//DTD SVG 1.1//EN"
 "http://www.w3.org/Graphics/SVG/1.1/DTD/svg11.dtd">
<!-- Generated by graphviz version 14.1.3 (20260303.0454)
 -->
<!-- Pages: 1 -->
<svg width="696pt" height="1161pt"
 viewBox="0.00 0.00 696.00 1161.00" xmlns="http://www.w3.org/2000/svg" xmlns:xlink="http://www.w3.org/1999/xlink">
<g id="graph0" class="graph" transform="scale(1 1) rotate(0) translate(4 1157.41)">
<polygon fill="white" stroke="none" points="-4,4 -4,-1157.41 691.54,-1157.41 691.54,4 -4,4"/>
<!-- n1 -->
<g id="node1" class="node">
<title>n1</title>
<ellipse fill="#0045cf" stroke="black" stroke-width="3" cx="271.28" cy="-1128.66" rx="27" ry="24.75"/>
<text xml:space="preserve" text-anchor="start" x="268.66" y="-1132.71" font-family="Times,serif" font-size="11.00" fill="white">1</text>
<text xml:space="preserve" text-anchor="start" x="269.41" y="-1124.56" font-family="Times,serif" font-size="8.00" fill="white">1</text>
<text xml:space="preserve" text-anchor="start" x="269.41" y="-1116.56" font-family="Times,serif" font-size="8.00" fill="white">1</text>
</g>
<!-- n2 -->
<g id="node2" class="node">
<title>n2</title>
<ellipse fill="#ccddff" stroke="black" cx="271.28" cy="-1032.66" rx="27" ry="24.75"/>
<text xml:space="preserve" text-anchor="start" x="268.66" y="-1036.71" font-family="Times,serif" font-size="11.00">2</text>
<text xml:space="preserve" text-anchor="start" x="267.53" y="-1028.56" font-family="Times,serif" font-size="8.00">10</text>
<text xml:space="preserve" text-anchor="start" x="269.41" y="-1020.56" font-family="Times,serif" font-size="8.00">2</text>
</g>
<!-- n1&#45;&gt;n2 -->
<g id="edge1" class="edge">
<title>n1&#45;&gt;n2</title>
<path fill="none" stroke="#6688bb" d="M271.28,-1102.47C271.28,-1092.14 271.28,-1080 271.28,-1068.82"/>
<polygon fill="#6688bb" stroke="#6688bb" points="274.78,-1069.14 271.28,-1059.14 267.78,-1069.14 274.78,-1069.14"/>
<text xml:space="preserve" text-anchor="middle" x="278.41" y="-1077.36" font-family="Times,serif" font-size="9.00" fill="#6688bb"> ×2 </text>
</g>
<!-- n4 -->
<g id="node4" class="node">
<title>n4</title>
<ellipse fill="#ccddff" stroke="black" cx="271.28" cy="-936.67" rx="27" ry="24.75"/>
<text xml:space="preserve" text-anchor="start" x="268.66" y="-940.72" font-family="Times,serif" font-size="11.00">4</text>
<text xml:space="preserve" text-anchor="start" x="265.66" y="-932.57" font-family="Times,serif" font-size="8.00">100</text>
<text xml:space="preserve" text-anchor="start" x="268.28" y="-924.57" font-family="Times,serif" font-size="8.00">2²</text>
</g>
<!-- n2&#45;&gt;n4 -->
<g id="edge15" class="edge">
<title>n2&#45;&gt;n4</title>
<path fill="none" stroke="#6688bb" d="M271.28,-1007.46C271.28,-997.04 271.28,-984.65 271.28,-973.23"/>
<polygon fill="#6688bb" stroke="#6688bb" points="274.78,-973.3 271.28,-963.3 267.78,-973.3 274.78,-973.3"/>
<text xml:space="preserve" text-anchor="middle" x="278.41" y="-981.36" font-family="Times,serif" font-size="9.00" fill="#6688bb"> ×2 </text>
</g>
<!-- n3 -->
<g id="node3" class="node">
<title>n3</title>
<ellipse fill="#0045cf" stroke="black" cx="88.28" cy="-456.68" rx="27" ry="24.75"/>
<text xml:space="preserve" text-anchor="start" x="85.66" y="-460.73" font-family="Times,serif" font-size="11.00" fill="white">3</text>
<text xml:space="preserve" text-anchor="start" x="84.53" y="-452.58" font-family="Times,serif" font-size="8.00" fill="white">11</text>
<text xml:space="preserve" text-anchor="start" x="86.41" y="-444.58" font-family="Times,serif" font-size="8.00" fill="white">3</text>
</g>
<!-- n6 -->
<g id="node6" class="node">
<title>n6</title>
<ellipse fill="#ccddff" stroke="black" cx="57.28" cy="-360.68" rx="27" ry="24.75"/>
<text xml:space="preserve" text-anchor="start" x="54.66" y="-364.73" font-family="Times,serif" font-size="11.00">6</text>
<text xml:space="preserve" text-anchor="start" x="51.66" y="-356.58" font-family="Times,serif" font-size="8.00">110</text>
<text xml:space="preserve" text-anchor="start" x="52.03" y="-348.58" font-family="Times,serif" font-size="8.00">2·3</text>
</g>
<!-- n3&#45;&gt;n6 -->
<g id="edge22" class="edge">
<title>n3&#45;&gt;n6</title>
<path fill="none" stroke="#6688bb" d="M80.62,-432.44C76.94,-421.29 72.46,-407.71 68.42,-395.44"/>
<polygon fill="#6688bb" stroke="#6688bb" points="71.79,-394.49 65.33,-386.09 65.14,-396.68 71.79,-394.49"/>
<text xml:space="preserve" text-anchor="middle" x="80.84" y="-405.38" font-family="Times,serif" font-size="9.00" fill="#6688bb"> ×2 </text>
</g>
<!-- n8 -->
<g id="node7" class="node">
<title>n8</title>
<ellipse fill="#ccddff" stroke="black" cx="271.28" cy="-840.67" rx="27" ry="24.75"/>
<text xml:space="preserve" text-anchor="start" x="268.66" y="-844.72" font-family="Times,serif" font-size="11.00">8</text>
<text xml:space="preserve" text-anchor="start" x="263.78" y="-836.57" font-family="Times,serif" font-size="8.00">1000</text>
<text xml:space="preserve" text-anchor="start" x="268.28" y="-828.57" font-family="Times,serif" font-size="8.00">2³</text>
</g>
<!-- n4&#45;&gt;n8 -->
<g id="edge24" class="edge">
<title>n4&#45;&gt;n8</title>
<path fill="none" stroke="#6688bb" d="M271.28,-911.46C271.28,-901.04 271.28,-888.66 271.28,-877.23"/>
<polygon fill="#6688bb" stroke="#6688bb" points="274.78,-877.31 271.28,-867.31 267.78,-877.31 274.78,-877.31"/>
<text xml:space="preserve" text-anchor="middle" x="278.41" y="-885.37" font-family="Times,serif" font-size="9.00" fill="#6688bb"> ×2 </text>
</g>
<!-- n5 -->
<g id="node5" class="node">
<title>n5</title>
<ellipse fill="#0045cf" stroke="black" cx="235.28" cy="-648.67" rx="27" ry="24.75"/>
<text xml:space="preserve" text-anchor="start" x="232.66" y="-652.72" font-family="Times,serif" font-size="11.00" fill="white">5</text>
<text xml:space="preserve" text-anchor="start" x="229.66" y="-644.57" font-family="Times,serif" font-size="8.00" fill="white">101</text>
<text xml:space="preserve" text-anchor="start" x="233.41" y="-636.57" font-family="Times,serif" font-size="8.00" fill="white">5</text>
</g>
<!-- n10 -->
<g id="node8" class="node">
<title>n10</title>
<path fill="#ccddff" stroke="black" stroke-width="0.5" d="M160.28,-552.68C160.28,-552.68 187.28,-552.68 187.28,-552.68 187.28,-553.49 187.24,-554.3 187.15,-555.1 187.07,-555.91 186.94,-556.71 186.77,-557.5 186.59,-558.3 186.38,-559.09 186.12,-559.86 185.87,-560.64 185.57,-561.4 185.23,-562.15 184.89,-562.9 184.51,-563.63 184.1,-564.34 183.68,-565.06 183.22,-565.75 182.73,-566.43 182.24,-567.1 181.72,-567.75 181.16,-568.38 180.59,-569 180,-569.6 179.38,-570.18 178.75,-570.75 178.1,-571.29 177.41,-571.81 176.73,-572.32 176.02,-572.8 175.28,-573.25 174.55,-573.7 173.79,-574.12 173.01,-574.5 172.23,-574.88 171.43,-575.23 170.62,-575.54 169.8,-575.85 168.97,-576.12 168.12,-576.36 167.28,-576.59 166.42,-576.79 165.55,-576.95 164.68,-577.11 163.81,-577.23 162.93,-577.31 162.05,-577.39 161.17,-577.42 160.28,-577.42 159.4,-577.42 158.52,-577.39 157.64,-577.31 156.76,-577.23 155.88,-577.11 155.02,-576.95 154.15,-576.79 153.29,-576.59 152.45,-576.36 151.6,-576.12 150.77,-575.85 149.95,-575.54 149.14,-575.23 148.34,-574.88 147.56,-574.5 146.78,-574.12 146.02,-573.7 145.28,-573.25 144.55,-572.8 143.84,-572.32 143.16,-571.81 142.47,-571.29 141.82,-570.75 141.19,-570.18 140.57,-569.6 139.97,-569 139.41,-568.38 138.85,-567.75 138.33,-567.1 137.83,-566.43 137.34,-565.75 136.89,-565.06 136.47,-564.34 136.06,-563.63 135.68,-562.9 135.34,-562.15 135,-561.4 134.7,-560.64 134.45,-559.86 134.19,-559.09 133.98,-558.3 133.8,-557.5 133.63,-556.71 133.5,-555.91 133.41,-555.1 133.33,-554.3 133.28,-553.49 133.28,-552.68 133.28,-552.68 160.28,-552.68 160.28,-552.68"/>
<path fill="#ffddcc" stroke="black" stroke-width="0.5" d="M160.28,-552.68C160.28,-552.68 133.28,-552.68 133.28,-552.68 133.28,-551.87 133.33,-551.06 133.41,-550.25 133.5,-549.44 133.63,-548.64 133.8,-547.85 133.98,-547.05 134.19,-546.27 134.45,-545.49 134.7,-544.72 135,-543.95 135.34,-543.21 135.68,-542.46 136.06,-541.72 136.47,-541.01 136.89,-540.3 137.34,-539.6 137.83,-538.93 138.33,-538.25 138.85,-537.6 139.41,-536.98 139.97,-536.35 140.57,-535.75 141.19,-535.18 141.82,-534.6 142.47,-534.06 143.16,-533.55 143.84,-533.03 144.55,-532.55 145.28,-532.1 146.02,-531.65 146.78,-531.23 147.56,-530.85 148.34,-530.47 149.14,-530.12 149.95,-529.81 150.77,-529.5 151.6,-529.23 152.45,-528.99 153.29,-528.76 154.15,-528.56 155.02,-528.4 155.88,-528.24 156.76,-528.13 157.64,-528.05 158.52,-527.97 159.4,-527.93 160.28,-527.93 161.17,-527.93 162.05,-527.97 162.93,-528.05 163.81,-528.13 164.68,-528.24 165.55,-528.4 166.42,-528.56 167.28,-528.76 168.12,-528.99 168.97,-529.23 169.8,-529.5 170.62,-529.81 171.43,-530.12 172.23,-530.47 173.01,-530.85 173.79,-531.23 174.55,-531.65 175.28,-532.1 176.02,-532.55 176.73,-533.03 177.41,-533.55 178.1,-534.06 178.75,-534.6 179.38,-535.18 180,-535.75 180.59,-536.35 181.16,-536.98 181.72,-537.6 182.24,-538.25 182.73,-538.93 183.22,-539.6 183.68,-540.3 184.1,-541.01 184.51,-541.72 184.89,-542.46 185.23,-543.21 185.57,-543.95 185.87,-544.72 186.12,-545.49 186.38,-546.27 186.59,-547.05 186.77,-547.85 186.94,-548.64 187.07,-549.44 187.15,-550.25 187.24,-551.06 187.28,-551.87 187.28,-552.68 187.28,-552.68 160.28,-552.68 160.28,-552.68"/>
<ellipse fill="none" stroke="black" cx="160.28" cy="-552.68" rx="27" ry="24.75"/>
<text xml:space="preserve" text-anchor="start" x="155.03" y="-556.73" font-family="Times,serif" font-size="11.00">10</text>
<text xml:space="preserve" text-anchor="start" x="152.78" y="-548.58" font-family="Times,serif" font-size="8.00">1010</text>
<text xml:space="preserve" text-anchor="start" x="155.03" y="-540.58" font-family="Times,serif" font-size="8.00">2·5</text>
</g>
<!-- n5&#45;&gt;n10 -->
<g id="edge28" class="edge">
<title>n5&#45;&gt;n10</title>
<path fill="none" stroke="#6688bb" d="M219.74,-628.2C209.08,-614.84 194.77,-596.9 182.86,-581.97"/>
<polygon fill="#6688bb" stroke="#6688bb" points="185.72,-579.94 176.75,-574.31 180.25,-584.31 185.72,-579.94"/>
<text xml:space="preserve" text-anchor="middle" x="207.16" y="-597.37" font-family="Times,serif" font-size="9.00" fill="#6688bb"> ×2 </text>
</g>
<!-- n12 -->
<g id="node9" class="node">
<title>n12</title>
<ellipse fill="#ccddff" stroke="black" cx="30.28" cy="-264.68" rx="27" ry="24.75"/>
<text xml:space="preserve" text-anchor="start" x="25.03" y="-268.73" font-family="Times,serif" font-size="11.00">12</text>
<text xml:space="preserve" text-anchor="start" x="22.78" y="-260.58" font-family="Times,serif" font-size="8.00">1100</text>
<text xml:space="preserve" text-anchor="start" x="23.91" y="-252.58" font-family="Times,serif" font-size="8.00">2²·3</text>
</g>
<!-- n6&#45;&gt;n12 -->
<g id="edge30" class="edge">
<title>n6&#45;&gt;n12</title>
<path fill="none" stroke="#6688bb" d="M50.61,-336.45C47.43,-325.37 43.56,-311.91 40.06,-299.72"/>
<polygon fill="#6688bb" stroke="#6688bb" points="43.52,-299.08 37.39,-290.43 36.79,-301.01 43.52,-299.08"/>
<text xml:space="preserve" text-anchor="middle" x="51.72" y="-309.38" font-family="Times,serif" font-size="9.00" fill="#6688bb"> ×2 </text>
</g>
<!-- n16 -->
<g id="node11" class="node">
<title>n16</title>
<path fill="#ccddff" stroke="black" stroke-width="0.5" d="M271.28,-744.67C271.28,-744.67 298.28,-744.67 298.28,-744.67 298.28,-745.48 298.24,-746.29 298.15,-747.1 298.07,-747.9 297.94,-748.7 297.77,-749.5 297.59,-750.29 297.38,-751.08 297.12,-751.86 296.87,-752.63 296.57,-753.39 296.23,-754.14 295.89,-754.89 295.51,-755.62 295.1,-756.34 294.68,-757.05 294.22,-757.75 293.73,-758.42 293.24,-759.09 292.72,-759.75 292.16,-760.37 291.59,-761 291,-761.6 290.38,-762.17 289.75,-762.74 289.1,-763.29 288.41,-763.8 287.73,-764.32 287.02,-764.8 286.28,-765.25 285.55,-765.7 284.79,-766.12 284.01,-766.5 283.23,-766.88 282.43,-767.23 281.62,-767.54 280.8,-767.85 279.97,-768.12 279.12,-768.35 278.28,-768.59 277.42,-768.79 276.55,-768.94 275.68,-769.1 274.81,-769.22 273.93,-769.3 273.05,-769.38 272.17,-769.42 271.28,-769.42 270.4,-769.42 269.52,-769.38 268.64,-769.3 267.76,-769.22 266.88,-769.1 266.02,-768.94 265.15,-768.79 264.29,-768.59 263.45,-768.35 262.6,-768.12 261.77,-767.85 260.95,-767.54 260.14,-767.23 259.34,-766.88 258.56,-766.5 257.78,-766.12 257.02,-765.7 256.28,-765.25 255.55,-764.8 254.84,-764.32 254.16,-763.8 253.47,-763.29 252.82,-762.74 252.19,-762.17 251.57,-761.6 250.97,-761 250.41,-760.37 249.85,-759.75 249.33,-759.09 248.83,-758.42 248.34,-757.75 247.89,-757.05 247.47,-756.34 247.06,-755.62 246.68,-754.89 246.34,-754.14 246,-753.39 245.7,-752.63 245.45,-751.86 245.19,-751.08 244.98,-750.29 244.8,-749.5 244.63,-748.7 244.5,-747.9 244.41,-747.1 244.33,-746.29 244.28,-745.48 244.28,-744.67 244.28,-744.67 271.28,-744.67 271.28,-744.67"/>
<path fill="#ffddcc" stroke="black" stroke-width="0.5" d="M271.28,-744.67C271.28,-744.67 244.28,-744.67 244.28,-744.67 244.28,-743.86 244.33,-743.05 244.41,-742.25 244.5,-741.44 244.63,-740.64 244.8,-739.84 244.98,-739.05 245.19,-738.26 245.45,-737.49 245.7,-736.71 246,-735.95 246.34,-735.2 246.68,-734.45 247.06,-733.72 247.47,-733 247.89,-732.29 248.34,-731.59 248.83,-730.92 249.33,-730.25 249.85,-729.6 250.41,-728.97 250.97,-728.34 251.57,-727.74 252.19,-727.17 252.82,-726.6 253.47,-726.05 254.16,-725.54 254.84,-725.03 255.55,-724.54 256.28,-724.09 257.02,-723.64 257.78,-723.23 258.56,-722.84 259.34,-722.46 260.14,-722.12 260.95,-721.81 261.77,-721.5 262.6,-721.22 263.45,-720.99 264.29,-720.75 265.15,-720.56 266.02,-720.4 266.88,-720.24 267.76,-720.12 268.64,-720.04 269.52,-719.96 270.4,-719.92 271.28,-719.92 272.17,-719.92 273.05,-719.96 273.93,-720.04 274.81,-720.12 275.68,-720.24 276.55,-720.4 277.42,-720.56 278.28,-720.75 279.12,-720.99 279.97,-721.22 280.8,-721.5 281.62,-721.81 282.43,-722.12 283.23,-722.46 284.01,-722.84 284.79,-723.23 285.55,-723.64 286.28,-724.09 287.02,-724.54 287.73,-725.03 288.41,-725.54 289.1,-726.05 289.75,-726.6 290.38,-727.17 291,-727.74 291.59,-728.34 292.16,-728.97 292.72,-729.6 293.24,-730.25 293.73,-730.92 294.22,-731.59 294.68,-732.29 295.1,-733 295.51,-733.72 295.89,-734.45 296.23,-735.2 296.57,-735.95 296.87,-736.71 297.12,-737.49 297.38,-738.26 297.59,-739.05 297.77,-739.84 297.94,-740.64 298.07,-741.44 298.15,-742.25 298.24,-743.05 298.28,-743.86 298.28,-744.67 298.28,-744.67 271.28,-744.67 271.28,-744.67"/>
<ellipse fill="none" stroke="black" cx="271.28" cy="-744.67" rx="27" ry="24.75"/>
<text xml:space="preserve" text-anchor="start" x="266.03" y="-748.72" font-family="Times,serif" font-size="11.00">16</text>
<text xml:space="preserve" text-anchor="start" x="261.16" y="-740.57" font-family="Times,serif" font-size="8.00">1 0000</text>
<text xml:space="preserve" text-anchor="start" x="267.53" y="-732.57" font-family="Times,serif" font-size="8.00">2⁴</text>
</g>
<!-- n8&#45;&gt;n16 -->
<g id="edge33" class="edge">
<title>n8&#45;&gt;n16</title>
<path fill="none" stroke="#6688bb" d="M271.28,-815.46C271.28,-805.05 271.28,-792.66 271.28,-781.23"/>
<polygon fill="#6688bb" stroke="#6688bb" points="274.78,-781.31 271.28,-771.31 267.78,-781.31 274.78,-781.31"/>
<text xml:space="preserve" text-anchor="middle" x="278.41" y="-789.37" font-family="Times,serif" font-size="9.00" fill="#6688bb"> ×2 </text>
</g>
<!-- n10&#45;&gt;n3 -->
<g id="edge3" class="edge">
<title>n10&#45;&gt;n3</title>
<path fill="none" stroke="#ddbb99" d="M143.64,-532.87C137.55,-525.8 130.71,-517.61 124.78,-509.93 119.27,-502.78 113.57,-494.89 108.35,-487.44"/>
<polygon fill="#ddbb99" stroke="#ddbb99" points="111.49,-485.83 102.92,-479.59 105.73,-489.81 111.49,-485.83"/>
<text xml:space="preserve" text-anchor="middle" x="140.53" y="-501.38" font-family="Times,serif" font-size="9.00" fill="#ddbb99"> (m&#45;1)/3 </text>
</g>
<!-- n20 -->
<g id="node12" class="node">
<title>n20</title>
<ellipse fill="#ccddff" stroke="black" cx="160.28" cy="-456.68" rx="27" ry="24.75"/>
<text xml:space="preserve" text-anchor="start" x="155.03" y="-460.73" font-family="Times,serif" font-size="11.00">20</text>
<text xml:space="preserve" text-anchor="start" x="150.16" y="-452.58" font-family="Times,serif" font-size="8.00">1 0100</text>
<text xml:space="preserve" text-anchor="start" x="153.91" y="-444.58" font-family="Times,serif" font-size="8.00">2²·5</text>
</g>
<!-- n10&#45;&gt;n20 -->
<g id="edge2" class="edge">
<title>n10&#45;&gt;n20</title>
<path fill="none" stroke="#6688bb" d="M160.28,-527.47C160.28,-517.05 160.28,-504.67 160.28,-493.24"/>
<polygon fill="#6688bb" stroke="#6688bb" points="163.78,-493.32 160.28,-483.32 156.78,-493.32 163.78,-493.32"/>
<text xml:space="preserve" text-anchor="middle" x="167.41" y="-501.38" font-family="Times,serif" font-size="9.00" fill="#6688bb"> ×2 </text>
</g>
<!-- n24 -->
<g id="node14" class="node">
<title>n24</title>
<ellipse fill="#ccddff" stroke="black" cx="30.28" cy="-168.69" rx="27" ry="24.75"/>
<text xml:space="preserve" text-anchor="start" x="25.03" y="-172.74" font-family="Times,serif" font-size="11.00">24</text>
<text xml:space="preserve" text-anchor="start" x="20.16" y="-164.59" font-family="Times,serif" font-size="8.00">1 1000</text>
<text xml:space="preserve" text-anchor="start" x="23.91" y="-156.59" font-family="Times,serif" font-size="8.00">2³·3</text>
</g>
<!-- n12&#45;&gt;n24 -->
<g id="edge6" class="edge">
<title>n12&#45;&gt;n24</title>
<path fill="none" stroke="#6688bb" d="M30.28,-239.48C30.28,-229.06 30.28,-216.67 30.28,-205.25"/>
<polygon fill="#6688bb" stroke="#6688bb" points="33.78,-205.32 30.28,-195.32 26.78,-205.32 33.78,-205.32"/>
<text xml:space="preserve" text-anchor="middle" x="37.41" y="-213.38" font-family="Times,serif" font-size="9.00" fill="#6688bb"> ×2 </text>
</g>
<!-- n13 -->
<g id="node10" class="node">
<title>n13</title>
<ellipse fill="#0045cf" stroke="black" cx="104.28" cy="-264.68" rx="27" ry="24.75"/>
<text xml:space="preserve" text-anchor="start" x="99.03" y="-268.73" font-family="Times,serif" font-size="11.00" fill="white">13</text>
<text xml:space="preserve" text-anchor="start" x="96.78" y="-260.58" font-family="Times,serif" font-size="8.00" fill="white">1101</text>
<text xml:space="preserve" text-anchor="start" x="100.53" y="-252.58" font-family="Times,serif" font-size="8.00" fill="white">13</text>
</g>
<!-- n26 -->
<g id="node15" class="node">
<title>n26</title>
<ellipse fill="#ccddff" stroke="black" cx="103.28" cy="-168.69" rx="27" ry="24.75"/>
<text xml:space="preserve" text-anchor="start" x="98.03" y="-172.74" font-family="Times,serif" font-size="11.00">26</text>
<text xml:space="preserve" text-anchor="start" x="93.16" y="-164.59" font-family="Times,serif" font-size="8.00">1 1010</text>
<text xml:space="preserve" text-anchor="start" x="96.16" y="-156.59" font-family="Times,serif" font-size="8.00">2·13</text>
</g>
<!-- n13&#45;&gt;n26 -->
<g id="edge8" class="edge">
<title>n13&#45;&gt;n26</title>
<path fill="none" stroke="#6688bb" d="M104.03,-239.48C103.92,-229.06 103.78,-216.67 103.66,-205.25"/>
<polygon fill="#6688bb" stroke="#6688bb" points="107.16,-205.29 103.56,-195.32 100.16,-205.36 107.16,-205.29"/>
<text xml:space="preserve" text-anchor="middle" x="110.94" y="-213.38" font-family="Times,serif" font-size="9.00" fill="#6688bb"> ×2 </text>
</g>
<!-- n16&#45;&gt;n5 -->
<g id="edge10" class="edge">
<title>n16&#45;&gt;n5</title>
<path fill="none" stroke="#ddbb99" d="M259.26,-722.39C255.91,-715.94 252.46,-708.75 249.78,-701.92 247.53,-696.17 245.48,-689.93 243.68,-683.84"/>
<polygon fill="#ddbb99" stroke="#ddbb99" points="247.16,-683.31 241.11,-674.61 240.42,-685.19 247.16,-683.31"/>
<text xml:space="preserve" text-anchor="middle" x="265.53" y="-693.37" font-family="Times,serif" font-size="9.00" fill="#ddbb99"> (m&#45;1)/3 </text>
</g>
<!-- n32 -->
<g id="node16" class="node">
<title>n32</title>
<ellipse fill="#ccddff" stroke="black" cx="320.28" cy="-648.67" rx="28.28" ry="24.75"/>
<text xml:space="preserve" text-anchor="start" x="315.03" y="-652.72" font-family="Times,serif" font-size="11.00">32</text>
<text xml:space="preserve" text-anchor="start" x="308.28" y="-644.57" font-family="Times,serif" font-size="8.00">10 0000</text>
<text xml:space="preserve" text-anchor="start" x="316.53" y="-636.57" font-family="Times,serif" font-size="8.00">2⁵</text>
</g>
<!-- n16&#45;&gt;n32 -->
<g id="edge9" class="edge">
<title>n16&#45;&gt;n32</title>
<path fill="none" stroke="#6688bb" d="M282.65,-721.87C288.85,-709.97 296.65,-695.02 303.53,-681.81"/>
<polygon fill="#6688bb" stroke="#6688bb" points="306.59,-683.51 308.11,-673.02 300.39,-680.27 306.59,-683.51"/>
<text xml:space="preserve" text-anchor="middle" x="304.38" y="-693.37" font-family="Times,serif" font-size="9.00" fill="#6688bb"> ×2 </text>
</g>
<!-- n40 -->
<g id="node17" class="node">
<title>n40</title>
<path fill="#ccddff" stroke="black" stroke-width="0.5" d="M160.28,-360.68C160.28,-360.68 188.57,-360.68 188.57,-360.68 188.57,-361.49 188.52,-362.3 188.43,-363.11 188.34,-363.91 188.21,-364.71 188.03,-365.51 187.84,-366.3 187.62,-367.09 187.35,-367.87 187.08,-368.64 186.77,-369.4 186.42,-370.15 186.06,-370.9 185.67,-371.63 185.23,-372.35 184.79,-373.06 184.32,-373.76 183.8,-374.43 183.29,-375.1 182.74,-375.76 182.15,-376.38 181.56,-377.01 180.94,-377.61 180.28,-378.18 179.63,-378.75 178.94,-379.3 178.23,-379.81 177.51,-380.33 176.77,-380.81 176,-381.26 175.23,-381.71 174.43,-382.13 173.62,-382.51 172.8,-382.89 171.96,-383.24 171.11,-383.55 170.25,-383.86 169.38,-384.13 168.49,-384.36 167.61,-384.6 166.71,-384.8 165.8,-384.95 164.89,-385.11 163.98,-385.23 163.06,-385.31 162.14,-385.39 161.21,-385.43 160.28,-385.43 159.36,-385.43 158.43,-385.39 157.51,-385.31 156.59,-385.23 155.67,-385.11 154.77,-384.95 153.86,-384.8 152.96,-384.6 152.07,-384.36 151.19,-384.13 150.32,-383.86 149.46,-383.55 148.61,-383.24 147.77,-382.89 146.95,-382.51 146.13,-382.13 145.34,-381.71 144.57,-381.26 143.8,-380.81 143.06,-380.33 142.34,-379.81 141.63,-379.3 140.94,-378.75 140.28,-378.18 139.63,-377.61 139.01,-377.01 138.42,-376.38 137.83,-375.76 137.28,-375.1 136.77,-374.43 136.25,-373.76 135.78,-373.06 135.34,-372.35 134.9,-371.63 134.51,-370.9 134.15,-370.15 133.8,-369.4 133.49,-368.64 133.22,-367.87 132.95,-367.09 132.72,-366.3 132.54,-365.51 132.36,-364.71 132.23,-363.91 132.14,-363.11 132.05,-362.3 132,-361.49 132,-360.68 132,-360.68 160.28,-360.68 160.28,-360.68"/>
<path fill="#ffddcc" stroke="black" stroke-width="0.5" d="M160.28,-360.68C160.28,-360.68 132,-360.68 132,-360.68 132,-359.87 132.05,-359.06 132.14,-358.26 132.23,-357.45 132.36,-356.65 132.54,-355.85 132.72,-355.06 132.95,-354.27 133.22,-353.5 133.49,-352.72 133.8,-351.96 134.15,-351.21 134.51,-350.46 134.9,-349.73 135.34,-349.01 135.78,-348.3 136.25,-347.61 136.77,-346.93 137.28,-346.26 137.83,-345.61 138.42,-344.98 139.01,-344.35 139.63,-343.75 140.28,-343.18 140.94,-342.61 141.63,-342.06 142.34,-341.55 143.06,-341.04 143.8,-340.55 144.57,-340.1 145.34,-339.65 146.13,-339.24 146.95,-338.85 147.77,-338.47 148.61,-338.13 149.46,-337.82 150.32,-337.51 151.19,-337.23 152.07,-337 152.96,-336.76 153.86,-336.57 154.77,-336.41 155.67,-336.25 156.59,-336.13 157.51,-336.05 158.43,-335.97 159.36,-335.93 160.28,-335.93 161.21,-335.93 162.14,-335.97 163.06,-336.05 163.98,-336.13 164.89,-336.25 165.8,-336.41 166.71,-336.57 167.61,-336.76 168.49,-337 169.38,-337.23 170.25,-337.51 171.11,-337.82 171.96,-338.13 172.8,-338.47 173.62,-338.85 174.43,-339.24 175.23,-339.65 176,-340.1 176.77,-340.55 177.51,-341.04 178.23,-341.55 178.94,-342.06 179.63,-342.61 180.28,-343.18 180.94,-343.75 181.56,-344.35 182.15,-344.98 182.74,-345.61 183.29,-346.26 183.8,-346.93 184.32,-347.61 184.79,-348.3 185.23,-349.01 185.67,-349.73 186.06,-350.46 186.42,-351.21 186.77,-351.96 187.08,-352.72 187.35,-353.5 187.62,-354.27 187.84,-355.06 188.03,-355.85 188.21,-356.65 188.34,-357.45 188.43,-358.26 188.52,-359.06 188.57,-359.87 188.57,-360.68 188.57,-360.68 160.28,-360.68 160.28,-360.68"/>
<ellipse fill="none" stroke="black" cx="160.28" cy="-360.68" rx="28.28" ry="24.75"/>
<text xml:space="preserve" text-anchor="start" x="155.03" y="-364.73" font-family="Times,serif" font-size="11.00">40</text>
<text xml:space="preserve" text-anchor="start" x="148.28" y="-356.58" font-family="Times,serif" font-size="8.00">10 1000</text>
<text xml:space="preserve" text-anchor="start" x="153.91" y="-348.58" font-family="Times,serif" font-size="8.00">2³·5</text>
</g>
<!-- n20&#45;&gt;n40 -->
<g id="edge16" class="edge">
<title>n20&#45;&gt;n40</title>
<path fill="none" stroke="#6688bb" d="M160.28,-431.47C160.28,-421.06 160.28,-408.67 160.28,-397.24"/>
<polygon fill="#6688bb" stroke="#6688bb" points="163.78,-397.32 160.28,-387.32 156.78,-397.32 163.78,-397.32"/>
<text xml:space="preserve" text-anchor="middle" x="167.41" y="-405.38" font-family="Times,serif" font-size="9.00" fill="#6688bb"> ×2 </text>
</g>
<!-- n21 -->
<g id="node13" class="node">
<title>n21</title>
<ellipse fill="#0045cf" stroke="black" cx="355.28" cy="-456.68" rx="27" ry="24.75"/>
<text xml:space="preserve" text-anchor="start" x="350.03" y="-460.73" font-family="Times,serif" font-size="11.00" fill="white">21</text>
<text xml:space="preserve" text-anchor="start" x="345.16" y="-452.58" font-family="Times,serif" font-size="8.00" fill="white">1 0101</text>
<text xml:space="preserve" text-anchor="start" x="350.03" y="-444.58" font-family="Times,serif" font-size="8.00" fill="white">3·7</text>
</g>
<!-- n42 -->
<g id="node18" class="node">
<title>n42</title>
<ellipse fill="#ccddff" stroke="black" cx="355.28" cy="-360.68" rx="28.28" ry="24.75"/>
<text xml:space="preserve" text-anchor="start" x="350.03" y="-364.73" font-family="Times,serif" font-size="11.00">42</text>
<text xml:space="preserve" text-anchor="start" x="343.28" y="-356.58" font-family="Times,serif" font-size="8.00">10 1010</text>
<text xml:space="preserve" text-anchor="start" x="346.66" y="-348.58" font-family="Times,serif" font-size="8.00">2·3·7</text>
</g>
<!-- n21&#45;&gt;n42 -->
<g id="edge17" class="edge">
<title>n21&#45;&gt;n42</title>
<path fill="none" stroke="#6688bb" d="M355.28,-431.47C355.28,-421.06 355.28,-408.67 355.28,-397.24"/>
<polygon fill="#6688bb" stroke="#6688bb" points="358.78,-397.32 355.28,-387.32 351.78,-397.32 358.78,-397.32"/>
<text xml:space="preserve" text-anchor="middle" x="362.41" y="-405.38" font-family="Times,serif" font-size="9.00" fill="#6688bb"> ×2 </text>
</g>
<!-- n48 -->
<g id="node19" class="node">
<title>n48</title>
<ellipse fill="#ccddff" stroke="black" cx="28.28" cy="-72.69" rx="28.28" ry="24.75"/>
<text xml:space="preserve" text-anchor="start" x="23.03" y="-76.74" font-family="Times,serif" font-size="11.00">48</text>
<text xml:space="preserve" text-anchor="start" x="16.28" y="-68.59" font-family="Times,serif" font-size="8.00">11 0000</text>
<text xml:space="preserve" text-anchor="start" x="21.16" y="-60.59" font-family="Times,serif" font-size="8.00">2⁴·3</text>
</g>
<!-- n24&#45;&gt;n48 -->
<g id="edge18" class="edge">
<title>n24&#45;&gt;n48</title>
<path fill="none" stroke="#6688bb" d="M29.77,-143.48C29.55,-133.06 29.28,-120.68 29.04,-109.25"/>
<polygon fill="#6688bb" stroke="#6688bb" points="32.54,-109.25 28.83,-99.33 25.54,-109.4 32.54,-109.25"/>
<text xml:space="preserve" text-anchor="middle" x="36.47" y="-117.39" font-family="Times,serif" font-size="9.00" fill="#6688bb"> ×2 </text>
</g>
<!-- n52 -->
<g id="node20" class="node">
<title>n52</title>
<path fill="#ccddff" stroke="black" stroke-width="0.5" d="M103.28,-72.69C103.28,-72.69 131.57,-72.69 131.57,-72.69 131.57,-73.5 131.52,-74.31 131.43,-75.11 131.34,-75.92 131.21,-76.72 131.03,-77.52 130.84,-78.31 130.62,-79.1 130.35,-79.87 130.08,-80.65 129.77,-81.41 129.42,-82.16 129.06,-82.91 128.67,-83.64 128.23,-84.36 127.79,-85.07 127.32,-85.76 126.8,-86.44 126.29,-87.11 125.74,-87.76 125.15,-88.39 124.56,-89.02 123.94,-89.62 123.28,-90.19 122.63,-90.76 121.94,-91.31 121.23,-91.82 120.51,-92.33 119.77,-92.82 119,-93.27 118.23,-93.72 117.43,-94.13 116.62,-94.52 115.8,-94.9 114.96,-95.24 114.11,-95.55 113.25,-95.86 112.38,-96.14 111.49,-96.37 110.61,-96.61 109.71,-96.8 108.8,-96.96 107.89,-97.12 106.98,-97.24 106.06,-97.32 105.14,-97.4 104.21,-97.44 103.28,-97.44 102.36,-97.44 101.43,-97.4 100.51,-97.32 99.59,-97.24 98.67,-97.12 97.77,-96.96 96.86,-96.8 95.96,-96.61 95.07,-96.37 94.19,-96.14 93.32,-95.86 92.46,-95.55 91.61,-95.24 90.77,-94.9 89.95,-94.52 89.13,-94.13 88.34,-93.72 87.57,-93.27 86.8,-92.82 86.06,-92.33 85.34,-91.82 84.63,-91.31 83.94,-90.76 83.28,-90.19 82.63,-89.62 82.01,-89.02 81.42,-88.39 80.83,-87.76 80.28,-87.11 79.77,-86.44 79.25,-85.76 78.78,-85.07 78.34,-84.36 77.9,-83.64 77.51,-82.91 77.15,-82.16 76.8,-81.41 76.49,-80.65 76.22,-79.87 75.95,-79.1 75.72,-78.31 75.54,-77.52 75.36,-76.72 75.23,-75.92 75.14,-75.11 75.05,-74.31 75,-73.5 75,-72.69 75,-72.69 103.28,-72.69 103.28,-72.69"/>
<path fill="#ffddcc" stroke="black" stroke-width="0.5" d="M103.28,-72.69C103.28,-72.69 75,-72.69 75,-72.69 75,-71.88 75.05,-71.07 75.14,-70.26 75.23,-69.46 75.36,-68.65 75.54,-67.86 75.72,-67.07 75.95,-66.28 76.22,-65.5 76.49,-64.73 76.8,-63.97 77.15,-63.22 77.51,-62.47 77.9,-61.74 78.34,-61.02 78.78,-60.31 79.25,-59.61 79.77,-58.94 80.28,-58.27 80.83,-57.61 81.42,-56.99 82.01,-56.36 82.63,-55.76 83.28,-55.19 83.94,-54.62 84.63,-54.07 85.34,-53.56 86.06,-53.04 86.8,-52.56 87.57,-52.11 88.34,-51.66 89.13,-51.24 89.95,-50.86 90.77,-50.48 91.61,-50.13 92.46,-49.82 93.32,-49.51 94.19,-49.24 95.07,-49.01 95.96,-48.77 96.86,-48.57 97.77,-48.42 98.67,-48.26 99.59,-48.14 100.51,-48.06 101.43,-47.98 102.36,-47.94 103.28,-47.94 104.21,-47.94 105.14,-47.98 106.06,-48.06 106.98,-48.14 107.89,-48.26 108.8,-48.42 109.71,-48.57 110.61,-48.77 111.49,-49.01 112.38,-49.24 113.25,-49.51 114.11,-49.82 114.96,-50.13 115.8,-50.48 116.62,-50.86 117.43,-51.24 118.23,-51.66 119,-52.11 119.77,-52.56 120.51,-53.04 121.23,-53.56 121.94,-54.07 122.63,-54.62 123.28,-55.19 123.94,-55.76 124.56,-56.36 125.15,-56.99 125.74,-57.61 126.29,-58.27 126.8,-58.94 127.32,-59.61 127.79,-60.31 128.23,-61.02 128.67,-61.74 129.06,-62.47 129.42,-63.22 129.77,-63.97 130.08,-64.73 130.35,-65.5 130.62,-66.28 130.84,-67.07 131.03,-67.86 131.21,-68.65 131.34,-69.46 131.43,-70.26 131.52,-71.07 131.57,-71.88 131.57,-72.69 131.57,-72.69 103.28,-72.69 103.28,-72.69"/>
<ellipse fill="none" stroke="black" cx="103.28" cy="-72.69" rx="28.28" ry="24.75"/>
<text xml:space="preserve" text-anchor="start" x="98.03" y="-76.74" font-family="Times,serif" font-size="11.00">52</text>
<text xml:space="preserve" text-anchor="start" x="91.28" y="-68.59" font-family="Times,serif" font-size="8.00">11 0100</text>
<text xml:space="preserve" text-anchor="start" x="95.03" y="-60.59" font-family="Times,serif" font-size="8.00">2²·13</text>
</g>
<!-- n26&#45;&gt;n52 -->
<g id="edge21" class="edge">
<title>n26&#45;&gt;n52</title>
<path fill="none" stroke="#6688bb" d="M103.28,-143.48C103.28,-133.06 103.28,-120.68 103.28,-109.25"/>
<polygon fill="#6688bb" stroke="#6688bb" points="106.78,-109.33 103.28,-99.33 99.78,-109.33 106.78,-109.33"/>
<text xml:space="preserve" text-anchor="middle" x="110.41" y="-117.39" font-family="Times,serif" font-size="9.00" fill="#6688bb"> ×2 </text>
</g>
<!-- n64 -->
<g id="node22" class="node">
<title>n64</title>
<path fill="#ccddff" stroke="black" stroke-width="0.5" d="M355.28,-552.68C355.28,-552.68 386.22,-552.68 386.22,-552.68 386.22,-553.49 386.17,-554.3 386.07,-555.1 385.97,-555.91 385.82,-556.71 385.63,-557.5 385.43,-558.3 385.18,-559.09 384.89,-559.86 384.59,-560.64 384.25,-561.4 383.87,-562.15 383.48,-562.9 383.04,-563.63 382.57,-564.34 382.09,-565.06 381.57,-565.75 381.01,-566.43 380.44,-567.1 379.84,-567.75 379.2,-568.38 378.56,-569 377.88,-569.6 377.16,-570.18 376.44,-570.75 375.69,-571.29 374.91,-571.81 374.13,-572.32 373.31,-572.8 372.47,-573.25 371.63,-573.7 370.76,-574.12 369.87,-574.5 368.97,-574.88 368.06,-575.23 367.12,-575.54 366.19,-575.85 365.23,-576.12 364.26,-576.36 363.3,-576.59 362.31,-576.79 361.32,-576.95 360.33,-577.11 359.32,-577.23 358.32,-577.31 357.31,-577.39 356.3,-577.42 355.28,-577.42 354.27,-577.42 353.26,-577.39 352.25,-577.31 351.24,-577.23 350.24,-577.11 349.25,-576.95 348.26,-576.79 347.27,-576.59 346.3,-576.36 345.34,-576.12 344.38,-575.85 343.45,-575.54 342.51,-575.23 341.59,-574.88 340.7,-574.5 339.81,-574.12 338.94,-573.7 338.1,-573.25 337.26,-572.8 336.44,-572.32 335.66,-571.81 334.88,-571.29 334.13,-570.75 333.41,-570.18 332.69,-569.6 332.01,-569 331.37,-568.38 330.73,-567.75 330.12,-567.1 329.56,-566.43 329,-565.75 328.48,-565.06 328,-564.34 327.52,-563.63 327.09,-562.9 326.7,-562.15 326.32,-561.4 325.97,-560.64 325.68,-559.86 325.39,-559.09 325.14,-558.3 324.94,-557.5 324.75,-556.71 324.6,-555.91 324.5,-555.1 324.4,-554.3 324.35,-553.49 324.35,-552.68 324.35,-552.68 355.28,-552.68 355.28,-552.68"/>
<path fill="#ffddcc" stroke="black" stroke-width="0.5" d="M355.28,-552.68C355.28,-552.68 324.35,-552.68 324.35,-552.68 324.35,-551.87 324.4,-551.06 324.5,-550.25 324.6,-549.44 324.75,-548.64 324.94,-547.85 325.14,-547.05 325.39,-546.27 325.68,-545.49 325.97,-544.72 326.32,-543.95 326.7,-543.21 327.09,-542.46 327.52,-541.72 328,-541.01 328.48,-540.3 329,-539.6 329.56,-538.93 330.12,-538.25 330.73,-537.6 331.37,-536.98 332.01,-536.35 332.69,-535.75 333.41,-535.18 334.13,-534.6 334.88,-534.06 335.66,-533.55 336.44,-533.03 337.26,-532.55 338.1,-532.1 338.94,-531.65 339.81,-531.23 340.7,-530.85 341.59,-530.47 342.51,-530.12 343.45,-529.81 344.38,-529.5 345.34,-529.23 346.3,-528.99 347.27,-528.76 348.26,-528.56 349.25,-528.4 350.24,-528.24 351.24,-528.13 352.25,-528.05 353.26,-527.97 354.27,-527.93 355.28,-527.93 356.3,-527.93 357.31,-527.97 358.32,-528.05 359.32,-528.13 360.33,-528.24 361.32,-528.4 362.31,-528.56 363.3,-528.76 364.26,-528.99 365.23,-529.23 366.19,-529.5 367.12,-529.81 368.06,-530.12 368.97,-530.47 369.87,-530.85 370.76,-531.23 371.63,-531.65 372.47,-532.1 373.31,-532.55 374.13,-533.03 374.91,-533.55 375.69,-534.06 376.44,-534.6 377.16,-535.18 377.88,-535.75 378.56,-536.35 379.2,-536.98 379.84,-537.6 380.44,-538.25 381.01,-538.93 381.57,-539.6 382.09,-540.3 382.57,-541.01 383.04,-541.72 383.48,-542.46 383.87,-543.21 384.25,-543.95 384.59,-544.72 384.89,-545.49 385.18,-546.27 385.43,-547.05 385.63,-547.85 385.82,-548.64 385.97,-549.44 386.07,-550.25 386.17,-551.06 386.22,-551.87 386.22,-552.68 386.22,-552.68 355.28,-552.68 355.28,-552.68"/>
<ellipse fill="none" stroke="black" cx="355.28" cy="-552.68" rx="30.94" ry="24.75"/>
<text xml:space="preserve" text-anchor="start" x="350.03" y="-556.73" font-family="Times,serif" font-size="11.00">64</text>
<text xml:space="preserve" text-anchor="start" x="341.41" y="-548.58" font-family="Times,serif" font-size="8.00">100 0000</text>
<text xml:space="preserve" text-anchor="start" x="351.53" y="-540.58" font-family="Times,serif" font-size="8.00">2⁶</text>
</g>
<!-- n32&#45;&gt;n64 -->
<g id="edge23" class="edge">
<title>n32&#45;&gt;n64</title>
<path fill="none" stroke="#6688bb" d="M328.76,-624.92C332.95,-613.66 338.1,-599.84 342.74,-587.38"/>
<polygon fill="#6688bb" stroke="#6688bb" points="345.91,-588.88 346.12,-578.29 339.35,-586.44 345.91,-588.88"/>
<text xml:space="preserve" text-anchor="middle" x="345.96" y="-597.37" font-family="Times,serif" font-size="9.00" fill="#6688bb"> ×2 </text>
</g>
<!-- n40&#45;&gt;n13 -->
<g id="edge25" class="edge">
<title>n40&#45;&gt;n13</title>
<path fill="none" stroke="#ddbb99" d="M147.23,-338.49C143.21,-331.92 138.79,-324.64 134.78,-317.93 130.73,-311.15 126.43,-303.84 122.37,-296.89"/>
<polygon fill="#ddbb99" stroke="#ddbb99" points="125.48,-295.28 117.42,-288.4 119.43,-298.8 125.48,-295.28"/>
<text xml:space="preserve" text-anchor="middle" x="150.53" y="-309.38" font-family="Times,serif" font-size="9.00" fill="#ddbb99"> (m&#45;1)/3 </text>
</g>
<!-- n80 -->
<g id="node23" class="node">
<title>n80</title>
<ellipse fill="#ccddff" stroke="black" cx="181.28" cy="-264.68" rx="30.94" ry="24.75"/>
<text xml:space="preserve" text-anchor="start" x="176.03" y="-268.73" font-family="Times,serif" font-size="11.00">80</text>
<text xml:space="preserve" text-anchor="start" x="167.41" y="-260.58" font-family="Times,serif" font-size="8.00">101 0000</text>
<text xml:space="preserve" text-anchor="start" x="174.16" y="-252.58" font-family="Times,serif" font-size="8.00">2⁴·5</text>
</g>
<!-- n40&#45;&gt;n80 -->
<g id="edge26" class="edge">
<title>n40&#45;&gt;n80</title>
<path fill="none" stroke="#6688bb" d="M165.58,-335.96C168,-325.16 170.9,-312.17 173.55,-300.31"/>
<polygon fill="#6688bb" stroke="#6688bb" points="176.89,-301.4 175.66,-290.87 170.06,-299.87 176.89,-301.4"/>
<text xml:space="preserve" text-anchor="middle" x="178.54" y="-309.38" font-family="Times,serif" font-size="9.00" fill="#6688bb"> ×2 </text>
</g>
<!-- n84 -->
<g id="node24" class="node">
<title>n84</title>
<ellipse fill="#ccddff" stroke="black" cx="355.28" cy="-264.68" rx="30.94" ry="24.75"/>
<text xml:space="preserve" text-anchor="start" x="350.03" y="-268.73" font-family="Times,serif" font-size="11.00">84</text>
<text xml:space="preserve" text-anchor="start" x="341.41" y="-260.58" font-family="Times,serif" font-size="8.00">101 0100</text>
<text xml:space="preserve" text-anchor="start" x="345.53" y="-252.58" font-family="Times,serif" font-size="8.00">2²·3·7</text>
</g>
<!-- n42&#45;&gt;n84 -->
<g id="edge27" class="edge">
<title>n42&#45;&gt;n84</title>
<path fill="none" stroke="#6688bb" d="M355.28,-335.47C355.28,-325.06 355.28,-312.67 355.28,-301.25"/>
<polygon fill="#6688bb" stroke="#6688bb" points="358.78,-301.32 355.28,-291.32 351.78,-301.32 358.78,-301.32"/>
<text xml:space="preserve" text-anchor="middle" x="362.41" y="-309.38" font-family="Times,serif" font-size="9.00" fill="#6688bb"> ×2 </text>
</g>
<!-- ghost_out_48_9 -->
<g id="node47" class="node">
<title>ghost_out_48_9</title>
</g>
<!-- n48&#45;&gt;ghost_out_48_9 -->
<g id="edge46" class="edge">
<title>n48&#45;&gt;ghost_out_48_9</title>
<path fill="none" stroke="#6688bb" stroke-dasharray="5,2" d="M28.28,-47.51C28.28,-35.82 28.28,-22.34 28.28,-12.99"/>
<polygon fill="#6688bb" stroke="#6688bb" points="31.78,-13.03 28.28,-3.03 24.78,-13.03 31.78,-13.03"/>
<text xml:space="preserve" text-anchor="middle" x="35.41" y="-21.39" font-family="Times,serif" font-size="9.00" fill="#6688bb"> ×2 </text>
</g>
<!-- ghost_out_52_7 -->
<g id="node45" class="node">
<title>ghost_out_52_7</title>
</g>
<!-- n52&#45;&gt;ghost_out_52_7 -->
<g id="edge44" class="edge">
<title>n52&#45;&gt;ghost_out_52_7</title>
<path fill="none" stroke="#6688bb" stroke-dasharray="5,2" d="M94.44,-48.69C89.68,-36.28 84.02,-21.58 80.31,-11.91"/>
<polygon fill="#6688bb" stroke="#6688bb" points="83.71,-11.01 76.86,-2.93 77.18,-13.52 83.71,-11.01"/>
<text xml:space="preserve" text-anchor="middle" x="93.7" y="-21.39" font-family="Times,serif" font-size="9.00" fill="#6688bb"> ×2 </text>
</g>
<!-- ghost_out_52_8 -->
<g id="node46" class="node">
<title>ghost_out_52_8</title>
</g>
<!-- n52&#45;&gt;ghost_out_52_8 -->
<g id="edge45" class="edge">
<title>n52&#45;&gt;ghost_out_52_8</title>
<path fill="none" stroke="#ddbb99" stroke-dasharray="5,2" d="M106.67,-47.91C108.36,-36.03 110.33,-22.21 111.67,-12.75"/>
<polygon fill="#ddbb99" stroke="#ddbb99" points="115.12,-13.41 113.06,-3.01 108.19,-12.42 115.12,-13.41"/>
<text xml:space="preserve" text-anchor="middle" x="126.35" y="-21.39" font-family="Times,serif" font-size="9.00" fill="#ddbb99"> (m&#45;1)/3 </text>
</g>
<!-- n53 -->
<g id="node21" class="node">
<title>n53</title>
<ellipse fill="#0045cf" stroke="black" cx="178.28" cy="-72.69" rx="28.28" ry="24.75"/>
<text xml:space="preserve" text-anchor="start" x="173.03" y="-76.74" font-family="Times,serif" font-size="11.00" fill="white">53</text>
<text xml:space="preserve" text-anchor="start" x="166.28" y="-68.59" font-family="Times,serif" font-size="8.00" fill="white">11 0101</text>
<text xml:space="preserve" text-anchor="start" x="174.53" y="-60.59" font-family="Times,serif" font-size="8.00" fill="white">53</text>
</g>
<!-- ghost_out_53_6 -->
<g id="node44" class="node">
<title>ghost_out_53_6</title>
</g>
<!-- n53&#45;&gt;ghost_out_53_6 -->
<g id="edge43" class="edge">
<title>n53&#45;&gt;ghost_out_53_6</title>
<path fill="none" stroke="#6688bb" stroke-dasharray="5,2" d="M178.28,-47.51C178.28,-35.82 178.28,-22.34 178.28,-12.99"/>
<polygon fill="#6688bb" stroke="#6688bb" points="181.78,-13.03 178.28,-3.03 174.78,-13.03 181.78,-13.03"/>
<text xml:space="preserve" text-anchor="middle" x="185.41" y="-21.39" font-family="Times,serif" font-size="9.00" fill="#6688bb"> ×2 </text>
</g>
<!-- n64&#45;&gt;n21 -->
<g id="edge32" class="edge">
<title>n64&#45;&gt;n21</title>
<path fill="none" stroke="#ddbb99" d="M355.28,-527.47C355.28,-517.05 355.28,-504.67 355.28,-493.24"/>
<polygon fill="#ddbb99" stroke="#ddbb99" points="358.78,-493.32 355.28,-483.32 351.78,-493.32 358.78,-493.32"/>
<text xml:space="preserve" text-anchor="middle" x="371.03" y="-501.38" font-family="Times,serif" font-size="9.00" fill="#ddbb99"> (m&#45;1)/3 </text>
</g>
<!-- n128 -->
<g id="node26" class="node">
<title>n128</title>
<ellipse fill="#ccddff" stroke="black" cx="440.28" cy="-456.68" rx="33.59" ry="24.75"/>
<text xml:space="preserve" text-anchor="start" x="432.41" y="-460.73" font-family="Times,serif" font-size="11.00">128</text>
<text xml:space="preserve" text-anchor="start" x="424.53" y="-452.58" font-family="Times,serif" font-size="8.00">1000 0000</text>
<text xml:space="preserve" text-anchor="start" x="436.53" y="-444.58" font-family="Times,serif" font-size="8.00">2⁷</text>
</g>
<!-- n64&#45;&gt;n128 -->
<g id="edge31" class="edge">
<title>n64&#45;&gt;n128</title>
<path fill="none" stroke="#6688bb" d="M372.9,-532.2C384.93,-518.89 401.07,-501.04 414.54,-486.15"/>
<polygon fill="#6688bb" stroke="#6688bb" points="416.98,-488.67 421.09,-478.9 411.79,-483.97 416.98,-488.67"/>
<text xml:space="preserve" text-anchor="middle" x="407.46" y="-501.38" font-family="Times,serif" font-size="9.00" fill="#6688bb"> ×2 </text>
</g>
<!-- n160 -->
<g id="node27" class="node">
<title>n160</title>
<path fill="#ccddff" stroke="black" stroke-width="0.5" d="M182.28,-168.69C182.28,-168.69 215.87,-168.69 215.87,-168.69 215.87,-169.5 215.82,-170.31 215.71,-171.11 215.6,-171.92 215.44,-172.72 215.23,-173.51 215.01,-174.31 214.74,-175.1 214.43,-175.87 214.11,-176.65 213.74,-177.41 213.32,-178.16 212.89,-178.91 212.42,-179.64 211.91,-180.35 211.39,-181.07 210.82,-181.76 210.21,-182.44 209.6,-183.11 208.95,-183.76 208.25,-184.39 207.55,-185.01 206.81,-185.61 206.03,-186.19 205.26,-186.76 204.44,-187.3 203.59,-187.82 202.74,-188.33 201.86,-188.81 200.94,-189.26 200.03,-189.71 199.09,-190.13 198.12,-190.51 197.15,-190.89 196.15,-191.24 195.14,-191.55 194.12,-191.86 193.09,-192.13 192.03,-192.37 190.98,-192.6 189.92,-192.8 188.84,-192.96 187.76,-193.12 186.67,-193.24 185.58,-193.32 184.48,-193.4 183.38,-193.43 182.28,-193.43 181.18,-193.43 180.09,-193.4 178.99,-193.32 177.9,-193.24 176.81,-193.12 175.73,-192.96 174.65,-192.8 173.59,-192.6 172.53,-192.37 171.48,-192.13 170.45,-191.86 169.43,-191.55 168.42,-191.24 167.42,-190.89 166.45,-190.51 165.48,-190.13 164.54,-189.71 163.62,-189.26 162.71,-188.81 161.83,-188.33 160.98,-187.82 160.13,-187.3 159.31,-186.76 158.53,-186.19 157.76,-185.61 157.02,-185.01 156.32,-184.39 155.62,-183.76 154.97,-183.11 154.36,-182.44 153.75,-181.76 153.18,-181.07 152.66,-180.35 152.14,-179.64 151.67,-178.91 151.25,-178.16 150.83,-177.41 150.46,-176.65 150.14,-175.87 149.82,-175.1 149.56,-174.31 149.34,-173.51 149.13,-172.72 148.97,-171.92 148.86,-171.11 148.75,-170.31 148.7,-169.5 148.7,-168.69 148.7,-168.69 182.28,-168.69 182.28,-168.69"/>
<path fill="#ffddcc" stroke="black" stroke-width="0.5" d="M182.28,-168.69C182.28,-168.69 148.7,-168.69 148.7,-168.69 148.7,-167.88 148.75,-167.07 148.86,-166.26 148.97,-165.45 149.13,-164.65 149.34,-163.86 149.56,-163.06 149.82,-162.28 150.14,-161.5 150.46,-160.73 150.83,-159.96 151.25,-159.22 151.67,-158.47 152.14,-157.73 152.66,-157.02 153.18,-156.31 153.75,-155.61 154.36,-154.94 154.97,-154.26 155.62,-153.61 156.32,-152.99 157.02,-152.36 157.76,-151.76 158.53,-151.19 159.31,-150.61 160.13,-150.07 160.98,-149.56 161.83,-149.04 162.71,-148.56 163.62,-148.11 164.54,-147.66 165.48,-147.24 166.45,-146.86 167.42,-146.48 168.42,-146.13 169.43,-145.82 170.45,-145.51 171.48,-145.24 172.53,-145 173.59,-144.77 174.65,-144.57 175.73,-144.41 176.81,-144.25 177.9,-144.14 178.99,-144.06 180.09,-143.98 181.18,-143.94 182.28,-143.94 183.38,-143.94 184.48,-143.98 185.58,-144.06 186.67,-144.14 187.76,-144.25 188.84,-144.41 189.92,-144.57 190.98,-144.77 192.03,-145 193.09,-145.24 194.12,-145.51 195.14,-145.82 196.15,-146.13 197.15,-146.48 198.12,-146.86 199.09,-147.24 200.03,-147.66 200.94,-148.11 201.86,-148.56 202.74,-149.04 203.59,-149.56 204.44,-150.07 205.26,-150.61 206.03,-151.19 206.81,-151.76 207.55,-152.36 208.25,-152.99 208.95,-153.61 209.6,-154.26 210.21,-154.94 210.82,-155.61 211.39,-156.31 211.91,-157.02 212.42,-157.73 212.89,-158.47 213.32,-159.22 213.74,-159.96 214.11,-160.73 214.43,-161.5 214.74,-162.28 215.01,-163.06 215.23,-163.86 215.44,-164.65 215.6,-165.45 215.71,-166.26 215.82,-167.07 215.87,-167.88 215.87,-168.69 215.87,-168.69 182.28,-168.69 182.28,-168.69"/>
<ellipse fill="none" stroke="black" cx="182.28" cy="-168.69" rx="33.59" ry="24.75"/>
<text xml:space="preserve" text-anchor="start" x="174.41" y="-172.74" font-family="Times,serif" font-size="11.00">160</text>
<text xml:space="preserve" text-anchor="start" x="166.53" y="-164.59" font-family="Times,serif" font-size="8.00">1010 0000</text>
<text xml:space="preserve" text-anchor="start" x="175.16" y="-156.59" font-family="Times,serif" font-size="8.00">2⁵·5</text>
</g>
<!-- n80&#45;&gt;n160 -->
<g id="edge34" class="edge">
<title>n80&#45;&gt;n160</title>
<path fill="none" stroke="#6688bb" d="M181.54,-239.48C181.65,-229.06 181.78,-216.67 181.91,-205.25"/>
<polygon fill="#6688bb" stroke="#6688bb" points="185.4,-205.36 182.01,-195.32 178.41,-205.29 185.4,-205.36"/>
<text xml:space="preserve" text-anchor="middle" x="188.94" y="-213.38" font-family="Times,serif" font-size="9.00" fill="#6688bb"> ×2 </text>
</g>
<!-- n168 -->
<g id="node28" class="node">
<title>n168</title>
<ellipse fill="#ccddff" stroke="black" cx="355.28" cy="-168.69" rx="33.59" ry="24.75"/>
<text xml:space="preserve" text-anchor="start" x="347.41" y="-172.74" font-family="Times,serif" font-size="11.00">168</text>
<text xml:space="preserve" text-anchor="start" x="339.53" y="-164.59" font-family="Times,serif" font-size="8.00">1010 1000</text>
<text xml:space="preserve" text-anchor="start" x="345.53" y="-156.59" font-family="Times,serif" font-size="8.00">2³·3·7</text>
</g>
<!-- n84&#45;&gt;n168 -->
<g id="edge35" class="edge">
<title>n84&#45;&gt;n168</title>
<path fill="none" stroke="#6688bb" d="M355.28,-239.48C355.28,-229.06 355.28,-216.67 355.28,-205.25"/>
<polygon fill="#6688bb" stroke="#6688bb" points="358.78,-205.32 355.28,-195.32 351.78,-205.32 358.78,-205.32"/>
<text xml:space="preserve" text-anchor="middle" x="362.41" y="-213.38" font-family="Times,serif" font-size="9.00" fill="#6688bb"> ×2 </text>
</g>
<!-- n85 -->
<g id="node25" class="node">
<title>n85</title>
<ellipse fill="#0045cf" stroke="black" cx="447.28" cy="-264.68" rx="30.94" ry="24.75"/>
<text xml:space="preserve" text-anchor="start" x="442.03" y="-268.73" font-family="Times,serif" font-size="11.00" fill="white">85</text>
<text xml:space="preserve" text-anchor="start" x="433.41" y="-260.58" font-family="Times,serif" font-size="8.00" fill="white">101 0101</text>
<text xml:space="preserve" text-anchor="start" x="440.16" y="-252.58" font-family="Times,serif" font-size="8.00" fill="white">5·17</text>
</g>
<!-- n170 -->
<g id="node29" class="node">
<title>n170</title>
<ellipse fill="#ccddff" stroke="black" cx="447.28" cy="-168.69" rx="33.59" ry="24.75"/>
<text xml:space="preserve" text-anchor="start" x="439.41" y="-172.74" font-family="Times,serif" font-size="11.00">170</text>
<text xml:space="preserve" text-anchor="start" x="431.53" y="-164.59" font-family="Times,serif" font-size="8.00">1010 1010</text>
<text xml:space="preserve" text-anchor="start" x="436.78" y="-156.59" font-family="Times,serif" font-size="8.00">2·5·17</text>
</g>
<!-- n85&#45;&gt;n170 -->
<g id="edge36" class="edge">
<title>n85&#45;&gt;n170</title>
<path fill="none" stroke="#6688bb" d="M447.28,-239.48C447.28,-229.06 447.28,-216.67 447.28,-205.25"/>
<polygon fill="#6688bb" stroke="#6688bb" points="450.78,-205.32 447.28,-195.32 443.78,-205.32 450.78,-205.32"/>
<text xml:space="preserve" text-anchor="middle" x="454.41" y="-213.38" font-family="Times,serif" font-size="9.00" fill="#6688bb"> ×2 </text>
</g>
<!-- n256 -->
<g id="node30" class="node">
<title>n256</title>
<path fill="#ccddff" stroke="black" stroke-width="0.5" d="M447.28,-360.68C447.28,-360.68 484.58,-360.68 484.58,-360.68 484.58,-361.49 484.52,-362.3 484.4,-363.11 484.28,-363.91 484.11,-364.71 483.87,-365.51 483.63,-366.3 483.33,-367.09 482.98,-367.87 482.62,-368.64 482.21,-369.4 481.74,-370.15 481.28,-370.9 480.76,-371.63 480.18,-372.35 479.6,-373.06 478.98,-373.76 478.3,-374.43 477.62,-375.1 476.89,-375.76 476.12,-376.38 475.34,-377.01 474.52,-377.61 473.66,-378.18 472.8,-378.75 471.89,-379.3 470.95,-379.81 470,-380.33 469.02,-380.81 468.01,-381.26 466.99,-381.71 465.94,-382.13 464.87,-382.51 463.79,-382.89 462.69,-383.24 461.56,-383.55 460.43,-383.86 459.28,-384.13 458.11,-384.36 456.94,-384.6 455.76,-384.8 454.56,-384.95 453.36,-385.11 452.16,-385.23 450.94,-385.31 449.73,-385.39 448.51,-385.43 447.28,-385.43 446.06,-385.43 444.84,-385.39 443.63,-385.31 442.41,-385.23 441.2,-385.11 440.01,-384.95 438.81,-384.8 437.62,-384.6 436.46,-384.36 435.29,-384.13 434.14,-383.86 433.01,-383.55 431.88,-383.24 430.78,-382.89 429.7,-382.51 428.62,-382.13 427.58,-381.71 426.56,-381.26 425.55,-380.81 424.57,-380.33 423.62,-379.81 422.68,-379.3 421.77,-378.75 420.91,-378.18 420.05,-377.61 419.23,-377.01 418.45,-376.38 417.68,-375.76 416.95,-375.1 416.27,-374.43 415.59,-373.76 414.96,-373.06 414.39,-372.35 413.81,-371.63 413.29,-370.9 412.82,-370.15 412.36,-369.4 411.94,-368.64 411.59,-367.87 411.24,-367.09 410.94,-366.3 410.7,-365.51 410.46,-364.71 410.28,-363.91 410.16,-363.11 410.04,-362.3 409.98,-361.49 409.98,-360.68 409.98,-360.68 447.28,-360.68 447.28,-360.68"/>
<path fill="#ffddcc" stroke="black" stroke-width="0.5" d="M447.28,-360.68C447.28,-360.68 409.98,-360.68 409.98,-360.68 409.98,-359.87 410.04,-359.06 410.16,-358.26 410.28,-357.45 410.46,-356.65 410.7,-355.85 410.94,-355.06 411.24,-354.27 411.59,-353.5 411.94,-352.72 412.36,-351.96 412.82,-351.21 413.29,-350.46 413.81,-349.73 414.39,-349.01 414.96,-348.3 415.59,-347.61 416.27,-346.93 416.95,-346.26 417.68,-345.61 418.45,-344.98 419.23,-344.35 420.05,-343.75 420.91,-343.18 421.77,-342.61 422.68,-342.06 423.62,-341.55 424.57,-341.04 425.55,-340.55 426.56,-340.1 427.58,-339.65 428.62,-339.24 429.7,-338.85 430.78,-338.47 431.88,-338.13 433.01,-337.82 434.14,-337.51 435.29,-337.23 436.46,-337 437.62,-336.76 438.81,-336.57 440.01,-336.41 441.2,-336.25 442.41,-336.13 443.63,-336.05 444.84,-335.97 446.06,-335.93 447.28,-335.93 448.51,-335.93 449.73,-335.97 450.94,-336.05 452.16,-336.13 453.36,-336.25 454.56,-336.41 455.76,-336.57 456.94,-336.76 458.11,-337 459.28,-337.23 460.43,-337.51 461.56,-337.82 462.69,-338.13 463.79,-338.47 464.87,-338.85 465.94,-339.24 466.99,-339.65 468.01,-340.1 469.02,-340.55 470,-341.04 470.95,-341.55 471.89,-342.06 472.8,-342.61 473.66,-343.18 474.52,-343.75 475.34,-344.35 476.12,-344.98 476.89,-345.61 477.62,-346.26 478.3,-346.93 478.98,-347.61 479.6,-348.3 480.18,-349.01 480.76,-349.73 481.28,-350.46 481.74,-351.21 482.21,-351.96 482.62,-352.72 482.98,-353.5 483.33,-354.27 483.63,-355.06 483.87,-355.85 484.11,-356.65 484.28,-357.45 484.4,-358.26 484.52,-359.06 484.58,-359.87 484.58,-360.68 484.58,-360.68 447.28,-360.68 447.28,-360.68"/>
<ellipse fill="none" stroke="black" cx="447.28" cy="-360.68" rx="37.3" ry="24.75"/>
<text xml:space="preserve" text-anchor="start" x="439.41" y="-364.73" font-family="Times,serif" font-size="11.00">256</text>
<text xml:space="preserve" text-anchor="start" x="428.91" y="-356.58" font-family="Times,serif" font-size="8.00">1 0000 0000</text>
<text xml:space="preserve" text-anchor="start" x="443.53" y="-348.58" font-family="Times,serif" font-size="8.00">2⁸</text>
</g>
<!-- n128&#45;&gt;n256 -->
<g id="edge7" class="edge">
<title>n128&#45;&gt;n256</title>
<path fill="none" stroke="#6688bb" d="M442.09,-431.47C442.86,-421.06 443.79,-408.67 444.64,-397.24"/>
<polygon fill="#6688bb" stroke="#6688bb" points="448.12,-397.55 445.38,-387.32 441.14,-397.03 448.12,-397.55"/>
<text xml:space="preserve" text-anchor="middle" x="451.12" y="-405.38" font-family="Times,serif" font-size="9.00" fill="#6688bb"> ×2 </text>
</g>
<!-- n160&#45;&gt;n53 -->
<g id="edge12" class="edge">
<title>n160&#45;&gt;n53</title>
<path fill="none" stroke="#ddbb99" d="M181.25,-143.48C180.81,-133.06 180.28,-120.68 179.8,-109.25"/>
<polygon fill="#ddbb99" stroke="#ddbb99" points="183.3,-109.17 179.38,-99.33 176.3,-109.47 183.3,-109.17"/>
<text xml:space="preserve" text-anchor="middle" x="196.15" y="-117.39" font-family="Times,serif" font-size="9.00" fill="#ddbb99"> (m&#45;1)/3 </text>
</g>
<!-- n320 -->
<g id="node31" class="node">
<title>n320</title>
<ellipse fill="#ccddff" stroke="black" cx="262.28" cy="-72.69" rx="37.3" ry="24.75"/>
<text xml:space="preserve" text-anchor="start" x="254.41" y="-76.74" font-family="Times,serif" font-size="11.00">320</text>
<text xml:space="preserve" text-anchor="start" x="243.91" y="-68.59" font-family="Times,serif" font-size="8.00">1 0100 0000</text>
<text xml:space="preserve" text-anchor="start" x="255.16" y="-60.59" font-family="Times,serif" font-size="8.00">2⁶·5</text>
</g>
<!-- n160&#45;&gt;n320 -->
<g id="edge11" class="edge">
<title>n160&#45;&gt;n320</title>
<path fill="none" stroke="#6688bb" d="M199.64,-147.29C210.6,-134.41 224.94,-117.56 237.14,-103.23"/>
<polygon fill="#6688bb" stroke="#6688bb" points="239.61,-105.73 243.42,-95.85 234.28,-101.2 239.61,-105.73"/>
<text xml:space="preserve" text-anchor="middle" x="231.81" y="-117.39" font-family="Times,serif" font-size="9.00" fill="#6688bb"> ×2 </text>
</g>
<!-- n336 -->
<g id="node32" class="node">
<title>n336</title>
<ellipse fill="#ccddff" stroke="black" cx="355.28" cy="-72.69" rx="37.3" ry="24.75"/>
<text xml:space="preserve" text-anchor="start" x="347.41" y="-76.74" font-family="Times,serif" font-size="11.00">336</text>
<text xml:space="preserve" text-anchor="start" x="336.91" y="-68.59" font-family="Times,serif" font-size="8.00">1 0101 0000</text>
<text xml:space="preserve" text-anchor="start" x="344.78" y="-60.59" font-family="Times,serif" font-size="8.00">2⁴·3·7</text>
</g>
<!-- n168&#45;&gt;n336 -->
<g id="edge13" class="edge">
<title>n168&#45;&gt;n336</title>
<path fill="none" stroke="#6688bb" d="M355.28,-143.48C355.28,-133.06 355.28,-120.68 355.28,-109.25"/>
<polygon fill="#6688bb" stroke="#6688bb" points="358.78,-109.33 355.28,-99.33 351.78,-109.33 358.78,-109.33"/>
<text xml:space="preserve" text-anchor="middle" x="362.41" y="-117.39" font-family="Times,serif" font-size="9.00" fill="#6688bb"> ×2 </text>
</g>
<!-- n340 -->
<g id="node33" class="node">
<title>n340</title>
<path fill="#ccddff" stroke="black" stroke-width="0.5" d="M448.28,-72.69C448.28,-72.69 485.58,-72.69 485.58,-72.69 485.58,-73.5 485.52,-74.31 485.4,-75.11 485.28,-75.92 485.11,-76.72 484.87,-77.52 484.63,-78.31 484.33,-79.1 483.98,-79.87 483.62,-80.65 483.21,-81.41 482.74,-82.16 482.28,-82.91 481.76,-83.64 481.18,-84.36 480.6,-85.07 479.98,-85.76 479.3,-86.44 478.62,-87.11 477.89,-87.76 477.12,-88.39 476.34,-89.02 475.52,-89.62 474.66,-90.19 473.8,-90.76 472.89,-91.31 471.95,-91.82 471,-92.33 470.02,-92.82 469.01,-93.27 467.99,-93.72 466.94,-94.13 465.87,-94.52 464.79,-94.9 463.69,-95.24 462.56,-95.55 461.43,-95.86 460.28,-96.14 459.11,-96.37 457.94,-96.61 456.76,-96.8 455.56,-96.96 454.36,-97.12 453.16,-97.24 451.94,-97.32 450.73,-97.4 449.51,-97.44 448.28,-97.44 447.06,-97.44 445.84,-97.4 444.63,-97.32 443.41,-97.24 442.2,-97.12 441.01,-96.96 439.81,-96.8 438.62,-96.61 437.46,-96.37 436.29,-96.14 435.14,-95.86 434.01,-95.55 432.88,-95.24 431.78,-94.9 430.7,-94.52 429.62,-94.13 428.58,-93.72 427.56,-93.27 426.55,-92.82 425.57,-92.33 424.62,-91.82 423.68,-91.31 422.77,-90.76 421.91,-90.19 421.05,-89.62 420.23,-89.02 419.45,-88.39 418.68,-87.76 417.95,-87.11 417.27,-86.44 416.59,-85.76 415.96,-85.07 415.39,-84.36 414.81,-83.64 414.29,-82.91 413.82,-82.16 413.36,-81.41 412.94,-80.65 412.59,-79.87 412.24,-79.1 411.94,-78.31 411.7,-77.52 411.46,-76.72 411.28,-75.92 411.16,-75.11 411.04,-74.31 410.98,-73.5 410.98,-72.69 410.98,-72.69 448.28,-72.69 448.28,-72.69"/>
<path fill="#ffddcc" stroke="black" stroke-width="0.5" d="M448.28,-72.69C448.28,-72.69 410.98,-72.69 410.98,-72.69 410.98,-71.88 411.04,-71.07 411.16,-70.26 411.28,-69.46 411.46,-68.65 411.7,-67.86 411.94,-67.07 412.24,-66.28 412.59,-65.5 412.94,-64.73 413.36,-63.97 413.82,-63.22 414.29,-62.47 414.81,-61.74 415.39,-61.02 415.96,-60.31 416.59,-59.61 417.27,-58.94 417.95,-58.27 418.68,-57.61 419.45,-56.99 420.23,-56.36 421.05,-55.76 421.91,-55.19 422.77,-54.62 423.68,-54.07 424.62,-53.56 425.57,-53.04 426.55,-52.56 427.56,-52.11 428.58,-51.66 429.62,-51.24 430.7,-50.86 431.78,-50.48 432.88,-50.13 434.01,-49.82 435.14,-49.51 436.29,-49.24 437.46,-49.01 438.62,-48.77 439.81,-48.57 441.01,-48.42 442.2,-48.26 443.41,-48.14 444.63,-48.06 445.84,-47.98 447.06,-47.94 448.28,-47.94 449.51,-47.94 450.73,-47.98 451.94,-48.06 453.16,-48.14 454.36,-48.26 455.56,-48.42 456.76,-48.57 457.94,-48.77 459.11,-49.01 460.28,-49.24 461.43,-49.51 462.56,-49.82 463.69,-50.13 464.79,-50.48 465.87,-50.86 466.94,-51.24 467.99,-51.66 469.01,-52.11 470.02,-52.56 471,-53.04 471.95,-53.56 472.89,-54.07 473.8,-54.62 474.66,-55.19 475.52,-55.76 476.34,-56.36 477.12,-56.99 477.89,-57.61 478.62,-58.27 479.3,-58.94 479.98,-59.61 480.6,-60.31 481.18,-61.02 481.76,-61.74 482.28,-62.47 482.74,-63.22 483.21,-63.97 483.62,-64.73 483.98,-65.5 484.33,-66.28 484.63,-67.07 484.87,-67.86 485.11,-68.65 485.28,-69.46 485.4,-70.26 485.52,-71.07 485.58,-71.88 485.58,-72.69 485.58,-72.69 448.28,-72.69 448.28,-72.69"/>
<ellipse fill="none" stroke="black" cx="448.28" cy="-72.69" rx="37.3" ry="24.75"/>
<text xml:space="preserve" text-anchor="start" x="440.41" y="-76.74" font-family="Times,serif" font-size="11.00">340</text>
<text xml:space="preserve" text-anchor="start" x="429.91" y="-68.59" font-family="Times,serif" font-size="8.00">1 0101 0100</text>
<text xml:space="preserve" text-anchor="start" x="436.66" y="-60.59" font-family="Times,serif" font-size="8.00">2²·5·17</text>
</g>
<!-- n170&#45;&gt;n340 -->
<g id="edge14" class="edge">
<title>n170&#45;&gt;n340</title>
<path fill="none" stroke="#6688bb" d="M447.54,-143.48C447.65,-133.06 447.78,-120.68 447.91,-109.25"/>
<polygon fill="#6688bb" stroke="#6688bb" points="451.4,-109.36 448.01,-99.33 444.41,-109.29 451.4,-109.36"/>
<text xml:space="preserve" text-anchor="middle" x="454.94" y="-117.39" font-family="Times,serif" font-size="9.00" fill="#6688bb"> ×2 </text>
</g>
<!-- n256&#45;&gt;n85 -->
<g id="edge20" class="edge">
<title>n256&#45;&gt;n85</title>
<path fill="none" stroke="#ddbb99" d="M447.28,-335.47C447.28,-325.06 447.28,-312.67 447.28,-301.25"/>
<polygon fill="#ddbb99" stroke="#ddbb99" points="450.78,-301.32 447.28,-291.32 443.78,-301.32 450.78,-301.32"/>
<text xml:space="preserve" text-anchor="middle" x="463.03" y="-309.38" font-family="Times,serif" font-size="9.00" fill="#ddbb99"> (m&#45;1)/3 </text>
</g>
<!-- n512 -->
<g id="node35" class="node">
<title>n512</title>
<ellipse fill="#ccddff" stroke="black" cx="538.28" cy="-264.68" rx="39.95" ry="24.75"/>
<text xml:space="preserve" text-anchor="start" x="530.41" y="-268.73" font-family="Times,serif" font-size="11.00">512</text>
<text xml:space="preserve" text-anchor="start" x="518.03" y="-260.58" font-family="Times,serif" font-size="8.00">10 0000 0000</text>
<text xml:space="preserve" text-anchor="start" x="534.53" y="-252.58" font-family="Times,serif" font-size="8.00">2⁹</text>
</g>
<!-- n256&#45;&gt;n512 -->
<g id="edge19" class="edge">
<title>n256&#45;&gt;n512</title>
<path fill="none" stroke="#6688bb" d="M467.03,-339.29C479.7,-326.2 496.35,-309 510.36,-294.52"/>
<polygon fill="#6688bb" stroke="#6688bb" points="512.77,-297.07 517.21,-287.45 507.74,-292.2 512.77,-297.07"/>
<text xml:space="preserve" text-anchor="middle" x="502.64" y="-309.38" font-family="Times,serif" font-size="9.00" fill="#6688bb"> ×2 </text>
</g>
<!-- ghost_out_320_5 -->
<g id="node43" class="node">
<title>ghost_out_320_5</title>
</g>
<!-- n320&#45;&gt;ghost_out_320_5 -->
<g id="edge42" class="edge">
<title>n320&#45;&gt;ghost_out_320_5</title>
<path fill="none" stroke="#6688bb" stroke-dasharray="5,2" d="M262.28,-47.51C262.28,-35.82 262.28,-22.34 262.28,-12.99"/>
<polygon fill="#6688bb" stroke="#6688bb" points="265.78,-13.03 262.28,-3.03 258.78,-13.03 265.78,-13.03"/>
<text xml:space="preserve" text-anchor="middle" x="269.41" y="-21.39" font-family="Times,serif" font-size="9.00" fill="#6688bb"> ×2 </text>
</g>
<!-- ghost_out_336_4 -->
<g id="node42" class="node">
<title>ghost_out_336_4</title>
</g>
<!-- n336&#45;&gt;ghost_out_336_4 -->
<g id="edge41" class="edge">
<title>n336&#45;&gt;ghost_out_336_4</title>
<path fill="none" stroke="#6688bb" stroke-dasharray="5,2" d="M355.28,-47.51C355.28,-35.82 355.28,-22.34 355.28,-12.99"/>
<polygon fill="#6688bb" stroke="#6688bb" points="358.78,-13.03 355.28,-3.03 351.78,-13.03 358.78,-13.03"/>
<text xml:space="preserve" text-anchor="middle" x="362.41" y="-21.39" font-family="Times,serif" font-size="9.00" fill="#6688bb"> ×2 </text>
</g>
<!-- ghost_out_340_2 -->
<g id="node40" class="node">
<title>ghost_out_340_2</title>
</g>
<!-- n340&#45;&gt;ghost_out_340_2 -->
<g id="edge39" class="edge">
<title>n340&#45;&gt;ghost_out_340_2</title>
<path fill="none" stroke="#6688bb" stroke-dasharray="5,2" d="M441.85,-47.91C438.6,-35.87 434.81,-21.86 432.25,-12.39"/>
<polygon fill="#6688bb" stroke="#6688bb" points="435.69,-11.72 429.7,-2.98 428.93,-13.54 435.69,-11.72"/>
<text xml:space="preserve" text-anchor="middle" x="443.65" y="-21.39" font-family="Times,serif" font-size="9.00" fill="#6688bb"> ×2 </text>
</g>
<!-- ghost_out_340_3 -->
<g id="node41" class="node">
<title>ghost_out_340_3</title>
</g>
<!-- n340&#45;&gt;ghost_out_340_3 -->
<g id="edge40" class="edge">
<title>n340&#45;&gt;ghost_out_340_3</title>
<path fill="none" stroke="#ddbb99" stroke-dasharray="5,2" d="M454.38,-47.91C457.46,-35.87 461.05,-21.86 463.48,-12.39"/>
<polygon fill="#ddbb99" stroke="#ddbb99" points="466.8,-13.54 465.89,-2.98 460.02,-11.8 466.8,-13.54"/>
<text xml:space="preserve" text-anchor="middle" x="477.21" y="-21.39" font-family="Times,serif" font-size="9.00" fill="#ddbb99"> (m&#45;1)/3 </text>
</g>
<!-- n341 -->
<g id="node34" class="node">
<title>n341</title>
<ellipse fill="#0045cf" stroke="black" cx="541.28" cy="-72.69" rx="37.3" ry="24.75"/>
<text xml:space="preserve" text-anchor="start" x="533.41" y="-76.74" font-family="Times,serif" font-size="11.00" fill="white">341</text>
<text xml:space="preserve" text-anchor="start" x="522.91" y="-68.59" font-family="Times,serif" font-size="8.00" fill="white">1 0101 0101</text>
<text xml:space="preserve" text-anchor="start" x="532.28" y="-60.59" font-family="Times,serif" font-size="8.00" fill="white">11·31</text>
</g>
<!-- ghost_out_341_1 -->
<g id="node39" class="node">
<title>ghost_out_341_1</title>
</g>
<!-- n341&#45;&gt;ghost_out_341_1 -->
<g id="edge38" class="edge">
<title>n341&#45;&gt;ghost_out_341_1</title>
<path fill="none" stroke="#6688bb" stroke-dasharray="5,2" d="M541.28,-47.51C541.28,-35.82 541.28,-22.34 541.28,-12.99"/>
<polygon fill="#6688bb" stroke="#6688bb" points="544.78,-13.03 541.28,-3.03 537.78,-13.03 544.78,-13.03"/>
<text xml:space="preserve" text-anchor="middle" x="548.41" y="-21.39" font-family="Times,serif" font-size="9.00" fill="#6688bb"> ×2 </text>
</g>
<!-- n1024 -->
<g id="node36" class="node">
<title>n1024</title>
<path fill="#ccddff" stroke="black" stroke-width="0.5" d="M541.28,-168.69C541.28,-168.69 583.89,-168.69 583.89,-168.69 583.89,-169.5 583.82,-170.31 583.68,-171.11 583.55,-171.92 583.34,-172.72 583.07,-173.51 582.8,-174.31 582.46,-175.1 582.05,-175.87 581.65,-176.65 581.18,-177.41 580.64,-178.16 580.11,-178.91 579.51,-179.64 578.86,-180.35 578.2,-181.07 577.48,-181.76 576.71,-182.44 575.93,-183.11 575.1,-183.76 574.22,-184.39 573.33,-185.01 572.4,-185.61 571.41,-186.19 570.42,-186.76 569.39,-187.3 568.31,-187.82 567.23,-188.33 566.11,-188.81 564.95,-189.26 563.79,-189.71 562.6,-190.13 561.37,-190.51 560.14,-190.89 558.88,-191.24 557.59,-191.55 556.3,-191.86 554.99,-192.13 553.65,-192.37 552.32,-192.6 550.96,-192.8 549.6,-192.96 548.23,-193.12 546.85,-193.24 545.46,-193.32 544.07,-193.4 542.68,-193.43 541.28,-193.43 539.89,-193.43 538.5,-193.4 537.11,-193.32 535.72,-193.24 534.34,-193.12 532.97,-192.96 531.61,-192.8 530.25,-192.6 528.92,-192.37 527.58,-192.13 526.27,-191.86 524.98,-191.55 523.69,-191.24 522.43,-190.89 521.2,-190.51 519.97,-190.13 518.77,-189.71 517.62,-189.26 516.46,-188.81 515.34,-188.33 514.26,-187.82 513.18,-187.3 512.15,-186.76 511.16,-186.19 510.17,-185.61 509.24,-185.01 508.35,-184.39 507.47,-183.76 506.64,-183.11 505.86,-182.44 505.09,-181.76 504.37,-181.07 503.71,-180.35 503.05,-179.64 502.46,-178.91 501.92,-178.16 501.39,-177.41 500.92,-176.65 500.52,-175.87 500.11,-175.1 499.77,-174.31 499.5,-173.51 499.23,-172.72 499.02,-171.92 498.89,-171.11 498.75,-170.31 498.68,-169.5 498.68,-168.69 498.68,-168.69 541.28,-168.69 541.28,-168.69"/>
<path fill="#ffddcc" stroke="black" stroke-width="0.5" d="M541.28,-168.69C541.28,-168.69 498.68,-168.69 498.68,-168.69 498.68,-167.88 498.75,-167.07 498.89,-166.26 499.02,-165.45 499.23,-164.65 499.5,-163.86 499.77,-163.06 500.11,-162.28 500.52,-161.5 500.92,-160.73 501.39,-159.96 501.92,-159.22 502.46,-158.47 503.05,-157.73 503.71,-157.02 504.37,-156.31 505.09,-155.61 505.86,-154.94 506.64,-154.26 507.47,-153.61 508.35,-152.99 509.24,-152.36 510.17,-151.76 511.16,-151.19 512.15,-150.61 513.18,-150.07 514.26,-149.56 515.34,-149.04 516.46,-148.56 517.62,-148.11 518.77,-147.66 519.97,-147.24 521.2,-146.86 522.43,-146.48 523.69,-146.13 524.98,-145.82 526.27,-145.51 527.58,-145.24 528.92,-145 530.25,-144.77 531.61,-144.57 532.97,-144.41 534.34,-144.25 535.72,-144.14 537.11,-144.06 538.5,-143.98 539.89,-143.94 541.28,-143.94 542.68,-143.94 544.07,-143.98 545.46,-144.06 546.85,-144.14 548.23,-144.25 549.6,-144.41 550.96,-144.57 552.32,-144.77 553.65,-145 554.99,-145.24 556.3,-145.51 557.59,-145.82 558.88,-146.13 560.14,-146.48 561.37,-146.86 562.6,-147.24 563.79,-147.66 564.95,-148.11 566.11,-148.56 567.23,-149.04 568.31,-149.56 569.39,-150.07 570.42,-150.61 571.41,-151.19 572.4,-151.76 573.33,-152.36 574.22,-152.99 575.1,-153.61 575.93,-154.26 576.71,-154.94 577.48,-155.61 578.2,-156.31 578.86,-157.02 579.51,-157.73 580.11,-158.47 580.64,-159.22 581.18,-159.96 581.65,-160.73 582.05,-161.5 582.46,-162.28 582.8,-163.06 583.07,-163.86 583.34,-164.65 583.55,-165.45 583.68,-166.26 583.82,-167.07 583.89,-167.88 583.89,-168.69 583.89,-168.69 541.28,-168.69 541.28,-168.69"/>
<ellipse fill="none" stroke="black" cx="541.28" cy="-168.69" rx="42.6" ry="24.75"/>
<text xml:space="preserve" text-anchor="start" x="530.78" y="-172.74" font-family="Times,serif" font-size="11.00">1024</text>
<text xml:space="preserve" text-anchor="start" x="519.16" y="-164.59" font-family="Times,serif" font-size="8.00">100 0000 0000</text>
<text xml:space="preserve" text-anchor="start" x="536.41" y="-156.59" font-family="Times,serif" font-size="8.00">2¹⁰</text>
</g>
<!-- n512&#45;&gt;n1024 -->
<g id="edge29" class="edge">
<title>n512&#45;&gt;n1024</title>
<path fill="none" stroke="#6688bb" d="M539.06,-239.48C539.39,-229.06 539.78,-216.67 540.15,-205.25"/>
<polygon fill="#6688bb" stroke="#6688bb" points="543.65,-205.43 540.47,-195.32 536.65,-205.21 543.65,-205.43"/>
<text xml:space="preserve" text-anchor="middle" x="547" y="-213.38" font-family="Times,serif" font-size="9.00" fill="#6688bb"> ×2 </text>
</g>
<!-- n1024&#45;&gt;n341 -->
<g id="edge5" class="edge">
<title>n1024&#45;&gt;n341</title>
<path fill="none" stroke="#ddbb99" d="M541.28,-143.48C541.28,-133.06 541.28,-120.68 541.28,-109.25"/>
<polygon fill="#ddbb99" stroke="#ddbb99" points="544.78,-109.33 541.28,-99.33 537.78,-109.33 544.78,-109.33"/>
<text xml:space="preserve" text-anchor="middle" x="557.03" y="-117.39" font-family="Times,serif" font-size="9.00" fill="#ddbb99"> (m&#45;1)/3 </text>
</g>
<!-- n2048 -->
<g id="node37" class="node">
<title>n2048</title>
<ellipse fill="#ccddff" stroke="black" cx="642.28" cy="-72.69" rx="45.25" ry="24.75"/>
<text xml:space="preserve" text-anchor="start" x="631.78" y="-76.74" font-family="Times,serif" font-size="11.00">2048</text>
<text xml:space="preserve" text-anchor="start" x="618.28" y="-68.59" font-family="Times,serif" font-size="8.00">1000 0000 0000</text>
<text xml:space="preserve" text-anchor="start" x="638.16" y="-60.59" font-family="Times,serif" font-size="8.00">2¹¹</text>
</g>
<!-- n1024&#45;&gt;n2048 -->
<g id="edge4" class="edge">
<title>n1024&#45;&gt;n2048</title>
<path fill="none" stroke="#6688bb" d="M563.2,-147.29C577.4,-134.08 596.09,-116.68 611.73,-102.12"/>
<polygon fill="#6688bb" stroke="#6688bb" points="614.02,-104.78 618.95,-95.4 609.25,-99.65 614.02,-104.78"/>
<text xml:space="preserve" text-anchor="middle" x="601.94" y="-117.39" font-family="Times,serif" font-size="9.00" fill="#6688bb"> ×2 </text>
</g>
<!-- ghost_out_2048_0 -->
<g id="node38" class="node">
<title>ghost_out_2048_0</title>
</g>
<!-- n2048&#45;&gt;ghost_out_2048_0 -->
<g id="edge37" class="edge">
<title>n2048&#45;&gt;ghost_out_2048_0</title>
<path fill="none" stroke="#6688bb" stroke-dasharray="5,2" d="M642.28,-47.51C642.28,-35.82 642.28,-22.34 642.28,-12.99"/>
<polygon fill="#6688bb" stroke="#6688bb" points="645.78,-13.03 642.28,-3.03 638.78,-13.03 645.78,-13.03"/>
<text xml:space="preserve" text-anchor="middle" x="649.41" y="-21.39" font-family="Times,serif" font-size="9.00" fill="#6688bb"> ×2 </text>
</g>
</g>
</svg>
