<?xml version="1.0" encoding="UTF-8" standalone="no"?>
<!DOCTYPE svg PUBLIC "-//W3C//DTD SVG 1.1//EN"
 "http://www.w3.org/Graphics/SVG/1.1/DTD/svg11.dtd">
<!-- Generated by graphviz version 14.1.3 (20260303.0454)
 -->
<!-- Pages: 1 -->
<svg width="566pt" height="999pt"
 viewBox="0.00 0.00 566.00 999.00" xmlns="http://www.w3.org/2000/svg" xmlns:xlink="http://www.w3.org/1999/xlink">
<g id="graph0" class="graph" transform="scale(1 1) rotate(0) translate(4 995.44)">
<polygon fill="white" stroke="none" points="-4,4 -4,-995.44 562,-995.44 562,4 -4,4"/>
<!-- n1 -->
<g id="node1" class="node">
<title>n1</title>
<ellipse fill="#0045cf" stroke="black" stroke-width="3" cx="253" cy="-973.44" rx="27" ry="18"/>
<text xml:space="preserve" text-anchor="middle" x="253" y="-969.74" font-family="Times,serif" font-size="11.00" fill="white">1</text>
</g>
<!-- n2 -->
<g id="node2" class="node">
<title>n2</title>
<ellipse fill="#ccddff" stroke="black" cx="253" cy="-890.94" rx="27" ry="18"/>
<text xml:space="preserve" text-anchor="middle" x="253" y="-887.24" font-family="Times,serif" font-size="11.00">2</text>
</g>
<!-- n1&#45;&gt;n2 -->
<g id="edge1" class="edge">
<title>n1&#45;&gt;n2</title>
<path fill="none" stroke="#6688bb" d="M253,-954.17C253,-944.29 253,-931.87 253,-920.72"/>
<polygon fill="#6688bb" stroke="#6688bb" points="256.5,-920.82 253,-910.82 249.5,-920.82 256.5,-920.82"/>
<text xml:space="preserve" text-anchor="middle" x="260.12" y="-928.89" font-family="Times,serif" font-size="9.00" fill="#6688bb"> ×2 </text>
</g>
<!-- n4 -->
<g id="node4" class="node">
<title>n4</title>
<ellipse fill="#ccddff" stroke="black" cx="253" cy="-808.44" rx="27" ry="18"/>
<text xml:space="preserve" text-anchor="middle" x="253" y="-804.74" font-family="Times,serif" font-size="11.00">4</text>
</g>
<!-- n2&#45;&gt;n4 -->
<g id="edge15" class="edge">
<title>n2&#45;&gt;n4</title>
<path fill="none" stroke="#6688bb" d="M253,-872.47C253,-862.45 253,-849.62 253,-838.15"/>
<polygon fill="#6688bb" stroke="#6688bb" points="256.5,-838.39 253,-828.39 249.5,-838.39 256.5,-838.39"/>
<text xml:space="preserve" text-anchor="middle" x="260.12" y="-846.39" font-family="Times,serif" font-size="9.00" fill="#6688bb"> ×2 </text>
</g>
<!-- n3 -->
<g id="node3" class="node">
<title>n3</title>
<ellipse fill="#0045cf" stroke="black" cx="84" cy="-395.94" rx="27" ry="18"/>
<text xml:space="preserve" text-anchor="middle" x="84" y="-392.24" font-family="Times,serif" font-size="11.00" fill="white">3</text>
</g>
<!-- n6 -->
<g id="node6" class="node">
<title>n6</title>
<ellipse fill="#ccddff" stroke="black" cx="50" cy="-313.44" rx="27" ry="18"/>
<text xml:space="preserve" text-anchor="middle" x="50" y="-309.74" font-family="Times,serif" font-size="11.00">6</text>
</g>
<!-- n3&#45;&gt;n6 -->
<g id="edge22" class="edge">
<title>n3&#45;&gt;n6</title>
<path fill="none" stroke="#6688bb" d="M76.96,-378.26C72.49,-367.68 66.6,-353.75 61.47,-341.6"/>
<polygon fill="#6688bb" stroke="#6688bb" points="64.74,-340.34 57.62,-332.49 58.29,-343.07 64.74,-340.34"/>
<text xml:space="preserve" text-anchor="middle" x="76.16" y="-351.39" font-family="Times,serif" font-size="9.00" fill="#6688bb"> ×2 </text>
</g>
<!-- n8 -->
<g id="node7" class="node">
<title>n8</title>
<ellipse fill="#ccddff" stroke="black" cx="253" cy="-725.94" rx="27" ry="18"/>
<text xml:space="preserve" text-anchor="middle" x="253" y="-722.24" font-family="Times,serif" font-size="11.00">8</text>
</g>
<!-- n4&#45;&gt;n8 -->
<g id="edge24" class="edge">
<title>n4&#45;&gt;n8</title>
<path fill="none" stroke="#6688bb" d="M253,-789.97C253,-779.95 253,-767.12 253,-755.65"/>
<polygon fill="#6688bb" stroke="#6688bb" points="256.5,-755.89 253,-745.89 249.5,-755.89 256.5,-755.89"/>
<text xml:space="preserve" text-anchor="middle" x="260.12" y="-763.89" font-family="Times,serif" font-size="9.00" fill="#6688bb"> ×2 </text>
</g>
<!-- n5 -->
<g id="node5" class="node">
<title>n5</title>
<ellipse fill="#0045cf" stroke="black" cx="218" cy="-560.94" rx="27" ry="18"/>
<text xml:space="preserve" text-anchor="middle" x="218" y="-557.24" font-family="Times,serif" font-size="11.00" fill="white">5</text>
</g>
<!-- n10 -->
<g id="node8" class="node">
<title>n10</title>
<path fill="#ccddff" stroke="black" stroke-width="0.5" d="M157,-478.44C157,-478.44 184,-478.44 184,-478.44 184,-479.03 183.96,-479.62 183.87,-480.2 183.78,-480.79 183.65,-481.37 183.48,-481.95 183.31,-482.53 183.09,-483.1 182.84,-483.67 182.58,-484.23 182.28,-484.78 181.94,-485.33 181.61,-485.87 181.23,-486.41 180.81,-486.93 180.4,-487.44 179.94,-487.95 179.45,-488.44 178.96,-488.93 178.43,-489.4 177.87,-489.86 177.31,-490.31 176.72,-490.75 176.09,-491.17 175.47,-491.58 174.81,-491.98 174.13,-492.35 173.45,-492.73 172.74,-493.08 172,-493.41 171.27,-493.73 170.51,-494.04 169.73,-494.31 168.95,-494.59 168.15,-494.84 167.33,-495.07 166.52,-495.3 165.68,-495.49 164.84,-495.66 163.99,-495.84 163.13,-495.98 162.27,-496.09 161.4,-496.21 160.53,-496.3 159.65,-496.35 158.77,-496.41 157.88,-496.44 157,-496.44 156.12,-496.44 155.23,-496.41 154.35,-496.35 153.47,-496.3 152.6,-496.21 151.73,-496.09 150.87,-495.98 150.01,-495.84 149.16,-495.66 148.32,-495.49 147.48,-495.3 146.67,-495.07 145.85,-494.84 145.05,-494.59 144.27,-494.31 143.49,-494.04 142.73,-493.73 142,-493.41 141.26,-493.08 140.55,-492.73 139.87,-492.35 139.19,-491.98 138.53,-491.58 137.91,-491.17 137.28,-490.75 136.69,-490.31 136.13,-489.86 135.57,-489.4 135.04,-488.93 134.55,-488.44 134.06,-487.95 133.6,-487.44 133.19,-486.93 132.77,-486.41 132.39,-485.87 132.06,-485.33 131.72,-484.78 131.42,-484.23 131.16,-483.67 130.91,-483.1 130.69,-482.53 130.52,-481.95 130.35,-481.37 130.22,-480.79 130.13,-480.2 130.04,-479.62 130,-479.03 130,-478.44 130,-478.44 157,-478.44 157,-478.44"/>
<path fill="#ffddcc" stroke="black" stroke-width="0.5" d="M157,-478.44C157,-478.44 130,-478.44 130,-478.44 130,-477.85 130.04,-477.26 130.13,-476.68 130.22,-476.09 130.35,-475.51 130.52,-474.93 130.69,-474.35 130.91,-473.78 131.16,-473.21 131.42,-472.65 131.72,-472.1 132.06,-471.55 132.39,-471.01 132.77,-470.47 133.19,-469.95 133.6,-469.44 134.06,-468.93 134.55,-468.44 135.04,-467.95 135.57,-467.48 136.13,-467.02 136.69,-466.57 137.28,-466.13 137.91,-465.71 138.53,-465.3 139.19,-464.9 139.87,-464.53 140.55,-464.15 141.26,-463.8 142,-463.47 142.73,-463.15 143.49,-462.84 144.27,-462.57 145.05,-462.29 145.85,-462.04 146.67,-461.81 147.48,-461.58 148.32,-461.39 149.16,-461.22 150.01,-461.04 150.87,-460.9 151.73,-460.79 152.6,-460.67 153.47,-460.58 154.35,-460.53 155.23,-460.47 156.12,-460.44 157,-460.44 157.88,-460.44 158.77,-460.47 159.65,-460.53 160.53,-460.58 161.4,-460.67 162.27,-460.79 163.13,-460.9 163.99,-461.04 164.84,-461.22 165.68,-461.39 166.52,-461.58 167.33,-461.81 168.15,-462.04 168.95,-462.29 169.73,-462.57 170.51,-462.84 171.27,-463.15 172,-463.47 172.74,-463.8 173.45,-464.15 174.13,-464.53 174.81,-464.9 175.47,-465.3 176.09,-465.71 176.72,-466.13 177.31,-466.57 177.87,-467.02 178.43,-467.48 178.96,-467.95 179.45,-468.44 179.94,-468.93 180.4,-469.44 180.81,-469.95 181.23,-470.47 181.61,-471.01 181.94,-471.55 182.28,-472.1 182.58,-472.65 182.84,-473.21 183.09,-473.78 183.31,-474.35 183.48,-474.93 183.65,-475.51 183.78,-476.09 183.87,-476.68 183.96,-477.26 184,-477.85 184,-478.44 184,-478.44 157,-478.44 157,-478.44"/>
<ellipse fill="none" stroke="black" cx="157" cy="-478.44" rx="27" ry="18"/>
<text xml:space="preserve" text-anchor="middle" x="157" y="-474.74" font-family="Times,serif" font-size="11.00">10</text>
</g>
<!-- n5&#45;&gt;n10 -->
<g id="edge28" class="edge">
<title>n5&#45;&gt;n10</title>
<path fill="none" stroke="#6688bb" d="M206.24,-544.42C197.55,-532.95 185.54,-517.1 175.56,-503.93"/>
<polygon fill="#6688bb" stroke="#6688bb" points="178.47,-501.98 169.64,-496.12 172.89,-506.2 178.47,-501.98"/>
<text xml:space="preserve" text-anchor="middle" x="198.28" y="-516.39" font-family="Times,serif" font-size="9.00" fill="#6688bb"> ×2 </text>
</g>
<!-- n12 -->
<g id="node9" class="node">
<title>n12</title>
<ellipse fill="#ccddff" stroke="black" cx="27" cy="-230.94" rx="27" ry="18"/>
<text xml:space="preserve" text-anchor="middle" x="27" y="-227.24" font-family="Times,serif" font-size="11.00">12</text>
</g>
<!-- n6&#45;&gt;n12 -->
<g id="edge30" class="edge">
<title>n6&#45;&gt;n12</title>
<path fill="none" stroke="#6688bb" d="M45.12,-295.37C42.16,-285.02 38.32,-271.56 34.93,-259.71"/>
<polygon fill="#6688bb" stroke="#6688bb" points="38.4,-259.1 32.29,-250.44 31.67,-261.02 38.4,-259.1"/>
<text xml:space="preserve" text-anchor="middle" x="47" y="-268.89" font-family="Times,serif" font-size="9.00" fill="#6688bb"> ×2 </text>
</g>
<!-- n16 -->
<g id="node11" class="node">
<title>n16</title>
<path fill="#ccddff" stroke="black" stroke-width="0.5" d="M253,-643.44C253,-643.44 280,-643.44 280,-643.44 280,-644.03 279.96,-644.62 279.87,-645.2 279.78,-645.79 279.65,-646.37 279.48,-646.95 279.31,-647.53 279.09,-648.1 278.84,-648.67 278.58,-649.23 278.28,-649.78 277.94,-650.33 277.61,-650.87 277.23,-651.41 276.81,-651.93 276.4,-652.44 275.94,-652.95 275.45,-653.44 274.96,-653.93 274.43,-654.4 273.87,-654.86 273.31,-655.31 272.72,-655.75 272.09,-656.17 271.47,-656.58 270.81,-656.98 270.13,-657.35 269.45,-657.73 268.74,-658.08 268,-658.41 267.27,-658.73 266.51,-659.04 265.73,-659.31 264.95,-659.59 264.15,-659.84 263.33,-660.07 262.52,-660.3 261.68,-660.49 260.84,-660.66 259.99,-660.84 259.13,-660.98 258.27,-661.09 257.4,-661.21 256.53,-661.3 255.65,-661.35 254.77,-661.41 253.88,-661.44 253,-661.44 252.12,-661.44 251.23,-661.41 250.35,-661.35 249.47,-661.3 248.6,-661.21 247.73,-661.09 246.87,-660.98 246.01,-660.84 245.16,-660.66 244.32,-660.49 243.48,-660.3 242.67,-660.07 241.85,-659.84 241.05,-659.59 240.27,-659.31 239.49,-659.04 238.73,-658.73 238,-658.41 237.26,-658.08 236.55,-657.73 235.87,-657.35 235.19,-656.98 234.53,-656.58 233.91,-656.17 233.28,-655.75 232.69,-655.31 232.13,-654.86 231.57,-654.4 231.04,-653.93 230.55,-653.44 230.06,-652.95 229.6,-652.44 229.19,-651.93 228.77,-651.41 228.39,-650.87 228.06,-650.33 227.72,-649.78 227.42,-649.23 227.16,-648.67 226.91,-648.1 226.69,-647.53 226.52,-646.95 226.35,-646.37 226.22,-645.79 226.13,-645.2 226.04,-644.62 226,-644.03 226,-643.44 226,-643.44 253,-643.44 253,-643.44"/>
<path fill="#ffddcc" stroke="black" stroke-width="0.5" d="M253,-643.44C253,-643.44 226,-643.44 226,-643.44 226,-642.85 226.04,-642.26 226.13,-641.68 226.22,-641.09 226.35,-640.51 226.52,-639.93 226.69,-639.35 226.91,-638.78 227.16,-638.21 227.42,-637.65 227.72,-637.1 228.06,-636.55 228.39,-636.01 228.77,-635.47 229.19,-634.95 229.6,-634.44 230.06,-633.93 230.55,-633.44 231.04,-632.95 231.57,-632.48 232.13,-632.02 232.69,-631.57 233.28,-631.13 233.91,-630.71 234.53,-630.3 235.19,-629.9 235.87,-629.53 236.55,-629.15 237.26,-628.8 238,-628.47 238.73,-628.15 239.49,-627.84 240.27,-627.57 241.05,-627.29 241.85,-627.04 242.67,-626.81 243.48,-626.58 244.32,-626.39 245.16,-626.22 246.01,-626.04 246.87,-625.9 247.73,-625.79 248.6,-625.67 249.47,-625.58 250.35,-625.53 251.23,-625.47 252.12,-625.44 253,-625.44 253.88,-625.44 254.77,-625.47 255.65,-625.53 256.53,-625.58 257.4,-625.67 258.27,-625.79 259.13,-625.9 259.99,-626.04 260.84,-626.22 261.68,-626.39 262.52,-626.58 263.33,-626.81 264.15,-627.04 264.95,-627.29 265.73,-627.57 266.51,-627.84 267.27,-628.15 268,-628.47 268.74,-628.8 269.45,-629.15 270.13,-629.53 270.81,-629.9 271.47,-630.3 272.09,-630.71 272.72,-631.13 273.31,-631.57 273.87,-632.02 274.43,-632.48 274.96,-632.95 275.45,-633.44 275.94,-633.93 276.4,-634.44 276.81,-634.95 277.23,-635.47 277.61,-636.01 277.94,-636.55 278.28,-637.1 278.58,-637.65 278.84,-638.21 279.09,-638.78 279.31,-639.35 279.48,-639.93 279.65,-640.51 279.78,-641.09 279.87,-641.68 279.96,-642.26 280,-642.85 280,-643.44 280,-643.44 253,-643.44 253,-643.44"/>
<ellipse fill="none" stroke="black" cx="253" cy="-643.44" rx="27" ry="18"/>
<text xml:space="preserve" text-anchor="middle" x="253" y="-639.74" font-family="Times,serif" font-size="11.00">16</text>
</g>
<!-- n8&#45;&gt;n16 -->
<g id="edge33" class="edge">
<title>n8&#45;&gt;n16</title>
<path fill="none" stroke="#6688bb" d="M253,-707.47C253,-697.45 253,-684.62 253,-673.15"/>
<polygon fill="#6688bb" stroke="#6688bb" points="256.5,-673.39 253,-663.39 249.5,-673.39 256.5,-673.39"/>
<text xml:space="preserve" text-anchor="middle" x="260.12" y="-681.39" font-family="Times,serif" font-size="9.00" fill="#6688bb"> ×2 </text>
</g>
<!-- n10&#45;&gt;n3 -->
<g id="edge3" class="edge">
<title>n10&#45;&gt;n3</title>
<path fill="none" stroke="#ddbb99" d="M141.8,-463.13C135.38,-456.91 127.93,-449.46 121.5,-442.44 115.28,-435.64 108.8,-428 103.01,-420.95"/>
<polygon fill="#ddbb99" stroke="#ddbb99" points="106.08,-419.18 97.07,-413.62 100.65,-423.59 106.08,-419.18"/>
<text xml:space="preserve" text-anchor="middle" x="137.25" y="-433.89" font-family="Times,serif" font-size="9.00" fill="#ddbb99"> (m&#45;1)/3 </text>
</g>
<!-- n20 -->
<g id="node12" class="node">
<title>n20</title>
<ellipse fill="#ccddff" stroke="black" cx="157" cy="-395.94" rx="27" ry="18"/>
<text xml:space="preserve" text-anchor="middle" x="157" y="-392.24" font-family="Times,serif" font-size="11.00">20</text>
</g>
<!-- n10&#45;&gt;n20 -->
<g id="edge2" class="edge">
<title>n10&#45;&gt;n20</title>
<path fill="none" stroke="#6688bb" d="M157,-459.97C157,-449.95 157,-437.12 157,-425.65"/>
<polygon fill="#6688bb" stroke="#6688bb" points="160.5,-425.89 157,-415.89 153.5,-425.89 160.5,-425.89"/>
<text xml:space="preserve" text-anchor="middle" x="164.12" y="-433.89" font-family="Times,serif" font-size="9.00" fill="#6688bb"> ×2 </text>
</g>
<!-- n24 -->
<g id="node14" class="node">
<title>n24</title>
<ellipse fill="#ccddff" stroke="black" cx="27" cy="-148.44" rx="27" ry="18"/>
<text xml:space="preserve" text-anchor="middle" x="27" y="-144.74" font-family="Times,serif" font-size="11.00">24</text>
</g>
<!-- n12&#45;&gt;n24 -->
<g id="edge6" class="edge">
<title>n12&#45;&gt;n24</title>
<path fill="none" stroke="#6688bb" d="M27,-212.47C27,-202.45 27,-189.62 27,-178.15"/>
<polygon fill="#6688bb" stroke="#6688bb" points="30.5,-178.39 27,-168.39 23.5,-178.39 30.5,-178.39"/>
<text xml:space="preserve" text-anchor="middle" x="34.12" y="-186.39" font-family="Times,serif" font-size="9.00" fill="#6688bb"> ×2 </text>
</g>
<!-- n13 -->
<g id="node10" class="node">
<title>n13</title>
<ellipse fill="#0045cf" stroke="black" cx="99" cy="-230.94" rx="27" ry="18"/>
<text xml:space="preserve" text-anchor="middle" x="99" y="-227.24" font-family="Times,serif" font-size="11.00" fill="white">13</text>
</g>
<!-- n26 -->
<g id="node15" class="node">
<title>n26</title>
<ellipse fill="#ccddff" stroke="black" cx="99" cy="-148.44" rx="27" ry="18"/>
<text xml:space="preserve" text-anchor="middle" x="99" y="-144.74" font-family="Times,serif" font-size="11.00">26</text>
</g>
<!-- n13&#45;&gt;n26 -->
<g id="edge8" class="edge">
<title>n13&#45;&gt;n26</title>
<path fill="none" stroke="#6688bb" d="M99,-212.47C99,-202.45 99,-189.62 99,-178.15"/>
<polygon fill="#6688bb" stroke="#6688bb" points="102.5,-178.39 99,-168.39 95.5,-178.39 102.5,-178.39"/>
<text xml:space="preserve" text-anchor="middle" x="106.12" y="-186.39" font-family="Times,serif" font-size="9.00" fill="#6688bb"> ×2 </text>
</g>
<!-- n16&#45;&gt;n5 -->
<g id="edge10" class="edge">
<title>n16&#45;&gt;n5</title>
<path fill="none" stroke="#ddbb99" d="M242.02,-626.54C238.32,-620.72 234.41,-613.95 231.5,-607.44 229.05,-601.94 226.89,-595.87 225.07,-590"/>
<polygon fill="#ddbb99" stroke="#ddbb99" points="228.5,-589.28 222.39,-580.63 221.77,-591.21 228.5,-589.28"/>
<text xml:space="preserve" text-anchor="middle" x="247.25" y="-598.89" font-family="Times,serif" font-size="9.00" fill="#ddbb99"> (m&#45;1)/3 </text>
</g>
<!-- n32 -->
<g id="node16" class="node">
<title>n32</title>
<ellipse fill="#ccddff" stroke="black" cx="300" cy="-560.94" rx="27" ry="18"/>
<text xml:space="preserve" text-anchor="middle" x="300" y="-557.24" font-family="Times,serif" font-size="11.00">32</text>
</g>
<!-- n16&#45;&gt;n32 -->
<g id="edge9" class="edge">
<title>n16&#45;&gt;n32</title>
<path fill="none" stroke="#6688bb" d="M262.51,-626.15C268.88,-615.24 277.41,-600.63 284.72,-588.11"/>
<polygon fill="#6688bb" stroke="#6688bb" points="287.72,-589.91 289.74,-579.51 281.68,-586.38 287.72,-589.91"/>
<text xml:space="preserve" text-anchor="middle" x="286.44" y="-598.89" font-family="Times,serif" font-size="9.00" fill="#6688bb"> ×2 </text>
</g>
<!-- n40 -->
<g id="node17" class="node">
<title>n40</title>
<path fill="#ccddff" stroke="black" stroke-width="0.5" d="M157,-313.44C157,-313.44 184,-313.44 184,-313.44 184,-314.03 183.96,-314.62 183.87,-315.2 183.78,-315.79 183.65,-316.37 183.48,-316.95 183.31,-317.53 183.09,-318.1 182.84,-318.67 182.58,-319.23 182.28,-319.78 181.94,-320.33 181.61,-320.87 181.23,-321.41 180.81,-321.93 180.4,-322.44 179.94,-322.95 179.45,-323.44 178.96,-323.93 178.43,-324.4 177.87,-324.86 177.31,-325.31 176.72,-325.75 176.09,-326.17 175.47,-326.58 174.81,-326.98 174.13,-327.35 173.45,-327.73 172.74,-328.08 172,-328.41 171.27,-328.73 170.51,-329.04 169.73,-329.31 168.95,-329.59 168.15,-329.84 167.33,-330.07 166.52,-330.3 165.68,-330.49 164.84,-330.66 163.99,-330.84 163.13,-330.98 162.27,-331.09 161.4,-331.21 160.53,-331.3 159.65,-331.35 158.77,-331.41 157.88,-331.44 157,-331.44 156.12,-331.44 155.23,-331.41 154.35,-331.35 153.47,-331.3 152.6,-331.21 151.73,-331.09 150.87,-330.98 150.01,-330.84 149.16,-330.66 148.32,-330.49 147.48,-330.3 146.67,-330.07 145.85,-329.84 145.05,-329.59 144.27,-329.31 143.49,-329.04 142.73,-328.73 142,-328.41 141.26,-328.08 140.55,-327.73 139.87,-327.35 139.19,-326.98 138.53,-326.58 137.91,-326.17 137.28,-325.75 136.69,-325.31 136.13,-324.86 135.57,-324.4 135.04,-323.93 134.55,-323.44 134.06,-322.95 133.6,-322.44 133.19,-321.93 132.77,-321.41 132.39,-320.87 132.06,-320.33 131.72,-319.78 131.42,-319.23 131.16,-318.67 130.91,-318.1 130.69,-317.53 130.52,-316.95 130.35,-316.37 130.22,-315.79 130.13,-315.2 130.04,-314.62 130,-314.03 130,-313.44 130,-313.44 157,-313.44 157,-313.44"/>
<path fill="#ffddcc" stroke="black" stroke-width="0.5" d="M157,-313.44C157,-313.44 130,-313.44 130,-313.44 130,-312.85 130.04,-312.26 130.13,-311.68 130.22,-311.09 130.35,-310.51 130.52,-309.93 130.69,-309.35 130.91,-308.78 131.16,-308.21 131.42,-307.65 131.72,-307.1 132.06,-306.55 132.39,-306.01 132.77,-305.47 133.19,-304.95 133.6,-304.44 134.06,-303.93 134.55,-303.44 135.04,-302.95 135.57,-302.48 136.13,-302.02 136.69,-301.57 137.28,-301.13 137.91,-300.71 138.53,-300.3 139.19,-299.9 139.87,-299.53 140.55,-299.15 141.26,-298.8 142,-298.47 142.73,-298.15 143.49,-297.84 144.27,-297.57 145.05,-297.29 145.85,-297.04 146.67,-296.81 147.48,-296.58 148.32,-296.39 149.16,-296.22 150.01,-296.04 150.87,-295.9 151.73,-295.79 152.6,-295.67 153.47,-295.58 154.35,-295.53 155.23,-295.47 156.12,-295.44 157,-295.44 157.88,-295.44 158.77,-295.47 159.65,-295.53 160.53,-295.58 161.4,-295.67 162.27,-295.79 163.13,-295.9 163.99,-296.04 164.84,-296.22 165.68,-296.39 166.52,-296.58 167.33,-296.81 168.15,-297.04 168.95,-297.29 169.73,-297.57 170.51,-297.84 171.27,-298.15 172,-298.47 172.74,-298.8 173.45,-299.15 174.13,-299.53 174.81,-299.9 175.47,-300.3 176.09,-300.71 176.72,-301.13 177.31,-301.57 177.87,-302.02 178.43,-302.48 178.96,-302.95 179.45,-303.44 179.94,-303.93 180.4,-304.44 180.81,-304.95 181.23,-305.47 181.61,-306.01 181.94,-306.55 182.28,-307.1 182.58,-307.65 182.84,-308.21 183.09,-308.78 183.31,-309.35 183.48,-309.93 183.65,-310.51 183.78,-311.09 183.87,-311.68 183.96,-312.26 184,-312.85 184,-313.44 184,-313.44 157,-313.44 157,-313.44"/>
<ellipse fill="none" stroke="black" cx="157" cy="-313.44" rx="27" ry="18"/>
<text xml:space="preserve" text-anchor="middle" x="157" y="-309.74" font-family="Times,serif" font-size="11.00">40</text>
</g>
<!-- n20&#45;&gt;n40 -->
<g id="edge16" class="edge">
<title>n20&#45;&gt;n40</title>
<path fill="none" stroke="#6688bb" d="M157,-377.47C157,-367.45 157,-354.62 157,-343.15"/>
<polygon fill="#6688bb" stroke="#6688bb" points="160.5,-343.39 157,-333.39 153.5,-343.39 160.5,-343.39"/>
<text xml:space="preserve" text-anchor="middle" x="164.12" y="-351.39" font-family="Times,serif" font-size="9.00" fill="#6688bb"> ×2 </text>
</g>
<!-- n21 -->
<g id="node13" class="node">
<title>n21</title>
<ellipse fill="#0045cf" stroke="black" cx="315" cy="-395.94" rx="27" ry="18"/>
<text xml:space="preserve" text-anchor="middle" x="315" y="-392.24" font-family="Times,serif" font-size="11.00" fill="white">21</text>
</g>
<!-- n42 -->
<g id="node18" class="node">
<title>n42</title>
<ellipse fill="#ccddff" stroke="black" cx="315" cy="-313.44" rx="27" ry="18"/>
<text xml:space="preserve" text-anchor="middle" x="315" y="-309.74" font-family="Times,serif" font-size="11.00">42</text>
</g>
<!-- n21&#45;&gt;n42 -->
<g id="edge17" class="edge">
<title>n21&#45;&gt;n42</title>
<path fill="none" stroke="#6688bb" d="M315,-377.47C315,-367.45 315,-354.62 315,-343.15"/>
<polygon fill="#6688bb" stroke="#6688bb" points="318.5,-343.39 315,-333.39 311.5,-343.39 318.5,-343.39"/>
<text xml:space="preserve" text-anchor="middle" x="322.12" y="-351.39" font-family="Times,serif" font-size="9.00" fill="#6688bb"> ×2 </text>
</g>
<!-- n48 -->
<g id="node19" class="node">
<title>n48</title>
<ellipse fill="#ccddff" stroke="black" cx="27" cy="-65.94" rx="27" ry="18"/>
<text xml:space="preserve" text-anchor="middle" x="27" y="-62.24" font-family="Times,serif" font-size="11.00">48</text>
</g>
<!-- n24&#45;&gt;n48 -->
<g id="edge18" class="edge">
<title>n24&#45;&gt;n48</title>
<path fill="none" stroke="#6688bb" d="M27,-129.97C27,-119.95 27,-107.12 27,-95.65"/>
<polygon fill="#6688bb" stroke="#6688bb" points="30.5,-95.89 27,-85.89 23.5,-95.89 30.5,-95.89"/>
<text xml:space="preserve" text-anchor="middle" x="34.12" y="-103.89" font-family="Times,serif" font-size="9.00" fill="#6688bb"> ×2 </text>
</g>
<!-- n52 -->
<g id="node20" class="node">
<title>n52</title>
<path fill="#ccddff" stroke="black" stroke-width="0.5" d="M99,-65.94C99,-65.94 126,-65.94 126,-65.94 126,-66.53 125.96,-67.12 125.87,-67.7 125.78,-68.29 125.65,-68.87 125.48,-69.45 125.31,-70.03 125.09,-70.6 124.84,-71.17 124.58,-71.73 124.28,-72.28 123.94,-72.83 123.61,-73.37 123.23,-73.91 122.81,-74.43 122.4,-74.94 121.94,-75.45 121.45,-75.94 120.96,-76.43 120.43,-76.9 119.87,-77.36 119.31,-77.81 118.72,-78.25 118.09,-78.67 117.47,-79.08 116.81,-79.48 116.13,-79.85 115.45,-80.23 114.74,-80.58 114,-80.91 113.27,-81.23 112.51,-81.54 111.73,-81.81 110.95,-82.09 110.15,-82.34 109.33,-82.57 108.52,-82.8 107.68,-82.99 106.84,-83.16 105.99,-83.34 105.13,-83.48 104.27,-83.59 103.4,-83.71 102.53,-83.8 101.65,-83.85 100.77,-83.91 99.88,-83.94 99,-83.94 98.12,-83.94 97.23,-83.91 96.35,-83.85 95.47,-83.8 94.6,-83.71 93.73,-83.59 92.87,-83.48 92.01,-83.34 91.16,-83.16 90.32,-82.99 89.48,-82.8 88.67,-82.57 87.85,-82.34 87.05,-82.09 86.27,-81.81 85.49,-81.54 84.73,-81.23 84,-80.91 83.26,-80.58 82.55,-80.23 81.87,-79.85 81.19,-79.48 80.53,-79.08 79.91,-78.67 79.28,-78.25 78.69,-77.81 78.13,-77.36 77.57,-76.9 77.04,-76.43 76.55,-75.94 76.06,-75.45 75.6,-74.94 75.19,-74.43 74.77,-73.91 74.39,-73.37 74.06,-72.83 73.72,-72.28 73.42,-71.73 73.16,-71.17 72.91,-70.6 72.69,-70.03 72.52,-69.45 72.35,-68.87 72.22,-68.29 72.13,-67.7 72.04,-67.12 72,-66.53 72,-65.94 72,-65.94 99,-65.94 99,-65.94"/>
<path fill="#ffddcc" stroke="black" stroke-width="0.5" d="M99,-65.94C99,-65.94 72,-65.94 72,-65.94 72,-65.35 72.04,-64.76 72.13,-64.18 72.22,-63.59 72.35,-63.01 72.52,-62.43 72.69,-61.85 72.91,-61.28 73.16,-60.71 73.42,-60.15 73.72,-59.6 74.06,-59.05 74.39,-58.51 74.77,-57.97 75.19,-57.45 75.6,-56.94 76.06,-56.43 76.55,-55.94 77.04,-55.45 77.57,-54.98 78.13,-54.52 78.69,-54.07 79.28,-53.63 79.91,-53.21 80.53,-52.8 81.19,-52.4 81.87,-52.03 82.55,-51.65 83.26,-51.3 84,-50.97 84.73,-50.65 85.49,-50.34 86.27,-50.07 87.05,-49.79 87.85,-49.54 88.67,-49.31 89.48,-49.08 90.32,-48.89 91.16,-48.72 92.01,-48.54 92.87,-48.4 93.73,-48.29 94.6,-48.17 95.47,-48.08 96.35,-48.03 97.23,-47.97 98.12,-47.94 99,-47.94 99.88,-47.94 100.77,-47.97 101.65,-48.03 102.53,-48.08 103.4,-48.17 104.27,-48.29 105.13,-48.4 105.99,-48.54 106.84,-48.72 107.68,-48.89 108.52,-49.08 109.33,-49.31 110.15,-49.54 110.95,-49.79 111.73,-50.07 112.51,-50.34 113.27,-50.65 114,-50.97 114.74,-51.3 115.45,-51.65 116.13,-52.03 116.81,-52.4 117.47,-52.8 118.09,-53.21 118.72,-53.63 119.31,-54.07 119.87,-54.52 120.43,-54.98 120.96,-55.45 121.45,-55.94 121.94,-56.43 122.4,-56.94 122.81,-57.45 123.23,-57.97 123.61,-58.51 123.94,-59.05 124.28,-59.6 124.58,-60.15 124.84,-60.71 125.09,-61.28 125.31,-61.85 125.48,-62.43 125.65,-63.01 125.78,-63.59 125.87,-64.18 125.96,-64.76 126,-65.35 126,-65.94 126,-65.94 99,-65.94 99,-65.94"/>
<ellipse fill="none" stroke="black" cx="99" cy="-65.94" rx="27" ry="18"/>
<text xml:space="preserve" text-anchor="middle" x="99" y="-62.24" font-family="Times,serif" font-size="11.00">52</text>
</g>
<!-- n26&#45;&gt;n52 -->
<g id="edge21" class="edge">
<title>n26&#45;&gt;n52</title>
<path fill="none" stroke="#6688bb" d="M99,-129.97C99,-119.95 99,-107.12 99,-95.65"/>
<polygon fill="#6688bb" stroke="#6688bb" points="102.5,-95.89 99,-85.89 95.5,-95.89 102.5,-95.89"/>
<text xml:space="preserve" text-anchor="middle" x="106.12" y="-103.89" font-family="Times,serif" font-size="9.00" fill="#6688bb"> ×2 </text>
</g>
<!-- n64 -->
<g id="node22" class="node">
<title>n64</title>
<path fill="#ccddff" stroke="black" stroke-width="0.5" d="M315,-478.44C315,-478.44 342,-478.44 342,-478.44 342,-479.03 341.96,-479.62 341.87,-480.2 341.78,-480.79 341.65,-481.37 341.48,-481.95 341.31,-482.53 341.09,-483.1 340.84,-483.67 340.58,-484.23 340.28,-484.78 339.94,-485.33 339.61,-485.87 339.23,-486.41 338.81,-486.93 338.4,-487.44 337.94,-487.95 337.45,-488.44 336.96,-488.93 336.43,-489.4 335.87,-489.86 335.31,-490.31 334.72,-490.75 334.09,-491.17 333.47,-491.58 332.81,-491.98 332.13,-492.35 331.45,-492.73 330.74,-493.08 330,-493.41 329.27,-493.73 328.51,-494.04 327.73,-494.31 326.95,-494.59 326.15,-494.84 325.33,-495.07 324.52,-495.3 323.68,-495.49 322.84,-495.66 321.99,-495.84 321.13,-495.98 320.27,-496.09 319.4,-496.21 318.53,-496.3 317.65,-496.35 316.77,-496.41 315.88,-496.44 315,-496.44 314.12,-496.44 313.23,-496.41 312.35,-496.35 311.47,-496.3 310.6,-496.21 309.73,-496.09 308.87,-495.98 308.01,-495.84 307.16,-495.66 306.32,-495.49 305.48,-495.3 304.67,-495.07 303.85,-494.84 303.05,-494.59 302.27,-494.31 301.49,-494.04 300.73,-493.73 300,-493.41 299.26,-493.08 298.55,-492.73 297.87,-492.35 297.19,-491.98 296.53,-491.58 295.91,-491.17 295.28,-490.75 294.69,-490.31 294.13,-489.86 293.57,-489.4 293.04,-488.93 292.55,-488.44 292.06,-487.95 291.6,-487.44 291.19,-486.93 290.77,-486.41 290.39,-485.87 290.06,-485.33 289.72,-484.78 289.42,-484.23 289.16,-483.67 288.91,-483.1 288.69,-482.53 288.52,-481.95 288.35,-481.37 288.22,-480.79 288.13,-480.2 288.04,-479.62 288,-479.03 288,-478.44 288,-478.44 315,-478.44 315,-478.44"/>
<path fill="#ffddcc" stroke="black" stroke-width="0.5" d="M315,-478.44C315,-478.44 288,-478.44 288,-478.44 288,-477.85 288.04,-477.26 288.13,-476.68 288.22,-476.09 288.35,-475.51 288.52,-474.93 288.69,-474.35 288.91,-473.78 289.16,-473.21 289.42,-472.65 289.72,-472.1 290.06,-471.55 290.39,-471.01 290.77,-470.47 291.19,-469.95 291.6,-469.44 292.06,-468.93 292.55,-468.44 293.04,-467.95 293.57,-467.48 294.13,-467.02 294.69,-466.57 295.28,-466.13 295.91,-465.71 296.53,-465.3 297.19,-464.9 297.87,-464.53 298.55,-464.15 299.26,-463.8 300,-463.47 300.73,-463.15 301.49,-462.84 302.27,-462.57 303.05,-462.29 303.85,-462.04 304.67,-461.81 305.48,-461.58 306.32,-461.39 307.16,-461.22 308.01,-461.04 308.87,-460.9 309.73,-460.79 310.6,-460.67 311.47,-460.58 312.35,-460.53 313.23,-460.47 314.12,-460.44 315,-460.44 315.88,-460.44 316.77,-460.47 317.65,-460.53 318.53,-460.58 319.4,-460.67 320.27,-460.79 321.13,-460.9 321.99,-461.04 322.84,-461.22 323.68,-461.39 324.52,-461.58 325.33,-461.81 326.15,-462.04 326.95,-462.29 327.73,-462.57 328.51,-462.84 329.27,-463.15 330,-463.47 330.74,-463.8 331.45,-464.15 332.13,-464.53 332.81,-464.9 333.47,-465.3 334.09,-465.71 334.72,-466.13 335.31,-466.57 335.87,-467.02 336.43,-467.48 336.96,-467.95 337.45,-468.44 337.94,-468.93 338.4,-469.44 338.81,-469.95 339.23,-470.47 339.61,-471.01 339.94,-471.55 340.28,-472.1 340.58,-472.65 340.84,-473.21 341.09,-473.78 341.31,-474.35 341.48,-474.93 341.65,-475.51 341.78,-476.09 341.87,-476.68 341.96,-477.26 342,-477.85 342,-478.44 342,-478.44 315,-478.44 315,-478.44"/>
<ellipse fill="none" stroke="black" cx="315" cy="-478.44" rx="27" ry="18"/>
<text xml:space="preserve" text-anchor="middle" x="315" y="-474.74" font-family="Times,serif" font-size="11.00">64</text>
</g>
<!-- n32&#45;&gt;n64 -->
<g id="edge23" class="edge">
<title>n32&#45;&gt;n64</title>
<path fill="none" stroke="#6688bb" d="M303.18,-542.87C305.08,-532.69 307.53,-519.52 309.71,-507.81"/>
<polygon fill="#6688bb" stroke="#6688bb" points="313.1,-508.72 311.49,-498.25 306.22,-507.44 313.1,-508.72"/>
<text xml:space="preserve" text-anchor="middle" x="315.52" y="-516.39" font-family="Times,serif" font-size="9.00" fill="#6688bb"> ×2 </text>
</g>
<!-- n40&#45;&gt;n13 -->
<g id="edge25" class="edge">
<title>n40&#45;&gt;n13</title>
<path fill="none" stroke="#ddbb99" d="M143.6,-297.48C138.37,-291.42 132.46,-284.25 127.5,-277.44 122.85,-271.06 118.16,-263.93 113.96,-257.23"/>
<polygon fill="#ddbb99" stroke="#ddbb99" points="117.23,-255.87 109.02,-249.17 111.26,-259.53 117.23,-255.87"/>
<text xml:space="preserve" text-anchor="middle" x="143.25" y="-268.89" font-family="Times,serif" font-size="9.00" fill="#ddbb99"> (m&#45;1)/3 </text>
</g>
<!-- n80 -->
<g id="node23" class="node">
<title>n80</title>
<ellipse fill="#ccddff" stroke="black" cx="171" cy="-230.94" rx="27" ry="18"/>
<text xml:space="preserve" text-anchor="middle" x="171" y="-227.24" font-family="Times,serif" font-size="11.00">80</text>
</g>
<!-- n40&#45;&gt;n80 -->
<g id="edge26" class="edge">
<title>n40&#45;&gt;n80</title>
<path fill="none" stroke="#6688bb" d="M159.97,-295.37C161.74,-285.19 164.03,-272.02 166.07,-260.31"/>
<polygon fill="#6688bb" stroke="#6688bb" points="169.46,-261.21 167.73,-250.76 162.57,-260.01 169.46,-261.21"/>
<text xml:space="preserve" text-anchor="middle" x="171.96" y="-268.89" font-family="Times,serif" font-size="9.00" fill="#6688bb"> ×2 </text>
</g>
<!-- n84 -->
<g id="node24" class="node">
<title>n84</title>
<ellipse fill="#ccddff" stroke="black" cx="315" cy="-230.94" rx="27" ry="18"/>
<text xml:space="preserve" text-anchor="middle" x="315" y="-227.24" font-family="Times,serif" font-size="11.00">84</text>
</g>
<!-- n42&#45;&gt;n84 -->
<g id="edge27" class="edge">
<title>n42&#45;&gt;n84</title>
<path fill="none" stroke="#6688bb" d="M315,-294.97C315,-284.95 315,-272.12 315,-260.65"/>
<polygon fill="#6688bb" stroke="#6688bb" points="318.5,-260.89 315,-250.89 311.5,-260.89 318.5,-260.89"/>
<text xml:space="preserve" text-anchor="middle" x="322.12" y="-268.89" font-family="Times,serif" font-size="9.00" fill="#6688bb"> ×2 </text>
</g>
<!-- ghost_out_48_9 -->
<g id="node47" class="node">
<title>ghost_out_48_9</title>
</g>
<!-- n48&#45;&gt;ghost_out_48_9 -->
<g id="edge46" class="edge">
<title>n48&#45;&gt;ghost_out_48_9</title>
<path fill="none" stroke="#6688bb" stroke-dasharray="5,2" d="M27,-47.59C27,-36.49 27,-22.41 27,-12.74"/>
<polygon fill="#6688bb" stroke="#6688bb" points="30.5,-13.03 27,-3.03 23.5,-13.03 30.5,-13.03"/>
<text xml:space="preserve" text-anchor="middle" x="34.12" y="-21.39" font-family="Times,serif" font-size="9.00" fill="#6688bb"> ×2 </text>
</g>
<!-- ghost_out_52_7 -->
<g id="node45" class="node">
<title>ghost_out_52_7</title>
</g>
<!-- n52&#45;&gt;ghost_out_52_7 -->
<g id="edge44" class="edge">
<title>n52&#45;&gt;ghost_out_52_7</title>
<path fill="none" stroke="#6688bb" stroke-dasharray="5,2" d="M91.91,-48.26C87,-36.72 80.63,-21.74 76.43,-11.86"/>
<polygon fill="#6688bb" stroke="#6688bb" points="79.76,-10.75 72.63,-2.91 73.32,-13.49 79.76,-10.75"/>
<text xml:space="preserve" text-anchor="middle" x="91.01" y="-21.39" font-family="Times,serif" font-size="9.00" fill="#6688bb"> ×2 </text>
</g>
<!-- ghost_out_52_8 -->
<g id="node46" class="node">
<title>ghost_out_52_8</title>
</g>
<!-- n52&#45;&gt;ghost_out_52_8 -->
<g id="edge45" class="edge">
<title>n52&#45;&gt;ghost_out_52_8</title>
<path fill="none" stroke="#ddbb99" stroke-dasharray="5,2" d="M101.73,-47.59C103.48,-36.49 105.7,-22.41 107.22,-12.74"/>
<polygon fill="#ddbb99" stroke="#ddbb99" points="110.65,-13.44 108.75,-3.01 103.74,-12.35 110.65,-13.44"/>
<text xml:space="preserve" text-anchor="middle" x="121.8" y="-21.39" font-family="Times,serif" font-size="9.00" fill="#ddbb99"> (m&#45;1)/3 </text>
</g>
<!-- n53 -->
<g id="node21" class="node">
<title>n53</title>
<ellipse fill="#0045cf" stroke="black" cx="171" cy="-65.94" rx="27" ry="18"/>
<text xml:space="preserve" text-anchor="middle" x="171" y="-62.24" font-family="Times,serif" font-size="11.00" fill="white">53</text>
</g>
<!-- ghost_out_53_6 -->
<g id="node44" class="node">
<title>ghost_out_53_6</title>
</g>
<!-- n53&#45;&gt;ghost_out_53_6 -->
<g id="edge43" class="edge">
<title>n53&#45;&gt;ghost_out_53_6</title>
<path fill="none" stroke="#6688bb" stroke-dasharray="5,2" d="M171,-47.59C171,-36.49 171,-22.41 171,-12.74"/>
<polygon fill="#6688bb" stroke="#6688bb" points="174.5,-13.03 171,-3.03 167.5,-13.03 174.5,-13.03"/>
<text xml:space="preserve" text-anchor="middle" x="178.12" y="-21.39" font-family="Times,serif" font-size="9.00" fill="#6688bb"> ×2 </text>
</g>
<!-- n64&#45;&gt;n21 -->
<g id="edge32" class="edge">
<title>n64&#45;&gt;n21</title>
<path fill="none" stroke="#ddbb99" d="M315,-459.97C315,-449.95 315,-437.12 315,-425.65"/>
<polygon fill="#ddbb99" stroke="#ddbb99" points="318.5,-425.89 315,-415.89 311.5,-425.89 318.5,-425.89"/>
<text xml:space="preserve" text-anchor="middle" x="330.75" y="-433.89" font-family="Times,serif" font-size="9.00" fill="#ddbb99"> (m&#45;1)/3 </text>
</g>
<!-- n128 -->
<g id="node26" class="node">
<title>n128</title>
<ellipse fill="#ccddff" stroke="black" cx="387" cy="-395.94" rx="27" ry="18"/>
<text xml:space="preserve" text-anchor="middle" x="387" y="-392.24" font-family="Times,serif" font-size="11.00">128</text>
</g>
<!-- n64&#45;&gt;n128 -->
<g id="edge31" class="edge">
<title>n64&#45;&gt;n128</title>
<path fill="none" stroke="#6688bb" d="M329.99,-463.12C336.32,-456.91 343.67,-449.46 350,-442.44 356,-435.79 362.25,-428.33 367.86,-421.41"/>
<polygon fill="#6688bb" stroke="#6688bb" points="370.59,-423.61 374.1,-413.62 365.12,-419.24 370.59,-423.61"/>
<text xml:space="preserve" text-anchor="middle" x="365.58" y="-433.89" font-family="Times,serif" font-size="9.00" fill="#6688bb"> ×2 </text>
</g>
<!-- n160 -->
<g id="node27" class="node">
<title>n160</title>
<path fill="#ccddff" stroke="black" stroke-width="0.5" d="M171,-148.44C171,-148.44 198,-148.44 198,-148.44 198,-149.03 197.96,-149.62 197.87,-150.2 197.78,-150.79 197.65,-151.37 197.48,-151.95 197.31,-152.53 197.09,-153.1 196.84,-153.67 196.58,-154.23 196.28,-154.78 195.94,-155.33 195.61,-155.87 195.23,-156.41 194.81,-156.93 194.4,-157.44 193.94,-157.95 193.45,-158.44 192.96,-158.93 192.43,-159.4 191.87,-159.86 191.31,-160.31 190.72,-160.75 190.09,-161.17 189.47,-161.58 188.81,-161.98 188.13,-162.35 187.45,-162.73 186.74,-163.08 186,-163.41 185.27,-163.73 184.51,-164.04 183.73,-164.31 182.95,-164.59 182.15,-164.84 181.33,-165.07 180.52,-165.3 179.68,-165.49 178.84,-165.66 177.99,-165.84 177.13,-165.98 176.27,-166.09 175.4,-166.21 174.53,-166.3 173.65,-166.35 172.77,-166.41 171.88,-166.44 171,-166.44 170.12,-166.44 169.23,-166.41 168.35,-166.35 167.47,-166.3 166.6,-166.21 165.73,-166.09 164.87,-165.98 164.01,-165.84 163.16,-165.66 162.32,-165.49 161.48,-165.3 160.67,-165.07 159.85,-164.84 159.05,-164.59 158.27,-164.31 157.49,-164.04 156.73,-163.73 156,-163.41 155.26,-163.08 154.55,-162.73 153.87,-162.35 153.19,-161.98 152.53,-161.58 151.91,-161.17 151.28,-160.75 150.69,-160.31 150.13,-159.86 149.57,-159.4 149.04,-158.93 148.55,-158.44 148.06,-157.95 147.6,-157.44 147.19,-156.93 146.77,-156.41 146.39,-155.87 146.06,-155.33 145.72,-154.78 145.42,-154.23 145.16,-153.67 144.91,-153.1 144.69,-152.53 144.52,-151.95 144.35,-151.37 144.22,-150.79 144.13,-150.2 144.04,-149.62 144,-149.03 144,-148.44 144,-148.44 171,-148.44 171,-148.44"/>
<path fill="#ffddcc" stroke="black" stroke-width="0.5" d="M171,-148.44C171,-148.44 144,-148.44 144,-148.44 144,-147.85 144.04,-147.26 144.13,-146.68 144.22,-146.09 144.35,-145.51 144.52,-144.93 144.69,-144.35 144.91,-143.78 145.16,-143.21 145.42,-142.65 145.72,-142.1 146.06,-141.55 146.39,-141.01 146.77,-140.47 147.19,-139.95 147.6,-139.44 148.06,-138.93 148.55,-138.44 149.04,-137.95 149.57,-137.48 150.13,-137.02 150.69,-136.57 151.28,-136.13 151.91,-135.71 152.53,-135.3 153.19,-134.9 153.87,-134.53 154.55,-134.15 155.26,-133.8 156,-133.47 156.73,-133.15 157.49,-132.84 158.27,-132.57 159.05,-132.29 159.85,-132.04 160.67,-131.81 161.48,-131.58 162.32,-131.39 163.16,-131.22 164.01,-131.04 164.87,-130.9 165.73,-130.79 166.6,-130.67 167.47,-130.58 168.35,-130.53 169.23,-130.47 170.12,-130.44 171,-130.44 171.88,-130.44 172.77,-130.47 173.65,-130.53 174.53,-130.58 175.4,-130.67 176.27,-130.79 177.13,-130.9 177.99,-131.04 178.84,-131.22 179.68,-131.39 180.52,-131.58 181.33,-131.81 182.15,-132.04 182.95,-132.29 183.73,-132.57 184.51,-132.84 185.27,-133.15 186,-133.47 186.74,-133.8 187.45,-134.15 188.13,-134.53 188.81,-134.9 189.47,-135.3 190.09,-135.71 190.72,-136.13 191.31,-136.57 191.87,-137.02 192.43,-137.48 192.96,-137.95 193.45,-138.44 193.94,-138.93 194.4,-139.44 194.81,-139.95 195.23,-140.47 195.61,-141.01 195.94,-141.55 196.28,-142.1 196.58,-142.65 196.84,-143.21 197.09,-143.78 197.31,-144.35 197.48,-144.93 197.65,-145.51 197.78,-146.09 197.87,-146.68 197.96,-147.26 198,-147.85 198,-148.44 198,-148.44 171,-148.44 171,-148.44"/>
<ellipse fill="none" stroke="black" cx="171" cy="-148.44" rx="27" ry="18"/>
<text xml:space="preserve" text-anchor="middle" x="171" y="-144.74" font-family="Times,serif" font-size="11.00">160</text>
</g>
<!-- n80&#45;&gt;n160 -->
<g id="edge34" class="edge">
<title>n80&#45;&gt;n160</title>
<path fill="none" stroke="#6688bb" d="M171,-212.47C171,-202.45 171,-189.62 171,-178.15"/>
<polygon fill="#6688bb" stroke="#6688bb" points="174.5,-178.39 171,-168.39 167.5,-178.39 174.5,-178.39"/>
<text xml:space="preserve" text-anchor="middle" x="178.12" y="-186.39" font-family="Times,serif" font-size="9.00" fill="#6688bb"> ×2 </text>
</g>
<!-- n168 -->
<g id="node28" class="node">
<title>n168</title>
<ellipse fill="#ccddff" stroke="black" cx="315" cy="-148.44" rx="27" ry="18"/>
<text xml:space="preserve" text-anchor="middle" x="315" y="-144.74" font-family="Times,serif" font-size="11.00">168</text>
</g>
<!-- n84&#45;&gt;n168 -->
<g id="edge35" class="edge">
<title>n84&#45;&gt;n168</title>
<path fill="none" stroke="#6688bb" d="M315,-212.47C315,-202.45 315,-189.62 315,-178.15"/>
<polygon fill="#6688bb" stroke="#6688bb" points="318.5,-178.39 315,-168.39 311.5,-178.39 318.5,-178.39"/>
<text xml:space="preserve" text-anchor="middle" x="322.12" y="-186.39" font-family="Times,serif" font-size="9.00" fill="#6688bb"> ×2 </text>
</g>
<!-- n85 -->
<g id="node25" class="node">
<title>n85</title>
<ellipse fill="#0045cf" stroke="black" cx="387" cy="-230.94" rx="27" ry="18"/>
<text xml:space="preserve" text-anchor="middle" x="387" y="-227.24" font-family="Times,serif" font-size="11.00" fill="white">85</text>
</g>
<!-- n170 -->
<g id="node29" class="node">
<title>n170</title>
<ellipse fill="#ccddff" stroke="black" cx="387" cy="-148.44" rx="27" ry="18"/>
<text xml:space="preserve" text-anchor="middle" x="387" y="-144.74" font-family="Times,serif" font-size="11.00">170</text>
</g>
<!-- n85&#45;&gt;n170 -->
<g id="edge36" class="edge">
<title>n85&#45;&gt;n170</title>
<path fill="none" stroke="#6688bb" d="M387,-212.47C387,-202.45 387,-189.62 387,-178.15"/>
<polygon fill="#6688bb" stroke="#6688bb" points="390.5,-178.39 387,-168.39 383.5,-178.39 390.5,-178.39"/>
<text xml:space="preserve" text-anchor="middle" x="394.12" y="-186.39" font-family="Times,serif" font-size="9.00" fill="#6688bb"> ×2 </text>
</g>
<!-- n256 -->
<g id="node30" class="node">
<title>n256</title>
<path fill="#ccddff" stroke="black" stroke-width="0.5" d="M387,-313.44C387,-313.44 414,-313.44 414,-313.44 414,-314.03 413.96,-314.62 413.87,-315.2 413.78,-315.79 413.65,-316.37 413.48,-316.95 413.31,-317.53 413.09,-318.1 412.84,-318.67 412.58,-319.23 412.28,-319.78 411.94,-320.33 411.61,-320.87 411.23,-321.41 410.81,-321.93 410.4,-322.44 409.94,-322.95 409.45,-323.44 408.96,-323.93 408.43,-324.4 407.87,-324.86 407.31,-325.31 406.72,-325.75 406.09,-326.17 405.47,-326.58 404.81,-326.98 404.13,-327.35 403.45,-327.73 402.74,-328.08 402,-328.41 401.27,-328.73 400.51,-329.04 399.73,-329.31 398.95,-329.59 398.15,-329.84 397.33,-330.07 396.52,-330.3 395.68,-330.49 394.84,-330.66 393.99,-330.84 393.13,-330.98 392.27,-331.09 391.4,-331.21 390.53,-331.3 389.65,-331.35 388.77,-331.41 387.88,-331.44 387,-331.44 386.12,-331.44 385.23,-331.41 384.35,-331.35 383.47,-331.3 382.6,-331.21 381.73,-331.09 380.87,-330.98 380.01,-330.84 379.16,-330.66 378.32,-330.49 377.48,-330.3 376.67,-330.07 375.85,-329.84 375.05,-329.59 374.27,-329.31 373.49,-329.04 372.73,-328.73 372,-328.41 371.26,-328.08 370.55,-327.73 369.87,-327.35 369.19,-326.98 368.53,-326.58 367.91,-326.17 367.28,-325.75 366.69,-325.31 366.13,-324.86 365.57,-324.4 365.04,-323.93 364.55,-323.44 364.06,-322.95 363.6,-322.44 363.19,-321.93 362.77,-321.41 362.39,-320.87 362.06,-320.33 361.72,-319.78 361.42,-319.23 361.16,-318.67 360.91,-318.1 360.69,-317.53 360.52,-316.95 360.35,-316.37 360.22,-315.79 360.13,-315.2 360.04,-314.62 360,-314.03 360,-313.44 360,-313.44 387,-313.44 387,-313.44"/>
<path fill="#ffddcc" stroke="black" stroke-width="0.5" d="M387,-313.44C387,-313.44 360,-313.44 360,-313.44 360,-312.85 360.04,-312.26 360.13,-311.68 360.22,-311.09 360.35,-310.51 360.52,-309.93 360.69,-309.35 360.91,-308.78 361.16,-308.21 361.42,-307.65 361.72,-307.1 362.06,-306.55 362.39,-306.01 362.77,-305.47 363.19,-304.95 363.6,-304.44 364.06,-303.93 364.55,-303.44 365.04,-302.95 365.57,-302.48 366.13,-302.02 366.69,-301.57 367.28,-301.13 367.91,-300.71 368.53,-300.3 369.19,-299.9 369.87,-299.53 370.55,-299.15 371.26,-298.8 372,-298.47 372.73,-298.15 373.49,-297.84 374.27,-297.57 375.05,-297.29 375.85,-297.04 376.67,-296.81 377.48,-296.58 378.32,-296.39 379.16,-296.22 380.01,-296.04 380.87,-295.9 381.73,-295.79 382.6,-295.67 383.47,-295.58 384.35,-295.53 385.23,-295.47 386.12,-295.44 387,-295.44 387.88,-295.44 388.77,-295.47 389.65,-295.53 390.53,-295.58 391.4,-295.67 392.27,-295.79 393.13,-295.9 393.99,-296.04 394.84,-296.22 395.68,-296.39 396.52,-296.58 397.33,-296.81 398.15,-297.04 398.95,-297.29 399.73,-297.57 400.51,-297.84 401.27,-298.15 402,-298.47 402.74,-298.8 403.45,-299.15 404.13,-299.53 404.81,-299.9 405.47,-300.3 406.09,-300.71 406.72,-301.13 407.31,-301.57 407.87,-302.02 408.43,-302.48 408.96,-302.95 409.45,-303.44 409.94,-303.93 410.4,-304.44 410.81,-304.95 411.23,-305.47 411.61,-306.01 411.94,-306.55 412.28,-307.1 412.58,-307.65 412.84,-308.21 413.09,-308.78 413.31,-309.35 413.48,-309.93 413.65,-310.51 413.78,-311.09 413.87,-311.68 413.96,-312.26 414,-312.85 414,-313.44 414,-313.44 387,-313.44 387,-313.44"/>
<ellipse fill="none" stroke="black" cx="387" cy="-313.44" rx="27" ry="18"/>
<text xml:space="preserve" text-anchor="middle" x="387" y="-309.74" font-family="Times,serif" font-size="11.00">256</text>
</g>
<!-- n128&#45;&gt;n256 -->
<g id="edge7" class="edge">
<title>n128&#45;&gt;n256</title>
<path fill="none" stroke="#6688bb" d="M387,-377.47C387,-367.45 387,-354.62 387,-343.15"/>
<polygon fill="#6688bb" stroke="#6688bb" points="390.5,-343.39 387,-333.39 383.5,-343.39 390.5,-343.39"/>
<text xml:space="preserve" text-anchor="middle" x="394.12" y="-351.39" font-family="Times,serif" font-size="9.00" fill="#6688bb"> ×2 </text>
</g>
<!-- n160&#45;&gt;n53 -->
<g id="edge12" class="edge">
<title>n160&#45;&gt;n53</title>
<path fill="none" stroke="#ddbb99" d="M171,-129.97C171,-119.95 171,-107.12 171,-95.65"/>
<polygon fill="#ddbb99" stroke="#ddbb99" points="174.5,-95.89 171,-85.89 167.5,-95.89 174.5,-95.89"/>
<text xml:space="preserve" text-anchor="middle" x="186.75" y="-103.89" font-family="Times,serif" font-size="9.00" fill="#ddbb99"> (m&#45;1)/3 </text>
</g>
<!-- n320 -->
<g id="node31" class="node">
<title>n320</title>
<ellipse fill="#ccddff" stroke="black" cx="243" cy="-65.94" rx="27" ry="18"/>
<text xml:space="preserve" text-anchor="middle" x="243" y="-62.24" font-family="Times,serif" font-size="11.00">320</text>
</g>
<!-- n160&#45;&gt;n320 -->
<g id="edge11" class="edge">
<title>n160&#45;&gt;n320</title>
<path fill="none" stroke="#6688bb" d="M185.99,-133.12C192.32,-126.91 199.67,-119.46 206,-112.44 212,-105.79 218.25,-98.33 223.86,-91.41"/>
<polygon fill="#6688bb" stroke="#6688bb" points="226.59,-93.61 230.1,-83.62 221.12,-89.24 226.59,-93.61"/>
<text xml:space="preserve" text-anchor="middle" x="221.58" y="-103.89" font-family="Times,serif" font-size="9.00" fill="#6688bb"> ×2 </text>
</g>
<!-- n336 -->
<g id="node32" class="node">
<title>n336</title>
<ellipse fill="#ccddff" stroke="black" cx="315" cy="-65.94" rx="27" ry="18"/>
<text xml:space="preserve" text-anchor="middle" x="315" y="-62.24" font-family="Times,serif" font-size="11.00">336</text>
</g>
<!-- n168&#45;&gt;n336 -->
<g id="edge13" class="edge">
<title>n168&#45;&gt;n336</title>
<path fill="none" stroke="#6688bb" d="M315,-129.97C315,-119.95 315,-107.12 315,-95.65"/>
<polygon fill="#6688bb" stroke="#6688bb" points="318.5,-95.89 315,-85.89 311.5,-95.89 318.5,-95.89"/>
<text xml:space="preserve" text-anchor="middle" x="322.12" y="-103.89" font-family="Times,serif" font-size="9.00" fill="#6688bb"> ×2 </text>
</g>
<!-- n340 -->
<g id="node33" class="node">
<title>n340</title>
<path fill="#ccddff" stroke="black" stroke-width="0.5" d="M387,-65.94C387,-65.94 414,-65.94 414,-65.94 414,-66.53 413.96,-67.12 413.87,-67.7 413.78,-68.29 413.65,-68.87 413.48,-69.45 413.31,-70.03 413.09,-70.6 412.84,-71.17 412.58,-71.73 412.28,-72.28 411.94,-72.83 411.61,-73.37 411.23,-73.91 410.81,-74.43 410.4,-74.94 409.94,-75.45 409.45,-75.94 408.96,-76.43 408.43,-76.9 407.87,-77.36 407.31,-77.81 406.72,-78.25 406.09,-78.67 405.47,-79.08 404.81,-79.48 404.13,-79.85 403.45,-80.23 402.74,-80.58 402,-80.91 401.27,-81.23 400.51,-81.54 399.73,-81.81 398.95,-82.09 398.15,-82.34 397.33,-82.57 396.52,-82.8 395.68,-82.99 394.84,-83.16 393.99,-83.34 393.13,-83.48 392.27,-83.59 391.4,-83.71 390.53,-83.8 389.65,-83.85 388.77,-83.91 387.88,-83.94 387,-83.94 386.12,-83.94 385.23,-83.91 384.35,-83.85 383.47,-83.8 382.6,-83.71 381.73,-83.59 380.87,-83.48 380.01,-83.34 379.16,-83.16 378.32,-82.99 377.48,-82.8 376.67,-82.57 375.85,-82.34 375.05,-82.09 374.27,-81.81 373.49,-81.54 372.73,-81.23 372,-80.91 371.26,-80.58 370.55,-80.23 369.87,-79.85 369.19,-79.48 368.53,-79.08 367.91,-78.67 367.28,-78.25 366.69,-77.81 366.13,-77.36 365.57,-76.9 365.04,-76.43 364.55,-75.94 364.06,-75.45 363.6,-74.94 363.19,-74.43 362.77,-73.91 362.39,-73.37 362.06,-72.83 361.72,-72.28 361.42,-71.73 361.16,-71.17 360.91,-70.6 360.69,-70.03 360.52,-69.45 360.35,-68.87 360.22,-68.29 360.13,-67.7 360.04,-67.12 360,-66.53 360,-65.94 360,-65.94 387,-65.94 387,-65.94"/>
<path fill="#ffddcc" stroke="black" stroke-width="0.5" d="M387,-65.94C387,-65.94 360,-65.94 360,-65.94 360,-65.35 360.04,-64.76 360.13,-64.18 360.22,-63.59 360.35,-63.01 360.52,-62.43 360.69,-61.85 360.91,-61.28 361.16,-60.71 361.42,-60.15 361.72,-59.6 362.06,-59.05 362.39,-58.51 362.77,-57.97 363.19,-57.45 363.6,-56.94 364.06,-56.43 364.55,-55.94 365.04,-55.45 365.57,-54.98 366.13,-54.52 366.69,-54.07 367.28,-53.63 367.91,-53.21 368.53,-52.8 369.19,-52.4 369.87,-52.03 370.55,-51.65 371.26,-51.3 372,-50.97 372.73,-50.65 373.49,-50.34 374.27,-50.07 375.05,-49.79 375.85,-49.54 376.67,-49.31 377.48,-49.08 378.32,-48.89 379.16,-48.72 380.01,-48.54 380.87,-48.4 381.73,-48.29 382.6,-48.17 383.47,-48.08 384.35,-48.03 385.23,-47.97 386.12,-47.94 387,-47.94 387.88,-47.94 388.77,-47.97 389.65,-48.03 390.53,-48.08 391.4,-48.17 392.27,-48.29 393.13,-48.4 393.99,-48.54 394.84,-48.72 395.68,-48.89 396.52,-49.08 397.33,-49.31 398.15,-49.54 398.95,-49.79 399.73,-50.07 400.51,-50.34 401.27,-50.65 402,-50.97 402.74,-51.3 403.45,-51.65 404.13,-52.03 404.81,-52.4 405.47,-52.8 406.09,-53.21 406.72,-53.63 407.31,-54.07 407.87,-54.52 408.43,-54.98 408.96,-55.45 409.45,-55.94 409.94,-56.43 410.4,-56.94 410.81,-57.45 411.23,-57.97 411.61,-58.51 411.94,-59.05 412.28,-59.6 412.58,-60.15 412.84,-60.71 413.09,-61.28 413.31,-61.85 413.48,-62.43 413.65,-63.01 413.78,-63.59 413.87,-64.18 413.96,-64.76 414,-65.35 414,-65.94 414,-65.94 387,-65.94 387,-65.94"/>
<ellipse fill="none" stroke="black" cx="387" cy="-65.94" rx="27" ry="18"/>
<text xml:space="preserve" text-anchor="middle" x="387" y="-62.24" font-family="Times,serif" font-size="11.00">340</text>
</g>
<!-- n170&#45;&gt;n340 -->
<g id="edge14" class="edge">
<title>n170&#45;&gt;n340</title>
<path fill="none" stroke="#6688bb" d="M387,-129.97C387,-119.95 387,-107.12 387,-95.65"/>
<polygon fill="#6688bb" stroke="#6688bb" points="390.5,-95.89 387,-85.89 383.5,-95.89 390.5,-95.89"/>
<text xml:space="preserve" text-anchor="middle" x="394.12" y="-103.89" font-family="Times,serif" font-size="9.00" fill="#6688bb"> ×2 </text>
</g>
<!-- n256&#45;&gt;n85 -->
<g id="edge20" class="edge">
<title>n256&#45;&gt;n85</title>
<path fill="none" stroke="#ddbb99" d="M387,-294.97C387,-284.95 387,-272.12 387,-260.65"/>
<polygon fill="#ddbb99" stroke="#ddbb99" points="390.5,-260.89 387,-250.89 383.5,-260.89 390.5,-260.89"/>
<text xml:space="preserve" text-anchor="middle" x="402.75" y="-268.89" font-family="Times,serif" font-size="9.00" fill="#ddbb99"> (m&#45;1)/3 </text>
</g>
<!-- n512 -->
<g id="node35" class="node">
<title>n512</title>
<ellipse fill="#ccddff" stroke="black" cx="459" cy="-230.94" rx="27" ry="18"/>
<text xml:space="preserve" text-anchor="middle" x="459" y="-227.24" font-family="Times,serif" font-size="11.00">512</text>
</g>
<!-- n256&#45;&gt;n512 -->
<g id="edge19" class="edge">
<title>n256&#45;&gt;n512</title>
<path fill="none" stroke="#6688bb" d="M402.5,-298.22C409.02,-292.02 416.57,-284.56 423,-277.44 428.94,-270.86 435.05,-263.43 440.51,-256.51"/>
<polygon fill="#6688bb" stroke="#6688bb" points="443.2,-258.76 446.55,-248.71 437.66,-254.47 443.2,-258.76"/>
<text xml:space="preserve" text-anchor="middle" x="438.45" y="-268.89" font-family="Times,serif" font-size="9.00" fill="#6688bb"> ×2 </text>
</g>
<!-- ghost_out_320_5 -->
<g id="node43" class="node">
<title>ghost_out_320_5</title>
</g>
<!-- n320&#45;&gt;ghost_out_320_5 -->
<g id="edge42" class="edge">
<title>n320&#45;&gt;ghost_out_320_5</title>
<path fill="none" stroke="#6688bb" stroke-dasharray="5,2" d="M243,-47.59C243,-36.49 243,-22.41 243,-12.74"/>
<polygon fill="#6688bb" stroke="#6688bb" points="246.5,-13.03 243,-3.03 239.5,-13.03 246.5,-13.03"/>
<text xml:space="preserve" text-anchor="middle" x="250.12" y="-21.39" font-family="Times,serif" font-size="9.00" fill="#6688bb"> ×2 </text>
</g>
<!-- ghost_out_336_4 -->
<g id="node42" class="node">
<title>ghost_out_336_4</title>
</g>
<!-- n336&#45;&gt;ghost_out_336_4 -->
<g id="edge41" class="edge">
<title>n336&#45;&gt;ghost_out_336_4</title>
<path fill="none" stroke="#6688bb" stroke-dasharray="5,2" d="M315,-47.59C315,-36.49 315,-22.41 315,-12.74"/>
<polygon fill="#6688bb" stroke="#6688bb" points="318.5,-13.03 315,-3.03 311.5,-13.03 318.5,-13.03"/>
<text xml:space="preserve" text-anchor="middle" x="322.12" y="-21.39" font-family="Times,serif" font-size="9.00" fill="#6688bb"> ×2 </text>
</g>
<!-- ghost_out_340_2 -->
<g id="node40" class="node">
<title>ghost_out_340_2</title>
</g>
<!-- n340&#45;&gt;ghost_out_340_2 -->
<g id="edge39" class="edge">
<title>n340&#45;&gt;ghost_out_340_2</title>
<path fill="none" stroke="#6688bb" stroke-dasharray="5,2" d="M379.64,-48.26C374.56,-36.72 367.95,-21.74 363.6,-11.86"/>
<polygon fill="#6688bb" stroke="#6688bb" points="366.88,-10.64 359.65,-2.91 360.48,-13.47 366.88,-10.64"/>
<text xml:space="preserve" text-anchor="middle" x="378.45" y="-21.39" font-family="Times,serif" font-size="9.00" fill="#6688bb"> ×2 </text>
</g>
<!-- ghost_out_340_3 -->
<g id="node41" class="node">
<title>ghost_out_340_3</title>
</g>
<!-- n340&#45;&gt;ghost_out_340_3 -->
<g id="edge40" class="edge">
<title>n340&#45;&gt;ghost_out_340_3</title>
<path fill="none" stroke="#ddbb99" stroke-dasharray="5,2" d="M389.46,-47.59C391.03,-36.49 393.03,-22.41 394.4,-12.74"/>
<polygon fill="#ddbb99" stroke="#ddbb99" points="397.84,-13.41 395.78,-3.02 390.91,-12.43 397.84,-13.41"/>
<text xml:space="preserve" text-anchor="middle" x="409.09" y="-21.39" font-family="Times,serif" font-size="9.00" fill="#ddbb99"> (m&#45;1)/3 </text>
</g>
<!-- n341 -->
<g id="node34" class="node">
<title>n341</title>
<ellipse fill="#0045cf" stroke="black" cx="459" cy="-65.94" rx="27" ry="18"/>
<text xml:space="preserve" text-anchor="middle" x="459" y="-62.24" font-family="Times,serif" font-size="11.00" fill="white">341</text>
</g>
<!-- ghost_out_341_1 -->
<g id="node39" class="node">
<title>ghost_out_341_1</title>
</g>
<!-- n341&#45;&gt;ghost_out_341_1 -->
<g id="edge38" class="edge">
<title>n341&#45;&gt;ghost_out_341_1</title>
<path fill="none" stroke="#6688bb" stroke-dasharray="5,2" d="M459,-47.59C459,-36.49 459,-22.41 459,-12.74"/>
<polygon fill="#6688bb" stroke="#6688bb" points="462.5,-13.03 459,-3.03 455.5,-13.03 462.5,-13.03"/>
<text xml:space="preserve" text-anchor="middle" x="466.12" y="-21.39" font-family="Times,serif" font-size="9.00" fill="#6688bb"> ×2 </text>
</g>
<!-- n1024 -->
<g id="node36" class="node">
<title>n1024</title>
<path fill="#ccddff" stroke="black" stroke-width="0.5" d="M459,-148.44C459,-148.44 486,-148.44 486,-148.44 486,-149.03 485.96,-149.62 485.87,-150.2 485.78,-150.79 485.65,-151.37 485.48,-151.95 485.31,-152.53 485.09,-153.1 484.84,-153.67 484.58,-154.23 484.28,-154.78 483.94,-155.33 483.61,-155.87 483.23,-156.41 482.81,-156.93 482.4,-157.44 481.94,-157.95 481.45,-158.44 480.96,-158.93 480.43,-159.4 479.87,-159.86 479.31,-160.31 478.72,-160.75 478.09,-161.17 477.47,-161.58 476.81,-161.98 476.13,-162.35 475.45,-162.73 474.74,-163.08 474,-163.41 473.27,-163.73 472.51,-164.04 471.73,-164.31 470.95,-164.59 470.15,-164.84 469.33,-165.07 468.52,-165.3 467.68,-165.49 466.84,-165.66 465.99,-165.84 465.13,-165.98 464.27,-166.09 463.4,-166.21 462.53,-166.3 461.65,-166.35 460.77,-166.41 459.88,-166.44 459,-166.44 458.12,-166.44 457.23,-166.41 456.35,-166.35 455.47,-166.3 454.6,-166.21 453.73,-166.09 452.87,-165.98 452.01,-165.84 451.16,-165.66 450.32,-165.49 449.48,-165.3 448.67,-165.07 447.85,-164.84 447.05,-164.59 446.27,-164.31 445.49,-164.04 444.73,-163.73 444,-163.41 443.26,-163.08 442.55,-162.73 441.87,-162.35 441.19,-161.98 440.53,-161.58 439.91,-161.17 439.28,-160.75 438.69,-160.31 438.13,-159.86 437.57,-159.4 437.04,-158.93 436.55,-158.44 436.06,-157.95 435.6,-157.44 435.19,-156.93 434.77,-156.41 434.39,-155.87 434.06,-155.33 433.72,-154.78 433.42,-154.23 433.16,-153.67 432.91,-153.1 432.69,-152.53 432.52,-151.95 432.35,-151.37 432.22,-150.79 432.13,-150.2 432.04,-149.62 432,-149.03 432,-148.44 432,-148.44 459,-148.44 459,-148.44"/>
<path fill="#ffddcc" stroke="black" stroke-width="0.5" d="M459,-148.44C459,-148.44 432,-148.44 432,-148.44 432,-147.85 432.04,-147.26 432.13,-146.68 432.22,-146.09 432.35,-145.51 432.52,-144.93 432.69,-144.35 432.91,-143.78 433.16,-143.21 433.42,-142.65 433.72,-142.1 434.06,-141.55 434.39,-141.01 434.77,-140.47 435.19,-139.95 435.6,-139.44 436.06,-138.93 436.55,-138.44 437.04,-137.95 437.57,-137.48 438.13,-137.02 438.69,-136.57 439.28,-136.13 439.91,-135.71 440.53,-135.3 441.19,-134.9 441.87,-134.53 442.55,-134.15 443.26,-133.8 444,-133.47 444.73,-133.15 445.49,-132.84 446.27,-132.57 447.05,-132.29 447.85,-132.04 448.67,-131.81 449.48,-131.58 450.32,-131.39 451.16,-131.22 452.01,-131.04 452.87,-130.9 453.73,-130.79 454.6,-130.67 455.47,-130.58 456.35,-130.53 457.23,-130.47 458.12,-130.44 459,-130.44 459.88,-130.44 460.77,-130.47 461.65,-130.53 462.53,-130.58 463.4,-130.67 464.27,-130.79 465.13,-130.9 465.99,-131.04 466.84,-131.22 467.68,-131.39 468.52,-131.58 469.33,-131.81 470.15,-132.04 470.95,-132.29 471.73,-132.57 472.51,-132.84 473.27,-133.15 474,-133.47 474.74,-133.8 475.45,-134.15 476.13,-134.53 476.81,-134.9 477.47,-135.3 478.09,-135.71 478.72,-136.13 479.31,-136.57 479.87,-137.02 480.43,-137.48 480.96,-137.95 481.45,-138.44 481.94,-138.93 482.4,-139.44 482.81,-139.95 483.23,-140.47 483.61,-141.01 483.94,-141.55 484.28,-142.1 484.58,-142.65 484.84,-143.21 485.09,-143.78 485.31,-144.35 485.48,-144.93 485.65,-145.51 485.78,-146.09 485.87,-146.68 485.96,-147.26 486,-147.85 486,-148.44 486,-148.44 459,-148.44 459,-148.44"/>
<ellipse fill="none" stroke="black" cx="459" cy="-148.44" rx="27" ry="18"/>
<text xml:space="preserve" text-anchor="middle" x="459" y="-144.74" font-family="Times,serif" font-size="11.00">1024</text>
</g>
<!-- n512&#45;&gt;n1024 -->
<g id="edge29" class="edge">
<title>n512&#45;&gt;n1024</title>
<path fill="none" stroke="#6688bb" d="M459,-212.47C459,-202.45 459,-189.62 459,-178.15"/>
<polygon fill="#6688bb" stroke="#6688bb" points="462.5,-178.39 459,-168.39 455.5,-178.39 462.5,-178.39"/>
<text xml:space="preserve" text-anchor="middle" x="466.12" y="-186.39" font-family="Times,serif" font-size="9.00" fill="#6688bb"> ×2 </text>
</g>
<!-- n1024&#45;&gt;n341 -->
<g id="edge5" class="edge">
<title>n1024&#45;&gt;n341</title>
<path fill="none" stroke="#ddbb99" d="M459,-129.97C459,-119.95 459,-107.12 459,-95.65"/>
<polygon fill="#ddbb99" stroke="#ddbb99" points="462.5,-95.89 459,-85.89 455.5,-95.89 462.5,-95.89"/>
<text xml:space="preserve" text-anchor="middle" x="474.75" y="-103.89" font-family="Times,serif" font-size="9.00" fill="#ddbb99"> (m&#45;1)/3 </text>
</g>
<!-- n2048 -->
<g id="node37" class="node">
<title>n2048</title>
<ellipse fill="#ccddff" stroke="black" cx="531" cy="-65.94" rx="27" ry="18"/>
<text xml:space="preserve" text-anchor="middle" x="531" y="-62.24" font-family="Times,serif" font-size="11.00">2048</text>
</g>
<!-- n1024&#45;&gt;n2048 -->
<g id="edge4" class="edge">
<title>n1024&#45;&gt;n2048</title>
<path fill="none" stroke="#6688bb" d="M474.5,-133.22C481.02,-127.02 488.57,-119.56 495,-112.44 500.94,-105.86 507.05,-98.43 512.51,-91.51"/>
<polygon fill="#6688bb" stroke="#6688bb" points="515.2,-93.76 518.55,-83.71 509.66,-89.47 515.2,-93.76"/>
<text xml:space="preserve" text-anchor="middle" x="510.45" y="-103.89" font-family="Times,serif" font-size="9.00" fill="#6688bb"> ×2 </text>
</g>
<!-- ghost_out_2048_0 -->
<g id="node38" class="node">
<title>ghost_out_2048_0</title>
</g>
<!-- n2048&#45;&gt;ghost_out_2048_0 -->
<g id="edge37" class="edge">
<title>n2048&#45;&gt;ghost_out_2048_0</title>
<path fill="none" stroke="#6688bb" stroke-dasharray="5,2" d="M531,-47.59C531,-36.49 531,-22.41 531,-12.74"/>
<polygon fill="#6688bb" stroke="#6688bb" points="534.5,-13.03 531,-3.03 527.5,-13.03 534.5,-13.03"/>
<text xml:space="preserve" text-anchor="middle" x="538.12" y="-21.39" font-family="Times,serif" font-size="9.00" fill="#6688bb"> ×2 </text>
</g>
</g>
</svg>
