<?xml version="1.0" encoding="UTF-8" standalone="no"?>
<!DOCTYPE svg PUBLIC "-//W3C//DTD SVG 1.1//EN"
 "http://www.w3.org/Graphics/SVG/1.1/DTD/svg11.dtd">
<!-- Generated by graphviz version 14.1.3 (20260303.0454)
 -->
<!-- Pages: 1 -->
<svg width="269pt" height="704pt"
 viewBox="0.00 0.00 269.00 704.00" xmlns="http://www.w3.org/2000/svg" xmlns:xlink="http://www.w3.org/1999/xlink">
<g id="graph0" class="graph" transform="scale(1 1) rotate(0) translate(4 700)">
<polygon fill="white" stroke="none" points="-4,4 -4,-700 265,-700 265,4 -4,4"/>
<!-- n0 -->
<g id="node1" class="node">
<title>n0</title>
<ellipse fill="none" stroke="black" cx="150" cy="-18" rx="27" ry="18"/>
<text xml:space="preserve" text-anchor="middle" x="150" y="-14.3" font-family="Times,serif" font-size="11.00">0</text>
</g>
<!-- n10 -->
<g id="node2" class="node">
<title>n10</title>
<ellipse fill="#cceecc" stroke="black" cx="150" cy="-100.5" rx="27" ry="18"/>
<text xml:space="preserve" text-anchor="middle" x="150" y="-96.8" font-family="Times,serif" font-size="11.00">10</text>
</g>
<!-- n10&#45;&gt;n0 -->
<g id="edge1" class="edge">
<title>n10&#45;&gt;n0</title>
<path fill="none" stroke="#77aa77" d="M150,-82.03C150,-72.01 150,-59.18 150,-47.71"/>
<polygon fill="#77aa77" stroke="#77aa77" points="153.5,-47.95 150,-37.95 146.5,-47.95 153.5,-47.95"/>
<text xml:space="preserve" text-anchor="middle" x="159" y="-55.95" font-family="Times,serif" font-size="9.00" fill="#77aa77"> 10€ </text>
</g>
<!-- n20 -->
<g id="node3" class="node">
<title>n20</title>
<path fill="#ffddcc" stroke="black" stroke-width="0.5" d="M93,-183C93,-183 120,-183 120,-183 120,-183.59 119.96,-184.18 119.87,-184.76 119.78,-185.35 119.65,-185.93 119.48,-186.51 119.31,-187.09 119.09,-187.66 118.84,-188.23 118.58,-188.79 118.28,-189.34 117.94,-189.89 117.61,-190.43 117.23,-190.97 116.81,-191.49 116.4,-192 115.94,-192.51 115.45,-193 114.96,-193.49 114.43,-193.96 113.87,-194.42 113.31,-194.87 112.72,-195.31 112.09,-195.73 111.47,-196.14 110.81,-196.54 110.13,-196.91 109.45,-197.29 108.74,-197.64 108,-197.97 107.27,-198.29 106.51,-198.6 105.73,-198.87 104.95,-199.15 104.15,-199.4 103.33,-199.63 102.52,-199.86 101.68,-200.05 100.84,-200.22 99.99,-200.4 99.13,-200.54 98.27,-200.65 97.4,-200.77 96.53,-200.86 95.65,-200.91 94.77,-200.97 93.88,-201 93,-201 92.12,-201 91.23,-200.97 90.35,-200.91 89.47,-200.86 88.6,-200.77 87.73,-200.65 86.87,-200.54 86.01,-200.4 85.16,-200.22 84.32,-200.05 83.48,-199.86 82.67,-199.63 81.85,-199.4 81.05,-199.15 80.27,-198.87 79.49,-198.6 78.73,-198.29 78,-197.97 77.26,-197.64 76.55,-197.29 75.87,-196.91 75.19,-196.54 74.53,-196.14 73.91,-195.73 73.28,-195.31 72.69,-194.87 72.13,-194.42 71.57,-193.96 71.04,-193.49 70.55,-193 70.06,-192.51 69.6,-192 69.19,-191.49 68.77,-190.97 68.39,-190.43 68.06,-189.89 67.72,-189.34 67.42,-188.79 67.16,-188.23 66.91,-187.66 66.69,-187.09 66.52,-186.51 66.35,-185.93 66.22,-185.35 66.13,-184.76 66.04,-184.18 66,-183.59 66,-183 66,-183 93,-183 93,-183"/>
<path fill="#cceecc" stroke="black" stroke-width="0.5" d="M93,-183C93,-183 66,-183 66,-183 66,-182.41 66.04,-181.82 66.13,-181.24 66.22,-180.65 66.35,-180.07 66.52,-179.49 66.69,-178.91 66.91,-178.34 67.16,-177.77 67.42,-177.21 67.72,-176.66 68.06,-176.11 68.39,-175.57 68.77,-175.03 69.19,-174.51 69.6,-174 70.06,-173.49 70.55,-173 71.04,-172.51 71.57,-172.04 72.13,-171.58 72.69,-171.13 73.28,-170.69 73.91,-170.27 74.53,-169.86 75.19,-169.46 75.87,-169.09 76.55,-168.71 77.26,-168.36 78,-168.03 78.73,-167.71 79.49,-167.4 80.27,-167.13 81.05,-166.85 81.85,-166.6 82.67,-166.37 83.48,-166.14 84.32,-165.95 85.16,-165.78 86.01,-165.6 86.87,-165.46 87.73,-165.35 88.6,-165.23 89.47,-165.14 90.35,-165.09 91.23,-165.03 92.12,-165 93,-165 93.88,-165 94.77,-165.03 95.65,-165.09 96.53,-165.14 97.4,-165.23 98.27,-165.35 99.13,-165.46 99.99,-165.6 100.84,-165.78 101.68,-165.95 102.52,-166.14 103.33,-166.37 104.15,-166.6 104.95,-166.85 105.73,-167.13 106.51,-167.4 107.27,-167.71 108,-168.03 108.74,-168.36 109.45,-168.71 110.13,-169.09 110.81,-169.46 111.47,-169.86 112.09,-170.27 112.72,-170.69 113.31,-171.13 113.87,-171.58 114.43,-172.04 114.96,-172.51 115.45,-173 115.94,-173.49 116.4,-174 116.81,-174.51 117.23,-175.03 117.61,-175.57 117.94,-176.11 118.28,-176.66 118.58,-177.21 118.84,-177.77 119.09,-178.34 119.31,-178.91 119.48,-179.49 119.65,-180.07 119.78,-180.65 119.87,-181.24 119.96,-181.82 120,-182.41 120,-183 120,-183 93,-183 93,-183"/>
<ellipse fill="none" stroke="black" cx="93" cy="-183" rx="27" ry="18"/>
<text xml:space="preserve" text-anchor="middle" x="93" y="-179.3" font-family="Times,serif" font-size="11.00">20</text>
</g>
<!-- n20&#45;&gt;n0 -->
<g id="edge2" class="edge">
<title>n20&#45;&gt;n0</title>
<path fill="none" stroke="#ddbb99" d="M90.17,-164.78C87.56,-144.39 85.51,-109.76 96,-82.5 102.13,-66.57 114.07,-51.84 125.17,-40.59"/>
<polygon fill="#ddbb99" stroke="#ddbb99" points="127.51,-43.2 132.29,-33.75 122.66,-38.15 127.51,-43.2"/>
<text xml:space="preserve" text-anchor="middle" x="105" y="-97.2" font-family="Times,serif" font-size="9.00" fill="#ddbb99"> 20€ </text>
</g>
<!-- n20&#45;&gt;n10 -->
<g id="edge3" class="edge">
<title>n20&#45;&gt;n10</title>
<path fill="none" stroke="#77aa77" d="M103.46,-166.31C109.4,-157.49 117.02,-146.31 124,-136.5 126.42,-133.09 129.01,-129.53 131.58,-126.03"/>
<polygon fill="#77aa77" stroke="#77aa77" points="134.17,-128.41 137.31,-118.3 128.55,-124.25 134.17,-128.41"/>
<text xml:space="preserve" text-anchor="middle" x="133" y="-138.45" font-family="Times,serif" font-size="9.00" fill="#77aa77"> 10€ </text>
</g>
<!-- n30 -->
<g id="node4" class="node">
<title>n30</title>
<path fill="#ffddcc" stroke="black" stroke-width="0.5" d="M150,-265.5C150,-265.5 177,-265.5 177,-265.5 177,-266.09 176.96,-266.68 176.87,-267.26 176.78,-267.85 176.65,-268.43 176.48,-269.01 176.31,-269.59 176.09,-270.16 175.84,-270.73 175.58,-271.29 175.28,-271.84 174.94,-272.39 174.61,-272.93 174.23,-273.47 173.81,-273.99 173.4,-274.5 172.94,-275.01 172.45,-275.5 171.96,-275.99 171.43,-276.46 170.87,-276.92 170.31,-277.37 169.72,-277.81 169.09,-278.23 168.47,-278.64 167.81,-279.04 167.13,-279.41 166.45,-279.79 165.74,-280.14 165,-280.47 164.27,-280.79 163.51,-281.1 162.73,-281.37 161.95,-281.65 161.15,-281.9 160.33,-282.13 159.52,-282.36 158.68,-282.55 157.84,-282.72 156.99,-282.9 156.13,-283.04 155.27,-283.15 154.4,-283.27 153.53,-283.36 152.65,-283.41 151.77,-283.47 150.88,-283.5 150,-283.5 149.12,-283.5 148.23,-283.47 147.35,-283.41 146.47,-283.36 145.6,-283.27 144.73,-283.15 143.87,-283.04 143.01,-282.9 142.16,-282.72 141.32,-282.55 140.48,-282.36 139.67,-282.13 138.85,-281.9 138.05,-281.65 137.27,-281.37 136.49,-281.1 135.73,-280.79 135,-280.47 134.26,-280.14 133.55,-279.79 132.87,-279.41 132.19,-279.04 131.53,-278.64 130.91,-278.23 130.28,-277.81 129.69,-277.37 129.13,-276.92 128.57,-276.46 128.04,-275.99 127.55,-275.5 127.06,-275.01 126.6,-274.5 126.19,-273.99 125.77,-273.47 125.39,-272.93 125.06,-272.39 124.72,-271.84 124.42,-271.29 124.16,-270.73 123.91,-270.16 123.69,-269.59 123.52,-269.01 123.35,-268.43 123.22,-267.85 123.13,-267.26 123.04,-266.68 123,-266.09 123,-265.5 123,-265.5 150,-265.5 150,-265.5"/>
<path fill="#cceecc" stroke="black" stroke-width="0.5" d="M150,-265.5C150,-265.5 123,-265.5 123,-265.5 123,-264.91 123.04,-264.32 123.13,-263.74 123.22,-263.15 123.35,-262.57 123.52,-261.99 123.69,-261.41 123.91,-260.84 124.16,-260.27 124.42,-259.71 124.72,-259.16 125.06,-258.61 125.39,-258.07 125.77,-257.53 126.19,-257.01 126.6,-256.5 127.06,-255.99 127.55,-255.5 128.04,-255.01 128.57,-254.54 129.13,-254.08 129.69,-253.63 130.28,-253.19 130.91,-252.77 131.53,-252.36 132.19,-251.96 132.87,-251.59 133.55,-251.21 134.26,-250.86 135,-250.53 135.73,-250.21 136.49,-249.9 137.27,-249.63 138.05,-249.35 138.85,-249.1 139.67,-248.87 140.48,-248.64 141.32,-248.45 142.16,-248.28 143.01,-248.1 143.87,-247.96 144.73,-247.85 145.6,-247.73 146.47,-247.64 147.35,-247.59 148.23,-247.53 149.12,-247.5 150,-247.5 150.88,-247.5 151.77,-247.53 152.65,-247.59 153.53,-247.64 154.4,-247.73 155.27,-247.85 156.13,-247.96 156.99,-248.1 157.84,-248.28 158.68,-248.45 159.52,-248.64 160.33,-248.87 161.15,-249.1 161.95,-249.35 162.73,-249.63 163.51,-249.9 164.27,-250.21 165,-250.53 165.74,-250.86 166.45,-251.21 167.13,-251.59 167.81,-251.96 168.47,-252.36 169.09,-252.77 169.72,-253.19 170.31,-253.63 170.87,-254.08 171.43,-254.54 171.96,-255.01 172.45,-255.5 172.94,-255.99 173.4,-256.5 173.81,-257.01 174.23,-257.53 174.61,-258.07 174.94,-258.61 175.28,-259.16 175.58,-259.71 175.84,-260.27 176.09,-260.84 176.31,-261.41 176.48,-261.99 176.65,-262.57 176.78,-263.15 176.87,-263.74 176.96,-264.32 177,-264.91 177,-265.5 177,-265.5 150,-265.5 150,-265.5"/>
<ellipse fill="none" stroke="black" cx="150" cy="-265.5" rx="27" ry="18"/>
<text xml:space="preserve" text-anchor="middle" x="150" y="-261.8" font-family="Times,serif" font-size="11.00">30</text>
</g>
<!-- n30&#45;&gt;n10 -->
<g id="edge4" class="edge">
<title>n30&#45;&gt;n10</title>
<path fill="none" stroke="#ddbb99" d="M150,-247.06C150,-219.11 150,-164.04 150,-130.22"/>
<polygon fill="#ddbb99" stroke="#ddbb99" points="153.5,-130.33 150,-120.33 146.5,-130.33 153.5,-130.33"/>
<text xml:space="preserve" text-anchor="middle" x="159" y="-179.7" font-family="Times,serif" font-size="9.00" fill="#ddbb99"> 20€ </text>
</g>
<!-- n30&#45;&gt;n20 -->
<g id="edge5" class="edge">
<title>n30&#45;&gt;n20</title>
<path fill="none" stroke="#77aa77" d="M138.21,-248.92C133.71,-242.89 128.56,-235.91 124,-229.5 119.31,-222.91 114.33,-215.7 109.77,-209"/>
<polygon fill="#77aa77" stroke="#77aa77" points="112.81,-207.26 104.31,-200.95 107.02,-211.19 112.81,-207.26"/>
<text xml:space="preserve" text-anchor="middle" x="133" y="-220.95" font-family="Times,serif" font-size="9.00" fill="#77aa77"> 10€ </text>
</g>
<!-- n40 -->
<g id="node5" class="node">
<title>n40</title>
<path fill="#ffddcc" stroke="black" stroke-width="0.5" d="M93,-348C93,-348 120,-348 120,-348 120,-348.59 119.96,-349.18 119.87,-349.76 119.78,-350.35 119.65,-350.93 119.48,-351.51 119.31,-352.09 119.09,-352.66 118.84,-353.23 118.58,-353.79 118.28,-354.34 117.94,-354.89 117.61,-355.43 117.23,-355.97 116.81,-356.49 116.4,-357 115.94,-357.51 115.45,-358 114.96,-358.49 114.43,-358.96 113.87,-359.42 113.31,-359.87 112.72,-360.31 112.09,-360.73 111.47,-361.14 110.81,-361.54 110.13,-361.91 109.45,-362.29 108.74,-362.64 108,-362.97 107.27,-363.29 106.51,-363.6 105.73,-363.87 104.95,-364.15 104.15,-364.4 103.33,-364.63 102.52,-364.86 101.68,-365.05 100.84,-365.22 99.99,-365.4 99.13,-365.54 98.27,-365.65 97.4,-365.77 96.53,-365.86 95.65,-365.91 94.77,-365.97 93.88,-366 93,-366 92.12,-366 91.23,-365.97 90.35,-365.91 89.47,-365.86 88.6,-365.77 87.73,-365.65 86.87,-365.54 86.01,-365.4 85.16,-365.22 84.32,-365.05 83.48,-364.86 82.67,-364.63 81.85,-364.4 81.05,-364.15 80.27,-363.87 79.49,-363.6 78.73,-363.29 78,-362.97 77.26,-362.64 76.55,-362.29 75.87,-361.91 75.19,-361.54 74.53,-361.14 73.91,-360.73 73.28,-360.31 72.69,-359.87 72.13,-359.42 71.57,-358.96 71.04,-358.49 70.55,-358 70.06,-357.51 69.6,-357 69.19,-356.49 68.77,-355.97 68.39,-355.43 68.06,-354.89 67.72,-354.34 67.42,-353.79 67.16,-353.23 66.91,-352.66 66.69,-352.09 66.52,-351.51 66.35,-350.93 66.22,-350.35 66.13,-349.76 66.04,-349.18 66,-348.59 66,-348 66,-348 93,-348 93,-348"/>
<path fill="#cceecc" stroke="black" stroke-width="0.5" d="M93,-348C93,-348 66,-348 66,-348 66,-347.41 66.04,-346.82 66.13,-346.24 66.22,-345.65 66.35,-345.07 66.52,-344.49 66.69,-343.91 66.91,-343.34 67.16,-342.77 67.42,-342.21 67.72,-341.66 68.06,-341.11 68.39,-340.57 68.77,-340.03 69.19,-339.51 69.6,-339 70.06,-338.49 70.55,-338 71.04,-337.51 71.57,-337.04 72.13,-336.58 72.69,-336.13 73.28,-335.69 73.91,-335.27 74.53,-334.86 75.19,-334.46 75.87,-334.09 76.55,-333.71 77.26,-333.36 78,-333.03 78.73,-332.71 79.49,-332.4 80.27,-332.13 81.05,-331.85 81.85,-331.6 82.67,-331.37 83.48,-331.14 84.32,-330.95 85.16,-330.78 86.01,-330.6 86.87,-330.46 87.73,-330.35 88.6,-330.23 89.47,-330.14 90.35,-330.09 91.23,-330.03 92.12,-330 93,-330 93.88,-330 94.77,-330.03 95.65,-330.09 96.53,-330.14 97.4,-330.23 98.27,-330.35 99.13,-330.46 99.99,-330.6 100.84,-330.78 101.68,-330.95 102.52,-331.14 103.33,-331.37 104.15,-331.6 104.95,-331.85 105.73,-332.13 106.51,-332.4 107.27,-332.71 108,-333.03 108.74,-333.36 109.45,-333.71 110.13,-334.09 110.81,-334.46 111.47,-334.86 112.09,-335.27 112.72,-335.69 113.31,-336.13 113.87,-336.58 114.43,-337.04 114.96,-337.51 115.45,-338 115.94,-338.49 116.4,-339 116.81,-339.51 117.23,-340.03 117.61,-340.57 117.94,-341.11 118.28,-341.66 118.58,-342.21 118.84,-342.77 119.09,-343.34 119.31,-343.91 119.48,-344.49 119.65,-345.07 119.78,-345.65 119.87,-346.24 119.96,-346.82 120,-347.41 120,-348 120,-348 93,-348 93,-348"/>
<ellipse fill="none" stroke="black" cx="93" cy="-348" rx="27" ry="18"/>
<text xml:space="preserve" text-anchor="middle" x="93" y="-344.3" font-family="Times,serif" font-size="11.00">40</text>
</g>
<!-- n40&#45;&gt;n20 -->
<g id="edge6" class="edge">
<title>n40&#45;&gt;n20</title>
<path fill="none" stroke="#ddbb99" d="M93,-329.56C93,-301.61 93,-246.54 93,-212.72"/>
<polygon fill="#ddbb99" stroke="#ddbb99" points="96.5,-212.83 93,-202.83 89.5,-212.83 96.5,-212.83"/>
<text xml:space="preserve" text-anchor="middle" x="102" y="-262.2" font-family="Times,serif" font-size="9.00" fill="#ddbb99"> 20€ </text>
</g>
<!-- n40&#45;&gt;n30 -->
<g id="edge7" class="edge">
<title>n40&#45;&gt;n30</title>
<path fill="none" stroke="#77aa77" d="M103.46,-331.31C109.4,-322.49 117.02,-311.31 124,-301.5 126.42,-298.09 129.01,-294.53 131.58,-291.03"/>
<polygon fill="#77aa77" stroke="#77aa77" points="134.17,-293.41 137.31,-283.3 128.55,-289.25 134.17,-293.41"/>
<text xml:space="preserve" text-anchor="middle" x="133" y="-303.45" font-family="Times,serif" font-size="9.00" fill="#77aa77"> 10€ </text>
</g>
<!-- n50 -->
<g id="node6" class="node">
<title>n50</title>
<path fill="#ccddff" stroke="black" stroke-width="0.5" d="M150,-430.5C150,-430.5 177,-430.5 177,-430.5 177,-431.23 176.93,-431.95 176.8,-432.68 176.67,-433.4 176.47,-434.11 176.21,-434.82 175.95,-435.52 175.62,-436.22 175.24,-436.9 174.85,-437.58 174.4,-438.24 173.89,-438.88 173.38,-439.53 172.82,-440.15 172.2,-440.75 171.58,-441.35 170.9,-441.92 170.18,-442.46 169.45,-443 168.68,-443.52 167.86,-444 167.04,-444.48 166.18,-444.93 165.28,-445.34 164.38,-445.75 163.45,-446.13 162.48,-446.46 161.51,-446.8 160.52,-447.09 159.5,-447.35 158.48,-447.61 157.43,-447.82 156.37,-447.99 155.31,-448.16 154.24,-448.29 153.16,-448.38 152.07,-448.46 150.98,-448.5 149.89,-448.5 148.8,-448.5 147.71,-448.45 146.63,-448.36 145.55,-448.27 144.48,-448.13 143.42,-447.96 142.36,-447.78 141.32,-447.56 140.3,-447.3 140.3,-447.3 150,-430.5 150,-430.5"/>
<path fill="#ffddcc" stroke="black" stroke-width="0.5" d="M150,-430.5C150,-430.5 140.3,-447.3 140.3,-447.3 139.04,-446.97 137.81,-446.59 136.63,-446.14 135.46,-445.69 134.33,-445.19 133.27,-444.63 132.21,-444.07 131.21,-443.46 130.28,-442.8 129.36,-442.14 128.51,-441.43 127.74,-440.69 126.98,-439.94 126.29,-439.16 125.7,-438.35 125.11,-437.54 124.61,-436.7 124.21,-435.83 123.81,-434.97 123.51,-434.09 123.3,-433.2 123.1,-432.3 123,-431.4 123,-430.5 123,-429.6 123.1,-428.7 123.3,-427.8 123.51,-426.91 123.81,-426.03 124.21,-425.17 124.61,-424.3 125.11,-423.46 125.7,-422.65 126.29,-421.84 126.98,-421.06 127.74,-420.31 128.51,-419.57 129.36,-418.86 130.28,-418.2 131.21,-417.54 132.21,-416.93 133.27,-416.37 134.33,-415.81 135.46,-415.31 136.63,-414.86 137.81,-414.41 139.04,-414.03 140.3,-413.7 140.3,-413.7 150,-430.5 150,-430.5"/>
<path fill="#cceecc" stroke="black" stroke-width="0.5" d="M150,-430.5C150,-430.5 140.3,-413.7 140.3,-413.7 141.32,-413.44 142.36,-413.22 143.42,-413.04 144.48,-412.87 145.55,-412.73 146.63,-412.64 147.71,-412.55 148.8,-412.5 149.89,-412.5 150.98,-412.5 152.07,-412.54 153.16,-412.62 154.24,-412.71 155.31,-412.84 156.37,-413.01 157.43,-413.18 158.48,-413.39 159.5,-413.65 160.52,-413.91 161.51,-414.2 162.48,-414.54 163.45,-414.87 164.38,-415.25 165.28,-415.66 166.18,-416.07 167.04,-416.52 167.86,-417 168.68,-417.48 169.45,-418 170.18,-418.54 170.9,-419.08 171.58,-419.65 172.2,-420.25 172.82,-420.85 173.38,-421.47 173.89,-422.12 174.4,-422.76 174.85,-423.42 175.24,-424.1 175.62,-424.78 175.95,-425.48 176.21,-426.18 176.47,-426.89 176.67,-427.6 176.8,-428.32 176.93,-429.05 177,-429.77 177,-430.5 177,-430.5 150,-430.5 150,-430.5"/>
<ellipse fill="none" stroke="black" cx="150" cy="-430.5" rx="27" ry="18"/>
<text xml:space="preserve" text-anchor="middle" x="150" y="-426.8" font-family="Times,serif" font-size="11.00">50</text>
</g>
<!-- n50&#45;&gt;n0 -->
<g id="edge8" class="edge">
<title>n50&#45;&gt;n0</title>
<path fill="none" stroke="#6688bb" d="M166.8,-416C182.98,-401.37 205,-376.42 205,-349 205,-349 205,-349 205,-99.5 205,-76.36 189.32,-54.98 174.7,-40.08"/>
<polygon fill="#6688bb" stroke="#6688bb" points="177.53,-37.94 167.89,-33.55 172.69,-43 177.53,-37.94"/>
<text xml:space="preserve" text-anchor="middle" x="214" y="-220.95" font-family="Times,serif" font-size="9.00" fill="#6688bb"> 50€ </text>
</g>
<!-- n50&#45;&gt;n30 -->
<g id="edge9" class="edge">
<title>n50&#45;&gt;n30</title>
<path fill="none" stroke="#ddbb99" d="M150,-412.06C150,-384.11 150,-329.04 150,-295.22"/>
<polygon fill="#ddbb99" stroke="#ddbb99" points="153.5,-295.33 150,-285.33 146.5,-295.33 153.5,-295.33"/>
<text xml:space="preserve" text-anchor="middle" x="159" y="-344.7" font-family="Times,serif" font-size="9.00" fill="#ddbb99"> 20€ </text>
</g>
<!-- n50&#45;&gt;n40 -->
<g id="edge10" class="edge">
<title>n50&#45;&gt;n40</title>
<path fill="none" stroke="#77aa77" d="M138.21,-413.92C133.71,-407.89 128.56,-400.91 124,-394.5 119.31,-387.91 114.33,-380.7 109.77,-374"/>
<polygon fill="#77aa77" stroke="#77aa77" points="112.81,-372.26 104.31,-365.95 107.02,-376.19 112.81,-372.26"/>
<text xml:space="preserve" text-anchor="middle" x="133" y="-385.95" font-family="Times,serif" font-size="9.00" fill="#77aa77"> 10€ </text>
</g>
<!-- n60 -->
<g id="node7" class="node">
<title>n60</title>
<path fill="#ccddff" stroke="black" stroke-width="0.5" d="M70,-513C70,-513 97,-513 97,-513 97,-513.73 96.93,-514.45 96.8,-515.18 96.67,-515.9 96.47,-516.61 96.21,-517.32 95.95,-518.02 95.62,-518.72 95.24,-519.4 94.85,-520.08 94.4,-520.74 93.89,-521.38 93.38,-522.03 92.82,-522.65 92.2,-523.25 91.58,-523.85 90.9,-524.42 90.18,-524.96 89.45,-525.5 88.68,-526.02 87.86,-526.5 87.04,-526.98 86.18,-527.43 85.28,-527.84 84.38,-528.25 83.45,-528.63 82.48,-528.96 81.51,-529.3 80.52,-529.59 79.5,-529.85 78.48,-530.11 77.43,-530.32 76.37,-530.49 75.31,-530.66 74.24,-530.79 73.16,-530.88 72.07,-530.96 70.98,-531 69.89,-531 68.8,-531 67.71,-530.95 66.63,-530.86 65.55,-530.77 64.48,-530.63 63.42,-530.46 62.36,-530.28 61.32,-530.06 60.3,-529.8 60.3,-529.8 70,-513 70,-513"/>
<path fill="#ffddcc" stroke="black" stroke-width="0.5" d="M70,-513C70,-513 60.3,-529.8 60.3,-529.8 59.04,-529.47 57.81,-529.09 56.63,-528.64 55.46,-528.19 54.33,-527.69 53.27,-527.13 52.21,-526.57 51.21,-525.96 50.28,-525.3 49.36,-524.64 48.51,-523.93 47.74,-523.19 46.98,-522.44 46.29,-521.66 45.7,-520.85 45.11,-520.04 44.61,-519.2 44.21,-518.33 43.81,-517.47 43.51,-516.59 43.3,-515.7 43.1,-514.8 43,-513.9 43,-513 43,-512.1 43.1,-511.2 43.3,-510.3 43.51,-509.41 43.81,-508.53 44.21,-507.67 44.61,-506.8 45.11,-505.96 45.7,-505.15 46.29,-504.34 46.98,-503.56 47.74,-502.81 48.51,-502.07 49.36,-501.36 50.28,-500.7 51.21,-500.04 52.21,-499.43 53.27,-498.87 54.33,-498.31 55.46,-497.81 56.63,-497.36 57.81,-496.91 59.04,-496.53 60.3,-496.2 60.3,-496.2 70,-513 70,-513"/>
<path fill="#cceecc" stroke="black" stroke-width="0.5" d="M70,-513C70,-513 60.3,-496.2 60.3,-496.2 61.32,-495.94 62.36,-495.72 63.42,-495.54 64.48,-495.37 65.55,-495.23 66.63,-495.14 67.71,-495.05 68.8,-495 69.89,-495 70.98,-495 72.07,-495.04 73.16,-495.12 74.24,-495.21 75.31,-495.34 76.37,-495.51 77.43,-495.68 78.48,-495.89 79.5,-496.15 80.52,-496.41 81.51,-496.7 82.48,-497.04 83.45,-497.37 84.38,-497.75 85.28,-498.16 86.18,-498.57 87.04,-499.02 87.86,-499.5 88.68,-499.98 89.45,-500.5 90.18,-501.04 90.9,-501.58 91.58,-502.15 92.2,-502.75 92.82,-503.35 93.38,-503.97 93.89,-504.62 94.4,-505.26 94.85,-505.92 95.24,-506.6 95.62,-507.28 95.95,-507.98 96.21,-508.68 96.47,-509.39 96.67,-510.1 96.8,-510.82 96.93,-511.55 97,-512.27 97,-513 97,-513 70,-513 70,-513"/>
<ellipse fill="none" stroke="black" cx="70" cy="-513" rx="27" ry="18"/>
<text xml:space="preserve" text-anchor="middle" x="70" y="-509.3" font-family="Times,serif" font-size="11.00">60</text>
</g>
<!-- n60&#45;&gt;n10 -->
<g id="edge11" class="edge">
<title>n60&#45;&gt;n10</title>
<path fill="none" stroke="#6688bb" d="M59.52,-496.09C50.19,-480.36 38,-455.26 38,-431.5 38,-431.5 38,-431.5 38,-182 38,-171.83 87.34,-139.69 120.53,-119.23"/>
<polygon fill="#6688bb" stroke="#6688bb" points="122.24,-122.29 128.94,-114.09 118.59,-116.32 122.24,-122.29"/>
<text xml:space="preserve" text-anchor="middle" x="47" y="-303.45" font-family="Times,serif" font-size="9.00" fill="#6688bb"> 50€ </text>
</g>
<!-- n60&#45;&gt;n40 -->
<g id="edge12" class="edge">
<title>n60&#45;&gt;n40</title>
<path fill="none" stroke="#ddbb99" d="M72.42,-494.86C76.36,-466.93 84.21,-411.31 88.99,-377.4"/>
<polygon fill="#ddbb99" stroke="#ddbb99" points="92.4,-378.29 90.33,-367.9 85.47,-377.31 92.4,-378.29"/>
<text xml:space="preserve" text-anchor="middle" x="92.79" y="-427.2" font-family="Times,serif" font-size="9.00" fill="#ddbb99"> 20€ </text>
</g>
<!-- n60&#45;&gt;n50 -->
<g id="edge13" class="edge">
<title>n60&#45;&gt;n50</title>
<path fill="none" stroke="#77aa77" d="M84.3,-497.61C96.29,-485.55 113.61,-468.12 127.46,-454.18"/>
<polygon fill="#77aa77" stroke="#77aa77" points="129.92,-456.67 134.48,-447.11 124.95,-451.74 129.92,-456.67"/>
<text xml:space="preserve" text-anchor="middle" x="123.79" y="-468.45" font-family="Times,serif" font-size="9.00" fill="#77aa77"> 10€ </text>
</g>
<!-- n70 -->
<g id="node8" class="node">
<title>n70</title>
<path fill="#ccddff" stroke="black" stroke-width="0.5" d="M70,-595.5C70,-595.5 97,-595.5 97,-595.5 97,-596.23 96.93,-596.95 96.8,-597.68 96.67,-598.4 96.47,-599.11 96.21,-599.82 95.95,-600.52 95.62,-601.22 95.24,-601.9 94.85,-602.58 94.4,-603.24 93.89,-603.88 93.38,-604.53 92.82,-605.15 92.2,-605.75 91.58,-606.35 90.9,-606.92 90.18,-607.46 89.45,-608 88.68,-608.52 87.86,-609 87.04,-609.48 86.18,-609.93 85.28,-610.34 84.38,-610.75 83.45,-611.13 82.48,-611.46 81.51,-611.8 80.52,-612.09 79.5,-612.35 78.48,-612.61 77.43,-612.82 76.37,-612.99 75.31,-613.16 74.24,-613.29 73.16,-613.38 72.07,-613.46 70.98,-613.5 69.89,-613.5 68.8,-613.5 67.71,-613.45 66.63,-613.36 65.55,-613.27 64.48,-613.13 63.42,-612.96 62.36,-612.78 61.32,-612.56 60.3,-612.3 60.3,-612.3 70,-595.5 70,-595.5"/>
<path fill="#ffddcc" stroke="black" stroke-width="0.5" d="M70,-595.5C70,-595.5 60.3,-612.3 60.3,-612.3 59.04,-611.97 57.81,-611.59 56.63,-611.14 55.46,-610.69 54.33,-610.19 53.27,-609.63 52.21,-609.07 51.21,-608.46 50.28,-607.8 49.36,-607.14 48.51,-606.43 47.74,-605.69 46.98,-604.94 46.29,-604.16 45.7,-603.35 45.11,-602.54 44.61,-601.7 44.21,-600.83 43.81,-599.97 43.51,-599.09 43.3,-598.2 43.1,-597.3 43,-596.4 43,-595.5 43,-594.6 43.1,-593.7 43.3,-592.8 43.51,-591.91 43.81,-591.03 44.21,-590.17 44.61,-589.3 45.11,-588.46 45.7,-587.65 46.29,-586.84 46.98,-586.06 47.74,-585.31 48.51,-584.57 49.36,-583.86 50.28,-583.2 51.21,-582.54 52.21,-581.93 53.27,-581.37 54.33,-580.81 55.46,-580.31 56.63,-579.86 57.81,-579.41 59.04,-579.03 60.3,-578.7 60.3,-578.7 70,-595.5 70,-595.5"/>
<path fill="#cceecc" stroke="black" stroke-width="0.5" d="M70,-595.5C70,-595.5 60.3,-578.7 60.3,-578.7 61.32,-578.44 62.36,-578.22 63.42,-578.04 64.48,-577.87 65.55,-577.73 66.63,-577.64 67.71,-577.55 68.8,-577.5 69.89,-577.5 70.98,-577.5 72.07,-577.54 73.16,-577.62 74.24,-577.71 75.31,-577.84 76.37,-578.01 77.43,-578.18 78.48,-578.39 79.5,-578.65 80.52,-578.91 81.51,-579.2 82.48,-579.54 83.45,-579.87 84.38,-580.25 85.28,-580.66 86.18,-581.07 87.04,-581.52 87.86,-582 88.68,-582.48 89.45,-583 90.18,-583.54 90.9,-584.08 91.58,-584.65 92.2,-585.25 92.82,-585.85 93.38,-586.47 93.89,-587.12 94.4,-587.76 94.85,-588.42 95.24,-589.1 95.62,-589.78 95.95,-590.48 96.21,-591.18 96.47,-591.89 96.67,-592.6 96.8,-593.32 96.93,-594.05 97,-594.77 97,-595.5 97,-595.5 70,-595.5 70,-595.5"/>
<ellipse fill="none" stroke="black" cx="70" cy="-595.5" rx="27" ry="18"/>
<text xml:space="preserve" text-anchor="middle" x="70" y="-591.8" font-family="Times,serif" font-size="11.00">70</text>
</g>
<!-- n70&#45;&gt;n20 -->
<g id="edge14" class="edge">
<title>n70&#45;&gt;n20</title>
<path fill="none" stroke="#6688bb" d="M50.13,-583.05C29.43,-569.46 0,-544.74 0,-514 0,-514 0,-514 0,-264.5 0,-232.07 32.72,-209.79 59.34,-197.03"/>
<polygon fill="#6688bb" stroke="#6688bb" points="60.47,-200.36 68.15,-193.07 57.6,-193.98 60.47,-200.36"/>
<text xml:space="preserve" text-anchor="middle" x="9" y="-385.95" font-family="Times,serif" font-size="9.00" fill="#6688bb"> 50€ </text>
</g>
<!-- n70&#45;&gt;n50 -->
<g id="edge15" class="edge">
<title>n70&#45;&gt;n50</title>
<path fill="none" stroke="#ddbb99" d="M80.43,-578.76C94.63,-556.77 120.09,-515.24 136,-477 138.32,-471.42 140.46,-465.32 142.33,-459.44"/>
<polygon fill="#ddbb99" stroke="#ddbb99" points="145.62,-460.66 145.14,-450.08 138.91,-458.65 145.62,-460.66"/>
<text xml:space="preserve" text-anchor="middle" x="136.68" y="-509.7" font-family="Times,serif" font-size="9.00" fill="#ddbb99"> 20€ </text>
</g>
<!-- n70&#45;&gt;n60 -->
<g id="edge16" class="edge">
<title>n70&#45;&gt;n60</title>
<path fill="none" stroke="#77aa77" d="M70,-577.03C70,-567.01 70,-554.18 70,-542.71"/>
<polygon fill="#77aa77" stroke="#77aa77" points="73.5,-542.95 70,-532.95 66.5,-542.95 73.5,-542.95"/>
<text xml:space="preserve" text-anchor="middle" x="79" y="-550.95" font-family="Times,serif" font-size="9.00" fill="#77aa77"> 10€ </text>
</g>
<!-- n80 -->
<g id="node9" class="node">
<title>n80</title>
<path fill="#ccddff" stroke="black" stroke-width="0.5" d="M70,-678C70,-678 97,-678 97,-678 97,-678.73 96.93,-679.45 96.8,-680.18 96.67,-680.9 96.47,-681.61 96.21,-682.32 95.95,-683.02 95.62,-683.72 95.24,-684.4 94.85,-685.08 94.4,-685.74 93.89,-686.38 93.38,-687.03 92.82,-687.65 92.2,-688.25 91.58,-688.85 90.9,-689.42 90.18,-689.96 89.45,-690.5 88.68,-691.02 87.86,-691.5 87.04,-691.98 86.18,-692.43 85.28,-692.84 84.38,-693.25 83.45,-693.63 82.48,-693.96 81.51,-694.3 80.52,-694.59 79.5,-694.85 78.48,-695.11 77.43,-695.32 76.37,-695.49 75.31,-695.66 74.24,-695.79 73.16,-695.88 72.07,-695.96 70.98,-696 69.89,-696 68.8,-696 67.71,-695.95 66.63,-695.86 65.55,-695.77 64.48,-695.63 63.42,-695.46 62.36,-695.28 61.32,-695.06 60.3,-694.8 60.3,-694.8 70,-678 70,-678"/>
<path fill="#ffddcc" stroke="black" stroke-width="0.5" d="M70,-678C70,-678 60.3,-694.8 60.3,-694.8 59.04,-694.47 57.81,-694.09 56.63,-693.64 55.46,-693.19 54.33,-692.69 53.27,-692.13 52.21,-691.57 51.21,-690.96 50.28,-690.3 49.36,-689.64 48.51,-688.93 47.74,-688.19 46.98,-687.44 46.29,-686.66 45.7,-685.85 45.11,-685.04 44.61,-684.2 44.21,-683.33 43.81,-682.47 43.51,-681.59 43.3,-680.7 43.1,-679.8 43,-678.9 43,-678 43,-677.1 43.1,-676.2 43.3,-675.3 43.51,-674.41 43.81,-673.53 44.21,-672.67 44.61,-671.8 45.11,-670.96 45.7,-670.15 46.29,-669.34 46.98,-668.56 47.74,-667.81 48.51,-667.07 49.36,-666.36 50.28,-665.7 51.21,-665.04 52.21,-664.43 53.27,-663.87 54.33,-663.31 55.46,-662.81 56.63,-662.36 57.81,-661.91 59.04,-661.53 60.3,-661.2 60.3,-661.2 70,-678 70,-678"/>
<path fill="#cceecc" stroke="black" stroke-width="0.5" d="M70,-678C70,-678 60.3,-661.2 60.3,-661.2 61.32,-660.94 62.36,-660.72 63.42,-660.54 64.48,-660.37 65.55,-660.23 66.63,-660.14 67.71,-660.05 68.8,-660 69.89,-660 70.98,-660 72.07,-660.04 73.16,-660.12 74.24,-660.21 75.31,-660.34 76.37,-660.51 77.43,-660.68 78.48,-660.89 79.5,-661.15 80.52,-661.41 81.51,-661.7 82.48,-662.04 83.45,-662.37 84.38,-662.75 85.28,-663.16 86.18,-663.57 87.04,-664.02 87.86,-664.5 88.68,-664.98 89.45,-665.5 90.18,-666.04 90.9,-666.58 91.58,-667.15 92.2,-667.75 92.82,-668.35 93.38,-668.97 93.89,-669.62 94.4,-670.26 94.85,-670.92 95.24,-671.6 95.62,-672.28 95.95,-672.98 96.21,-673.68 96.47,-674.39 96.67,-675.1 96.8,-675.82 96.93,-676.55 97,-677.27 97,-678 97,-678 70,-678 70,-678"/>
<ellipse fill="none" stroke="black" stroke-width="3" cx="70" cy="-678" rx="27" ry="18"/>
<text xml:space="preserve" text-anchor="middle" x="70" y="-674.3" font-family="Times,serif" font-size="11.00">80</text>
</g>
<!-- n80&#45;&gt;n30 -->
<g id="edge17" class="edge">
<title>n80&#45;&gt;n30</title>
<path fill="none" stroke="#6688bb" d="M98.18,-676.28C147.2,-673.37 243,-659.61 243,-596.5 243,-596.5 243,-596.5 243,-347 243,-314.57 210.28,-292.29 183.66,-279.53"/>
<polygon fill="#6688bb" stroke="#6688bb" points="185.4,-276.48 174.85,-275.57 182.53,-282.86 185.4,-276.48"/>
<text xml:space="preserve" text-anchor="middle" x="252" y="-468.45" font-family="Times,serif" font-size="9.00" fill="#6688bb"> 50€ </text>
</g>
<!-- n80&#45;&gt;n60 -->
<g id="edge18" class="edge">
<title>n80&#45;&gt;n60</title>
<path fill="none" stroke="#ddbb99" d="M52.43,-662.65C39.6,-650.95 23.24,-633.19 16,-613.5 10.48,-598.48 10.48,-592.52 16,-577.5 21.89,-561.48 33.81,-546.74 44.96,-535.51"/>
<polygon fill="#ddbb99" stroke="#ddbb99" points="47.3,-538.11 52.13,-528.68 42.47,-533.05 47.3,-538.11"/>
<text xml:space="preserve" text-anchor="middle" x="25" y="-592.2" font-family="Times,serif" font-size="9.00" fill="#ddbb99"> 20€ </text>
</g>
<!-- n80&#45;&gt;n70 -->
<g id="edge19" class="edge">
<title>n80&#45;&gt;n70</title>
<path fill="none" stroke="#77aa77" d="M70,-658.73C70,-648.85 70,-636.43 70,-625.28"/>
<polygon fill="#77aa77" stroke="#77aa77" points="73.5,-625.38 70,-615.38 66.5,-625.38 73.5,-625.38"/>
<text xml:space="preserve" text-anchor="middle" x="79" y="-633.45" font-family="Times,serif" font-size="9.00" fill="#77aa77"> 10€ </text>
</g>
</g>
</svg>
