<?xml version="1.0" encoding="UTF-8" standalone="no"?>
<!DOCTYPE svg PUBLIC "-//W3C//DTD SVG 1.1//EN"
 "http://www.w3.org/Graphics/SVG/1.1/DTD/svg11.dtd">
<!-- Generated by graphviz version 14.1.3 (20260303.0454)
 -->
<!-- Pages: 1 -->
<svg width="173pt" height="1529pt"
 viewBox="0.00 0.00 173.00 1529.00" xmlns="http://www.w3.org/2000/svg" xmlns:xlink="http://www.w3.org/1999/xlink">
<g id="graph0" class="graph" transform="scale(1 1) rotate(0) translate(4 1525)">
<polygon fill="white" stroke="none" points="-4,4 -4,-1525 169,-1525 169,4 -4,4"/>
<!-- n1 -->
<g id="node1" class="node">
<title>n1</title>
<ellipse fill="#cf4500" stroke="black" cx="27" cy="-183" rx="27" ry="18"/>
<text xml:space="preserve" text-anchor="middle" x="27" y="-179.3" font-family="Times,serif" font-size="11.00" fill="white">1</text>
</g>
<!-- n4 -->
<g id="node4" class="node">
<title>n4</title>
<ellipse fill="#0045cf" stroke="black" cx="84" cy="-100.5" rx="27" ry="18"/>
<text xml:space="preserve" text-anchor="middle" x="84" y="-96.8" font-family="Times,serif" font-size="11.00" fill="white">4</text>
</g>
<!-- n1&#45;&gt;n4 -->
<g id="edge1" class="edge">
<title>n1&#45;&gt;n4</title>
<path fill="none" stroke="#ddbb99" d="M37.99,-166.48C45.98,-155.19 56.97,-139.67 66.21,-126.63"/>
<polygon fill="#ddbb99" stroke="#ddbb99" points="69.05,-128.67 71.97,-118.48 63.34,-124.62 69.05,-128.67"/>
<text xml:space="preserve" text-anchor="middle" x="70.54" y="-138.45" font-family="Times,serif" font-size="9.00" fill="#ddbb99"> 3n+1 </text>
</g>
<!-- n2 -->
<g id="node2" class="node">
<title>n2</title>
<ellipse fill="#0045cf" stroke="black" cx="39" cy="-18" rx="27" ry="18"/>
<text xml:space="preserve" text-anchor="middle" x="39" y="-14.3" font-family="Times,serif" font-size="11.00" fill="white">2</text>
</g>
<!-- n2&#45;&gt;n1 -->
<g id="edge8" class="edge">
<title>n2&#45;&gt;n1</title>
<path fill="none" stroke="#6688bb" d="M36.92,-36.23C35.44,-48.99 33.5,-66.81 32.25,-82.5 30.35,-106.35 28.97,-133.47 28.11,-153.36"/>
<polygon fill="#6688bb" stroke="#6688bb" points="24.62,-153.08 27.7,-163.21 31.61,-153.37 24.62,-153.08"/>
<text xml:space="preserve" text-anchor="middle" x="40.12" y="-97.2" font-family="Times,serif" font-size="9.00" fill="#6688bb"> n/2 </text>
</g>
<!-- n3 -->
<g id="node3" class="node">
<title>n3</title>
<ellipse fill="#ffddcc" stroke="black" cx="66" cy="-513" rx="27" ry="18"/>
<text xml:space="preserve" text-anchor="middle" x="66" y="-509.3" font-family="Times,serif" font-size="11.00">3</text>
</g>
<!-- n10 -->
<g id="node10" class="node">
<title>n10</title>
<ellipse fill="#ccddff" stroke="black" cx="102" cy="-430.5" rx="27" ry="18"/>
<text xml:space="preserve" text-anchor="middle" x="102" y="-426.8" font-family="Times,serif" font-size="11.00">10</text>
</g>
<!-- n3&#45;&gt;n10 -->
<g id="edge13" class="edge">
<title>n3&#45;&gt;n10</title>
<path fill="none" stroke="#ddbb99" d="M73.46,-495.32C78.19,-484.74 84.42,-470.81 89.85,-458.66"/>
<polygon fill="#ddbb99" stroke="#ddbb99" points="93.05,-460.1 93.93,-449.54 86.65,-457.24 93.05,-460.1"/>
<text xml:space="preserve" text-anchor="middle" x="97.78" y="-468.45" font-family="Times,serif" font-size="9.00" fill="#ddbb99"> 3n+1 </text>
</g>
<!-- n4&#45;&gt;n2 -->
<g id="edge15" class="edge">
<title>n4&#45;&gt;n2</title>
<path fill="none" stroke="#6688bb" d="M74.89,-83.21C68.79,-72.3 60.63,-57.69 53.63,-45.17"/>
<polygon fill="#6688bb" stroke="#6688bb" points="56.77,-43.61 48.83,-36.59 50.66,-47.02 56.77,-43.61"/>
<text xml:space="preserve" text-anchor="middle" x="72.07" y="-55.95" font-family="Times,serif" font-size="9.00" fill="#6688bb"> n/2 </text>
</g>
<!-- n5 -->
<g id="node5" class="node">
<title>n5</title>
<ellipse fill="#ffddcc" stroke="black" cx="102" cy="-348" rx="27" ry="18"/>
<text xml:space="preserve" text-anchor="middle" x="102" y="-344.3" font-family="Times,serif" font-size="11.00">5</text>
</g>
<!-- n16 -->
<g id="node14" class="node">
<title>n16</title>
<ellipse fill="#0045cf" stroke="black" cx="102" cy="-265.5" rx="27" ry="18"/>
<text xml:space="preserve" text-anchor="middle" x="102" y="-261.8" font-family="Times,serif" font-size="11.00" fill="white">16</text>
</g>
<!-- n5&#45;&gt;n16 -->
<g id="edge17" class="edge">
<title>n5&#45;&gt;n16</title>
<path fill="none" stroke="#ddbb99" d="M102,-329.53C102,-319.51 102,-306.68 102,-295.21"/>
<polygon fill="#ddbb99" stroke="#ddbb99" points="105.5,-295.45 102,-285.45 98.5,-295.45 105.5,-295.45"/>
<text xml:space="preserve" text-anchor="middle" x="113.62" y="-303.45" font-family="Times,serif" font-size="9.00" fill="#ddbb99"> 3n+1 </text>
</g>
<!-- n6 -->
<g id="node6" class="node">
<title>n6</title>
<ellipse fill="#ccddff" stroke="black" stroke-width="3" cx="66" cy="-595.5" rx="27" ry="18"/>
<text xml:space="preserve" text-anchor="middle" x="66" y="-591.8" font-family="Times,serif" font-size="11.00">6</text>
</g>
<!-- n6&#45;&gt;n3 -->
<g id="edge19" class="edge">
<title>n6&#45;&gt;n3</title>
<path fill="none" stroke="#6688bb" d="M66,-576.23C66,-566.35 66,-553.93 66,-542.78"/>
<polygon fill="#6688bb" stroke="#6688bb" points="69.5,-542.88 66,-532.88 62.5,-542.88 69.5,-542.88"/>
<text xml:space="preserve" text-anchor="middle" x="73.88" y="-550.95" font-family="Times,serif" font-size="9.00" fill="#6688bb"> n/2 </text>
</g>
<!-- n7 -->
<g id="node7" class="node">
<title>n7</title>
<ellipse fill="#ffddcc" stroke="black" cx="138" cy="-1255.5" rx="27" ry="18"/>
<text xml:space="preserve" text-anchor="middle" x="138" y="-1251.8" font-family="Times,serif" font-size="11.00">7</text>
</g>
<!-- n22 -->
<g id="node17" class="node">
<title>n22</title>
<ellipse fill="#ccddff" stroke="black" cx="138" cy="-1173" rx="27" ry="18"/>
<text xml:space="preserve" text-anchor="middle" x="138" y="-1169.3" font-family="Times,serif" font-size="11.00">22</text>
</g>
<!-- n7&#45;&gt;n22 -->
<g id="edge20" class="edge">
<title>n7&#45;&gt;n22</title>
<path fill="none" stroke="#ddbb99" d="M138,-1237.03C138,-1227.01 138,-1214.18 138,-1202.71"/>
<polygon fill="#ddbb99" stroke="#ddbb99" points="141.5,-1202.95 138,-1192.95 134.5,-1202.95 141.5,-1202.95"/>
<text xml:space="preserve" text-anchor="middle" x="149.62" y="-1210.95" font-family="Times,serif" font-size="9.00" fill="#ddbb99"> 3n+1 </text>
</g>
<!-- n8 -->
<g id="node8" class="node">
<title>n8</title>
<ellipse fill="#0045cf" stroke="black" cx="102" cy="-183" rx="27" ry="18"/>
<text xml:space="preserve" text-anchor="middle" x="102" y="-179.3" font-family="Times,serif" font-size="11.00" fill="white">8</text>
</g>
<!-- n8&#45;&gt;n4 -->
<g id="edge21" class="edge">
<title>n8&#45;&gt;n4</title>
<path fill="none" stroke="#6688bb" d="M98.18,-164.93C95.89,-154.68 92.92,-141.4 90.29,-129.63"/>
<polygon fill="#6688bb" stroke="#6688bb" points="93.74,-129.02 88.14,-120.02 86.91,-130.55 93.74,-129.02"/>
<text xml:space="preserve" text-anchor="middle" x="101.95" y="-138.45" font-family="Times,serif" font-size="9.00" fill="#6688bb"> n/2 </text>
</g>
<!-- n9 -->
<g id="node9" class="node">
<title>n9</title>
<ellipse fill="#ffddcc" stroke="black" stroke-width="3" cx="138" cy="-1503" rx="27" ry="18"/>
<text xml:space="preserve" text-anchor="middle" x="138" y="-1499.3" font-family="Times,serif" font-size="11.00">9</text>
</g>
<!-- n28 -->
<g id="node19" class="node">
<title>n28</title>
<ellipse fill="#ccddff" stroke="black" cx="138" cy="-1420.5" rx="27" ry="18"/>
<text xml:space="preserve" text-anchor="middle" x="138" y="-1416.8" font-family="Times,serif" font-size="11.00">28</text>
</g>
<!-- n9&#45;&gt;n28 -->
<g id="edge22" class="edge">
<title>n9&#45;&gt;n28</title>
<path fill="none" stroke="#ddbb99" d="M138,-1483.73C138,-1473.85 138,-1461.43 138,-1450.28"/>
<polygon fill="#ddbb99" stroke="#ddbb99" points="141.5,-1450.38 138,-1440.38 134.5,-1450.38 141.5,-1450.38"/>
<text xml:space="preserve" text-anchor="middle" x="149.62" y="-1458.45" font-family="Times,serif" font-size="9.00" fill="#ddbb99"> 3n+1 </text>
</g>
<!-- n10&#45;&gt;n5 -->
<g id="edge2" class="edge">
<title>n10&#45;&gt;n5</title>
<path fill="none" stroke="#6688bb" d="M102,-412.03C102,-402.01 102,-389.18 102,-377.71"/>
<polygon fill="#6688bb" stroke="#6688bb" points="105.5,-377.95 102,-367.95 98.5,-377.95 105.5,-377.95"/>
<text xml:space="preserve" text-anchor="middle" x="109.88" y="-385.95" font-family="Times,serif" font-size="9.00" fill="#6688bb"> n/2 </text>
</g>
<!-- n11 -->
<g id="node11" class="node">
<title>n11</title>
<ellipse fill="#ffddcc" stroke="black" cx="138" cy="-1090.5" rx="27" ry="18"/>
<text xml:space="preserve" text-anchor="middle" x="138" y="-1086.8" font-family="Times,serif" font-size="11.00">11</text>
</g>
<!-- n34 -->
<g id="node20" class="node">
<title>n34</title>
<ellipse fill="#ccddff" stroke="black" cx="138" cy="-1008" rx="27" ry="18"/>
<text xml:space="preserve" text-anchor="middle" x="138" y="-1004.3" font-family="Times,serif" font-size="11.00">34</text>
</g>
<!-- n11&#45;&gt;n34 -->
<g id="edge3" class="edge">
<title>n11&#45;&gt;n34</title>
<path fill="none" stroke="#ddbb99" d="M138,-1072.03C138,-1062.01 138,-1049.18 138,-1037.71"/>
<polygon fill="#ddbb99" stroke="#ddbb99" points="141.5,-1037.95 138,-1027.95 134.5,-1037.95 141.5,-1037.95"/>
<text xml:space="preserve" text-anchor="middle" x="149.62" y="-1045.95" font-family="Times,serif" font-size="9.00" fill="#ddbb99"> 3n+1 </text>
</g>
<!-- n13 -->
<g id="node12" class="node">
<title>n13</title>
<ellipse fill="#ffddcc" stroke="black" cx="138" cy="-678" rx="27" ry="18"/>
<text xml:space="preserve" text-anchor="middle" x="138" y="-674.3" font-family="Times,serif" font-size="11.00">13</text>
</g>
<!-- n40 -->
<g id="node21" class="node">
<title>n40</title>
<ellipse fill="#ccddff" stroke="black" cx="138" cy="-595.5" rx="27" ry="18"/>
<text xml:space="preserve" text-anchor="middle" x="138" y="-591.8" font-family="Times,serif" font-size="11.00">40</text>
</g>
<!-- n13&#45;&gt;n40 -->
<g id="edge4" class="edge">
<title>n13&#45;&gt;n40</title>
<path fill="none" stroke="#ddbb99" d="M138,-659.53C138,-649.51 138,-636.68 138,-625.21"/>
<polygon fill="#ddbb99" stroke="#ddbb99" points="141.5,-625.45 138,-615.45 134.5,-625.45 141.5,-625.45"/>
<text xml:space="preserve" text-anchor="middle" x="149.62" y="-633.45" font-family="Times,serif" font-size="9.00" fill="#ddbb99"> 3n+1 </text>
</g>
<!-- n14 -->
<g id="node13" class="node">
<title>n14</title>
<ellipse fill="#ccddff" stroke="black" cx="138" cy="-1338" rx="27" ry="18"/>
<text xml:space="preserve" text-anchor="middle" x="138" y="-1334.3" font-family="Times,serif" font-size="11.00">14</text>
</g>
<!-- n14&#45;&gt;n7 -->
<g id="edge5" class="edge">
<title>n14&#45;&gt;n7</title>
<path fill="none" stroke="#6688bb" d="M138,-1319.53C138,-1309.51 138,-1296.68 138,-1285.21"/>
<polygon fill="#6688bb" stroke="#6688bb" points="141.5,-1285.45 138,-1275.45 134.5,-1285.45 141.5,-1285.45"/>
<text xml:space="preserve" text-anchor="middle" x="145.88" y="-1293.45" font-family="Times,serif" font-size="9.00" fill="#6688bb"> n/2 </text>
</g>
<!-- n16&#45;&gt;n8 -->
<g id="edge6" class="edge">
<title>n16&#45;&gt;n8</title>
<path fill="none" stroke="#6688bb" d="M102,-247.03C102,-237.01 102,-224.18 102,-212.71"/>
<polygon fill="#6688bb" stroke="#6688bb" points="105.5,-212.95 102,-202.95 98.5,-212.95 105.5,-212.95"/>
<text xml:space="preserve" text-anchor="middle" x="109.88" y="-220.95" font-family="Times,serif" font-size="9.00" fill="#6688bb"> n/2 </text>
</g>
<!-- n17 -->
<g id="node15" class="node">
<title>n17</title>
<ellipse fill="#ffddcc" stroke="black" cx="138" cy="-925.5" rx="27" ry="18"/>
<text xml:space="preserve" text-anchor="middle" x="138" y="-921.8" font-family="Times,serif" font-size="11.00">17</text>
</g>
<!-- n52 -->
<g id="node22" class="node">
<title>n52</title>
<ellipse fill="#ccddff" stroke="black" cx="138" cy="-843" rx="27" ry="18"/>
<text xml:space="preserve" text-anchor="middle" x="138" y="-839.3" font-family="Times,serif" font-size="11.00">52</text>
</g>
<!-- n17&#45;&gt;n52 -->
<g id="edge7" class="edge">
<title>n17&#45;&gt;n52</title>
<path fill="none" stroke="#ddbb99" d="M138,-907.03C138,-897.01 138,-884.18 138,-872.71"/>
<polygon fill="#ddbb99" stroke="#ddbb99" points="141.5,-872.95 138,-862.95 134.5,-872.95 141.5,-872.95"/>
<text xml:space="preserve" text-anchor="middle" x="149.62" y="-880.95" font-family="Times,serif" font-size="9.00" fill="#ddbb99"> 3n+1 </text>
</g>
<!-- n20 -->
<g id="node16" class="node">
<title>n20</title>
<ellipse fill="#ccddff" stroke="black" cx="138" cy="-513" rx="27" ry="18"/>
<text xml:space="preserve" text-anchor="middle" x="138" y="-509.3" font-family="Times,serif" font-size="11.00">20</text>
</g>
<!-- n20&#45;&gt;n10 -->
<g id="edge9" class="edge">
<title>n20&#45;&gt;n10</title>
<path fill="none" stroke="#6688bb" d="M130.54,-495.32C125.81,-484.74 119.58,-470.81 114.15,-458.66"/>
<polygon fill="#6688bb" stroke="#6688bb" points="117.35,-457.24 110.07,-449.54 110.95,-460.1 117.35,-457.24"/>
<text xml:space="preserve" text-anchor="middle" x="130.03" y="-468.45" font-family="Times,serif" font-size="9.00" fill="#6688bb"> n/2 </text>
</g>
<!-- n22&#45;&gt;n11 -->
<g id="edge10" class="edge">
<title>n22&#45;&gt;n11</title>
<path fill="none" stroke="#6688bb" d="M138,-1154.53C138,-1144.51 138,-1131.68 138,-1120.21"/>
<polygon fill="#6688bb" stroke="#6688bb" points="141.5,-1120.45 138,-1110.45 134.5,-1120.45 141.5,-1120.45"/>
<text xml:space="preserve" text-anchor="middle" x="145.88" y="-1128.45" font-family="Times,serif" font-size="9.00" fill="#6688bb"> n/2 </text>
</g>
<!-- n26 -->
<g id="node18" class="node">
<title>n26</title>
<ellipse fill="#ccddff" stroke="black" cx="138" cy="-760.5" rx="27" ry="18"/>
<text xml:space="preserve" text-anchor="middle" x="138" y="-756.8" font-family="Times,serif" font-size="11.00">26</text>
</g>
<!-- n26&#45;&gt;n13 -->
<g id="edge11" class="edge">
<title>n26&#45;&gt;n13</title>
<path fill="none" stroke="#6688bb" d="M138,-742.03C138,-732.01 138,-719.18 138,-707.71"/>
<polygon fill="#6688bb" stroke="#6688bb" points="141.5,-707.95 138,-697.95 134.5,-707.95 141.5,-707.95"/>
<text xml:space="preserve" text-anchor="middle" x="145.88" y="-715.95" font-family="Times,serif" font-size="9.00" fill="#6688bb"> n/2 </text>
</g>
<!-- n28&#45;&gt;n14 -->
<g id="edge12" class="edge">
<title>n28&#45;&gt;n14</title>
<path fill="none" stroke="#6688bb" d="M138,-1402.03C138,-1392.01 138,-1379.18 138,-1367.71"/>
<polygon fill="#6688bb" stroke="#6688bb" points="141.5,-1367.95 138,-1357.95 134.5,-1367.95 141.5,-1367.95"/>
<text xml:space="preserve" text-anchor="middle" x="145.88" y="-1375.95" font-family="Times,serif" font-size="9.00" fill="#6688bb"> n/2 </text>
</g>
<!-- n34&#45;&gt;n17 -->
<g id="edge14" class="edge">
<title>n34&#45;&gt;n17</title>
<path fill="none" stroke="#6688bb" d="M138,-989.53C138,-979.51 138,-966.68 138,-955.21"/>
<polygon fill="#6688bb" stroke="#6688bb" points="141.5,-955.45 138,-945.45 134.5,-955.45 141.5,-955.45"/>
<text xml:space="preserve" text-anchor="middle" x="145.88" y="-963.45" font-family="Times,serif" font-size="9.00" fill="#6688bb"> n/2 </text>
</g>
<!-- n40&#45;&gt;n20 -->
<g id="edge16" class="edge">
<title>n40&#45;&gt;n20</title>
<path fill="none" stroke="#6688bb" d="M138,-577.03C138,-567.01 138,-554.18 138,-542.71"/>
<polygon fill="#6688bb" stroke="#6688bb" points="141.5,-542.95 138,-532.95 134.5,-542.95 141.5,-542.95"/>
<text xml:space="preserve" text-anchor="middle" x="145.88" y="-550.95" font-family="Times,serif" font-size="9.00" fill="#6688bb"> n/2 </text>
</g>
<!-- n52&#45;&gt;n26 -->
<g id="edge18" class="edge">
<title>n52&#45;&gt;n26</title>
<path fill="none" stroke="#6688bb" d="M138,-824.53C138,-814.51 138,-801.68 138,-790.21"/>
<polygon fill="#6688bb" stroke="#6688bb" points="141.5,-790.45 138,-780.45 134.5,-790.45 141.5,-790.45"/>
<text xml:space="preserve" text-anchor="middle" x="145.88" y="-798.45" font-family="Times,serif" font-size="9.00" fill="#6688bb"> n/2 </text>
</g>
</g>
</svg>
