<?xml version="1.0" encoding="UTF-8" standalone="no"?>
<!DOCTYPE svg PUBLIC "-//W3C//DTD SVG 1.1//EN"
 "http://www.w3.org/Graphics/SVG/1.1/DTD/svg11.dtd">
<!-- Generated by graphviz version 14.1.3 (20260303.0454)
 -->
<!-- Pages: 1 -->
<svg width="232pt" height="869pt"
 viewBox="0.00 0.00 232.00 869.00" xmlns="http://www.w3.org/2000/svg" xmlns:xlink="http://www.w3.org/1999/xlink">
<g id="graph0" class="graph" transform="scale(1 1) rotate(0) translate(4 865)">
<polygon fill="white" stroke="none" points="-4,4 -4,-865 227.82,-865 227.82,4 -4,4"/>
<!-- n0 -->
<g id="node1" class="node">
<title>n0</title>
<ellipse fill="none" stroke="black" cx="40.93" cy="-18" rx="27" ry="18"/>
<text xml:space="preserve" text-anchor="middle" x="40.93" y="-14.3" font-family="Times,serif" font-size="11.00">0</text>
</g>
<!-- n1 -->
<g id="node2" class="node">
<title>n1</title>
<ellipse fill="#ccddff" stroke="black" cx="40.93" cy="-100.5" rx="27" ry="18"/>
<text xml:space="preserve" text-anchor="middle" x="40.93" y="-96.8" font-family="Times,serif" font-size="11.00">1</text>
</g>
<!-- n1&#45;&gt;n0 -->
<g id="edge1" class="edge">
<title>n1&#45;&gt;n0</title>
<path fill="none" stroke="#6688bb" d="M40.93,-82.03C40.93,-72.01 40.93,-59.18 40.93,-47.71"/>
<polygon fill="#6688bb" stroke="#6688bb" points="44.43,-47.95 40.93,-37.95 37.43,-47.95 44.43,-47.95"/>
<text xml:space="preserve" text-anchor="middle" x="53.68" y="-55.95" font-family="Times,serif" font-size="9.00" fill="#6688bb"> take 1 </text>
</g>
<!-- n2 -->
<g id="node3" class="node">
<title>n2</title>
<path fill="#ccddff" stroke="black" stroke-width="0.5" d="M103.93,-183C103.93,-183 130.93,-183 130.93,-183 130.93,-183.59 130.89,-184.18 130.8,-184.76 130.71,-185.35 130.58,-185.93 130.41,-186.51 130.24,-187.09 130.03,-187.66 129.77,-188.23 129.51,-188.79 129.21,-189.34 128.88,-189.89 128.54,-190.43 128.16,-190.97 127.74,-191.49 127.33,-192 126.87,-192.51 126.38,-193 125.89,-193.49 125.36,-193.96 124.8,-194.42 124.24,-194.87 123.65,-195.31 123.02,-195.73 122.4,-196.14 121.74,-196.54 121.06,-196.91 120.38,-197.29 119.67,-197.64 118.93,-197.97 118.2,-198.29 117.44,-198.6 116.66,-198.87 115.88,-199.15 115.08,-199.4 114.26,-199.63 113.45,-199.86 112.61,-200.05 111.77,-200.22 110.92,-200.4 110.07,-200.54 109.2,-200.65 108.33,-200.77 107.46,-200.86 106.58,-200.91 105.7,-200.97 104.81,-201 103.93,-201 103.05,-201 102.16,-200.97 101.28,-200.91 100.41,-200.86 99.53,-200.77 98.66,-200.65 97.8,-200.54 96.94,-200.4 96.09,-200.22 95.25,-200.05 94.42,-199.86 93.6,-199.63 92.78,-199.4 91.98,-199.15 91.2,-198.87 90.42,-198.6 89.67,-198.29 88.93,-197.97 88.2,-197.64 87.49,-197.29 86.8,-196.91 86.12,-196.54 85.46,-196.14 84.84,-195.73 84.21,-195.31 83.62,-194.87 83.06,-194.42 82.5,-193.96 81.97,-193.49 81.48,-193 80.99,-192.51 80.54,-192 80.12,-191.49 79.7,-190.97 79.32,-190.43 78.99,-189.89 78.65,-189.34 78.35,-188.79 78.09,-188.23 77.84,-187.66 77.62,-187.09 77.45,-186.51 77.28,-185.93 77.15,-185.35 77.06,-184.76 76.97,-184.18 76.93,-183.59 76.93,-183 76.93,-183 103.93,-183 103.93,-183"/>
<path fill="#ffddcc" stroke="black" stroke-width="0.5" d="M103.93,-183C103.93,-183 76.93,-183 76.93,-183 76.93,-182.41 76.97,-181.82 77.06,-181.24 77.15,-180.65 77.28,-180.07 77.45,-179.49 77.62,-178.91 77.84,-178.34 78.09,-177.77 78.35,-177.21 78.65,-176.66 78.99,-176.11 79.32,-175.57 79.7,-175.03 80.12,-174.51 80.54,-174 80.99,-173.49 81.48,-173 81.97,-172.51 82.5,-172.04 83.06,-171.58 83.62,-171.13 84.21,-170.69 84.84,-170.27 85.46,-169.86 86.12,-169.46 86.8,-169.09 87.49,-168.71 88.2,-168.36 88.93,-168.03 89.67,-167.71 90.42,-167.4 91.2,-167.13 91.98,-166.85 92.78,-166.6 93.6,-166.37 94.42,-166.14 95.25,-165.95 96.09,-165.78 96.94,-165.6 97.8,-165.46 98.66,-165.35 99.53,-165.23 100.41,-165.14 101.28,-165.09 102.16,-165.03 103.05,-165 103.93,-165 104.81,-165 105.7,-165.03 106.58,-165.09 107.46,-165.14 108.33,-165.23 109.2,-165.35 110.07,-165.46 110.92,-165.6 111.77,-165.78 112.61,-165.95 113.45,-166.14 114.26,-166.37 115.08,-166.6 115.88,-166.85 116.66,-167.13 117.44,-167.4 118.2,-167.71 118.93,-168.03 119.67,-168.36 120.38,-168.71 121.06,-169.09 121.74,-169.46 122.4,-169.86 123.02,-170.27 123.65,-170.69 124.24,-171.13 124.8,-171.58 125.36,-172.04 125.89,-172.51 126.38,-173 126.87,-173.49 127.33,-174 127.74,-174.51 128.16,-175.03 128.54,-175.57 128.88,-176.11 129.21,-176.66 129.51,-177.21 129.77,-177.77 130.03,-178.34 130.24,-178.91 130.41,-179.49 130.58,-180.07 130.71,-180.65 130.8,-181.24 130.89,-181.82 130.93,-182.41 130.93,-183 130.93,-183 103.93,-183 103.93,-183"/>
<ellipse fill="none" stroke="black" cx="103.93" cy="-183" rx="27" ry="18"/>
<text xml:space="preserve" text-anchor="middle" x="103.93" y="-179.3" font-family="Times,serif" font-size="11.00">2</text>
</g>
<!-- n2&#45;&gt;n0 -->
<g id="edge5" class="edge">
<title>n2&#45;&gt;n0</title>
<path fill="none" stroke="#ddbb99" d="M102.04,-164.96C98.68,-139.57 90.13,-90.83 70.93,-54 68.73,-49.77 65.92,-45.61 62.91,-41.72"/>
<polygon fill="#ddbb99" stroke="#ddbb99" points="65.83,-39.75 56.7,-34.37 60.49,-44.27 65.83,-39.75"/>
<text xml:space="preserve" text-anchor="middle" x="106.17" y="-97.2" font-family="Times,serif" font-size="9.00" fill="#ddbb99"> take 2 </text>
</g>
<!-- n2&#45;&gt;n1 -->
<g id="edge6" class="edge">
<title>n2&#45;&gt;n1</title>
<path fill="none" stroke="#6688bb" d="M86.48,-168.92C79.08,-162.81 70.73,-155.1 64.43,-147 60.09,-141.43 56.19,-134.93 52.86,-128.62"/>
<polygon fill="#6688bb" stroke="#6688bb" points="56.05,-127.17 48.5,-119.74 49.76,-130.25 56.05,-127.17"/>
<text xml:space="preserve" text-anchor="middle" x="77.18" y="-138.45" font-family="Times,serif" font-size="9.00" fill="#6688bb"> take 1 </text>
</g>
<!-- n3 -->
<g id="node4" class="node">
<title>n3</title>
<path fill="#ccddff" stroke="black" stroke-width="0.5" d="M38.93,-265.5C38.93,-265.5 65.93,-265.5 65.93,-265.5 65.93,-266.23 65.87,-266.95 65.73,-267.68 65.6,-268.4 65.4,-269.11 65.14,-269.82 64.88,-270.52 64.56,-271.22 64.17,-271.9 63.78,-272.58 63.33,-273.24 62.82,-273.88 62.31,-274.53 61.75,-275.15 61.13,-275.75 60.51,-276.35 59.83,-276.92 59.11,-277.46 58.38,-278 57.61,-278.52 56.79,-279 55.97,-279.48 55.11,-279.93 54.21,-280.34 53.31,-280.75 52.38,-281.13 51.41,-281.46 50.45,-281.8 49.45,-282.09 48.43,-282.35 47.41,-282.61 46.36,-282.82 45.3,-282.99 44.24,-283.16 43.17,-283.29 42.09,-283.38 41,-283.46 39.91,-283.5 38.82,-283.5 37.73,-283.5 36.64,-283.45 35.56,-283.36 34.48,-283.27 33.41,-283.13 32.35,-282.96 31.29,-282.78 30.25,-282.56 29.23,-282.3 29.23,-282.3 38.93,-265.5 38.93,-265.5"/>
<path fill="#ffddcc" stroke="black" stroke-width="0.5" d="M38.93,-265.5C38.93,-265.5 29.23,-282.3 29.23,-282.3 27.97,-281.97 26.74,-281.59 25.57,-281.14 24.39,-280.69 23.26,-280.19 22.2,-279.63 21.14,-279.07 20.14,-278.46 19.21,-277.8 18.29,-277.14 17.44,-276.43 16.67,-275.69 15.91,-274.94 15.22,-274.16 14.63,-273.35 14.04,-272.54 13.55,-271.7 13.14,-270.83 12.74,-269.97 12.44,-269.09 12.24,-268.2 12.03,-267.3 11.93,-266.4 11.93,-265.5 11.93,-264.6 12.03,-263.7 12.24,-262.8 12.44,-261.91 12.74,-261.03 13.14,-260.17 13.55,-259.3 14.04,-258.46 14.63,-257.65 15.22,-256.84 15.91,-256.06 16.67,-255.31 17.44,-254.57 18.29,-253.86 19.21,-253.2 20.14,-252.54 21.14,-251.93 22.2,-251.37 23.26,-250.81 24.39,-250.31 25.57,-249.86 26.74,-249.41 27.97,-249.03 29.23,-248.7 29.23,-248.7 38.93,-265.5 38.93,-265.5"/>
<path fill="#cceecc" stroke="black" stroke-width="0.5" d="M38.93,-265.5C38.93,-265.5 29.23,-248.7 29.23,-248.7 30.25,-248.44 31.29,-248.22 32.35,-248.04 33.41,-247.87 34.48,-247.73 35.56,-247.64 36.64,-247.55 37.73,-247.5 38.82,-247.5 39.91,-247.5 41,-247.54 42.09,-247.62 43.17,-247.71 44.24,-247.84 45.3,-248.01 46.36,-248.18 47.41,-248.39 48.43,-248.65 49.45,-248.91 50.45,-249.2 51.41,-249.54 52.38,-249.87 53.31,-250.25 54.21,-250.66 55.11,-251.07 55.97,-251.52 56.79,-252 57.61,-252.48 58.38,-253 59.11,-253.54 59.83,-254.08 60.51,-254.65 61.13,-255.25 61.75,-255.85 62.31,-256.47 62.82,-257.12 63.33,-257.76 63.78,-258.42 64.17,-259.1 64.56,-259.78 64.88,-260.48 65.14,-261.18 65.4,-261.89 65.6,-262.6 65.73,-263.32 65.87,-264.05 65.93,-264.77 65.93,-265.5 65.93,-265.5 38.93,-265.5 38.93,-265.5"/>
<ellipse fill="none" stroke="black" cx="38.93" cy="-265.5" rx="27" ry="18"/>
<text xml:space="preserve" text-anchor="middle" x="38.93" y="-261.8" font-family="Times,serif" font-size="11.00">3</text>
</g>
<!-- n3&#45;&gt;n0 -->
<g id="edge7" class="edge">
<title>n3&#45;&gt;n0</title>
<path fill="none" stroke="#77aa77" d="M31.12,-248.26C16.75,-216.23 -10.97,-142.8 4.93,-82.5 8.52,-68.9 15.77,-55.15 22.82,-43.94"/>
<polygon fill="#77aa77" stroke="#77aa77" points="25.68,-45.97 28.3,-35.7 19.85,-42.09 25.68,-45.97"/>
<text xml:space="preserve" text-anchor="middle" x="14.24" y="-138.45" font-family="Times,serif" font-size="9.00" fill="#77aa77"> take 3 </text>
</g>
<!-- n3&#45;&gt;n1 -->
<g id="edge8" class="edge">
<title>n3&#45;&gt;n1</title>
<path fill="none" stroke="#ddbb99" d="M39.15,-247.06C39.49,-219.11 40.16,-164.04 40.58,-130.22"/>
<polygon fill="#ddbb99" stroke="#ddbb99" points="44.08,-130.37 40.7,-120.33 37.08,-130.29 44.08,-130.37"/>
<text xml:space="preserve" text-anchor="middle" x="52.88" y="-179.7" font-family="Times,serif" font-size="9.00" fill="#ddbb99"> take 2 </text>
</g>
<!-- n3&#45;&gt;n2 -->
<g id="edge9" class="edge">
<title>n3&#45;&gt;n2</title>
<path fill="none" stroke="#6688bb" d="M46.44,-248.09C50.98,-239.05 57.27,-227.88 64.43,-219 68.46,-214.01 73.23,-209.13 78.05,-204.67"/>
<polygon fill="#6688bb" stroke="#6688bb" points="80.25,-207.4 85.47,-198.18 75.64,-202.13 80.25,-207.4"/>
<text xml:space="preserve" text-anchor="middle" x="77.18" y="-220.95" font-family="Times,serif" font-size="9.00" fill="#6688bb"> take 1 </text>
</g>
<!-- n4 -->
<g id="node5" class="node">
<title>n4</title>
<path fill="#0045cf" stroke="black" stroke-width="0.5" d="M185.93,-348C185.93,-348 212.93,-348 212.93,-348 212.93,-348.73 212.87,-349.45 212.73,-350.18 212.6,-350.9 212.4,-351.61 212.14,-352.32 211.88,-353.02 211.56,-353.72 211.17,-354.4 210.78,-355.08 210.33,-355.74 209.82,-356.38 209.31,-357.03 208.75,-357.65 208.13,-358.25 207.51,-358.85 206.83,-359.42 206.11,-359.96 205.38,-360.5 204.61,-361.02 203.79,-361.5 202.97,-361.98 202.11,-362.43 201.21,-362.84 200.31,-363.25 199.38,-363.63 198.41,-363.96 197.45,-364.3 196.45,-364.59 195.43,-364.85 194.41,-365.11 193.36,-365.32 192.3,-365.49 191.24,-365.66 190.17,-365.79 189.09,-365.88 188,-365.96 186.91,-366 185.82,-366 184.73,-366 183.64,-365.95 182.56,-365.86 181.48,-365.77 180.41,-365.63 179.35,-365.46 178.29,-365.28 177.25,-365.06 176.23,-364.8 176.23,-364.8 185.93,-348 185.93,-348"/>
<path fill="#cf4500" stroke="black" stroke-width="0.5" d="M185.93,-348C185.93,-348 176.23,-364.8 176.23,-364.8 174.97,-364.47 173.74,-364.09 172.57,-363.64 171.39,-363.19 170.26,-362.69 169.2,-362.13 168.14,-361.57 167.14,-360.96 166.21,-360.3 165.29,-359.64 164.44,-358.93 163.67,-358.19 162.91,-357.44 162.22,-356.66 161.63,-355.85 161.04,-355.04 160.55,-354.2 160.14,-353.33 159.74,-352.47 159.44,-351.59 159.24,-350.7 159.03,-349.8 158.93,-348.9 158.93,-348 158.93,-347.1 159.03,-346.2 159.24,-345.3 159.44,-344.41 159.74,-343.53 160.14,-342.67 160.55,-341.8 161.04,-340.96 161.63,-340.15 162.22,-339.34 162.91,-338.56 163.67,-337.81 164.44,-337.07 165.29,-336.36 166.21,-335.7 167.14,-335.04 168.14,-334.43 169.2,-333.87 170.26,-333.31 171.39,-332.81 172.57,-332.36 173.74,-331.91 174.97,-331.53 176.23,-331.2 176.23,-331.2 185.93,-348 185.93,-348"/>
<path fill="#329532" stroke="black" stroke-width="0.5" d="M185.93,-348C185.93,-348 176.23,-331.2 176.23,-331.2 177.25,-330.94 178.29,-330.72 179.35,-330.54 180.41,-330.37 181.48,-330.23 182.56,-330.14 183.64,-330.05 184.73,-330 185.82,-330 186.91,-330 188,-330.04 189.09,-330.12 190.17,-330.21 191.24,-330.34 192.3,-330.51 193.36,-330.68 194.41,-330.89 195.43,-331.15 196.45,-331.41 197.45,-331.7 198.41,-332.04 199.38,-332.37 200.31,-332.75 201.21,-333.16 202.11,-333.57 202.97,-334.02 203.79,-334.5 204.61,-334.98 205.38,-335.5 206.11,-336.04 206.83,-336.58 207.51,-337.15 208.13,-337.75 208.75,-338.35 209.31,-338.97 209.82,-339.62 210.33,-340.26 210.78,-340.92 211.17,-341.6 211.56,-342.28 211.88,-342.98 212.14,-343.68 212.4,-344.39 212.6,-345.1 212.73,-345.82 212.87,-346.55 212.93,-347.27 212.93,-348 212.93,-348 185.93,-348 185.93,-348"/>
<ellipse fill="none" stroke="black" cx="185.93" cy="-348" rx="27" ry="18"/>
<text xml:space="preserve" text-anchor="middle" x="185.93" y="-344.3" font-family="Times,serif" font-size="11.00" fill="white">4</text>
</g>
<!-- n4&#45;&gt;n1 -->
<g id="edge10" class="edge">
<title>n4&#45;&gt;n1</title>
<path fill="none" stroke="#77aa77" d="M191.6,-330.05C197.43,-309.93 204.55,-275.55 195.93,-247.5 182.91,-205.14 171.67,-195.93 139.93,-165 119.91,-145.5 93,-128.7 72.29,-117.28"/>
<polygon fill="#77aa77" stroke="#77aa77" points="74.18,-114.33 63.72,-112.69 70.88,-120.5 74.18,-114.33"/>
<text xml:space="preserve" text-anchor="middle" x="202.42" y="-220.95" font-family="Times,serif" font-size="9.00" fill="#77aa77"> take 3 </text>
</g>
<!-- n4&#45;&gt;n2 -->
<g id="edge11" class="edge">
<title>n4&#45;&gt;n2</title>
<path fill="none" stroke="#ddbb99" d="M183.06,-329.76C181.29,-321.08 178.64,-310.52 174.93,-301.5 160.95,-267.52 138.05,-231.85 122.05,-208.85"/>
<polygon fill="#ddbb99" stroke="#ddbb99" points="124.96,-206.9 116.33,-200.75 119.25,-210.94 124.96,-206.9"/>
<text xml:space="preserve" text-anchor="middle" x="179.13" y="-262.2" font-family="Times,serif" font-size="9.00" fill="#ddbb99"> take 2 </text>
</g>
<!-- n4&#45;&gt;n3 -->
<g id="edge12" class="edge">
<title>n4&#45;&gt;n3</title>
<path fill="none" stroke="#6688bb" d="M171.52,-332.82C160.97,-323.02 145.92,-310.23 130.93,-301.5 113.16,-291.15 91.77,-282.8 74.09,-276.85"/>
<polygon fill="#6688bb" stroke="#6688bb" points="75.38,-273.59 64.79,-273.84 73.23,-280.25 75.38,-273.59"/>
<text xml:space="preserve" text-anchor="middle" x="158.34" y="-303.45" font-family="Times,serif" font-size="9.00" fill="#6688bb"> take 1 </text>
</g>
<!-- n5 -->
<g id="node6" class="node">
<title>n5</title>
<path fill="#ccddff" stroke="black" stroke-width="0.5" d="M104.93,-430.5C104.93,-430.5 131.93,-430.5 131.93,-430.5 131.93,-431.23 131.87,-431.95 131.73,-432.68 131.6,-433.4 131.4,-434.11 131.14,-434.82 130.88,-435.52 130.56,-436.22 130.17,-436.9 129.78,-437.58 129.33,-438.24 128.82,-438.88 128.31,-439.53 127.75,-440.15 127.13,-440.75 126.51,-441.35 125.83,-441.92 125.11,-442.46 124.38,-443 123.61,-443.52 122.79,-444 121.97,-444.48 121.11,-444.93 120.21,-445.34 119.31,-445.75 118.38,-446.13 117.41,-446.46 116.45,-446.8 115.45,-447.09 114.43,-447.35 113.41,-447.61 112.36,-447.82 111.3,-447.99 110.24,-448.16 109.17,-448.29 108.09,-448.38 107,-448.46 105.91,-448.5 104.82,-448.5 103.73,-448.5 102.64,-448.45 101.56,-448.36 100.48,-448.27 99.41,-448.13 98.35,-447.96 97.29,-447.78 96.25,-447.56 95.23,-447.3 95.23,-447.3 104.93,-430.5 104.93,-430.5"/>
<path fill="#ffddcc" stroke="black" stroke-width="0.5" d="M104.93,-430.5C104.93,-430.5 95.23,-447.3 95.23,-447.3 93.97,-446.97 92.74,-446.59 91.57,-446.14 90.39,-445.69 89.26,-445.19 88.2,-444.63 87.14,-444.07 86.14,-443.46 85.21,-442.8 84.29,-442.14 83.44,-441.43 82.67,-440.69 81.91,-439.94 81.22,-439.16 80.63,-438.35 80.04,-437.54 79.55,-436.7 79.14,-435.83 78.74,-434.97 78.44,-434.09 78.24,-433.2 78.03,-432.3 77.93,-431.4 77.93,-430.5 77.93,-429.6 78.03,-428.7 78.24,-427.8 78.44,-426.91 78.74,-426.03 79.14,-425.17 79.55,-424.3 80.04,-423.46 80.63,-422.65 81.22,-421.84 81.91,-421.06 82.67,-420.31 83.44,-419.57 84.29,-418.86 85.21,-418.2 86.14,-417.54 87.14,-416.93 88.2,-416.37 89.26,-415.81 90.39,-415.31 91.57,-414.86 92.74,-414.41 93.97,-414.03 95.23,-413.7 95.23,-413.7 104.93,-430.5 104.93,-430.5"/>
<path fill="#cceecc" stroke="black" stroke-width="0.5" d="M104.93,-430.5C104.93,-430.5 95.23,-413.7 95.23,-413.7 96.25,-413.44 97.29,-413.22 98.35,-413.04 99.41,-412.87 100.48,-412.73 101.56,-412.64 102.64,-412.55 103.73,-412.5 104.82,-412.5 105.91,-412.5 107,-412.54 108.09,-412.62 109.17,-412.71 110.24,-412.84 111.3,-413.01 112.36,-413.18 113.41,-413.39 114.43,-413.65 115.45,-413.91 116.45,-414.2 117.41,-414.54 118.38,-414.87 119.31,-415.25 120.21,-415.66 121.11,-416.07 121.97,-416.52 122.79,-417 123.61,-417.48 124.38,-418 125.11,-418.54 125.83,-419.08 126.51,-419.65 127.13,-420.25 127.75,-420.85 128.31,-421.47 128.82,-422.12 129.33,-422.76 129.78,-423.42 130.17,-424.1 130.56,-424.78 130.88,-425.48 131.14,-426.18 131.4,-426.89 131.6,-427.6 131.73,-428.32 131.87,-429.05 131.93,-429.77 131.93,-430.5 131.93,-430.5 104.93,-430.5 104.93,-430.5"/>
<ellipse fill="none" stroke="black" cx="104.93" cy="-430.5" rx="27" ry="18"/>
<text xml:space="preserve" text-anchor="middle" x="104.93" y="-426.8" font-family="Times,serif" font-size="11.00">5</text>
</g>
<!-- n5&#45;&gt;n2 -->
<g id="edge13" class="edge">
<title>n5&#45;&gt;n2</title>
<path fill="none" stroke="#77aa77" d="M104.26,-412.38C103.4,-389.51 101.96,-347.71 101.43,-312 100.92,-277.85 101.93,-238.58 102.81,-212.64"/>
<polygon fill="#77aa77" stroke="#77aa77" points="106.3,-213.02 103.16,-202.9 99.3,-212.77 106.3,-213.02"/>
<text xml:space="preserve" text-anchor="middle" x="114.18" y="-303.45" font-family="Times,serif" font-size="9.00" fill="#77aa77"> take 3 </text>
</g>
<!-- n5&#45;&gt;n3 -->
<g id="edge14" class="edge">
<title>n5&#45;&gt;n3</title>
<path fill="none" stroke="#ddbb99" d="M93.13,-414.1C84.13,-401.7 72.03,-383.51 64.43,-366 54.45,-343 47.74,-315.24 43.72,-294.9"/>
<polygon fill="#ddbb99" stroke="#ddbb99" points="47.16,-294.26 41.89,-285.07 40.28,-295.55 47.16,-294.26"/>
<text xml:space="preserve" text-anchor="middle" x="77.18" y="-344.7" font-family="Times,serif" font-size="9.00" fill="#ddbb99"> take 2 </text>
</g>
<!-- n5&#45;&gt;n4 -->
<g id="edge15" class="edge">
<title>n5&#45;&gt;n4</title>
<path fill="none" stroke="#6688bb" d="M115.02,-413.41C121.18,-404.26 129.55,-392.88 138.43,-384 144.31,-378.12 151.23,-372.46 157.94,-367.46"/>
<polygon fill="#6688bb" stroke="#6688bb" points="159.52,-370.63 165.62,-361.97 155.45,-364.94 159.52,-370.63"/>
<text xml:space="preserve" text-anchor="middle" x="151.18" y="-385.95" font-family="Times,serif" font-size="9.00" fill="#6688bb"> take 1 </text>
</g>
<!-- n6 -->
<g id="node7" class="node">
<title>n6</title>
<path fill="#ccddff" stroke="black" stroke-width="0.5" d="M105.93,-513C105.93,-513 132.93,-513 132.93,-513 132.93,-513.73 132.87,-514.45 132.73,-515.18 132.6,-515.9 132.4,-516.61 132.14,-517.32 131.88,-518.02 131.56,-518.72 131.17,-519.4 130.78,-520.08 130.33,-520.74 129.82,-521.38 129.31,-522.03 128.75,-522.65 128.13,-523.25 127.51,-523.85 126.83,-524.42 126.11,-524.96 125.38,-525.5 124.61,-526.02 123.79,-526.5 122.97,-526.98 122.11,-527.43 121.21,-527.84 120.31,-528.25 119.38,-528.63 118.41,-528.96 117.45,-529.3 116.45,-529.59 115.43,-529.85 114.41,-530.11 113.36,-530.32 112.3,-530.49 111.24,-530.66 110.17,-530.79 109.09,-530.88 108,-530.96 106.91,-531 105.82,-531 104.73,-531 103.64,-530.95 102.56,-530.86 101.48,-530.77 100.41,-530.63 99.35,-530.46 98.29,-530.28 97.25,-530.06 96.23,-529.8 96.23,-529.8 105.93,-513 105.93,-513"/>
<path fill="#ffddcc" stroke="black" stroke-width="0.5" d="M105.93,-513C105.93,-513 96.23,-529.8 96.23,-529.8 94.97,-529.47 93.74,-529.09 92.57,-528.64 91.39,-528.19 90.26,-527.69 89.2,-527.13 88.14,-526.57 87.14,-525.96 86.21,-525.3 85.29,-524.64 84.44,-523.93 83.67,-523.19 82.91,-522.44 82.22,-521.66 81.63,-520.85 81.04,-520.04 80.55,-519.2 80.14,-518.33 79.74,-517.47 79.44,-516.59 79.24,-515.7 79.03,-514.8 78.93,-513.9 78.93,-513 78.93,-512.1 79.03,-511.2 79.24,-510.3 79.44,-509.41 79.74,-508.53 80.14,-507.67 80.55,-506.8 81.04,-505.96 81.63,-505.15 82.22,-504.34 82.91,-503.56 83.67,-502.81 84.44,-502.07 85.29,-501.36 86.21,-500.7 87.14,-500.04 88.14,-499.43 89.2,-498.87 90.26,-498.31 91.39,-497.81 92.57,-497.36 93.74,-496.91 94.97,-496.53 96.23,-496.2 96.23,-496.2 105.93,-513 105.93,-513"/>
<path fill="#cceecc" stroke="black" stroke-width="0.5" d="M105.93,-513C105.93,-513 96.23,-496.2 96.23,-496.2 97.25,-495.94 98.29,-495.72 99.35,-495.54 100.41,-495.37 101.48,-495.23 102.56,-495.14 103.64,-495.05 104.73,-495 105.82,-495 106.91,-495 108,-495.04 109.09,-495.12 110.17,-495.21 111.24,-495.34 112.3,-495.51 113.36,-495.68 114.41,-495.89 115.43,-496.15 116.45,-496.41 117.45,-496.7 118.41,-497.04 119.38,-497.37 120.31,-497.75 121.21,-498.16 122.11,-498.57 122.97,-499.02 123.79,-499.5 124.61,-499.98 125.38,-500.5 126.11,-501.04 126.83,-501.58 127.51,-502.15 128.13,-502.75 128.75,-503.35 129.31,-503.97 129.82,-504.62 130.33,-505.26 130.78,-505.92 131.17,-506.6 131.56,-507.28 131.88,-507.98 132.14,-508.68 132.4,-509.39 132.6,-510.1 132.73,-510.82 132.87,-511.55 132.93,-512.27 132.93,-513 132.93,-513 105.93,-513 105.93,-513"/>
<ellipse fill="none" stroke="black" cx="105.93" cy="-513" rx="27" ry="18"/>
<text xml:space="preserve" text-anchor="middle" x="105.93" y="-509.3" font-family="Times,serif" font-size="11.00">6</text>
</g>
<!-- n6&#45;&gt;n3 -->
<g id="edge16" class="edge">
<title>n6&#45;&gt;n3</title>
<path fill="none" stroke="#77aa77" d="M95.88,-495.81C88.16,-483.13 77.42,-464.94 68.93,-448.5 56.84,-425.08 50.55,-420.13 44.43,-394.5 36.45,-361.07 36.1,-321.36 37.08,-295.13"/>
<polygon fill="#77aa77" stroke="#77aa77" points="40.56,-295.43 37.54,-285.28 33.57,-295.1 40.56,-295.43"/>
<text xml:space="preserve" text-anchor="middle" x="57.18" y="-385.95" font-family="Times,serif" font-size="9.00" fill="#77aa77"> take 3 </text>
</g>
<!-- n6&#45;&gt;n4 -->
<g id="edge17" class="edge">
<title>n6&#45;&gt;n4</title>
<path fill="none" stroke="#ddbb99" d="M119.74,-497.44C124.96,-491.43 130.66,-484.19 134.93,-477 154.18,-444.56 169.06,-403.53 177.66,-376.79"/>
<polygon fill="#ddbb99" stroke="#ddbb99" points="180.96,-377.97 180.6,-367.38 174.28,-375.88 180.96,-377.97"/>
<text xml:space="preserve" text-anchor="middle" x="177.73" y="-427.2" font-family="Times,serif" font-size="9.00" fill="#ddbb99"> take 2 </text>
</g>
<!-- n6&#45;&gt;n5 -->
<g id="edge18" class="edge">
<title>n6&#45;&gt;n5</title>
<path fill="none" stroke="#6688bb" d="M105.71,-494.53C105.59,-484.51 105.43,-471.68 105.29,-460.21"/>
<polygon fill="#6688bb" stroke="#6688bb" points="108.79,-460.4 105.17,-450.45 101.79,-460.49 108.79,-460.4"/>
<text xml:space="preserve" text-anchor="middle" x="118.24" y="-468.45" font-family="Times,serif" font-size="9.00" fill="#6688bb"> take 1 </text>
</g>
<!-- n7 -->
<g id="node8" class="node">
<title>n7</title>
<path fill="#ccddff" stroke="black" stroke-width="0.5" d="M170.93,-595.5C170.93,-595.5 197.93,-595.5 197.93,-595.5 197.93,-596.23 197.87,-596.95 197.73,-597.68 197.6,-598.4 197.4,-599.11 197.14,-599.82 196.88,-600.52 196.56,-601.22 196.17,-601.9 195.78,-602.58 195.33,-603.24 194.82,-603.88 194.31,-604.53 193.75,-605.15 193.13,-605.75 192.51,-606.35 191.83,-606.92 191.11,-607.46 190.38,-608 189.61,-608.52 188.79,-609 187.97,-609.48 187.11,-609.93 186.21,-610.34 185.31,-610.75 184.38,-611.13 183.41,-611.46 182.45,-611.8 181.45,-612.09 180.43,-612.35 179.41,-612.61 178.36,-612.82 177.3,-612.99 176.24,-613.16 175.17,-613.29 174.09,-613.38 173,-613.46 171.91,-613.5 170.82,-613.5 169.73,-613.5 168.64,-613.45 167.56,-613.36 166.48,-613.27 165.41,-613.13 164.35,-612.96 163.29,-612.78 162.25,-612.56 161.23,-612.3 161.23,-612.3 170.93,-595.5 170.93,-595.5"/>
<path fill="#ffddcc" stroke="black" stroke-width="0.5" d="M170.93,-595.5C170.93,-595.5 161.23,-612.3 161.23,-612.3 159.97,-611.97 158.74,-611.59 157.57,-611.14 156.39,-610.69 155.26,-610.19 154.2,-609.63 153.14,-609.07 152.14,-608.46 151.21,-607.8 150.29,-607.14 149.44,-606.43 148.67,-605.69 147.91,-604.94 147.22,-604.16 146.63,-603.35 146.04,-602.54 145.55,-601.7 145.14,-600.83 144.74,-599.97 144.44,-599.09 144.24,-598.2 144.03,-597.3 143.93,-596.4 143.93,-595.5 143.93,-594.6 144.03,-593.7 144.24,-592.8 144.44,-591.91 144.74,-591.03 145.14,-590.17 145.55,-589.3 146.04,-588.46 146.63,-587.65 147.22,-586.84 147.91,-586.06 148.67,-585.31 149.44,-584.57 150.29,-583.86 151.21,-583.2 152.14,-582.54 153.14,-581.93 154.2,-581.37 155.26,-580.81 156.39,-580.31 157.57,-579.86 158.74,-579.41 159.97,-579.03 161.23,-578.7 161.23,-578.7 170.93,-595.5 170.93,-595.5"/>
<path fill="#cceecc" stroke="black" stroke-width="0.5" d="M170.93,-595.5C170.93,-595.5 161.23,-578.7 161.23,-578.7 162.25,-578.44 163.29,-578.22 164.35,-578.04 165.41,-577.87 166.48,-577.73 167.56,-577.64 168.64,-577.55 169.73,-577.5 170.82,-577.5 171.91,-577.5 173,-577.54 174.09,-577.62 175.17,-577.71 176.24,-577.84 177.3,-578.01 178.36,-578.18 179.41,-578.39 180.43,-578.65 181.45,-578.91 182.45,-579.2 183.41,-579.54 184.38,-579.87 185.31,-580.25 186.21,-580.66 187.11,-581.07 187.97,-581.52 188.79,-582 189.61,-582.48 190.38,-583 191.11,-583.54 191.83,-584.08 192.51,-584.65 193.13,-585.25 193.75,-585.85 194.31,-586.47 194.82,-587.12 195.33,-587.76 195.78,-588.42 196.17,-589.1 196.56,-589.78 196.88,-590.48 197.14,-591.18 197.4,-591.89 197.6,-592.6 197.73,-593.32 197.87,-594.05 197.93,-594.77 197.93,-595.5 197.93,-595.5 170.93,-595.5 170.93,-595.5"/>
<ellipse fill="none" stroke="black" cx="170.93" cy="-595.5" rx="27" ry="18"/>
<text xml:space="preserve" text-anchor="middle" x="170.93" y="-591.8" font-family="Times,serif" font-size="11.00">7</text>
</g>
<!-- n7&#45;&gt;n4 -->
<g id="edge19" class="edge">
<title>n7&#45;&gt;n4</title>
<path fill="none" stroke="#77aa77" d="M177.88,-577.86C182.78,-565.24 188.99,-547.34 191.93,-531 201.25,-479.15 198.64,-465.05 194.93,-412.5 194.11,-400.92 192.47,-388.23 190.81,-377.27"/>
<polygon fill="#77aa77" stroke="#77aa77" points="194.31,-377 189.27,-367.67 187.4,-378.1 194.31,-377"/>
<text xml:space="preserve" text-anchor="middle" x="211.07" y="-468.45" font-family="Times,serif" font-size="9.00" fill="#77aa77"> take 3 </text>
</g>
<!-- n7&#45;&gt;n5 -->
<g id="edge20" class="edge">
<title>n7&#45;&gt;n5</title>
<path fill="none" stroke="#ddbb99" d="M170.55,-577.03C170.07,-568.49 169.05,-558.11 166.93,-549 158.01,-510.7 155.13,-500.25 134.93,-466.5 132.48,-462.41 129.54,-458.32 126.48,-454.46"/>
<polygon fill="#ddbb99" stroke="#ddbb99" points="129.39,-452.48 120.25,-447.12 124.06,-457.01 129.39,-452.48"/>
<text xml:space="preserve" text-anchor="middle" x="175.36" y="-509.7" font-family="Times,serif" font-size="9.00" fill="#ddbb99"> take 2 </text>
</g>
<!-- n7&#45;&gt;n6 -->
<g id="edge21" class="edge">
<title>n7&#45;&gt;n6</title>
<path fill="none" stroke="#6688bb" d="M157.88,-579.27C152.71,-573.17 146.74,-566.04 141.43,-559.5 135.88,-552.65 129.95,-545.14 124.55,-538.22"/>
<polygon fill="#6688bb" stroke="#6688bb" points="127.44,-536.23 118.55,-530.48 121.91,-540.52 127.44,-536.23"/>
<text xml:space="preserve" text-anchor="middle" x="154.18" y="-550.95" font-family="Times,serif" font-size="9.00" fill="#6688bb"> take 1 </text>
</g>
<!-- n8 -->
<g id="node9" class="node">
<title>n8</title>
<path fill="#0045cf" stroke="black" stroke-width="0.5" d="M32.93,-678C32.93,-678 59.93,-678 59.93,-678 59.93,-678.73 59.87,-679.45 59.73,-680.18 59.6,-680.9 59.4,-681.61 59.14,-682.32 58.88,-683.02 58.56,-683.72 58.17,-684.4 57.78,-685.08 57.33,-685.74 56.82,-686.38 56.31,-687.03 55.75,-687.65 55.13,-688.25 54.51,-688.85 53.83,-689.42 53.11,-689.96 52.38,-690.5 51.61,-691.02 50.79,-691.5 49.97,-691.98 49.11,-692.43 48.21,-692.84 47.31,-693.25 46.38,-693.63 45.41,-693.96 44.45,-694.3 43.45,-694.59 42.43,-694.85 41.41,-695.11 40.36,-695.32 39.3,-695.49 38.24,-695.66 37.17,-695.79 36.09,-695.88 35,-695.96 33.91,-696 32.82,-696 31.73,-696 30.64,-695.95 29.56,-695.86 28.48,-695.77 27.41,-695.63 26.35,-695.46 25.29,-695.28 24.25,-695.06 23.23,-694.8 23.23,-694.8 32.93,-678 32.93,-678"/>
<path fill="#cf4500" stroke="black" stroke-width="0.5" d="M32.93,-678C32.93,-678 23.23,-694.8 23.23,-694.8 21.97,-694.47 20.74,-694.09 19.57,-693.64 18.39,-693.19 17.26,-692.69 16.2,-692.13 15.14,-691.57 14.14,-690.96 13.21,-690.3 12.29,-689.64 11.44,-688.93 10.67,-688.19 9.91,-687.44 9.22,-686.66 8.63,-685.85 8.04,-685.04 7.55,-684.2 7.14,-683.33 6.74,-682.47 6.44,-681.59 6.24,-680.7 6.03,-679.8 5.93,-678.9 5.93,-678 5.93,-677.1 6.03,-676.2 6.24,-675.3 6.44,-674.41 6.74,-673.53 7.14,-672.67 7.55,-671.8 8.04,-670.96 8.63,-670.15 9.22,-669.34 9.91,-668.56 10.67,-667.81 11.44,-667.07 12.29,-666.36 13.21,-665.7 14.14,-665.04 15.14,-664.43 16.2,-663.87 17.26,-663.31 18.39,-662.81 19.57,-662.36 20.74,-661.91 21.97,-661.53 23.23,-661.2 23.23,-661.2 32.93,-678 32.93,-678"/>
<path fill="#329532" stroke="black" stroke-width="0.5" d="M32.93,-678C32.93,-678 23.23,-661.2 23.23,-661.2 24.25,-660.94 25.29,-660.72 26.35,-660.54 27.41,-660.37 28.48,-660.23 29.56,-660.14 30.64,-660.05 31.73,-660 32.82,-660 33.91,-660 35,-660.04 36.09,-660.12 37.17,-660.21 38.24,-660.34 39.3,-660.51 40.36,-660.68 41.41,-660.89 42.43,-661.15 43.45,-661.41 44.45,-661.7 45.41,-662.04 46.38,-662.37 47.31,-662.75 48.21,-663.16 49.11,-663.57 49.97,-664.02 50.79,-664.5 51.61,-664.98 52.38,-665.5 53.11,-666.04 53.83,-666.58 54.51,-667.15 55.13,-667.75 55.75,-668.35 56.31,-668.97 56.82,-669.62 57.33,-670.26 57.78,-670.92 58.17,-671.6 58.56,-672.28 58.88,-672.98 59.14,-673.68 59.4,-674.39 59.6,-675.1 59.73,-675.82 59.87,-676.55 59.93,-677.27 59.93,-678 59.93,-678 32.93,-678 32.93,-678"/>
<ellipse fill="none" stroke="black" cx="32.93" cy="-678" rx="27" ry="18"/>
<text xml:space="preserve" text-anchor="middle" x="32.93" y="-674.3" font-family="Times,serif" font-size="11.00" fill="white">8</text>
</g>
<!-- n8&#45;&gt;n5 -->
<g id="edge22" class="edge">
<title>n8&#45;&gt;n5</title>
<path fill="none" stroke="#77aa77" d="M33.61,-659.76C34.9,-634.94 38.53,-587.83 48.43,-549 54.81,-523.97 58.9,-518.36 69.93,-495 75.9,-482.36 83.27,-468.75 89.71,-457.37"/>
<polygon fill="#77aa77" stroke="#77aa77" points="92.6,-459.38 94.54,-448.97 86.53,-455.89 92.6,-459.38"/>
<text xml:space="preserve" text-anchor="middle" x="61.18" y="-550.95" font-family="Times,serif" font-size="9.00" fill="#77aa77"> take 3 </text>
</g>
<!-- n8&#45;&gt;n6 -->
<g id="edge23" class="edge">
<title>n8&#45;&gt;n6</title>
<path fill="none" stroke="#ddbb99" d="M37.35,-660.02C39.69,-651.41 42.75,-640.83 45.93,-631.5 54.27,-607.05 55.92,-600.62 67.43,-577.5 73.81,-564.69 81.9,-551.05 89.01,-539.7"/>
<polygon fill="#ddbb99" stroke="#ddbb99" points="91.95,-541.61 94.38,-531.3 86.05,-537.84 91.95,-541.61"/>
<text xml:space="preserve" text-anchor="middle" x="80.18" y="-592.2" font-family="Times,serif" font-size="9.00" fill="#ddbb99"> take 2 </text>
</g>
<!-- n8&#45;&gt;n7 -->
<g id="edge24" class="edge">
<title>n8&#45;&gt;n7</title>
<path fill="none" stroke="#6688bb" d="M39.12,-660.17C43.46,-650.53 50.14,-638.91 59.43,-631.5 80.59,-614.61 109.99,-605.81 133.29,-601.27"/>
<polygon fill="#6688bb" stroke="#6688bb" points="133.76,-604.74 143.01,-599.57 132.56,-597.84 133.76,-604.74"/>
<text xml:space="preserve" text-anchor="middle" x="72.18" y="-633.45" font-family="Times,serif" font-size="9.00" fill="#6688bb"> take 1 </text>
</g>
<!-- n9 -->
<g id="node10" class="node">
<title>n9</title>
<path fill="#ccddff" stroke="black" stroke-width="0.5" d="M106.93,-760.5C106.93,-760.5 133.93,-760.5 133.93,-760.5 133.93,-761.23 133.87,-761.95 133.73,-762.68 133.6,-763.4 133.4,-764.11 133.14,-764.82 132.88,-765.52 132.56,-766.22 132.17,-766.9 131.78,-767.58 131.33,-768.24 130.82,-768.88 130.31,-769.53 129.75,-770.15 129.13,-770.75 128.51,-771.35 127.83,-771.92 127.11,-772.46 126.38,-773 125.61,-773.52 124.79,-774 123.97,-774.48 123.11,-774.93 122.21,-775.34 121.31,-775.75 120.38,-776.13 119.41,-776.46 118.45,-776.8 117.45,-777.09 116.43,-777.35 115.41,-777.61 114.36,-777.82 113.3,-777.99 112.24,-778.16 111.17,-778.29 110.09,-778.38 109,-778.46 107.91,-778.5 106.82,-778.5 105.73,-778.5 104.64,-778.45 103.56,-778.36 102.48,-778.27 101.41,-778.13 100.35,-777.96 99.29,-777.78 98.25,-777.56 97.23,-777.3 97.23,-777.3 106.93,-760.5 106.93,-760.5"/>
<path fill="#ffddcc" stroke="black" stroke-width="0.5" d="M106.93,-760.5C106.93,-760.5 97.23,-777.3 97.23,-777.3 95.97,-776.97 94.74,-776.59 93.57,-776.14 92.39,-775.69 91.26,-775.19 90.2,-774.63 89.14,-774.07 88.14,-773.46 87.21,-772.8 86.29,-772.14 85.44,-771.43 84.67,-770.69 83.91,-769.94 83.22,-769.16 82.63,-768.35 82.04,-767.54 81.55,-766.7 81.14,-765.83 80.74,-764.97 80.44,-764.09 80.24,-763.2 80.03,-762.3 79.93,-761.4 79.93,-760.5 79.93,-759.6 80.03,-758.7 80.24,-757.8 80.44,-756.91 80.74,-756.03 81.14,-755.17 81.55,-754.3 82.04,-753.46 82.63,-752.65 83.22,-751.84 83.91,-751.06 84.67,-750.31 85.44,-749.57 86.29,-748.86 87.21,-748.2 88.14,-747.54 89.14,-746.93 90.2,-746.37 91.26,-745.81 92.39,-745.31 93.57,-744.86 94.74,-744.41 95.97,-744.03 97.23,-743.7 97.23,-743.7 106.93,-760.5 106.93,-760.5"/>
<path fill="#cceecc" stroke="black" stroke-width="0.5" d="M106.93,-760.5C106.93,-760.5 97.23,-743.7 97.23,-743.7 98.25,-743.44 99.29,-743.22 100.35,-743.04 101.41,-742.87 102.48,-742.73 103.56,-742.64 104.64,-742.55 105.73,-742.5 106.82,-742.5 107.91,-742.5 109,-742.54 110.09,-742.62 111.17,-742.71 112.24,-742.84 113.3,-743.01 114.36,-743.18 115.41,-743.39 116.43,-743.65 117.45,-743.91 118.45,-744.2 119.41,-744.54 120.38,-744.87 121.31,-745.25 122.21,-745.66 123.11,-746.07 123.97,-746.52 124.79,-747 125.61,-747.48 126.38,-748 127.11,-748.54 127.83,-749.08 128.51,-749.65 129.13,-750.25 129.75,-750.85 130.31,-751.47 130.82,-752.12 131.33,-752.76 131.78,-753.42 132.17,-754.1 132.56,-754.78 132.88,-755.48 133.14,-756.18 133.4,-756.89 133.6,-757.6 133.73,-758.32 133.87,-759.05 133.93,-759.77 133.93,-760.5 133.93,-760.5 106.93,-760.5 106.93,-760.5"/>
<ellipse fill="none" stroke="black" cx="106.93" cy="-760.5" rx="27" ry="18"/>
<text xml:space="preserve" text-anchor="middle" x="106.93" y="-756.8" font-family="Times,serif" font-size="11.00">9</text>
</g>
<!-- n9&#45;&gt;n6 -->
<g id="edge25" class="edge">
<title>n9&#45;&gt;n6</title>
<path fill="none" stroke="#77aa77" d="M106.86,-742.24C106.69,-700.51 106.26,-593.82 106.05,-542.47"/>
<polygon fill="#77aa77" stroke="#77aa77" points="109.55,-542.74 106.01,-532.76 102.55,-542.77 109.55,-542.74"/>
<text xml:space="preserve" text-anchor="middle" x="119.19" y="-633.45" font-family="Times,serif" font-size="9.00" fill="#77aa77"> take 3 </text>
</g>
<!-- n9&#45;&gt;n7 -->
<g id="edge26" class="edge">
<title>n9&#45;&gt;n7</title>
<path fill="none" stroke="#ddbb99" d="M113.65,-742.78C115.97,-736.99 118.57,-730.46 120.93,-724.5 134.68,-689.71 150.35,-649.52 160.42,-623.59"/>
<polygon fill="#ddbb99" stroke="#ddbb99" points="163.6,-625.09 163.95,-614.5 157.07,-622.55 163.6,-625.09"/>
<text xml:space="preserve" text-anchor="middle" x="158.82" y="-674.7" font-family="Times,serif" font-size="9.00" fill="#ddbb99"> take 2 </text>
</g>
<!-- n9&#45;&gt;n8 -->
<g id="edge27" class="edge">
<title>n9&#45;&gt;n8</title>
<path fill="none" stroke="#6688bb" d="M90.12,-745.88C82.84,-739.67 74.41,-732.03 67.43,-724.5 61.5,-718.1 55.57,-710.72 50.34,-703.8"/>
<polygon fill="#6688bb" stroke="#6688bb" points="53.35,-701.98 44.61,-695.99 47.71,-706.12 53.35,-701.98"/>
<text xml:space="preserve" text-anchor="middle" x="80.18" y="-715.95" font-family="Times,serif" font-size="9.00" fill="#6688bb"> take 1 </text>
</g>
<!-- n10 -->
<g id="node11" class="node">
<title>n10</title>
<path fill="#ccddff" stroke="black" stroke-width="0.5" d="M106.93,-843C106.93,-843 133.93,-843 133.93,-843 133.93,-843.73 133.87,-844.45 133.73,-845.18 133.6,-845.9 133.4,-846.61 133.14,-847.32 132.88,-848.02 132.56,-848.72 132.17,-849.4 131.78,-850.08 131.33,-850.74 130.82,-851.38 130.31,-852.03 129.75,-852.65 129.13,-853.25 128.51,-853.85 127.83,-854.42 127.11,-854.96 126.38,-855.5 125.61,-856.02 124.79,-856.5 123.97,-856.98 123.11,-857.43 122.21,-857.84 121.31,-858.25 120.38,-858.63 119.41,-858.96 118.45,-859.3 117.45,-859.59 116.43,-859.85 115.41,-860.11 114.36,-860.32 113.3,-860.49 112.24,-860.66 111.17,-860.79 110.09,-860.88 109,-860.96 107.91,-861 106.82,-861 105.73,-861 104.64,-860.95 103.56,-860.86 102.48,-860.77 101.41,-860.63 100.35,-860.46 99.29,-860.28 98.25,-860.06 97.23,-859.8 97.23,-859.8 106.93,-843 106.93,-843"/>
<path fill="#ffddcc" stroke="black" stroke-width="0.5" d="M106.93,-843C106.93,-843 97.23,-859.8 97.23,-859.8 95.97,-859.47 94.74,-859.09 93.57,-858.64 92.39,-858.19 91.26,-857.69 90.2,-857.13 89.14,-856.57 88.14,-855.96 87.21,-855.3 86.29,-854.64 85.44,-853.93 84.67,-853.19 83.91,-852.44 83.22,-851.66 82.63,-850.85 82.04,-850.04 81.55,-849.2 81.14,-848.33 80.74,-847.47 80.44,-846.59 80.24,-845.7 80.03,-844.8 79.93,-843.9 79.93,-843 79.93,-842.1 80.03,-841.2 80.24,-840.3 80.44,-839.41 80.74,-838.53 81.14,-837.67 81.55,-836.8 82.04,-835.96 82.63,-835.15 83.22,-834.34 83.91,-833.56 84.67,-832.81 85.44,-832.07 86.29,-831.36 87.21,-830.7 88.14,-830.04 89.14,-829.43 90.2,-828.87 91.26,-828.31 92.39,-827.81 93.57,-827.36 94.74,-826.91 95.97,-826.53 97.23,-826.2 97.23,-826.2 106.93,-843 106.93,-843"/>
<path fill="#cceecc" stroke="black" stroke-width="0.5" d="M106.93,-843C106.93,-843 97.23,-826.2 97.23,-826.2 98.25,-825.94 99.29,-825.72 100.35,-825.54 101.41,-825.37 102.48,-825.23 103.56,-825.14 104.64,-825.05 105.73,-825 106.82,-825 107.91,-825 109,-825.04 110.09,-825.12 111.17,-825.21 112.24,-825.34 113.3,-825.51 114.36,-825.68 115.41,-825.89 116.43,-826.15 117.45,-826.41 118.45,-826.7 119.41,-827.04 120.38,-827.37 121.31,-827.75 122.21,-828.16 123.11,-828.57 123.97,-829.02 124.79,-829.5 125.61,-829.98 126.38,-830.5 127.11,-831.04 127.83,-831.58 128.51,-832.15 129.13,-832.75 129.75,-833.35 130.31,-833.97 130.82,-834.62 131.33,-835.26 131.78,-835.92 132.17,-836.6 132.56,-837.28 132.88,-837.98 133.14,-838.68 133.4,-839.39 133.6,-840.1 133.73,-840.82 133.87,-841.55 133.93,-842.27 133.93,-843 133.93,-843 106.93,-843 106.93,-843"/>
<ellipse fill="none" stroke="black" stroke-width="3" cx="106.93" cy="-843" rx="27" ry="18"/>
<text xml:space="preserve" text-anchor="middle" x="106.93" y="-839.3" font-family="Times,serif" font-size="11.00">10</text>
</g>
<!-- n10&#45;&gt;n7 -->
<g id="edge2" class="edge">
<title>n10&#45;&gt;n7</title>
<path fill="none" stroke="#77aa77" d="M122.01,-826.92C127.26,-821.06 132.85,-814.07 136.93,-807 163.06,-761.71 167.14,-747.55 175.93,-696 180,-672.17 178.13,-644.7 175.6,-624.67"/>
<polygon fill="#77aa77" stroke="#77aa77" points="179.1,-624.45 174.24,-615.03 172.17,-625.42 179.1,-624.45"/>
<text xml:space="preserve" text-anchor="middle" x="185.41" y="-715.95" font-family="Times,serif" font-size="9.00" fill="#77aa77"> take 3 </text>
</g>
<!-- n10&#45;&gt;n8 -->
<g id="edge3" class="edge">
<title>n10&#45;&gt;n8</title>
<path fill="none" stroke="#ddbb99" d="M88.28,-828.33C74.02,-816.76 55.19,-798.84 45.43,-778.5 34.84,-756.43 32.12,-728.58 31.81,-707.97"/>
<polygon fill="#ddbb99" stroke="#ddbb99" points="35.31,-708.01 31.86,-697.99 28.31,-707.97 35.31,-708.01"/>
<text xml:space="preserve" text-anchor="middle" x="58.18" y="-757.2" font-family="Times,serif" font-size="9.00" fill="#ddbb99"> take 2 </text>
</g>
<!-- n10&#45;&gt;n9 -->
<g id="edge4" class="edge">
<title>n10&#45;&gt;n9</title>
<path fill="none" stroke="#6688bb" d="M106.93,-823.73C106.93,-813.85 106.93,-801.43 106.93,-790.28"/>
<polygon fill="#6688bb" stroke="#6688bb" points="110.43,-790.38 106.93,-780.38 103.43,-790.38 110.43,-790.38"/>
<text xml:space="preserve" text-anchor="middle" x="119.68" y="-798.45" font-family="Times,serif" font-size="9.00" fill="#6688bb"> take 1 </text>
</g>
</g>
</svg>
