<?xml version="1.0" encoding="UTF-8" standalone="no"?>
<!DOCTYPE svg PUBLIC "-//W3C//DTD SVG 1.1//EN"
 "http://www.w3.org/Graphics/SVG/1.1/DTD/svg11.dtd">
<!-- Generated by graphviz version 14.1.3 (20260303.0454)
 -->
<!-- Pages: 1 -->
<svg width="1214pt" height="1282pt"
 viewBox="0.00 0.00 1214.00 1282.00" xmlns="http://www.w3.org/2000/svg" xmlns:xlink="http://www.w3.org/1999/xlink">
<g id="graph0" class="graph" transform="scale(1 1) rotate(0) translate(4 1277.5)">
<polygon fill="white" stroke="none" points="-4,4 -4,-1277.5 1209.5,-1277.5 1209.5,4 -4,4"/>
<!-- nx_28302c203029 -->
<g id="node1" class="node">
<title>nx_28302c203029</title>
<path fill="#ccddff" stroke="black" stroke-width="0.5" d="M335,-1255.5C335,-1255.5 362,-1255.5 362,-1255.5 362,-1256.09 361.96,-1256.68 361.87,-1257.26 361.78,-1257.85 361.65,-1258.43 361.48,-1259.01 361.31,-1259.59 361.09,-1260.16 360.84,-1260.73 360.58,-1261.29 360.28,-1261.84 359.94,-1262.39 359.61,-1262.93 359.23,-1263.47 358.81,-1263.99 358.4,-1264.5 357.94,-1265.01 357.45,-1265.5 356.96,-1265.99 356.43,-1266.46 355.87,-1266.92 355.31,-1267.37 354.72,-1267.81 354.09,-1268.23 353.47,-1268.64 352.81,-1269.04 352.13,-1269.41 351.45,-1269.79 350.74,-1270.14 350,-1270.47 349.27,-1270.79 348.51,-1271.1 347.73,-1271.37 346.95,-1271.65 346.15,-1271.9 345.33,-1272.13 344.52,-1272.36 343.68,-1272.55 342.84,-1272.72 341.99,-1272.9 341.13,-1273.04 340.27,-1273.15 339.4,-1273.27 338.53,-1273.36 337.65,-1273.41 336.77,-1273.47 335.88,-1273.5 335,-1273.5 334.12,-1273.5 333.23,-1273.47 332.35,-1273.41 331.47,-1273.36 330.6,-1273.27 329.73,-1273.15 328.87,-1273.04 328.01,-1272.9 327.16,-1272.72 326.32,-1272.55 325.48,-1272.36 324.67,-1272.13 323.85,-1271.9 323.05,-1271.65 322.27,-1271.37 321.49,-1271.1 320.73,-1270.79 320,-1270.47 319.26,-1270.14 318.55,-1269.79 317.87,-1269.41 317.19,-1269.04 316.53,-1268.64 315.91,-1268.23 315.28,-1267.81 314.69,-1267.37 314.13,-1266.92 313.57,-1266.46 313.04,-1265.99 312.55,-1265.5 312.06,-1265.01 311.6,-1264.5 311.19,-1263.99 310.77,-1263.47 310.39,-1262.93 310.06,-1262.39 309.72,-1261.84 309.42,-1261.29 309.16,-1260.73 308.91,-1260.16 308.69,-1259.59 308.52,-1259.01 308.35,-1258.43 308.22,-1257.85 308.13,-1257.26 308.04,-1256.68 308,-1256.09 308,-1255.5 308,-1255.5 335,-1255.5 335,-1255.5"/>
<path fill="#ffddcc" stroke="black" stroke-width="0.5" d="M335,-1255.5C335,-1255.5 308,-1255.5 308,-1255.5 308,-1254.91 308.04,-1254.32 308.13,-1253.74 308.22,-1253.15 308.35,-1252.57 308.52,-1251.99 308.69,-1251.41 308.91,-1250.84 309.16,-1250.27 309.42,-1249.71 309.72,-1249.16 310.06,-1248.61 310.39,-1248.07 310.77,-1247.53 311.19,-1247.01 311.6,-1246.5 312.06,-1245.99 312.55,-1245.5 313.04,-1245.01 313.57,-1244.54 314.13,-1244.08 314.69,-1243.63 315.28,-1243.19 315.91,-1242.77 316.53,-1242.36 317.19,-1241.96 317.87,-1241.59 318.55,-1241.21 319.26,-1240.86 320,-1240.53 320.73,-1240.21 321.49,-1239.9 322.27,-1239.63 323.05,-1239.35 323.85,-1239.1 324.67,-1238.87 325.48,-1238.64 326.32,-1238.45 327.16,-1238.28 328.01,-1238.1 328.87,-1237.96 329.73,-1237.85 330.6,-1237.73 331.47,-1237.64 332.35,-1237.59 333.23,-1237.53 334.12,-1237.5 335,-1237.5 335.88,-1237.5 336.77,-1237.53 337.65,-1237.59 338.53,-1237.64 339.4,-1237.73 340.27,-1237.85 341.13,-1237.96 341.99,-1238.1 342.84,-1238.28 343.68,-1238.45 344.52,-1238.64 345.33,-1238.87 346.15,-1239.1 346.95,-1239.35 347.73,-1239.63 348.51,-1239.9 349.27,-1240.21 350,-1240.53 350.74,-1240.86 351.45,-1241.21 352.13,-1241.59 352.81,-1241.96 353.47,-1242.36 354.09,-1242.77 354.72,-1243.19 355.31,-1243.63 355.87,-1244.08 356.43,-1244.54 356.96,-1245.01 357.45,-1245.5 357.94,-1245.99 358.4,-1246.5 358.81,-1247.01 359.23,-1247.53 359.61,-1248.07 359.94,-1248.61 360.28,-1249.16 360.58,-1249.71 360.84,-1250.27 361.09,-1250.84 361.31,-1251.41 361.48,-1251.99 361.65,-1252.57 361.78,-1253.15 361.87,-1253.74 361.96,-1254.32 362,-1254.91 362,-1255.5 362,-1255.5 335,-1255.5 335,-1255.5"/>
<ellipse fill="none" stroke="black" stroke-width="3" cx="335" cy="-1255.5" rx="27" ry="18"/>
<text xml:space="preserve" text-anchor="middle" x="335" y="-1251.8" font-family="Times,serif" font-size="11.00">(0, 0)</text>
</g>
<!-- nx_28302c203529 -->
<g id="node6" class="node">
<title>nx_28302c203529</title>
<path fill="#ccddff" stroke="black" stroke-width="0.5" d="M353,-1173C353,-1173 380,-1173 380,-1173 380,-1173.73 379.93,-1174.45 379.8,-1175.18 379.67,-1175.9 379.47,-1176.61 379.21,-1177.32 378.95,-1178.02 378.62,-1178.72 378.24,-1179.4 377.85,-1180.08 377.4,-1180.74 376.89,-1181.38 376.38,-1182.03 375.82,-1182.65 375.2,-1183.25 374.58,-1183.85 373.9,-1184.42 373.18,-1184.96 372.45,-1185.5 371.68,-1186.02 370.86,-1186.5 370.04,-1186.98 369.18,-1187.43 368.28,-1187.84 367.38,-1188.25 366.45,-1188.63 365.48,-1188.96 364.51,-1189.3 363.52,-1189.59 362.5,-1189.85 361.48,-1190.11 360.43,-1190.32 359.37,-1190.49 358.31,-1190.66 357.24,-1190.79 356.16,-1190.88 355.07,-1190.96 353.98,-1191 352.89,-1191 351.8,-1191 350.71,-1190.95 349.63,-1190.86 348.55,-1190.77 347.48,-1190.63 346.42,-1190.46 345.36,-1190.28 344.32,-1190.06 343.3,-1189.8 343.3,-1189.8 353,-1173 353,-1173"/>
<path fill="#eeccee" stroke="black" stroke-width="0.5" d="M353,-1173C353,-1173 343.3,-1189.8 343.3,-1189.8 342.04,-1189.47 340.81,-1189.09 339.63,-1188.64 338.46,-1188.19 337.33,-1187.69 336.27,-1187.13 335.21,-1186.57 334.21,-1185.96 333.28,-1185.3 332.36,-1184.64 331.51,-1183.93 330.74,-1183.19 329.98,-1182.44 329.29,-1181.66 328.7,-1180.85 328.11,-1180.04 327.61,-1179.2 327.21,-1178.33 326.81,-1177.47 326.51,-1176.59 326.3,-1175.7 326.1,-1174.8 326,-1173.9 326,-1173 326,-1172.1 326.1,-1171.2 326.3,-1170.3 326.51,-1169.41 326.81,-1168.53 327.21,-1167.67 327.61,-1166.8 328.11,-1165.96 328.7,-1165.15 329.29,-1164.34 329.98,-1163.56 330.74,-1162.81 331.51,-1162.07 332.36,-1161.36 333.28,-1160.7 334.21,-1160.04 335.21,-1159.43 336.27,-1158.87 337.33,-1158.31 338.46,-1157.81 339.63,-1157.36 340.81,-1156.91 342.04,-1156.53 343.3,-1156.2 343.3,-1156.2 353,-1173 353,-1173"/>
<path fill="#cceeee" stroke="black" stroke-width="0.5" d="M353,-1173C353,-1173 343.3,-1156.2 343.3,-1156.2 344.32,-1155.94 345.36,-1155.72 346.42,-1155.54 347.48,-1155.37 348.55,-1155.23 349.63,-1155.14 350.71,-1155.05 351.8,-1155 352.89,-1155 353.98,-1155 355.07,-1155.04 356.16,-1155.12 357.24,-1155.21 358.31,-1155.34 359.37,-1155.51 360.43,-1155.68 361.48,-1155.89 362.5,-1156.15 363.52,-1156.41 364.51,-1156.7 365.48,-1157.04 366.45,-1157.37 367.38,-1157.75 368.28,-1158.16 369.18,-1158.57 370.04,-1159.02 370.86,-1159.5 371.68,-1159.98 372.45,-1160.5 373.18,-1161.04 373.9,-1161.58 374.58,-1162.15 375.2,-1162.75 375.82,-1163.35 376.38,-1163.97 376.89,-1164.62 377.4,-1165.26 377.85,-1165.92 378.24,-1166.6 378.62,-1167.28 378.95,-1167.98 379.21,-1168.68 379.47,-1169.39 379.67,-1170.1 379.8,-1170.82 379.93,-1171.55 380,-1172.27 380,-1173 380,-1173 353,-1173 353,-1173"/>
<ellipse fill="none" stroke="black" cx="353" cy="-1173" rx="27" ry="18"/>
<text xml:space="preserve" text-anchor="middle" x="353" y="-1169.3" font-family="Times,serif" font-size="11.00">(0, 5)</text>
</g>
<!-- nx_28302c203029&#45;&gt;nx_28302c203529 -->
<g id="edge1" class="edge">
<title>nx_28302c203029&#45;&gt;nx_28302c203529</title>
<path fill="none" stroke="#ddbb99" d="M320.5,-1238.98C314.12,-1230.22 308.98,-1219.04 313.5,-1209 316.13,-1203.15 320.28,-1197.88 324.91,-1193.32"/>
<polygon fill="#ddbb99" stroke="#ddbb99" points="327.11,-1196.04 332.42,-1186.87 322.55,-1190.73 327.11,-1196.04"/>
<text xml:space="preserve" text-anchor="middle" x="324.75" y="-1210.95" font-family="Times,serif" font-size="9.00" fill="#ddbb99"> fill B </text>
</g>
<!-- nx_28332c203029 -->
<g id="node11" class="node">
<title>nx_28332c203029</title>
<path fill="#cceecc" stroke="black" stroke-width="0.5" d="M616,-1008C616,-1008 643,-1008 643,-1008 643,-1008.73 642.93,-1009.45 642.8,-1010.18 642.67,-1010.9 642.47,-1011.61 642.21,-1012.32 641.95,-1013.02 641.62,-1013.72 641.24,-1014.4 640.85,-1015.08 640.4,-1015.74 639.89,-1016.38 639.38,-1017.03 638.82,-1017.65 638.2,-1018.25 637.58,-1018.85 636.9,-1019.42 636.18,-1019.96 635.45,-1020.5 634.68,-1021.02 633.86,-1021.5 633.04,-1021.98 632.18,-1022.43 631.28,-1022.84 630.38,-1023.25 629.45,-1023.63 628.48,-1023.96 627.51,-1024.3 626.52,-1024.59 625.5,-1024.85 624.48,-1025.11 623.43,-1025.32 622.37,-1025.49 621.31,-1025.66 620.24,-1025.79 619.16,-1025.88 618.07,-1025.96 616.98,-1026 615.89,-1026 614.8,-1026 613.71,-1025.95 612.63,-1025.86 611.55,-1025.77 610.48,-1025.63 609.42,-1025.46 608.36,-1025.28 607.32,-1025.06 606.3,-1024.8 606.3,-1024.8 616,-1008 616,-1008"/>
<path fill="#ffddcc" stroke="black" stroke-width="0.5" d="M616,-1008C616,-1008 606.3,-1024.8 606.3,-1024.8 605.04,-1024.47 603.81,-1024.09 602.63,-1023.64 601.46,-1023.19 600.33,-1022.69 599.27,-1022.13 598.21,-1021.57 597.21,-1020.96 596.28,-1020.3 595.36,-1019.64 594.51,-1018.93 593.74,-1018.19 592.98,-1017.44 592.29,-1016.66 591.7,-1015.85 591.11,-1015.04 590.61,-1014.2 590.21,-1013.33 589.81,-1012.47 589.51,-1011.59 589.3,-1010.7 589.1,-1009.8 589,-1008.9 589,-1008 589,-1007.1 589.1,-1006.2 589.3,-1005.3 589.51,-1004.41 589.81,-1003.53 590.21,-1002.67 590.61,-1001.8 591.11,-1000.96 591.7,-1000.15 592.29,-999.34 592.98,-998.56 593.74,-997.81 594.51,-997.07 595.36,-996.36 596.28,-995.7 597.21,-995.04 598.21,-994.43 599.27,-993.87 600.33,-993.31 601.46,-992.81 602.63,-992.36 603.81,-991.91 605.04,-991.53 606.3,-991.2 606.3,-991.2 616,-1008 616,-1008"/>
<path fill="#eeeeaa" stroke="black" stroke-width="0.5" d="M616,-1008C616,-1008 606.3,-991.2 606.3,-991.2 607.32,-990.94 608.36,-990.72 609.42,-990.54 610.48,-990.37 611.55,-990.23 612.63,-990.14 613.71,-990.05 614.8,-990 615.89,-990 616.98,-990 618.07,-990.04 619.16,-990.12 620.24,-990.21 621.31,-990.34 622.37,-990.51 623.43,-990.68 624.48,-990.89 625.5,-991.15 626.52,-991.41 627.51,-991.7 628.48,-992.04 629.45,-992.37 630.38,-992.75 631.28,-993.16 632.18,-993.57 633.04,-994.02 633.86,-994.5 634.68,-994.98 635.45,-995.5 636.18,-996.04 636.9,-996.58 637.58,-997.15 638.2,-997.75 638.82,-998.35 639.38,-998.97 639.89,-999.62 640.4,-1000.26 640.85,-1000.92 641.24,-1001.6 641.62,-1002.28 641.95,-1002.98 642.21,-1003.68 642.47,-1004.39 642.67,-1005.1 642.8,-1005.82 642.93,-1006.55 643,-1007.27 643,-1008 643,-1008 616,-1008 616,-1008"/>
<ellipse fill="none" stroke="black" cx="616" cy="-1008" rx="27" ry="18"/>
<text xml:space="preserve" text-anchor="middle" x="616" y="-1004.3" font-family="Times,serif" font-size="11.00">(3, 0)</text>
</g>
<!-- nx_28302c203029&#45;&gt;nx_28332c203029 -->
<g id="edge2" class="edge">
<title>nx_28302c203029&#45;&gt;nx_28332c203029</title>
<path fill="none" stroke="#6688bb" d="M363.02,-1252.79C390.52,-1249.82 432.39,-1241.7 461,-1219.5 532.11,-1164.34 500.07,-1109.3 562,-1044 568.67,-1036.97 577.02,-1030.69 585.14,-1025.45"/>
<polygon fill="#6688bb" stroke="#6688bb" points="586.77,-1028.55 593.52,-1020.38 583.15,-1022.56 586.77,-1028.55"/>
<text xml:space="preserve" text-anchor="middle" x="528.57" y="-1128.45" font-family="Times,serif" font-size="9.00" fill="#6688bb"> fill A </text>
</g>
<!-- nx_28302c203129 -->
<g id="node2" class="node">
<title>nx_28302c203129</title>
<path fill="#ccddff" stroke="black" stroke-width="0.5" d="M488,-595.5C488,-595.5 515,-595.5 515,-595.5 515,-596.09 514.96,-596.68 514.87,-597.26 514.78,-597.85 514.65,-598.43 514.48,-599.01 514.31,-599.59 514.09,-600.16 513.84,-600.73 513.58,-601.29 513.28,-601.84 512.94,-602.39 512.61,-602.93 512.23,-603.47 511.81,-603.99 511.4,-604.5 510.94,-605.01 510.45,-605.5 509.96,-605.99 509.43,-606.46 508.87,-606.92 508.31,-607.37 507.72,-607.81 507.09,-608.23 506.47,-608.64 505.81,-609.04 505.13,-609.41 504.45,-609.79 503.74,-610.14 503,-610.47 502.27,-610.79 501.51,-611.1 500.73,-611.37 499.95,-611.65 499.15,-611.9 498.33,-612.13 497.52,-612.36 496.68,-612.55 495.84,-612.72 494.99,-612.9 494.13,-613.04 493.27,-613.15 492.4,-613.27 491.53,-613.36 490.65,-613.41 489.77,-613.47 488.88,-613.5 488,-613.5 488,-613.5 488,-595.5 488,-595.5"/>
<path fill="#eeccee" stroke="black" stroke-width="0.5" d="M488,-595.5C488,-595.5 488,-613.5 488,-613.5 487.12,-613.5 486.23,-613.47 485.35,-613.41 484.47,-613.36 483.6,-613.27 482.73,-613.15 481.87,-613.04 481.01,-612.9 480.16,-612.72 479.32,-612.55 478.48,-612.36 477.67,-612.13 476.85,-611.9 476.05,-611.65 475.27,-611.37 474.49,-611.1 473.73,-610.79 473,-610.47 472.26,-610.14 471.55,-609.79 470.87,-609.41 470.19,-609.04 469.53,-608.64 468.91,-608.23 468.28,-607.81 467.69,-607.37 467.13,-606.92 466.57,-606.46 466.04,-605.99 465.55,-605.5 465.06,-605.01 464.6,-604.5 464.19,-603.99 463.77,-603.47 463.39,-602.93 463.06,-602.39 462.72,-601.84 462.42,-601.29 462.16,-600.73 461.91,-600.16 461.69,-599.59 461.52,-599.01 461.35,-598.43 461.22,-597.85 461.13,-597.26 461.04,-596.68 461,-596.09 461,-595.5 461,-595.5 488,-595.5 488,-595.5"/>
<path fill="#ffddcc" stroke="black" stroke-width="0.5" d="M488,-595.5C488,-595.5 461,-595.5 461,-595.5 461,-594.91 461.04,-594.32 461.13,-593.74 461.22,-593.15 461.35,-592.57 461.52,-591.99 461.69,-591.41 461.91,-590.84 462.16,-590.27 462.42,-589.71 462.72,-589.16 463.06,-588.61 463.39,-588.07 463.77,-587.53 464.19,-587.01 464.6,-586.5 465.06,-585.99 465.55,-585.5 466.04,-585.01 466.57,-584.54 467.13,-584.08 467.69,-583.63 468.28,-583.19 468.91,-582.77 469.53,-582.36 470.19,-581.96 470.87,-581.59 471.55,-581.21 472.26,-580.86 473,-580.53 473.73,-580.21 474.49,-579.9 475.27,-579.63 476.05,-579.35 476.85,-579.1 477.67,-578.87 478.48,-578.64 479.32,-578.45 480.16,-578.28 481.01,-578.1 481.87,-577.96 482.73,-577.85 483.6,-577.73 484.47,-577.64 485.35,-577.59 486.23,-577.53 487.12,-577.5 488,-577.5 488,-577.5 488,-595.5 488,-595.5"/>
<path fill="#cceeee" stroke="black" stroke-width="0.5" d="M488,-595.5C488,-595.5 488,-577.5 488,-577.5 488.88,-577.5 489.77,-577.53 490.65,-577.59 491.53,-577.64 492.4,-577.73 493.27,-577.85 494.13,-577.96 494.99,-578.1 495.84,-578.28 496.68,-578.45 497.52,-578.64 498.33,-578.87 499.15,-579.1 499.95,-579.35 500.73,-579.63 501.51,-579.9 502.27,-580.21 503,-580.53 503.74,-580.86 504.45,-581.21 505.13,-581.59 505.81,-581.96 506.47,-582.36 507.09,-582.77 507.72,-583.19 508.31,-583.63 508.87,-584.08 509.43,-584.54 509.96,-585.01 510.45,-585.5 510.94,-585.99 511.4,-586.5 511.81,-587.01 512.23,-587.53 512.61,-588.07 512.94,-588.61 513.28,-589.16 513.58,-589.71 513.84,-590.27 514.09,-590.84 514.31,-591.41 514.48,-591.99 514.65,-592.57 514.78,-593.15 514.87,-593.74 514.96,-594.32 515,-594.91 515,-595.5 515,-595.5 488,-595.5 488,-595.5"/>
<ellipse fill="none" stroke="black" cx="488" cy="-595.5" rx="27" ry="18"/>
<text xml:space="preserve" text-anchor="middle" x="488" y="-591.8" font-family="Times,serif" font-size="11.00">(0, 1)</text>
</g>
<!-- nx_28302c203129&#45;&gt;nx_28302c203029 -->
<g id="edge3" class="edge">
<title>nx_28302c203129&#45;&gt;nx_28302c203029</title>
<path fill="none" stroke="#aa77aa" d="M460.9,-596.02C407.97,-596.65 296,-606.34 296,-677 296,-802.75 296,-802.75 296,-802.75 296,-875.59 279,-892.91 279,-965.75 279,-1174 279,-1174 279,-1174 279,-1196.98 294.57,-1218.11 309.29,-1232.95"/>
<polygon fill="#aa77aa" stroke="#aa77aa" points="306.52,-1235.14 316.18,-1239.48 311.33,-1230.06 306.52,-1235.14"/>
<text xml:space="preserve" text-anchor="middle" x="300.41" y="-922.2" font-family="Times,serif" font-size="9.00" fill="#aa77aa"> empty B </text>
</g>
<!-- nx_28302c203129&#45;&gt;nx_28302c203529 -->
<g id="edge4" class="edge">
<title>nx_28302c203129&#45;&gt;nx_28302c203529</title>
<path fill="none" stroke="#ddbb99" d="M461.22,-599.19C419.07,-605.06 342,-623.16 342,-677 342,-885.25 342,-885.25 342,-885.25 342,-919.17 339.67,-927.59 339,-961.5 337.72,-1026.54 344.96,-1102.67 349.51,-1143.18"/>
<polygon fill="#ddbb99" stroke="#ddbb99" points="346.02,-1143.52 350.65,-1153.06 352.98,-1142.72 346.02,-1143.52"/>
<text xml:space="preserve" text-anchor="middle" x="353.25" y="-880.95" font-family="Times,serif" font-size="9.00" fill="#ddbb99"> fill B </text>
</g>
<!-- nx_28312c203029 -->
<g id="node7" class="node">
<title>nx_28312c203029</title>
<path fill="#cceecc" stroke="black" stroke-width="0.5" d="M498,-678C498,-678 525,-678 525,-678 525,-678.59 524.96,-679.18 524.87,-679.76 524.78,-680.35 524.65,-680.93 524.48,-681.51 524.31,-682.09 524.09,-682.66 523.84,-683.23 523.58,-683.79 523.28,-684.34 522.94,-684.89 522.61,-685.43 522.23,-685.97 521.81,-686.49 521.4,-687 520.94,-687.51 520.45,-688 519.96,-688.49 519.43,-688.96 518.87,-689.42 518.31,-689.87 517.72,-690.31 517.09,-690.73 516.47,-691.14 515.81,-691.54 515.13,-691.91 514.45,-692.29 513.74,-692.64 513,-692.97 512.27,-693.29 511.51,-693.6 510.73,-693.87 509.95,-694.15 509.15,-694.4 508.33,-694.63 507.52,-694.86 506.68,-695.05 505.84,-695.22 504.99,-695.4 504.13,-695.54 503.27,-695.65 502.4,-695.77 501.53,-695.86 500.65,-695.91 499.77,-695.97 498.88,-696 498,-696 498,-696 498,-678 498,-678"/>
<path fill="#ccddff" stroke="black" stroke-width="0.5" d="M498,-678C498,-678 498,-696 498,-696 497.12,-696 496.23,-695.97 495.35,-695.91 494.47,-695.86 493.6,-695.77 492.73,-695.65 491.87,-695.54 491.01,-695.4 490.16,-695.22 489.32,-695.05 488.48,-694.86 487.67,-694.63 486.85,-694.4 486.05,-694.15 485.27,-693.87 484.49,-693.6 483.73,-693.29 483,-692.97 482.26,-692.64 481.55,-692.29 480.87,-691.91 480.19,-691.54 479.53,-691.14 478.91,-690.73 478.28,-690.31 477.69,-689.87 477.13,-689.42 476.57,-688.96 476.04,-688.49 475.55,-688 475.06,-687.51 474.6,-687 474.19,-686.49 473.77,-685.97 473.39,-685.43 473.06,-684.89 472.72,-684.34 472.42,-683.79 472.16,-683.23 471.91,-682.66 471.69,-682.09 471.52,-681.51 471.35,-680.93 471.22,-680.35 471.13,-679.76 471.04,-679.18 471,-678.59 471,-678 471,-678 498,-678 498,-678"/>
<path fill="#ffddcc" stroke="black" stroke-width="0.5" d="M498,-678C498,-678 471,-678 471,-678 471,-677.41 471.04,-676.82 471.13,-676.24 471.22,-675.65 471.35,-675.07 471.52,-674.49 471.69,-673.91 471.91,-673.34 472.16,-672.77 472.42,-672.21 472.72,-671.66 473.06,-671.11 473.39,-670.57 473.77,-670.03 474.19,-669.51 474.6,-669 475.06,-668.49 475.55,-668 476.04,-667.51 476.57,-667.04 477.13,-666.58 477.69,-666.13 478.28,-665.69 478.91,-665.27 479.53,-664.86 480.19,-664.46 480.87,-664.09 481.55,-663.71 482.26,-663.36 483,-663.03 483.73,-662.71 484.49,-662.4 485.27,-662.13 486.05,-661.85 486.85,-661.6 487.67,-661.37 488.48,-661.14 489.32,-660.95 490.16,-660.78 491.01,-660.6 491.87,-660.46 492.73,-660.35 493.6,-660.23 494.47,-660.14 495.35,-660.09 496.23,-660.03 497.12,-660 498,-660 498,-660 498,-678 498,-678"/>
<path fill="#eeeeaa" stroke="black" stroke-width="0.5" d="M498,-678C498,-678 498,-660 498,-660 498.88,-660 499.77,-660.03 500.65,-660.09 501.53,-660.14 502.4,-660.23 503.27,-660.35 504.13,-660.46 504.99,-660.6 505.84,-660.78 506.68,-660.95 507.52,-661.14 508.33,-661.37 509.15,-661.6 509.95,-661.85 510.73,-662.13 511.51,-662.4 512.27,-662.71 513,-663.03 513.74,-663.36 514.45,-663.71 515.13,-664.09 515.81,-664.46 516.47,-664.86 517.09,-665.27 517.72,-665.69 518.31,-666.13 518.87,-666.58 519.43,-667.04 519.96,-667.51 520.45,-668 520.94,-668.49 521.4,-669 521.81,-669.51 522.23,-670.03 522.61,-670.57 522.94,-671.11 523.28,-671.66 523.58,-672.21 523.84,-672.77 524.09,-673.34 524.31,-673.91 524.48,-674.49 524.65,-675.07 524.78,-675.65 524.87,-676.24 524.96,-676.82 525,-677.41 525,-678 525,-678 498,-678 498,-678"/>
<ellipse fill="none" stroke="black" cx="498" cy="-678" rx="27" ry="18"/>
<text xml:space="preserve" text-anchor="middle" x="498" y="-674.3" font-family="Times,serif" font-size="11.00">(1, 0)</text>
</g>
<!-- nx_28302c203129&#45;&gt;nx_28312c203029 -->
<g id="edge5" class="edge">
<title>nx_28302c203129&#45;&gt;nx_28312c203029</title>
<path fill="none" stroke="#77aaaa" d="M490.15,-613.82C491.41,-623.94 493.03,-636.96 494.47,-648.55"/>
<polygon fill="#77aaaa" stroke="#77aaaa" points="490.99,-648.93 495.69,-658.43 497.93,-648.07 490.99,-648.93"/>
<text xml:space="preserve" text-anchor="middle" x="505.97" y="-633.45" font-family="Times,serif" font-size="9.00" fill="#77aaaa"> B&#45;&gt;A </text>
</g>
<!-- nx_28332c203129 -->
<g id="node12" class="node">
<title>nx_28332c203129</title>
<path fill="#cceecc" stroke="black" stroke-width="0.5" d="M631,-513C631,-513 658,-513 658,-513 658,-513.59 657.96,-514.18 657.87,-514.76 657.78,-515.35 657.65,-515.93 657.48,-516.51 657.31,-517.09 657.09,-517.66 656.84,-518.23 656.58,-518.79 656.28,-519.34 655.94,-519.89 655.61,-520.43 655.23,-520.97 654.81,-521.49 654.4,-522 653.94,-522.51 653.45,-523 652.96,-523.49 652.43,-523.96 651.87,-524.42 651.31,-524.87 650.72,-525.31 650.09,-525.73 649.47,-526.14 648.81,-526.54 648.13,-526.91 647.45,-527.29 646.74,-527.64 646,-527.97 645.27,-528.29 644.51,-528.6 643.73,-528.87 642.95,-529.15 642.15,-529.4 641.33,-529.63 640.52,-529.86 639.68,-530.05 638.84,-530.22 637.99,-530.4 637.13,-530.54 636.27,-530.65 635.4,-530.77 634.53,-530.86 633.65,-530.91 632.77,-530.97 631.88,-531 631,-531 631,-531 631,-513 631,-513"/>
<path fill="#eeccee" stroke="black" stroke-width="0.5" d="M631,-513C631,-513 631,-531 631,-531 630.12,-531 629.23,-530.97 628.35,-530.91 627.47,-530.86 626.6,-530.77 625.73,-530.65 624.87,-530.54 624.01,-530.4 623.16,-530.22 622.32,-530.05 621.48,-529.86 620.67,-529.63 619.85,-529.4 619.05,-529.15 618.27,-528.87 617.49,-528.6 616.73,-528.29 616,-527.97 615.26,-527.64 614.55,-527.29 613.87,-526.91 613.19,-526.54 612.53,-526.14 611.91,-525.73 611.28,-525.31 610.69,-524.87 610.13,-524.42 609.57,-523.96 609.04,-523.49 608.55,-523 608.06,-522.51 607.6,-522 607.19,-521.49 606.77,-520.97 606.39,-520.43 606.06,-519.89 605.72,-519.34 605.42,-518.79 605.16,-518.23 604.91,-517.66 604.69,-517.09 604.52,-516.51 604.35,-515.93 604.22,-515.35 604.13,-514.76 604.04,-514.18 604,-513.59 604,-513 604,-513 631,-513 631,-513"/>
<path fill="#ffddcc" stroke="black" stroke-width="0.5" d="M631,-513C631,-513 604,-513 604,-513 604,-512.41 604.04,-511.82 604.13,-511.24 604.22,-510.65 604.35,-510.07 604.52,-509.49 604.69,-508.91 604.91,-508.34 605.16,-507.77 605.42,-507.21 605.72,-506.66 606.06,-506.11 606.39,-505.57 606.77,-505.03 607.19,-504.51 607.6,-504 608.06,-503.49 608.55,-503 609.04,-502.51 609.57,-502.04 610.13,-501.58 610.69,-501.13 611.28,-500.69 611.91,-500.27 612.53,-499.86 613.19,-499.46 613.87,-499.09 614.55,-498.71 615.26,-498.36 616,-498.03 616.73,-497.71 617.49,-497.4 618.27,-497.13 619.05,-496.85 619.85,-496.6 620.67,-496.37 621.48,-496.14 622.32,-495.95 623.16,-495.78 624.01,-495.6 624.87,-495.46 625.73,-495.35 626.6,-495.23 627.47,-495.14 628.35,-495.09 629.23,-495.03 630.12,-495 631,-495 631,-495 631,-513 631,-513"/>
<path fill="#eeeeaa" stroke="black" stroke-width="0.5" d="M631,-513C631,-513 631,-495 631,-495 631.88,-495 632.77,-495.03 633.65,-495.09 634.53,-495.14 635.4,-495.23 636.27,-495.35 637.13,-495.46 637.99,-495.6 638.84,-495.78 639.68,-495.95 640.52,-496.14 641.33,-496.37 642.15,-496.6 642.95,-496.85 643.73,-497.13 644.51,-497.4 645.27,-497.71 646,-498.03 646.74,-498.36 647.45,-498.71 648.13,-499.09 648.81,-499.46 649.47,-499.86 650.09,-500.27 650.72,-500.69 651.31,-501.13 651.87,-501.58 652.43,-502.04 652.96,-502.51 653.45,-503 653.94,-503.49 654.4,-504 654.81,-504.51 655.23,-505.03 655.61,-505.57 655.94,-506.11 656.28,-506.66 656.58,-507.21 656.84,-507.77 657.09,-508.34 657.31,-508.91 657.48,-509.49 657.65,-510.07 657.78,-510.65 657.87,-511.24 657.96,-511.82 658,-512.41 658,-513 658,-513 631,-513 631,-513"/>
<ellipse fill="none" stroke="black" cx="631" cy="-513" rx="27" ry="18"/>
<text xml:space="preserve" text-anchor="middle" x="631" y="-509.3" font-family="Times,serif" font-size="11.00">(3, 1)</text>
</g>
<!-- nx_28302c203129&#45;&gt;nx_28332c203129 -->
<g id="edge6" class="edge">
<title>nx_28302c203129&#45;&gt;nx_28332c203129</title>
<path fill="none" stroke="#6688bb" d="M506.76,-582.25C521.45,-572.82 542.51,-559.63 561.5,-549 573.72,-542.16 587.43,-535.12 599.43,-529.17"/>
<polygon fill="#6688bb" stroke="#6688bb" points="600.66,-532.46 608.1,-524.91 597.58,-526.18 600.66,-532.46"/>
<text xml:space="preserve" text-anchor="middle" x="572.75" y="-550.95" font-family="Times,serif" font-size="9.00" fill="#6688bb"> fill A </text>
</g>
<!-- nx_28302c203229 -->
<g id="node3" class="node">
<title>nx_28302c203229</title>
<path fill="#ccddff" stroke="black" stroke-width="0.5" d="M720,-100.5C720,-100.5 747,-100.5 747,-100.5 747,-101.09 746.96,-101.68 746.87,-102.26 746.78,-102.85 746.65,-103.43 746.48,-104.01 746.31,-104.59 746.09,-105.16 745.84,-105.73 745.58,-106.29 745.28,-106.84 744.94,-107.39 744.61,-107.93 744.23,-108.47 743.81,-108.99 743.4,-109.5 742.94,-110.01 742.45,-110.5 741.96,-110.99 741.43,-111.46 740.87,-111.92 740.31,-112.37 739.72,-112.81 739.09,-113.23 738.47,-113.64 737.81,-114.04 737.13,-114.41 736.45,-114.79 735.74,-115.14 735,-115.47 734.27,-115.79 733.51,-116.1 732.73,-116.37 731.95,-116.65 731.15,-116.9 730.33,-117.13 729.52,-117.36 728.68,-117.55 727.84,-117.72 726.99,-117.9 726.13,-118.04 725.27,-118.15 724.4,-118.27 723.53,-118.36 722.65,-118.41 721.77,-118.47 720.88,-118.5 720,-118.5 720,-118.5 720,-100.5 720,-100.5"/>
<path fill="#eeccee" stroke="black" stroke-width="0.5" d="M720,-100.5C720,-100.5 720,-118.5 720,-118.5 719.12,-118.5 718.23,-118.47 717.35,-118.41 716.47,-118.36 715.6,-118.27 714.73,-118.15 713.87,-118.04 713.01,-117.9 712.16,-117.72 711.32,-117.55 710.48,-117.36 709.67,-117.13 708.85,-116.9 708.05,-116.65 707.27,-116.37 706.49,-116.1 705.73,-115.79 705,-115.47 704.26,-115.14 703.55,-114.79 702.87,-114.41 702.19,-114.04 701.53,-113.64 700.91,-113.23 700.28,-112.81 699.69,-112.37 699.13,-111.92 698.57,-111.46 698.04,-110.99 697.55,-110.5 697.06,-110.01 696.6,-109.5 696.19,-108.99 695.77,-108.47 695.39,-107.93 695.06,-107.39 694.72,-106.84 694.42,-106.29 694.16,-105.73 693.91,-105.16 693.69,-104.59 693.52,-104.01 693.35,-103.43 693.22,-102.85 693.13,-102.26 693.04,-101.68 693,-101.09 693,-100.5 693,-100.5 720,-100.5 720,-100.5"/>
<path fill="#ffddcc" stroke="black" stroke-width="0.5" d="M720,-100.5C720,-100.5 693,-100.5 693,-100.5 693,-99.91 693.04,-99.32 693.13,-98.74 693.22,-98.15 693.35,-97.57 693.52,-96.99 693.69,-96.41 693.91,-95.84 694.16,-95.27 694.42,-94.71 694.72,-94.16 695.06,-93.61 695.39,-93.07 695.77,-92.53 696.19,-92.01 696.6,-91.5 697.06,-90.99 697.55,-90.5 698.04,-90.01 698.57,-89.54 699.13,-89.08 699.69,-88.63 700.28,-88.19 700.91,-87.77 701.53,-87.36 702.19,-86.96 702.87,-86.59 703.55,-86.21 704.26,-85.86 705,-85.53 705.73,-85.21 706.49,-84.9 707.27,-84.63 708.05,-84.35 708.85,-84.1 709.67,-83.87 710.48,-83.64 711.32,-83.45 712.16,-83.28 713.01,-83.1 713.87,-82.96 714.73,-82.85 715.6,-82.73 716.47,-82.64 717.35,-82.59 718.23,-82.53 719.12,-82.5 720,-82.5 720,-82.5 720,-100.5 720,-100.5"/>
<path fill="#cceeee" stroke="black" stroke-width="0.5" d="M720,-100.5C720,-100.5 720,-82.5 720,-82.5 720.88,-82.5 721.77,-82.53 722.65,-82.59 723.53,-82.64 724.4,-82.73 725.27,-82.85 726.13,-82.96 726.99,-83.1 727.84,-83.28 728.68,-83.45 729.52,-83.64 730.33,-83.87 731.15,-84.1 731.95,-84.35 732.73,-84.63 733.51,-84.9 734.27,-85.21 735,-85.53 735.74,-85.86 736.45,-86.21 737.13,-86.59 737.81,-86.96 738.47,-87.36 739.09,-87.77 739.72,-88.19 740.31,-88.63 740.87,-89.08 741.43,-89.54 741.96,-90.01 742.45,-90.5 742.94,-90.99 743.4,-91.5 743.81,-92.01 744.23,-92.53 744.61,-93.07 744.94,-93.61 745.28,-94.16 745.58,-94.71 745.84,-95.27 746.09,-95.84 746.31,-96.41 746.48,-96.99 746.65,-97.57 746.78,-98.15 746.87,-98.74 746.96,-99.32 747,-99.91 747,-100.5 747,-100.5 720,-100.5 720,-100.5"/>
<ellipse fill="none" stroke="black" cx="720" cy="-100.5" rx="27" ry="18"/>
<text xml:space="preserve" text-anchor="middle" x="720" y="-96.8" font-family="Times,serif" font-size="11.00">(0, 2)</text>
</g>
<!-- nx_28302c203229&#45;&gt;nx_28302c203029 -->
<g id="edge7" class="edge">
<title>nx_28302c203229&#45;&gt;nx_28302c203029</title>
<path fill="none" stroke="#aa77aa" d="M692.65,-101.63C561.14,-102.61 0,-110.93 0,-182 0,-1174 0,-1174 0,-1174 0,-1234.12 206.54,-1249.46 295.27,-1253.27"/>
<polygon fill="#aa77aa" stroke="#aa77aa" points="295.08,-1256.77 305.21,-1253.67 295.36,-1249.78 295.08,-1256.77"/>
<text xml:space="preserve" text-anchor="middle" x="17.25" y="-674.7" font-family="Times,serif" font-size="9.00" fill="#aa77aa"> empty B </text>
</g>
<!-- nx_28302c203229&#45;&gt;nx_28302c203529 -->
<g id="edge8" class="edge">
<title>nx_28302c203229&#45;&gt;nx_28302c203529</title>
<path fill="none" stroke="#ddbb99" d="M692.61,-101.93C568.26,-104.22 63,-117.5 63,-182 63,-1091.5 63,-1091.5 63,-1091.5 63,-1143.13 235.79,-1163.02 314.62,-1169.4"/>
<polygon fill="#ddbb99" stroke="#ddbb99" points="314.23,-1172.88 324.47,-1170.17 314.77,-1165.9 314.23,-1172.88"/>
<text xml:space="preserve" text-anchor="middle" x="74.25" y="-633.45" font-family="Times,serif" font-size="9.00" fill="#ddbb99"> fill B </text>
</g>
<!-- nx_28322c203029 -->
<g id="node9" class="node">
<title>nx_28322c203029</title>
<path fill="#cceecc" stroke="black" stroke-width="0.5" d="M720,-183C720,-183 747,-183 747,-183 747,-183.59 746.96,-184.18 746.87,-184.76 746.78,-185.35 746.65,-185.93 746.48,-186.51 746.31,-187.09 746.09,-187.66 745.84,-188.23 745.58,-188.79 745.28,-189.34 744.94,-189.89 744.61,-190.43 744.23,-190.97 743.81,-191.49 743.4,-192 742.94,-192.51 742.45,-193 741.96,-193.49 741.43,-193.96 740.87,-194.42 740.31,-194.87 739.72,-195.31 739.09,-195.73 738.47,-196.14 737.81,-196.54 737.13,-196.91 736.45,-197.29 735.74,-197.64 735,-197.97 734.27,-198.29 733.51,-198.6 732.73,-198.87 731.95,-199.15 731.15,-199.4 730.33,-199.63 729.52,-199.86 728.68,-200.05 727.84,-200.22 726.99,-200.4 726.13,-200.54 725.27,-200.65 724.4,-200.77 723.53,-200.86 722.65,-200.91 721.77,-200.97 720.88,-201 720,-201 720,-201 720,-183 720,-183"/>
<path fill="#ccddff" stroke="black" stroke-width="0.5" d="M720,-183C720,-183 720,-201 720,-201 719.12,-201 718.23,-200.97 717.35,-200.91 716.47,-200.86 715.6,-200.77 714.73,-200.65 713.87,-200.54 713.01,-200.4 712.16,-200.22 711.32,-200.05 710.48,-199.86 709.67,-199.63 708.85,-199.4 708.05,-199.15 707.27,-198.87 706.49,-198.6 705.73,-198.29 705,-197.97 704.26,-197.64 703.55,-197.29 702.87,-196.91 702.19,-196.54 701.53,-196.14 700.91,-195.73 700.28,-195.31 699.69,-194.87 699.13,-194.42 698.57,-193.96 698.04,-193.49 697.55,-193 697.06,-192.51 696.6,-192 696.19,-191.49 695.77,-190.97 695.39,-190.43 695.06,-189.89 694.72,-189.34 694.42,-188.79 694.16,-188.23 693.91,-187.66 693.69,-187.09 693.52,-186.51 693.35,-185.93 693.22,-185.35 693.13,-184.76 693.04,-184.18 693,-183.59 693,-183 693,-183 720,-183 720,-183"/>
<path fill="#ffddcc" stroke="black" stroke-width="0.5" d="M720,-183C720,-183 693,-183 693,-183 693,-182.41 693.04,-181.82 693.13,-181.24 693.22,-180.65 693.35,-180.07 693.52,-179.49 693.69,-178.91 693.91,-178.34 694.16,-177.77 694.42,-177.21 694.72,-176.66 695.06,-176.11 695.39,-175.57 695.77,-175.03 696.19,-174.51 696.6,-174 697.06,-173.49 697.55,-173 698.04,-172.51 698.57,-172.04 699.13,-171.58 699.69,-171.13 700.28,-170.69 700.91,-170.27 701.53,-169.86 702.19,-169.46 702.87,-169.09 703.55,-168.71 704.26,-168.36 705,-168.03 705.73,-167.71 706.49,-167.4 707.27,-167.13 708.05,-166.85 708.85,-166.6 709.67,-166.37 710.48,-166.14 711.32,-165.95 712.16,-165.78 713.01,-165.6 713.87,-165.46 714.73,-165.35 715.6,-165.23 716.47,-165.14 717.35,-165.09 718.23,-165.03 719.12,-165 720,-165 720,-165 720,-183 720,-183"/>
<path fill="#eeeeaa" stroke="black" stroke-width="0.5" d="M720,-183C720,-183 720,-165 720,-165 720.88,-165 721.77,-165.03 722.65,-165.09 723.53,-165.14 724.4,-165.23 725.27,-165.35 726.13,-165.46 726.99,-165.6 727.84,-165.78 728.68,-165.95 729.52,-166.14 730.33,-166.37 731.15,-166.6 731.95,-166.85 732.73,-167.13 733.51,-167.4 734.27,-167.71 735,-168.03 735.74,-168.36 736.45,-168.71 737.13,-169.09 737.81,-169.46 738.47,-169.86 739.09,-170.27 739.72,-170.69 740.31,-171.13 740.87,-171.58 741.43,-172.04 741.96,-172.51 742.45,-173 742.94,-173.49 743.4,-174 743.81,-174.51 744.23,-175.03 744.61,-175.57 744.94,-176.11 745.28,-176.66 745.58,-177.21 745.84,-177.77 746.09,-178.34 746.31,-178.91 746.48,-179.49 746.65,-180.07 746.78,-180.65 746.87,-181.24 746.96,-181.82 747,-182.41 747,-183 747,-183 720,-183 720,-183"/>
<ellipse fill="none" stroke="black" cx="720" cy="-183" rx="27" ry="18"/>
<text xml:space="preserve" text-anchor="middle" x="720" y="-179.3" font-family="Times,serif" font-size="11.00">(2, 0)</text>
</g>
<!-- nx_28302c203229&#45;&gt;nx_28322c203029 -->
<g id="edge9" class="edge">
<title>nx_28302c203229&#45;&gt;nx_28322c203029</title>
<path fill="none" stroke="#77aaaa" d="M721.19,-118.94C721.52,-124.54 721.84,-130.78 722,-136.5 722.16,-142.04 722.08,-147.95 721.88,-153.62"/>
<polygon fill="#77aaaa" stroke="#77aaaa" points="718.41,-153.05 721.42,-163.21 725.4,-153.39 718.41,-153.05"/>
<text xml:space="preserve" text-anchor="middle" x="734.46" y="-138.45" font-family="Times,serif" font-size="9.00" fill="#77aaaa"> B&#45;&gt;A </text>
</g>
<!-- nx_28332c203229 -->
<g id="node13" class="node">
<title>nx_28332c203229</title>
<path fill="#cceecc" stroke="black" stroke-width="0.5" d="M1036,-18C1036,-18 1063,-18 1063,-18 1063,-18.59 1062.96,-19.18 1062.87,-19.76 1062.78,-20.35 1062.65,-20.93 1062.48,-21.51 1062.31,-22.09 1062.09,-22.66 1061.84,-23.23 1061.58,-23.79 1061.28,-24.34 1060.94,-24.89 1060.61,-25.43 1060.23,-25.97 1059.81,-26.49 1059.4,-27 1058.94,-27.51 1058.45,-28 1057.96,-28.49 1057.43,-28.96 1056.87,-29.42 1056.31,-29.87 1055.72,-30.31 1055.09,-30.73 1054.47,-31.14 1053.81,-31.54 1053.13,-31.91 1052.45,-32.29 1051.74,-32.64 1051,-32.97 1050.27,-33.29 1049.51,-33.6 1048.73,-33.87 1047.95,-34.15 1047.15,-34.4 1046.33,-34.63 1045.52,-34.86 1044.68,-35.05 1043.84,-35.22 1042.99,-35.4 1042.13,-35.54 1041.27,-35.65 1040.4,-35.77 1039.53,-35.86 1038.65,-35.91 1037.77,-35.97 1036.88,-36 1036,-36 1036,-36 1036,-18 1036,-18"/>
<path fill="#eeccee" stroke="black" stroke-width="0.5" d="M1036,-18C1036,-18 1036,-36 1036,-36 1035.12,-36 1034.23,-35.97 1033.35,-35.91 1032.47,-35.86 1031.6,-35.77 1030.73,-35.65 1029.87,-35.54 1029.01,-35.4 1028.16,-35.22 1027.32,-35.05 1026.48,-34.86 1025.67,-34.63 1024.85,-34.4 1024.05,-34.15 1023.27,-33.87 1022.49,-33.6 1021.73,-33.29 1021,-32.97 1020.26,-32.64 1019.55,-32.29 1018.87,-31.91 1018.19,-31.54 1017.53,-31.14 1016.91,-30.73 1016.28,-30.31 1015.69,-29.87 1015.13,-29.42 1014.57,-28.96 1014.04,-28.49 1013.55,-28 1013.06,-27.51 1012.6,-27 1012.19,-26.49 1011.77,-25.97 1011.39,-25.43 1011.06,-24.89 1010.72,-24.34 1010.42,-23.79 1010.16,-23.23 1009.91,-22.66 1009.69,-22.09 1009.52,-21.51 1009.35,-20.93 1009.22,-20.35 1009.13,-19.76 1009.04,-19.18 1009,-18.59 1009,-18 1009,-18 1036,-18 1036,-18"/>
<path fill="#ffddcc" stroke="black" stroke-width="0.5" d="M1036,-18C1036,-18 1009,-18 1009,-18 1009,-17.41 1009.04,-16.82 1009.13,-16.24 1009.22,-15.65 1009.35,-15.07 1009.52,-14.49 1009.69,-13.91 1009.91,-13.34 1010.16,-12.77 1010.42,-12.21 1010.72,-11.66 1011.06,-11.11 1011.39,-10.57 1011.77,-10.03 1012.19,-9.51 1012.6,-9 1013.06,-8.49 1013.55,-8 1014.04,-7.51 1014.57,-7.04 1015.13,-6.58 1015.69,-6.13 1016.28,-5.69 1016.91,-5.27 1017.53,-4.86 1018.19,-4.46 1018.87,-4.09 1019.55,-3.71 1020.26,-3.36 1021,-3.03 1021.73,-2.71 1022.49,-2.4 1023.27,-2.13 1024.05,-1.85 1024.85,-1.6 1025.67,-1.37 1026.48,-1.14 1027.32,-0.95 1028.16,-0.78 1029.01,-0.6 1029.87,-0.46 1030.73,-0.35 1031.6,-0.23 1032.47,-0.14 1033.35,-0.09 1034.23,-0.03 1035.12,0 1036,0 1036,0 1036,-18 1036,-18"/>
<path fill="#eeeeaa" stroke="black" stroke-width="0.5" d="M1036,-18C1036,-18 1036,0 1036,0 1036.88,0 1037.77,-0.03 1038.65,-0.09 1039.53,-0.14 1040.4,-0.23 1041.27,-0.35 1042.13,-0.46 1042.99,-0.6 1043.84,-0.78 1044.68,-0.95 1045.52,-1.14 1046.33,-1.37 1047.15,-1.6 1047.95,-1.85 1048.73,-2.13 1049.51,-2.4 1050.27,-2.71 1051,-3.03 1051.74,-3.36 1052.45,-3.71 1053.13,-4.09 1053.81,-4.46 1054.47,-4.86 1055.09,-5.27 1055.72,-5.69 1056.31,-6.13 1056.87,-6.58 1057.43,-7.04 1057.96,-7.51 1058.45,-8 1058.94,-8.49 1059.4,-9 1059.81,-9.51 1060.23,-10.03 1060.61,-10.57 1060.94,-11.11 1061.28,-11.66 1061.58,-12.21 1061.84,-12.77 1062.09,-13.34 1062.31,-13.91 1062.48,-14.49 1062.65,-15.07 1062.78,-15.65 1062.87,-16.24 1062.96,-16.82 1063,-17.41 1063,-18 1063,-18 1036,-18 1036,-18"/>
<ellipse fill="none" stroke="black" cx="1036" cy="-18" rx="27" ry="18"/>
<text xml:space="preserve" text-anchor="middle" x="1036" y="-14.3" font-family="Times,serif" font-size="11.00">(3, 2)</text>
</g>
<!-- nx_28302c203229&#45;&gt;nx_28332c203229 -->
<g id="edge10" class="edge">
<title>nx_28302c203229&#45;&gt;nx_28332c203229</title>
<path fill="none" stroke="#6688bb" d="M742.78,-90.39C768.57,-80.36 812.02,-64.28 850.5,-54 901.15,-40.47 960.92,-30.19 998.65,-24.37"/>
<polygon fill="#6688bb" stroke="#6688bb" points="998.75,-27.9 1008.11,-22.94 997.7,-20.97 998.75,-27.9"/>
<text xml:space="preserve" text-anchor="middle" x="861.75" y="-55.95" font-family="Times,serif" font-size="9.00" fill="#6688bb"> fill A </text>
</g>
<!-- nx_28302c203329 -->
<g id="node4" class="node">
<title>nx_28302c203329</title>
<path fill="#ccddff" stroke="black" stroke-width="0.5" d="M484,-925.5C484,-925.5 511,-925.5 511,-925.5 511,-926.09 510.96,-926.68 510.87,-927.26 510.78,-927.85 510.65,-928.43 510.48,-929.01 510.31,-929.59 510.09,-930.16 509.84,-930.73 509.58,-931.29 509.28,-931.84 508.94,-932.39 508.61,-932.93 508.23,-933.47 507.81,-933.99 507.4,-934.5 506.94,-935.01 506.45,-935.5 505.96,-935.99 505.43,-936.46 504.87,-936.92 504.31,-937.37 503.72,-937.81 503.09,-938.23 502.47,-938.64 501.81,-939.04 501.13,-939.41 500.45,-939.79 499.74,-940.14 499,-940.47 498.27,-940.79 497.51,-941.1 496.73,-941.37 495.95,-941.65 495.15,-941.9 494.33,-942.13 493.52,-942.36 492.68,-942.55 491.84,-942.72 490.99,-942.9 490.13,-943.04 489.27,-943.15 488.4,-943.27 487.53,-943.36 486.65,-943.41 485.77,-943.47 484.88,-943.5 484,-943.5 484,-943.5 484,-925.5 484,-925.5"/>
<path fill="#eeccee" stroke="black" stroke-width="0.5" d="M484,-925.5C484,-925.5 484,-943.5 484,-943.5 483.12,-943.5 482.23,-943.47 481.35,-943.41 480.47,-943.36 479.6,-943.27 478.73,-943.15 477.87,-943.04 477.01,-942.9 476.16,-942.72 475.32,-942.55 474.48,-942.36 473.67,-942.13 472.85,-941.9 472.05,-941.65 471.27,-941.37 470.49,-941.1 469.73,-940.79 469,-940.47 468.26,-940.14 467.55,-939.79 466.87,-939.41 466.19,-939.04 465.53,-938.64 464.91,-938.23 464.28,-937.81 463.69,-937.37 463.13,-936.92 462.57,-936.46 462.04,-935.99 461.55,-935.5 461.06,-935.01 460.6,-934.5 460.19,-933.99 459.77,-933.47 459.39,-932.93 459.06,-932.39 458.72,-931.84 458.42,-931.29 458.16,-930.73 457.91,-930.16 457.69,-929.59 457.52,-929.01 457.35,-928.43 457.22,-927.85 457.13,-927.26 457.04,-926.68 457,-926.09 457,-925.5 457,-925.5 484,-925.5 484,-925.5"/>
<path fill="#ffddcc" stroke="black" stroke-width="0.5" d="M484,-925.5C484,-925.5 457,-925.5 457,-925.5 457,-924.91 457.04,-924.32 457.13,-923.74 457.22,-923.15 457.35,-922.57 457.52,-921.99 457.69,-921.41 457.91,-920.84 458.16,-920.27 458.42,-919.71 458.72,-919.16 459.06,-918.61 459.39,-918.07 459.77,-917.53 460.19,-917.01 460.6,-916.5 461.06,-915.99 461.55,-915.5 462.04,-915.01 462.57,-914.54 463.13,-914.08 463.69,-913.63 464.28,-913.19 464.91,-912.77 465.53,-912.36 466.19,-911.96 466.87,-911.59 467.55,-911.21 468.26,-910.86 469,-910.53 469.73,-910.21 470.49,-909.9 471.27,-909.63 472.05,-909.35 472.85,-909.1 473.67,-908.87 474.48,-908.64 475.32,-908.45 476.16,-908.28 477.01,-908.1 477.87,-907.96 478.73,-907.85 479.6,-907.73 480.47,-907.64 481.35,-907.59 482.23,-907.53 483.12,-907.5 484,-907.5 484,-907.5 484,-925.5 484,-925.5"/>
<path fill="#cceeee" stroke="black" stroke-width="0.5" d="M484,-925.5C484,-925.5 484,-907.5 484,-907.5 484.88,-907.5 485.77,-907.53 486.65,-907.59 487.53,-907.64 488.4,-907.73 489.27,-907.85 490.13,-907.96 490.99,-908.1 491.84,-908.28 492.68,-908.45 493.52,-908.64 494.33,-908.87 495.15,-909.1 495.95,-909.35 496.73,-909.63 497.51,-909.9 498.27,-910.21 499,-910.53 499.74,-910.86 500.45,-911.21 501.13,-911.59 501.81,-911.96 502.47,-912.36 503.09,-912.77 503.72,-913.19 504.31,-913.63 504.87,-914.08 505.43,-914.54 505.96,-915.01 506.45,-915.5 506.94,-915.99 507.4,-916.5 507.81,-917.01 508.23,-917.53 508.61,-918.07 508.94,-918.61 509.28,-919.16 509.58,-919.71 509.84,-920.27 510.09,-920.84 510.31,-921.41 510.48,-921.99 510.65,-922.57 510.78,-923.15 510.87,-923.74 510.96,-924.32 511,-924.91 511,-925.5 511,-925.5 484,-925.5 484,-925.5"/>
<ellipse fill="none" stroke="black" cx="484" cy="-925.5" rx="27" ry="18"/>
<text xml:space="preserve" text-anchor="middle" x="484" y="-921.8" font-family="Times,serif" font-size="11.00">(0, 3)</text>
</g>
<!-- nx_28302c203329&#45;&gt;nx_28302c203029 -->
<g id="edge11" class="edge">
<title>nx_28302c203329&#45;&gt;nx_28302c203029</title>
<path fill="none" stroke="#aa77aa" d="M485.54,-943.73C488.97,-992.97 492.04,-1136.08 422,-1219.5 409.72,-1234.13 390.43,-1242.7 373.13,-1247.69"/>
<polygon fill="#aa77aa" stroke="#aa77aa" points="372.43,-1244.26 363.61,-1250.11 374.16,-1251.04 372.43,-1244.26"/>
<text xml:space="preserve" text-anchor="middle" x="497.7" y="-1087.2" font-family="Times,serif" font-size="9.00" fill="#aa77aa"> empty B </text>
</g>
<!-- nx_28302c203329&#45;&gt;nx_28302c203529 -->
<g id="edge12" class="edge">
<title>nx_28302c203329&#45;&gt;nx_28302c203529</title>
<path fill="none" stroke="#ddbb99" d="M489.8,-943.44C500.41,-977.66 518.95,-1056.25 486,-1108.5 465.15,-1141.56 421.83,-1157.77 390.28,-1165.48"/>
<polygon fill="#ddbb99" stroke="#ddbb99" points="389.73,-1162.01 380.73,-1167.61 391.25,-1168.84 389.73,-1162.01"/>
<text xml:space="preserve" text-anchor="middle" x="515.62" y="-1045.95" font-family="Times,serif" font-size="9.00" fill="#ddbb99"> fill B </text>
</g>
<!-- nx_28302c203329&#45;&gt;nx_28332c203029 -->
<g id="edge13" class="edge">
<title>nx_28302c203329&#45;&gt;nx_28332c203029</title>
<path fill="none" stroke="#77aaaa" d="M505.51,-936.85C518.85,-943.48 536.2,-952.5 551,-961.5 563.97,-969.38 577.81,-978.9 589.37,-987.2"/>
<polygon fill="#77aaaa" stroke="#77aaaa" points="587.11,-989.88 597.26,-992.92 591.22,-984.21 587.11,-989.88"/>
<text xml:space="preserve" text-anchor="middle" x="578.04" y="-963.45" font-family="Times,serif" font-size="9.00" fill="#77aaaa"> B&#45;&gt;A </text>
</g>
<!-- nx_28332c203329 -->
<g id="node14" class="node">
<title>nx_28332c203329</title>
<path fill="#cceecc" stroke="black" stroke-width="0.5" d="M509,-843C509,-843 536,-843 536,-843 536,-843.59 535.96,-844.18 535.87,-844.76 535.78,-845.35 535.65,-845.93 535.48,-846.51 535.31,-847.09 535.09,-847.66 534.84,-848.23 534.58,-848.79 534.28,-849.34 533.94,-849.89 533.61,-850.43 533.23,-850.97 532.81,-851.49 532.4,-852 531.94,-852.51 531.45,-853 530.96,-853.49 530.43,-853.96 529.87,-854.42 529.31,-854.87 528.72,-855.31 528.09,-855.73 527.47,-856.14 526.81,-856.54 526.13,-856.91 525.45,-857.29 524.74,-857.64 524,-857.97 523.27,-858.29 522.51,-858.6 521.73,-858.87 520.95,-859.15 520.15,-859.4 519.33,-859.63 518.52,-859.86 517.68,-860.05 516.84,-860.22 515.99,-860.4 515.13,-860.54 514.27,-860.65 513.4,-860.77 512.53,-860.86 511.65,-860.91 510.77,-860.97 509.88,-861 509,-861 509,-861 509,-843 509,-843"/>
<path fill="#eeccee" stroke="black" stroke-width="0.5" d="M509,-843C509,-843 509,-861 509,-861 508.12,-861 507.23,-860.97 506.35,-860.91 505.47,-860.86 504.6,-860.77 503.73,-860.65 502.87,-860.54 502.01,-860.4 501.16,-860.22 500.32,-860.05 499.48,-859.86 498.67,-859.63 497.85,-859.4 497.05,-859.15 496.27,-858.87 495.49,-858.6 494.73,-858.29 494,-857.97 493.26,-857.64 492.55,-857.29 491.87,-856.91 491.19,-856.54 490.53,-856.14 489.91,-855.73 489.28,-855.31 488.69,-854.87 488.13,-854.42 487.57,-853.96 487.04,-853.49 486.55,-853 486.06,-852.51 485.6,-852 485.19,-851.49 484.77,-850.97 484.39,-850.43 484.06,-849.89 483.72,-849.34 483.42,-848.79 483.16,-848.23 482.91,-847.66 482.69,-847.09 482.52,-846.51 482.35,-845.93 482.22,-845.35 482.13,-844.76 482.04,-844.18 482,-843.59 482,-843 482,-843 509,-843 509,-843"/>
<path fill="#ffddcc" stroke="black" stroke-width="0.5" d="M509,-843C509,-843 482,-843 482,-843 482,-842.41 482.04,-841.82 482.13,-841.24 482.22,-840.65 482.35,-840.07 482.52,-839.49 482.69,-838.91 482.91,-838.34 483.16,-837.77 483.42,-837.21 483.72,-836.66 484.06,-836.11 484.39,-835.57 484.77,-835.03 485.19,-834.51 485.6,-834 486.06,-833.49 486.55,-833 487.04,-832.51 487.57,-832.04 488.13,-831.58 488.69,-831.13 489.28,-830.69 489.91,-830.27 490.53,-829.86 491.19,-829.46 491.87,-829.09 492.55,-828.71 493.26,-828.36 494,-828.03 494.73,-827.71 495.49,-827.4 496.27,-827.13 497.05,-826.85 497.85,-826.6 498.67,-826.37 499.48,-826.14 500.32,-825.95 501.16,-825.78 502.01,-825.6 502.87,-825.46 503.73,-825.35 504.6,-825.23 505.47,-825.14 506.35,-825.09 507.23,-825.03 508.12,-825 509,-825 509,-825 509,-843 509,-843"/>
<path fill="#eeeeaa" stroke="black" stroke-width="0.5" d="M509,-843C509,-843 509,-825 509,-825 509.88,-825 510.77,-825.03 511.65,-825.09 512.53,-825.14 513.4,-825.23 514.27,-825.35 515.13,-825.46 515.99,-825.6 516.84,-825.78 517.68,-825.95 518.52,-826.14 519.33,-826.37 520.15,-826.6 520.95,-826.85 521.73,-827.13 522.51,-827.4 523.27,-827.71 524,-828.03 524.74,-828.36 525.45,-828.71 526.13,-829.09 526.81,-829.46 527.47,-829.86 528.09,-830.27 528.72,-830.69 529.31,-831.13 529.87,-831.58 530.43,-832.04 530.96,-832.51 531.45,-833 531.94,-833.49 532.4,-834 532.81,-834.51 533.23,-835.03 533.61,-835.57 533.94,-836.11 534.28,-836.66 534.58,-837.21 534.84,-837.77 535.09,-838.34 535.31,-838.91 535.48,-839.49 535.65,-840.07 535.78,-840.65 535.87,-841.24 535.96,-841.82 536,-842.41 536,-843 536,-843 509,-843 509,-843"/>
<ellipse fill="none" stroke="black" cx="509" cy="-843" rx="27" ry="18"/>
<text xml:space="preserve" text-anchor="middle" x="509" y="-839.3" font-family="Times,serif" font-size="11.00">(3, 3)</text>
</g>
<!-- nx_28302c203329&#45;&gt;nx_28332c203329 -->
<g id="edge14" class="edge">
<title>nx_28302c203329&#45;&gt;nx_28332c203329</title>
<path fill="none" stroke="#6688bb" d="M465.98,-911.79C455.71,-902.9 446.05,-890.58 452.5,-879 457.6,-869.84 466.19,-862.78 475.16,-857.48"/>
<polygon fill="#6688bb" stroke="#6688bb" points="476.67,-860.63 483.93,-852.91 473.44,-854.42 476.67,-860.63"/>
<text xml:space="preserve" text-anchor="middle" x="463.75" y="-880.95" font-family="Times,serif" font-size="9.00" fill="#6688bb"> fill A </text>
</g>
<!-- nx_28302c203429 -->
<g id="node5" class="node">
<title>nx_28302c203429</title>
<path fill="#ccddff" stroke="black" stroke-width="0.5" d="M628,-430.5C628,-430.5 655,-430.5 655,-430.5 655,-431.09 654.96,-431.68 654.87,-432.26 654.78,-432.85 654.65,-433.43 654.48,-434.01 654.31,-434.59 654.09,-435.16 653.84,-435.73 653.58,-436.29 653.28,-436.84 652.94,-437.39 652.61,-437.93 652.23,-438.47 651.81,-438.99 651.4,-439.5 650.94,-440.01 650.45,-440.5 649.96,-440.99 649.43,-441.46 648.87,-441.92 648.31,-442.37 647.72,-442.81 647.09,-443.23 646.47,-443.64 645.81,-444.04 645.13,-444.41 644.45,-444.79 643.74,-445.14 643,-445.47 642.27,-445.79 641.51,-446.1 640.73,-446.37 639.95,-446.65 639.15,-446.9 638.33,-447.13 637.52,-447.36 636.68,-447.55 635.84,-447.72 634.99,-447.9 634.13,-448.04 633.27,-448.15 632.4,-448.27 631.53,-448.36 630.65,-448.41 629.77,-448.47 628.88,-448.5 628,-448.5 628,-448.5 628,-430.5 628,-430.5"/>
<path fill="#eeccee" stroke="black" stroke-width="0.5" d="M628,-430.5C628,-430.5 628,-448.5 628,-448.5 627.12,-448.5 626.23,-448.47 625.35,-448.41 624.47,-448.36 623.6,-448.27 622.73,-448.15 621.87,-448.04 621.01,-447.9 620.16,-447.72 619.32,-447.55 618.48,-447.36 617.67,-447.13 616.85,-446.9 616.05,-446.65 615.27,-446.37 614.49,-446.1 613.73,-445.79 613,-445.47 612.26,-445.14 611.55,-444.79 610.87,-444.41 610.19,-444.04 609.53,-443.64 608.91,-443.23 608.28,-442.81 607.69,-442.37 607.13,-441.92 606.57,-441.46 606.04,-440.99 605.55,-440.5 605.06,-440.01 604.6,-439.5 604.19,-438.99 603.77,-438.47 603.39,-437.93 603.06,-437.39 602.72,-436.84 602.42,-436.29 602.16,-435.73 601.91,-435.16 601.69,-434.59 601.52,-434.01 601.35,-433.43 601.22,-432.85 601.13,-432.26 601.04,-431.68 601,-431.09 601,-430.5 601,-430.5 628,-430.5 628,-430.5"/>
<path fill="#ffddcc" stroke="black" stroke-width="0.5" d="M628,-430.5C628,-430.5 601,-430.5 601,-430.5 601,-429.91 601.04,-429.32 601.13,-428.74 601.22,-428.15 601.35,-427.57 601.52,-426.99 601.69,-426.41 601.91,-425.84 602.16,-425.27 602.42,-424.71 602.72,-424.16 603.06,-423.61 603.39,-423.07 603.77,-422.53 604.19,-422.01 604.6,-421.5 605.06,-420.99 605.55,-420.5 606.04,-420.01 606.57,-419.54 607.13,-419.08 607.69,-418.63 608.28,-418.19 608.91,-417.77 609.53,-417.36 610.19,-416.96 610.87,-416.59 611.55,-416.21 612.26,-415.86 613,-415.53 613.73,-415.21 614.49,-414.9 615.27,-414.63 616.05,-414.35 616.85,-414.1 617.67,-413.87 618.48,-413.64 619.32,-413.45 620.16,-413.28 621.01,-413.1 621.87,-412.96 622.73,-412.85 623.6,-412.73 624.47,-412.64 625.35,-412.59 626.23,-412.53 627.12,-412.5 628,-412.5 628,-412.5 628,-430.5 628,-430.5"/>
<path fill="#cceeee" stroke="black" stroke-width="0.5" d="M628,-430.5C628,-430.5 628,-412.5 628,-412.5 628.88,-412.5 629.77,-412.53 630.65,-412.59 631.53,-412.64 632.4,-412.73 633.27,-412.85 634.13,-412.96 634.99,-413.1 635.84,-413.28 636.68,-413.45 637.52,-413.64 638.33,-413.87 639.15,-414.1 639.95,-414.35 640.73,-414.63 641.51,-414.9 642.27,-415.21 643,-415.53 643.74,-415.86 644.45,-416.21 645.13,-416.59 645.81,-416.96 646.47,-417.36 647.09,-417.77 647.72,-418.19 648.31,-418.63 648.87,-419.08 649.43,-419.54 649.96,-420.01 650.45,-420.5 650.94,-420.99 651.4,-421.5 651.81,-422.01 652.23,-422.53 652.61,-423.07 652.94,-423.61 653.28,-424.16 653.58,-424.71 653.84,-425.27 654.09,-425.84 654.31,-426.41 654.48,-426.99 654.65,-427.57 654.78,-428.15 654.87,-428.74 654.96,-429.32 655,-429.91 655,-430.5 655,-430.5 628,-430.5 628,-430.5"/>
<ellipse fill="none" stroke="black" cx="628" cy="-430.5" rx="27" ry="18"/>
<text xml:space="preserve" text-anchor="middle" x="628" y="-426.8" font-family="Times,serif" font-size="11.00">(0, 4)</text>
</g>
<!-- nx_28302c203429&#45;&gt;nx_28302c203029 -->
<g id="edge15" class="edge">
<title>nx_28302c203429&#45;&gt;nx_28302c203029</title>
<path fill="none" stroke="#aa77aa" d="M600.51,-430.92C507.29,-429.69 209,-432 209,-512 209,-679 209,-679 209,-679 209,-769.99 195,-792.26 195,-883.25 195,-1174 195,-1174 195,-1174 195,-1220.9 254.77,-1240.88 296.21,-1249.09"/>
<polygon fill="#aa77aa" stroke="#aa77aa" points="295.39,-1252.5 305.85,-1250.84 296.64,-1245.61 295.39,-1252.5"/>
<text xml:space="preserve" text-anchor="middle" x="214.37" y="-839.7" font-family="Times,serif" font-size="9.00" fill="#aa77aa"> empty B </text>
</g>
<!-- nx_28302c203429&#45;&gt;nx_28302c203529 -->
<g id="edge16" class="edge">
<title>nx_28302c203429&#45;&gt;nx_28302c203529</title>
<path fill="none" stroke="#ddbb99" d="M600.79,-431.62C515.35,-432.71 258,-441.82 258,-512 258,-802.75 258,-802.75 258,-802.75 258,-876.04 233,-892.46 233,-965.75 233,-1091.5 233,-1091.5 233,-1091.5 233,-1132.13 281.04,-1153.57 316.32,-1163.84"/>
<polygon fill="#ddbb99" stroke="#ddbb99" points="315.23,-1167.17 325.8,-1166.4 317.05,-1160.41 315.23,-1167.17"/>
<text xml:space="preserve" text-anchor="middle" x="269.25" y="-798.45" font-family="Times,serif" font-size="9.00" fill="#ddbb99"> fill B </text>
</g>
<!-- nx_28302c203429&#45;&gt;nx_28332c203129 -->
<g id="edge17" class="edge">
<title>nx_28302c203429&#45;&gt;nx_28332c203129</title>
<path fill="none" stroke="#77aaaa" d="M629.12,-448.94C629.44,-454.55 629.77,-460.78 630,-466.5 630.22,-472.03 630.39,-477.94 630.53,-483.61"/>
<polygon fill="#77aaaa" stroke="#77aaaa" points="627.02,-483.27 630.73,-493.2 634.02,-483.13 627.02,-483.27"/>
<text xml:space="preserve" text-anchor="middle" x="642.71" y="-468.45" font-family="Times,serif" font-size="9.00" fill="#77aaaa"> B&#45;&gt;A </text>
</g>
<!-- nx_28332c203429 -->
<g id="node15" class="node">
<title>nx_28332c203429</title>
<path fill="#cceecc" stroke="black" stroke-width="0.5" d="M739,-348C739,-348 766,-348 766,-348 766,-348.59 765.96,-349.18 765.87,-349.76 765.78,-350.35 765.65,-350.93 765.48,-351.51 765.31,-352.09 765.09,-352.66 764.84,-353.23 764.58,-353.79 764.28,-354.34 763.94,-354.89 763.61,-355.43 763.23,-355.97 762.81,-356.49 762.4,-357 761.94,-357.51 761.45,-358 760.96,-358.49 760.43,-358.96 759.87,-359.42 759.31,-359.87 758.72,-360.31 758.09,-360.73 757.47,-361.14 756.81,-361.54 756.13,-361.91 755.45,-362.29 754.74,-362.64 754,-362.97 753.27,-363.29 752.51,-363.6 751.73,-363.87 750.95,-364.15 750.15,-364.4 749.33,-364.63 748.52,-364.86 747.68,-365.05 746.84,-365.22 745.99,-365.4 745.13,-365.54 744.27,-365.65 743.4,-365.77 742.53,-365.86 741.65,-365.91 740.77,-365.97 739.88,-366 739,-366 739,-366 739,-348 739,-348"/>
<path fill="#eeccee" stroke="black" stroke-width="0.5" d="M739,-348C739,-348 739,-366 739,-366 738.12,-366 737.23,-365.97 736.35,-365.91 735.47,-365.86 734.6,-365.77 733.73,-365.65 732.87,-365.54 732.01,-365.4 731.16,-365.22 730.32,-365.05 729.48,-364.86 728.67,-364.63 727.85,-364.4 727.05,-364.15 726.27,-363.87 725.49,-363.6 724.73,-363.29 724,-362.97 723.26,-362.64 722.55,-362.29 721.87,-361.91 721.19,-361.54 720.53,-361.14 719.91,-360.73 719.28,-360.31 718.69,-359.87 718.13,-359.42 717.57,-358.96 717.04,-358.49 716.55,-358 716.06,-357.51 715.6,-357 715.19,-356.49 714.77,-355.97 714.39,-355.43 714.06,-354.89 713.72,-354.34 713.42,-353.79 713.16,-353.23 712.91,-352.66 712.69,-352.09 712.52,-351.51 712.35,-350.93 712.22,-350.35 712.13,-349.76 712.04,-349.18 712,-348.59 712,-348 712,-348 739,-348 739,-348"/>
<path fill="#ffddcc" stroke="black" stroke-width="0.5" d="M739,-348C739,-348 712,-348 712,-348 712,-347.41 712.04,-346.82 712.13,-346.24 712.22,-345.65 712.35,-345.07 712.52,-344.49 712.69,-343.91 712.91,-343.34 713.16,-342.77 713.42,-342.21 713.72,-341.66 714.06,-341.11 714.39,-340.57 714.77,-340.03 715.19,-339.51 715.6,-339 716.06,-338.49 716.55,-338 717.04,-337.51 717.57,-337.04 718.13,-336.58 718.69,-336.13 719.28,-335.69 719.91,-335.27 720.53,-334.86 721.19,-334.46 721.87,-334.09 722.55,-333.71 723.26,-333.36 724,-333.03 724.73,-332.71 725.49,-332.4 726.27,-332.13 727.05,-331.85 727.85,-331.6 728.67,-331.37 729.48,-331.14 730.32,-330.95 731.16,-330.78 732.01,-330.6 732.87,-330.46 733.73,-330.35 734.6,-330.23 735.47,-330.14 736.35,-330.09 737.23,-330.03 738.12,-330 739,-330 739,-330 739,-348 739,-348"/>
<path fill="#eeeeaa" stroke="black" stroke-width="0.5" d="M739,-348C739,-348 739,-330 739,-330 739.88,-330 740.77,-330.03 741.65,-330.09 742.53,-330.14 743.4,-330.23 744.27,-330.35 745.13,-330.46 745.99,-330.6 746.84,-330.78 747.68,-330.95 748.52,-331.14 749.33,-331.37 750.15,-331.6 750.95,-331.85 751.73,-332.13 752.51,-332.4 753.27,-332.71 754,-333.03 754.74,-333.36 755.45,-333.71 756.13,-334.09 756.81,-334.46 757.47,-334.86 758.09,-335.27 758.72,-335.69 759.31,-336.13 759.87,-336.58 760.43,-337.04 760.96,-337.51 761.45,-338 761.94,-338.49 762.4,-339 762.81,-339.51 763.23,-340.03 763.61,-340.57 763.94,-341.11 764.28,-341.66 764.58,-342.21 764.84,-342.77 765.09,-343.34 765.31,-343.91 765.48,-344.49 765.65,-345.07 765.78,-345.65 765.87,-346.24 765.96,-346.82 766,-347.41 766,-348 766,-348 739,-348 739,-348"/>
<ellipse fill="none" stroke="black" cx="739" cy="-348" rx="27" ry="18"/>
<text xml:space="preserve" text-anchor="middle" x="739" y="-344.3" font-family="Times,serif" font-size="11.00">(3, 4)</text>
</g>
<!-- nx_28302c203429&#45;&gt;nx_28332c203429 -->
<g id="edge18" class="edge">
<title>nx_28302c203429&#45;&gt;nx_28332c203429</title>
<path fill="none" stroke="#6688bb" d="M635.99,-413.04C641.29,-403.53 649.01,-391.92 658.5,-384 671.59,-373.08 688.61,-365.02 703.62,-359.41"/>
<polygon fill="#6688bb" stroke="#6688bb" points="704.4,-362.84 712.69,-356.25 702.1,-356.24 704.4,-362.84"/>
<text xml:space="preserve" text-anchor="middle" x="669.75" y="-385.95" font-family="Times,serif" font-size="9.00" fill="#6688bb"> fill A </text>
</g>
<!-- nx_28302c203529&#45;&gt;nx_28302c203029 -->
<g id="edge19" class="edge">
<title>nx_28302c203529&#45;&gt;nx_28302c203029</title>
<path fill="none" stroke="#aa77aa" d="M349.18,-1191.09C346.95,-1201.04 344.09,-1213.84 341.52,-1225.33"/>
<polygon fill="#aa77aa" stroke="#aa77aa" points="338.18,-1224.23 339.41,-1234.76 345.01,-1225.76 338.18,-1224.23"/>
<text xml:space="preserve" text-anchor="middle" x="362.33" y="-1210.95" font-family="Times,serif" font-size="9.00" fill="#aa77aa"> empty B </text>
</g>
<!-- nx_28302c203529&#45;&gt;nx_28332c203229 -->
<g id="edge20" class="edge">
<title>nx_28302c203529&#45;&gt;nx_28332c203229</title>
<path fill="none" stroke="#77aaaa" d="M380.23,-1171.56C503.81,-1169.19 1006,-1155.61 1006,-1091.5 1006,-1091.5 1006,-1091.5 1006,-99.5 1006,-80.35 1013.54,-60.17 1021.07,-44.8"/>
<polygon fill="#77aaaa" stroke="#77aaaa" points="1023.96,-46.83 1025.48,-36.34 1017.75,-43.59 1023.96,-46.83"/>
<text xml:space="preserve" text-anchor="middle" x="1018.38" y="-592.2" font-family="Times,serif" font-size="9.00" fill="#77aaaa"> B&#45;&gt;A </text>
</g>
<!-- nx_28332c203529 -->
<g id="node16" class="node">
<title>nx_28332c203529</title>
<path fill="#cceecc" stroke="black" stroke-width="0.5" d="M723,-1090.5C723,-1090.5 750,-1090.5 750,-1090.5 750,-1091.09 749.96,-1091.68 749.87,-1092.26 749.78,-1092.85 749.65,-1093.43 749.48,-1094.01 749.31,-1094.59 749.09,-1095.16 748.84,-1095.73 748.58,-1096.29 748.28,-1096.84 747.94,-1097.39 747.61,-1097.93 747.23,-1098.47 746.81,-1098.99 746.4,-1099.5 745.94,-1100.01 745.45,-1100.5 744.96,-1100.99 744.43,-1101.46 743.87,-1101.92 743.31,-1102.37 742.72,-1102.81 742.09,-1103.23 741.47,-1103.64 740.81,-1104.04 740.13,-1104.41 739.45,-1104.79 738.74,-1105.14 738,-1105.47 737.27,-1105.79 736.51,-1106.1 735.73,-1106.37 734.95,-1106.65 734.15,-1106.9 733.33,-1107.13 732.52,-1107.36 731.68,-1107.55 730.84,-1107.72 729.99,-1107.9 729.13,-1108.04 728.27,-1108.15 727.4,-1108.27 726.53,-1108.36 725.65,-1108.41 724.77,-1108.47 723.88,-1108.5 723,-1108.5 722.12,-1108.5 721.23,-1108.47 720.35,-1108.41 719.47,-1108.36 718.6,-1108.27 717.73,-1108.15 716.87,-1108.04 716.01,-1107.9 715.16,-1107.72 714.32,-1107.55 713.48,-1107.36 712.67,-1107.13 711.85,-1106.9 711.05,-1106.65 710.27,-1106.37 709.49,-1106.1 708.73,-1105.79 708,-1105.47 707.26,-1105.14 706.55,-1104.79 705.87,-1104.41 705.19,-1104.04 704.53,-1103.64 703.91,-1103.23 703.28,-1102.81 702.69,-1102.37 702.13,-1101.92 701.57,-1101.46 701.04,-1100.99 700.55,-1100.5 700.06,-1100.01 699.6,-1099.5 699.19,-1098.99 698.77,-1098.47 698.39,-1097.93 698.06,-1097.39 697.72,-1096.84 697.42,-1096.29 697.16,-1095.73 696.91,-1095.16 696.69,-1094.59 696.52,-1094.01 696.35,-1093.43 696.22,-1092.85 696.13,-1092.26 696.04,-1091.68 696,-1091.09 696,-1090.5 696,-1090.5 723,-1090.5 723,-1090.5"/>
<path fill="#eeccee" stroke="black" stroke-width="0.5" d="M723,-1090.5C723,-1090.5 696,-1090.5 696,-1090.5 696,-1089.91 696.04,-1089.32 696.13,-1088.74 696.22,-1088.15 696.35,-1087.57 696.52,-1086.99 696.69,-1086.41 696.91,-1085.84 697.16,-1085.27 697.42,-1084.71 697.72,-1084.16 698.06,-1083.61 698.39,-1083.07 698.77,-1082.53 699.19,-1082.01 699.6,-1081.5 700.06,-1080.99 700.55,-1080.5 701.04,-1080.01 701.57,-1079.54 702.13,-1079.08 702.69,-1078.63 703.28,-1078.19 703.91,-1077.77 704.53,-1077.36 705.19,-1076.96 705.87,-1076.59 706.55,-1076.21 707.26,-1075.86 708,-1075.53 708.73,-1075.21 709.49,-1074.9 710.27,-1074.63 711.05,-1074.35 711.85,-1074.1 712.67,-1073.87 713.48,-1073.64 714.32,-1073.45 715.16,-1073.28 716.01,-1073.1 716.87,-1072.96 717.73,-1072.85 718.6,-1072.73 719.47,-1072.64 720.35,-1072.59 721.23,-1072.53 722.12,-1072.5 723,-1072.5 723.88,-1072.5 724.77,-1072.53 725.65,-1072.59 726.53,-1072.64 727.4,-1072.73 728.27,-1072.85 729.13,-1072.96 729.99,-1073.1 730.84,-1073.28 731.68,-1073.45 732.52,-1073.64 733.33,-1073.87 734.15,-1074.1 734.95,-1074.35 735.73,-1074.63 736.51,-1074.9 737.27,-1075.21 738,-1075.53 738.74,-1075.86 739.45,-1076.21 740.13,-1076.59 740.81,-1076.96 741.47,-1077.36 742.09,-1077.77 742.72,-1078.19 743.31,-1078.63 743.87,-1079.08 744.43,-1079.54 744.96,-1080.01 745.45,-1080.5 745.94,-1080.99 746.4,-1081.5 746.81,-1082.01 747.23,-1082.53 747.61,-1083.07 747.94,-1083.61 748.28,-1084.16 748.58,-1084.71 748.84,-1085.27 749.09,-1085.84 749.31,-1086.41 749.48,-1086.99 749.65,-1087.57 749.78,-1088.15 749.87,-1088.74 749.96,-1089.32 750,-1089.91 750,-1090.5 750,-1090.5 723,-1090.5 723,-1090.5"/>
<ellipse fill="none" stroke="black" cx="723" cy="-1090.5" rx="27" ry="18"/>
<text xml:space="preserve" text-anchor="middle" x="723" y="-1086.8" font-family="Times,serif" font-size="11.00">(3, 5)</text>
</g>
<!-- nx_28302c203529&#45;&gt;nx_28332c203529 -->
<g id="edge21" class="edge">
<title>nx_28302c203529&#45;&gt;nx_28332c203529</title>
<path fill="none" stroke="#6688bb" d="M380.13,-1171.4C430.14,-1169.68 539.83,-1162.99 628,-1137 650.87,-1130.26 675.1,-1118.58 693.36,-1108.74"/>
<polygon fill="#6688bb" stroke="#6688bb" points="694.98,-1111.84 702.04,-1103.94 691.59,-1105.72 694.98,-1111.84"/>
<text xml:space="preserve" text-anchor="middle" x="666.37" y="-1128.45" font-family="Times,serif" font-size="9.00" fill="#6688bb"> fill A </text>
</g>
<!-- nx_28312c203029&#45;&gt;nx_28302c203029 -->
<g id="edge22" class="edge">
<title>nx_28312c203029&#45;&gt;nx_28302c203029</title>
<path fill="none" stroke="#77aa77" d="M472.4,-684.42C437.69,-693.44 380,-715.11 380,-759.5 380,-885.25 380,-885.25 380,-885.25 380,-919.52 371.06,-927.32 368.5,-961.5 360.84,-1063.62 397.88,-1088.98 389,-1191 387.88,-1203.81 390.85,-1208.62 384,-1219.5 379.59,-1226.49 373.24,-1232.51 366.55,-1237.48"/>
<polygon fill="#77aa77" stroke="#77aa77" points="365.02,-1234.29 358.65,-1242.76 368.91,-1240.11 365.02,-1234.29"/>
<text xml:space="preserve" text-anchor="middle" x="385.75" y="-963.45" font-family="Times,serif" font-size="9.00" fill="#77aa77"> empty A </text>
</g>
<!-- nx_28312c203029&#45;&gt;nx_28302c203129 -->
<g id="edge23" class="edge">
<title>nx_28312c203029&#45;&gt;nx_28302c203129</title>
<path fill="none" stroke="#aaaa66" d="M480.12,-664C473.51,-658.12 466.77,-650.55 463.25,-642 460.19,-634.57 462.28,-626.78 466.3,-619.79"/>
<polygon fill="#aaaa66" stroke="#aaaa66" points="468.84,-622.27 471.8,-612.09 463.14,-618.2 468.84,-622.27"/>
<text xml:space="preserve" text-anchor="middle" x="475.62" y="-633.45" font-family="Times,serif" font-size="9.00" fill="#aaaa66"> A&#45;&gt;B </text>
</g>
<!-- nx_28312c203529 -->
<g id="node8" class="node">
<title>nx_28312c203529</title>
<path fill="#cceecc" stroke="black" stroke-width="0.5" d="M498,-760.5C498,-760.5 525,-760.5 525,-760.5 525,-761.09 524.96,-761.68 524.87,-762.26 524.78,-762.85 524.65,-763.43 524.48,-764.01 524.31,-764.59 524.09,-765.16 523.84,-765.73 523.58,-766.29 523.28,-766.84 522.94,-767.39 522.61,-767.93 522.23,-768.47 521.81,-768.99 521.4,-769.5 520.94,-770.01 520.45,-770.5 519.96,-770.99 519.43,-771.46 518.87,-771.92 518.31,-772.37 517.72,-772.81 517.09,-773.23 516.47,-773.64 515.81,-774.04 515.13,-774.41 514.45,-774.79 513.74,-775.14 513,-775.47 512.27,-775.79 511.51,-776.1 510.73,-776.37 509.95,-776.65 509.15,-776.9 508.33,-777.13 507.52,-777.36 506.68,-777.55 505.84,-777.72 504.99,-777.9 504.13,-778.04 503.27,-778.15 502.4,-778.27 501.53,-778.36 500.65,-778.41 499.77,-778.47 498.88,-778.5 498,-778.5 498,-778.5 498,-760.5 498,-760.5"/>
<path fill="#ccddff" stroke="black" stroke-width="0.5" d="M498,-760.5C498,-760.5 498,-778.5 498,-778.5 497.12,-778.5 496.23,-778.47 495.35,-778.41 494.47,-778.36 493.6,-778.27 492.73,-778.15 491.87,-778.04 491.01,-777.9 490.16,-777.72 489.32,-777.55 488.48,-777.36 487.67,-777.13 486.85,-776.9 486.05,-776.65 485.27,-776.37 484.49,-776.1 483.73,-775.79 483,-775.47 482.26,-775.14 481.55,-774.79 480.87,-774.41 480.19,-774.04 479.53,-773.64 478.91,-773.23 478.28,-772.81 477.69,-772.37 477.13,-771.92 476.57,-771.46 476.04,-770.99 475.55,-770.5 475.06,-770.01 474.6,-769.5 474.19,-768.99 473.77,-768.47 473.39,-767.93 473.06,-767.39 472.72,-766.84 472.42,-766.29 472.16,-765.73 471.91,-765.16 471.69,-764.59 471.52,-764.01 471.35,-763.43 471.22,-762.85 471.13,-762.26 471.04,-761.68 471,-761.09 471,-760.5 471,-760.5 498,-760.5 498,-760.5"/>
<path fill="#eeccee" stroke="black" stroke-width="0.5" d="M498,-760.5C498,-760.5 471,-760.5 471,-760.5 471,-759.91 471.04,-759.32 471.13,-758.74 471.22,-758.15 471.35,-757.57 471.52,-756.99 471.69,-756.41 471.91,-755.84 472.16,-755.27 472.42,-754.71 472.72,-754.16 473.06,-753.61 473.39,-753.07 473.77,-752.53 474.19,-752.01 474.6,-751.5 475.06,-750.99 475.55,-750.5 476.04,-750.01 476.57,-749.54 477.13,-749.08 477.69,-748.63 478.28,-748.19 478.91,-747.77 479.53,-747.36 480.19,-746.96 480.87,-746.59 481.55,-746.21 482.26,-745.86 483,-745.53 483.73,-745.21 484.49,-744.9 485.27,-744.63 486.05,-744.35 486.85,-744.1 487.67,-743.87 488.48,-743.64 489.32,-743.45 490.16,-743.28 491.01,-743.1 491.87,-742.96 492.73,-742.85 493.6,-742.73 494.47,-742.64 495.35,-742.59 496.23,-742.53 497.12,-742.5 498,-742.5 498,-742.5 498,-760.5 498,-760.5"/>
<path fill="#cceeee" stroke="black" stroke-width="0.5" d="M498,-760.5C498,-760.5 498,-742.5 498,-742.5 498.88,-742.5 499.77,-742.53 500.65,-742.59 501.53,-742.64 502.4,-742.73 503.27,-742.85 504.13,-742.96 504.99,-743.1 505.84,-743.28 506.68,-743.45 507.52,-743.64 508.33,-743.87 509.15,-744.1 509.95,-744.35 510.73,-744.63 511.51,-744.9 512.27,-745.21 513,-745.53 513.74,-745.86 514.45,-746.21 515.13,-746.59 515.81,-746.96 516.47,-747.36 517.09,-747.77 517.72,-748.19 518.31,-748.63 518.87,-749.08 519.43,-749.54 519.96,-750.01 520.45,-750.5 520.94,-750.99 521.4,-751.5 521.81,-752.01 522.23,-752.53 522.61,-753.07 522.94,-753.61 523.28,-754.16 523.58,-754.71 523.84,-755.27 524.09,-755.84 524.31,-756.41 524.48,-756.99 524.65,-757.57 524.78,-758.15 524.87,-758.74 524.96,-759.32 525,-759.91 525,-760.5 525,-760.5 498,-760.5 498,-760.5"/>
<ellipse fill="none" stroke="black" cx="498" cy="-760.5" rx="27" ry="18"/>
<text xml:space="preserve" text-anchor="middle" x="498" y="-756.8" font-family="Times,serif" font-size="11.00">(1, 5)</text>
</g>
<!-- nx_28312c203029&#45;&gt;nx_28312c203529 -->
<g id="edge24" class="edge">
<title>nx_28312c203029&#45;&gt;nx_28312c203529</title>
<path fill="none" stroke="#ddbb99" d="M502.1,-695.99C503.28,-701.68 504.41,-708.08 505,-714 505.56,-719.67 505.27,-725.7 504.55,-731.47"/>
<polygon fill="#ddbb99" stroke="#ddbb99" points="501.12,-730.76 502.88,-741.21 508.02,-731.94 501.12,-730.76"/>
<text xml:space="preserve" text-anchor="middle" x="516.54" y="-715.95" font-family="Times,serif" font-size="9.00" fill="#ddbb99"> fill B </text>
</g>
<!-- nx_28312c203029&#45;&gt;nx_28332c203029 -->
<g id="edge25" class="edge">
<title>nx_28312c203029&#45;&gt;nx_28332c203029</title>
<path fill="none" stroke="#6688bb" d="M520.51,-688.36C556.64,-704.64 627.05,-741.73 662,-796.5 697.51,-852.13 695.09,-878.62 683,-943.5 680.51,-956.85 680.65,-961.53 672,-972 665.55,-979.82 656.87,-986.41 648.28,-991.69"/>
<polygon fill="#6688bb" stroke="#6688bb" points="646.68,-988.57 639.69,-996.54 650.12,-994.67 646.68,-988.57"/>
<text xml:space="preserve" text-anchor="middle" x="700.78" y="-839.7" font-family="Times,serif" font-size="9.00" fill="#6688bb"> fill A </text>
</g>
<!-- nx_28312c203529&#45;&gt;nx_28302c203529 -->
<g id="edge26" class="edge">
<title>nx_28312c203529&#45;&gt;nx_28302c203529</title>
<path fill="none" stroke="#77aa77" d="M483.6,-776.23C478.42,-782.15 472.9,-789.28 469,-796.5 435.26,-858.88 379.83,-1067.55 360.18,-1143.8"/>
<polygon fill="#77aa77" stroke="#77aa77" points="356.81,-1142.83 357.72,-1153.39 363.59,-1144.57 356.81,-1142.83"/>
<text xml:space="preserve" text-anchor="middle" x="427.47" y="-963.45" font-family="Times,serif" font-size="9.00" fill="#77aa77"> empty A </text>
</g>
<!-- nx_28312c203529&#45;&gt;nx_28312c203029 -->
<g id="edge27" class="edge">
<title>nx_28312c203529&#45;&gt;nx_28312c203029</title>
<path fill="none" stroke="#aa77aa" d="M480.21,-746.54C470.73,-737.92 461.89,-726.02 466.5,-714 468.25,-709.45 470.89,-705.12 473.91,-701.16"/>
<polygon fill="#aa77aa" stroke="#aa77aa" points="476.44,-703.58 480.43,-693.77 471.19,-698.96 476.44,-703.58"/>
<text xml:space="preserve" text-anchor="middle" x="483.75" y="-715.95" font-family="Times,serif" font-size="9.00" fill="#aa77aa"> empty B </text>
</g>
<!-- nx_28312c203529&#45;&gt;nx_28332c203329 -->
<g id="edge28" class="edge">
<title>nx_28312c203529&#45;&gt;nx_28332c203329</title>
<path fill="none" stroke="#77aaaa" d="M500.37,-778.82C501.75,-788.94 503.53,-801.96 505.11,-813.55"/>
<polygon fill="#77aaaa" stroke="#77aaaa" points="501.64,-813.99 506.46,-823.43 508.58,-813.05 501.64,-813.99"/>
<text xml:space="preserve" text-anchor="middle" x="516.53" y="-798.45" font-family="Times,serif" font-size="9.00" fill="#77aaaa"> B&#45;&gt;A </text>
</g>
<!-- nx_28312c203529&#45;&gt;nx_28332c203529 -->
<g id="edge29" class="edge">
<title>nx_28312c203529&#45;&gt;nx_28332c203529</title>
<path fill="none" stroke="#6688bb" d="M512.87,-775.94C544.69,-807.42 620.53,-885.51 670,-961.5 692.34,-995.81 696.59,-1005.67 711,-1044 713.1,-1049.59 714.98,-1055.7 716.6,-1061.58"/>
<polygon fill="#6688bb" stroke="#6688bb" points="713.12,-1062.1 718.98,-1070.92 719.9,-1060.37 713.12,-1062.1"/>
<text xml:space="preserve" text-anchor="middle" x="668.32" y="-922.2" font-family="Times,serif" font-size="9.00" fill="#6688bb"> fill A </text>
</g>
<!-- nx_28322c203029&#45;&gt;nx_28302c203029 -->
<g id="edge30" class="edge">
<title>nx_28322c203029&#45;&gt;nx_28302c203029</title>
<path fill="none" stroke="#77aa77" d="M693,-184.62C573.86,-187.73 101,-203.88 101,-264.5 101,-1174 101,-1174 101,-1174 101,-1214.83 230.02,-1239.41 296.45,-1249.36"/>
<polygon fill="#77aa77" stroke="#77aa77" points="295.8,-1252.8 306.2,-1250.78 296.81,-1245.87 295.8,-1252.8"/>
<text xml:space="preserve" text-anchor="middle" x="118.25" y="-715.95" font-family="Times,serif" font-size="9.00" fill="#77aa77"> empty A </text>
</g>
<!-- nx_28322c203029&#45;&gt;nx_28302c203229 -->
<g id="edge31" class="edge">
<title>nx_28322c203029&#45;&gt;nx_28302c203229</title>
<path fill="none" stroke="#aaaa66" d="M705.6,-167.6C700.69,-161.72 695.8,-154.53 693.25,-147 690.62,-139.24 693.09,-131.36 697.42,-124.38"/>
<polygon fill="#aaaa66" stroke="#aaaa66" points="699.97,-126.8 703.25,-116.72 694.4,-122.56 699.97,-126.8"/>
<text xml:space="preserve" text-anchor="middle" x="705.62" y="-138.45" font-family="Times,serif" font-size="9.00" fill="#aaaa66"> A&#45;&gt;B </text>
</g>
<!-- nx_28322c203529 -->
<g id="node10" class="node">
<title>nx_28322c203529</title>
<path fill="#cceecc" stroke="black" stroke-width="0.5" d="M720,-265.5C720,-265.5 747,-265.5 747,-265.5 747,-266.09 746.96,-266.68 746.87,-267.26 746.78,-267.85 746.65,-268.43 746.48,-269.01 746.31,-269.59 746.09,-270.16 745.84,-270.73 745.58,-271.29 745.28,-271.84 744.94,-272.39 744.61,-272.93 744.23,-273.47 743.81,-273.99 743.4,-274.5 742.94,-275.01 742.45,-275.5 741.96,-275.99 741.43,-276.46 740.87,-276.92 740.31,-277.37 739.72,-277.81 739.09,-278.23 738.47,-278.64 737.81,-279.04 737.13,-279.41 736.45,-279.79 735.74,-280.14 735,-280.47 734.27,-280.79 733.51,-281.1 732.73,-281.37 731.95,-281.65 731.15,-281.9 730.33,-282.13 729.52,-282.36 728.68,-282.55 727.84,-282.72 726.99,-282.9 726.13,-283.04 725.27,-283.15 724.4,-283.27 723.53,-283.36 722.65,-283.41 721.77,-283.47 720.88,-283.5 720,-283.5 720,-283.5 720,-265.5 720,-265.5"/>
<path fill="#ccddff" stroke="black" stroke-width="0.5" d="M720,-265.5C720,-265.5 720,-283.5 720,-283.5 719.12,-283.5 718.23,-283.47 717.35,-283.41 716.47,-283.36 715.6,-283.27 714.73,-283.15 713.87,-283.04 713.01,-282.9 712.16,-282.72 711.32,-282.55 710.48,-282.36 709.67,-282.13 708.85,-281.9 708.05,-281.65 707.27,-281.37 706.49,-281.1 705.73,-280.79 705,-280.47 704.26,-280.14 703.55,-279.79 702.87,-279.41 702.19,-279.04 701.53,-278.64 700.91,-278.23 700.28,-277.81 699.69,-277.37 699.13,-276.92 698.57,-276.46 698.04,-275.99 697.55,-275.5 697.06,-275.01 696.6,-274.5 696.19,-273.99 695.77,-273.47 695.39,-272.93 695.06,-272.39 694.72,-271.84 694.42,-271.29 694.16,-270.73 693.91,-270.16 693.69,-269.59 693.52,-269.01 693.35,-268.43 693.22,-267.85 693.13,-267.26 693.04,-266.68 693,-266.09 693,-265.5 693,-265.5 720,-265.5 720,-265.5"/>
<path fill="#eeccee" stroke="black" stroke-width="0.5" d="M720,-265.5C720,-265.5 693,-265.5 693,-265.5 693,-264.91 693.04,-264.32 693.13,-263.74 693.22,-263.15 693.35,-262.57 693.52,-261.99 693.69,-261.41 693.91,-260.84 694.16,-260.27 694.42,-259.71 694.72,-259.16 695.06,-258.61 695.39,-258.07 695.77,-257.53 696.19,-257.01 696.6,-256.5 697.06,-255.99 697.55,-255.5 698.04,-255.01 698.57,-254.54 699.13,-254.08 699.69,-253.63 700.28,-253.19 700.91,-252.77 701.53,-252.36 702.19,-251.96 702.87,-251.59 703.55,-251.21 704.26,-250.86 705,-250.53 705.73,-250.21 706.49,-249.9 707.27,-249.63 708.05,-249.35 708.85,-249.1 709.67,-248.87 710.48,-248.64 711.32,-248.45 712.16,-248.28 713.01,-248.1 713.87,-247.96 714.73,-247.85 715.6,-247.73 716.47,-247.64 717.35,-247.59 718.23,-247.53 719.12,-247.5 720,-247.5 720,-247.5 720,-265.5 720,-265.5"/>
<path fill="#cceeee" stroke="black" stroke-width="0.5" d="M720,-265.5C720,-265.5 720,-247.5 720,-247.5 720.88,-247.5 721.77,-247.53 722.65,-247.59 723.53,-247.64 724.4,-247.73 725.27,-247.85 726.13,-247.96 726.99,-248.1 727.84,-248.28 728.68,-248.45 729.52,-248.64 730.33,-248.87 731.15,-249.1 731.95,-249.35 732.73,-249.63 733.51,-249.9 734.27,-250.21 735,-250.53 735.74,-250.86 736.45,-251.21 737.13,-251.59 737.81,-251.96 738.47,-252.36 739.09,-252.77 739.72,-253.19 740.31,-253.63 740.87,-254.08 741.43,-254.54 741.96,-255.01 742.45,-255.5 742.94,-255.99 743.4,-256.5 743.81,-257.01 744.23,-257.53 744.61,-258.07 744.94,-258.61 745.28,-259.16 745.58,-259.71 745.84,-260.27 746.09,-260.84 746.31,-261.41 746.48,-261.99 746.65,-262.57 746.78,-263.15 746.87,-263.74 746.96,-264.32 747,-264.91 747,-265.5 747,-265.5 720,-265.5 720,-265.5"/>
<ellipse fill="none" stroke="black" cx="720" cy="-265.5" rx="27" ry="18"/>
<text xml:space="preserve" text-anchor="middle" x="720" y="-261.8" font-family="Times,serif" font-size="11.00">(2, 5)</text>
</g>
<!-- nx_28322c203029&#45;&gt;nx_28322c203529 -->
<g id="edge32" class="edge">
<title>nx_28322c203029&#45;&gt;nx_28322c203529</title>
<path fill="none" stroke="#ddbb99" d="M724.63,-200.8C726.47,-209.36 727.95,-219.96 727,-229.5 726.78,-231.72 726.48,-234.01 726.14,-236.3"/>
<polygon fill="#ddbb99" stroke="#ddbb99" points="722.71,-235.56 724.37,-246.02 729.6,-236.81 722.71,-235.56"/>
<text xml:space="preserve" text-anchor="middle" x="738.54" y="-220.95" font-family="Times,serif" font-size="9.00" fill="#ddbb99"> fill B </text>
</g>
<!-- nx_28322c203029&#45;&gt;nx_28332c203029 -->
<g id="edge33" class="edge">
<title>nx_28322c203029&#45;&gt;nx_28332c203029</title>
<path fill="none" stroke="#6688bb" d="M746.48,-187.66C806.36,-196.69 947,-222.37 947,-264.5 947,-555.25 947,-555.25 947,-555.25 947,-627.8 956,-645.7 956,-718.25 956,-926.5 956,-926.5 956,-926.5 956,-987.83 743.88,-1002.5 654.73,-1005.95"/>
<polygon fill="#6688bb" stroke="#6688bb" points="654.63,-1002.46 644.76,-1006.31 654.88,-1009.45 654.63,-1002.46"/>
<text xml:space="preserve" text-anchor="middle" x="960.45" y="-592.2" font-family="Times,serif" font-size="9.00" fill="#6688bb"> fill A </text>
</g>
<!-- nx_28322c203529&#45;&gt;nx_28302c203529 -->
<g id="edge34" class="edge">
<title>nx_28322c203529&#45;&gt;nx_28302c203529</title>
<path fill="none" stroke="#77aa77" d="M692.94,-267.49C580.88,-271.96 159,-292.39 159,-347 159,-679 159,-679 159,-679 159,-769.89 149,-792.36 149,-883.25 149,-1091.5 149,-1091.5 149,-1091.5 149,-1127.02 257.34,-1153.52 316.12,-1165.28"/>
<polygon fill="#77aa77" stroke="#77aa77" points="315.19,-1168.67 325.68,-1167.15 316.53,-1161.8 315.19,-1168.67"/>
<text xml:space="preserve" text-anchor="middle" x="175.68" y="-715.95" font-family="Times,serif" font-size="9.00" fill="#77aa77"> empty A </text>
</g>
<!-- nx_28322c203529&#45;&gt;nx_28322c203029 -->
<g id="edge35" class="edge">
<title>nx_28322c203529&#45;&gt;nx_28322c203029</title>
<path fill="none" stroke="#aa77aa" d="M702.21,-251.54C692.73,-242.92 683.89,-231.02 688.5,-219 690.25,-214.45 692.89,-210.12 695.91,-206.16"/>
<polygon fill="#aa77aa" stroke="#aa77aa" points="698.44,-208.58 702.43,-198.77 693.19,-203.96 698.44,-208.58"/>
<text xml:space="preserve" text-anchor="middle" x="705.75" y="-220.95" font-family="Times,serif" font-size="9.00" fill="#aa77aa"> empty B </text>
</g>
<!-- nx_28322c203529&#45;&gt;nx_28332c203429 -->
<g id="edge36" class="edge">
<title>nx_28322c203529&#45;&gt;nx_28332c203429</title>
<path fill="none" stroke="#77aaaa" d="M724.02,-283.55C726.44,-293.79 729.58,-307.07 732.35,-318.84"/>
<polygon fill="#77aaaa" stroke="#77aaaa" points="728.92,-319.53 734.62,-328.45 735.73,-317.92 728.92,-319.53"/>
<text xml:space="preserve" text-anchor="middle" x="743.01" y="-303.45" font-family="Times,serif" font-size="9.00" fill="#77aaaa"> B&#45;&gt;A </text>
</g>
<!-- nx_28322c203529&#45;&gt;nx_28332c203529 -->
<g id="edge37" class="edge">
<title>nx_28322c203529&#45;&gt;nx_28332c203529</title>
<path fill="none" stroke="#6688bb" d="M747.1,-266.65C797.59,-268.51 901,-280.45 901,-347 901,-555.25 901,-555.25 901,-555.25 901,-627.72 905,-645.78 905,-718.25 905,-1009 905,-1009 905,-1009 905,-1071.15 815.13,-1085.71 761.69,-1088.87"/>
<polygon fill="#6688bb" stroke="#6688bb" points="761.58,-1085.37 751.76,-1089.33 761.91,-1092.36 761.58,-1085.37"/>
<text xml:space="preserve" text-anchor="middle" x="916.11" y="-674.7" font-family="Times,serif" font-size="9.00" fill="#6688bb"> fill A </text>
</g>
<!-- nx_28332c203029&#45;&gt;nx_28302c203029 -->
<g id="edge38" class="edge">
<title>nx_28332c203029&#45;&gt;nx_28302c203029</title>
<path fill="none" stroke="#77aa77" d="M611.36,-1026.14C598.81,-1068.63 559.69,-1178.39 481,-1219.5 447.2,-1237.16 404.35,-1246.07 373.83,-1250.46"/>
<polygon fill="#77aa77" stroke="#77aa77" points="373.73,-1246.94 364.28,-1251.73 374.65,-1253.88 373.73,-1246.94"/>
<text xml:space="preserve" text-anchor="middle" x="585.84" y="-1128.45" font-family="Times,serif" font-size="9.00" fill="#77aa77"> empty A </text>
</g>
<!-- nx_28332c203029&#45;&gt;nx_28302c203329 -->
<g id="edge39" class="edge">
<title>nx_28332c203029&#45;&gt;nx_28302c203329</title>
<path fill="none" stroke="#aaaa66" d="M590.43,-1001.27C570.55,-995.95 542.97,-986.62 522.25,-972 514.31,-966.39 507.03,-958.75 501,-951.33"/>
<polygon fill="#aaaa66" stroke="#aaaa66" points="503.83,-949.27 495,-943.42 498.26,-953.51 503.83,-949.27"/>
<text xml:space="preserve" text-anchor="middle" x="534.62" y="-963.45" font-family="Times,serif" font-size="9.00" fill="#aaaa66"> A&#45;&gt;B </text>
</g>
<!-- nx_28332c203029&#45;&gt;nx_28332c203529 -->
<g id="edge40" class="edge">
<title>nx_28332c203029&#45;&gt;nx_28332c203529</title>
<path fill="none" stroke="#ddbb99" d="M630.07,-1023.33C639.64,-1032.71 652.81,-1044.96 665.5,-1054.5 673.98,-1060.88 683.68,-1067.14 692.67,-1072.56"/>
<polygon fill="#ddbb99" stroke="#ddbb99" points="690.71,-1075.47 701.1,-1077.52 694.26,-1069.43 690.71,-1075.47"/>
<text xml:space="preserve" text-anchor="middle" x="676.75" y="-1045.95" font-family="Times,serif" font-size="9.00" fill="#ddbb99"> fill B </text>
</g>
<!-- nx_28332c203129&#45;&gt;nx_28302c203129 -->
<g id="edge41" class="edge">
<title>nx_28332c203129&#45;&gt;nx_28302c203129</title>
<path fill="none" stroke="#77aa77" d="M618.33,-529.22C609.54,-538.97 597.09,-551.3 584,-559.5 565.7,-570.96 543.09,-579.44 524.42,-585.17"/>
<polygon fill="#77aa77" stroke="#77aa77" points="523.44,-581.81 514.82,-587.97 525.4,-588.53 523.44,-581.81"/>
<text xml:space="preserve" text-anchor="middle" x="614.22" y="-550.95" font-family="Times,serif" font-size="9.00" fill="#77aa77"> empty A </text>
</g>
<!-- nx_28332c203129&#45;&gt;nx_28302c203429 -->
<g id="edge42" class="edge">
<title>nx_28332c203129&#45;&gt;nx_28302c203429</title>
<path fill="none" stroke="#aaaa66" d="M615.33,-498.2C609.77,-492.3 604.17,-484.93 601.25,-477 598.38,-469.19 600.91,-461.21 605.36,-454.14"/>
<polygon fill="#aaaa66" stroke="#aaaa66" points="608.02,-456.43 611.39,-446.39 602.49,-452.14 608.02,-456.43"/>
<text xml:space="preserve" text-anchor="middle" x="613.62" y="-468.45" font-family="Times,serif" font-size="9.00" fill="#aaaa66"> A&#45;&gt;B </text>
</g>
<!-- nx_28332c203129&#45;&gt;nx_28332c203029 -->
<g id="edge43" class="edge">
<title>nx_28332c203129&#45;&gt;nx_28332c203029</title>
<path fill="none" stroke="#aa77aa" d="M639.12,-530.32C662.66,-579.47 728.52,-730.73 716,-861 713.94,-882.49 707.67,-951.8 689,-972 678.94,-982.89 664.78,-990.74 651.6,-996.22"/>
<polygon fill="#aa77aa" stroke="#aa77aa" points="650.41,-992.93 642.29,-999.74 652.88,-999.48 650.41,-992.93"/>
<text xml:space="preserve" text-anchor="middle" x="731.94" y="-757.2" font-family="Times,serif" font-size="9.00" fill="#aa77aa"> empty B </text>
</g>
<!-- nx_28332c203129&#45;&gt;nx_28332c203529 -->
<g id="edge44" class="edge">
<title>nx_28332c203129&#45;&gt;nx_28332c203529</title>
<path fill="none" stroke="#ddbb99" d="M645.57,-528.68C683.62,-568.62 783,-684.12 783,-800.75 783,-1009 783,-1009 783,-1009 783,-1032.97 765.68,-1054.42 749.66,-1069.14"/>
<polygon fill="#ddbb99" stroke="#ddbb99" points="747.44,-1066.43 742.15,-1075.61 752.01,-1071.73 747.44,-1066.43"/>
<text xml:space="preserve" text-anchor="middle" x="794.25" y="-798.45" font-family="Times,serif" font-size="9.00" fill="#ddbb99"> fill B </text>
</g>
<!-- nx_28332c203229&#45;&gt;nx_28302c203229 -->
<g id="edge45" class="edge">
<title>nx_28332c203229&#45;&gt;nx_28302c203229</title>
<path fill="none" stroke="#77aa77" d="M1011.52,-26.22C979.72,-35.52 922.41,-51.96 873,-64.5 833.42,-74.55 787.75,-84.82 756.68,-91.62"/>
<polygon fill="#77aa77" stroke="#77aa77" points="756.04,-88.18 747.01,-93.72 757.53,-95.02 756.04,-88.18"/>
<text xml:space="preserve" text-anchor="middle" x="926.12" y="-55.95" font-family="Times,serif" font-size="9.00" fill="#77aa77"> empty A </text>
</g>
<!-- nx_28332c203229&#45;&gt;nx_28302c203529 -->
<g id="edge46" class="edge">
<title>nx_28332c203229&#45;&gt;nx_28302c203529</title>
<path fill="none" stroke="#aaaa66" d="M1046.15,-34.96C1055.19,-50.72 1067,-75.84 1067,-99.5 1067,-1091.5 1067,-1091.5 1067,-1091.5 1067,-1160.12 539.5,-1170.25 391.3,-1171.74"/>
<polygon fill="#aaaa66" stroke="#aaaa66" points="391.6,-1168.24 381.63,-1171.83 391.66,-1175.24 391.6,-1168.24"/>
<text xml:space="preserve" text-anchor="middle" x="1079.38" y="-592.2" font-family="Times,serif" font-size="9.00" fill="#aaaa66"> A&#45;&gt;B </text>
</g>
<!-- nx_28332c203229&#45;&gt;nx_28332c203029 -->
<g id="edge47" class="edge">
<title>nx_28332c203229&#45;&gt;nx_28332c203029</title>
<path fill="none" stroke="#aa77aa" d="M1058.07,-28.52C1082.96,-40.93 1120,-65.16 1120,-99.5 1120,-926.5 1120,-926.5 1120,-926.5 1120,-973.62 772.09,-998.01 654.39,-1004.91"/>
<polygon fill="#aa77aa" stroke="#aa77aa" points="654.39,-1001.41 644.61,-1005.48 654.79,-1008.4 654.39,-1001.41"/>
<text xml:space="preserve" text-anchor="middle" x="1137.25" y="-509.7" font-family="Times,serif" font-size="9.00" fill="#aa77aa"> empty B </text>
</g>
<!-- nx_28332c203229&#45;&gt;nx_28332c203529 -->
<g id="edge48" class="edge">
<title>nx_28332c203229&#45;&gt;nx_28332c203529</title>
<path fill="none" stroke="#ddbb99" d="M1062.96,-21.63C1105.4,-27.41 1183,-45.38 1183,-99.5 1183,-1009 1183,-1009 1183,-1009 1183,-1051.68 871.76,-1078.61 761.31,-1086.83"/>
<polygon fill="#ddbb99" stroke="#ddbb99" points="761.29,-1083.32 751.57,-1087.54 761.8,-1090.3 761.29,-1083.32"/>
<text xml:space="preserve" text-anchor="middle" x="1194.25" y="-550.95" font-family="Times,serif" font-size="9.00" fill="#ddbb99"> fill B </text>
</g>
<!-- nx_28332c203329&#45;&gt;nx_28302c203329 -->
<g id="edge49" class="edge">
<title>nx_28332c203329&#45;&gt;nx_28302c203329</title>
<path fill="none" stroke="#77aa77" d="M503.71,-861.05C500.49,-871.4 496.31,-884.85 492.63,-896.71"/>
<polygon fill="#77aa77" stroke="#77aa77" points="489.37,-895.39 489.75,-905.98 496.06,-897.47 489.37,-895.39"/>
<text xml:space="preserve" text-anchor="middle" x="515.25" y="-880.95" font-family="Times,serif" font-size="9.00" fill="#77aa77"> empty A </text>
</g>
<!-- nx_28332c203329&#45;&gt;nx_28312c203529 -->
<g id="edge50" class="edge">
<title>nx_28332c203329&#45;&gt;nx_28312c203529</title>
<path fill="none" stroke="#aaaa66" d="M491.12,-829C484.51,-823.12 477.77,-815.55 474.25,-807 471.28,-799.8 473.11,-792.22 476.8,-785.35"/>
<polygon fill="#aaaa66" stroke="#aaaa66" points="479.62,-787.42 482.35,-777.19 473.83,-783.49 479.62,-787.42"/>
<text xml:space="preserve" text-anchor="middle" x="486.62" y="-798.45" font-family="Times,serif" font-size="9.00" fill="#aaaa66"> A&#45;&gt;B </text>
</g>
<!-- nx_28332c203329&#45;&gt;nx_28332c203029 -->
<g id="edge51" class="edge">
<title>nx_28332c203329&#45;&gt;nx_28332c203029</title>
<path fill="none" stroke="#aa77aa" d="M520.63,-859.63C524.79,-865.55 529.34,-872.44 533,-879 548.26,-906.37 540.36,-920.37 561.5,-943.5 572.64,-955.69 582.65,-949.51 594,-961.5 598.87,-966.64 602.85,-973.07 606.03,-979.45"/>
<polygon fill="#aa77aa" stroke="#aa77aa" points="602.79,-980.79 610.01,-988.54 609.2,-977.98 602.79,-980.79"/>
<text xml:space="preserve" text-anchor="middle" x="578.75" y="-922.2" font-family="Times,serif" font-size="9.00" fill="#aa77aa"> empty B </text>
</g>
<!-- nx_28332c203329&#45;&gt;nx_28332c203529 -->
<g id="edge52" class="edge">
<title>nx_28332c203329&#45;&gt;nx_28332c203529</title>
<path fill="none" stroke="#ddbb99" d="M528.76,-855.73C547.39,-867.39 575.46,-886.52 596,-907.5 621.45,-933.5 678.47,-1020.19 706.63,-1063.88"/>
<polygon fill="#ddbb99" stroke="#ddbb99" points="703.64,-1065.71 711.99,-1072.23 709.53,-1061.92 703.64,-1065.71"/>
<text xml:space="preserve" text-anchor="middle" x="656.38" y="-963.45" font-family="Times,serif" font-size="9.00" fill="#ddbb99"> fill B </text>
</g>
<!-- nx_28332c203429&#45;&gt;nx_28302c203429 -->
<g id="edge53" class="edge">
<title>nx_28332c203429&#45;&gt;nx_28302c203429</title>
<path fill="none" stroke="#77aa77" d="M722.52,-362.51C711.06,-371.76 695.33,-384.17 681,-394.5 673.11,-400.18 664.37,-406.1 656.3,-411.42"/>
<polygon fill="#77aa77" stroke="#77aa77" points="654.63,-408.34 648.16,-416.73 658.45,-414.2 654.63,-408.34"/>
<text xml:space="preserve" text-anchor="middle" x="711.23" y="-385.95" font-family="Times,serif" font-size="9.00" fill="#77aa77"> empty A </text>
</g>
<!-- nx_28332c203429&#45;&gt;nx_28322c203529 -->
<g id="edge54" class="edge">
<title>nx_28332c203429&#45;&gt;nx_28322c203529</title>
<path fill="none" stroke="#aaaa66" d="M719.44,-335.14C711.63,-329.26 703.49,-321.38 699.25,-312 696.13,-305.09 697.55,-297.6 700.78,-290.73"/>
<polygon fill="#aaaa66" stroke="#aaaa66" points="703.55,-292.91 705.71,-282.54 697.55,-289.3 703.55,-292.91"/>
<text xml:space="preserve" text-anchor="middle" x="711.62" y="-303.45" font-family="Times,serif" font-size="9.00" fill="#aaaa66"> A&#45;&gt;B </text>
</g>
<!-- nx_28332c203429&#45;&gt;nx_28332c203029 -->
<g id="edge55" class="edge">
<title>nx_28332c203429&#45;&gt;nx_28332c203029</title>
<path fill="none" stroke="#aa77aa" d="M756.1,-362.1C772.89,-376.58 796,-401.59 796,-429.5 796,-637.75 796,-637.75 796,-637.75 796,-711.04 821,-727.46 821,-800.75 821,-926.5 821,-926.5 821,-926.5 821,-962.17 712.13,-988.6 653.06,-1000.32"/>
<polygon fill="#aa77aa" stroke="#aa77aa" points="652.6,-996.84 643.45,-1002.18 653.93,-1003.71 652.6,-996.84"/>
<text xml:space="preserve" text-anchor="middle" x="819.36" y="-674.7" font-family="Times,serif" font-size="9.00" fill="#aa77aa"> empty B </text>
</g>
<!-- nx_28332c203429&#45;&gt;nx_28332c203529 -->
<g id="edge56" class="edge">
<title>nx_28332c203429&#45;&gt;nx_28332c203529</title>
<path fill="none" stroke="#ddbb99" d="M764.74,-354.21C800,-363.01 859,-384.47 859,-429.5 859,-1009 859,-1009 859,-1009 859,-1054.92 800.87,-1075.21 760.61,-1083.75"/>
<polygon fill="#ddbb99" stroke="#ddbb99" points="760.18,-1080.27 751.03,-1085.61 761.52,-1087.14 760.18,-1080.27"/>
<text xml:space="preserve" text-anchor="middle" x="870.25" y="-715.95" font-family="Times,serif" font-size="9.00" fill="#ddbb99"> fill B </text>
</g>
<!-- nx_28332c203529&#45;&gt;nx_28302c203529 -->
<g id="edge57" class="edge">
<title>nx_28332c203529&#45;&gt;nx_28302c203529</title>
<path fill="none" stroke="#77aa77" d="M713.23,-1107.34C705.96,-1117.63 695.07,-1130.33 682,-1137 632.09,-1162.46 467.22,-1169.44 391.56,-1171.32"/>
<polygon fill="#77aa77" stroke="#77aa77" points="391.65,-1167.82 381.73,-1171.55 391.81,-1174.82 391.65,-1167.82"/>
<text xml:space="preserve" text-anchor="middle" x="712.83" y="-1128.45" font-family="Times,serif" font-size="9.00" fill="#77aa77"> empty A </text>
</g>
<!-- nx_28332c203529&#45;&gt;nx_28332c203029 -->
<g id="edge58" class="edge">
<title>nx_28332c203529&#45;&gt;nx_28332c203029</title>
<path fill="none" stroke="#aa77aa" d="M696.05,-1089.19C670.39,-1087.28 633.02,-1079.94 614.5,-1054.5 610.93,-1049.59 609.63,-1043.54 609.57,-1037.46"/>
<polygon fill="#aa77aa" stroke="#aa77aa" points="613.05,-1037.86 610.55,-1027.56 606.08,-1037.17 613.05,-1037.86"/>
<text xml:space="preserve" text-anchor="middle" x="631.75" y="-1045.95" font-family="Times,serif" font-size="9.00" fill="#aa77aa"> empty B </text>
</g>
</g>
</svg>
