<?xml version="1.0" encoding="UTF-8" standalone="no"?>
<!DOCTYPE svg PUBLIC "-//W3C//DTD SVG 1.1//EN"
 "http://www.w3.org/Graphics/SVG/1.1/DTD/svg11.dtd">
<!-- Generated by graphviz version 14.1.3 (20260303.0454)
 -->
<!-- Pages: 1 -->
<svg width="311pt" height="374pt"
 viewBox="0.00 0.00 311.00 374.00" xmlns="http://www.w3.org/2000/svg" xmlns:xlink="http://www.w3.org/1999/xlink">
<g id="graph0" class="graph" transform="scale(1 1) rotate(0) translate(4 370)">
<polygon fill="white" stroke="none" points="-4,4 -4,-370 307.36,-370 307.36,4 -4,4"/>
<!-- nx_62616e616e -->
<g id="node1" class="node">
<title>nx_62616e616e</title>
<ellipse fill="none" stroke="black" cx="29.61" cy="-265.5" rx="27" ry="18"/>
<text xml:space="preserve" text-anchor="middle" x="29.61" y="-261.8" font-family="Times,serif" font-size="11.00">banan</text>
</g>
<!-- nx_62616e616e61 -->
<g id="node2" class="node">
<title>nx_62616e616e61</title>
<ellipse fill="#ccddff" stroke="black" stroke-width="3" cx="29.61" cy="-348" rx="29.61" ry="18"/>
<text xml:space="preserve" text-anchor="middle" x="29.61" y="-344.3" font-family="Times,serif" font-size="11.00">banana</text>
</g>
<!-- nx_62616e616e61&#45;&gt;nx_62616e616e -->
<g id="edge1" class="edge">
<title>nx_62616e616e61&#45;&gt;nx_62616e616e</title>
<path fill="none" stroke="#6688bb" d="M29.61,-328.73C29.61,-318.85 29.61,-306.43 29.61,-295.28"/>
<polygon fill="#6688bb" stroke="#6688bb" points="33.11,-295.38 29.61,-285.38 26.11,-295.38 33.11,-295.38"/>
<text xml:space="preserve" text-anchor="middle" x="52.49" y="-303.45" font-family="Times,serif" font-size="9.00" fill="#6688bb"> drop&#45;vowel </text>
</g>
<!-- nx_6761726167 -->
<g id="node3" class="node">
<title>nx_6761726167</title>
<ellipse fill="none" stroke="black" cx="105.61" cy="-265.5" rx="27" ry="18"/>
<text xml:space="preserve" text-anchor="middle" x="105.61" y="-261.8" font-family="Times,serif" font-size="11.00">garag</text>
</g>
<!-- nx_676172616765 -->
<g id="node4" class="node">
<title>nx_676172616765</title>
<ellipse fill="#ccddff" stroke="black" stroke-width="3" cx="105.61" cy="-348" rx="28.68" ry="18"/>
<text xml:space="preserve" text-anchor="middle" x="105.61" y="-344.3" font-family="Times,serif" font-size="11.00">garage</text>
</g>
<!-- nx_676172616765&#45;&gt;nx_6761726167 -->
<g id="edge2" class="edge">
<title>nx_676172616765&#45;&gt;nx_6761726167</title>
<path fill="none" stroke="#6688bb" d="M105.61,-328.73C105.61,-318.85 105.61,-306.43 105.61,-295.28"/>
<polygon fill="#6688bb" stroke="#6688bb" points="109.11,-295.38 105.61,-285.38 102.11,-295.38 109.11,-295.38"/>
<text xml:space="preserve" text-anchor="middle" x="128.49" y="-303.45" font-family="Times,serif" font-size="9.00" fill="#6688bb"> drop&#45;vowel </text>
</g>
<!-- nx_6974657261746f72 -->
<g id="node5" class="node">
<title>nx_6974657261746f72</title>
<ellipse fill="none" stroke="black" stroke-width="3" cx="182.61" cy="-348" rx="30.08" ry="18"/>
<text xml:space="preserve" text-anchor="middle" x="182.61" y="-344.3" font-family="Times,serif" font-size="11.00">iterator</text>
</g>
<!-- nx_71 -->
<g id="node6" class="node">
<title>nx_71</title>
<ellipse fill="none" stroke="black" cx="257.61" cy="-18" rx="27" ry="18"/>
<text xml:space="preserve" text-anchor="middle" x="257.61" y="-14.3" font-family="Times,serif" font-size="11.00">q</text>
</g>
<!-- nx_7175 -->
<g id="node7" class="node">
<title>nx_7175</title>
<ellipse fill="#ccddff" stroke="black" cx="257.61" cy="-100.5" rx="27" ry="18"/>
<text xml:space="preserve" text-anchor="middle" x="257.61" y="-96.8" font-family="Times,serif" font-size="11.00">qu</text>
</g>
<!-- nx_7175&#45;&gt;nx_71 -->
<g id="edge3" class="edge">
<title>nx_7175&#45;&gt;nx_71</title>
<path fill="none" stroke="#6688bb" d="M257.61,-82.03C257.61,-72.01 257.61,-59.18 257.61,-47.71"/>
<polygon fill="#6688bb" stroke="#6688bb" points="261.11,-47.95 257.61,-37.95 254.11,-47.95 261.11,-47.95"/>
<text xml:space="preserve" text-anchor="middle" x="280.49" y="-55.95" font-family="Times,serif" font-size="9.00" fill="#6688bb"> drop&#45;vowel </text>
</g>
<!-- nx_717565 -->
<g id="node8" class="node">
<title>nx_717565</title>
<ellipse fill="#ccddff" stroke="black" cx="257.61" cy="-183" rx="27" ry="18"/>
<text xml:space="preserve" text-anchor="middle" x="257.61" y="-179.3" font-family="Times,serif" font-size="11.00">que</text>
</g>
<!-- nx_717565&#45;&gt;nx_7175 -->
<g id="edge4" class="edge">
<title>nx_717565&#45;&gt;nx_7175</title>
<path fill="none" stroke="#6688bb" d="M257.61,-164.53C257.61,-154.51 257.61,-141.68 257.61,-130.21"/>
<polygon fill="#6688bb" stroke="#6688bb" points="261.11,-130.45 257.61,-120.45 254.11,-130.45 261.11,-130.45"/>
<text xml:space="preserve" text-anchor="middle" x="280.49" y="-138.45" font-family="Times,serif" font-size="9.00" fill="#6688bb"> drop&#45;vowel </text>
</g>
<!-- nx_71756575 -->
<g id="node9" class="node">
<title>nx_71756575</title>
<ellipse fill="#ccddff" stroke="black" cx="257.61" cy="-265.5" rx="27" ry="18"/>
<text xml:space="preserve" text-anchor="middle" x="257.61" y="-261.8" font-family="Times,serif" font-size="11.00">queu</text>
</g>
<!-- nx_71756575&#45;&gt;nx_717565 -->
<g id="edge5" class="edge">
<title>nx_71756575&#45;&gt;nx_717565</title>
<path fill="none" stroke="#6688bb" d="M257.61,-247.03C257.61,-237.01 257.61,-224.18 257.61,-212.71"/>
<polygon fill="#6688bb" stroke="#6688bb" points="261.11,-212.95 257.61,-202.95 254.11,-212.95 261.11,-212.95"/>
<text xml:space="preserve" text-anchor="middle" x="280.49" y="-220.95" font-family="Times,serif" font-size="9.00" fill="#6688bb"> drop&#45;vowel </text>
</g>
<!-- nx_7175657565 -->
<g id="node10" class="node">
<title>nx_7175657565</title>
<ellipse fill="#ccddff" stroke="black" stroke-width="3" cx="257.61" cy="-348" rx="27" ry="18"/>
<text xml:space="preserve" text-anchor="middle" x="257.61" y="-344.3" font-family="Times,serif" font-size="11.00">queue</text>
</g>
<!-- nx_7175657565&#45;&gt;nx_71756575 -->
<g id="edge6" class="edge">
<title>nx_7175657565&#45;&gt;nx_71756575</title>
<path fill="none" stroke="#6688bb" d="M257.61,-328.73C257.61,-318.85 257.61,-306.43 257.61,-295.28"/>
<polygon fill="#6688bb" stroke="#6688bb" points="261.11,-295.38 257.61,-285.38 254.11,-295.38 261.11,-295.38"/>
<text xml:space="preserve" text-anchor="middle" x="280.49" y="-303.45" font-family="Times,serif" font-size="9.00" fill="#6688bb"> drop&#45;vowel </text>
</g>
</g>
</svg>
