<?xml version="1.0" encoding="UTF-8" standalone="no"?>
<!DOCTYPE svg PUBLIC "-//W3C//DTD SVG 1.1//EN"
 "http://www.w3.org/Graphics/SVG/1.1/DTD/svg11.dtd">
<!-- Generated by graphviz version 14.1.3 (20260303.0454)
 -->
<!-- Pages: 1 -->
<svg width="206pt" height="787pt"
 viewBox="0.00 0.00 206.00 787.00" xmlns="http://www.w3.org/2000/svg" xmlns:xlink="http://www.w3.org/1999/xlink">
<g id="graph0" class="graph" transform="scale(1 1) rotate(0) translate(4 782.5)">
<polygon fill="white" stroke="none" points="-4,4 -4,-782.5 202,-782.5 202,4 -4,4"/>
<!-- n1 -->
<g id="node1" class="node">
<title>n1</title>
<ellipse fill="#cf4500" stroke="black" stroke-width="3" cx="56" cy="-100.5" rx="27" ry="18"/>
<text xml:space="preserve" text-anchor="middle" x="56" y="-96.8" font-family="Times,serif" font-size="11.00" fill="white">1</text>
</g>
<!-- n3 -->
<g id="node2" class="node">
<title>n3</title>
<ellipse fill="#0045cf" stroke="black" stroke-width="3" cx="92" cy="-18" rx="27" ry="18"/>
<text xml:space="preserve" text-anchor="middle" x="92" y="-14.3" font-family="Times,serif" font-size="11.00" fill="white">3</text>
</g>
<!-- n1&#45;&gt;n3 -->
<g id="edge1" class="edge">
<title>n1&#45;&gt;n3</title>
<path fill="none" stroke="#ddbb99" d="M47.33,-81.97C44.25,-73.22 42.49,-62.68 46.75,-54 50.02,-47.33 55.25,-41.57 61,-36.76"/>
<polygon fill="#ddbb99" stroke="#ddbb99" points="63.05,-39.6 69.06,-30.87 58.92,-33.94 63.05,-39.6"/>
<text xml:space="preserve" text-anchor="middle" x="58.38" y="-55.95" font-family="Times,serif" font-size="9.00" fill="#ddbb99"> x + 2 </text>
</g>
<!-- n3&#45;&gt;n1 -->
<g id="edge12" class="edge">
<title>n3&#45;&gt;n1</title>
<path fill="none" stroke="#6688bb" d="M84.08,-36.71C79.51,-46.92 73.67,-59.98 68.5,-71.55"/>
<polygon fill="#6688bb" stroke="#6688bb" points="65.32,-70.09 64.43,-80.65 71.71,-72.95 65.32,-70.09"/>
<text xml:space="preserve" text-anchor="middle" x="87.41" y="-55.95" font-family="Times,serif" font-size="9.00" fill="#6688bb"> x // 3 </text>
</g>
<!-- n5 -->
<g id="node3" class="node">
<title>n5</title>
<ellipse fill="#cf4500" stroke="black" stroke-width="3" cx="27" cy="-265.5" rx="27" ry="18"/>
<text xml:space="preserve" text-anchor="middle" x="27" y="-261.8" font-family="Times,serif" font-size="11.00" fill="white">5</text>
</g>
<!-- n7 -->
<g id="node4" class="node">
<title>n7</title>
<ellipse fill="#cf4500" stroke="black" stroke-width="3" cx="99" cy="-183" rx="27" ry="18"/>
<text xml:space="preserve" text-anchor="middle" x="99" y="-179.3" font-family="Times,serif" font-size="11.00" fill="white">7</text>
</g>
<!-- n5&#45;&gt;n7 -->
<g id="edge15" class="edge">
<title>n5&#45;&gt;n7</title>
<path fill="none" stroke="#ddbb99" d="M40.88,-248.98C51.27,-237.36 65.68,-221.25 77.55,-207.98"/>
<polygon fill="#ddbb99" stroke="#ddbb99" points="79.85,-210.66 83.91,-200.88 74.63,-206 79.85,-210.66"/>
<text xml:space="preserve" text-anchor="middle" x="78.94" y="-220.95" font-family="Times,serif" font-size="9.00" fill="#ddbb99"> x + 2 </text>
</g>
<!-- n9 -->
<g id="node5" class="node">
<title>n9</title>
<ellipse fill="#0045cf" stroke="black" stroke-width="3" cx="138" cy="-100.5" rx="27" ry="18"/>
<text xml:space="preserve" text-anchor="middle" x="138" y="-96.8" font-family="Times,serif" font-size="11.00" fill="white">9</text>
</g>
<!-- n7&#45;&gt;n9 -->
<g id="edge16" class="edge">
<title>n7&#45;&gt;n9</title>
<path fill="none" stroke="#ddbb99" d="M107.46,-164.53C112.47,-154.19 118.93,-140.87 124.61,-129.13"/>
<polygon fill="#ddbb99" stroke="#ddbb99" points="127.68,-130.82 128.89,-120.3 121.38,-127.77 127.68,-130.82"/>
<text xml:space="preserve" text-anchor="middle" x="132.46" y="-138.45" font-family="Times,serif" font-size="9.00" fill="#ddbb99"> x + 2 </text>
</g>
<!-- n9&#45;&gt;n3 -->
<g id="edge17" class="edge">
<title>n9&#45;&gt;n3</title>
<path fill="none" stroke="#6688bb" d="M128.24,-82.43C122.21,-71.86 114.32,-58.06 107.45,-46.04"/>
<polygon fill="#6688bb" stroke="#6688bb" points="110.49,-44.31 102.49,-37.36 104.41,-47.78 110.49,-44.31"/>
<text xml:space="preserve" text-anchor="middle" x="129" y="-55.95" font-family="Times,serif" font-size="9.00" fill="#6688bb"> x // 3 </text>
</g>
<!-- n11 -->
<g id="node6" class="node">
<title>n11</title>
<ellipse fill="#cf4500" stroke="black" stroke-width="3" cx="27" cy="-513" rx="27" ry="18"/>
<text xml:space="preserve" text-anchor="middle" x="27" y="-509.3" font-family="Times,serif" font-size="11.00" fill="white">11</text>
</g>
<!-- n13 -->
<g id="node7" class="node">
<title>n13</title>
<ellipse fill="#cf4500" stroke="black" stroke-width="3" cx="27" cy="-430.5" rx="27" ry="18"/>
<text xml:space="preserve" text-anchor="middle" x="27" y="-426.8" font-family="Times,serif" font-size="11.00" fill="white">13</text>
</g>
<!-- n11&#45;&gt;n13 -->
<g id="edge2" class="edge">
<title>n11&#45;&gt;n13</title>
<path fill="none" stroke="#ddbb99" d="M27,-493.73C27,-484.13 27,-472.11 27,-461.2"/>
<polygon fill="#ddbb99" stroke="#ddbb99" points="30.5,-461.49 27,-451.49 23.5,-461.49 30.5,-461.49"/>
<text xml:space="preserve" text-anchor="middle" x="38.62" y="-468.45" font-family="Times,serif" font-size="9.00" fill="#ddbb99"> x + 2 </text>
</g>
<!-- n15 -->
<g id="node8" class="node">
<title>n15</title>
<ellipse fill="#0045cf" stroke="black" stroke-width="3" cx="27" cy="-348" rx="27" ry="18"/>
<text xml:space="preserve" text-anchor="middle" x="27" y="-344.3" font-family="Times,serif" font-size="11.00" fill="white">15</text>
</g>
<!-- n13&#45;&gt;n15 -->
<g id="edge3" class="edge">
<title>n13&#45;&gt;n15</title>
<path fill="none" stroke="#ddbb99" d="M27,-411.23C27,-401.63 27,-389.61 27,-378.7"/>
<polygon fill="#ddbb99" stroke="#ddbb99" points="30.5,-378.99 27,-368.99 23.5,-378.99 30.5,-378.99"/>
<text xml:space="preserve" text-anchor="middle" x="38.62" y="-385.95" font-family="Times,serif" font-size="9.00" fill="#ddbb99"> x + 2 </text>
</g>
<!-- n15&#45;&gt;n5 -->
<g id="edge4" class="edge">
<title>n15&#45;&gt;n5</title>
<path fill="none" stroke="#6688bb" d="M27,-328.73C27,-319.13 27,-307.11 27,-296.2"/>
<polygon fill="#6688bb" stroke="#6688bb" points="30.5,-296.49 27,-286.49 23.5,-296.49 30.5,-296.49"/>
<text xml:space="preserve" text-anchor="middle" x="38.25" y="-303.45" font-family="Times,serif" font-size="9.00" fill="#6688bb"> x // 3 </text>
</g>
<!-- n17 -->
<g id="node9" class="node">
<title>n17</title>
<ellipse fill="#cf4500" stroke="black" stroke-width="3" cx="99" cy="-430.5" rx="27" ry="18"/>
<text xml:space="preserve" text-anchor="middle" x="99" y="-426.8" font-family="Times,serif" font-size="11.00" fill="white">17</text>
</g>
<!-- n19 -->
<g id="node10" class="node">
<title>n19</title>
<ellipse fill="#cf4500" stroke="black" stroke-width="3" cx="99" cy="-348" rx="27" ry="18"/>
<text xml:space="preserve" text-anchor="middle" x="99" y="-344.3" font-family="Times,serif" font-size="11.00" fill="white">19</text>
</g>
<!-- n17&#45;&gt;n19 -->
<g id="edge5" class="edge">
<title>n17&#45;&gt;n19</title>
<path fill="none" stroke="#ddbb99" d="M99,-411.23C99,-401.63 99,-389.61 99,-378.7"/>
<polygon fill="#ddbb99" stroke="#ddbb99" points="102.5,-378.99 99,-368.99 95.5,-378.99 102.5,-378.99"/>
<text xml:space="preserve" text-anchor="middle" x="110.62" y="-385.95" font-family="Times,serif" font-size="9.00" fill="#ddbb99"> x + 2 </text>
</g>
<!-- n21 -->
<g id="node11" class="node">
<title>n21</title>
<ellipse fill="#0045cf" stroke="black" stroke-width="3" cx="99" cy="-265.5" rx="27" ry="18"/>
<text xml:space="preserve" text-anchor="middle" x="99" y="-261.8" font-family="Times,serif" font-size="11.00" fill="white">21</text>
</g>
<!-- n19&#45;&gt;n21 -->
<g id="edge6" class="edge">
<title>n19&#45;&gt;n21</title>
<path fill="none" stroke="#ddbb99" d="M99,-328.73C99,-319.13 99,-307.11 99,-296.2"/>
<polygon fill="#ddbb99" stroke="#ddbb99" points="102.5,-296.49 99,-286.49 95.5,-296.49 102.5,-296.49"/>
<text xml:space="preserve" text-anchor="middle" x="110.62" y="-303.45" font-family="Times,serif" font-size="9.00" fill="#ddbb99"> x + 2 </text>
</g>
<!-- n21&#45;&gt;n7 -->
<g id="edge7" class="edge">
<title>n21&#45;&gt;n7</title>
<path fill="none" stroke="#6688bb" d="M99,-246.23C99,-236.63 99,-224.61 99,-213.7"/>
<polygon fill="#6688bb" stroke="#6688bb" points="102.5,-213.99 99,-203.99 95.5,-213.99 102.5,-213.99"/>
<text xml:space="preserve" text-anchor="middle" x="110.25" y="-220.95" font-family="Times,serif" font-size="9.00" fill="#6688bb"> x // 3 </text>
</g>
<!-- n23 -->
<g id="node12" class="node">
<title>n23</title>
<ellipse fill="#cf4500" stroke="black" stroke-width="3" cx="171" cy="-348" rx="27" ry="18"/>
<text xml:space="preserve" text-anchor="middle" x="171" y="-344.3" font-family="Times,serif" font-size="11.00" fill="white">23</text>
</g>
<!-- n25 -->
<g id="node13" class="node">
<title>n25</title>
<ellipse fill="#cf4500" stroke="black" stroke-width="3" cx="171" cy="-265.5" rx="27" ry="18"/>
<text xml:space="preserve" text-anchor="middle" x="171" y="-261.8" font-family="Times,serif" font-size="11.00" fill="white">25</text>
</g>
<!-- n23&#45;&gt;n25 -->
<g id="edge8" class="edge">
<title>n23&#45;&gt;n25</title>
<path fill="none" stroke="#ddbb99" d="M171,-328.73C171,-319.13 171,-307.11 171,-296.2"/>
<polygon fill="#ddbb99" stroke="#ddbb99" points="174.5,-296.49 171,-286.49 167.5,-296.49 174.5,-296.49"/>
<text xml:space="preserve" text-anchor="middle" x="182.62" y="-303.45" font-family="Times,serif" font-size="9.00" fill="#ddbb99"> x + 2 </text>
</g>
<!-- n27 -->
<g id="node14" class="node">
<title>n27</title>
<ellipse fill="#0045cf" stroke="black" stroke-width="3" cx="171" cy="-183" rx="27" ry="18"/>
<text xml:space="preserve" text-anchor="middle" x="171" y="-179.3" font-family="Times,serif" font-size="11.00" fill="white">27</text>
</g>
<!-- n25&#45;&gt;n27 -->
<g id="edge9" class="edge">
<title>n25&#45;&gt;n27</title>
<path fill="none" stroke="#ddbb99" d="M171,-246.23C171,-236.63 171,-224.61 171,-213.7"/>
<polygon fill="#ddbb99" stroke="#ddbb99" points="174.5,-213.99 171,-203.99 167.5,-213.99 174.5,-213.99"/>
<text xml:space="preserve" text-anchor="middle" x="182.62" y="-220.95" font-family="Times,serif" font-size="9.00" fill="#ddbb99"> x + 2 </text>
</g>
<!-- n27&#45;&gt;n9 -->
<g id="edge10" class="edge">
<title>n27&#45;&gt;n9</title>
<path fill="none" stroke="#6688bb" d="M163.84,-164.53C159.67,-154.37 154.32,-141.32 149.57,-129.73"/>
<polygon fill="#6688bb" stroke="#6688bb" points="152.87,-128.54 145.83,-120.61 146.39,-131.19 152.87,-128.54"/>
<text xml:space="preserve" text-anchor="middle" x="167.73" y="-138.45" font-family="Times,serif" font-size="9.00" fill="#6688bb"> x // 3 </text>
</g>
<!-- n29 -->
<g id="node15" class="node">
<title>n29</title>
<ellipse fill="#cf4500" stroke="black" stroke-width="3" cx="27" cy="-760.5" rx="27" ry="18"/>
<text xml:space="preserve" text-anchor="middle" x="27" y="-756.8" font-family="Times,serif" font-size="11.00" fill="white">29</text>
</g>
<!-- n31 -->
<g id="node16" class="node">
<title>n31</title>
<ellipse fill="#cf4500" stroke="black" cx="27" cy="-678" rx="27" ry="18"/>
<text xml:space="preserve" text-anchor="middle" x="27" y="-674.3" font-family="Times,serif" font-size="11.00" fill="white">31</text>
</g>
<!-- n29&#45;&gt;n31 -->
<g id="edge11" class="edge">
<title>n29&#45;&gt;n31</title>
<path fill="none" stroke="#ddbb99" d="M27,-741.23C27,-731.35 27,-718.93 27,-707.78"/>
<polygon fill="#ddbb99" stroke="#ddbb99" points="30.5,-707.88 27,-697.88 23.5,-707.88 30.5,-707.88"/>
<text xml:space="preserve" text-anchor="middle" x="38.62" y="-715.95" font-family="Times,serif" font-size="9.00" fill="#ddbb99"> x + 2 </text>
</g>
<!-- n33 -->
<g id="node17" class="node">
<title>n33</title>
<ellipse fill="#0045cf" stroke="black" cx="27" cy="-595.5" rx="27" ry="18"/>
<text xml:space="preserve" text-anchor="middle" x="27" y="-591.8" font-family="Times,serif" font-size="11.00" fill="white">33</text>
</g>
<!-- n31&#45;&gt;n33 -->
<g id="edge13" class="edge">
<title>n31&#45;&gt;n33</title>
<path fill="none" stroke="#ddbb99" d="M27,-659.53C27,-649.51 27,-636.68 27,-625.21"/>
<polygon fill="#ddbb99" stroke="#ddbb99" points="30.5,-625.45 27,-615.45 23.5,-625.45 30.5,-625.45"/>
<text xml:space="preserve" text-anchor="middle" x="38.62" y="-633.45" font-family="Times,serif" font-size="9.00" fill="#ddbb99"> x + 2 </text>
</g>
<!-- n33&#45;&gt;n11 -->
<g id="edge14" class="edge">
<title>n33&#45;&gt;n11</title>
<path fill="none" stroke="#6688bb" d="M27,-577.03C27,-567.32 27,-554.97 27,-543.78"/>
<polygon fill="#6688bb" stroke="#6688bb" points="30.5,-543.78 27,-533.78 23.5,-543.78 30.5,-543.78"/>
<text xml:space="preserve" text-anchor="middle" x="38.25" y="-550.95" font-family="Times,serif" font-size="9.00" fill="#6688bb"> x // 3 </text>
</g>
</g>
</svg>
