<?xml version="1.0" encoding="UTF-8" standalone="no"?>
<!DOCTYPE svg PUBLIC "-//W3C//DTD SVG 1.1//EN"
 "http://www.w3.org/Graphics/SVG/1.1/DTD/svg11.dtd">
<!-- Generated by graphviz version 14.1.3 (20260303.0454)
 -->
<!-- Pages: 1 -->
<svg width="73pt" height="539pt"
 viewBox="0.00 0.00 73.00 539.00" xmlns="http://www.w3.org/2000/svg" xmlns:xlink="http://www.w3.org/1999/xlink">
<g id="graph0" class="graph" transform="scale(1 1) rotate(0) translate(4 535)">
<polygon fill="white" stroke="none" points="-4,4 -4,-535 69.25,-535 69.25,4 -4,4"/>
<!-- nx_28302c203029 -->
<g id="node1" class="node">
<title>nx_28302c203029</title>
<ellipse fill="#ffddcc" stroke="black" stroke-width="3" cx="27" cy="-513" rx="27" ry="18"/>
<text xml:space="preserve" text-anchor="middle" x="27" y="-509.3" font-family="Times,serif" font-size="11.00">(0, 0)</text>
</g>
<!-- nx_28302c203529 -->
<g id="node3" class="node">
<title>nx_28302c203529</title>
<ellipse fill="#cceeee" stroke="black" cx="27" cy="-430.5" rx="27" ry="18"/>
<text xml:space="preserve" text-anchor="middle" x="27" y="-426.8" font-family="Times,serif" font-size="11.00">(0, 5)</text>
</g>
<!-- nx_28302c203029&#45;&gt;nx_28302c203529 -->
<g id="edge1" class="edge">
<title>nx_28302c203029&#45;&gt;nx_28302c203529</title>
<path fill="none" stroke="#ddbb99" d="M27,-493.73C27,-483.85 27,-471.43 27,-460.28"/>
<polygon fill="#ddbb99" stroke="#ddbb99" points="30.5,-460.38 27,-450.38 23.5,-460.38 30.5,-460.38"/>
<text xml:space="preserve" text-anchor="middle" x="40.12" y="-468.45" font-family="Times,serif" font-size="9.00" fill="#ddbb99"> fill 5L </text>
</g>
<!-- nx_28302c203229 -->
<g id="node2" class="node">
<title>nx_28302c203229</title>
<ellipse fill="#cceeee" stroke="black" cx="27" cy="-265.5" rx="27" ry="18"/>
<text xml:space="preserve" text-anchor="middle" x="27" y="-261.8" font-family="Times,serif" font-size="11.00">(0, 2)</text>
</g>
<!-- nx_28322c203029 -->
<g id="node4" class="node">
<title>nx_28322c203029</title>
<ellipse fill="#ffddcc" stroke="black" cx="27" cy="-183" rx="27" ry="18"/>
<text xml:space="preserve" text-anchor="middle" x="27" y="-179.3" font-family="Times,serif" font-size="11.00">(2, 0)</text>
</g>
<!-- nx_28302c203229&#45;&gt;nx_28322c203029 -->
<g id="edge2" class="edge">
<title>nx_28302c203229&#45;&gt;nx_28322c203029</title>
<path fill="none" stroke="#77aaaa" d="M27,-247.03C27,-237.01 27,-224.18 27,-212.71"/>
<polygon fill="#77aaaa" stroke="#77aaaa" points="30.5,-212.95 27,-202.95 23.5,-212.95 30.5,-212.95"/>
<text xml:space="preserve" text-anchor="middle" x="43.5" y="-220.95" font-family="Times,serif" font-size="9.00" fill="#77aaaa"> 5L→3L </text>
</g>
<!-- nx_28332c203229 -->
<g id="node6" class="node">
<title>nx_28332c203229</title>
<ellipse fill="#cceecc" stroke="black" cx="27" cy="-348" rx="27" ry="18"/>
<text xml:space="preserve" text-anchor="middle" x="27" y="-344.3" font-family="Times,serif" font-size="11.00">(3, 2)</text>
</g>
<!-- nx_28302c203529&#45;&gt;nx_28332c203229 -->
<g id="edge3" class="edge">
<title>nx_28302c203529&#45;&gt;nx_28332c203229</title>
<path fill="none" stroke="#77aaaa" d="M27,-412.03C27,-402.01 27,-389.18 27,-377.71"/>
<polygon fill="#77aaaa" stroke="#77aaaa" points="30.5,-377.95 27,-367.95 23.5,-377.95 30.5,-377.95"/>
<text xml:space="preserve" text-anchor="middle" x="43.5" y="-385.95" font-family="Times,serif" font-size="9.00" fill="#77aaaa"> 5L→3L </text>
</g>
<!-- nx_28322c203529 -->
<g id="node5" class="node">
<title>nx_28322c203529</title>
<ellipse fill="#cceeee" stroke="black" cx="27" cy="-100.5" rx="27" ry="18"/>
<text xml:space="preserve" text-anchor="middle" x="27" y="-96.8" font-family="Times,serif" font-size="11.00">(2, 5)</text>
</g>
<!-- nx_28322c203029&#45;&gt;nx_28322c203529 -->
<g id="edge4" class="edge">
<title>nx_28322c203029&#45;&gt;nx_28322c203529</title>
<path fill="none" stroke="#ddbb99" d="M27,-164.53C27,-154.51 27,-141.68 27,-130.21"/>
<polygon fill="#ddbb99" stroke="#ddbb99" points="30.5,-130.45 27,-120.45 23.5,-130.45 30.5,-130.45"/>
<text xml:space="preserve" text-anchor="middle" x="40.12" y="-138.45" font-family="Times,serif" font-size="9.00" fill="#ddbb99"> fill 5L </text>
</g>
<!-- nx_28332c203429 -->
<g id="node7" class="node">
<title>nx_28332c203429</title>
<ellipse fill="none" stroke="black" cx="27" cy="-18" rx="27" ry="18"/>
<text xml:space="preserve" text-anchor="middle" x="27" y="-14.3" font-family="Times,serif" font-size="11.00">(3, 4)</text>
</g>
<!-- nx_28322c203529&#45;&gt;nx_28332c203429 -->
<g id="edge5" class="edge">
<title>nx_28322c203529&#45;&gt;nx_28332c203429</title>
<path fill="none" stroke="#77aaaa" d="M27,-82.03C27,-72.01 27,-59.18 27,-47.71"/>
<polygon fill="#77aaaa" stroke="#77aaaa" points="30.5,-47.95 27,-37.95 23.5,-47.95 30.5,-47.95"/>
<text xml:space="preserve" text-anchor="middle" x="43.5" y="-55.95" font-family="Times,serif" font-size="9.00" fill="#77aaaa"> 5L→3L </text>
</g>
<!-- nx_28332c203229&#45;&gt;nx_28302c203229 -->
<g id="edge6" class="edge">
<title>nx_28332c203229&#45;&gt;nx_28302c203229</title>
<path fill="none" stroke="#77aa77" d="M27,-329.53C27,-319.51 27,-306.68 27,-295.21"/>
<polygon fill="#77aa77" stroke="#77aa77" points="30.5,-295.45 27,-285.45 23.5,-295.45 30.5,-295.45"/>
<text xml:space="preserve" text-anchor="middle" x="46.12" y="-303.45" font-family="Times,serif" font-size="9.00" fill="#77aa77"> empty 3L </text>
</g>
</g>
</svg>
