<?xml version="1.0" encoding="UTF-8" standalone="no"?>
<!DOCTYPE svg PUBLIC "-//W3C//DTD SVG 1.1//EN"
 "http://www.w3.org/Graphics/SVG/1.1/DTD/svg11.dtd">
<!-- Generated by graphviz version 14.1.3 (20260303.0454)
 -->
<!-- Pages: 1 -->
<svg width="278pt" height="292pt"
 viewBox="0.00 0.00 278.00 292.00" xmlns="http://www.w3.org/2000/svg" xmlns:xlink="http://www.w3.org/1999/xlink">
<g id="graph0" class="graph" transform="scale(1 1) rotate(0) translate(4 287.5)">
<polygon fill="white" stroke="none" points="-4,4 -4,-287.5 274,-287.5 274,4 -4,4"/>
<!-- nx_ -->
<g id="node1" class="node">
<title>nx_</title>
<ellipse fill="#ccddff" stroke="black" stroke-width="3" cx="134" cy="-265.5" rx="27" ry="18"/>
</g>
<!-- nx_61 -->
<g id="node2" class="node">
<title>nx_61</title>
<path fill="#ccddff" stroke="black" stroke-width="0.5" d="M134,-183C134,-183 161,-183 161,-183 161,-183.59 160.96,-184.18 160.87,-184.76 160.78,-185.35 160.65,-185.93 160.48,-186.51 160.31,-187.09 160.09,-187.66 159.84,-188.23 159.58,-188.79 159.28,-189.34 158.94,-189.89 158.61,-190.43 158.23,-190.97 157.81,-191.49 157.4,-192 156.94,-192.51 156.45,-193 155.96,-193.49 155.43,-193.96 154.87,-194.42 154.31,-194.87 153.72,-195.31 153.09,-195.73 152.47,-196.14 151.81,-196.54 151.13,-196.91 150.45,-197.29 149.74,-197.64 149,-197.97 148.27,-198.29 147.51,-198.6 146.73,-198.87 145.95,-199.15 145.15,-199.4 144.33,-199.63 143.52,-199.86 142.68,-200.05 141.84,-200.22 140.99,-200.4 140.13,-200.54 139.27,-200.65 138.4,-200.77 137.53,-200.86 136.65,-200.91 135.77,-200.97 134.88,-201 134,-201 133.12,-201 132.23,-200.97 131.35,-200.91 130.47,-200.86 129.6,-200.77 128.73,-200.65 127.87,-200.54 127.01,-200.4 126.16,-200.22 125.32,-200.05 124.48,-199.86 123.67,-199.63 122.85,-199.4 122.05,-199.15 121.27,-198.87 120.49,-198.6 119.73,-198.29 119,-197.97 118.26,-197.64 117.55,-197.29 116.87,-196.91 116.19,-196.54 115.53,-196.14 114.91,-195.73 114.28,-195.31 113.69,-194.87 113.13,-194.42 112.57,-193.96 112.04,-193.49 111.55,-193 111.06,-192.51 110.6,-192 110.19,-191.49 109.77,-190.97 109.39,-190.43 109.06,-189.89 108.72,-189.34 108.42,-188.79 108.16,-188.23 107.91,-187.66 107.69,-187.09 107.52,-186.51 107.35,-185.93 107.22,-185.35 107.13,-184.76 107.04,-184.18 107,-183.59 107,-183 107,-183 134,-183 134,-183"/>
<path fill="#ffddcc" stroke="black" stroke-width="0.5" d="M134,-183C134,-183 107,-183 107,-183 107,-182.41 107.04,-181.82 107.13,-181.24 107.22,-180.65 107.35,-180.07 107.52,-179.49 107.69,-178.91 107.91,-178.34 108.16,-177.77 108.42,-177.21 108.72,-176.66 109.06,-176.11 109.39,-175.57 109.77,-175.03 110.19,-174.51 110.6,-174 111.06,-173.49 111.55,-173 112.04,-172.51 112.57,-172.04 113.13,-171.58 113.69,-171.13 114.28,-170.69 114.91,-170.27 115.53,-169.86 116.19,-169.46 116.87,-169.09 117.55,-168.71 118.26,-168.36 119,-168.03 119.73,-167.71 120.49,-167.4 121.27,-167.13 122.05,-166.85 122.85,-166.6 123.67,-166.37 124.48,-166.14 125.32,-165.95 126.16,-165.78 127.01,-165.6 127.87,-165.46 128.73,-165.35 129.6,-165.23 130.47,-165.14 131.35,-165.09 132.23,-165.03 133.12,-165 134,-165 134.88,-165 135.77,-165.03 136.65,-165.09 137.53,-165.14 138.4,-165.23 139.27,-165.35 140.13,-165.46 140.99,-165.6 141.84,-165.78 142.68,-165.95 143.52,-166.14 144.33,-166.37 145.15,-166.6 145.95,-166.85 146.73,-167.13 147.51,-167.4 148.27,-167.71 149,-168.03 149.74,-168.36 150.45,-168.71 151.13,-169.09 151.81,-169.46 152.47,-169.86 153.09,-170.27 153.72,-170.69 154.31,-171.13 154.87,-171.58 155.43,-172.04 155.96,-172.51 156.45,-173 156.94,-173.49 157.4,-174 157.81,-174.51 158.23,-175.03 158.61,-175.57 158.94,-176.11 159.28,-176.66 159.58,-177.21 159.84,-177.77 160.09,-178.34 160.31,-178.91 160.48,-179.49 160.65,-180.07 160.78,-180.65 160.87,-181.24 160.96,-181.82 161,-182.41 161,-183 161,-183 134,-183 134,-183"/>
<ellipse fill="none" stroke="black" cx="134" cy="-183" rx="27" ry="18"/>
<text xml:space="preserve" text-anchor="middle" x="134" y="-179.3" font-family="Times,serif" font-size="11.00">a</text>
</g>
<!-- nx_&#45;&gt;nx_61 -->
<g id="edge1" class="edge">
<title>nx_&#45;&gt;nx_61</title>
<path fill="none" stroke="#6688bb" d="M134,-246.23C134,-236.35 134,-223.93 134,-212.78"/>
<polygon fill="#6688bb" stroke="#6688bb" points="137.5,-212.88 134,-202.88 130.5,-212.88 137.5,-212.88"/>
<text xml:space="preserve" text-anchor="middle" x="140.75" y="-220.95" font-family="Times,serif" font-size="9.00" fill="#6688bb"> +a </text>
</g>
<!-- nx_6161 -->
<g id="node3" class="node">
<title>nx_6161</title>
<path fill="#ccddff" stroke="black" stroke-width="0.5" d="M99,-100.5C99,-100.5 126,-100.5 126,-100.5 126,-101.09 125.96,-101.68 125.87,-102.26 125.78,-102.85 125.65,-103.43 125.48,-104.01 125.31,-104.59 125.09,-105.16 124.84,-105.73 124.58,-106.29 124.28,-106.84 123.94,-107.39 123.61,-107.93 123.23,-108.47 122.81,-108.99 122.4,-109.5 121.94,-110.01 121.45,-110.5 120.96,-110.99 120.43,-111.46 119.87,-111.92 119.31,-112.37 118.72,-112.81 118.09,-113.23 117.47,-113.64 116.81,-114.04 116.13,-114.41 115.45,-114.79 114.74,-115.14 114,-115.47 113.27,-115.79 112.51,-116.1 111.73,-116.37 110.95,-116.65 110.15,-116.9 109.33,-117.13 108.52,-117.36 107.68,-117.55 106.84,-117.72 105.99,-117.9 105.13,-118.04 104.27,-118.15 103.4,-118.27 102.53,-118.36 101.65,-118.41 100.77,-118.47 99.88,-118.5 99,-118.5 98.12,-118.5 97.23,-118.47 96.35,-118.41 95.47,-118.36 94.6,-118.27 93.73,-118.15 92.87,-118.04 92.01,-117.9 91.16,-117.72 90.32,-117.55 89.48,-117.36 88.67,-117.13 87.85,-116.9 87.05,-116.65 86.27,-116.37 85.49,-116.1 84.73,-115.79 84,-115.47 83.26,-115.14 82.55,-114.79 81.87,-114.41 81.19,-114.04 80.53,-113.64 79.91,-113.23 79.28,-112.81 78.69,-112.37 78.13,-111.92 77.57,-111.46 77.04,-110.99 76.55,-110.5 76.06,-110.01 75.6,-109.5 75.19,-108.99 74.77,-108.47 74.39,-107.93 74.06,-107.39 73.72,-106.84 73.42,-106.29 73.16,-105.73 72.91,-105.16 72.69,-104.59 72.52,-104.01 72.35,-103.43 72.22,-102.85 72.13,-102.26 72.04,-101.68 72,-101.09 72,-100.5 72,-100.5 99,-100.5 99,-100.5"/>
<path fill="#ffddcc" stroke="black" stroke-width="0.5" d="M99,-100.5C99,-100.5 72,-100.5 72,-100.5 72,-99.91 72.04,-99.32 72.13,-98.74 72.22,-98.15 72.35,-97.57 72.52,-96.99 72.69,-96.41 72.91,-95.84 73.16,-95.27 73.42,-94.71 73.72,-94.16 74.06,-93.61 74.39,-93.07 74.77,-92.53 75.19,-92.01 75.6,-91.5 76.06,-90.99 76.55,-90.5 77.04,-90.01 77.57,-89.54 78.13,-89.08 78.69,-88.63 79.28,-88.19 79.91,-87.77 80.53,-87.36 81.19,-86.96 81.87,-86.59 82.55,-86.21 83.26,-85.86 84,-85.53 84.73,-85.21 85.49,-84.9 86.27,-84.63 87.05,-84.35 87.85,-84.1 88.67,-83.87 89.48,-83.64 90.32,-83.45 91.16,-83.28 92.01,-83.1 92.87,-82.96 93.73,-82.85 94.6,-82.73 95.47,-82.64 96.35,-82.59 97.23,-82.53 98.12,-82.5 99,-82.5 99.88,-82.5 100.77,-82.53 101.65,-82.59 102.53,-82.64 103.4,-82.73 104.27,-82.85 105.13,-82.96 105.99,-83.1 106.84,-83.28 107.68,-83.45 108.52,-83.64 109.33,-83.87 110.15,-84.1 110.95,-84.35 111.73,-84.63 112.51,-84.9 113.27,-85.21 114,-85.53 114.74,-85.86 115.45,-86.21 116.13,-86.59 116.81,-86.96 117.47,-87.36 118.09,-87.77 118.72,-88.19 119.31,-88.63 119.87,-89.08 120.43,-89.54 120.96,-90.01 121.45,-90.5 121.94,-90.99 122.4,-91.5 122.81,-92.01 123.23,-92.53 123.61,-93.07 123.94,-93.61 124.28,-94.16 124.58,-94.71 124.84,-95.27 125.09,-95.84 125.31,-96.41 125.48,-96.99 125.65,-97.57 125.78,-98.15 125.87,-98.74 125.96,-99.32 126,-99.91 126,-100.5 126,-100.5 99,-100.5 99,-100.5"/>
<ellipse fill="none" stroke="black" cx="99" cy="-100.5" rx="27" ry="18"/>
<text xml:space="preserve" text-anchor="middle" x="99" y="-96.8" font-family="Times,serif" font-size="11.00">aa</text>
</g>
<!-- nx_61&#45;&gt;nx_6161 -->
<g id="edge2" class="edge">
<title>nx_61&#45;&gt;nx_6161</title>
<path fill="none" stroke="#6688bb" d="M126.75,-165.32C122.15,-154.74 116.09,-140.81 110.81,-128.66"/>
<polygon fill="#6688bb" stroke="#6688bb" points="114.04,-127.32 106.85,-119.55 107.62,-130.11 114.04,-127.32"/>
<text xml:space="preserve" text-anchor="middle" x="125.35" y="-138.45" font-family="Times,serif" font-size="9.00" fill="#6688bb"> +a </text>
</g>
<!-- nx_6162 -->
<g id="node6" class="node">
<title>nx_6162</title>
<path fill="#ccddff" stroke="black" stroke-width="0.5" d="M171,-100.5C171,-100.5 198,-100.5 198,-100.5 198,-101.09 197.96,-101.68 197.87,-102.26 197.78,-102.85 197.65,-103.43 197.48,-104.01 197.31,-104.59 197.09,-105.16 196.84,-105.73 196.58,-106.29 196.28,-106.84 195.94,-107.39 195.61,-107.93 195.23,-108.47 194.81,-108.99 194.4,-109.5 193.94,-110.01 193.45,-110.5 192.96,-110.99 192.43,-111.46 191.87,-111.92 191.31,-112.37 190.72,-112.81 190.09,-113.23 189.47,-113.64 188.81,-114.04 188.13,-114.41 187.45,-114.79 186.74,-115.14 186,-115.47 185.27,-115.79 184.51,-116.1 183.73,-116.37 182.95,-116.65 182.15,-116.9 181.33,-117.13 180.52,-117.36 179.68,-117.55 178.84,-117.72 177.99,-117.9 177.13,-118.04 176.27,-118.15 175.4,-118.27 174.53,-118.36 173.65,-118.41 172.77,-118.47 171.88,-118.5 171,-118.5 170.12,-118.5 169.23,-118.47 168.35,-118.41 167.47,-118.36 166.6,-118.27 165.73,-118.15 164.87,-118.04 164.01,-117.9 163.16,-117.72 162.32,-117.55 161.48,-117.36 160.67,-117.13 159.85,-116.9 159.05,-116.65 158.27,-116.37 157.49,-116.1 156.73,-115.79 156,-115.47 155.26,-115.14 154.55,-114.79 153.87,-114.41 153.19,-114.04 152.53,-113.64 151.91,-113.23 151.28,-112.81 150.69,-112.37 150.13,-111.92 149.57,-111.46 149.04,-110.99 148.55,-110.5 148.06,-110.01 147.6,-109.5 147.19,-108.99 146.77,-108.47 146.39,-107.93 146.06,-107.39 145.72,-106.84 145.42,-106.29 145.16,-105.73 144.91,-105.16 144.69,-104.59 144.52,-104.01 144.35,-103.43 144.22,-102.85 144.13,-102.26 144.04,-101.68 144,-101.09 144,-100.5 144,-100.5 171,-100.5 171,-100.5"/>
<path fill="#ffddcc" stroke="black" stroke-width="0.5" d="M171,-100.5C171,-100.5 144,-100.5 144,-100.5 144,-99.91 144.04,-99.32 144.13,-98.74 144.22,-98.15 144.35,-97.57 144.52,-96.99 144.69,-96.41 144.91,-95.84 145.16,-95.27 145.42,-94.71 145.72,-94.16 146.06,-93.61 146.39,-93.07 146.77,-92.53 147.19,-92.01 147.6,-91.5 148.06,-90.99 148.55,-90.5 149.04,-90.01 149.57,-89.54 150.13,-89.08 150.69,-88.63 151.28,-88.19 151.91,-87.77 152.53,-87.36 153.19,-86.96 153.87,-86.59 154.55,-86.21 155.26,-85.86 156,-85.53 156.73,-85.21 157.49,-84.9 158.27,-84.63 159.05,-84.35 159.85,-84.1 160.67,-83.87 161.48,-83.64 162.32,-83.45 163.16,-83.28 164.01,-83.1 164.87,-82.96 165.73,-82.85 166.6,-82.73 167.47,-82.64 168.35,-82.59 169.23,-82.53 170.12,-82.5 171,-82.5 171.88,-82.5 172.77,-82.53 173.65,-82.59 174.53,-82.64 175.4,-82.73 176.27,-82.85 177.13,-82.96 177.99,-83.1 178.84,-83.28 179.68,-83.45 180.52,-83.64 181.33,-83.87 182.15,-84.1 182.95,-84.35 183.73,-84.63 184.51,-84.9 185.27,-85.21 186,-85.53 186.74,-85.86 187.45,-86.21 188.13,-86.59 188.81,-86.96 189.47,-87.36 190.09,-87.77 190.72,-88.19 191.31,-88.63 191.87,-89.08 192.43,-89.54 192.96,-90.01 193.45,-90.5 193.94,-90.99 194.4,-91.5 194.81,-92.01 195.23,-92.53 195.61,-93.07 195.94,-93.61 196.28,-94.16 196.58,-94.71 196.84,-95.27 197.09,-95.84 197.31,-96.41 197.48,-96.99 197.65,-97.57 197.78,-98.15 197.87,-98.74 197.96,-99.32 198,-99.91 198,-100.5 198,-100.5 171,-100.5 171,-100.5"/>
<ellipse fill="none" stroke="black" cx="171" cy="-100.5" rx="27" ry="18"/>
<text xml:space="preserve" text-anchor="middle" x="171" y="-96.8" font-family="Times,serif" font-size="11.00">ab</text>
</g>
<!-- nx_61&#45;&gt;nx_6162 -->
<g id="edge3" class="edge">
<title>nx_61&#45;&gt;nx_6162</title>
<path fill="none" stroke="#ddbb99" d="M141.67,-165.32C146.58,-154.63 153.06,-140.53 158.69,-128.29"/>
<polygon fill="#ddbb99" stroke="#ddbb99" points="161.72,-130.08 162.71,-119.53 155.35,-127.16 161.72,-130.08"/>
<text xml:space="preserve" text-anchor="middle" x="161.84" y="-138.45" font-family="Times,serif" font-size="9.00" fill="#ddbb99"> +b </text>
</g>
<!-- nx_616161 -->
<g id="node4" class="node">
<title>nx_616161</title>
<ellipse fill="none" stroke="black" cx="27" cy="-18" rx="27" ry="18"/>
<text xml:space="preserve" text-anchor="middle" x="27" y="-14.3" font-family="Times,serif" font-size="11.00">aaa</text>
</g>
<!-- nx_6161&#45;&gt;nx_616161 -->
<g id="edge4" class="edge">
<title>nx_6161&#45;&gt;nx_616161</title>
<path fill="none" stroke="#6688bb" d="M85.79,-84.74C75.2,-72.89 60.14,-56.06 47.92,-42.39"/>
<polygon fill="#6688bb" stroke="#6688bb" points="50.65,-40.19 41.38,-35.07 45.43,-44.86 50.65,-40.19"/>
<text xml:space="preserve" text-anchor="middle" x="74.06" y="-55.95" font-family="Times,serif" font-size="9.00" fill="#6688bb"> +a </text>
</g>
<!-- nx_616162 -->
<g id="node5" class="node">
<title>nx_616162</title>
<ellipse fill="none" stroke="black" cx="99" cy="-18" rx="27" ry="18"/>
<text xml:space="preserve" text-anchor="middle" x="99" y="-14.3" font-family="Times,serif" font-size="11.00">aab</text>
</g>
<!-- nx_6161&#45;&gt;nx_616162 -->
<g id="edge5" class="edge">
<title>nx_6161&#45;&gt;nx_616162</title>
<path fill="none" stroke="#ddbb99" d="M99,-82.03C99,-72.01 99,-59.18 99,-47.71"/>
<polygon fill="#ddbb99" stroke="#ddbb99" points="102.5,-47.95 99,-37.95 95.5,-47.95 102.5,-47.95"/>
<text xml:space="preserve" text-anchor="middle" x="106.12" y="-55.95" font-family="Times,serif" font-size="9.00" fill="#ddbb99"> +b </text>
</g>
<!-- nx_616261 -->
<g id="node7" class="node">
<title>nx_616261</title>
<ellipse fill="none" stroke="black" cx="171" cy="-18" rx="27" ry="18"/>
<text xml:space="preserve" text-anchor="middle" x="171" y="-14.3" font-family="Times,serif" font-size="11.00">aba</text>
</g>
<!-- nx_6162&#45;&gt;nx_616261 -->
<g id="edge6" class="edge">
<title>nx_6162&#45;&gt;nx_616261</title>
<path fill="none" stroke="#6688bb" d="M171,-82.03C171,-72.01 171,-59.18 171,-47.71"/>
<polygon fill="#6688bb" stroke="#6688bb" points="174.5,-47.95 171,-37.95 167.5,-47.95 174.5,-47.95"/>
<text xml:space="preserve" text-anchor="middle" x="177.75" y="-55.95" font-family="Times,serif" font-size="9.00" fill="#6688bb"> +a </text>
</g>
<!-- nx_616262 -->
<g id="node8" class="node">
<title>nx_616262</title>
<ellipse fill="none" stroke="black" cx="243" cy="-18" rx="27" ry="18"/>
<text xml:space="preserve" text-anchor="middle" x="243" y="-14.3" font-family="Times,serif" font-size="11.00">abb</text>
</g>
<!-- nx_6162&#45;&gt;nx_616262 -->
<g id="edge7" class="edge">
<title>nx_6162&#45;&gt;nx_616262</title>
<path fill="none" stroke="#ddbb99" d="M184.21,-84.74C194.8,-72.89 209.86,-56.06 222.08,-42.39"/>
<polygon fill="#ddbb99" stroke="#ddbb99" points="224.57,-44.86 228.62,-35.07 219.35,-40.19 224.57,-44.86"/>
<text xml:space="preserve" text-anchor="middle" x="218.44" y="-55.95" font-family="Times,serif" font-size="9.00" fill="#ddbb99"> +b </text>
</g>
</g>
</svg>
