<?xml version="1.0" encoding="UTF-8" standalone="no"?>
<!DOCTYPE svg PUBLIC "-//W3C//DTD SVG 1.1//EN"
 "http://www.w3.org/Graphics/SVG/1.1/DTD/svg11.dtd">
<!-- Generated by graphviz version 14.1.3 (20260303.0454)
 -->
<!-- Pages: 1 -->
<svg width="62pt" height="292pt"
 viewBox="0.00 0.00 62.00 292.00" xmlns="http://www.w3.org/2000/svg" xmlns:xlink="http://www.w3.org/1999/xlink">
<g id="graph0" class="graph" transform="scale(1 1) rotate(0) translate(4 287.5)">
<polygon fill="white" stroke="none" points="-4,4 -4,-287.5 58,-287.5 58,4 -4,4"/>
<!-- n0 -->
<g id="node1" class="node">
<title>n0</title>
<ellipse fill="none" stroke="black" cx="27" cy="-18" rx="27" ry="18"/>
<text xml:space="preserve" text-anchor="middle" x="27" y="-14.3" font-family="Times,serif" font-size="11.00">0</text>
</g>
<!-- n1 -->
<g id="node2" class="node">
<title>n1</title>
<ellipse fill="#ccddff" stroke="black" cx="27" cy="-100.5" rx="27" ry="18"/>
<text xml:space="preserve" text-anchor="middle" x="27" y="-96.8" font-family="Times,serif" font-size="11.00">1</text>
</g>
<!-- n1&#45;&gt;n0 -->
<g id="edge1" class="edge">
<title>n1&#45;&gt;n0</title>
<path fill="none" stroke="#6688bb" d="M27,-82.03C27,-72.01 27,-59.18 27,-47.71"/>
<polygon fill="#6688bb" stroke="#6688bb" points="30.5,-47.95 27,-37.95 23.5,-47.95 30.5,-47.95"/>
<text xml:space="preserve" text-anchor="middle" x="33" y="-55.95" font-family="Times,serif" font-size="9.00" fill="#6688bb"> &#45;1 </text>
</g>
<!-- n2 -->
<g id="node3" class="node">
<title>n2</title>
<ellipse fill="#ccddff" stroke="black" cx="27" cy="-183" rx="27" ry="18"/>
<text xml:space="preserve" text-anchor="middle" x="27" y="-179.3" font-family="Times,serif" font-size="11.00">2</text>
</g>
<!-- n2&#45;&gt;n1 -->
<g id="edge2" class="edge">
<title>n2&#45;&gt;n1</title>
<path fill="none" stroke="#6688bb" d="M27,-164.53C27,-154.51 27,-141.68 27,-130.21"/>
<polygon fill="#6688bb" stroke="#6688bb" points="30.5,-130.45 27,-120.45 23.5,-130.45 30.5,-130.45"/>
<text xml:space="preserve" text-anchor="middle" x="33" y="-138.45" font-family="Times,serif" font-size="9.00" fill="#6688bb"> &#45;1 </text>
</g>
<!-- n3 -->
<g id="node4" class="node">
<title>n3</title>
<ellipse fill="#ccddff" stroke="black" stroke-width="3" cx="27" cy="-265.5" rx="27" ry="18"/>
<text xml:space="preserve" text-anchor="middle" x="27" y="-261.8" font-family="Times,serif" font-size="11.00">3</text>
</g>
<!-- n3&#45;&gt;n2 -->
<g id="edge3" class="edge">
<title>n3&#45;&gt;n2</title>
<path fill="none" stroke="#6688bb" d="M27,-246.23C27,-236.35 27,-223.93 27,-212.78"/>
<polygon fill="#6688bb" stroke="#6688bb" points="30.5,-212.88 27,-202.88 23.5,-212.88 30.5,-212.88"/>
<text xml:space="preserve" text-anchor="middle" x="33" y="-220.95" font-family="Times,serif" font-size="9.00" fill="#6688bb"> &#45;1 </text>
</g>
</g>
</svg>
