<?xml version="1.0" encoding="UTF-8" standalone="no"?>
<!DOCTYPE svg PUBLIC "-//W3C//DTD SVG 1.1//EN"
 "http://www.w3.org/Graphics/SVG/1.1/DTD/svg11.dtd">
<!-- Generated by graphviz version 14.1.3 (20260303.0454)
 -->
<!-- Pages: 1 -->
<svg width="62pt" height="127pt"
 viewBox="0.00 0.00 62.00 127.00" xmlns="http://www.w3.org/2000/svg" xmlns:xlink="http://www.w3.org/1999/xlink">
<g id="graph0" class="graph" transform="scale(1 1) rotate(0) translate(4 122.5)">
<polygon fill="white" stroke="none" points="-4,4 -4,-122.5 58,-122.5 58,4 -4,4"/>
<!-- n1 -->
<g id="node1" class="node">
<title>n1</title>
<ellipse fill="#ffddcc" stroke="black" stroke-width="3" cx="27" cy="-100.5" rx="27" ry="18"/>
<text xml:space="preserve" text-anchor="middle" x="27" y="-96.8" font-family="Times,serif" font-size="11.00">1</text>
</g>
<!-- n2 -->
<g id="node2" class="node">
<title>n2</title>
<ellipse fill="#ccddff" stroke="black" cx="27" cy="-18" rx="27" ry="18"/>
<text xml:space="preserve" text-anchor="middle" x="27" y="-14.3" font-family="Times,serif" font-size="11.00">2</text>
</g>
<!-- n1&#45;&gt;n2 -->
<g id="edge1" class="edge">
<title>n1&#45;&gt;n2</title>
<path fill="none" stroke="#ddbb99" d="M17.92,-82.15C15.5,-76.65 13.22,-70.46 12,-64.5 10.72,-58.29 11.54,-51.74 13.31,-45.61"/>
<polygon fill="#ddbb99" stroke="#ddbb99" points="16.46,-47.18 16.76,-36.59 9.92,-44.69 16.46,-47.18"/>
<text xml:space="preserve" text-anchor="middle" x="16.5" y="-55.95" font-family="Times,serif" font-size="9.00" fill="#ddbb99"> b </text>
</g>
<!-- n2&#45;&gt;n1 -->
<g id="edge2" class="edge">
<title>n2&#45;&gt;n1</title>
<path fill="none" stroke="#6688bb" d="M27,-36.37C27,-46.19 27,-58.74 27,-70.05"/>
<polygon fill="#6688bb" stroke="#6688bb" points="23.5,-69.72 27,-79.72 30.5,-69.72 23.5,-69.72"/>
<text xml:space="preserve" text-anchor="middle" x="31.12" y="-55.95" font-family="Times,serif" font-size="9.00" fill="#6688bb"> a </text>
</g>
</g>
</svg>
