<?xml version="1.0" encoding="UTF-8" standalone="no"?>
<!DOCTYPE svg PUBLIC "-//W3C//DTD SVG 1.1//EN"
 "http://www.w3.org/Graphics/SVG/1.1/DTD/svg11.dtd">
<!-- Generated by graphviz version 14.1.3 (20260303.0454)
 -->
<!-- Pages: 1 -->
<svg width="62pt" height="257pt"
 viewBox="0.00 0.00 62.00 257.00" xmlns="http://www.w3.org/2000/svg" xmlns:xlink="http://www.w3.org/1999/xlink">
<g id="graph0" class="graph" transform="scale(1 1) rotate(0) translate(4 252.94)">
<polygon fill="white" stroke="none" points="-4,4 -4,-252.94 58,-252.94 58,4 -4,4"/>
<!-- n2 -->
<g id="node1" class="node">
<title>n2</title>
<ellipse fill="#0045cf" stroke="black" stroke-width="3" cx="27" cy="-230.94" rx="27" ry="18"/>
<text xml:space="preserve" text-anchor="middle" x="27" y="-227.24" font-family="Times,serif" font-size="11.00" fill="white">2</text>
</g>
<!-- n3 -->
<g id="node2" class="node">
<title>n3</title>
<ellipse fill="#ccddff" stroke="black" stroke-width="3" cx="27" cy="-148.44" rx="27" ry="18"/>
<text xml:space="preserve" text-anchor="middle" x="27" y="-144.74" font-family="Times,serif" font-size="11.00">3</text>
</g>
<!-- n2&#45;&gt;n3 -->
<g id="edge1" class="edge">
<title>n2&#45;&gt;n3</title>
<path fill="none" stroke="#6688bb" d="M27,-211.67C27,-202.07 27,-190.05 27,-179.14"/>
<polygon fill="#6688bb" stroke="#6688bb" points="30.5,-179.43 27,-169.43 23.5,-179.43 30.5,-179.43"/>
<text xml:space="preserve" text-anchor="middle" x="34.12" y="-186.39" font-family="Times,serif" font-size="9.00" fill="#6688bb"> +1 </text>
</g>
<!-- n4 -->
<g id="node3" class="node">
<title>n4</title>
<ellipse fill="#ccddff" stroke="black" cx="27" cy="-65.94" rx="27" ry="18"/>
<text xml:space="preserve" text-anchor="middle" x="27" y="-62.24" font-family="Times,serif" font-size="11.00">4</text>
</g>
<!-- n3&#45;&gt;n4 -->
<g id="edge2" class="edge">
<title>n3&#45;&gt;n4</title>
<path fill="none" stroke="#6688bb" d="M27,-129.17C27,-119.29 27,-106.87 27,-95.72"/>
<polygon fill="#6688bb" stroke="#6688bb" points="30.5,-95.82 27,-85.82 23.5,-95.82 30.5,-95.82"/>
<text xml:space="preserve" text-anchor="middle" x="34.12" y="-103.89" font-family="Times,serif" font-size="9.00" fill="#6688bb"> +1 </text>
</g>
<!-- ghost_out_4_0 -->
<g id="node4" class="node">
<title>ghost_out_4_0</title>
</g>
<!-- n4&#45;&gt;ghost_out_4_0 -->
<g id="edge3" class="edge">
<title>n4&#45;&gt;ghost_out_4_0</title>
<path fill="none" stroke="#6688bb" stroke-dasharray="5,2" d="M27,-47.59C27,-36.49 27,-22.41 27,-12.74"/>
<polygon fill="#6688bb" stroke="#6688bb" points="30.5,-13.03 27,-3.03 23.5,-13.03 30.5,-13.03"/>
<text xml:space="preserve" text-anchor="middle" x="34.12" y="-21.39" font-family="Times,serif" font-size="9.00" fill="#6688bb"> +1 </text>
</g>
</g>
</svg>
