<?xml version="1.0" encoding="UTF-8" standalone="no"?>
<!DOCTYPE svg PUBLIC "-//W3C//DTD SVG 1.1//EN"
 "http://www.w3.org/Graphics/SVG/1.1/DTD/svg11.dtd">
<!-- Generated by graphviz version 14.1.3 (20260303.0454)
 -->
<!-- Pages: 1 -->
<svg width="134pt" height="209pt"
 viewBox="0.00 0.00 134.00 209.00" xmlns="http://www.w3.org/2000/svg" xmlns:xlink="http://www.w3.org/1999/xlink">
<g id="graph0" class="graph" transform="scale(1 1) rotate(0) translate(4 205)">
<polygon fill="white" stroke="none" points="-4,4 -4,-205 130,-205 130,4 -4,4"/>
<!-- n0 -->
<g id="node1" class="node">
<title>n0</title>
<ellipse fill="none" stroke="black" cx="27" cy="-18" rx="27" ry="18"/>
<text xml:space="preserve" text-anchor="middle" x="27" y="-14.3" font-family="Times,serif" font-size="11.00">0</text>
</g>
<!-- n1 -->
<g id="node2" class="node">
<title>n1</title>
<ellipse fill="none" stroke="black" cx="99" cy="-18" rx="27" ry="18"/>
<text xml:space="preserve" text-anchor="middle" x="99" y="-14.3" font-family="Times,serif" font-size="11.00">1</text>
</g>
<!-- n2 -->
<g id="node3" class="node">
<title>n2</title>
<path fill="#ccddff" stroke="black" stroke-width="0.5" d="M63,-100.5C63,-100.5 90,-100.5 90,-100.5 90,-101.09 89.96,-101.68 89.87,-102.26 89.78,-102.85 89.65,-103.43 89.48,-104.01 89.31,-104.59 89.09,-105.16 88.84,-105.73 88.58,-106.29 88.28,-106.84 87.94,-107.39 87.61,-107.93 87.23,-108.47 86.81,-108.99 86.4,-109.5 85.94,-110.01 85.45,-110.5 84.96,-110.99 84.43,-111.46 83.87,-111.92 83.31,-112.37 82.72,-112.81 82.09,-113.23 81.47,-113.64 80.81,-114.04 80.13,-114.41 79.45,-114.79 78.74,-115.14 78,-115.47 77.27,-115.79 76.51,-116.1 75.73,-116.37 74.95,-116.65 74.15,-116.9 73.33,-117.13 72.52,-117.36 71.68,-117.55 70.84,-117.72 69.99,-117.9 69.13,-118.04 68.27,-118.15 67.4,-118.27 66.53,-118.36 65.65,-118.41 64.77,-118.47 63.88,-118.5 63,-118.5 62.12,-118.5 61.23,-118.47 60.35,-118.41 59.47,-118.36 58.6,-118.27 57.73,-118.15 56.87,-118.04 56.01,-117.9 55.16,-117.72 54.32,-117.55 53.48,-117.36 52.67,-117.13 51.85,-116.9 51.05,-116.65 50.27,-116.37 49.49,-116.1 48.73,-115.79 48,-115.47 47.26,-115.14 46.55,-114.79 45.87,-114.41 45.19,-114.04 44.53,-113.64 43.91,-113.23 43.28,-112.81 42.69,-112.37 42.13,-111.92 41.57,-111.46 41.04,-110.99 40.55,-110.5 40.06,-110.01 39.6,-109.5 39.19,-108.99 38.77,-108.47 38.39,-107.93 38.06,-107.39 37.72,-106.84 37.42,-106.29 37.16,-105.73 36.91,-105.16 36.69,-104.59 36.52,-104.01 36.35,-103.43 36.22,-102.85 36.13,-102.26 36.04,-101.68 36,-101.09 36,-100.5 36,-100.5 63,-100.5 63,-100.5"/>
<path fill="#ffddcc" stroke="black" stroke-width="0.5" d="M63,-100.5C63,-100.5 36,-100.5 36,-100.5 36,-99.91 36.04,-99.32 36.13,-98.74 36.22,-98.15 36.35,-97.57 36.52,-96.99 36.69,-96.41 36.91,-95.84 37.16,-95.27 37.42,-94.71 37.72,-94.16 38.06,-93.61 38.39,-93.07 38.77,-92.53 39.19,-92.01 39.6,-91.5 40.06,-90.99 40.55,-90.5 41.04,-90.01 41.57,-89.54 42.13,-89.08 42.69,-88.63 43.28,-88.19 43.91,-87.77 44.53,-87.36 45.19,-86.96 45.87,-86.59 46.55,-86.21 47.26,-85.86 48,-85.53 48.73,-85.21 49.49,-84.9 50.27,-84.63 51.05,-84.35 51.85,-84.1 52.67,-83.87 53.48,-83.64 54.32,-83.45 55.16,-83.28 56.01,-83.1 56.87,-82.96 57.73,-82.85 58.6,-82.73 59.47,-82.64 60.35,-82.59 61.23,-82.53 62.12,-82.5 63,-82.5 63.88,-82.5 64.77,-82.53 65.65,-82.59 66.53,-82.64 67.4,-82.73 68.27,-82.85 69.13,-82.96 69.99,-83.1 70.84,-83.28 71.68,-83.45 72.52,-83.64 73.33,-83.87 74.15,-84.1 74.95,-84.35 75.73,-84.63 76.51,-84.9 77.27,-85.21 78,-85.53 78.74,-85.86 79.45,-86.21 80.13,-86.59 80.81,-86.96 81.47,-87.36 82.09,-87.77 82.72,-88.19 83.31,-88.63 83.87,-89.08 84.43,-89.54 84.96,-90.01 85.45,-90.5 85.94,-90.99 86.4,-91.5 86.81,-92.01 87.23,-92.53 87.61,-93.07 87.94,-93.61 88.28,-94.16 88.58,-94.71 88.84,-95.27 89.09,-95.84 89.31,-96.41 89.48,-96.99 89.65,-97.57 89.78,-98.15 89.87,-98.74 89.96,-99.32 90,-99.91 90,-100.5 90,-100.5 63,-100.5 63,-100.5"/>
<ellipse fill="none" stroke="black" cx="63" cy="-100.5" rx="27" ry="18"/>
<text xml:space="preserve" text-anchor="middle" x="63" y="-96.8" font-family="Times,serif" font-size="11.00">2</text>
</g>
<!-- n2&#45;&gt;n0 -->
<g id="edge1" class="edge">
<title>n2&#45;&gt;n0</title>
<path fill="none" stroke="#ddbb99" d="M55.54,-82.82C50.81,-72.24 44.58,-58.31 39.15,-46.16"/>
<polygon fill="#ddbb99" stroke="#ddbb99" points="42.35,-44.74 35.07,-37.04 35.95,-47.6 42.35,-44.74"/>
<text xml:space="preserve" text-anchor="middle" x="51.66" y="-55.95" font-family="Times,serif" font-size="9.00" fill="#ddbb99"> b </text>
</g>
<!-- n2&#45;&gt;n1 -->
<g id="edge2" class="edge">
<title>n2&#45;&gt;n1</title>
<path fill="none" stroke="#6688bb" d="M70.46,-82.82C75.19,-72.24 81.42,-58.31 86.85,-46.16"/>
<polygon fill="#6688bb" stroke="#6688bb" points="90.05,-47.6 90.93,-37.04 83.65,-44.74 90.05,-47.6"/>
<text xml:space="preserve" text-anchor="middle" x="87.28" y="-55.95" font-family="Times,serif" font-size="9.00" fill="#6688bb"> a </text>
</g>
<!-- n4 -->
<g id="node4" class="node">
<title>n4</title>
<ellipse fill="#ccddff" stroke="black" stroke-width="3" cx="63" cy="-183" rx="27" ry="18"/>
<text xml:space="preserve" text-anchor="middle" x="63" y="-179.3" font-family="Times,serif" font-size="11.00">4</text>
</g>
<!-- n4&#45;&gt;n2 -->
<g id="edge3" class="edge">
<title>n4&#45;&gt;n2</title>
<path fill="none" stroke="#6688bb" d="M63,-163.73C63,-153.85 63,-141.43 63,-130.28"/>
<polygon fill="#6688bb" stroke="#6688bb" points="66.5,-130.38 63,-120.38 59.5,-130.38 66.5,-130.38"/>
<text xml:space="preserve" text-anchor="middle" x="67.12" y="-138.45" font-family="Times,serif" font-size="9.00" fill="#6688bb"> a </text>
</g>
</g>
</svg>
