<?xml version="1.0" encoding="UTF-8" standalone="no"?>
<!DOCTYPE svg PUBLIC "-//W3C//DTD SVG 1.1//EN"
 "http://www.w3.org/Graphics/SVG/1.1/DTD/svg11.dtd">
<!-- Generated by graphviz version 14.1.3 (20260303.0454)
 -->
<!-- Pages: 1 -->
<svg width="106pt" height="127pt"
 viewBox="0.00 0.00 106.00 127.00" xmlns="http://www.w3.org/2000/svg" xmlns:xlink="http://www.w3.org/1999/xlink">
<g id="graph0" class="graph" transform="scale(1 1) rotate(0) translate(4 122.5)">
<polygon fill="white" stroke="none" points="-4,4 -4,-122.5 102.25,-122.5 102.25,4 -4,4"/>
<!-- n1 -->
<g id="node1" class="node">
<title>n1</title>
<ellipse fill="#ffddcc" stroke="black" stroke-width="3" cx="27" cy="-100.5" rx="27" ry="18"/>
<text xml:space="preserve" text-anchor="middle" x="27" y="-96.8" font-family="Times,serif" font-size="11.00">1</text>
</g>
<!-- n3 -->
<g id="node2" class="node">
<title>n3</title>
<ellipse fill="#ccddff" stroke="black" stroke-width="3" cx="50" cy="-18" rx="27" ry="18"/>
<text xml:space="preserve" text-anchor="middle" x="50" y="-14.3" font-family="Times,serif" font-size="11.00">3</text>
</g>
<!-- n1&#45;&gt;n3 -->
<g id="edge1" class="edge">
<title>n1&#45;&gt;n3</title>
<path fill="none" stroke="#ddbb99" d="M12.16,-84.33C5.35,-75.48 -0.21,-64.1 4.75,-54 8.02,-47.33 13.25,-41.57 19,-36.76"/>
<polygon fill="#ddbb99" stroke="#ddbb99" points="21.05,-39.6 27.06,-30.87 16.92,-33.94 21.05,-39.6"/>
<text xml:space="preserve" text-anchor="middle" x="16.38" y="-55.95" font-family="Times,serif" font-size="9.00" fill="#ddbb99"> x + 2 </text>
</g>
<!-- n3&#45;&gt;n1 -->
<g id="edge2" class="edge">
<title>n3&#45;&gt;n1</title>
<path fill="none" stroke="#6688bb" d="M44.83,-37.09C42.01,-46.97 38.45,-59.42 35.26,-70.6"/>
<polygon fill="#6688bb" stroke="#6688bb" points="31.9,-69.6 32.52,-80.18 38.63,-71.53 31.9,-69.6"/>
<text xml:space="preserve" text-anchor="middle" x="51.13" y="-55.95" font-family="Times,serif" font-size="9.00" fill="#6688bb"> x // 3 </text>
</g>
<!-- ghost_in_3_0 -->
<g id="node3" class="node">
<title>ghost_in_3_0</title>
</g>
<!-- ghost_in_3_0&#45;&gt;n3 -->
<g id="edge3" class="edge">
<title>ghost_in_3_0&#45;&gt;n3</title>
<path fill="none" stroke="#6688bb" stroke-dasharray="5,2" d="M95.97,-99.44C95.12,-97.96 78.4,-68.7 65.37,-45.89"/>
<polygon fill="#6688bb" stroke="#6688bb" points="68.46,-44.25 60.46,-37.31 62.38,-47.73 68.46,-44.25"/>
<text xml:space="preserve" text-anchor="middle" x="87" y="-55.95" font-family="Times,serif" font-size="9.00" fill="#6688bb"> x // 3 </text>
</g>
</g>
</svg>
