<?xml version="1.0" encoding="UTF-8" standalone="no"?>
<!DOCTYPE svg PUBLIC "-//W3C//DTD SVG 1.1//EN"
 "http://www.w3.org/Graphics/SVG/1.1/DTD/svg11.dtd">
<!-- Generated by graphviz version 14.1.3 (20260303.0454)
 -->
<!-- Pages: 1 -->
<svg width="144pt" height="127pt"
 viewBox="0.00 0.00 144.00 127.00" xmlns="http://www.w3.org/2000/svg" xmlns:xlink="http://www.w3.org/1999/xlink">
<g id="graph0" class="graph" transform="scale(1 1) rotate(0) translate(4 122.5)">
<polygon fill="white" stroke="none" points="-4,4 -4,-122.5 140,-122.5 140,4 -4,4"/>
<!-- n1 -->
<g id="node1" class="node">
<title>n1</title>
<ellipse fill="#ffddcc" stroke="black" cx="27" cy="-100.5" rx="27" ry="18"/>
<text xml:space="preserve" text-anchor="middle" x="27" y="-96.8" font-family="Times,serif" font-size="11.00">1</text>
</g>
<!-- n2 -->
<g id="node2" class="node">
<title>n2</title>
<ellipse fill="#ccddff" stroke="black" cx="63" cy="-18" rx="27" ry="18"/>
<text xml:space="preserve" text-anchor="middle" x="63" y="-14.3" font-family="Times,serif" font-size="11.00">2</text>
</g>
<!-- n1&#45;&gt;n2 -->
<g id="edge1" class="edge">
<title>n1&#45;&gt;n2</title>
<path fill="none" stroke="#ddbb99" d="M18.8,-83.27C15.45,-74.28 13.28,-63.12 17.75,-54 21.16,-47.05 26.69,-41.09 32.73,-36.16"/>
<polygon fill="#ddbb99" stroke="#ddbb99" points="34.45,-39.23 40.53,-30.56 30.36,-33.55 34.45,-39.23"/>
<text xml:space="preserve" text-anchor="middle" x="29.38" y="-55.95" font-family="Times,serif" font-size="9.00" fill="#ddbb99"> x + 1 </text>
</g>
<!-- n2&#45;&gt;n1 -->
<g id="edge2" class="edge">
<title>n2&#45;&gt;n1</title>
<path fill="none" stroke="#6688bb" d="M55.55,-35.66C50.82,-46.23 44.59,-60.16 39.16,-72.31"/>
<polygon fill="#6688bb" stroke="#6688bb" points="35.96,-70.88 35.08,-81.44 42.35,-73.74 35.96,-70.88"/>
<text xml:space="preserve" text-anchor="middle" x="58.41" y="-55.95" font-family="Times,serif" font-size="9.00" fill="#6688bb"> x // 2 </text>
</g>
<!-- n4 -->
<g id="node3" class="node">
<title>n4</title>
<ellipse fill="#ccddff" stroke="black" stroke-width="3" cx="109" cy="-100.5" rx="27" ry="18"/>
<text xml:space="preserve" text-anchor="middle" x="109" y="-96.8" font-family="Times,serif" font-size="11.00">4</text>
</g>
<!-- n4&#45;&gt;n2 -->
<g id="edge3" class="edge">
<title>n4&#45;&gt;n2</title>
<path fill="none" stroke="#6688bb" d="M99.24,-82.43C93.02,-71.54 84.84,-57.22 77.82,-44.94"/>
<polygon fill="#6688bb" stroke="#6688bb" points="81.02,-43.48 73.02,-36.54 74.94,-46.96 81.02,-43.48"/>
<text xml:space="preserve" text-anchor="middle" x="100" y="-55.95" font-family="Times,serif" font-size="9.00" fill="#6688bb"> x // 2 </text>
</g>
</g>
</svg>
