<?xml version="1.0" encoding="UTF-8" standalone="no"?>
<!DOCTYPE svg PUBLIC "-//W3C//DTD SVG 1.1//EN"
 "http://www.w3.org/Graphics/SVG/1.1/DTD/svg11.dtd">
<!-- Generated by graphviz version 14.1.3 (20260303.0454)
 -->
<!-- Pages: 1 -->
<svg width="62pt" height="127pt"
 viewBox="0.00 0.00 62.00 127.00" xmlns="http://www.w3.org/2000/svg" xmlns:xlink="http://www.w3.org/1999/xlink">
<g id="graph0" class="graph" transform="scale(1 1) rotate(0) translate(4 122.5)">
<polygon fill="white" stroke="none" points="-4,4 -4,-122.5 58,-122.5 58,4 -4,4"/>
<!-- n1 -->
<g id="node1" class="node">
<title>n1</title>
<ellipse fill="#ffccaa" stroke="black" stroke-width="3" cx="27" cy="-100.5" rx="27" ry="18"/>
<text xml:space="preserve" text-anchor="middle" x="27" y="-96.8" font-family="Times,serif" font-size="11.00">1</text>
</g>
<!-- n3 -->
<g id="node2" class="node">
<title>n3</title>
<ellipse fill="#bf4d00" stroke="black" cx="27" cy="-18" rx="27" ry="18"/>
<text xml:space="preserve" text-anchor="middle" x="27" y="-14.3" font-family="Times,serif" font-size="11.00">3</text>
</g>
<!-- n1&#45;&gt;n3 -->
<g id="edge1" class="edge">
<title>n1&#45;&gt;n3</title>
<path fill="none" stroke="black" d="M16.76,-82.64C13.9,-77.07 11.2,-70.7 9.75,-64.5 8.23,-57.96 9.31,-51.1 11.53,-44.75"/>
<polygon fill="black" stroke="black" points="14.53,-46.61 15.45,-36.06 8.15,-43.73 14.53,-46.61"/>
<text xml:space="preserve" text-anchor="middle" x="16.88" y="-55.95" font-family="Times,serif" font-size="9.00"> +2 </text>
</g>
<!-- n3&#45;&gt;n1 -->
<g id="edge2" class="edge">
<title>n3&#45;&gt;n1</title>
<path fill="none" stroke="black" d="M27,-36.37C27,-46.19 27,-58.74 27,-70.05"/>
<polygon fill="black" stroke="black" points="23.5,-69.72 27,-79.72 30.5,-69.72 23.5,-69.72"/>
<text xml:space="preserve" text-anchor="middle" x="34.12" y="-55.95" font-family="Times,serif" font-size="9.00"> ÷3 </text>
</g>
</g>
</svg>
