<?xml version="1.0" encoding="UTF-8" standalone="no"?>
<!DOCTYPE svg PUBLIC "-//W3C//DTD SVG 1.1//EN"
 "http://www.w3.org/Graphics/SVG/1.1/DTD/svg11.dtd">
<!-- Generated by graphviz version 14.1.3 (20260303.0454)
 -->
<!-- Pages: 1 -->
<svg width="135pt" height="292pt"
 viewBox="0.00 0.00 135.00 292.00" xmlns="http://www.w3.org/2000/svg" xmlns:xlink="http://www.w3.org/1999/xlink">
<g id="graph0" class="graph" transform="scale(1 1) rotate(0) translate(4 287.5)">
<polygon fill="white" stroke="none" points="-4,4 -4,-287.5 131,-287.5 131,4 -4,4"/>
<!-- n1 -->
<g id="node1" class="node">
<title>n1</title>
<ellipse fill="#cc4422" stroke="black" stroke-width="3" cx="27" cy="-100.5" rx="27" ry="18"/>
<text xml:space="preserve" text-anchor="middle" x="27" y="-96.8" font-family="Times,serif" font-size="11.00">1</text>
</g>
<!-- n3 -->
<g id="node2" class="node">
<title>n3</title>
<ellipse fill="#ccddff" stroke="black" cx="63" cy="-18" rx="27" ry="18"/>
<text xml:space="preserve" text-anchor="middle" x="63" y="-14.3" font-family="Times,serif" font-size="11.00">3</text>
</g>
<!-- n1&#45;&gt;n3 -->
<g id="edge1" class="edge">
<title>n1&#45;&gt;n3</title>
<path fill="none" stroke="#cc4422" d="M23.68,-81.57C22.88,-72.92 23.11,-62.58 26.75,-54 29.04,-48.6 32.62,-43.63 36.65,-39.23"/>
<polygon fill="#cc4422" stroke="#cc4422" points="38.82,-42 43.65,-32.57 34,-36.93 38.82,-42"/>
<text xml:space="preserve" text-anchor="middle" x="33.88" y="-55.95" font-family="Times,serif" font-size="9.00" fill="#cc4422"> +2 </text>
</g>
<!-- n3&#45;&gt;n1 -->
<g id="edge2" class="edge">
<title>n3&#45;&gt;n1</title>
<path fill="none" stroke="#6688bb" d="M55.57,-35.61C50.93,-45.98 44.84,-59.61 39.47,-71.61"/>
<polygon fill="#6688bb" stroke="#6688bb" points="36.32,-70.09 35.43,-80.65 42.71,-72.95 36.32,-70.09"/>
<text xml:space="preserve" text-anchor="middle" x="54.28" y="-55.95" font-family="Times,serif" font-size="9.00" fill="#6688bb"> ÷3 </text>
</g>
<!-- n5 -->
<g id="node3" class="node">
<title>n5</title>
<ellipse fill="#cc4422" stroke="black" stroke-width="3" cx="100" cy="-265.5" rx="27" ry="18"/>
<text xml:space="preserve" text-anchor="middle" x="100" y="-261.8" font-family="Times,serif" font-size="11.00">5</text>
</g>
<!-- n7 -->
<g id="node4" class="node">
<title>n7</title>
<ellipse fill="#cc4422" stroke="black" stroke-width="3" cx="100" cy="-183" rx="27" ry="18"/>
<text xml:space="preserve" text-anchor="middle" x="100" y="-179.3" font-family="Times,serif" font-size="11.00">7</text>
</g>
<!-- n5&#45;&gt;n7 -->
<g id="edge3" class="edge">
<title>n5&#45;&gt;n7</title>
<path fill="none" stroke="#cc4422" d="M100,-246.23C100,-236.63 100,-224.61 100,-213.7"/>
<polygon fill="#cc4422" stroke="#cc4422" points="103.5,-213.99 100,-203.99 96.5,-213.99 103.5,-213.99"/>
<text xml:space="preserve" text-anchor="middle" x="107.12" y="-220.95" font-family="Times,serif" font-size="9.00" fill="#cc4422"> +2 </text>
</g>
<!-- n9 -->
<g id="node5" class="node">
<title>n9</title>
<ellipse fill="#ccddff" stroke="black" cx="100" cy="-100.5" rx="27" ry="18"/>
<text xml:space="preserve" text-anchor="middle" x="100" y="-96.8" font-family="Times,serif" font-size="11.00">9</text>
</g>
<!-- n7&#45;&gt;n9 -->
<g id="edge4" class="edge">
<title>n7&#45;&gt;n9</title>
<path fill="none" stroke="#cc4422" d="M100,-163.73C100,-153.85 100,-141.43 100,-130.28"/>
<polygon fill="#cc4422" stroke="#cc4422" points="103.5,-130.38 100,-120.38 96.5,-130.38 103.5,-130.38"/>
<text xml:space="preserve" text-anchor="middle" x="107.12" y="-138.45" font-family="Times,serif" font-size="9.00" fill="#cc4422"> +2 </text>
</g>
<!-- n9&#45;&gt;n3 -->
<g id="edge5" class="edge">
<title>n9&#45;&gt;n3</title>
<path fill="none" stroke="#6688bb" d="M92.33,-82.82C87.42,-72.13 80.94,-58.03 75.31,-45.79"/>
<polygon fill="#6688bb" stroke="#6688bb" points="78.65,-44.66 71.29,-37.03 72.28,-47.58 78.65,-44.66"/>
<text xml:space="preserve" text-anchor="middle" x="90.84" y="-55.95" font-family="Times,serif" font-size="9.00" fill="#6688bb"> ÷3 </text>
</g>
</g>
</svg>
