<?xml version="1.0" encoding="UTF-8" standalone="no"?>
<!DOCTYPE svg PUBLIC "-//W3C//DTD SVG 1.1//EN"
 "http://www.w3.org/Graphics/SVG/1.1/DTD/svg11.dtd">
<!-- Generated by graphviz version 14.1.3 (20260303.0454)
 -->
<!-- Pages: 1 -->
<svg width="144pt" height="127pt"
 viewBox="0.00 0.00 144.00 127.00" xmlns="http://www.w3.org/2000/svg" xmlns:xlink="http://www.w3.org/1999/xlink">
<g id="graph0" class="graph" transform="scale(1 1) rotate(0) translate(4 122.5)">
<polygon fill="white" stroke="none" points="-4,4 -4,-122.5 140,-122.5 140,4 -4,4"/>
<!-- n1 -->
<g id="node1" class="node">
<title>n1</title>
<ellipse fill="#ffddcc" stroke="black" stroke-width="3" cx="27" cy="-100.5" rx="27" ry="18"/>
<text xml:space="preserve" text-anchor="middle" x="27" y="-96.8" font-family="Times,serif" font-size="11.00">1</text>
</g>
<!-- n3 -->
<g id="node2" class="node">
<title>n3</title>
<ellipse fill="#ccddff" stroke="black" cx="63" cy="-18" rx="27" ry="18"/>
<text xml:space="preserve" text-anchor="middle" x="63" y="-14.3" font-family="Times,serif" font-size="11.00">3</text>
</g>
<!-- n1&#45;&gt;n3 -->
<g id="edge1" class="edge">
<title>n1&#45;&gt;n3</title>
<path fill="none" stroke="#ddbb99" d="M18.33,-81.97C15.25,-73.22 13.49,-62.68 17.75,-54 21.16,-47.05 26.69,-41.09 32.73,-36.16"/>
<polygon fill="#ddbb99" stroke="#ddbb99" points="34.45,-39.23 40.53,-30.56 30.36,-33.55 34.45,-39.23"/>
<text xml:space="preserve" text-anchor="middle" x="29.38" y="-55.95" font-family="Times,serif" font-size="9.00" fill="#ddbb99"> x + 2 </text>
</g>
<!-- n3&#45;&gt;n1 -->
<g id="edge2" class="edge">
<title>n3&#45;&gt;n1</title>
<path fill="none" stroke="#6688bb" d="M55.57,-35.61C50.93,-45.98 44.84,-59.61 39.47,-71.61"/>
<polygon fill="#6688bb" stroke="#6688bb" points="36.32,-70.09 35.43,-80.65 42.71,-72.95 36.32,-70.09"/>
<text xml:space="preserve" text-anchor="middle" x="58.41" y="-55.95" font-family="Times,serif" font-size="9.00" fill="#6688bb"> x // 3 </text>
</g>
<!-- n9 -->
<g id="node3" class="node">
<title>n9</title>
<ellipse fill="#ccddff" stroke="black" stroke-width="3" cx="109" cy="-100.5" rx="27" ry="18"/>
<text xml:space="preserve" text-anchor="middle" x="109" y="-96.8" font-family="Times,serif" font-size="11.00">9</text>
</g>
<!-- n9&#45;&gt;n3 -->
<g id="edge3" class="edge">
<title>n9&#45;&gt;n3</title>
<path fill="none" stroke="#6688bb" d="M99.24,-82.43C93.02,-71.54 84.84,-57.22 77.82,-44.94"/>
<polygon fill="#6688bb" stroke="#6688bb" points="81.02,-43.48 73.02,-36.54 74.94,-46.96 81.02,-43.48"/>
<text xml:space="preserve" text-anchor="middle" x="100" y="-55.95" font-family="Times,serif" font-size="9.00" fill="#6688bb"> x // 3 </text>
</g>
</g>
</svg>
