<?xml version="1.0" encoding="UTF-8" standalone="no"?>
<!DOCTYPE svg PUBLIC "-//W3C//DTD SVG 1.1//EN"
 "http://www.w3.org/Graphics/SVG/1.1/DTD/svg11.dtd">
<!-- Generated by graphviz version 14.1.3 (20260303.0454)
 -->
<!-- Pages: 1 -->
<svg width="65pt" height="669pt"
 viewBox="0.00 0.00 65.00 669.00" xmlns="http://www.w3.org/2000/svg" xmlns:xlink="http://www.w3.org/1999/xlink">
<g id="graph0" class="graph" transform="scale(1 1) rotate(0) translate(4 665.44)">
<polygon fill="white" stroke="none" points="-4,4 -4,-665.44 61,-665.44 61,4 -4,4"/>
<!-- n1 -->
<g id="node1" class="node">
<title>n1</title>
<ellipse fill="#ccddff" stroke="black" stroke-width="3" cx="27" cy="-643.44" rx="27" ry="18"/>
<text xml:space="preserve" text-anchor="middle" x="27" y="-639.74" font-family="Times,serif" font-size="11.00">1</text>
</g>
<!-- n2 -->
<g id="node3" class="node">
<title>n2</title>
<ellipse fill="#ccddff" stroke="black" cx="27" cy="-560.94" rx="27" ry="18"/>
<text xml:space="preserve" text-anchor="middle" x="27" y="-557.24" font-family="Times,serif" font-size="11.00">2</text>
</g>
<!-- n1&#45;&gt;n2 -->
<g id="edge1" class="edge">
<title>n1&#45;&gt;n2</title>
<path fill="none" stroke="#6688bb" d="M27,-624.17C27,-614.29 27,-601.87 27,-590.72"/>
<polygon fill="#6688bb" stroke="#6688bb" points="30.5,-590.82 27,-580.82 23.5,-590.82 30.5,-590.82"/>
<text xml:space="preserve" text-anchor="middle" x="42" y="-598.89" font-family="Times,serif" font-size="9.00" fill="#6688bb"> 1 + 1/x </text>
</g>
<!-- nx_31332f38 -->
<g id="node2" class="node">
<title>nx_31332f38</title>
<ellipse fill="#ccddff" stroke="black" cx="27" cy="-230.94" rx="27" ry="18"/>
<text xml:space="preserve" text-anchor="middle" x="27" y="-227.24" font-family="Times,serif" font-size="11.00">13/8</text>
</g>
<!-- nx_32312f3133 -->
<g id="node4" class="node">
<title>nx_32312f3133</title>
<ellipse fill="#ccddff" stroke="black" cx="27" cy="-148.44" rx="27" ry="18"/>
<text xml:space="preserve" text-anchor="middle" x="27" y="-144.74" font-family="Times,serif" font-size="11.00">21/13</text>
</g>
<!-- nx_31332f38&#45;&gt;nx_32312f3133 -->
<g id="edge2" class="edge">
<title>nx_31332f38&#45;&gt;nx_32312f3133</title>
<path fill="none" stroke="#6688bb" d="M27,-212.47C27,-202.45 27,-189.62 27,-178.15"/>
<polygon fill="#6688bb" stroke="#6688bb" points="30.5,-178.39 27,-168.39 23.5,-178.39 30.5,-178.39"/>
<text xml:space="preserve" text-anchor="middle" x="42" y="-186.39" font-family="Times,serif" font-size="9.00" fill="#6688bb"> 1 + 1/x </text>
</g>
<!-- nx_332f32 -->
<g id="node5" class="node">
<title>nx_332f32</title>
<ellipse fill="#ccddff" stroke="black" cx="27" cy="-478.44" rx="27" ry="18"/>
<text xml:space="preserve" text-anchor="middle" x="27" y="-474.74" font-family="Times,serif" font-size="11.00">3/2</text>
</g>
<!-- n2&#45;&gt;nx_332f32 -->
<g id="edge3" class="edge">
<title>n2&#45;&gt;nx_332f32</title>
<path fill="none" stroke="#6688bb" d="M27,-542.47C27,-532.45 27,-519.62 27,-508.15"/>
<polygon fill="#6688bb" stroke="#6688bb" points="30.5,-508.39 27,-498.39 23.5,-508.39 30.5,-508.39"/>
<text xml:space="preserve" text-anchor="middle" x="42" y="-516.39" font-family="Times,serif" font-size="9.00" fill="#6688bb"> 1 + 1/x </text>
</g>
<!-- nx_33342f3231 -->
<g id="node6" class="node">
<title>nx_33342f3231</title>
<ellipse fill="#ccddff" stroke="black" cx="27" cy="-65.94" rx="27" ry="18"/>
<text xml:space="preserve" text-anchor="middle" x="27" y="-62.24" font-family="Times,serif" font-size="11.00">34/21</text>
</g>
<!-- nx_32312f3133&#45;&gt;nx_33342f3231 -->
<g id="edge4" class="edge">
<title>nx_32312f3133&#45;&gt;nx_33342f3231</title>
<path fill="none" stroke="#6688bb" d="M27,-129.97C27,-119.95 27,-107.12 27,-95.65"/>
<polygon fill="#6688bb" stroke="#6688bb" points="30.5,-95.89 27,-85.89 23.5,-95.89 30.5,-95.89"/>
<text xml:space="preserve" text-anchor="middle" x="42" y="-103.89" font-family="Times,serif" font-size="9.00" fill="#6688bb"> 1 + 1/x </text>
</g>
<!-- nx_352f33 -->
<g id="node7" class="node">
<title>nx_352f33</title>
<ellipse fill="#ccddff" stroke="black" cx="27" cy="-395.94" rx="27" ry="18"/>
<text xml:space="preserve" text-anchor="middle" x="27" y="-392.24" font-family="Times,serif" font-size="11.00">5/3</text>
</g>
<!-- nx_332f32&#45;&gt;nx_352f33 -->
<g id="edge5" class="edge">
<title>nx_332f32&#45;&gt;nx_352f33</title>
<path fill="none" stroke="#6688bb" d="M27,-459.97C27,-449.95 27,-437.12 27,-425.65"/>
<polygon fill="#6688bb" stroke="#6688bb" points="30.5,-425.89 27,-415.89 23.5,-425.89 30.5,-425.89"/>
<text xml:space="preserve" text-anchor="middle" x="42" y="-433.89" font-family="Times,serif" font-size="9.00" fill="#6688bb"> 1 + 1/x </text>
</g>
<!-- ghost_out_34/21_0 -->
<g id="node9" class="node">
<title>ghost_out_34/21_0</title>
</g>
<!-- nx_33342f3231&#45;&gt;ghost_out_34/21_0 -->
<g id="edge8" class="edge">
<title>nx_33342f3231&#45;&gt;ghost_out_34/21_0</title>
<path fill="none" stroke="#6688bb" stroke-dasharray="5,2" d="M27,-47.59C27,-36.49 27,-22.41 27,-12.74"/>
<polygon fill="#6688bb" stroke="#6688bb" points="30.5,-13.03 27,-3.03 23.5,-13.03 30.5,-13.03"/>
<text xml:space="preserve" text-anchor="middle" x="42" y="-21.39" font-family="Times,serif" font-size="9.00" fill="#6688bb"> 1 + 1/x </text>
</g>
<!-- nx_382f35 -->
<g id="node8" class="node">
<title>nx_382f35</title>
<ellipse fill="#ccddff" stroke="black" cx="27" cy="-313.44" rx="27" ry="18"/>
<text xml:space="preserve" text-anchor="middle" x="27" y="-309.74" font-family="Times,serif" font-size="11.00">8/5</text>
</g>
<!-- nx_352f33&#45;&gt;nx_382f35 -->
<g id="edge6" class="edge">
<title>nx_352f33&#45;&gt;nx_382f35</title>
<path fill="none" stroke="#6688bb" d="M27,-377.47C27,-367.45 27,-354.62 27,-343.15"/>
<polygon fill="#6688bb" stroke="#6688bb" points="30.5,-343.39 27,-333.39 23.5,-343.39 30.5,-343.39"/>
<text xml:space="preserve" text-anchor="middle" x="42" y="-351.39" font-family="Times,serif" font-size="9.00" fill="#6688bb"> 1 + 1/x </text>
</g>
<!-- nx_382f35&#45;&gt;nx_31332f38 -->
<g id="edge7" class="edge">
<title>nx_382f35&#45;&gt;nx_31332f38</title>
<path fill="none" stroke="#6688bb" d="M27,-294.97C27,-284.95 27,-272.12 27,-260.65"/>
<polygon fill="#6688bb" stroke="#6688bb" points="30.5,-260.89 27,-250.89 23.5,-260.89 30.5,-260.89"/>
<text xml:space="preserve" text-anchor="middle" x="42" y="-268.89" font-family="Times,serif" font-size="9.00" fill="#6688bb"> 1 + 1/x </text>
</g>
</g>
</svg>
