<?xml version="1.0" encoding="UTF-8" standalone="no"?>
<!DOCTYPE svg PUBLIC "-//W3C//DTD SVG 1.1//EN"
 "http://www.w3.org/Graphics/SVG/1.1/DTD/svg11.dtd">
<!-- Generated by graphviz version 14.1.3 (20260303.0454)
 -->
<!-- Pages: 1 -->
<svg width="597pt" height="539pt"
 viewBox="0.00 0.00 597.00 539.00" xmlns="http://www.w3.org/2000/svg" xmlns:xlink="http://www.w3.org/1999/xlink">
<g id="graph0" class="graph" transform="scale(1 1) rotate(0) translate(4 535)">
<polygon fill="white" stroke="none" points="-4,4 -4,-535 593,-535 593,4 -4,4"/>
<!-- n1 -->
<g id="node1" class="node">
<title>n1</title>
<ellipse fill="#953295" stroke="black" stroke-width="3" cx="459" cy="-183" rx="27" ry="18"/>
<text xml:space="preserve" text-anchor="middle" x="459" y="-179.3" font-family="Times,serif" font-size="11.00" fill="white">1</text>
</g>
<!-- n2 -->
<g id="node2" class="node">
<title>n2</title>
<ellipse fill="#953295" stroke="black" stroke-width="3" cx="340" cy="-100.5" rx="27" ry="18"/>
<text xml:space="preserve" text-anchor="middle" x="340" y="-96.8" font-family="Times,serif" font-size="11.00" fill="white">2</text>
</g>
<!-- n1&#45;&gt;n2 -->
<g id="edge1" class="edge">
<title>n1&#45;&gt;n2</title>
<path fill="none" stroke="#aa77aa" d="M439.62,-168.89C420.43,-155.91 390.82,-135.88 368.86,-121.02"/>
<polygon fill="#aa77aa" stroke="#aa77aa" points="370.87,-118.16 360.63,-115.46 366.95,-123.96 370.87,-118.16"/>
<text xml:space="preserve" text-anchor="middle" x="418.25" y="-138.45" font-family="Times,serif" font-size="9.00" fill="#aa77aa"> x + 1 </text>
</g>
<!-- n3 -->
<g id="node3" class="node">
<title>n3</title>
<ellipse fill="#ffddcc" stroke="black" stroke-width="3" cx="340" cy="-18" rx="27" ry="18"/>
<text xml:space="preserve" text-anchor="middle" x="340" y="-14.3" font-family="Times,serif" font-size="11.00">3</text>
</g>
<!-- n2&#45;&gt;n3 -->
<g id="edge12" class="edge">
<title>n2&#45;&gt;n3</title>
<path fill="none" stroke="#aa77aa" d="M340,-81.23C340,-71.63 340,-59.61 340,-48.7"/>
<polygon fill="#aa77aa" stroke="#aa77aa" points="343.5,-48.99 340,-38.99 336.5,-48.99 343.5,-48.99"/>
<text xml:space="preserve" text-anchor="middle" x="351.62" y="-55.95" font-family="Times,serif" font-size="9.00" fill="#aa77aa"> x + 1 </text>
</g>
<!-- n3&#45;&gt;n1 -->
<g id="edge23" class="edge">
<title>n3&#45;&gt;n1</title>
<path fill="none" stroke="#ddbb99" d="M354,-34.68C373.22,-56.59 408.33,-98.04 434,-136.5 437.85,-142.26 441.64,-148.67 445.06,-154.81"/>
<polygon fill="#ddbb99" stroke="#ddbb99" points="441.87,-156.26 449.7,-163.4 448.03,-152.94 441.87,-156.26"/>
<text xml:space="preserve" text-anchor="middle" x="428.12" y="-97.2" font-family="Times,serif" font-size="9.00" fill="#ddbb99"> ÷3 </text>
</g>
<!-- n4 -->
<g id="node4" class="node">
<title>n4</title>
<ellipse fill="#953295" stroke="black" stroke-width="3" cx="418" cy="-348" rx="27" ry="18"/>
<text xml:space="preserve" text-anchor="middle" x="418" y="-344.3" font-family="Times,serif" font-size="11.00" fill="white">4</text>
</g>
<!-- n5 -->
<g id="node5" class="node">
<title>n5</title>
<ellipse fill="#cceecc" stroke="black" stroke-width="3" cx="459" cy="-265.5" rx="27" ry="18"/>
<text xml:space="preserve" text-anchor="middle" x="459" y="-261.8" font-family="Times,serif" font-size="11.00">5</text>
</g>
<!-- n4&#45;&gt;n5 -->
<g id="edge25" class="edge">
<title>n4&#45;&gt;n5</title>
<path fill="none" stroke="#aa77aa" d="M426.9,-329.53C432.16,-319.19 438.95,-305.87 444.93,-294.13"/>
<polygon fill="#aa77aa" stroke="#aa77aa" points="448.01,-295.78 449.43,-285.28 441.78,-292.6 448.01,-295.78"/>
<text xml:space="preserve" text-anchor="middle" x="452.58" y="-303.45" font-family="Times,serif" font-size="9.00" fill="#aa77aa"> x + 1 </text>
</g>
<!-- n5&#45;&gt;n1 -->
<g id="edge26" class="edge">
<title>n5&#45;&gt;n1</title>
<path fill="none" stroke="#77aa77" d="M459,-246.23C459,-236.63 459,-224.61 459,-213.7"/>
<polygon fill="#77aa77" stroke="#77aa77" points="462.5,-213.99 459,-203.99 455.5,-213.99 462.5,-213.99"/>
<text xml:space="preserve" text-anchor="middle" x="466.12" y="-220.95" font-family="Times,serif" font-size="9.00" fill="#77aa77"> ÷5 </text>
</g>
<!-- n6 -->
<g id="node6" class="node">
<title>n6</title>
<ellipse fill="#ffddcc" stroke="black" stroke-width="3" cx="243" cy="-183" rx="27" ry="18"/>
<text xml:space="preserve" text-anchor="middle" x="243" y="-179.3" font-family="Times,serif" font-size="11.00">6</text>
</g>
<!-- n6&#45;&gt;n2 -->
<g id="edge27" class="edge">
<title>n6&#45;&gt;n2</title>
<path fill="none" stroke="#ddbb99" d="M260.34,-167.61C275.38,-155.13 297.34,-136.9 314.4,-122.75"/>
<polygon fill="#ddbb99" stroke="#ddbb99" points="316.18,-125.81 321.64,-116.73 311.71,-120.43 316.18,-125.81"/>
<text xml:space="preserve" text-anchor="middle" x="304.43" y="-138.45" font-family="Times,serif" font-size="9.00" fill="#ddbb99"> ÷3 </text>
</g>
<!-- n7 -->
<g id="node7" class="node">
<title>n7</title>
<ellipse fill="#eeccee" stroke="black" stroke-width="3" cx="27" cy="-265.5" rx="27" ry="18"/>
<text xml:space="preserve" text-anchor="middle" x="27" y="-261.8" font-family="Times,serif" font-size="11.00">7</text>
</g>
<!-- n8 -->
<g id="node8" class="node">
<title>n8</title>
<ellipse fill="#953295" stroke="black" stroke-width="3" cx="99" cy="-183" rx="27" ry="18"/>
<text xml:space="preserve" text-anchor="middle" x="99" y="-179.3" font-family="Times,serif" font-size="11.00" fill="white">8</text>
</g>
<!-- n7&#45;&gt;n8 -->
<g id="edge28" class="edge">
<title>n7&#45;&gt;n8</title>
<path fill="none" stroke="#aa77aa" d="M40.88,-248.98C51.27,-237.36 65.68,-221.25 77.55,-207.98"/>
<polygon fill="#aa77aa" stroke="#aa77aa" points="79.85,-210.66 83.91,-200.88 74.63,-206 79.85,-210.66"/>
<text xml:space="preserve" text-anchor="middle" x="78.94" y="-220.95" font-family="Times,serif" font-size="9.00" fill="#aa77aa"> x + 1 </text>
</g>
<!-- n9 -->
<g id="node9" class="node">
<title>n9</title>
<ellipse fill="#ffddcc" stroke="black" stroke-width="3" cx="171" cy="-100.5" rx="27" ry="18"/>
<text xml:space="preserve" text-anchor="middle" x="171" y="-96.8" font-family="Times,serif" font-size="11.00">9</text>
</g>
<!-- n8&#45;&gt;n9 -->
<g id="edge29" class="edge">
<title>n8&#45;&gt;n9</title>
<path fill="none" stroke="#aa77aa" d="M112.88,-166.48C123.27,-154.86 137.68,-138.75 149.55,-125.48"/>
<polygon fill="#aa77aa" stroke="#aa77aa" points="151.85,-128.16 155.91,-118.38 146.63,-123.5 151.85,-128.16"/>
<text xml:space="preserve" text-anchor="middle" x="150.94" y="-138.45" font-family="Times,serif" font-size="9.00" fill="#aa77aa"> x + 1 </text>
</g>
<!-- n9&#45;&gt;n3 -->
<g id="edge30" class="edge">
<title>n9&#45;&gt;n3</title>
<path fill="none" stroke="#ddbb99" d="M193.44,-88.81C222.61,-74.92 273.76,-50.55 307.26,-34.6"/>
<polygon fill="#ddbb99" stroke="#ddbb99" points="308.58,-37.85 316.1,-30.38 305.57,-31.53 308.58,-37.85"/>
<text xml:space="preserve" text-anchor="middle" x="272.74" y="-55.95" font-family="Times,serif" font-size="9.00" fill="#ddbb99"> ÷3 </text>
</g>
<!-- n10 -->
<g id="node10" class="node">
<title>n10</title>
<ellipse fill="#cceecc" stroke="black" stroke-width="3" cx="315" cy="-183" rx="27" ry="18"/>
<text xml:space="preserve" text-anchor="middle" x="315" y="-179.3" font-family="Times,serif" font-size="11.00">10</text>
</g>
<!-- n10&#45;&gt;n2 -->
<g id="edge2" class="edge">
<title>n10&#45;&gt;n2</title>
<path fill="none" stroke="#77aa77" d="M320.28,-164.26C322.81,-155.84 325.9,-145.64 328.75,-136.5 329.41,-134.4 330.09,-132.23 330.78,-130.04"/>
<polygon fill="#77aa77" stroke="#77aa77" points="334.05,-131.32 333.76,-120.73 327.38,-129.19 334.05,-131.32"/>
<text xml:space="preserve" text-anchor="middle" x="335.88" y="-138.45" font-family="Times,serif" font-size="9.00" fill="#77aa77"> ÷5 </text>
</g>
<!-- n11 -->
<g id="node11" class="node">
<title>n11</title>
<ellipse fill="#eeccee" stroke="black" stroke-width="3" cx="386" cy="-513" rx="27" ry="18"/>
<text xml:space="preserve" text-anchor="middle" x="386" y="-509.3" font-family="Times,serif" font-size="11.00">11</text>
</g>
<!-- n12 -->
<g id="node12" class="node">
<title>n12</title>
<ellipse fill="#ffddcc" stroke="black" stroke-width="3" cx="386" cy="-430.5" rx="27" ry="18"/>
<text xml:space="preserve" text-anchor="middle" x="386" y="-426.8" font-family="Times,serif" font-size="11.00">12</text>
</g>
<!-- n11&#45;&gt;n12 -->
<g id="edge3" class="edge">
<title>n11&#45;&gt;n12</title>
<path fill="none" stroke="#aa77aa" d="M386,-493.73C386,-484.13 386,-472.11 386,-461.2"/>
<polygon fill="#aa77aa" stroke="#aa77aa" points="389.5,-461.49 386,-451.49 382.5,-461.49 389.5,-461.49"/>
<text xml:space="preserve" text-anchor="middle" x="397.62" y="-468.45" font-family="Times,serif" font-size="9.00" fill="#aa77aa"> x + 1 </text>
</g>
<!-- n12&#45;&gt;n4 -->
<g id="edge4" class="edge">
<title>n12&#45;&gt;n4</title>
<path fill="none" stroke="#ddbb99" d="M393.1,-411.63C397.12,-401.53 402.24,-388.65 406.79,-377.21"/>
<polygon fill="#ddbb99" stroke="#ddbb99" points="409.92,-378.81 410.36,-368.22 403.41,-376.22 409.92,-378.81"/>
<text xml:space="preserve" text-anchor="middle" x="411.04" y="-385.95" font-family="Times,serif" font-size="9.00" fill="#ddbb99"> ÷3 </text>
</g>
<!-- n13 -->
<g id="node13" class="node">
<title>n13</title>
<ellipse fill="#eeccee" stroke="black" stroke-width="3" cx="562" cy="-430.5" rx="27" ry="18"/>
<text xml:space="preserve" text-anchor="middle" x="562" y="-426.8" font-family="Times,serif" font-size="11.00">13</text>
</g>
<!-- n14 -->
<g id="node14" class="node">
<title>n14</title>
<ellipse fill="#eeccee" stroke="black" stroke-width="3" cx="562" cy="-348" rx="27" ry="18"/>
<text xml:space="preserve" text-anchor="middle" x="562" y="-344.3" font-family="Times,serif" font-size="11.00">14</text>
</g>
<!-- n13&#45;&gt;n14 -->
<g id="edge5" class="edge">
<title>n13&#45;&gt;n14</title>
<path fill="none" stroke="#aa77aa" d="M562,-411.23C562,-401.63 562,-389.61 562,-378.7"/>
<polygon fill="#aa77aa" stroke="#aa77aa" points="565.5,-378.99 562,-368.99 558.5,-378.99 565.5,-378.99"/>
<text xml:space="preserve" text-anchor="middle" x="573.62" y="-385.95" font-family="Times,serif" font-size="9.00" fill="#aa77aa"> x + 1 </text>
</g>
<!-- n15 -->
<g id="node15" class="node">
<title>n15</title>
<ellipse fill="#ccddff" stroke="black" stroke-width="3" cx="540" cy="-265.5" rx="27" ry="18"/>
<text xml:space="preserve" text-anchor="middle" x="540" y="-261.8" font-family="Times,serif" font-size="11.00">15</text>
</g>
<!-- n14&#45;&gt;n15 -->
<g id="edge6" class="edge">
<title>n14&#45;&gt;n15</title>
<path fill="none" stroke="#aa77aa" d="M557.12,-329.13C554.43,-319.3 551.03,-306.86 547.97,-295.66"/>
<polygon fill="#aa77aa" stroke="#aa77aa" points="551.36,-294.78 545.34,-286.05 544.6,-296.62 551.36,-294.78"/>
<text xml:space="preserve" text-anchor="middle" x="563.94" y="-303.45" font-family="Times,serif" font-size="9.00" fill="#aa77aa"> x + 1 </text>
</g>
<!-- n15&#45;&gt;n1 -->
<g id="edge7" class="edge">
<title>n15&#45;&gt;n1</title>
<path fill="none" stroke="#6688bb" d="M524.76,-249.36C512.85,-237.52 496.07,-220.84 482.45,-207.3"/>
<polygon fill="#6688bb" stroke="#6688bb" points="485.08,-204.98 475.52,-200.41 480.14,-209.95 485.08,-204.98"/>
<text xml:space="preserve" text-anchor="middle" x="513.72" y="-220.95" font-family="Times,serif" font-size="9.00" fill="#6688bb"> ÷15 </text>
</g>
<!-- n16 -->
<g id="node16" class="node">
<title>n16</title>
<ellipse fill="#953295" stroke="black" stroke-width="3" cx="243" cy="-430.5" rx="27" ry="18"/>
<text xml:space="preserve" text-anchor="middle" x="243" y="-426.8" font-family="Times,serif" font-size="11.00" fill="white">16</text>
</g>
<!-- n17 -->
<g id="node17" class="node">
<title>n17</title>
<ellipse fill="#eeccee" stroke="black" stroke-width="3" cx="243" cy="-348" rx="27" ry="18"/>
<text xml:space="preserve" text-anchor="middle" x="243" y="-344.3" font-family="Times,serif" font-size="11.00">17</text>
</g>
<!-- n16&#45;&gt;n17 -->
<g id="edge8" class="edge">
<title>n16&#45;&gt;n17</title>
<path fill="none" stroke="#aa77aa" d="M243,-411.23C243,-401.63 243,-389.61 243,-378.7"/>
<polygon fill="#aa77aa" stroke="#aa77aa" points="246.5,-378.99 243,-368.99 239.5,-378.99 246.5,-378.99"/>
<text xml:space="preserve" text-anchor="middle" x="254.62" y="-385.95" font-family="Times,serif" font-size="9.00" fill="#aa77aa"> x + 1 </text>
</g>
<!-- n18 -->
<g id="node18" class="node">
<title>n18</title>
<ellipse fill="#ffddcc" stroke="black" stroke-width="3" cx="243" cy="-265.5" rx="27" ry="18"/>
<text xml:space="preserve" text-anchor="middle" x="243" y="-261.8" font-family="Times,serif" font-size="11.00">18</text>
</g>
<!-- n17&#45;&gt;n18 -->
<g id="edge9" class="edge">
<title>n17&#45;&gt;n18</title>
<path fill="none" stroke="#aa77aa" d="M243,-328.73C243,-319.13 243,-307.11 243,-296.2"/>
<polygon fill="#aa77aa" stroke="#aa77aa" points="246.5,-296.49 243,-286.49 239.5,-296.49 246.5,-296.49"/>
<text xml:space="preserve" text-anchor="middle" x="254.62" y="-303.45" font-family="Times,serif" font-size="9.00" fill="#aa77aa"> x + 1 </text>
</g>
<!-- n18&#45;&gt;n6 -->
<g id="edge10" class="edge">
<title>n18&#45;&gt;n6</title>
<path fill="none" stroke="#ddbb99" d="M243,-246.23C243,-236.63 243,-224.61 243,-213.7"/>
<polygon fill="#ddbb99" stroke="#ddbb99" points="246.5,-213.99 243,-203.99 239.5,-213.99 246.5,-213.99"/>
<text xml:space="preserve" text-anchor="middle" x="250.12" y="-220.95" font-family="Times,serif" font-size="9.00" fill="#ddbb99"> ÷3 </text>
</g>
<!-- n19 -->
<g id="node19" class="node">
<title>n19</title>
<ellipse fill="#eeccee" stroke="black" stroke-width="3" cx="458" cy="-513" rx="27" ry="18"/>
<text xml:space="preserve" text-anchor="middle" x="458" y="-509.3" font-family="Times,serif" font-size="11.00">19</text>
</g>
<!-- n20 -->
<g id="node20" class="node">
<title>n20</title>
<ellipse fill="#cceecc" stroke="black" stroke-width="3" cx="458" cy="-430.5" rx="27" ry="18"/>
<text xml:space="preserve" text-anchor="middle" x="458" y="-426.8" font-family="Times,serif" font-size="11.00">20</text>
</g>
<!-- n19&#45;&gt;n20 -->
<g id="edge11" class="edge">
<title>n19&#45;&gt;n20</title>
<path fill="none" stroke="#aa77aa" d="M458,-493.73C458,-484.13 458,-472.11 458,-461.2"/>
<polygon fill="#aa77aa" stroke="#aa77aa" points="461.5,-461.49 458,-451.49 454.5,-461.49 461.5,-461.49"/>
<text xml:space="preserve" text-anchor="middle" x="469.62" y="-468.45" font-family="Times,serif" font-size="9.00" fill="#aa77aa"> x + 1 </text>
</g>
<!-- n20&#45;&gt;n4 -->
<g id="edge13" class="edge">
<title>n20&#45;&gt;n4</title>
<path fill="none" stroke="#77aa77" d="M449.32,-412.03C444.18,-401.69 437.56,-388.37 431.73,-376.63"/>
<polygon fill="#77aa77" stroke="#77aa77" points="434.92,-375.19 427.34,-367.79 428.65,-378.3 434.92,-375.19"/>
<text xml:space="preserve" text-anchor="middle" x="447.52" y="-385.95" font-family="Times,serif" font-size="9.00" fill="#77aa77"> ÷5 </text>
</g>
<!-- n21 -->
<g id="node21" class="node">
<title>n21</title>
<ellipse fill="#ffddcc" stroke="black" stroke-width="3" cx="27" cy="-348" rx="27" ry="18"/>
<text xml:space="preserve" text-anchor="middle" x="27" y="-344.3" font-family="Times,serif" font-size="11.00">21</text>
</g>
<!-- n21&#45;&gt;n7 -->
<g id="edge14" class="edge">
<title>n21&#45;&gt;n7</title>
<path fill="none" stroke="#ddbb99" d="M27,-328.73C27,-319.13 27,-307.11 27,-296.2"/>
<polygon fill="#ddbb99" stroke="#ddbb99" points="30.5,-296.49 27,-286.49 23.5,-296.49 30.5,-296.49"/>
<text xml:space="preserve" text-anchor="middle" x="34.12" y="-303.45" font-family="Times,serif" font-size="9.00" fill="#ddbb99"> ÷3 </text>
</g>
<!-- n22 -->
<g id="node22" class="node">
<title>n22</title>
<ellipse fill="#eeccee" stroke="black" stroke-width="3" cx="99" cy="-430.5" rx="27" ry="18"/>
<text xml:space="preserve" text-anchor="middle" x="99" y="-426.8" font-family="Times,serif" font-size="11.00">22</text>
</g>
<!-- n23 -->
<g id="node23" class="node">
<title>n23</title>
<ellipse fill="#eeccee" stroke="black" stroke-width="3" cx="99" cy="-348" rx="27" ry="18"/>
<text xml:space="preserve" text-anchor="middle" x="99" y="-344.3" font-family="Times,serif" font-size="11.00">23</text>
</g>
<!-- n22&#45;&gt;n23 -->
<g id="edge15" class="edge">
<title>n22&#45;&gt;n23</title>
<path fill="none" stroke="#aa77aa" d="M99,-411.23C99,-401.63 99,-389.61 99,-378.7"/>
<polygon fill="#aa77aa" stroke="#aa77aa" points="102.5,-378.99 99,-368.99 95.5,-378.99 102.5,-378.99"/>
<text xml:space="preserve" text-anchor="middle" x="110.62" y="-385.95" font-family="Times,serif" font-size="9.00" fill="#aa77aa"> x + 1 </text>
</g>
<!-- n24 -->
<g id="node24" class="node">
<title>n24</title>
<ellipse fill="#ffddcc" stroke="black" stroke-width="3" cx="99" cy="-265.5" rx="27" ry="18"/>
<text xml:space="preserve" text-anchor="middle" x="99" y="-261.8" font-family="Times,serif" font-size="11.00">24</text>
</g>
<!-- n23&#45;&gt;n24 -->
<g id="edge16" class="edge">
<title>n23&#45;&gt;n24</title>
<path fill="none" stroke="#aa77aa" d="M99,-328.73C99,-319.13 99,-307.11 99,-296.2"/>
<polygon fill="#aa77aa" stroke="#aa77aa" points="102.5,-296.49 99,-286.49 95.5,-296.49 102.5,-296.49"/>
<text xml:space="preserve" text-anchor="middle" x="110.62" y="-303.45" font-family="Times,serif" font-size="9.00" fill="#aa77aa"> x + 1 </text>
</g>
<!-- n24&#45;&gt;n8 -->
<g id="edge17" class="edge">
<title>n24&#45;&gt;n8</title>
<path fill="none" stroke="#ddbb99" d="M99,-246.23C99,-236.63 99,-224.61 99,-213.7"/>
<polygon fill="#ddbb99" stroke="#ddbb99" points="102.5,-213.99 99,-203.99 95.5,-213.99 102.5,-213.99"/>
<text xml:space="preserve" text-anchor="middle" x="106.12" y="-220.95" font-family="Times,serif" font-size="9.00" fill="#ddbb99"> ÷3 </text>
</g>
<!-- n25 -->
<g id="node25" class="node">
<title>n25</title>
<ellipse fill="#cceecc" stroke="black" stroke-width="3" cx="490" cy="-348" rx="27" ry="18"/>
<text xml:space="preserve" text-anchor="middle" x="490" y="-344.3" font-family="Times,serif" font-size="11.00">25</text>
</g>
<!-- n25&#45;&gt;n5 -->
<g id="edge18" class="edge">
<title>n25&#45;&gt;n5</title>
<path fill="none" stroke="#77aa77" d="M483.12,-329.13C479.23,-319.03 474.27,-306.15 469.86,-294.71"/>
<polygon fill="#77aa77" stroke="#77aa77" points="473.26,-293.8 466.4,-285.73 466.73,-296.32 473.26,-293.8"/>
<text xml:space="preserve" text-anchor="middle" x="483.48" y="-303.45" font-family="Times,serif" font-size="9.00" fill="#77aa77"> ÷5 </text>
</g>
<!-- n26 -->
<g id="node26" class="node">
<title>n26</title>
<ellipse fill="#eeccee" stroke="black" stroke-width="3" cx="171" cy="-265.5" rx="27" ry="18"/>
<text xml:space="preserve" text-anchor="middle" x="171" y="-261.8" font-family="Times,serif" font-size="11.00">26</text>
</g>
<!-- n27 -->
<g id="node27" class="node">
<title>n27</title>
<ellipse fill="#ffddcc" stroke="black" stroke-width="3" cx="171" cy="-183" rx="27" ry="18"/>
<text xml:space="preserve" text-anchor="middle" x="171" y="-179.3" font-family="Times,serif" font-size="11.00">27</text>
</g>
<!-- n26&#45;&gt;n27 -->
<g id="edge19" class="edge">
<title>n26&#45;&gt;n27</title>
<path fill="none" stroke="#aa77aa" d="M171,-246.23C171,-236.63 171,-224.61 171,-213.7"/>
<polygon fill="#aa77aa" stroke="#aa77aa" points="174.5,-213.99 171,-203.99 167.5,-213.99 174.5,-213.99"/>
<text xml:space="preserve" text-anchor="middle" x="182.62" y="-220.95" font-family="Times,serif" font-size="9.00" fill="#aa77aa"> x + 1 </text>
</g>
<!-- n27&#45;&gt;n9 -->
<g id="edge20" class="edge">
<title>n27&#45;&gt;n9</title>
<path fill="none" stroke="#ddbb99" d="M171,-163.73C171,-154.13 171,-142.11 171,-131.2"/>
<polygon fill="#ddbb99" stroke="#ddbb99" points="174.5,-131.49 171,-121.49 167.5,-131.49 174.5,-131.49"/>
<text xml:space="preserve" text-anchor="middle" x="178.12" y="-138.45" font-family="Times,serif" font-size="9.00" fill="#ddbb99"> ÷3 </text>
</g>
<!-- n28 -->
<g id="node28" class="node">
<title>n28</title>
<ellipse fill="#eeccee" stroke="black" stroke-width="3" cx="346" cy="-348" rx="27" ry="18"/>
<text xml:space="preserve" text-anchor="middle" x="346" y="-344.3" font-family="Times,serif" font-size="11.00">28</text>
</g>
<!-- n29 -->
<g id="node29" class="node">
<title>n29</title>
<ellipse fill="#eeccee" stroke="black" stroke-width="3" cx="349" cy="-265.5" rx="27" ry="18"/>
<text xml:space="preserve" text-anchor="middle" x="349" y="-261.8" font-family="Times,serif" font-size="11.00">29</text>
</g>
<!-- n28&#45;&gt;n29 -->
<g id="edge21" class="edge">
<title>n28&#45;&gt;n29</title>
<path fill="none" stroke="#aa77aa" d="M346.68,-328.73C347.04,-319.13 347.49,-307.11 347.89,-296.2"/>
<polygon fill="#aa77aa" stroke="#aa77aa" points="351.38,-296.61 348.26,-286.49 344.39,-296.35 351.38,-296.61"/>
<text xml:space="preserve" text-anchor="middle" x="359.3" y="-303.45" font-family="Times,serif" font-size="9.00" fill="#aa77aa"> x + 1 </text>
</g>
<!-- n30 -->
<g id="node30" class="node">
<title>n30</title>
<ellipse fill="#ccddff" stroke="black" cx="387" cy="-183" rx="27" ry="18"/>
<text xml:space="preserve" text-anchor="middle" x="387" y="-179.3" font-family="Times,serif" font-size="11.00">30</text>
</g>
<!-- n29&#45;&gt;n30 -->
<g id="edge22" class="edge">
<title>n29&#45;&gt;n30</title>
<path fill="none" stroke="#aa77aa" d="M357.25,-247.03C362.23,-236.48 368.68,-222.82 374.3,-210.91"/>
<polygon fill="#aa77aa" stroke="#aa77aa" points="377.41,-212.51 378.51,-201.98 371.08,-209.53 377.41,-212.51"/>
<text xml:space="preserve" text-anchor="middle" x="381.9" y="-220.95" font-family="Times,serif" font-size="9.00" fill="#aa77aa"> x + 1 </text>
</g>
<!-- n30&#45;&gt;n2 -->
<g id="edge24" class="edge">
<title>n30&#45;&gt;n2</title>
<path fill="none" stroke="#6688bb" d="M377.49,-165.71C371.24,-155.01 362.93,-140.77 355.71,-128.41"/>
<polygon fill="#6688bb" stroke="#6688bb" points="358.81,-126.78 350.75,-119.91 352.77,-130.31 358.81,-126.78"/>
<text xml:space="preserve" text-anchor="middle" x="375.69" y="-138.45" font-family="Times,serif" font-size="9.00" fill="#6688bb"> ÷15 </text>
</g>
</g>
</svg>
