<?xml version="1.0" encoding="UTF-8" standalone="no"?>
<!DOCTYPE svg PUBLIC "-//W3C//DTD SVG 1.1//EN"
 "http://www.w3.org/Graphics/SVG/1.1/DTD/svg11.dtd">
<!-- Generated by graphviz version 14.1.3 (20260303.0454)
 -->
<!-- Pages: 1 -->
<svg width="425pt" height="787pt"
 viewBox="0.00 0.00 425.00 787.00" xmlns="http://www.w3.org/2000/svg" xmlns:xlink="http://www.w3.org/1999/xlink">
<g id="graph0" class="graph" transform="scale(1 1) rotate(0) translate(4 782.5)">
<polygon fill="white" stroke="none" points="-4,4 -4,-782.5 421,-782.5 421,4 -4,4"/>
<!-- n1 -->
<g id="node1" class="node">
<title>n1</title>
<ellipse fill="#ffddcc" stroke="black" stroke-width="3" cx="56" cy="-100.5" rx="27" ry="18"/>
<text xml:space="preserve" text-anchor="middle" x="56" y="-96.8" font-family="Times,serif" font-size="11.00">1</text>
</g>
<!-- n3 -->
<g id="node3" class="node">
<title>n3</title>
<ellipse fill="#ccddff" stroke="black" stroke-width="3" cx="92" cy="-18" rx="27" ry="18"/>
<text xml:space="preserve" text-anchor="middle" x="92" y="-14.3" font-family="Times,serif" font-size="11.00">3</text>
</g>
<!-- n1&#45;&gt;n3 -->
<g id="edge1" class="edge">
<title>n1&#45;&gt;n3</title>
<path fill="none" stroke="#ddbb99" d="M47.33,-81.97C44.25,-73.22 42.49,-62.68 46.75,-54 50.02,-47.33 55.25,-41.57 61,-36.76"/>
<polygon fill="#ddbb99" stroke="#ddbb99" points="63.05,-39.6 69.06,-30.87 58.92,-33.94 63.05,-39.6"/>
<text xml:space="preserve" text-anchor="middle" x="58.38" y="-55.95" font-family="Times,serif" font-size="9.00" fill="#ddbb99"> x + 2 </text>
</g>
<!-- n2 -->
<g id="node2" class="node">
<title>n2</title>
<ellipse fill="#ffddcc" stroke="black" stroke-width="3" cx="243" cy="-348" rx="27" ry="18"/>
<text xml:space="preserve" text-anchor="middle" x="243" y="-344.3" font-family="Times,serif" font-size="11.00">2</text>
</g>
<!-- n4 -->
<g id="node4" class="node">
<title>n4</title>
<ellipse fill="#ffddcc" stroke="black" stroke-width="3" cx="313" cy="-265.5" rx="27" ry="18"/>
<text xml:space="preserve" text-anchor="middle" x="313" y="-261.8" font-family="Times,serif" font-size="11.00">4</text>
</g>
<!-- n2&#45;&gt;n4 -->
<g id="edge12" class="edge">
<title>n2&#45;&gt;n4</title>
<path fill="none" stroke="#ddbb99" d="M256.83,-331.1C266.8,-319.63 280.44,-303.94 291.79,-290.9"/>
<polygon fill="#ddbb99" stroke="#ddbb99" points="294.29,-293.36 298.21,-283.51 289,-288.76 294.29,-293.36"/>
<text xml:space="preserve" text-anchor="middle" x="293.82" y="-303.45" font-family="Times,serif" font-size="9.00" fill="#ddbb99"> x + 2 </text>
</g>
<!-- n3&#45;&gt;n1 -->
<g id="edge23" class="edge">
<title>n3&#45;&gt;n1</title>
<path fill="none" stroke="#6688bb" d="M84.08,-36.71C79.51,-46.92 73.67,-59.98 68.5,-71.55"/>
<polygon fill="#6688bb" stroke="#6688bb" points="65.32,-70.09 64.43,-80.65 71.71,-72.95 65.32,-70.09"/>
<text xml:space="preserve" text-anchor="middle" x="87.41" y="-55.95" font-family="Times,serif" font-size="9.00" fill="#6688bb"> x // 3 </text>
</g>
<!-- n6 -->
<g id="node6" class="node">
<title>n6</title>
<ellipse fill="#ccddff" stroke="black" stroke-width="3" cx="313" cy="-183" rx="27" ry="18"/>
<text xml:space="preserve" text-anchor="middle" x="313" y="-179.3" font-family="Times,serif" font-size="11.00">6</text>
</g>
<!-- n4&#45;&gt;n6 -->
<g id="edge27" class="edge">
<title>n4&#45;&gt;n6</title>
<path fill="none" stroke="#ddbb99" d="M313,-246.23C313,-236.63 313,-224.61 313,-213.7"/>
<polygon fill="#ddbb99" stroke="#ddbb99" points="316.5,-213.99 313,-203.99 309.5,-213.99 316.5,-213.99"/>
<text xml:space="preserve" text-anchor="middle" x="324.62" y="-220.95" font-family="Times,serif" font-size="9.00" fill="#ddbb99"> x + 2 </text>
</g>
<!-- n5 -->
<g id="node5" class="node">
<title>n5</title>
<ellipse fill="#ffddcc" stroke="black" stroke-width="3" cx="27" cy="-265.5" rx="27" ry="18"/>
<text xml:space="preserve" text-anchor="middle" x="27" y="-261.8" font-family="Times,serif" font-size="11.00">5</text>
</g>
<!-- n7 -->
<g id="node7" class="node">
<title>n7</title>
<ellipse fill="#ffddcc" stroke="black" stroke-width="3" cx="99" cy="-183" rx="27" ry="18"/>
<text xml:space="preserve" text-anchor="middle" x="99" y="-179.3" font-family="Times,serif" font-size="11.00">7</text>
</g>
<!-- n5&#45;&gt;n7 -->
<g id="edge28" class="edge">
<title>n5&#45;&gt;n7</title>
<path fill="none" stroke="#ddbb99" d="M40.88,-248.98C51.27,-237.36 65.68,-221.25 77.55,-207.98"/>
<polygon fill="#ddbb99" stroke="#ddbb99" points="79.85,-210.66 83.91,-200.88 74.63,-206 79.85,-210.66"/>
<text xml:space="preserve" text-anchor="middle" x="78.94" y="-220.95" font-family="Times,serif" font-size="9.00" fill="#ddbb99"> x + 2 </text>
</g>
<!-- n6&#45;&gt;n2 -->
<g id="edge29" class="edge">
<title>n6&#45;&gt;n2</title>
<path fill="none" stroke="#6688bb" d="M294.93,-198.08C281.36,-209.75 263.62,-227.61 254.5,-247.5 244.43,-269.47 241.91,-296.9 241.7,-317.39"/>
<polygon fill="#6688bb" stroke="#6688bb" points="238.2,-317.38 241.8,-327.34 245.2,-317.31 238.2,-317.38"/>
<text xml:space="preserve" text-anchor="middle" x="265.75" y="-262.2" font-family="Times,serif" font-size="9.00" fill="#6688bb"> x // 3 </text>
</g>
<!-- n9 -->
<g id="node9" class="node">
<title>n9</title>
<ellipse fill="#ccddff" stroke="black" stroke-width="3" cx="138" cy="-100.5" rx="27" ry="18"/>
<text xml:space="preserve" text-anchor="middle" x="138" y="-96.8" font-family="Times,serif" font-size="11.00">9</text>
</g>
<!-- n7&#45;&gt;n9 -->
<g id="edge30" class="edge">
<title>n7&#45;&gt;n9</title>
<path fill="none" stroke="#ddbb99" d="M107.46,-164.53C112.47,-154.19 118.93,-140.87 124.61,-129.13"/>
<polygon fill="#ddbb99" stroke="#ddbb99" points="127.68,-130.82 128.89,-120.3 121.38,-127.77 127.68,-130.82"/>
<text xml:space="preserve" text-anchor="middle" x="132.46" y="-138.45" font-family="Times,serif" font-size="9.00" fill="#ddbb99"> x + 2 </text>
</g>
<!-- n8 -->
<g id="node8" class="node">
<title>n8</title>
<ellipse fill="#ffddcc" stroke="black" stroke-width="3" cx="281" cy="-513" rx="27" ry="18"/>
<text xml:space="preserve" text-anchor="middle" x="281" y="-509.3" font-family="Times,serif" font-size="11.00">8</text>
</g>
<!-- n10 -->
<g id="node10" class="node">
<title>n10</title>
<ellipse fill="#ffddcc" stroke="black" stroke-width="3" cx="318" cy="-430.5" rx="27" ry="18"/>
<text xml:space="preserve" text-anchor="middle" x="318" y="-426.8" font-family="Times,serif" font-size="11.00">10</text>
</g>
<!-- n8&#45;&gt;n10 -->
<g id="edge31" class="edge">
<title>n8&#45;&gt;n10</title>
<path fill="none" stroke="#ddbb99" d="M289.03,-494.53C293.78,-484.19 299.91,-470.87 305.3,-459.13"/>
<polygon fill="#ddbb99" stroke="#ddbb99" points="308.36,-460.86 309.36,-450.31 302,-457.93 308.36,-460.86"/>
<text xml:space="preserve" text-anchor="middle" x="313.34" y="-468.45" font-family="Times,serif" font-size="9.00" fill="#ddbb99"> x + 2 </text>
</g>
<!-- n9&#45;&gt;n3 -->
<g id="edge32" class="edge">
<title>n9&#45;&gt;n3</title>
<path fill="none" stroke="#6688bb" d="M128.24,-82.43C122.21,-71.86 114.32,-58.06 107.45,-46.04"/>
<polygon fill="#6688bb" stroke="#6688bb" points="110.49,-44.31 102.49,-37.36 104.41,-47.78 110.49,-44.31"/>
<text xml:space="preserve" text-anchor="middle" x="129" y="-55.95" font-family="Times,serif" font-size="9.00" fill="#6688bb"> x // 3 </text>
</g>
<!-- n12 -->
<g id="node12" class="node">
<title>n12</title>
<ellipse fill="#ccddff" stroke="black" stroke-width="3" cx="318" cy="-348" rx="27" ry="18"/>
<text xml:space="preserve" text-anchor="middle" x="318" y="-344.3" font-family="Times,serif" font-size="11.00">12</text>
</g>
<!-- n10&#45;&gt;n12 -->
<g id="edge2" class="edge">
<title>n10&#45;&gt;n12</title>
<path fill="none" stroke="#ddbb99" d="M318,-411.23C318,-401.63 318,-389.61 318,-378.7"/>
<polygon fill="#ddbb99" stroke="#ddbb99" points="321.5,-378.99 318,-368.99 314.5,-378.99 321.5,-378.99"/>
<text xml:space="preserve" text-anchor="middle" x="329.62" y="-385.95" font-family="Times,serif" font-size="9.00" fill="#ddbb99"> x + 2 </text>
</g>
<!-- n11 -->
<g id="node11" class="node">
<title>n11</title>
<ellipse fill="#ffddcc" stroke="black" stroke-width="3" cx="27" cy="-513" rx="27" ry="18"/>
<text xml:space="preserve" text-anchor="middle" x="27" y="-509.3" font-family="Times,serif" font-size="11.00">11</text>
</g>
<!-- n13 -->
<g id="node13" class="node">
<title>n13</title>
<ellipse fill="#ffddcc" stroke="black" stroke-width="3" cx="27" cy="-430.5" rx="27" ry="18"/>
<text xml:space="preserve" text-anchor="middle" x="27" y="-426.8" font-family="Times,serif" font-size="11.00">13</text>
</g>
<!-- n11&#45;&gt;n13 -->
<g id="edge3" class="edge">
<title>n11&#45;&gt;n13</title>
<path fill="none" stroke="#ddbb99" d="M27,-493.73C27,-484.13 27,-472.11 27,-461.2"/>
<polygon fill="#ddbb99" stroke="#ddbb99" points="30.5,-461.49 27,-451.49 23.5,-461.49 30.5,-461.49"/>
<text xml:space="preserve" text-anchor="middle" x="38.62" y="-468.45" font-family="Times,serif" font-size="9.00" fill="#ddbb99"> x + 2 </text>
</g>
<!-- n12&#45;&gt;n4 -->
<g id="edge4" class="edge">
<title>n12&#45;&gt;n4</title>
<path fill="none" stroke="#6688bb" d="M316.87,-328.73C316.27,-319.13 315.52,-307.11 314.84,-296.2"/>
<polygon fill="#6688bb" stroke="#6688bb" points="318.35,-296.25 314.24,-286.48 311.37,-296.68 318.35,-296.25"/>
<text xml:space="preserve" text-anchor="middle" x="327.05" y="-303.45" font-family="Times,serif" font-size="9.00" fill="#6688bb"> x // 3 </text>
</g>
<!-- n15 -->
<g id="node15" class="node">
<title>n15</title>
<ellipse fill="#ccddff" stroke="black" stroke-width="3" cx="27" cy="-348" rx="27" ry="18"/>
<text xml:space="preserve" text-anchor="middle" x="27" y="-344.3" font-family="Times,serif" font-size="11.00">15</text>
</g>
<!-- n13&#45;&gt;n15 -->
<g id="edge5" class="edge">
<title>n13&#45;&gt;n15</title>
<path fill="none" stroke="#ddbb99" d="M27,-411.23C27,-401.63 27,-389.61 27,-378.7"/>
<polygon fill="#ddbb99" stroke="#ddbb99" points="30.5,-378.99 27,-368.99 23.5,-378.99 30.5,-378.99"/>
<text xml:space="preserve" text-anchor="middle" x="38.62" y="-385.95" font-family="Times,serif" font-size="9.00" fill="#ddbb99"> x + 2 </text>
</g>
<!-- n14 -->
<g id="node14" class="node">
<title>n14</title>
<ellipse fill="#ffddcc" stroke="black" stroke-width="3" cx="390" cy="-430.5" rx="27" ry="18"/>
<text xml:space="preserve" text-anchor="middle" x="390" y="-426.8" font-family="Times,serif" font-size="11.00">14</text>
</g>
<!-- n16 -->
<g id="node16" class="node">
<title>n16</title>
<ellipse fill="#ffddcc" stroke="black" stroke-width="3" cx="390" cy="-348" rx="27" ry="18"/>
<text xml:space="preserve" text-anchor="middle" x="390" y="-344.3" font-family="Times,serif" font-size="11.00">16</text>
</g>
<!-- n14&#45;&gt;n16 -->
<g id="edge6" class="edge">
<title>n14&#45;&gt;n16</title>
<path fill="none" stroke="#ddbb99" d="M390,-411.23C390,-401.63 390,-389.61 390,-378.7"/>
<polygon fill="#ddbb99" stroke="#ddbb99" points="393.5,-378.99 390,-368.99 386.5,-378.99 393.5,-378.99"/>
<text xml:space="preserve" text-anchor="middle" x="401.62" y="-385.95" font-family="Times,serif" font-size="9.00" fill="#ddbb99"> x + 2 </text>
</g>
<!-- n15&#45;&gt;n5 -->
<g id="edge7" class="edge">
<title>n15&#45;&gt;n5</title>
<path fill="none" stroke="#6688bb" d="M27,-328.73C27,-319.13 27,-307.11 27,-296.2"/>
<polygon fill="#6688bb" stroke="#6688bb" points="30.5,-296.49 27,-286.49 23.5,-296.49 30.5,-296.49"/>
<text xml:space="preserve" text-anchor="middle" x="38.25" y="-303.45" font-family="Times,serif" font-size="9.00" fill="#6688bb"> x // 3 </text>
</g>
<!-- n18 -->
<g id="node18" class="node">
<title>n18</title>
<ellipse fill="#ccddff" stroke="black" stroke-width="3" cx="388" cy="-265.5" rx="27" ry="18"/>
<text xml:space="preserve" text-anchor="middle" x="388" y="-261.8" font-family="Times,serif" font-size="11.00">18</text>
</g>
<!-- n16&#45;&gt;n18 -->
<g id="edge8" class="edge">
<title>n16&#45;&gt;n18</title>
<path fill="none" stroke="#ddbb99" d="M389.55,-328.73C389.31,-319.13 389.01,-307.11 388.74,-296.2"/>
<polygon fill="#ddbb99" stroke="#ddbb99" points="392.24,-296.4 388.5,-286.49 385.25,-296.57 392.24,-296.4"/>
<text xml:space="preserve" text-anchor="middle" x="400.74" y="-303.45" font-family="Times,serif" font-size="9.00" fill="#ddbb99"> x + 2 </text>
</g>
<!-- n17 -->
<g id="node17" class="node">
<title>n17</title>
<ellipse fill="#ffddcc" stroke="black" stroke-width="3" cx="99" cy="-430.5" rx="27" ry="18"/>
<text xml:space="preserve" text-anchor="middle" x="99" y="-426.8" font-family="Times,serif" font-size="11.00">17</text>
</g>
<!-- n19 -->
<g id="node19" class="node">
<title>n19</title>
<ellipse fill="#ffddcc" stroke="black" stroke-width="3" cx="99" cy="-348" rx="27" ry="18"/>
<text xml:space="preserve" text-anchor="middle" x="99" y="-344.3" font-family="Times,serif" font-size="11.00">19</text>
</g>
<!-- n17&#45;&gt;n19 -->
<g id="edge9" class="edge">
<title>n17&#45;&gt;n19</title>
<path fill="none" stroke="#ddbb99" d="M99,-411.23C99,-401.63 99,-389.61 99,-378.7"/>
<polygon fill="#ddbb99" stroke="#ddbb99" points="102.5,-378.99 99,-368.99 95.5,-378.99 102.5,-378.99"/>
<text xml:space="preserve" text-anchor="middle" x="110.62" y="-385.95" font-family="Times,serif" font-size="9.00" fill="#ddbb99"> x + 2 </text>
</g>
<!-- n18&#45;&gt;n6 -->
<g id="edge10" class="edge">
<title>n18&#45;&gt;n6</title>
<path fill="none" stroke="#6688bb" d="M373.54,-248.98C362.64,-237.29 347.51,-221.05 335.11,-207.73"/>
<polygon fill="#6688bb" stroke="#6688bb" points="337.83,-205.51 328.45,-200.58 332.7,-210.28 337.83,-205.51"/>
<text xml:space="preserve" text-anchor="middle" x="366.24" y="-220.95" font-family="Times,serif" font-size="9.00" fill="#6688bb"> x // 3 </text>
</g>
<!-- n21 -->
<g id="node21" class="node">
<title>n21</title>
<ellipse fill="#ccddff" stroke="black" stroke-width="3" cx="99" cy="-265.5" rx="27" ry="18"/>
<text xml:space="preserve" text-anchor="middle" x="99" y="-261.8" font-family="Times,serif" font-size="11.00">21</text>
</g>
<!-- n19&#45;&gt;n21 -->
<g id="edge11" class="edge">
<title>n19&#45;&gt;n21</title>
<path fill="none" stroke="#ddbb99" d="M99,-328.73C99,-319.13 99,-307.11 99,-296.2"/>
<polygon fill="#ddbb99" stroke="#ddbb99" points="102.5,-296.49 99,-286.49 95.5,-296.49 102.5,-296.49"/>
<text xml:space="preserve" text-anchor="middle" x="110.62" y="-303.45" font-family="Times,serif" font-size="9.00" fill="#ddbb99"> x + 2 </text>
</g>
<!-- n20 -->
<g id="node20" class="node">
<title>n20</title>
<ellipse fill="#ffddcc" stroke="black" stroke-width="3" cx="281" cy="-760.5" rx="27" ry="18"/>
<text xml:space="preserve" text-anchor="middle" x="281" y="-756.8" font-family="Times,serif" font-size="11.00">20</text>
</g>
<!-- n22 -->
<g id="node22" class="node">
<title>n22</title>
<ellipse fill="#ffddcc" stroke="black" stroke-width="3" cx="281" cy="-678" rx="27" ry="18"/>
<text xml:space="preserve" text-anchor="middle" x="281" y="-674.3" font-family="Times,serif" font-size="11.00">22</text>
</g>
<!-- n20&#45;&gt;n22 -->
<g id="edge13" class="edge">
<title>n20&#45;&gt;n22</title>
<path fill="none" stroke="#ddbb99" d="M281,-741.23C281,-731.63 281,-719.61 281,-708.7"/>
<polygon fill="#ddbb99" stroke="#ddbb99" points="284.5,-708.99 281,-698.99 277.5,-708.99 284.5,-708.99"/>
<text xml:space="preserve" text-anchor="middle" x="292.62" y="-715.95" font-family="Times,serif" font-size="9.00" fill="#ddbb99"> x + 2 </text>
</g>
<!-- n21&#45;&gt;n7 -->
<g id="edge14" class="edge">
<title>n21&#45;&gt;n7</title>
<path fill="none" stroke="#6688bb" d="M99,-246.23C99,-236.63 99,-224.61 99,-213.7"/>
<polygon fill="#6688bb" stroke="#6688bb" points="102.5,-213.99 99,-203.99 95.5,-213.99 102.5,-213.99"/>
<text xml:space="preserve" text-anchor="middle" x="110.25" y="-220.95" font-family="Times,serif" font-size="9.00" fill="#6688bb"> x // 3 </text>
</g>
<!-- n24 -->
<g id="node24" class="node">
<title>n24</title>
<ellipse fill="#ccddff" stroke="black" stroke-width="3" cx="281" cy="-595.5" rx="27" ry="18"/>
<text xml:space="preserve" text-anchor="middle" x="281" y="-591.8" font-family="Times,serif" font-size="11.00">24</text>
</g>
<!-- n22&#45;&gt;n24 -->
<g id="edge15" class="edge">
<title>n22&#45;&gt;n24</title>
<path fill="none" stroke="#ddbb99" d="M281,-658.73C281,-649.13 281,-637.11 281,-626.2"/>
<polygon fill="#ddbb99" stroke="#ddbb99" points="284.5,-626.49 281,-616.49 277.5,-626.49 284.5,-626.49"/>
<text xml:space="preserve" text-anchor="middle" x="292.62" y="-633.45" font-family="Times,serif" font-size="9.00" fill="#ddbb99"> x + 2 </text>
</g>
<!-- n23 -->
<g id="node23" class="node">
<title>n23</title>
<ellipse fill="#ffddcc" stroke="black" stroke-width="3" cx="171" cy="-348" rx="27" ry="18"/>
<text xml:space="preserve" text-anchor="middle" x="171" y="-344.3" font-family="Times,serif" font-size="11.00">23</text>
</g>
<!-- n25 -->
<g id="node25" class="node">
<title>n25</title>
<ellipse fill="#ffddcc" stroke="black" stroke-width="3" cx="171" cy="-265.5" rx="27" ry="18"/>
<text xml:space="preserve" text-anchor="middle" x="171" y="-261.8" font-family="Times,serif" font-size="11.00">25</text>
</g>
<!-- n23&#45;&gt;n25 -->
<g id="edge16" class="edge">
<title>n23&#45;&gt;n25</title>
<path fill="none" stroke="#ddbb99" d="M171,-328.73C171,-319.13 171,-307.11 171,-296.2"/>
<polygon fill="#ddbb99" stroke="#ddbb99" points="174.5,-296.49 171,-286.49 167.5,-296.49 174.5,-296.49"/>
<text xml:space="preserve" text-anchor="middle" x="182.62" y="-303.45" font-family="Times,serif" font-size="9.00" fill="#ddbb99"> x + 2 </text>
</g>
<!-- n24&#45;&gt;n8 -->
<g id="edge17" class="edge">
<title>n24&#45;&gt;n8</title>
<path fill="none" stroke="#6688bb" d="M281,-576.23C281,-566.63 281,-554.61 281,-543.7"/>
<polygon fill="#6688bb" stroke="#6688bb" points="284.5,-543.99 281,-533.99 277.5,-543.99 284.5,-543.99"/>
<text xml:space="preserve" text-anchor="middle" x="292.25" y="-550.95" font-family="Times,serif" font-size="9.00" fill="#6688bb"> x // 3 </text>
</g>
<!-- n27 -->
<g id="node27" class="node">
<title>n27</title>
<ellipse fill="#ccddff" stroke="black" stroke-width="3" cx="171" cy="-183" rx="27" ry="18"/>
<text xml:space="preserve" text-anchor="middle" x="171" y="-179.3" font-family="Times,serif" font-size="11.00">27</text>
</g>
<!-- n25&#45;&gt;n27 -->
<g id="edge18" class="edge">
<title>n25&#45;&gt;n27</title>
<path fill="none" stroke="#ddbb99" d="M171,-246.23C171,-236.63 171,-224.61 171,-213.7"/>
<polygon fill="#ddbb99" stroke="#ddbb99" points="174.5,-213.99 171,-203.99 167.5,-213.99 174.5,-213.99"/>
<text xml:space="preserve" text-anchor="middle" x="182.62" y="-220.95" font-family="Times,serif" font-size="9.00" fill="#ddbb99"> x + 2 </text>
</g>
<!-- n26 -->
<g id="node26" class="node">
<title>n26</title>
<ellipse fill="#ffddcc" stroke="black" stroke-width="3" cx="353" cy="-678" rx="27" ry="18"/>
<text xml:space="preserve" text-anchor="middle" x="353" y="-674.3" font-family="Times,serif" font-size="11.00">26</text>
</g>
<!-- n28 -->
<g id="node28" class="node">
<title>n28</title>
<ellipse fill="#ffddcc" stroke="black" stroke-width="3" cx="353" cy="-595.5" rx="27" ry="18"/>
<text xml:space="preserve" text-anchor="middle" x="353" y="-591.8" font-family="Times,serif" font-size="11.00">28</text>
</g>
<!-- n26&#45;&gt;n28 -->
<g id="edge19" class="edge">
<title>n26&#45;&gt;n28</title>
<path fill="none" stroke="#ddbb99" d="M353,-658.73C353,-649.13 353,-637.11 353,-626.2"/>
<polygon fill="#ddbb99" stroke="#ddbb99" points="356.5,-626.49 353,-616.49 349.5,-626.49 356.5,-626.49"/>
<text xml:space="preserve" text-anchor="middle" x="364.62" y="-633.45" font-family="Times,serif" font-size="9.00" fill="#ddbb99"> x + 2 </text>
</g>
<!-- n27&#45;&gt;n9 -->
<g id="edge20" class="edge">
<title>n27&#45;&gt;n9</title>
<path fill="none" stroke="#6688bb" d="M163.84,-164.53C159.67,-154.37 154.32,-141.32 149.57,-129.73"/>
<polygon fill="#6688bb" stroke="#6688bb" points="152.87,-128.54 145.83,-120.61 146.39,-131.19 152.87,-128.54"/>
<text xml:space="preserve" text-anchor="middle" x="167.73" y="-138.45" font-family="Times,serif" font-size="9.00" fill="#6688bb"> x // 3 </text>
</g>
<!-- n30 -->
<g id="node30" class="node">
<title>n30</title>
<ellipse fill="#ccddff" stroke="black" cx="353" cy="-513" rx="27" ry="18"/>
<text xml:space="preserve" text-anchor="middle" x="353" y="-509.3" font-family="Times,serif" font-size="11.00">30</text>
</g>
<!-- n28&#45;&gt;n30 -->
<g id="edge21" class="edge">
<title>n28&#45;&gt;n30</title>
<path fill="none" stroke="#ddbb99" d="M353,-576.23C353,-566.35 353,-553.93 353,-542.78"/>
<polygon fill="#ddbb99" stroke="#ddbb99" points="356.5,-542.88 353,-532.88 349.5,-542.88 356.5,-542.88"/>
<text xml:space="preserve" text-anchor="middle" x="364.62" y="-550.95" font-family="Times,serif" font-size="9.00" fill="#ddbb99"> x + 2 </text>
</g>
<!-- n29 -->
<g id="node29" class="node">
<title>n29</title>
<ellipse fill="#ffddcc" stroke="black" stroke-width="3" cx="27" cy="-760.5" rx="27" ry="18"/>
<text xml:space="preserve" text-anchor="middle" x="27" y="-756.8" font-family="Times,serif" font-size="11.00">29</text>
</g>
<!-- n31 -->
<g id="node31" class="node">
<title>n31</title>
<ellipse fill="#ffddcc" stroke="black" cx="27" cy="-678" rx="27" ry="18"/>
<text xml:space="preserve" text-anchor="middle" x="27" y="-674.3" font-family="Times,serif" font-size="11.00">31</text>
</g>
<!-- n29&#45;&gt;n31 -->
<g id="edge22" class="edge">
<title>n29&#45;&gt;n31</title>
<path fill="none" stroke="#ddbb99" d="M27,-741.23C27,-731.35 27,-718.93 27,-707.78"/>
<polygon fill="#ddbb99" stroke="#ddbb99" points="30.5,-707.88 27,-697.88 23.5,-707.88 30.5,-707.88"/>
<text xml:space="preserve" text-anchor="middle" x="38.62" y="-715.95" font-family="Times,serif" font-size="9.00" fill="#ddbb99"> x + 2 </text>
</g>
<!-- n30&#45;&gt;n10 -->
<g id="edge24" class="edge">
<title>n30&#45;&gt;n10</title>
<path fill="none" stroke="#6688bb" d="M345.75,-495.32C341.24,-484.95 335.33,-471.37 330.13,-459.4"/>
<polygon fill="#6688bb" stroke="#6688bb" points="333.41,-458.16 326.21,-450.38 326.99,-460.95 333.41,-458.16"/>
<text xml:space="preserve" text-anchor="middle" x="348.85" y="-468.45" font-family="Times,serif" font-size="9.00" fill="#6688bb"> x // 3 </text>
</g>
<!-- n33 -->
<g id="node32" class="node">
<title>n33</title>
<ellipse fill="#ccddff" stroke="black" cx="27" cy="-595.5" rx="27" ry="18"/>
<text xml:space="preserve" text-anchor="middle" x="27" y="-591.8" font-family="Times,serif" font-size="11.00">33</text>
</g>
<!-- n31&#45;&gt;n33 -->
<g id="edge25" class="edge">
<title>n31&#45;&gt;n33</title>
<path fill="none" stroke="#ddbb99" d="M27,-659.53C27,-649.51 27,-636.68 27,-625.21"/>
<polygon fill="#ddbb99" stroke="#ddbb99" points="30.5,-625.45 27,-615.45 23.5,-625.45 30.5,-625.45"/>
<text xml:space="preserve" text-anchor="middle" x="38.62" y="-633.45" font-family="Times,serif" font-size="9.00" fill="#ddbb99"> x + 2 </text>
</g>
<!-- n33&#45;&gt;n11 -->
<g id="edge26" class="edge">
<title>n33&#45;&gt;n11</title>
<path fill="none" stroke="#6688bb" d="M27,-577.03C27,-567.32 27,-554.97 27,-543.78"/>
<polygon fill="#6688bb" stroke="#6688bb" points="30.5,-543.78 27,-533.78 23.5,-543.78 30.5,-543.78"/>
<text xml:space="preserve" text-anchor="middle" x="38.25" y="-550.95" font-family="Times,serif" font-size="9.00" fill="#6688bb"> x // 3 </text>
</g>
</g>
</svg>
