<?xml version="1.0" encoding="UTF-8" standalone="no"?>
<!DOCTYPE svg PUBLIC "-//W3C//DTD SVG 1.1//EN"
 "http://www.w3.org/Graphics/SVG/1.1/DTD/svg11.dtd">
<!-- Generated by graphviz version 14.1.3 (20260303.0454)
 -->
<!-- Pages: 1 -->
<svg width="294pt" height="374pt"
 viewBox="0.00 0.00 294.00 374.00" xmlns="http://www.w3.org/2000/svg" xmlns:xlink="http://www.w3.org/1999/xlink">
<g id="graph0" class="graph" transform="scale(1 1) rotate(0) translate(4 370)">
<polygon fill="white" stroke="none" points="-4,4 -4,-370 290,-370 290,4 -4,4"/>
<!-- n1 -->
<g id="node1" class="node">
<title>n1</title>
<ellipse fill="none" stroke="black" cx="184" cy="-18" rx="27" ry="18"/>
<text xml:space="preserve" text-anchor="middle" x="184" y="-14.3" font-family="Times,serif" font-size="11.00">1</text>
</g>
<!-- n2 -->
<g id="node2" class="node">
<title>n2</title>
<ellipse fill="#ccddff" stroke="black" cx="137" cy="-100.5" rx="27" ry="18"/>
<text xml:space="preserve" text-anchor="middle" x="137" y="-96.8" font-family="Times,serif" font-size="11.00">2</text>
</g>
<!-- n2&#45;&gt;n1 -->
<g id="edge5" class="edge">
<title>n2&#45;&gt;n1</title>
<path fill="none" stroke="#6688bb" d="M146.51,-83.21C152.88,-72.3 161.41,-57.69 168.72,-45.17"/>
<polygon fill="#6688bb" stroke="#6688bb" points="171.72,-46.97 173.74,-36.57 165.68,-43.44 171.72,-46.97"/>
<text xml:space="preserve" text-anchor="middle" x="170.44" y="-55.95" font-family="Times,serif" font-size="9.00" fill="#6688bb"> ÷2 </text>
</g>
<!-- n3 -->
<g id="node3" class="node">
<title>n3</title>
<ellipse fill="#ffddcc" stroke="black" cx="259" cy="-100.5" rx="27" ry="18"/>
<text xml:space="preserve" text-anchor="middle" x="259" y="-96.8" font-family="Times,serif" font-size="11.00">3</text>
</g>
<!-- n3&#45;&gt;n1 -->
<g id="edge10" class="edge">
<title>n3&#45;&gt;n1</title>
<path fill="none" stroke="#ddbb99" d="M245.24,-84.74C234.11,-72.78 218.22,-55.73 205.42,-42"/>
<polygon fill="#ddbb99" stroke="#ddbb99" points="208.33,-39.98 198.95,-35.05 203.21,-44.75 208.33,-39.98"/>
<text xml:space="preserve" text-anchor="middle" x="233.12" y="-55.95" font-family="Times,serif" font-size="9.00" fill="#ddbb99"> ÷3 </text>
</g>
<!-- n4 -->
<g id="node4" class="node">
<title>n4</title>
<path fill="#0045cf" stroke="black" stroke-width="0.5" d="M27,-183C27,-183 54,-183 54,-183 54,-183.59 53.96,-184.18 53.87,-184.76 53.78,-185.35 53.65,-185.93 53.48,-186.51 53.31,-187.09 53.09,-187.66 52.84,-188.23 52.58,-188.79 52.28,-189.34 51.94,-189.89 51.61,-190.43 51.23,-190.97 50.81,-191.49 50.4,-192 49.94,-192.51 49.45,-193 48.96,-193.49 48.43,-193.96 47.87,-194.42 47.31,-194.87 46.72,-195.31 46.09,-195.73 45.47,-196.14 44.81,-196.54 44.13,-196.91 43.45,-197.29 42.74,-197.64 42,-197.97 41.27,-198.29 40.51,-198.6 39.73,-198.87 38.95,-199.15 38.15,-199.4 37.33,-199.63 36.52,-199.86 35.68,-200.05 34.84,-200.22 33.99,-200.4 33.13,-200.54 32.27,-200.65 31.4,-200.77 30.53,-200.86 29.65,-200.91 28.77,-200.97 27.88,-201 27,-201 26.12,-201 25.23,-200.97 24.35,-200.91 23.47,-200.86 22.6,-200.77 21.73,-200.65 20.87,-200.54 20.01,-200.4 19.16,-200.22 18.32,-200.05 17.48,-199.86 16.67,-199.63 15.85,-199.4 15.05,-199.15 14.27,-198.87 13.49,-198.6 12.73,-198.29 12,-197.97 11.26,-197.64 10.55,-197.29 9.87,-196.91 9.19,-196.54 8.53,-196.14 7.91,-195.73 7.28,-195.31 6.69,-194.87 6.13,-194.42 5.57,-193.96 5.04,-193.49 4.55,-193 4.06,-192.51 3.6,-192 3.19,-191.49 2.77,-190.97 2.39,-190.43 2.06,-189.89 1.72,-189.34 1.42,-188.79 1.16,-188.23 0.91,-187.66 0.69,-187.09 0.52,-186.51 0.35,-185.93 0.22,-185.35 0.13,-184.76 0.04,-184.18 0,-183.59 0,-183 0,-183 27,-183 27,-183"/>
<path fill="#329532" stroke="black" stroke-width="0.5" d="M27,-183C27,-183 0,-183 0,-183 0,-182.41 0.04,-181.82 0.13,-181.24 0.22,-180.65 0.35,-180.07 0.52,-179.49 0.69,-178.91 0.91,-178.34 1.16,-177.77 1.42,-177.21 1.72,-176.66 2.06,-176.11 2.39,-175.57 2.77,-175.03 3.19,-174.51 3.6,-174 4.06,-173.49 4.55,-173 5.04,-172.51 5.57,-172.04 6.13,-171.58 6.69,-171.13 7.28,-170.69 7.91,-170.27 8.53,-169.86 9.19,-169.46 9.87,-169.09 10.55,-168.71 11.26,-168.36 12,-168.03 12.73,-167.71 13.49,-167.4 14.27,-167.13 15.05,-166.85 15.85,-166.6 16.67,-166.37 17.48,-166.14 18.32,-165.95 19.16,-165.78 20.01,-165.6 20.87,-165.46 21.73,-165.35 22.6,-165.23 23.47,-165.14 24.35,-165.09 25.23,-165.03 26.12,-165 27,-165 27.88,-165 28.77,-165.03 29.65,-165.09 30.53,-165.14 31.4,-165.23 32.27,-165.35 33.13,-165.46 33.99,-165.6 34.84,-165.78 35.68,-165.95 36.52,-166.14 37.33,-166.37 38.15,-166.6 38.95,-166.85 39.73,-167.13 40.51,-167.4 41.27,-167.71 42,-168.03 42.74,-168.36 43.45,-168.71 44.13,-169.09 44.81,-169.46 45.47,-169.86 46.09,-170.27 46.72,-170.69 47.31,-171.13 47.87,-171.58 48.43,-172.04 48.96,-172.51 49.45,-173 49.94,-173.49 50.4,-174 50.81,-174.51 51.23,-175.03 51.61,-175.57 51.94,-176.11 52.28,-176.66 52.58,-177.21 52.84,-177.77 53.09,-178.34 53.31,-178.91 53.48,-179.49 53.65,-180.07 53.78,-180.65 53.87,-181.24 53.96,-181.82 54,-182.41 54,-183 54,-183 27,-183 27,-183"/>
<ellipse fill="none" stroke="black" cx="27" cy="-183" rx="27" ry="18"/>
<text xml:space="preserve" text-anchor="middle" x="27" y="-179.3" font-family="Times,serif" font-size="11.00" fill="white">4</text>
</g>
<!-- n4&#45;&gt;n1 -->
<g id="edge11" class="edge">
<title>n4&#45;&gt;n1</title>
<path fill="none" stroke="#77aa77" d="M33.85,-165.19C37.64,-156.44 42.66,-145.67 48,-136.5 62.87,-110.97 65.41,-102.92 86.75,-82.5 106.6,-63.51 132.87,-46.74 153.1,-35.22"/>
<polygon fill="#77aa77" stroke="#77aa77" points="154.7,-38.33 161.74,-30.42 151.3,-32.21 154.7,-38.33"/>
<text xml:space="preserve" text-anchor="middle" x="93.88" y="-97.2" font-family="Times,serif" font-size="9.00" fill="#77aa77"> ÷4 </text>
</g>
<!-- n4&#45;&gt;n2 -->
<g id="edge12" class="edge">
<title>n4&#45;&gt;n2</title>
<path fill="none" stroke="#6688bb" d="M36.36,-166.1C42.6,-156.56 51.52,-144.72 61.75,-136.5 73.8,-126.81 88.97,-119.1 102.53,-113.4"/>
<polygon fill="#6688bb" stroke="#6688bb" points="103.55,-116.76 111.56,-109.83 100.97,-110.26 103.55,-116.76"/>
<text xml:space="preserve" text-anchor="middle" x="68.88" y="-138.45" font-family="Times,serif" font-size="9.00" fill="#6688bb"> ÷2 </text>
</g>
<!-- n6 -->
<g id="node5" class="node">
<title>n6</title>
<path fill="#ccddff" stroke="black" stroke-width="0.5" d="M199,-183C199,-183 226,-183 226,-183 226,-183.73 225.93,-184.45 225.8,-185.18 225.67,-185.9 225.47,-186.61 225.21,-187.32 224.95,-188.02 224.62,-188.72 224.24,-189.4 223.85,-190.08 223.4,-190.74 222.89,-191.38 222.38,-192.03 221.82,-192.65 221.2,-193.25 220.58,-193.85 219.9,-194.42 219.18,-194.96 218.45,-195.5 217.68,-196.02 216.86,-196.5 216.04,-196.98 215.18,-197.43 214.28,-197.84 213.38,-198.25 212.45,-198.63 211.48,-198.96 210.51,-199.3 209.52,-199.59 208.5,-199.85 207.48,-200.11 206.43,-200.32 205.37,-200.49 204.31,-200.66 203.24,-200.79 202.16,-200.88 201.07,-200.96 199.98,-201 198.89,-201 197.8,-201 196.71,-200.95 195.63,-200.86 194.55,-200.77 193.48,-200.63 192.42,-200.46 191.36,-200.28 190.32,-200.06 189.3,-199.8 189.3,-199.8 199,-183 199,-183"/>
<path fill="#ffddcc" stroke="black" stroke-width="0.5" d="M199,-183C199,-183 189.3,-199.8 189.3,-199.8 188.04,-199.47 186.81,-199.09 185.63,-198.64 184.46,-198.19 183.33,-197.69 182.27,-197.13 181.21,-196.57 180.21,-195.96 179.28,-195.3 178.36,-194.64 177.51,-193.93 176.74,-193.19 175.98,-192.44 175.29,-191.66 174.7,-190.85 174.11,-190.04 173.61,-189.2 173.21,-188.33 172.81,-187.47 172.51,-186.59 172.3,-185.7 172.1,-184.8 172,-183.9 172,-183 172,-182.1 172.1,-181.2 172.3,-180.3 172.51,-179.41 172.81,-178.53 173.21,-177.67 173.61,-176.8 174.11,-175.96 174.7,-175.15 175.29,-174.34 175.98,-173.56 176.74,-172.81 177.51,-172.07 178.36,-171.36 179.28,-170.7 180.21,-170.04 181.21,-169.43 182.27,-168.87 183.33,-168.31 184.46,-167.81 185.63,-167.36 186.81,-166.91 188.04,-166.53 189.3,-166.2 189.3,-166.2 199,-183 199,-183"/>
<path fill="#eeccee" stroke="black" stroke-width="0.5" d="M199,-183C199,-183 189.3,-166.2 189.3,-166.2 190.32,-165.94 191.36,-165.72 192.42,-165.54 193.48,-165.37 194.55,-165.23 195.63,-165.14 196.71,-165.05 197.8,-165 198.89,-165 199.98,-165 201.07,-165.04 202.16,-165.12 203.24,-165.21 204.31,-165.34 205.37,-165.51 206.43,-165.68 207.48,-165.89 208.5,-166.15 209.52,-166.41 210.51,-166.7 211.48,-167.04 212.45,-167.37 213.38,-167.75 214.28,-168.16 215.18,-168.57 216.04,-169.02 216.86,-169.5 217.68,-169.98 218.45,-170.5 219.18,-171.04 219.9,-171.58 220.58,-172.15 221.2,-172.75 221.82,-173.35 222.38,-173.97 222.89,-174.62 223.4,-175.26 223.85,-175.92 224.24,-176.6 224.62,-177.28 224.95,-177.98 225.21,-178.68 225.47,-179.39 225.67,-180.1 225.8,-180.82 225.93,-181.55 226,-182.27 226,-183 226,-183 199,-183 199,-183"/>
<ellipse fill="none" stroke="black" stroke-width="3" cx="199" cy="-183" rx="27" ry="18"/>
<text xml:space="preserve" text-anchor="middle" x="199" y="-179.3" font-family="Times,serif" font-size="11.00">6</text>
</g>
<!-- n6&#45;&gt;n1 -->
<g id="edge13" class="edge">
<title>n6&#45;&gt;n1</title>
<path fill="none" stroke="#aa77aa" d="M197.31,-163.62C194.7,-135.29 189.68,-80.76 186.61,-47.35"/>
<polygon fill="#aa77aa" stroke="#aa77aa" points="190.11,-47.23 185.71,-37.59 183.14,-47.87 190.11,-47.23"/>
<text xml:space="preserve" text-anchor="middle" x="200.12" y="-97.2" font-family="Times,serif" font-size="9.00" fill="#aa77aa"> ÷6 </text>
</g>
<!-- n6&#45;&gt;n2 -->
<g id="edge14" class="edge">
<title>n6&#45;&gt;n2</title>
<path fill="none" stroke="#ddbb99" d="M186.21,-165.64C181.64,-159.77 176.45,-153.1 171.75,-147 166.49,-140.18 160.81,-132.77 155.6,-125.94"/>
<polygon fill="#ddbb99" stroke="#ddbb99" points="158.63,-124.14 149.78,-118.31 153.06,-128.39 158.63,-124.14"/>
<text xml:space="preserve" text-anchor="middle" x="178.88" y="-138.45" font-family="Times,serif" font-size="9.00" fill="#ddbb99"> ÷3 </text>
</g>
<!-- n6&#45;&gt;n3 -->
<g id="edge15" class="edge">
<title>n6&#45;&gt;n3</title>
<path fill="none" stroke="#6688bb" d="M211.14,-165.71C219.55,-154.43 230.89,-139.21 240.43,-126.42"/>
<polygon fill="#6688bb" stroke="#6688bb" points="243.21,-128.54 246.38,-118.43 237.6,-124.36 243.21,-128.54"/>
<text xml:space="preserve" text-anchor="middle" x="239.72" y="-138.45" font-family="Times,serif" font-size="9.00" fill="#6688bb"> ÷2 </text>
</g>
<!-- n8 -->
<g id="node6" class="node">
<title>n8</title>
<path fill="#ccddff" stroke="black" stroke-width="0.5" d="M88,-265.5C88,-265.5 115,-265.5 115,-265.5 115,-266.09 114.96,-266.68 114.87,-267.26 114.78,-267.85 114.65,-268.43 114.48,-269.01 114.31,-269.59 114.09,-270.16 113.84,-270.73 113.58,-271.29 113.28,-271.84 112.94,-272.39 112.61,-272.93 112.23,-273.47 111.81,-273.99 111.4,-274.5 110.94,-275.01 110.45,-275.5 109.96,-275.99 109.43,-276.46 108.87,-276.92 108.31,-277.37 107.72,-277.81 107.09,-278.23 106.47,-278.64 105.81,-279.04 105.13,-279.41 104.45,-279.79 103.74,-280.14 103,-280.47 102.27,-280.79 101.51,-281.1 100.73,-281.37 99.95,-281.65 99.15,-281.9 98.33,-282.13 97.52,-282.36 96.68,-282.55 95.84,-282.72 94.99,-282.9 94.13,-283.04 93.27,-283.15 92.4,-283.27 91.53,-283.36 90.65,-283.41 89.77,-283.47 88.88,-283.5 88,-283.5 87.12,-283.5 86.23,-283.47 85.35,-283.41 84.47,-283.36 83.6,-283.27 82.73,-283.15 81.87,-283.04 81.01,-282.9 80.16,-282.72 79.32,-282.55 78.48,-282.36 77.67,-282.13 76.85,-281.9 76.05,-281.65 75.27,-281.37 74.49,-281.1 73.73,-280.79 73,-280.47 72.26,-280.14 71.55,-279.79 70.87,-279.41 70.19,-279.04 69.53,-278.64 68.91,-278.23 68.28,-277.81 67.69,-277.37 67.13,-276.92 66.57,-276.46 66.04,-275.99 65.55,-275.5 65.06,-275.01 64.6,-274.5 64.19,-273.99 63.77,-273.47 63.39,-272.93 63.06,-272.39 62.72,-271.84 62.42,-271.29 62.16,-270.73 61.91,-270.16 61.69,-269.59 61.52,-269.01 61.35,-268.43 61.22,-267.85 61.13,-267.26 61.04,-266.68 61,-266.09 61,-265.5 61,-265.5 88,-265.5 88,-265.5"/>
<path fill="#cceecc" stroke="black" stroke-width="0.5" d="M88,-265.5C88,-265.5 61,-265.5 61,-265.5 61,-264.91 61.04,-264.32 61.13,-263.74 61.22,-263.15 61.35,-262.57 61.52,-261.99 61.69,-261.41 61.91,-260.84 62.16,-260.27 62.42,-259.71 62.72,-259.16 63.06,-258.61 63.39,-258.07 63.77,-257.53 64.19,-257.01 64.6,-256.5 65.06,-255.99 65.55,-255.5 66.04,-255.01 66.57,-254.54 67.13,-254.08 67.69,-253.63 68.28,-253.19 68.91,-252.77 69.53,-252.36 70.19,-251.96 70.87,-251.59 71.55,-251.21 72.26,-250.86 73,-250.53 73.73,-250.21 74.49,-249.9 75.27,-249.63 76.05,-249.35 76.85,-249.1 77.67,-248.87 78.48,-248.64 79.32,-248.45 80.16,-248.28 81.01,-248.1 81.87,-247.96 82.73,-247.85 83.6,-247.73 84.47,-247.64 85.35,-247.59 86.23,-247.53 87.12,-247.5 88,-247.5 88.88,-247.5 89.77,-247.53 90.65,-247.59 91.53,-247.64 92.4,-247.73 93.27,-247.85 94.13,-247.96 94.99,-248.1 95.84,-248.28 96.68,-248.45 97.52,-248.64 98.33,-248.87 99.15,-249.1 99.95,-249.35 100.73,-249.63 101.51,-249.9 102.27,-250.21 103,-250.53 103.74,-250.86 104.45,-251.21 105.13,-251.59 105.81,-251.96 106.47,-252.36 107.09,-252.77 107.72,-253.19 108.31,-253.63 108.87,-254.08 109.43,-254.54 109.96,-255.01 110.45,-255.5 110.94,-255.99 111.4,-256.5 111.81,-257.01 112.23,-257.53 112.61,-258.07 112.94,-258.61 113.28,-259.16 113.58,-259.71 113.84,-260.27 114.09,-260.84 114.31,-261.41 114.48,-261.99 114.65,-262.57 114.78,-263.15 114.87,-263.74 114.96,-264.32 115,-264.91 115,-265.5 115,-265.5 88,-265.5 88,-265.5"/>
<ellipse fill="none" stroke="black" cx="88" cy="-265.5" rx="27" ry="18"/>
<text xml:space="preserve" text-anchor="middle" x="88" y="-261.8" font-family="Times,serif" font-size="11.00">8</text>
</g>
<!-- n8&#45;&gt;n2 -->
<g id="edge16" class="edge">
<title>n8&#45;&gt;n2</title>
<path fill="none" stroke="#77aa77" d="M93.15,-247.36C101.59,-219.29 118.44,-163.23 128.62,-129.37"/>
<polygon fill="#77aa77" stroke="#77aa77" points="131.95,-130.44 131.48,-119.86 125.25,-128.42 131.95,-130.44"/>
<text xml:space="preserve" text-anchor="middle" x="124.5" y="-179.7" font-family="Times,serif" font-size="9.00" fill="#77aa77"> ÷4 </text>
</g>
<!-- n8&#45;&gt;n4 -->
<g id="edge17" class="edge">
<title>n8&#45;&gt;n4</title>
<path fill="none" stroke="#6688bb" d="M76.24,-248.98C67.55,-237.51 55.54,-221.66 45.56,-208.49"/>
<polygon fill="#6688bb" stroke="#6688bb" points="48.47,-206.54 39.64,-200.68 42.89,-210.76 48.47,-206.54"/>
<text xml:space="preserve" text-anchor="middle" x="68.28" y="-220.95" font-family="Times,serif" font-size="9.00" fill="#6688bb"> ÷2 </text>
</g>
<!-- n12 -->
<g id="node7" class="node">
<title>n12</title>
<path fill="#0045cf" stroke="black" stroke-width="0.5" d="M160,-265.5C160,-265.5 187,-265.5 187,-265.5 187,-266.09 186.96,-266.68 186.87,-267.26 186.78,-267.85 186.65,-268.43 186.48,-269.01 186.31,-269.59 186.09,-270.16 185.84,-270.73 185.58,-271.29 185.28,-271.84 184.94,-272.39 184.61,-272.93 184.23,-273.47 183.81,-273.99 183.4,-274.5 182.94,-275.01 182.45,-275.5 181.96,-275.99 181.43,-276.46 180.87,-276.92 180.31,-277.37 179.72,-277.81 179.09,-278.23 178.47,-278.64 177.81,-279.04 177.13,-279.41 176.45,-279.79 175.74,-280.14 175,-280.47 174.27,-280.79 173.51,-281.1 172.73,-281.37 171.95,-281.65 171.15,-281.9 170.33,-282.13 169.52,-282.36 168.68,-282.55 167.84,-282.72 166.99,-282.9 166.13,-283.04 165.27,-283.15 164.4,-283.27 163.53,-283.36 162.65,-283.41 161.77,-283.47 160.88,-283.5 160,-283.5 160,-283.5 160,-265.5 160,-265.5"/>
<path fill="#cf4500" stroke="black" stroke-width="0.5" d="M160,-265.5C160,-265.5 160,-283.5 160,-283.5 159.12,-283.5 158.23,-283.47 157.35,-283.41 156.47,-283.36 155.6,-283.27 154.73,-283.15 153.87,-283.04 153.01,-282.9 152.16,-282.72 151.32,-282.55 150.48,-282.36 149.67,-282.13 148.85,-281.9 148.05,-281.65 147.27,-281.37 146.49,-281.1 145.73,-280.79 145,-280.47 144.26,-280.14 143.55,-279.79 142.87,-279.41 142.19,-279.04 141.53,-278.64 140.91,-278.23 140.28,-277.81 139.69,-277.37 139.13,-276.92 138.57,-276.46 138.04,-275.99 137.55,-275.5 137.06,-275.01 136.6,-274.5 136.19,-273.99 135.77,-273.47 135.39,-272.93 135.06,-272.39 134.72,-271.84 134.42,-271.29 134.16,-270.73 133.91,-270.16 133.69,-269.59 133.52,-269.01 133.35,-268.43 133.22,-267.85 133.13,-267.26 133.04,-266.68 133,-266.09 133,-265.5 133,-265.5 160,-265.5 160,-265.5"/>
<path fill="#329532" stroke="black" stroke-width="0.5" d="M160,-265.5C160,-265.5 133,-265.5 133,-265.5 133,-264.91 133.04,-264.32 133.13,-263.74 133.22,-263.15 133.35,-262.57 133.52,-261.99 133.69,-261.41 133.91,-260.84 134.16,-260.27 134.42,-259.71 134.72,-259.16 135.06,-258.61 135.39,-258.07 135.77,-257.53 136.19,-257.01 136.6,-256.5 137.06,-255.99 137.55,-255.5 138.04,-255.01 138.57,-254.54 139.13,-254.08 139.69,-253.63 140.28,-253.19 140.91,-252.77 141.53,-252.36 142.19,-251.96 142.87,-251.59 143.55,-251.21 144.26,-250.86 145,-250.53 145.73,-250.21 146.49,-249.9 147.27,-249.63 148.05,-249.35 148.85,-249.1 149.67,-248.87 150.48,-248.64 151.32,-248.45 152.16,-248.28 153.01,-248.1 153.87,-247.96 154.73,-247.85 155.6,-247.73 156.47,-247.64 157.35,-247.59 158.23,-247.53 159.12,-247.5 160,-247.5 160,-247.5 160,-265.5 160,-265.5"/>
<path fill="#953295" stroke="black" stroke-width="0.5" d="M160,-265.5C160,-265.5 160,-247.5 160,-247.5 160.88,-247.5 161.77,-247.53 162.65,-247.59 163.53,-247.64 164.4,-247.73 165.27,-247.85 166.13,-247.96 166.99,-248.1 167.84,-248.28 168.68,-248.45 169.52,-248.64 170.33,-248.87 171.15,-249.1 171.95,-249.35 172.73,-249.63 173.51,-249.9 174.27,-250.21 175,-250.53 175.74,-250.86 176.45,-251.21 177.13,-251.59 177.81,-251.96 178.47,-252.36 179.09,-252.77 179.72,-253.19 180.31,-253.63 180.87,-254.08 181.43,-254.54 181.96,-255.01 182.45,-255.5 182.94,-255.99 183.4,-256.5 183.81,-257.01 184.23,-257.53 184.61,-258.07 184.94,-258.61 185.28,-259.16 185.58,-259.71 185.84,-260.27 186.09,-260.84 186.31,-261.41 186.48,-261.99 186.65,-262.57 186.78,-263.15 186.87,-263.74 186.96,-264.32 187,-264.91 187,-265.5 187,-265.5 160,-265.5 160,-265.5"/>
<ellipse fill="none" stroke="black" stroke-width="3" cx="160" cy="-265.5" rx="27" ry="18"/>
<text xml:space="preserve" text-anchor="middle" x="160" y="-261.8" font-family="Times,serif" font-size="11.00" fill="white">12</text>
</g>
<!-- n12&#45;&gt;n2 -->
<g id="edge1" class="edge">
<title>n12&#45;&gt;n2</title>
<path fill="none" stroke="#aa77aa" d="M156.47,-246.21C154.1,-233.54 151,-216.29 148.75,-201 145.24,-177.2 142.09,-150.08 139.94,-130.17"/>
<polygon fill="#aa77aa" stroke="#aa77aa" points="143.43,-129.88 138.9,-120.3 136.47,-130.61 143.43,-129.88"/>
<text xml:space="preserve" text-anchor="middle" x="155.88" y="-179.7" font-family="Times,serif" font-size="9.00" fill="#aa77aa"> ÷6 </text>
</g>
<!-- n12&#45;&gt;n3 -->
<g id="edge2" class="edge">
<title>n12&#45;&gt;n3</title>
<path fill="none" stroke="#77aa77" d="M180.68,-252.28C197.82,-241.08 221.48,-222.93 235,-201 248.25,-179.5 254.19,-151.21 256.84,-130.29"/>
<polygon fill="#77aa77" stroke="#77aa77" points="260.32,-130.76 257.9,-120.44 253.35,-130.01 260.32,-130.76"/>
<text xml:space="preserve" text-anchor="middle" x="257.03" y="-179.7" font-family="Times,serif" font-size="9.00" fill="#77aa77"> ÷4 </text>
</g>
<!-- n12&#45;&gt;n4 -->
<g id="edge3" class="edge">
<title>n12&#45;&gt;n4</title>
<path fill="none" stroke="#ddbb99" d="M139.51,-252.1C117.22,-238.61 81.41,-216.93 56.19,-201.67"/>
<polygon fill="#ddbb99" stroke="#ddbb99" points="58.09,-198.73 47.73,-196.54 54.47,-204.72 58.09,-198.73"/>
<text xml:space="preserve" text-anchor="middle" x="108.59" y="-220.95" font-family="Times,serif" font-size="9.00" fill="#ddbb99"> ÷3 </text>
</g>
<!-- n12&#45;&gt;n6 -->
<g id="edge4" class="edge">
<title>n12&#45;&gt;n6</title>
<path fill="none" stroke="#6688bb" d="M168.46,-247.03C173.47,-236.69 179.93,-223.37 185.61,-211.63"/>
<polygon fill="#6688bb" stroke="#6688bb" points="188.68,-213.32 189.89,-202.8 182.38,-210.27 188.68,-213.32"/>
<text xml:space="preserve" text-anchor="middle" x="188.96" y="-220.95" font-family="Times,serif" font-size="9.00" fill="#6688bb"> ÷2 </text>
</g>
<!-- n24 -->
<g id="node8" class="node">
<title>n24</title>
<path fill="#ccddff" stroke="black" stroke-width="0.5" d="M124,-348C124,-348 151,-348 151,-348 151,-348.59 150.96,-349.18 150.87,-349.76 150.78,-350.35 150.65,-350.93 150.48,-351.51 150.31,-352.09 150.09,-352.66 149.84,-353.23 149.58,-353.79 149.28,-354.34 148.94,-354.89 148.61,-355.43 148.23,-355.97 147.81,-356.49 147.4,-357 146.94,-357.51 146.45,-358 145.96,-358.49 145.43,-358.96 144.87,-359.42 144.31,-359.87 143.72,-360.31 143.09,-360.73 142.47,-361.14 141.81,-361.54 141.13,-361.91 140.45,-362.29 139.74,-362.64 139,-362.97 138.27,-363.29 137.51,-363.6 136.73,-363.87 135.95,-364.15 135.15,-364.4 134.33,-364.63 133.52,-364.86 132.68,-365.05 131.84,-365.22 130.99,-365.4 130.13,-365.54 129.27,-365.65 128.4,-365.77 127.53,-365.86 126.65,-365.91 125.77,-365.97 124.88,-366 124,-366 124,-366 124,-348 124,-348"/>
<path fill="#ffddcc" stroke="black" stroke-width="0.5" d="M124,-348C124,-348 124,-366 124,-366 123.12,-366 122.23,-365.97 121.35,-365.91 120.47,-365.86 119.6,-365.77 118.73,-365.65 117.87,-365.54 117.01,-365.4 116.16,-365.22 115.32,-365.05 114.48,-364.86 113.67,-364.63 112.85,-364.4 112.05,-364.15 111.27,-363.87 110.49,-363.6 109.73,-363.29 109,-362.97 108.26,-362.64 107.55,-362.29 106.87,-361.91 106.19,-361.54 105.53,-361.14 104.91,-360.73 104.28,-360.31 103.69,-359.87 103.13,-359.42 102.57,-358.96 102.04,-358.49 101.55,-358 101.06,-357.51 100.6,-357 100.19,-356.49 99.77,-355.97 99.39,-355.43 99.06,-354.89 98.72,-354.34 98.42,-353.79 98.16,-353.23 97.91,-352.66 97.69,-352.09 97.52,-351.51 97.35,-350.93 97.22,-350.35 97.13,-349.76 97.04,-349.18 97,-348.59 97,-348 97,-348 124,-348 124,-348"/>
<path fill="#cceecc" stroke="black" stroke-width="0.5" d="M124,-348C124,-348 97,-348 97,-348 97,-347.41 97.04,-346.82 97.13,-346.24 97.22,-345.65 97.35,-345.07 97.52,-344.49 97.69,-343.91 97.91,-343.34 98.16,-342.77 98.42,-342.21 98.72,-341.66 99.06,-341.11 99.39,-340.57 99.77,-340.03 100.19,-339.51 100.6,-339 101.06,-338.49 101.55,-338 102.04,-337.51 102.57,-337.04 103.13,-336.58 103.69,-336.13 104.28,-335.69 104.91,-335.27 105.53,-334.86 106.19,-334.46 106.87,-334.09 107.55,-333.71 108.26,-333.36 109,-333.03 109.73,-332.71 110.49,-332.4 111.27,-332.13 112.05,-331.85 112.85,-331.6 113.67,-331.37 114.48,-331.14 115.32,-330.95 116.16,-330.78 117.01,-330.6 117.87,-330.46 118.73,-330.35 119.6,-330.23 120.47,-330.14 121.35,-330.09 122.23,-330.03 123.12,-330 124,-330 124,-330 124,-348 124,-348"/>
<path fill="#eeccee" stroke="black" stroke-width="0.5" d="M124,-348C124,-348 124,-330 124,-330 124.88,-330 125.77,-330.03 126.65,-330.09 127.53,-330.14 128.4,-330.23 129.27,-330.35 130.13,-330.46 130.99,-330.6 131.84,-330.78 132.68,-330.95 133.52,-331.14 134.33,-331.37 135.15,-331.6 135.95,-331.85 136.73,-332.13 137.51,-332.4 138.27,-332.71 139,-333.03 139.74,-333.36 140.45,-333.71 141.13,-334.09 141.81,-334.46 142.47,-334.86 143.09,-335.27 143.72,-335.69 144.31,-336.13 144.87,-336.58 145.43,-337.04 145.96,-337.51 146.45,-338 146.94,-338.49 147.4,-339 147.81,-339.51 148.23,-340.03 148.61,-340.57 148.94,-341.11 149.28,-341.66 149.58,-342.21 149.84,-342.77 150.09,-343.34 150.31,-343.91 150.48,-344.49 150.65,-345.07 150.78,-345.65 150.87,-346.24 150.96,-346.82 151,-347.41 151,-348 151,-348 124,-348 124,-348"/>
<ellipse fill="none" stroke="black" stroke-width="3" cx="124" cy="-348" rx="27" ry="18"/>
<text xml:space="preserve" text-anchor="middle" x="124" y="-344.3" font-family="Times,serif" font-size="11.00">24</text>
</g>
<!-- n24&#45;&gt;n4 -->
<g id="edge7" class="edge">
<title>n24&#45;&gt;n4</title>
<path fill="none" stroke="#aa77aa" d="M101.03,-336.81C80.71,-326.49 52.12,-308.48 37.75,-283.5 25.37,-261.97 23.46,-233.46 24.19,-212.48"/>
<polygon fill="#aa77aa" stroke="#aa77aa" points="27.68,-212.81 24.78,-202.62 20.69,-212.39 27.68,-212.81"/>
<text xml:space="preserve" text-anchor="middle" x="44.88" y="-262.2" font-family="Times,serif" font-size="9.00" fill="#aa77aa"> ÷6 </text>
</g>
<!-- n24&#45;&gt;n6 -->
<g id="edge8" class="edge">
<title>n24&#45;&gt;n6</title>
<path fill="none" stroke="#77aa77" d="M144.75,-335.09C161.77,-324.08 184.8,-306.04 196,-283.5 206.8,-261.76 206.65,-233.93 204.32,-213.23"/>
<polygon fill="#77aa77" stroke="#77aa77" points="207.8,-212.9 202.97,-203.47 200.87,-213.86 207.8,-212.9"/>
<text xml:space="preserve" text-anchor="middle" x="212.25" y="-262.2" font-family="Times,serif" font-size="9.00" fill="#77aa77"> ÷4 </text>
</g>
<!-- n24&#45;&gt;n8 -->
<g id="edge9" class="edge">
<title>n24&#45;&gt;n8</title>
<path fill="none" stroke="#ddbb99" d="M116.19,-329.53C111.47,-318.98 105.36,-305.32 100.03,-293.41"/>
<polygon fill="#ddbb99" stroke="#ddbb99" points="103.32,-292.19 96.05,-284.49 96.93,-295.05 103.32,-292.19"/>
<text xml:space="preserve" text-anchor="middle" x="115.28" y="-303.45" font-family="Times,serif" font-size="9.00" fill="#ddbb99"> ÷3 </text>
</g>
<!-- n24&#45;&gt;n12 -->
<g id="edge6" class="edge">
<title>n24&#45;&gt;n12</title>
<path fill="none" stroke="#6688bb" d="M131.81,-329.53C136.4,-319.27 142.31,-306.05 147.54,-294.37"/>
<polygon fill="#6688bb" stroke="#6688bb" points="150.57,-296.15 151.46,-285.59 144.18,-293.29 150.57,-296.15"/>
<text xml:space="preserve" text-anchor="middle" x="151.28" y="-303.45" font-family="Times,serif" font-size="9.00" fill="#6688bb"> ÷2 </text>
</g>
</g>
</svg>
