<?xml version="1.0" encoding="UTF-8" standalone="no"?>
<!DOCTYPE svg PUBLIC "-//W3C//DTD SVG 1.1//EN"
 "http://www.w3.org/Graphics/SVG/1.1/DTD/svg11.dtd">
<!-- Generated by graphviz version 14.1.3 (20260303.0454)
 -->
<!-- Pages: 1 -->
<svg width="291pt" height="374pt"
 viewBox="0.00 0.00 291.00 374.00" xmlns="http://www.w3.org/2000/svg" xmlns:xlink="http://www.w3.org/1999/xlink">
<g id="graph0" class="graph" transform="scale(1 1) rotate(0) translate(4 370)">
<polygon fill="white" stroke="none" points="-4,4 -4,-370 287,-370 287,4 -4,4"/>
<!-- n1 -->
<g id="node1" class="node">
<title>n1</title>
<ellipse fill="#ffddcc" stroke="black" stroke-width="3" cx="27" cy="-183" rx="27" ry="18"/>
<text xml:space="preserve" text-anchor="middle" x="27" y="-179.3" font-family="Times,serif" font-size="11.00">1</text>
</g>
<!-- n3 -->
<g id="node3" class="node">
<title>n3</title>
<ellipse fill="#ccddff" stroke="black" stroke-width="3" cx="63" cy="-100.5" rx="27" ry="18"/>
<text xml:space="preserve" text-anchor="middle" x="63" y="-96.8" font-family="Times,serif" font-size="11.00">3</text>
</g>
<!-- n1&#45;&gt;n3 -->
<g id="edge1" class="edge">
<title>n1&#45;&gt;n3</title>
<path fill="none" stroke="#ddbb99" d="M18.33,-164.47C15.25,-155.72 13.49,-145.18 17.75,-136.5 21.02,-129.83 26.25,-124.07 32,-119.26"/>
<polygon fill="#ddbb99" stroke="#ddbb99" points="34.05,-122.1 40.06,-113.37 29.92,-116.44 34.05,-122.1"/>
<text xml:space="preserve" text-anchor="middle" x="29.38" y="-138.45" font-family="Times,serif" font-size="9.00" fill="#ddbb99"> x + 2 </text>
</g>
<!-- n2 -->
<g id="node2" class="node">
<title>n2</title>
<ellipse fill="#ffddcc" stroke="black" stroke-width="3" cx="181" cy="-183" rx="27" ry="18"/>
<text xml:space="preserve" text-anchor="middle" x="181" y="-179.3" font-family="Times,serif" font-size="11.00">2</text>
</g>
<!-- n4 -->
<g id="node4" class="node">
<title>n4</title>
<ellipse fill="#ffddcc" stroke="black" stroke-width="3" cx="245" cy="-100.5" rx="27" ry="18"/>
<text xml:space="preserve" text-anchor="middle" x="245" y="-96.8" font-family="Times,serif" font-size="11.00">4</text>
</g>
<!-- n2&#45;&gt;n4 -->
<g id="edge4" class="edge">
<title>n2&#45;&gt;n4</title>
<path fill="none" stroke="#ddbb99" d="M193.95,-165.71C202.89,-154.47 214.94,-139.31 225.09,-126.55"/>
<polygon fill="#ddbb99" stroke="#ddbb99" points="227.64,-128.96 231.13,-118.95 222.16,-124.6 227.64,-128.96"/>
<text xml:space="preserve" text-anchor="middle" x="228.46" y="-138.45" font-family="Times,serif" font-size="9.00" fill="#ddbb99"> x + 2 </text>
</g>
<!-- n3&#45;&gt;n1 -->
<g id="edge5" class="edge">
<title>n3&#45;&gt;n1</title>
<path fill="none" stroke="#6688bb" d="M55.08,-119.21C50.51,-129.42 44.67,-142.48 39.5,-154.05"/>
<polygon fill="#6688bb" stroke="#6688bb" points="36.32,-152.59 35.43,-163.15 42.71,-155.45 36.32,-152.59"/>
<text xml:space="preserve" text-anchor="middle" x="58.41" y="-138.45" font-family="Times,serif" font-size="9.00" fill="#6688bb"> x // 3 </text>
</g>
<!-- n6 -->
<g id="node6" class="node">
<title>n6</title>
<ellipse fill="#ccddff" stroke="black" stroke-width="3" cx="193" cy="-18" rx="27" ry="18"/>
<text xml:space="preserve" text-anchor="middle" x="193" y="-14.3" font-family="Times,serif" font-size="11.00">6</text>
</g>
<!-- n4&#45;&gt;n6 -->
<g id="edge6" class="edge">
<title>n4&#45;&gt;n6</title>
<path fill="none" stroke="#ddbb99" d="M234.23,-82.82C227.23,-71.99 217.97,-57.65 209.99,-45.3"/>
<polygon fill="#ddbb99" stroke="#ddbb99" points="213.13,-43.71 204.76,-37.21 207.25,-47.51 213.13,-43.71"/>
<text xml:space="preserve" text-anchor="middle" x="233.74" y="-55.95" font-family="Times,serif" font-size="9.00" fill="#ddbb99"> x + 2 </text>
</g>
<!-- n5 -->
<g id="node5" class="node">
<title>n5</title>
<ellipse fill="#ffddcc" stroke="black" stroke-width="3" cx="109" cy="-348" rx="27" ry="18"/>
<text xml:space="preserve" text-anchor="middle" x="109" y="-344.3" font-family="Times,serif" font-size="11.00">5</text>
</g>
<!-- n7 -->
<g id="node7" class="node">
<title>n7</title>
<ellipse fill="#ffddcc" stroke="black" stroke-width="3" cx="109" cy="-265.5" rx="27" ry="18"/>
<text xml:space="preserve" text-anchor="middle" x="109" y="-261.8" font-family="Times,serif" font-size="11.00">7</text>
</g>
<!-- n5&#45;&gt;n7 -->
<g id="edge7" class="edge">
<title>n5&#45;&gt;n7</title>
<path fill="none" stroke="#ddbb99" d="M109,-328.73C109,-319.13 109,-307.11 109,-296.2"/>
<polygon fill="#ddbb99" stroke="#ddbb99" points="112.5,-296.49 109,-286.49 105.5,-296.49 112.5,-296.49"/>
<text xml:space="preserve" text-anchor="middle" x="120.62" y="-303.45" font-family="Times,serif" font-size="9.00" fill="#ddbb99"> x + 2 </text>
</g>
<!-- n6&#45;&gt;n2 -->
<g id="edge8" class="edge">
<title>n6&#45;&gt;n2</title>
<path fill="none" stroke="#6688bb" d="M190.9,-37.32C189.5,-49.99 187.7,-67.25 186.5,-82.5 184.65,-105.92 183.22,-132.5 182.28,-152.29"/>
<polygon fill="#6688bb" stroke="#6688bb" points="178.79,-151.98 181.83,-162.13 185.78,-152.3 178.79,-151.98"/>
<text xml:space="preserve" text-anchor="middle" x="197.75" y="-97.2" font-family="Times,serif" font-size="9.00" fill="#6688bb"> x // 3 </text>
</g>
<!-- n9 -->
<g id="node9" class="node">
<title>n9</title>
<ellipse fill="#ccddff" stroke="black" stroke-width="3" cx="109" cy="-183" rx="27" ry="18"/>
<text xml:space="preserve" text-anchor="middle" x="109" y="-179.3" font-family="Times,serif" font-size="11.00">9</text>
</g>
<!-- n7&#45;&gt;n9 -->
<g id="edge9" class="edge">
<title>n7&#45;&gt;n9</title>
<path fill="none" stroke="#ddbb99" d="M109,-246.23C109,-236.63 109,-224.61 109,-213.7"/>
<polygon fill="#ddbb99" stroke="#ddbb99" points="112.5,-213.99 109,-203.99 105.5,-213.99 112.5,-213.99"/>
<text xml:space="preserve" text-anchor="middle" x="120.62" y="-220.95" font-family="Times,serif" font-size="9.00" fill="#ddbb99"> x + 2 </text>
</g>
<!-- n8 -->
<g id="node8" class="node">
<title>n8</title>
<ellipse fill="#ffddcc" stroke="black" stroke-width="3" cx="256" cy="-348" rx="27" ry="18"/>
<text xml:space="preserve" text-anchor="middle" x="256" y="-344.3" font-family="Times,serif" font-size="11.00">8</text>
</g>
<!-- n10 -->
<g id="node10" class="node">
<title>n10</title>
<ellipse fill="#ffddcc" stroke="black" cx="256" cy="-265.5" rx="27" ry="18"/>
<text xml:space="preserve" text-anchor="middle" x="256" y="-261.8" font-family="Times,serif" font-size="11.00">10</text>
</g>
<!-- n8&#45;&gt;n10 -->
<g id="edge10" class="edge">
<title>n8&#45;&gt;n10</title>
<path fill="none" stroke="#ddbb99" d="M256,-328.73C256,-318.85 256,-306.43 256,-295.28"/>
<polygon fill="#ddbb99" stroke="#ddbb99" points="259.5,-295.38 256,-285.38 252.5,-295.38 259.5,-295.38"/>
<text xml:space="preserve" text-anchor="middle" x="267.62" y="-303.45" font-family="Times,serif" font-size="9.00" fill="#ddbb99"> x + 2 </text>
</g>
<!-- n9&#45;&gt;n3 -->
<g id="edge11" class="edge">
<title>n9&#45;&gt;n3</title>
<path fill="none" stroke="#6688bb" d="M99.24,-164.93C93.21,-154.36 85.32,-140.56 78.45,-128.54"/>
<polygon fill="#6688bb" stroke="#6688bb" points="81.49,-126.81 73.49,-119.86 75.41,-130.28 81.49,-126.81"/>
<text xml:space="preserve" text-anchor="middle" x="100" y="-138.45" font-family="Times,serif" font-size="9.00" fill="#6688bb"> x // 3 </text>
</g>
<!-- n12 -->
<g id="node11" class="node">
<title>n12</title>
<ellipse fill="#ccddff" stroke="black" cx="256" cy="-183" rx="27" ry="18"/>
<text xml:space="preserve" text-anchor="middle" x="256" y="-179.3" font-family="Times,serif" font-size="11.00">12</text>
</g>
<!-- n10&#45;&gt;n12 -->
<g id="edge2" class="edge">
<title>n10&#45;&gt;n12</title>
<path fill="none" stroke="#ddbb99" d="M256,-247.03C256,-237.01 256,-224.18 256,-212.71"/>
<polygon fill="#ddbb99" stroke="#ddbb99" points="259.5,-212.95 256,-202.95 252.5,-212.95 259.5,-212.95"/>
<text xml:space="preserve" text-anchor="middle" x="267.62" y="-220.95" font-family="Times,serif" font-size="9.00" fill="#ddbb99"> x + 2 </text>
</g>
<!-- n12&#45;&gt;n4 -->
<g id="edge3" class="edge">
<title>n12&#45;&gt;n4</title>
<path fill="none" stroke="#6688bb" d="M253.67,-164.93C252.32,-155.06 250.59,-142.38 249.02,-130.95"/>
<polygon fill="#6688bb" stroke="#6688bb" points="252.51,-130.6 247.69,-121.17 245.57,-131.55 252.51,-130.6"/>
<text xml:space="preserve" text-anchor="middle" x="262.41" y="-138.45" font-family="Times,serif" font-size="9.00" fill="#6688bb"> x // 3 </text>
</g>
</g>
</svg>
