<?xml version="1.0" encoding="UTF-8" standalone="no"?>
<!DOCTYPE svg PUBLIC "-//W3C//DTD SVG 1.1//EN"
 "http://www.w3.org/Graphics/SVG/1.1/DTD/svg11.dtd">
<!-- Generated by graphviz version 14.1.3 (20260303.0454)
 -->
<!-- Pages: 1 -->
<svg width="62pt" height="127pt"
 viewBox="0.00 0.00 62.00 127.00" xmlns="http://www.w3.org/2000/svg" xmlns:xlink="http://www.w3.org/1999/xlink">
<g id="graph0" class="graph" transform="scale(1 1) rotate(0) translate(4 122.5)">
<polygon fill="white" stroke="none" points="-4,4 -4,-122.5 58,-122.5 58,4 -4,4"/>
<!-- n1 -->
<g id="node1" class="node">
<title>n1</title>
<ellipse fill="#ffddcc" stroke="black" stroke-width="3" cx="27" cy="-100.5" rx="27" ry="18"/>
<text xml:space="preserve" text-anchor="middle" x="27" y="-96.8" font-family="Times,serif" font-size="11.00">1</text>
</g>
<!-- n3 -->
<g id="node2" class="node">
<title>n3</title>
<ellipse fill="#ccddff" stroke="black" cx="27" cy="-18" rx="27" ry="18"/>
<text xml:space="preserve" text-anchor="middle" x="27" y="-14.3" font-family="Times,serif" font-size="11.00">3</text>
</g>
<!-- n1&#45;&gt;n3 -->
<g id="edge1" class="edge">
<title>n1&#45;&gt;n3</title>
<path fill="none" stroke="#ddbb99" d="M14.05,-83.35C10.29,-77.72 6.68,-71.14 4.75,-64.5 2.69,-57.41 4.37,-50.07 7.57,-43.41"/>
<polygon fill="#ddbb99" stroke="#ddbb99" points="10.52,-45.3 12.73,-34.94 4.54,-41.66 10.52,-45.3"/>
<text xml:space="preserve" text-anchor="middle" x="16.38" y="-55.95" font-family="Times,serif" font-size="9.00" fill="#ddbb99"> x + 2 </text>
</g>
<!-- n3&#45;&gt;n1 -->
<g id="edge2" class="edge">
<title>n3&#45;&gt;n1</title>
<path fill="none" stroke="#6688bb" d="M27.67,-36.28C27.93,-44.78 28.13,-55.18 28,-64.5 27.97,-66.29 27.94,-68.14 27.9,-70"/>
<polygon fill="#6688bb" stroke="#6688bb" points="24.41,-69.74 27.66,-79.82 31.41,-69.91 24.41,-69.74"/>
<text xml:space="preserve" text-anchor="middle" x="39.29" y="-55.95" font-family="Times,serif" font-size="9.00" fill="#6688bb"> x // 3 </text>
</g>
</g>
</svg>
