<?xml version="1.0" encoding="UTF-8" standalone="no"?>
<!DOCTYPE svg PUBLIC "-//W3C//DTD SVG 1.1//EN"
 "http://www.w3.org/Graphics/SVG/1.1/DTD/svg11.dtd">
<!-- Generated by graphviz version 14.1.3 (20260303.0454)
 -->
<!-- Pages: 1 -->
<svg width="1269pt" height="1384pt"
 viewBox="0.00 0.00 1269.00 1384.00" xmlns="http://www.w3.org/2000/svg" xmlns:xlink="http://www.w3.org/1999/xlink">
<g id="graph0" class="graph" transform="scale(1 1) rotate(0) translate(4 1380.32)">
<polygon fill="white" stroke="none" points="-4,4 -4,-1380.32 1265.25,-1380.32 1265.25,4 -4,4"/>
<!-- nx_28302c203029 -->
<g id="node1" class="node">
<title>nx_28302c203029</title>
<path fill="#ccddff" stroke="black" stroke-width="0.5" d="M326,-1355.11C326,-1355.11 369.84,-1355.11 369.84,-1355.11 369.84,-1355.8 369.77,-1356.5 369.63,-1357.19 369.49,-1357.88 369.28,-1358.57 369,-1359.25 368.72,-1359.93 368.37,-1360.6 367.95,-1361.27 367.54,-1361.93 367.05,-1362.59 366.5,-1363.23 365.95,-1363.87 365.34,-1364.5 364.66,-1365.11 363.99,-1365.72 363.25,-1366.32 362.45,-1366.89 361.65,-1367.47 360.8,-1368.03 359.89,-1368.57 358.98,-1369.1 358.01,-1369.62 357,-1370.11 355.99,-1370.6 354.92,-1371.07 353.81,-1371.51 352.7,-1371.95 351.55,-1372.36 350.36,-1372.75 349.16,-1373.13 347.93,-1373.49 346.67,-1373.82 345.4,-1374.14 344.1,-1374.44 342.78,-1374.71 341.45,-1374.97 340.1,-1375.21 338.73,-1375.41 337.35,-1375.61 335.96,-1375.78 334.55,-1375.91 333.15,-1376.05 331.73,-1376.15 330.3,-1376.22 328.87,-1376.29 327.43,-1376.32 326,-1376.32 324.57,-1376.32 323.13,-1376.29 321.7,-1376.22 320.27,-1376.15 318.85,-1376.05 317.45,-1375.91 316.04,-1375.78 314.65,-1375.61 313.27,-1375.41 311.9,-1375.21 310.55,-1374.97 309.22,-1374.71 307.9,-1374.44 306.6,-1374.14 305.33,-1373.82 304.07,-1373.49 302.84,-1373.13 301.64,-1372.75 300.45,-1372.36 299.3,-1371.95 298.19,-1371.51 297.08,-1371.07 296.01,-1370.6 295,-1370.11 293.99,-1369.62 293.02,-1369.1 292.11,-1368.57 291.2,-1368.03 290.35,-1367.47 289.55,-1366.89 288.75,-1366.32 288.01,-1365.72 287.34,-1365.11 286.66,-1364.5 286.05,-1363.87 285.5,-1363.23 284.95,-1362.59 284.46,-1361.93 284.05,-1361.27 283.63,-1360.6 283.28,-1359.93 283,-1359.25 282.72,-1358.57 282.51,-1357.88 282.37,-1357.19 282.23,-1356.5 282.16,-1355.8 282.16,-1355.11 282.16,-1355.11 326,-1355.11 326,-1355.11"/>
<path fill="#ffddcc" stroke="black" stroke-width="0.5" d="M326,-1355.11C326,-1355.11 282.16,-1355.11 282.16,-1355.11 282.16,-1354.41 282.23,-1353.72 282.37,-1353.03 282.51,-1352.34 282.72,-1351.65 283,-1350.97 283.28,-1350.29 283.63,-1349.62 284.05,-1348.95 284.46,-1348.29 284.95,-1347.63 285.5,-1346.99 286.05,-1346.35 286.66,-1345.72 287.34,-1345.11 288.01,-1344.5 288.75,-1343.9 289.55,-1343.32 290.35,-1342.75 291.2,-1342.19 292.11,-1341.65 293.02,-1341.12 293.99,-1340.6 295,-1340.11 296.01,-1339.62 297.08,-1339.15 298.19,-1338.71 299.3,-1338.27 300.45,-1337.86 301.64,-1337.47 302.84,-1337.09 304.07,-1336.73 305.33,-1336.4 306.6,-1336.07 307.9,-1335.78 309.22,-1335.51 310.55,-1335.25 311.9,-1335.01 313.27,-1334.81 314.65,-1334.61 316.04,-1334.44 317.45,-1334.3 318.85,-1334.17 320.27,-1334.07 321.7,-1334 323.13,-1333.93 324.57,-1333.9 326,-1333.9 327.43,-1333.9 328.87,-1333.93 330.3,-1334 331.73,-1334.07 333.15,-1334.17 334.55,-1334.3 335.96,-1334.44 337.35,-1334.61 338.73,-1334.81 340.1,-1335.01 341.45,-1335.25 342.78,-1335.51 344.1,-1335.78 345.4,-1336.07 346.67,-1336.4 347.93,-1336.73 349.16,-1337.09 350.36,-1337.47 351.55,-1337.86 352.7,-1338.27 353.81,-1338.71 354.92,-1339.15 355.99,-1339.62 357,-1340.11 358.01,-1340.6 358.98,-1341.12 359.89,-1341.65 360.8,-1342.19 361.65,-1342.75 362.45,-1343.32 363.25,-1343.9 363.99,-1344.5 364.66,-1345.11 365.34,-1345.72 365.95,-1346.35 366.5,-1346.99 367.05,-1347.63 367.54,-1348.29 367.95,-1348.95 368.37,-1349.62 368.72,-1350.29 369,-1350.97 369.28,-1351.65 369.49,-1352.34 369.63,-1353.03 369.77,-1353.72 369.84,-1354.41 369.84,-1355.11 369.84,-1355.11 326,-1355.11 326,-1355.11"/>
<ellipse fill="none" stroke="black" cx="326" cy="-1355.11" rx="43.84" ry="21.21"/>
<text xml:space="preserve" text-anchor="start" x="312.38" y="-1351.36" font-family="Times,serif" font-size="11.00">0</text>
<text xml:space="preserve" text-anchor="start" x="334.38" y="-1351.36" font-family="Times,serif" font-size="11.00">0</text>
</g>
<!-- nx_28302c203529 -->
<g id="node6" class="node">
<title>nx_28302c203529</title>
<path fill="#cceeee" stroke="black" stroke-width="0.5" d="M337,-1266.18C337,-1266.18 380.84,-1266.18 380.84,-1266.18 380.84,-1267 380.74,-1267.81 380.55,-1268.62 380.36,-1269.43 380.07,-1270.23 379.68,-1271.03 379.3,-1271.82 378.82,-1272.6 378.25,-1273.37 377.68,-1274.14 377.02,-1274.89 376.27,-1275.62 375.52,-1276.35 374.68,-1277.05 373.77,-1277.74 372.85,-1278.42 371.85,-1279.08 370.78,-1279.71 369.7,-1280.33 368.56,-1280.93 367.34,-1281.49 366.13,-1282.06 364.84,-1282.59 363.5,-1283.08 362.16,-1283.57 360.76,-1284.03 359.31,-1284.44 357.86,-1284.86 356.37,-1285.23 354.83,-1285.56 353.29,-1285.89 351.71,-1286.18 350.11,-1286.43 348.5,-1286.67 346.86,-1286.87 345.21,-1287.02 343.56,-1287.17 341.89,-1287.28 340.21,-1287.34 338.53,-1287.4 336.84,-1287.41 335.16,-1287.38 333.48,-1287.34 331.8,-1287.26 330.14,-1287.13 328.47,-1287.01 326.83,-1286.83 325.2,-1286.61 325.2,-1286.61 337,-1266.18 337,-1266.18"/>
<path fill="#eeccee" stroke="black" stroke-width="0.5" d="M337,-1266.18C337,-1266.18 325.2,-1286.61 325.2,-1286.61 324.06,-1286.46 322.93,-1286.28 321.82,-1286.08 320.71,-1285.89 319.61,-1285.66 318.54,-1285.42 317.46,-1285.18 316.41,-1284.92 315.37,-1284.64 314.34,-1284.35 313.33,-1284.05 312.35,-1283.73 311.37,-1283.4 310.42,-1283.06 309.5,-1282.7 308.57,-1282.34 307.68,-1281.96 306.82,-1281.57 305.96,-1281.17 305.13,-1280.76 304.34,-1280.33 303.55,-1279.91 302.79,-1279.46 302.08,-1279.01 301.36,-1278.55 300.68,-1278.08 300.04,-1277.6 299.41,-1277.11 298.81,-1276.62 298.25,-1276.11 297.7,-1275.6 297.19,-1275.08 296.72,-1274.56 296.25,-1274.03 295.83,-1273.49 295.45,-1272.95 295.07,-1272.4 294.74,-1271.85 294.45,-1271.3 294.17,-1270.74 293.93,-1270.18 293.74,-1269.61 293.54,-1269.04 293.4,-1268.47 293.3,-1267.9 293.21,-1267.33 293.16,-1266.76 293.16,-1266.18 293.16,-1265.61 293.21,-1265.04 293.3,-1264.46 293.4,-1263.89 293.54,-1263.32 293.74,-1262.76 293.93,-1262.19 294.17,-1261.63 294.45,-1261.07 294.74,-1260.51 295.07,-1259.96 295.45,-1259.42 295.83,-1258.87 296.25,-1258.34 296.72,-1257.81 297.19,-1257.28 297.7,-1256.76 298.25,-1256.26 298.81,-1255.75 299.41,-1255.25 300.04,-1254.77 300.68,-1254.29 301.36,-1253.82 302.08,-1253.36 302.79,-1252.9 303.55,-1252.46 304.34,-1252.03 305.13,-1251.6 305.96,-1251.19 306.82,-1250.8 307.68,-1250.4 308.57,-1250.02 309.5,-1249.66 310.42,-1249.3 311.37,-1248.96 312.35,-1248.64 313.33,-1248.32 314.34,-1248.01 315.37,-1247.73 316.41,-1247.45 317.46,-1247.18 318.54,-1246.94 319.61,-1246.7 320.71,-1246.48 321.82,-1246.28 322.93,-1246.08 324.06,-1245.91 325.2,-1245.75 325.2,-1245.75 337,-1266.18 337,-1266.18"/>
<path fill="#ccddff" stroke="black" stroke-width="0.5" d="M337,-1266.18C337,-1266.18 325.2,-1245.75 325.2,-1245.75 326.83,-1245.53 328.47,-1245.36 330.14,-1245.23 331.8,-1245.1 333.48,-1245.02 335.16,-1244.99 336.84,-1244.95 338.53,-1244.97 340.21,-1245.03 341.89,-1245.09 343.56,-1245.19 345.21,-1245.35 346.86,-1245.5 348.5,-1245.7 350.11,-1245.94 351.71,-1246.18 353.29,-1246.47 354.83,-1246.8 356.37,-1247.13 357.86,-1247.51 359.31,-1247.92 360.76,-1248.34 362.16,-1248.79 363.5,-1249.29 364.84,-1249.78 366.13,-1250.31 367.34,-1250.87 368.56,-1251.44 369.7,-1252.03 370.78,-1252.66 371.85,-1253.29 372.85,-1253.95 373.77,-1254.63 374.68,-1255.31 375.52,-1256.02 376.27,-1256.75 377.02,-1257.48 377.68,-1258.23 378.25,-1259 378.82,-1259.76 379.3,-1260.55 379.68,-1261.34 380.07,-1262.13 380.36,-1262.94 380.55,-1263.74 380.74,-1264.55 380.84,-1265.37 380.84,-1266.18 380.84,-1266.18 337,-1266.18 337,-1266.18"/>
<ellipse fill="none" stroke="black" cx="337" cy="-1266.18" rx="43.84" ry="21.21"/>
<text xml:space="preserve" text-anchor="start" x="323.38" y="-1262.43" font-family="Times,serif" font-size="11.00">0</text>
<text xml:space="preserve" text-anchor="start" x="345.38" y="-1262.43" font-family="Times,serif" font-size="11.00">5</text>
</g>
<!-- nx_28302c203029&#45;&gt;nx_28302c203529 -->
<g id="edge1" class="edge">
<title>nx_28302c203029&#45;&gt;nx_28302c203529</title>
<path fill="none" stroke="#ddbb99" d="M309.26,-1335.45C303.28,-1326.5 298.87,-1315.55 302.75,-1305.4 304.27,-1301.42 306.42,-1297.59 308.91,-1294"/>
<polygon fill="#ddbb99" stroke="#ddbb99" points="311.58,-1296.26 315.14,-1286.28 306.13,-1291.87 311.58,-1296.26"/>
<text xml:space="preserve" text-anchor="middle" x="315.88" y="-1307.35" font-family="Times,serif" font-size="9.00" fill="#ddbb99"> fill 5L </text>
</g>
<!-- nx_28332c203029 -->
<g id="node11" class="node">
<title>nx_28332c203029</title>
<path fill="#eeeeaa" stroke="black" stroke-width="0.5" d="M634,-1088.33C634,-1088.33 677.84,-1088.33 677.84,-1088.33 677.84,-1089.14 677.74,-1089.96 677.55,-1090.77 677.36,-1091.58 677.07,-1092.38 676.68,-1093.17 676.3,-1093.97 675.82,-1094.75 675.25,-1095.52 674.68,-1096.28 674.02,-1097.03 673.27,-1097.76 672.52,-1098.49 671.68,-1099.2 670.77,-1099.88 669.85,-1100.57 668.85,-1101.22 667.78,-1101.85 666.7,-1102.48 665.56,-1103.08 664.34,-1103.64 663.13,-1104.21 661.84,-1104.74 660.5,-1105.23 659.16,-1105.72 657.76,-1106.18 656.31,-1106.59 654.86,-1107 653.37,-1107.38 651.83,-1107.71 650.29,-1108.04 648.71,-1108.33 647.11,-1108.57 645.5,-1108.82 643.86,-1109.02 642.21,-1109.17 640.56,-1109.32 638.89,-1109.43 637.21,-1109.49 635.53,-1109.55 633.84,-1109.56 632.16,-1109.52 630.48,-1109.49 628.8,-1109.41 627.14,-1109.28 625.47,-1109.15 623.83,-1108.98 622.2,-1108.76 622.2,-1108.76 634,-1088.33 634,-1088.33"/>
<path fill="#cceecc" stroke="black" stroke-width="0.5" d="M634,-1088.33C634,-1088.33 622.2,-1108.76 622.2,-1108.76 621.06,-1108.61 619.93,-1108.43 618.82,-1108.23 617.71,-1108.03 616.61,-1107.81 615.54,-1107.57 614.46,-1107.33 613.41,-1107.07 612.37,-1106.78 611.34,-1106.5 610.33,-1106.2 609.35,-1105.87 608.37,-1105.55 607.42,-1105.21 606.5,-1104.85 605.57,-1104.49 604.68,-1104.11 603.82,-1103.72 602.96,-1103.32 602.13,-1102.91 601.34,-1102.48 600.55,-1102.05 599.79,-1101.61 599.08,-1101.15 598.36,-1100.7 597.68,-1100.23 597.04,-1099.74 596.41,-1099.26 595.81,-1098.76 595.25,-1098.26 594.7,-1097.75 594.19,-1097.23 593.72,-1096.7 593.25,-1096.18 592.83,-1095.64 592.45,-1095.1 592.07,-1094.55 591.74,-1094 591.45,-1093.44 591.17,-1092.89 590.93,-1092.32 590.74,-1091.76 590.54,-1091.19 590.4,-1090.62 590.3,-1090.05 590.21,-1089.48 590.16,-1088.9 590.16,-1088.33 590.16,-1087.76 590.21,-1087.18 590.3,-1086.61 590.4,-1086.04 590.54,-1085.47 590.74,-1084.9 590.93,-1084.34 591.17,-1083.77 591.45,-1083.22 591.74,-1082.66 592.07,-1082.11 592.45,-1081.56 592.83,-1081.02 593.25,-1080.48 593.72,-1079.96 594.19,-1079.43 594.7,-1078.91 595.25,-1078.4 595.81,-1077.9 596.41,-1077.4 597.04,-1076.92 597.68,-1076.43 598.36,-1075.96 599.08,-1075.51 599.79,-1075.05 600.55,-1074.61 601.34,-1074.18 602.13,-1073.75 602.96,-1073.34 603.82,-1072.94 604.68,-1072.55 605.57,-1072.17 606.5,-1071.81 607.42,-1071.45 608.37,-1071.11 609.35,-1070.79 610.33,-1070.46 611.34,-1070.16 612.37,-1069.88 613.41,-1069.59 614.46,-1069.33 615.54,-1069.09 616.61,-1068.85 617.71,-1068.63 618.82,-1068.43 619.93,-1068.23 621.06,-1068.05 622.2,-1067.9 622.2,-1067.9 634,-1088.33 634,-1088.33"/>
<path fill="#ffddcc" stroke="black" stroke-width="0.5" d="M634,-1088.33C634,-1088.33 622.2,-1067.9 622.2,-1067.9 623.83,-1067.68 625.47,-1067.51 627.14,-1067.38 628.8,-1067.25 630.48,-1067.17 632.16,-1067.14 633.84,-1067.1 635.53,-1067.11 637.21,-1067.17 638.89,-1067.23 640.56,-1067.34 642.21,-1067.49 643.86,-1067.64 645.5,-1067.84 647.11,-1068.09 648.71,-1068.33 650.29,-1068.62 651.83,-1068.95 653.37,-1069.28 654.86,-1069.66 656.31,-1070.07 657.76,-1070.48 659.16,-1070.94 660.5,-1071.43 661.84,-1071.92 663.13,-1072.45 664.34,-1073.02 665.56,-1073.58 666.7,-1074.18 667.78,-1074.81 668.85,-1075.44 669.85,-1076.09 670.77,-1076.78 671.68,-1077.46 672.52,-1078.17 673.27,-1078.9 674.02,-1079.63 674.68,-1080.38 675.25,-1081.14 675.82,-1081.91 676.3,-1082.69 676.68,-1083.49 677.07,-1084.28 677.36,-1085.08 677.55,-1085.89 677.74,-1086.7 677.84,-1087.52 677.84,-1088.33 677.84,-1088.33 634,-1088.33 634,-1088.33"/>
<ellipse fill="none" stroke="black" cx="634" cy="-1088.33" rx="43.84" ry="21.21"/>
<text xml:space="preserve" text-anchor="start" x="620.38" y="-1084.58" font-family="Times,serif" font-size="11.00">3</text>
<text xml:space="preserve" text-anchor="start" x="642.38" y="-1084.58" font-family="Times,serif" font-size="11.00">0</text>
</g>
<!-- nx_28302c203029&#45;&gt;nx_28332c203029 -->
<g id="edge2" class="edge">
<title>nx_28302c203029&#45;&gt;nx_28332c203029</title>
<path fill="none" stroke="#6688bb" d="M369,-1350.34C397.58,-1345.96 434.56,-1336.46 461,-1315.9 537.35,-1256.52 502.08,-1196.4 570,-1127.54 576.79,-1120.66 585.08,-1114.53 593.4,-1109.32"/>
<polygon fill="#6688bb" stroke="#6688bb" points="594.95,-1112.46 601.8,-1104.38 591.4,-1106.43 594.95,-1112.46"/>
<text xml:space="preserve" text-anchor="middle" x="534.33" y="-1218.42" font-family="Times,serif" font-size="9.00" fill="#6688bb"> fill 3L </text>
</g>
<!-- nx_28302c203129 -->
<g id="node2" class="node">
<title>nx_28302c203129</title>
<path fill="#cceeee" stroke="black" stroke-width="0.5" d="M379,-643.7C379,-643.7 422.84,-643.7 422.84,-643.7 422.84,-644.39 422.77,-645.09 422.63,-645.78 422.49,-646.47 422.28,-647.16 422,-647.84 421.72,-648.52 421.37,-649.19 420.95,-649.86 420.54,-650.52 420.05,-651.17 419.5,-651.82 418.95,-652.46 418.34,-653.09 417.66,-653.7 416.99,-654.31 416.25,-654.91 415.45,-655.48 414.65,-656.06 413.8,-656.62 412.89,-657.16 411.98,-657.69 411.01,-658.21 410,-658.7 408.99,-659.19 407.92,-659.66 406.81,-660.1 405.7,-660.54 404.55,-660.95 403.36,-661.34 402.16,-661.72 400.93,-662.08 399.67,-662.41 398.4,-662.73 397.1,-663.03 395.78,-663.3 394.45,-663.56 393.1,-663.8 391.73,-664 390.35,-664.2 388.96,-664.37 387.55,-664.5 386.15,-664.64 384.73,-664.74 383.3,-664.81 381.87,-664.88 380.43,-664.91 379,-664.91 379,-664.91 379,-643.7 379,-643.7"/>
<path fill="#eeccee" stroke="black" stroke-width="0.5" d="M379,-643.7C379,-643.7 379,-664.91 379,-664.91 377.57,-664.91 376.13,-664.88 374.7,-664.81 373.27,-664.74 371.85,-664.64 370.45,-664.5 369.04,-664.37 367.65,-664.2 366.27,-664 364.9,-663.8 363.55,-663.56 362.22,-663.3 360.9,-663.03 359.6,-662.73 358.33,-662.41 357.07,-662.08 355.84,-661.72 354.64,-661.34 353.45,-660.95 352.3,-660.54 351.19,-660.1 350.08,-659.66 349.01,-659.19 348,-658.7 346.99,-658.21 346.02,-657.69 345.11,-657.16 344.2,-656.62 343.35,-656.06 342.55,-655.48 341.75,-654.91 341.01,-654.31 340.34,-653.7 339.66,-653.09 339.05,-652.46 338.5,-651.82 337.95,-651.17 337.46,-650.52 337.05,-649.86 336.63,-649.19 336.28,-648.52 336,-647.84 335.72,-647.16 335.51,-646.47 335.37,-645.78 335.23,-645.09 335.16,-644.39 335.16,-643.7 335.16,-643.7 379,-643.7 379,-643.7"/>
<path fill="#ccddff" stroke="black" stroke-width="0.5" d="M379,-643.7C379,-643.7 335.16,-643.7 335.16,-643.7 335.16,-643 335.23,-642.31 335.37,-641.62 335.51,-640.93 335.72,-640.24 336,-639.56 336.28,-638.88 336.63,-638.2 337.05,-637.54 337.46,-636.88 337.95,-636.22 338.5,-635.58 339.05,-634.94 339.66,-634.31 340.34,-633.7 341.01,-633.09 341.75,-632.49 342.55,-631.91 343.35,-631.34 344.2,-630.78 345.11,-630.24 346.02,-629.7 346.99,-629.19 348,-628.7 349.01,-628.21 350.08,-627.74 351.19,-627.3 352.3,-626.86 353.45,-626.45 354.64,-626.06 355.84,-625.67 357.07,-625.32 358.33,-624.99 359.6,-624.66 360.9,-624.37 362.22,-624.1 363.55,-623.83 364.9,-623.6 366.27,-623.4 367.65,-623.2 369.04,-623.03 370.45,-622.89 371.85,-622.76 373.27,-622.66 374.7,-622.59 376.13,-622.52 377.57,-622.48 379,-622.48 379,-622.48 379,-643.7 379,-643.7"/>
<path fill="#ffddcc" stroke="black" stroke-width="0.5" d="M379,-643.7C379,-643.7 379,-622.48 379,-622.48 380.43,-622.48 381.87,-622.52 383.3,-622.59 384.73,-622.66 386.15,-622.76 387.55,-622.89 388.96,-623.03 390.35,-623.2 391.73,-623.4 393.1,-623.6 394.45,-623.83 395.78,-624.1 397.1,-624.37 398.4,-624.66 399.67,-624.99 400.93,-625.32 402.16,-625.67 403.36,-626.06 404.55,-626.45 405.7,-626.86 406.81,-627.3 407.92,-627.74 408.99,-628.21 410,-628.7 411.01,-629.19 411.98,-629.7 412.89,-630.24 413.8,-630.78 414.65,-631.34 415.45,-631.91 416.25,-632.49 416.99,-633.09 417.66,-633.7 418.34,-634.31 418.95,-634.94 419.5,-635.58 420.05,-636.22 420.54,-636.88 420.95,-637.54 421.37,-638.2 421.72,-638.88 422,-639.56 422.28,-640.24 422.49,-640.93 422.63,-641.62 422.77,-642.31 422.84,-643 422.84,-643.7 422.84,-643.7 379,-643.7 379,-643.7"/>
<ellipse fill="none" stroke="black" cx="379" cy="-643.7" rx="43.84" ry="21.21"/>
<text xml:space="preserve" text-anchor="start" x="365.38" y="-639.95" font-family="Times,serif" font-size="11.00">0</text>
<text xml:space="preserve" text-anchor="start" x="387.38" y="-639.95" font-family="Times,serif" font-size="11.00">1</text>
</g>
<!-- nx_28302c203129&#45;&gt;nx_28302c203029 -->
<g id="edge3" class="edge">
<title>nx_28302c203129&#45;&gt;nx_28302c203029</title>
<path fill="none" stroke="#aa77aa" d="M358.98,-663.02C346.97,-675.38 332.77,-692.78 326,-711.41 285.37,-823.19 286.84,-1126.07 284,-1244.97 283.55,-1263.82 280,-1268.97 284,-1287.4 286.96,-1301 289.86,-1303.94 297,-1315.9 298.92,-1319.11 301.06,-1322.38 303.29,-1325.58"/>
<polygon fill="#aa77aa" stroke="#aa77aa" points="300.46,-1327.64 309.19,-1333.64 306.11,-1323.5 300.46,-1327.64"/>
<text xml:space="preserve" text-anchor="middle" x="309.77" y="-996.1" font-family="Times,serif" font-size="9.00" fill="#aa77aa"> empty 5L </text>
</g>
<!-- nx_28302c203129&#45;&gt;nx_28302c203529 -->
<g id="edge4" class="edge">
<title>nx_28302c203129&#45;&gt;nx_28302c203529</title>
<path fill="none" stroke="#ddbb99" d="M364.7,-663.97C353.57,-680.89 340,-706.65 340,-731.62 340,-911.48 340,-911.48 340,-911.48 340,-927.37 338.04,-1148.96 337.29,-1233.1"/>
<polygon fill="#ddbb99" stroke="#ddbb99" points="333.79,-1232.93 337.2,-1242.96 340.79,-1232.99 333.79,-1232.93"/>
<text xml:space="preserve" text-anchor="middle" x="352.85" y="-951.64" font-family="Times,serif" font-size="9.00" fill="#ddbb99"> fill 5L </text>
</g>
<!-- nx_28312c203029 -->
<g id="node7" class="node">
<title>nx_28312c203029</title>
<path fill="#eeeeaa" stroke="black" stroke-width="0.5" d="M430,-732.62C430,-732.62 473.84,-732.62 473.84,-732.62 473.84,-733.32 473.77,-734.01 473.63,-734.7 473.49,-735.39 473.28,-736.08 473,-736.76 472.72,-737.44 472.37,-738.12 471.95,-738.78 471.54,-739.45 471.05,-740.1 470.5,-740.74 469.95,-741.38 469.34,-742.01 468.66,-742.62 467.99,-743.24 467.25,-743.83 466.45,-744.41 465.65,-744.99 464.8,-745.55 463.89,-746.08 462.98,-746.62 462.01,-747.13 461,-747.62 459.99,-748.12 458.92,-748.58 457.81,-749.02 456.7,-749.46 455.55,-749.88 454.36,-750.26 453.16,-750.65 451.93,-751.01 450.67,-751.33 449.4,-751.66 448.1,-751.96 446.78,-752.22 445.45,-752.49 444.1,-752.72 442.73,-752.92 441.35,-753.13 439.96,-753.29 438.55,-753.43 437.15,-753.57 435.73,-753.67 434.3,-753.74 432.87,-753.8 431.43,-753.84 430,-753.84 430,-753.84 430,-732.62 430,-732.62"/>
<path fill="#cceecc" stroke="black" stroke-width="0.5" d="M430,-732.62C430,-732.62 430,-753.84 430,-753.84 428.57,-753.84 427.13,-753.8 425.7,-753.74 424.27,-753.67 422.85,-753.57 421.45,-753.43 420.04,-753.29 418.65,-753.13 417.27,-752.92 415.9,-752.72 414.55,-752.49 413.22,-752.22 411.9,-751.96 410.6,-751.66 409.33,-751.33 408.07,-751.01 406.84,-750.65 405.64,-750.26 404.45,-749.88 403.3,-749.46 402.19,-749.02 401.08,-748.58 400.01,-748.12 399,-747.62 397.99,-747.13 397.02,-746.62 396.11,-746.08 395.2,-745.55 394.35,-744.99 393.55,-744.41 392.75,-743.83 392.01,-743.24 391.34,-742.62 390.66,-742.01 390.05,-741.38 389.5,-740.74 388.95,-740.1 388.46,-739.45 388.05,-738.78 387.63,-738.12 387.28,-737.44 387,-736.76 386.72,-736.08 386.51,-735.39 386.37,-734.7 386.23,-734.01 386.16,-733.32 386.16,-732.62 386.16,-732.62 430,-732.62 430,-732.62"/>
<path fill="#ccddff" stroke="black" stroke-width="0.5" d="M430,-732.62C430,-732.62 386.16,-732.62 386.16,-732.62 386.16,-731.93 386.23,-731.24 386.37,-730.55 386.51,-729.85 386.72,-729.17 387,-728.49 387.28,-727.8 387.63,-727.13 388.05,-726.47 388.46,-725.8 388.95,-725.15 389.5,-724.51 390.05,-723.87 390.66,-723.24 391.34,-722.62 392.01,-722.01 392.75,-721.42 393.55,-720.84 394.35,-720.26 395.2,-719.7 396.11,-719.17 397.02,-718.63 397.99,-718.12 399,-717.62 400.01,-717.13 401.08,-716.67 402.19,-716.23 403.3,-715.79 404.45,-715.37 405.64,-714.99 406.84,-714.6 408.07,-714.24 409.33,-713.92 410.6,-713.59 411.9,-713.29 413.22,-713.03 414.55,-712.76 415.9,-712.53 417.27,-712.32 418.65,-712.12 420.04,-711.95 421.45,-711.82 422.85,-711.68 424.27,-711.58 425.7,-711.51 427.13,-711.45 428.57,-711.41 430,-711.41 430,-711.41 430,-732.62 430,-732.62"/>
<path fill="#ffddcc" stroke="black" stroke-width="0.5" d="M430,-732.62C430,-732.62 430,-711.41 430,-711.41 431.43,-711.41 432.87,-711.45 434.3,-711.51 435.73,-711.58 437.15,-711.68 438.55,-711.82 439.96,-711.95 441.35,-712.12 442.73,-712.32 444.1,-712.53 445.45,-712.76 446.78,-713.03 448.1,-713.29 449.4,-713.59 450.67,-713.92 451.93,-714.24 453.16,-714.6 454.36,-714.99 455.55,-715.37 456.7,-715.79 457.81,-716.23 458.92,-716.67 459.99,-717.13 461,-717.62 462.01,-718.12 462.98,-718.63 463.89,-719.17 464.8,-719.7 465.65,-720.26 466.45,-720.84 467.25,-721.42 467.99,-722.01 468.66,-722.62 469.34,-723.24 469.95,-723.87 470.5,-724.51 471.05,-725.15 471.54,-725.8 471.95,-726.47 472.37,-727.13 472.72,-727.8 473,-728.49 473.28,-729.17 473.49,-729.85 473.63,-730.55 473.77,-731.24 473.84,-731.93 473.84,-732.62 473.84,-732.62 430,-732.62 430,-732.62"/>
<ellipse fill="none" stroke="black" cx="430" cy="-732.62" rx="43.84" ry="21.21"/>
<text xml:space="preserve" text-anchor="start" x="416.38" y="-728.87" font-family="Times,serif" font-size="11.00">1</text>
<text xml:space="preserve" text-anchor="start" x="438.38" y="-728.87" font-family="Times,serif" font-size="11.00">0</text>
</g>
<!-- nx_28302c203129&#45;&gt;nx_28312c203029 -->
<g id="edge5" class="edge">
<title>nx_28302c203129&#45;&gt;nx_28312c203029</title>
<path fill="none" stroke="#77aaaa" d="M396.58,-663.22C401.67,-669.2 406.94,-676.06 411,-682.91 414.29,-688.48 417.23,-694.72 419.74,-700.83"/>
<polygon fill="#77aaaa" stroke="#77aaaa" points="416.44,-701.99 423.27,-710.09 422.98,-699.5 416.44,-701.99"/>
<text xml:space="preserve" text-anchor="middle" x="432.81" y="-684.86" font-family="Times,serif" font-size="9.00" fill="#77aaaa"> 5L→3L </text>
</g>
<!-- nx_28332c203129 -->
<g id="node12" class="node">
<title>nx_28332c203129</title>
<path fill="#eeeeaa" stroke="black" stroke-width="0.5" d="M689,-554.77C689,-554.77 732.84,-554.77 732.84,-554.77 732.84,-555.47 732.77,-556.16 732.63,-556.85 732.49,-557.54 732.28,-558.23 732,-558.91 731.72,-559.59 731.37,-560.27 730.95,-560.93 730.54,-561.59 730.05,-562.25 729.5,-562.89 728.95,-563.53 728.34,-564.16 727.66,-564.77 726.99,-565.38 726.25,-565.98 725.45,-566.56 724.65,-567.13 723.8,-567.69 722.89,-568.23 721.98,-568.77 721.01,-569.28 720,-569.77 718.99,-570.26 717.92,-570.73 716.81,-571.17 715.7,-571.61 714.55,-572.02 713.36,-572.41 712.16,-572.8 710.93,-573.15 709.67,-573.48 708.4,-573.81 707.1,-574.1 705.78,-574.37 704.45,-574.64 703.1,-574.87 701.73,-575.07 700.35,-575.27 698.96,-575.44 697.55,-575.58 696.15,-575.71 694.73,-575.81 693.3,-575.88 691.87,-575.95 690.43,-575.98 689,-575.98 689,-575.98 689,-554.77 689,-554.77"/>
<path fill="#cceecc" stroke="black" stroke-width="0.5" d="M689,-554.77C689,-554.77 689,-575.98 689,-575.98 687.57,-575.98 686.13,-575.95 684.7,-575.88 683.27,-575.81 681.85,-575.71 680.45,-575.58 679.04,-575.44 677.65,-575.27 676.27,-575.07 674.9,-574.87 673.55,-574.64 672.22,-574.37 670.9,-574.1 669.6,-573.81 668.33,-573.48 667.07,-573.15 665.84,-572.8 664.64,-572.41 663.45,-572.02 662.3,-571.61 661.19,-571.17 660.08,-570.73 659.01,-570.26 658,-569.77 656.99,-569.28 656.02,-568.77 655.11,-568.23 654.2,-567.69 653.35,-567.13 652.55,-566.56 651.75,-565.98 651.01,-565.38 650.34,-564.77 649.66,-564.16 649.05,-563.53 648.5,-562.89 647.95,-562.25 647.46,-561.59 647.05,-560.93 646.63,-560.27 646.28,-559.59 646,-558.91 645.72,-558.23 645.51,-557.54 645.37,-556.85 645.23,-556.16 645.16,-555.47 645.16,-554.77 645.16,-554.77 689,-554.77 689,-554.77"/>
<path fill="#eeccee" stroke="black" stroke-width="0.5" d="M689,-554.77C689,-554.77 645.16,-554.77 645.16,-554.77 645.16,-554.08 645.23,-553.38 645.37,-552.69 645.51,-552 645.72,-551.31 646,-550.63 646.28,-549.95 646.63,-549.28 647.05,-548.61 647.46,-547.95 647.95,-547.3 648.5,-546.65 649.05,-546.01 649.66,-545.38 650.34,-544.77 651.01,-544.16 651.75,-543.56 652.55,-542.99 653.35,-542.41 654.2,-541.85 655.11,-541.31 656.02,-540.78 656.99,-540.26 658,-539.77 659.01,-539.28 660.08,-538.81 661.19,-538.37 662.3,-537.93 663.45,-537.52 664.64,-537.13 665.84,-536.75 667.07,-536.39 668.33,-536.06 669.6,-535.74 670.9,-535.44 672.22,-535.17 673.55,-534.91 674.9,-534.67 676.27,-534.47 677.65,-534.27 679.04,-534.1 680.45,-533.97 681.85,-533.83 683.27,-533.73 684.7,-533.66 686.13,-533.59 687.57,-533.56 689,-533.56 689,-533.56 689,-554.77 689,-554.77"/>
<path fill="#ffddcc" stroke="black" stroke-width="0.5" d="M689,-554.77C689,-554.77 689,-533.56 689,-533.56 690.43,-533.56 691.87,-533.59 693.3,-533.66 694.73,-533.73 696.15,-533.83 697.55,-533.97 698.96,-534.1 700.35,-534.27 701.73,-534.47 703.1,-534.67 704.45,-534.91 705.78,-535.17 707.1,-535.44 708.4,-535.74 709.67,-536.06 710.93,-536.39 712.16,-536.75 713.36,-537.13 714.55,-537.52 715.7,-537.93 716.81,-538.37 717.92,-538.81 718.99,-539.28 720,-539.77 721.01,-540.26 721.98,-540.78 722.89,-541.31 723.8,-541.85 724.65,-542.41 725.45,-542.99 726.25,-543.56 726.99,-544.16 727.66,-544.77 728.34,-545.38 728.95,-546.01 729.5,-546.65 730.05,-547.3 730.54,-547.95 730.95,-548.61 731.37,-549.28 731.72,-549.95 732,-550.63 732.28,-551.31 732.49,-552 732.63,-552.69 732.77,-553.38 732.84,-554.08 732.84,-554.77 732.84,-554.77 689,-554.77 689,-554.77"/>
<ellipse fill="none" stroke="black" cx="689" cy="-554.77" rx="43.84" ry="21.21"/>
<text xml:space="preserve" text-anchor="start" x="675.38" y="-551.02" font-family="Times,serif" font-size="11.00">3</text>
<text xml:space="preserve" text-anchor="start" x="697.38" y="-551.02" font-family="Times,serif" font-size="11.00">1</text>
</g>
<!-- nx_28302c203129&#45;&gt;nx_28332c203129 -->
<g id="edge6" class="edge">
<title>nx_28302c203129&#45;&gt;nx_28332c203129</title>
<path fill="none" stroke="#6688bb" d="M408.48,-627.86C430.85,-617.13 462.62,-602.98 491.75,-593.98 539.48,-579.24 595.53,-569.04 635.66,-562.9"/>
<polygon fill="#6688bb" stroke="#6688bb" points="635.92,-566.4 645.3,-561.47 634.89,-559.48 635.92,-566.4"/>
<text xml:space="preserve" text-anchor="middle" x="504.88" y="-595.93" font-family="Times,serif" font-size="9.00" fill="#6688bb"> fill 3L </text>
</g>
<!-- nx_28302c203229 -->
<g id="node3" class="node">
<title>nx_28302c203229</title>
<path fill="#cceeee" stroke="black" stroke-width="0.5" d="M782,-110.14C782,-110.14 825.84,-110.14 825.84,-110.14 825.84,-110.83 825.77,-111.53 825.63,-112.22 825.49,-112.91 825.28,-113.6 825,-114.28 824.72,-114.96 824.37,-115.63 823.95,-116.3 823.54,-116.96 823.05,-117.62 822.5,-118.26 821.95,-118.9 821.34,-119.53 820.66,-120.14 819.99,-120.75 819.25,-121.35 818.45,-121.93 817.65,-122.5 816.8,-123.06 815.89,-123.6 814.98,-124.13 814.01,-124.65 813,-125.14 811.99,-125.63 810.92,-126.1 809.81,-126.54 808.7,-126.98 807.55,-127.39 806.36,-127.78 805.16,-128.16 803.93,-128.52 802.67,-128.85 801.4,-129.18 800.1,-129.47 798.78,-129.74 797.45,-130 796.1,-130.24 794.73,-130.44 793.35,-130.64 791.96,-130.81 790.55,-130.95 789.15,-131.08 787.73,-131.18 786.3,-131.25 784.87,-131.32 783.43,-131.35 782,-131.35 782,-131.35 782,-110.14 782,-110.14"/>
<path fill="#eeccee" stroke="black" stroke-width="0.5" d="M782,-110.14C782,-110.14 782,-131.35 782,-131.35 780.57,-131.35 779.13,-131.32 777.7,-131.25 776.27,-131.18 774.85,-131.08 773.45,-130.95 772.04,-130.81 770.65,-130.64 769.27,-130.44 767.9,-130.24 766.55,-130 765.22,-129.74 763.9,-129.47 762.6,-129.18 761.33,-128.85 760.07,-128.52 758.84,-128.16 757.64,-127.78 756.45,-127.39 755.3,-126.98 754.19,-126.54 753.08,-126.1 752.01,-125.63 751,-125.14 749.99,-124.65 749.02,-124.13 748.11,-123.6 747.2,-123.06 746.35,-122.5 745.55,-121.93 744.75,-121.35 744.01,-120.75 743.34,-120.14 742.66,-119.53 742.05,-118.9 741.5,-118.26 740.95,-117.62 740.46,-116.96 740.05,-116.3 739.63,-115.63 739.28,-114.96 739,-114.28 738.72,-113.6 738.51,-112.91 738.37,-112.22 738.23,-111.53 738.16,-110.83 738.16,-110.14 738.16,-110.14 782,-110.14 782,-110.14"/>
<path fill="#ccddff" stroke="black" stroke-width="0.5" d="M782,-110.14C782,-110.14 738.16,-110.14 738.16,-110.14 738.16,-109.45 738.23,-108.75 738.37,-108.06 738.51,-107.37 738.72,-106.68 739,-106 739.28,-105.32 739.63,-104.65 740.05,-103.98 740.46,-103.32 740.95,-102.66 741.5,-102.02 742.05,-101.38 742.66,-100.75 743.34,-100.14 744.01,-99.53 744.75,-98.93 745.55,-98.35 746.35,-97.78 747.2,-97.22 748.11,-96.68 749.02,-96.15 749.99,-95.63 751,-95.14 752.01,-94.65 753.08,-94.18 754.19,-93.74 755.3,-93.3 756.45,-92.89 757.64,-92.5 758.84,-92.12 760.07,-91.76 761.33,-91.43 762.6,-91.1 763.9,-90.81 765.22,-90.54 766.55,-90.28 767.9,-90.04 769.27,-89.84 770.65,-89.64 772.04,-89.47 773.45,-89.33 774.85,-89.2 776.27,-89.1 777.7,-89.03 779.13,-88.96 780.57,-88.93 782,-88.93 782,-88.93 782,-110.14 782,-110.14"/>
<path fill="#ffddcc" stroke="black" stroke-width="0.5" d="M782,-110.14C782,-110.14 782,-88.93 782,-88.93 783.43,-88.93 784.87,-88.96 786.3,-89.03 787.73,-89.1 789.15,-89.2 790.55,-89.33 791.96,-89.47 793.35,-89.64 794.73,-89.84 796.1,-90.04 797.45,-90.28 798.78,-90.54 800.1,-90.81 801.4,-91.1 802.67,-91.43 803.93,-91.76 805.16,-92.12 806.36,-92.5 807.55,-92.89 808.7,-93.3 809.81,-93.74 810.92,-94.18 811.99,-94.65 813,-95.14 814.01,-95.63 814.98,-96.15 815.89,-96.68 816.8,-97.22 817.65,-97.78 818.45,-98.35 819.25,-98.93 819.99,-99.53 820.66,-100.14 821.34,-100.75 821.95,-101.38 822.5,-102.02 823.05,-102.66 823.54,-103.32 823.95,-103.98 824.37,-104.65 824.72,-105.32 825,-106 825.28,-106.68 825.49,-107.37 825.63,-108.06 825.77,-108.75 825.84,-109.45 825.84,-110.14 825.84,-110.14 782,-110.14 782,-110.14"/>
<ellipse fill="none" stroke="black" cx="782" cy="-110.14" rx="43.84" ry="21.21"/>
<text xml:space="preserve" text-anchor="start" x="768.38" y="-106.39" font-family="Times,serif" font-size="11.00">0</text>
<text xml:space="preserve" text-anchor="start" x="790.38" y="-106.39" font-family="Times,serif" font-size="11.00">2</text>
</g>
<!-- nx_28302c203229&#45;&gt;nx_28302c203029 -->
<g id="edge7" class="edge">
<title>nx_28302c203229&#45;&gt;nx_28302c203029</title>
<path fill="none" stroke="#aa77aa" d="M738,-111.37C572.94,-112.82 0,-123.23 0,-198.07 0,-1267.18 0,-1267.18 0,-1267.18 0,-1322.58 177.99,-1343.57 270.93,-1350.76"/>
<polygon fill="#aa77aa" stroke="#aa77aa" points="270.63,-1354.24 280.86,-1351.49 271.15,-1347.26 270.63,-1354.24"/>
<text xml:space="preserve" text-anchor="middle" x="19.12" y="-729.32" font-family="Times,serif" font-size="9.00" fill="#aa77aa"> empty 5L </text>
</g>
<!-- nx_28302c203229&#45;&gt;nx_28302c203529 -->
<g id="edge8" class="edge">
<title>nx_28302c203229&#45;&gt;nx_28302c203529</title>
<path fill="none" stroke="#ddbb99" d="M738.02,-111.83C582.24,-114.86 66,-130.02 66,-198.07 66,-1178.26 66,-1178.26 66,-1178.26 66,-1223.41 204.12,-1248.39 283.15,-1259"/>
<polygon fill="#ddbb99" stroke="#ddbb99" points="282.49,-1262.44 292.86,-1260.26 283.39,-1255.5 282.49,-1262.44"/>
<text xml:space="preserve" text-anchor="middle" x="79.12" y="-684.86" font-family="Times,serif" font-size="9.00" fill="#ddbb99"> fill 5L </text>
</g>
<!-- nx_28322c203029 -->
<g id="node9" class="node">
<title>nx_28322c203029</title>
<path fill="#eeeeaa" stroke="black" stroke-width="0.5" d="M782,-199.07C782,-199.07 825.84,-199.07 825.84,-199.07 825.84,-199.76 825.77,-200.45 825.63,-201.15 825.49,-201.84 825.28,-202.52 825,-203.2 824.72,-203.89 824.37,-204.56 823.95,-205.22 823.54,-205.89 823.05,-206.54 822.5,-207.18 821.95,-207.83 821.34,-208.45 820.66,-209.07 819.99,-209.68 819.25,-210.27 818.45,-210.85 817.65,-211.43 816.8,-211.99 815.89,-212.52 814.98,-213.06 814.01,-213.58 813,-214.07 811.99,-214.56 810.92,-215.02 809.81,-215.46 808.7,-215.9 807.55,-216.32 806.36,-216.7 805.16,-217.09 803.93,-217.45 802.67,-217.77 801.4,-218.1 800.1,-218.4 798.78,-218.66 797.45,-218.93 796.1,-219.16 794.73,-219.37 793.35,-219.57 791.96,-219.74 790.55,-219.87 789.15,-220.01 787.73,-220.11 786.3,-220.18 784.87,-220.25 783.43,-220.28 782,-220.28 782,-220.28 782,-199.07 782,-199.07"/>
<path fill="#cceecc" stroke="black" stroke-width="0.5" d="M782,-199.07C782,-199.07 782,-220.28 782,-220.28 780.57,-220.28 779.13,-220.25 777.7,-220.18 776.27,-220.11 774.85,-220.01 773.45,-219.87 772.04,-219.74 770.65,-219.57 769.27,-219.37 767.9,-219.16 766.55,-218.93 765.22,-218.66 763.9,-218.4 762.6,-218.1 761.33,-217.77 760.07,-217.45 758.84,-217.09 757.64,-216.7 756.45,-216.32 755.3,-215.9 754.19,-215.46 753.08,-215.02 752.01,-214.56 751,-214.07 749.99,-213.58 749.02,-213.06 748.11,-212.52 747.2,-211.99 746.35,-211.43 745.55,-210.85 744.75,-210.27 744.01,-209.68 743.34,-209.07 742.66,-208.45 742.05,-207.83 741.5,-207.18 740.95,-206.54 740.46,-205.89 740.05,-205.22 739.63,-204.56 739.28,-203.89 739,-203.2 738.72,-202.52 738.51,-201.84 738.37,-201.15 738.23,-200.45 738.16,-199.76 738.16,-199.07 738.16,-199.07 782,-199.07 782,-199.07"/>
<path fill="#ccddff" stroke="black" stroke-width="0.5" d="M782,-199.07C782,-199.07 738.16,-199.07 738.16,-199.07 738.16,-198.37 738.23,-197.68 738.37,-196.99 738.51,-196.3 738.72,-195.61 739,-194.93 739.28,-194.25 739.63,-193.57 740.05,-192.91 740.46,-192.24 740.95,-191.59 741.5,-190.95 742.05,-190.31 742.66,-189.68 743.34,-189.07 744.01,-188.45 744.75,-187.86 745.55,-187.28 746.35,-186.7 747.2,-186.15 748.11,-185.61 749.02,-185.07 749.99,-184.56 751,-184.07 752.01,-183.58 753.08,-183.11 754.19,-182.67 755.3,-182.23 756.45,-181.81 757.64,-181.43 758.84,-181.04 760.07,-180.68 761.33,-180.36 762.6,-180.03 763.9,-179.73 765.22,-179.47 766.55,-179.2 767.9,-178.97 769.27,-178.77 770.65,-178.56 772.04,-178.4 773.45,-178.26 774.85,-178.12 776.27,-178.02 777.7,-177.95 779.13,-177.89 780.57,-177.85 782,-177.85 782,-177.85 782,-199.07 782,-199.07"/>
<path fill="#ffddcc" stroke="black" stroke-width="0.5" d="M782,-199.07C782,-199.07 782,-177.85 782,-177.85 783.43,-177.85 784.87,-177.89 786.3,-177.95 787.73,-178.02 789.15,-178.12 790.55,-178.26 791.96,-178.4 793.35,-178.56 794.73,-178.77 796.1,-178.97 797.45,-179.2 798.78,-179.47 800.1,-179.73 801.4,-180.03 802.67,-180.36 803.93,-180.68 805.16,-181.04 806.36,-181.43 807.55,-181.81 808.7,-182.23 809.81,-182.67 810.92,-183.11 811.99,-183.58 813,-184.07 814.01,-184.56 814.98,-185.07 815.89,-185.61 816.8,-186.15 817.65,-186.7 818.45,-187.28 819.25,-187.86 819.99,-188.45 820.66,-189.07 821.34,-189.68 821.95,-190.31 822.5,-190.95 823.05,-191.59 823.54,-192.24 823.95,-192.91 824.37,-193.57 824.72,-194.25 825,-194.93 825.28,-195.61 825.49,-196.3 825.63,-196.99 825.77,-197.68 825.84,-198.37 825.84,-199.07 825.84,-199.07 782,-199.07 782,-199.07"/>
<ellipse fill="none" stroke="black" cx="782" cy="-199.07" rx="43.84" ry="21.21"/>
<text xml:space="preserve" text-anchor="start" x="768.38" y="-195.32" font-family="Times,serif" font-size="11.00">2</text>
<text xml:space="preserve" text-anchor="start" x="790.38" y="-195.32" font-family="Times,serif" font-size="11.00">0</text>
</g>
<!-- nx_28302c203229&#45;&gt;nx_28322c203029 -->
<g id="edge9" class="edge">
<title>nx_28302c203229&#45;&gt;nx_28322c203029</title>
<path fill="none" stroke="#77aaaa" d="M786.34,-131.48C787.72,-140.2 788.73,-150.51 788,-159.85 787.84,-161.92 787.63,-164.05 787.38,-166.19"/>
<polygon fill="#77aaaa" stroke="#77aaaa" points="783.93,-165.63 786.04,-176.01 790.86,-166.58 783.93,-165.63"/>
<text xml:space="preserve" text-anchor="middle" x="804.74" y="-151.3" font-family="Times,serif" font-size="9.00" fill="#77aaaa"> 5L→3L </text>
</g>
<!-- nx_28332c203229 -->
<g id="node13" class="node">
<title>nx_28332c203229</title>
<path fill="#eeeeaa" stroke="black" stroke-width="0.5" d="M1073,-21.21C1073,-21.21 1116.84,-21.21 1116.84,-21.21 1116.84,-21.91 1116.77,-22.6 1116.63,-23.29 1116.49,-23.98 1116.28,-24.67 1116,-25.35 1115.72,-26.03 1115.37,-26.71 1114.95,-27.37 1114.54,-28.04 1114.05,-28.69 1113.5,-29.33 1112.95,-29.97 1112.34,-30.6 1111.66,-31.21 1110.99,-31.83 1110.25,-32.42 1109.45,-33 1108.65,-33.58 1107.8,-34.13 1106.89,-34.67 1105.98,-35.21 1105.01,-35.72 1104,-36.21 1102.99,-36.7 1101.92,-37.17 1100.81,-37.61 1099.7,-38.05 1098.55,-38.47 1097.36,-38.85 1096.16,-39.24 1094.93,-39.59 1093.67,-39.92 1092.4,-40.25 1091.1,-40.55 1089.78,-40.81 1088.45,-41.08 1087.1,-41.31 1085.73,-41.51 1084.35,-41.71 1082.96,-41.88 1081.55,-42.02 1080.15,-42.15 1078.73,-42.26 1077.3,-42.32 1075.87,-42.39 1074.43,-42.43 1073,-42.43 1073,-42.43 1073,-21.21 1073,-21.21"/>
<path fill="#cceecc" stroke="black" stroke-width="0.5" d="M1073,-21.21C1073,-21.21 1073,-42.43 1073,-42.43 1071.57,-42.43 1070.13,-42.39 1068.7,-42.32 1067.27,-42.26 1065.85,-42.15 1064.45,-42.02 1063.04,-41.88 1061.65,-41.71 1060.27,-41.51 1058.9,-41.31 1057.55,-41.08 1056.22,-40.81 1054.9,-40.55 1053.6,-40.25 1052.33,-39.92 1051.07,-39.59 1049.84,-39.24 1048.64,-38.85 1047.45,-38.47 1046.3,-38.05 1045.19,-37.61 1044.08,-37.17 1043.01,-36.7 1042,-36.21 1040.99,-35.72 1040.02,-35.21 1039.11,-34.67 1038.2,-34.13 1037.35,-33.58 1036.55,-33 1035.75,-32.42 1035.01,-31.83 1034.34,-31.21 1033.66,-30.6 1033.05,-29.97 1032.5,-29.33 1031.95,-28.69 1031.46,-28.04 1031.05,-27.37 1030.63,-26.71 1030.28,-26.03 1030,-25.35 1029.72,-24.67 1029.51,-23.98 1029.37,-23.29 1029.23,-22.6 1029.16,-21.91 1029.16,-21.21 1029.16,-21.21 1073,-21.21 1073,-21.21"/>
<path fill="#eeccee" stroke="black" stroke-width="0.5" d="M1073,-21.21C1073,-21.21 1029.16,-21.21 1029.16,-21.21 1029.16,-20.52 1029.23,-19.82 1029.37,-19.13 1029.51,-18.44 1029.72,-17.76 1030,-17.07 1030.28,-16.39 1030.63,-15.72 1031.05,-15.06 1031.46,-14.39 1031.95,-13.74 1032.5,-13.1 1033.05,-12.45 1033.66,-11.83 1034.34,-11.21 1035.01,-10.6 1035.75,-10.01 1036.55,-9.43 1037.35,-8.85 1038.2,-8.29 1039.11,-7.76 1040.02,-7.22 1040.99,-6.7 1042,-6.21 1043.01,-5.72 1044.08,-5.26 1045.19,-4.82 1046.3,-4.37 1047.45,-3.96 1048.64,-3.58 1049.84,-3.19 1051.07,-2.83 1052.33,-2.5 1053.6,-2.18 1054.9,-1.88 1056.22,-1.61 1057.55,-1.35 1058.9,-1.11 1060.27,-0.91 1061.65,-0.71 1063.04,-0.54 1064.45,-0.41 1065.85,-0.27 1067.27,-0.17 1068.7,-0.1 1070.13,-0.03 1071.57,0 1073,0 1073,0 1073,-21.21 1073,-21.21"/>
<path fill="#ffddcc" stroke="black" stroke-width="0.5" d="M1073,-21.21C1073,-21.21 1073,0 1073,0 1074.43,0 1075.87,-0.03 1077.3,-0.1 1078.73,-0.17 1080.15,-0.27 1081.55,-0.41 1082.96,-0.54 1084.35,-0.71 1085.73,-0.91 1087.1,-1.11 1088.45,-1.35 1089.78,-1.61 1091.1,-1.88 1092.4,-2.18 1093.67,-2.5 1094.93,-2.83 1096.16,-3.19 1097.36,-3.58 1098.55,-3.96 1099.7,-4.37 1100.81,-4.82 1101.92,-5.26 1102.99,-5.72 1104,-6.21 1105.01,-6.7 1105.98,-7.22 1106.89,-7.76 1107.8,-8.29 1108.65,-8.85 1109.45,-9.43 1110.25,-10.01 1110.99,-10.6 1111.66,-11.21 1112.34,-11.83 1112.95,-12.45 1113.5,-13.1 1114.05,-13.74 1114.54,-14.39 1114.95,-15.06 1115.37,-15.72 1115.72,-16.39 1116,-17.07 1116.28,-17.76 1116.49,-18.44 1116.63,-19.13 1116.77,-19.82 1116.84,-20.52 1116.84,-21.21 1116.84,-21.21 1073,-21.21 1073,-21.21"/>
<ellipse fill="none" stroke="black" cx="1073" cy="-21.21" rx="43.84" ry="21.21"/>
<text xml:space="preserve" text-anchor="start" x="1059.38" y="-17.46" font-family="Times,serif" font-size="11.00">3</text>
<text xml:space="preserve" text-anchor="start" x="1081.38" y="-17.46" font-family="Times,serif" font-size="11.00">2</text>
</g>
<!-- nx_28302c203229&#45;&gt;nx_28332c203229 -->
<g id="edge10" class="edge">
<title>nx_28302c203229&#45;&gt;nx_28332c203229</title>
<path fill="none" stroke="#6688bb" d="M814.67,-95.7C840.89,-85.22 878.8,-70.76 912.75,-60.43 948.82,-49.45 990.23,-39.65 1021.92,-32.72"/>
<polygon fill="#6688bb" stroke="#6688bb" points="1022.61,-36.15 1031.64,-30.62 1021.13,-29.31 1022.61,-36.15"/>
<text xml:space="preserve" text-anchor="middle" x="925.88" y="-62.38" font-family="Times,serif" font-size="9.00" fill="#6688bb"> fill 3L </text>
</g>
<!-- nx_28302c203329 -->
<g id="node4" class="node">
<title>nx_28302c203329</title>
<path fill="#cceeee" stroke="black" stroke-width="0.5" d="M491,-999.4C491,-999.4 534.84,-999.4 534.84,-999.4 534.84,-1000.1 534.77,-1000.79 534.63,-1001.48 534.49,-1002.17 534.28,-1002.86 534,-1003.54 533.72,-1004.22 533.37,-1004.9 532.95,-1005.56 532.54,-1006.23 532.05,-1006.88 531.5,-1007.52 530.95,-1008.16 530.34,-1008.79 529.66,-1009.4 528.99,-1010.02 528.25,-1010.61 527.45,-1011.19 526.65,-1011.77 525.8,-1012.32 524.89,-1012.86 523.98,-1013.4 523.01,-1013.91 522,-1014.4 520.99,-1014.89 519.92,-1015.36 518.81,-1015.8 517.7,-1016.24 516.55,-1016.66 515.36,-1017.04 514.16,-1017.43 512.93,-1017.78 511.67,-1018.11 510.4,-1018.44 509.1,-1018.74 507.78,-1019 506.45,-1019.27 505.1,-1019.5 503.73,-1019.7 502.35,-1019.91 500.96,-1020.07 499.55,-1020.21 498.15,-1020.34 496.73,-1020.45 495.3,-1020.51 493.87,-1020.58 492.43,-1020.62 491,-1020.62 491,-1020.62 491,-999.4 491,-999.4"/>
<path fill="#eeccee" stroke="black" stroke-width="0.5" d="M491,-999.4C491,-999.4 491,-1020.62 491,-1020.62 489.57,-1020.62 488.13,-1020.58 486.7,-1020.51 485.27,-1020.45 483.85,-1020.34 482.45,-1020.21 481.04,-1020.07 479.65,-1019.91 478.27,-1019.7 476.9,-1019.5 475.55,-1019.27 474.22,-1019 472.9,-1018.74 471.6,-1018.44 470.33,-1018.11 469.07,-1017.78 467.84,-1017.43 466.64,-1017.04 465.45,-1016.66 464.3,-1016.24 463.19,-1015.8 462.08,-1015.36 461.01,-1014.89 460,-1014.4 458.99,-1013.91 458.02,-1013.4 457.11,-1012.86 456.2,-1012.32 455.35,-1011.77 454.55,-1011.19 453.75,-1010.61 453.01,-1010.02 452.34,-1009.4 451.66,-1008.79 451.05,-1008.16 450.5,-1007.52 449.95,-1006.88 449.46,-1006.23 449.05,-1005.56 448.63,-1004.9 448.28,-1004.22 448,-1003.54 447.72,-1002.86 447.51,-1002.17 447.37,-1001.48 447.23,-1000.79 447.16,-1000.1 447.16,-999.4 447.16,-999.4 491,-999.4 491,-999.4"/>
<path fill="#ccddff" stroke="black" stroke-width="0.5" d="M491,-999.4C491,-999.4 447.16,-999.4 447.16,-999.4 447.16,-998.71 447.23,-998.02 447.37,-997.32 447.51,-996.63 447.72,-995.95 448,-995.27 448.28,-994.58 448.63,-993.91 449.05,-993.25 449.46,-992.58 449.95,-991.93 450.5,-991.29 451.05,-990.64 451.66,-990.02 452.34,-989.4 453.01,-988.79 453.75,-988.2 454.55,-987.62 455.35,-987.04 456.2,-986.48 457.11,-985.95 458.02,-985.41 458.99,-984.89 460,-984.4 461.01,-983.91 462.08,-983.45 463.19,-983.01 464.3,-982.57 465.45,-982.15 466.64,-981.77 467.84,-981.38 469.07,-981.02 470.33,-980.7 471.6,-980.37 472.9,-980.07 474.22,-979.81 475.55,-979.54 476.9,-979.31 478.27,-979.1 479.65,-978.9 481.04,-978.73 482.45,-978.6 483.85,-978.46 485.27,-978.36 486.7,-978.29 488.13,-978.22 489.57,-978.19 491,-978.19 491,-978.19 491,-999.4 491,-999.4"/>
<path fill="#ffddcc" stroke="black" stroke-width="0.5" d="M491,-999.4C491,-999.4 491,-978.19 491,-978.19 492.43,-978.19 493.87,-978.22 495.3,-978.29 496.73,-978.36 498.15,-978.46 499.55,-978.6 500.96,-978.73 502.35,-978.9 503.73,-979.1 505.1,-979.31 506.45,-979.54 507.78,-979.81 509.1,-980.07 510.4,-980.37 511.67,-980.7 512.93,-981.02 514.16,-981.38 515.36,-981.77 516.55,-982.15 517.7,-982.57 518.81,-983.01 519.92,-983.45 520.99,-983.91 522,-984.4 523.01,-984.89 523.98,-985.41 524.89,-985.95 525.8,-986.48 526.65,-987.04 527.45,-987.62 528.25,-988.2 528.99,-988.79 529.66,-989.4 530.34,-990.02 530.95,-990.64 531.5,-991.29 532.05,-991.93 532.54,-992.58 532.95,-993.25 533.37,-993.91 533.72,-994.58 534,-995.27 534.28,-995.95 534.49,-996.63 534.63,-997.32 534.77,-998.02 534.84,-998.71 534.84,-999.4 534.84,-999.4 491,-999.4 491,-999.4"/>
<ellipse fill="none" stroke="black" cx="491" cy="-999.4" rx="43.84" ry="21.21"/>
<text xml:space="preserve" text-anchor="start" x="477.38" y="-995.65" font-family="Times,serif" font-size="11.00">0</text>
<text xml:space="preserve" text-anchor="start" x="499.38" y="-995.65" font-family="Times,serif" font-size="11.00">3</text>
</g>
<!-- nx_28302c203329&#45;&gt;nx_28302c203029 -->
<g id="edge11" class="edge">
<title>nx_28302c203329&#45;&gt;nx_28302c203029</title>
<path fill="none" stroke="#aa77aa" d="M489.11,-1020.7C482.95,-1083.09 461.53,-1270.51 423,-1315.9 411.47,-1329.48 394.46,-1338.27 377.9,-1343.94"/>
<polygon fill="#aa77aa" stroke="#aa77aa" points="377.12,-1340.51 368.59,-1346.79 379.17,-1347.21 377.12,-1340.51"/>
<text xml:space="preserve" text-anchor="middle" x="490.21" y="-1173.96" font-family="Times,serif" font-size="9.00" fill="#aa77aa"> empty 5L </text>
</g>
<!-- nx_28302c203329&#45;&gt;nx_28302c203529 -->
<g id="edge12" class="edge">
<title>nx_28302c203329&#45;&gt;nx_28302c203529</title>
<path fill="none" stroke="#ddbb99" d="M497.43,-1020.72C508.23,-1059.07 525.48,-1143.23 489,-1198.47 467,-1231.78 424.31,-1248.57 389.76,-1256.97"/>
<polygon fill="#ddbb99" stroke="#ddbb99" points="389.33,-1253.48 380.34,-1259.08 390.87,-1260.31 389.33,-1253.48"/>
<text xml:space="preserve" text-anchor="middle" x="523.57" y="-1129.49" font-family="Times,serif" font-size="9.00" fill="#ddbb99"> fill 5L </text>
</g>
<!-- nx_28302c203329&#45;&gt;nx_28332c203029 -->
<g id="edge13" class="edge">
<title>nx_28302c203329&#45;&gt;nx_28332c203029</title>
<path fill="none" stroke="#77aaaa" d="M521.3,-1015.19C534.62,-1021.96 550.3,-1030.31 564,-1038.62 576.56,-1046.23 589.9,-1055.26 601.53,-1063.47"/>
<polygon fill="#77aaaa" stroke="#77aaaa" points="599.43,-1066.27 609.61,-1069.24 603.5,-1060.58 599.43,-1066.27"/>
<text xml:space="preserve" text-anchor="middle" x="596.28" y="-1040.57" font-family="Times,serif" font-size="9.00" fill="#77aaaa"> 5L→3L </text>
</g>
<!-- nx_28332c203329 -->
<g id="node14" class="node">
<title>nx_28332c203329</title>
<path fill="#eeeeaa" stroke="black" stroke-width="0.5" d="M520,-910.48C520,-910.48 563.84,-910.48 563.84,-910.48 563.84,-911.17 563.77,-911.87 563.63,-912.56 563.49,-913.25 563.28,-913.93 563,-914.62 562.72,-915.3 562.37,-915.97 561.95,-916.64 561.54,-917.3 561.05,-917.95 560.5,-918.6 559.95,-919.24 559.34,-919.86 558.66,-920.48 557.99,-921.09 557.25,-921.69 556.45,-922.26 555.65,-922.84 554.8,-923.4 553.89,-923.93 552.98,-924.47 552.01,-924.99 551,-925.48 549.99,-925.97 548.92,-926.43 547.81,-926.88 546.7,-927.32 545.55,-927.73 544.36,-928.12 543.16,-928.5 541.93,-928.86 540.67,-929.19 539.4,-929.51 538.1,-929.81 536.78,-930.08 535.45,-930.34 534.1,-930.58 532.73,-930.78 531.35,-930.98 529.96,-931.15 528.55,-931.28 527.15,-931.42 525.73,-931.52 524.3,-931.59 522.87,-931.66 521.43,-931.69 520,-931.69 520,-931.69 520,-910.48 520,-910.48"/>
<path fill="#cceecc" stroke="black" stroke-width="0.5" d="M520,-910.48C520,-910.48 520,-931.69 520,-931.69 518.57,-931.69 517.13,-931.66 515.7,-931.59 514.27,-931.52 512.85,-931.42 511.45,-931.28 510.04,-931.15 508.65,-930.98 507.27,-930.78 505.9,-930.58 504.55,-930.34 503.22,-930.08 501.9,-929.81 500.6,-929.51 499.33,-929.19 498.07,-928.86 496.84,-928.5 495.64,-928.12 494.45,-927.73 493.3,-927.32 492.19,-926.88 491.08,-926.43 490.01,-925.97 489,-925.48 487.99,-924.99 487.02,-924.47 486.11,-923.93 485.2,-923.4 484.35,-922.84 483.55,-922.26 482.75,-921.69 482.01,-921.09 481.34,-920.48 480.66,-919.86 480.05,-919.24 479.5,-918.6 478.95,-917.95 478.46,-917.3 478.05,-916.64 477.63,-915.97 477.28,-915.3 477,-914.62 476.72,-913.93 476.51,-913.25 476.37,-912.56 476.23,-911.87 476.16,-911.17 476.16,-910.48 476.16,-910.48 520,-910.48 520,-910.48"/>
<path fill="#eeccee" stroke="black" stroke-width="0.5" d="M520,-910.48C520,-910.48 476.16,-910.48 476.16,-910.48 476.16,-909.78 476.23,-909.09 476.37,-908.4 476.51,-907.71 476.72,-907.02 477,-906.34 477.28,-905.66 477.63,-904.98 478.05,-904.32 478.46,-903.65 478.95,-903 479.5,-902.36 480.05,-901.72 480.66,-901.09 481.34,-900.48 482.01,-899.87 482.75,-899.27 483.55,-898.69 484.35,-898.11 485.2,-897.56 486.11,-897.02 487.02,-896.48 487.99,-895.97 489,-895.48 490.01,-894.99 491.08,-894.52 492.19,-894.08 493.3,-893.64 494.45,-893.22 495.64,-892.84 496.84,-892.45 498.07,-892.1 499.33,-891.77 500.6,-891.44 501.9,-891.14 503.22,-890.88 504.55,-890.61 505.9,-890.38 507.27,-890.18 508.65,-889.98 510.04,-889.81 511.45,-889.67 512.85,-889.54 514.27,-889.43 515.7,-889.37 517.13,-889.3 518.57,-889.26 520,-889.26 520,-889.26 520,-910.48 520,-910.48"/>
<path fill="#ffddcc" stroke="black" stroke-width="0.5" d="M520,-910.48C520,-910.48 520,-889.26 520,-889.26 521.43,-889.26 522.87,-889.3 524.3,-889.37 525.73,-889.43 527.15,-889.54 528.55,-889.67 529.96,-889.81 531.35,-889.98 532.73,-890.18 534.1,-890.38 535.45,-890.61 536.78,-890.88 538.1,-891.14 539.4,-891.44 540.67,-891.77 541.93,-892.1 543.16,-892.45 544.36,-892.84 545.55,-893.22 546.7,-893.64 547.81,-894.08 548.92,-894.52 549.99,-894.99 551,-895.48 552.01,-895.97 552.98,-896.48 553.89,-897.02 554.8,-897.56 555.65,-898.11 556.45,-898.69 557.25,-899.27 557.99,-899.87 558.66,-900.48 559.34,-901.09 559.95,-901.72 560.5,-902.36 561.05,-903 561.54,-903.65 561.95,-904.32 562.37,-904.98 562.72,-905.66 563,-906.34 563.28,-907.02 563.49,-907.71 563.63,-908.4 563.77,-909.09 563.84,-909.78 563.84,-910.48 563.84,-910.48 520,-910.48 520,-910.48"/>
<ellipse fill="none" stroke="black" cx="520" cy="-910.48" rx="43.84" ry="21.21"/>
<text xml:space="preserve" text-anchor="start" x="506.38" y="-906.73" font-family="Times,serif" font-size="11.00">3</text>
<text xml:space="preserve" text-anchor="start" x="528.38" y="-906.73" font-family="Times,serif" font-size="11.00">3</text>
</g>
<!-- nx_28302c203329&#45;&gt;nx_28332c203329 -->
<g id="edge14" class="edge">
<title>nx_28302c203329&#45;&gt;nx_28332c203329</title>
<path fill="none" stroke="#6688bb" d="M474.62,-979.24C468.91,-970.18 465,-959.28 469.75,-949.69 472.71,-943.71 477.11,-938.42 482.08,-933.82"/>
<polygon fill="#6688bb" stroke="#6688bb" points="484.1,-936.69 489.68,-927.69 479.7,-931.25 484.1,-936.69"/>
<text xml:space="preserve" text-anchor="middle" x="482.88" y="-951.64" font-family="Times,serif" font-size="9.00" fill="#6688bb"> fill 3L </text>
</g>
<!-- nx_28302c203429 -->
<g id="node5" class="node">
<title>nx_28302c203429</title>
<path fill="#329595" stroke="black" stroke-width="0.5" d="M669,-465.85C669,-465.85 712.84,-465.85 712.84,-465.85 712.84,-466.54 712.77,-467.23 712.63,-467.92 712.49,-468.62 712.28,-469.3 712,-469.98 711.72,-470.66 711.37,-471.34 710.95,-472 710.54,-472.67 710.05,-473.32 709.5,-473.96 708.95,-474.6 708.34,-475.23 707.66,-475.85 706.99,-476.46 706.25,-477.05 705.45,-477.63 704.65,-478.21 703.8,-478.77 702.89,-479.3 701.98,-479.84 701.01,-480.35 700,-480.85 698.99,-481.34 697.92,-481.8 696.81,-482.24 695.7,-482.68 694.55,-483.1 693.36,-483.48 692.16,-483.87 690.93,-484.23 689.67,-484.55 688.4,-484.88 687.1,-485.18 685.78,-485.44 684.45,-485.71 683.1,-485.94 681.73,-486.15 680.35,-486.35 678.96,-486.52 677.55,-486.65 676.15,-486.79 674.73,-486.89 673.3,-486.96 671.87,-487.02 670.43,-487.06 669,-487.06 669,-487.06 669,-465.85 669,-465.85"/>
<path fill="#953295" stroke="black" stroke-width="0.5" d="M669,-465.85C669,-465.85 669,-487.06 669,-487.06 667.57,-487.06 666.13,-487.02 664.7,-486.96 663.27,-486.89 661.85,-486.79 660.45,-486.65 659.04,-486.52 657.65,-486.35 656.27,-486.15 654.9,-485.94 653.55,-485.71 652.22,-485.44 650.9,-485.18 649.6,-484.88 648.33,-484.55 647.07,-484.23 645.84,-483.87 644.64,-483.48 643.45,-483.1 642.3,-482.68 641.19,-482.24 640.08,-481.8 639.01,-481.34 638,-480.85 636.99,-480.35 636.02,-479.84 635.11,-479.3 634.2,-478.77 633.35,-478.21 632.55,-477.63 631.75,-477.05 631.01,-476.46 630.34,-475.85 629.66,-475.23 629.05,-474.6 628.5,-473.96 627.95,-473.32 627.46,-472.67 627.05,-472 626.63,-471.34 626.28,-470.66 626,-469.98 625.72,-469.3 625.51,-468.62 625.37,-467.92 625.23,-467.23 625.16,-466.54 625.16,-465.85 625.16,-465.85 669,-465.85 669,-465.85"/>
<path fill="#0045cf" stroke="black" stroke-width="0.5" d="M669,-465.85C669,-465.85 625.16,-465.85 625.16,-465.85 625.16,-465.15 625.23,-464.46 625.37,-463.77 625.51,-463.07 625.72,-462.39 626,-461.71 626.28,-461.03 626.63,-460.35 627.05,-459.69 627.46,-459.02 627.95,-458.37 628.5,-457.73 629.05,-457.09 629.66,-456.46 630.34,-455.85 631.01,-455.23 631.75,-454.64 632.55,-454.06 633.35,-453.48 634.2,-452.92 635.11,-452.39 636.02,-451.85 636.99,-451.34 638,-450.85 639.01,-450.35 640.08,-449.89 641.19,-449.45 642.3,-449.01 643.45,-448.59 644.64,-448.21 645.84,-447.82 647.07,-447.46 648.33,-447.14 649.6,-446.81 650.9,-446.51 652.22,-446.25 653.55,-445.98 654.9,-445.75 656.27,-445.55 657.65,-445.34 659.04,-445.18 660.45,-445.04 661.85,-444.9 663.27,-444.8 664.7,-444.73 666.13,-444.67 667.57,-444.63 669,-444.63 669,-444.63 669,-465.85 669,-465.85"/>
<path fill="#cf4500" stroke="black" stroke-width="0.5" d="M669,-465.85C669,-465.85 669,-444.63 669,-444.63 670.43,-444.63 671.87,-444.67 673.3,-444.73 674.73,-444.8 676.15,-444.9 677.55,-445.04 678.96,-445.18 680.35,-445.34 681.73,-445.55 683.1,-445.75 684.45,-445.98 685.78,-446.25 687.1,-446.51 688.4,-446.81 689.67,-447.14 690.93,-447.46 692.16,-447.82 693.36,-448.21 694.55,-448.59 695.7,-449.01 696.81,-449.45 697.92,-449.89 698.99,-450.35 700,-450.85 701.01,-451.34 701.98,-451.85 702.89,-452.39 703.8,-452.92 704.65,-453.48 705.45,-454.06 706.25,-454.64 706.99,-455.23 707.66,-455.85 708.34,-456.46 708.95,-457.09 709.5,-457.73 710.05,-458.37 710.54,-459.02 710.95,-459.69 711.37,-460.35 711.72,-461.03 712,-461.71 712.28,-462.39 712.49,-463.07 712.63,-463.77 712.77,-464.46 712.84,-465.15 712.84,-465.85 712.84,-465.85 669,-465.85 669,-465.85"/>
<ellipse fill="none" stroke="black" cx="669" cy="-465.85" rx="43.84" ry="21.21"/>
<text xml:space="preserve" text-anchor="start" x="655.38" y="-462.1" font-family="Times,serif" font-size="11.00" fill="white">0</text>
<text xml:space="preserve" text-anchor="start" x="677.38" y="-463.15" font-family="Times,serif" font-weight="bold" font-size="11.00" fill="white">4</text>
</g>
<!-- nx_28302c203429&#45;&gt;nx_28302c203029 -->
<g id="edge15" class="edge">
<title>nx_28302c203429&#45;&gt;nx_28302c203029</title>
<path fill="none" stroke="#aa77aa" d="M624.94,-466.1C511.45,-465.37 218,-471.44 218,-553.77 218,-733.62 218,-733.62 218,-733.62 218,-832.17 193,-855.39 193,-953.94 193,-1267.18 193,-1267.18 193,-1267.18 193,-1308.11 237.67,-1330.79 275.23,-1342.63"/>
<polygon fill="#aa77aa" stroke="#aa77aa" points="274.06,-1345.94 284.64,-1345.4 276.04,-1339.22 274.06,-1345.94"/>
<text xml:space="preserve" text-anchor="middle" x="216.16" y="-907.18" font-family="Times,serif" font-size="9.00" fill="#aa77aa"> empty 5L </text>
</g>
<!-- nx_28302c203429&#45;&gt;nx_28302c203529 -->
<g id="edge16" class="edge">
<title>nx_28302c203429&#45;&gt;nx_28302c203529</title>
<path fill="none" stroke="#ddbb99" d="M624.73,-466.97C518.72,-468.45 259,-479.64 259,-553.77 259,-867.01 259,-867.01 259,-867.01 259,-946.16 231,-963.73 231,-1042.87 231,-1178.26 231,-1178.26 231,-1178.26 231,-1211.64 262.83,-1234.54 291.6,-1248.42"/>
<polygon fill="#ddbb99" stroke="#ddbb99" points="290.07,-1251.57 300.62,-1252.5 292.95,-1245.19 290.07,-1251.57"/>
<text xml:space="preserve" text-anchor="middle" x="272.12" y="-862.71" font-family="Times,serif" font-size="9.00" fill="#ddbb99"> fill 5L </text>
</g>
<!-- nx_28302c203429&#45;&gt;nx_28332c203129 -->
<g id="edge17" class="edge">
<title>nx_28302c203429&#45;&gt;nx_28332c203129</title>
<path fill="none" stroke="#77aaaa" d="M673.68,-487.2C676.1,-497.69 679.09,-510.71 681.79,-522.44"/>
<polygon fill="#77aaaa" stroke="#77aaaa" points="678.37,-523.17 684.02,-532.14 685.19,-521.61 678.37,-523.17"/>
<text xml:space="preserve" text-anchor="middle" x="696.7" y="-507.01" font-family="Times,serif" font-size="9.00" fill="#77aaaa"> 5L→3L </text>
</g>
<!-- nx_28332c203429 -->
<g id="node15" class="node">
<title>nx_28332c203429</title>
<path fill="#99991f" stroke="black" stroke-width="0.5" d="M788,-376.92C788,-376.92 831.84,-376.92 831.84,-376.92 831.84,-377.61 831.77,-378.31 831.63,-379 831.49,-379.69 831.28,-380.38 831,-381.06 830.72,-381.74 830.37,-382.41 829.95,-383.08 829.54,-383.74 829.05,-384.4 828.5,-385.04 827.95,-385.68 827.34,-386.31 826.66,-386.92 825.99,-387.53 825.25,-388.13 824.45,-388.7 823.65,-389.28 822.8,-389.84 821.89,-390.38 820.98,-390.91 820.01,-391.43 819,-391.92 817.99,-392.41 816.92,-392.88 815.81,-393.32 814.7,-393.76 813.55,-394.17 812.36,-394.56 811.16,-394.94 809.93,-395.3 808.67,-395.63 807.4,-395.95 806.1,-396.25 804.78,-396.52 803.45,-396.78 802.1,-397.02 800.73,-397.22 799.35,-397.42 797.96,-397.59 796.55,-397.72 795.15,-397.86 793.73,-397.96 792.3,-398.03 790.87,-398.1 789.43,-398.13 788,-398.13 788,-398.13 788,-376.92 788,-376.92"/>
<path fill="#329532" stroke="black" stroke-width="0.5" d="M788,-376.92C788,-376.92 788,-398.13 788,-398.13 786.57,-398.13 785.13,-398.1 783.7,-398.03 782.27,-397.96 780.85,-397.86 779.45,-397.72 778.04,-397.59 776.65,-397.42 775.27,-397.22 773.9,-397.02 772.55,-396.78 771.22,-396.52 769.9,-396.25 768.6,-395.95 767.33,-395.63 766.07,-395.3 764.84,-394.94 763.64,-394.56 762.45,-394.17 761.3,-393.76 760.19,-393.32 759.08,-392.88 758.01,-392.41 757,-391.92 755.99,-391.43 755.02,-390.91 754.11,-390.38 753.2,-389.84 752.35,-389.28 751.55,-388.7 750.75,-388.13 750.01,-387.53 749.34,-386.92 748.66,-386.31 748.05,-385.68 747.5,-385.04 746.95,-384.4 746.46,-383.74 746.05,-383.08 745.63,-382.41 745.28,-381.74 745,-381.06 744.72,-380.38 744.51,-379.69 744.37,-379 744.23,-378.31 744.16,-377.61 744.16,-376.92 744.16,-376.92 788,-376.92 788,-376.92"/>
<path fill="#953295" stroke="black" stroke-width="0.5" d="M788,-376.92C788,-376.92 744.16,-376.92 744.16,-376.92 744.16,-376.22 744.23,-375.53 744.37,-374.84 744.51,-374.15 744.72,-373.46 745,-372.78 745.28,-372.1 745.63,-371.43 746.05,-370.76 746.46,-370.1 746.95,-369.44 747.5,-368.8 748.05,-368.16 748.66,-367.53 749.34,-366.92 750.01,-366.31 750.75,-365.71 751.55,-365.13 752.35,-364.56 753.2,-364 754.11,-363.46 755.02,-362.92 755.99,-362.41 757,-361.92 758.01,-361.43 759.08,-360.96 760.19,-360.52 761.3,-360.08 762.45,-359.67 763.64,-359.28 764.84,-358.89 766.07,-358.54 767.33,-358.21 768.6,-357.88 769.9,-357.59 771.22,-357.32 772.55,-357.05 773.9,-356.82 775.27,-356.62 776.65,-356.42 778.04,-356.25 779.45,-356.11 780.85,-355.98 782.27,-355.88 783.7,-355.81 785.13,-355.74 786.57,-355.71 788,-355.71 788,-355.71 788,-376.92 788,-376.92"/>
<path fill="#cf4500" stroke="black" stroke-width="0.5" d="M788,-376.92C788,-376.92 788,-355.71 788,-355.71 789.43,-355.71 790.87,-355.74 792.3,-355.81 793.73,-355.88 795.15,-355.98 796.55,-356.11 797.96,-356.25 799.35,-356.42 800.73,-356.62 802.1,-356.82 803.45,-357.05 804.78,-357.32 806.1,-357.59 807.4,-357.88 808.67,-358.21 809.93,-358.54 811.16,-358.89 812.36,-359.28 813.55,-359.67 814.7,-360.08 815.81,-360.52 816.92,-360.96 817.99,-361.43 819,-361.92 820.01,-362.41 820.98,-362.92 821.89,-363.46 822.8,-364 823.65,-364.56 824.45,-365.13 825.25,-365.71 825.99,-366.31 826.66,-366.92 827.34,-367.53 827.95,-368.16 828.5,-368.8 829.05,-369.44 829.54,-370.1 829.95,-370.76 830.37,-371.43 830.72,-372.1 831,-372.78 831.28,-373.46 831.49,-374.15 831.63,-374.84 831.77,-375.53 831.84,-376.22 831.84,-376.92 831.84,-376.92 788,-376.92 788,-376.92"/>
<ellipse fill="none" stroke="black" cx="788" cy="-376.92" rx="43.84" ry="21.21"/>
<text xml:space="preserve" text-anchor="start" x="774.38" y="-373.17" font-family="Times,serif" font-size="11.00" fill="white">3</text>
<text xml:space="preserve" text-anchor="start" x="796.38" y="-374.22" font-family="Times,serif" font-weight="bold" font-size="11.00" fill="white">4</text>
</g>
<!-- nx_28302c203429&#45;&gt;nx_28332c203429 -->
<g id="edge18" class="edge">
<title>nx_28302c203429&#45;&gt;nx_28332c203429</title>
<path fill="none" stroke="#6688bb" d="M680.72,-444.97C687.17,-435.33 695.86,-424.12 705.75,-416.13 716.56,-407.39 729.7,-400.14 742.27,-394.38"/>
<polygon fill="#6688bb" stroke="#6688bb" points="743.45,-397.68 751.24,-390.5 740.68,-391.26 743.45,-397.68"/>
<text xml:space="preserve" text-anchor="middle" x="718.88" y="-418.08" font-family="Times,serif" font-size="9.00" fill="#6688bb"> fill 3L </text>
</g>
<!-- nx_28302c203529&#45;&gt;nx_28302c203029 -->
<g id="edge19" class="edge">
<title>nx_28302c203529&#45;&gt;nx_28302c203029</title>
<path fill="none" stroke="#aa77aa" d="M334.41,-1287.64C333.1,-1298 331.48,-1310.83 330.01,-1322.44"/>
<polygon fill="#aa77aa" stroke="#aa77aa" points="326.58,-1321.65 328.8,-1332.01 333.52,-1322.53 326.58,-1321.65"/>
<text xml:space="preserve" text-anchor="middle" x="351.28" y="-1307.35" font-family="Times,serif" font-size="9.00" fill="#aa77aa"> empty 5L </text>
</g>
<!-- nx_28302c203529&#45;&gt;nx_28332c203229 -->
<g id="edge20" class="edge">
<title>nx_28302c203529&#45;&gt;nx_28332c203229</title>
<path fill="none" stroke="#77aaaa" d="M381.18,-1264.38C535.18,-1261 1039,-1244.84 1039,-1178.26 1039,-1178.26 1039,-1178.26 1039,-109.14 1039,-89.07 1046.96,-68.07 1055.18,-51.74"/>
<polygon fill="#77aaaa" stroke="#77aaaa" points="1058.18,-53.54 1059.82,-43.07 1052.01,-50.24 1058.18,-53.54"/>
<text xml:space="preserve" text-anchor="middle" x="1055.5" y="-640.4" font-family="Times,serif" font-size="9.00" fill="#77aaaa"> 5L→3L </text>
</g>
<!-- nx_28332c203529 -->
<g id="node16" class="node">
<title>nx_28332c203529</title>
<path fill="#cceecc" stroke="black" stroke-width="0.5" d="M739,-1177.26C739,-1177.26 782.84,-1177.26 782.84,-1177.26 782.84,-1177.95 782.77,-1178.64 782.63,-1179.34 782.49,-1180.03 782.28,-1180.71 782,-1181.39 781.72,-1182.08 781.37,-1182.75 780.95,-1183.41 780.54,-1184.08 780.05,-1184.73 779.5,-1185.37 778.95,-1186.02 778.34,-1186.64 777.66,-1187.26 776.99,-1187.87 776.25,-1188.46 775.45,-1189.04 774.65,-1189.62 773.8,-1190.18 772.89,-1190.71 771.98,-1191.25 771.01,-1191.77 770,-1192.26 768.99,-1192.75 767.92,-1193.21 766.81,-1193.65 765.7,-1194.1 764.55,-1194.51 763.36,-1194.89 762.16,-1195.28 760.93,-1195.64 759.67,-1195.96 758.4,-1196.29 757.1,-1196.59 755.78,-1196.85 754.45,-1197.12 753.1,-1197.35 751.73,-1197.56 750.35,-1197.76 748.96,-1197.93 747.55,-1198.06 746.15,-1198.2 744.73,-1198.3 743.3,-1198.37 741.87,-1198.44 740.43,-1198.47 739,-1198.47 737.57,-1198.47 736.13,-1198.44 734.7,-1198.37 733.27,-1198.3 731.85,-1198.2 730.45,-1198.06 729.04,-1197.93 727.65,-1197.76 726.27,-1197.56 724.9,-1197.35 723.55,-1197.12 722.22,-1196.85 720.9,-1196.59 719.6,-1196.29 718.33,-1195.96 717.07,-1195.64 715.84,-1195.28 714.64,-1194.89 713.45,-1194.51 712.3,-1194.1 711.19,-1193.65 710.08,-1193.21 709.01,-1192.75 708,-1192.26 706.99,-1191.77 706.02,-1191.25 705.11,-1190.71 704.2,-1190.18 703.35,-1189.62 702.55,-1189.04 701.75,-1188.46 701.01,-1187.87 700.34,-1187.26 699.66,-1186.64 699.05,-1186.02 698.5,-1185.37 697.95,-1184.73 697.46,-1184.08 697.05,-1183.41 696.63,-1182.75 696.28,-1182.08 696,-1181.39 695.72,-1180.71 695.51,-1180.03 695.37,-1179.34 695.23,-1178.64 695.16,-1177.95 695.16,-1177.26 695.16,-1177.26 739,-1177.26 739,-1177.26"/>
<path fill="#eeccee" stroke="black" stroke-width="0.5" d="M739,-1177.26C739,-1177.26 695.16,-1177.26 695.16,-1177.26 695.16,-1176.56 695.23,-1175.87 695.37,-1175.18 695.51,-1174.49 695.72,-1173.8 696,-1173.12 696.28,-1172.44 696.63,-1171.76 697.05,-1171.1 697.46,-1170.43 697.95,-1169.78 698.5,-1169.14 699.05,-1168.5 699.66,-1167.87 700.34,-1167.26 701.01,-1166.64 701.75,-1166.05 702.55,-1165.47 703.35,-1164.89 704.2,-1164.34 705.11,-1163.8 706.02,-1163.26 706.99,-1162.75 708,-1162.26 709.01,-1161.77 710.08,-1161.3 711.19,-1160.86 712.3,-1160.42 713.45,-1160 714.64,-1159.62 715.84,-1159.23 717.07,-1158.88 718.33,-1158.55 719.6,-1158.22 720.9,-1157.92 722.22,-1157.66 723.55,-1157.39 724.9,-1157.16 726.27,-1156.96 727.65,-1156.76 729.04,-1156.59 730.45,-1156.45 731.85,-1156.32 733.27,-1156.21 734.7,-1156.15 736.13,-1156.08 737.57,-1156.04 739,-1156.04 740.43,-1156.04 741.87,-1156.08 743.3,-1156.15 744.73,-1156.21 746.15,-1156.32 747.55,-1156.45 748.96,-1156.59 750.35,-1156.76 751.73,-1156.96 753.1,-1157.16 754.45,-1157.39 755.78,-1157.66 757.1,-1157.92 758.4,-1158.22 759.67,-1158.55 760.93,-1158.88 762.16,-1159.23 763.36,-1159.62 764.55,-1160 765.7,-1160.42 766.81,-1160.86 767.92,-1161.3 768.99,-1161.77 770,-1162.26 771.01,-1162.75 771.98,-1163.26 772.89,-1163.8 773.8,-1164.34 774.65,-1164.89 775.45,-1165.47 776.25,-1166.05 776.99,-1166.64 777.66,-1167.26 778.34,-1167.87 778.95,-1168.5 779.5,-1169.14 780.05,-1169.78 780.54,-1170.43 780.95,-1171.1 781.37,-1171.76 781.72,-1172.44 782,-1173.12 782.28,-1173.8 782.49,-1174.49 782.63,-1175.18 782.77,-1175.87 782.84,-1176.56 782.84,-1177.26 782.84,-1177.26 739,-1177.26 739,-1177.26"/>
<ellipse fill="none" stroke="black" cx="739" cy="-1177.26" rx="43.84" ry="21.21"/>
<text xml:space="preserve" text-anchor="start" x="725.38" y="-1173.51" font-family="Times,serif" font-size="11.00">3</text>
<text xml:space="preserve" text-anchor="start" x="747.38" y="-1173.51" font-family="Times,serif" font-size="11.00">5</text>
</g>
<!-- nx_28302c203529&#45;&gt;nx_28332c203529 -->
<g id="edge21" class="edge">
<title>nx_28302c203529&#45;&gt;nx_28332c203529</title>
<path fill="none" stroke="#6688bb" d="M380.86,-1263.95C440.1,-1261.31 548.48,-1253.01 637,-1226.97 659.4,-1220.38 683.01,-1209.4 701.86,-1199.52"/>
<polygon fill="#6688bb" stroke="#6688bb" points="703.32,-1202.71 710.48,-1194.9 700.01,-1196.54 703.32,-1202.71"/>
<text xml:space="preserve" text-anchor="middle" x="676.35" y="-1218.42" font-family="Times,serif" font-size="9.00" fill="#6688bb"> fill 3L </text>
</g>
<!-- nx_28312c203029&#45;&gt;nx_28302c203029 -->
<g id="edge22" class="edge">
<title>nx_28312c203029&#45;&gt;nx_28302c203029</title>
<path fill="none" stroke="#77aa77" d="M412.03,-752.3C398.05,-768.85 381,-794.39 381,-820.55 381,-955.94 381,-955.94 381,-955.94 381,-993.39 368.38,-1001.34 364.75,-1038.62 353.98,-1149.23 418.12,-1179.88 390,-1287.4 385.55,-1304.43 373.16,-1319.11 360.46,-1330.33"/>
<polygon fill="#77aa77" stroke="#77aa77" points="358.37,-1327.52 352.87,-1336.57 362.82,-1332.92 358.37,-1327.52"/>
<text xml:space="preserve" text-anchor="middle" x="383.88" y="-1040.57" font-family="Times,serif" font-size="9.00" fill="#77aa77"> empty 3L </text>
</g>
<!-- nx_28312c203029&#45;&gt;nx_28302c203129 -->
<g id="edge23" class="edge">
<title>nx_28312c203029&#45;&gt;nx_28302c203129</title>
<path fill="none" stroke="#aaaa66" d="M398.49,-717.58C388.86,-711.6 379.39,-703.61 374,-693.41 371.24,-688.19 370.35,-682.21 370.51,-676.28"/>
<polygon fill="#aaaa66" stroke="#aaaa66" points="373.95,-676.98 371.72,-666.63 367,-676.11 373.95,-676.98"/>
<text xml:space="preserve" text-anchor="middle" x="390.5" y="-684.86" font-family="Times,serif" font-size="9.00" fill="#aaaa66"> 3L→5L </text>
</g>
<!-- nx_28312c203529 -->
<g id="node8" class="node">
<title>nx_28312c203529</title>
<path fill="#cceeee" stroke="black" stroke-width="0.5" d="M481,-821.55C481,-821.55 524.84,-821.55 524.84,-821.55 524.84,-822.25 524.77,-822.94 524.63,-823.63 524.49,-824.32 524.28,-825.01 524,-825.69 523.72,-826.37 523.37,-827.04 522.95,-827.71 522.54,-828.37 522.05,-829.03 521.5,-829.67 520.95,-830.31 520.34,-830.94 519.66,-831.55 518.99,-832.16 518.25,-832.76 517.45,-833.34 516.65,-833.91 515.8,-834.47 514.89,-835.01 513.98,-835.55 513.01,-836.06 512,-836.55 510.99,-837.04 509.92,-837.51 508.81,-837.95 507.7,-838.39 506.55,-838.8 505.36,-839.19 504.16,-839.57 502.93,-839.93 501.67,-840.26 500.4,-840.59 499.1,-840.88 497.78,-841.15 496.45,-841.42 495.1,-841.65 493.73,-841.85 492.35,-842.05 490.96,-842.22 489.55,-842.36 488.15,-842.49 486.73,-842.59 485.3,-842.66 483.87,-842.73 482.43,-842.76 481,-842.76 481,-842.76 481,-821.55 481,-821.55"/>
<path fill="#cceecc" stroke="black" stroke-width="0.5" d="M481,-821.55C481,-821.55 481,-842.76 481,-842.76 479.57,-842.76 478.13,-842.73 476.7,-842.66 475.27,-842.59 473.85,-842.49 472.45,-842.36 471.04,-842.22 469.65,-842.05 468.27,-841.85 466.9,-841.65 465.55,-841.42 464.22,-841.15 462.9,-840.88 461.6,-840.59 460.33,-840.26 459.07,-839.93 457.84,-839.57 456.64,-839.19 455.45,-838.8 454.3,-838.39 453.19,-837.95 452.08,-837.51 451.01,-837.04 450,-836.55 448.99,-836.06 448.02,-835.55 447.11,-835.01 446.2,-834.47 445.35,-833.91 444.55,-833.34 443.75,-832.76 443.01,-832.16 442.34,-831.55 441.66,-830.94 441.05,-830.31 440.5,-829.67 439.95,-829.03 439.46,-828.37 439.05,-827.71 438.63,-827.04 438.28,-826.37 438,-825.69 437.72,-825.01 437.51,-824.32 437.37,-823.63 437.23,-822.94 437.16,-822.25 437.16,-821.55 437.16,-821.55 481,-821.55 481,-821.55"/>
<path fill="#eeccee" stroke="black" stroke-width="0.5" d="M481,-821.55C481,-821.55 437.16,-821.55 437.16,-821.55 437.16,-820.86 437.23,-820.16 437.37,-819.47 437.51,-818.78 437.72,-818.09 438,-817.41 438.28,-816.73 438.63,-816.06 439.05,-815.39 439.46,-814.73 439.95,-814.07 440.5,-813.43 441.05,-812.79 441.66,-812.16 442.34,-811.55 443.01,-810.94 443.75,-810.34 444.55,-809.77 445.35,-809.19 446.2,-808.63 447.11,-808.09 448.02,-807.56 448.99,-807.04 450,-806.55 451.01,-806.06 452.08,-805.59 453.19,-805.15 454.3,-804.71 455.45,-804.3 456.64,-803.91 457.84,-803.53 459.07,-803.17 460.33,-802.84 461.6,-802.52 462.9,-802.22 464.22,-801.95 465.55,-801.69 466.9,-801.45 468.27,-801.25 469.65,-801.05 471.04,-800.88 472.45,-800.75 473.85,-800.61 475.27,-800.51 476.7,-800.44 478.13,-800.37 479.57,-800.34 481,-800.34 481,-800.34 481,-821.55 481,-821.55"/>
<path fill="#ccddff" stroke="black" stroke-width="0.5" d="M481,-821.55C481,-821.55 481,-800.34 481,-800.34 482.43,-800.34 483.87,-800.37 485.3,-800.44 486.73,-800.51 488.15,-800.61 489.55,-800.75 490.96,-800.88 492.35,-801.05 493.73,-801.25 495.1,-801.45 496.45,-801.69 497.78,-801.95 499.1,-802.22 500.4,-802.52 501.67,-802.84 502.93,-803.17 504.16,-803.53 505.36,-803.91 506.55,-804.3 507.7,-804.71 508.81,-805.15 509.92,-805.59 510.99,-806.06 512,-806.55 513.01,-807.04 513.98,-807.56 514.89,-808.09 515.8,-808.63 516.65,-809.19 517.45,-809.77 518.25,-810.34 518.99,-810.94 519.66,-811.55 520.34,-812.16 520.95,-812.79 521.5,-813.43 522.05,-814.07 522.54,-814.73 522.95,-815.39 523.37,-816.06 523.72,-816.73 524,-817.41 524.28,-818.09 524.49,-818.78 524.63,-819.47 524.77,-820.16 524.84,-820.86 524.84,-821.55 524.84,-821.55 481,-821.55 481,-821.55"/>
<ellipse fill="none" stroke="black" cx="481" cy="-821.55" rx="43.84" ry="21.21"/>
<text xml:space="preserve" text-anchor="start" x="467.38" y="-817.8" font-family="Times,serif" font-size="11.00">1</text>
<text xml:space="preserve" text-anchor="start" x="489.38" y="-817.8" font-family="Times,serif" font-size="11.00">5</text>
</g>
<!-- nx_28312c203029&#45;&gt;nx_28312c203529 -->
<g id="edge24" class="edge">
<title>nx_28312c203029&#45;&gt;nx_28312c203529</title>
<path fill="none" stroke="#ddbb99" d="M450.2,-751.66C455.95,-757.62 461.78,-764.59 466,-771.84 469.17,-777.29 471.74,-783.48 473.79,-789.57"/>
<polygon fill="#ddbb99" stroke="#ddbb99" points="470.34,-790.21 476.53,-798.81 477.05,-788.23 470.34,-790.21"/>
<text xml:space="preserve" text-anchor="middle" x="484.01" y="-773.79" font-family="Times,serif" font-size="9.00" fill="#ddbb99"> fill 5L </text>
</g>
<!-- nx_28312c203029&#45;&gt;nx_28332c203029 -->
<g id="edge25" class="edge">
<title>nx_28312c203029&#45;&gt;nx_28332c203029</title>
<path fill="none" stroke="#6688bb" d="M469.87,-741.61C527.63,-755.36 633.71,-789.23 689,-860.76 732.94,-917.61 727.22,-950.2 713,-1020.62 710.28,-1034.09 710.12,-1038.83 701,-1049.12 694.29,-1056.69 685.7,-1063.12 676.93,-1068.42"/>
<polygon fill="#6688bb" stroke="#6688bb" points="675.39,-1065.27 668.36,-1073.2 678.8,-1071.39 675.39,-1065.27"/>
<text xml:space="preserve" text-anchor="middle" x="735.45" y="-907.18" font-family="Times,serif" font-size="9.00" fill="#6688bb"> fill 3L </text>
</g>
<!-- nx_28312c203529&#45;&gt;nx_28302c203529 -->
<g id="edge26" class="edge">
<title>nx_28312c203529&#45;&gt;nx_28302c203529</title>
<path fill="none" stroke="#77aa77" d="M474.06,-842.76C472.09,-848.57 469.94,-854.91 468,-860.76 421.83,-999.81 368.49,-1166.4 346.87,-1234.2"/>
<polygon fill="#77aa77" stroke="#77aa77" points="343.6,-1232.92 343.9,-1243.51 350.27,-1235.04 343.6,-1232.92"/>
<text xml:space="preserve" text-anchor="middle" x="428.37" y="-1040.57" font-family="Times,serif" font-size="9.00" fill="#77aa77"> empty 3L </text>
</g>
<!-- nx_28312c203529&#45;&gt;nx_28312c203029 -->
<g id="edge27" class="edge">
<title>nx_28312c203529&#45;&gt;nx_28312c203029</title>
<path fill="none" stroke="#aa77aa" d="M448.81,-806.65C438.96,-800.68 429.27,-792.66 423.75,-782.34 420.91,-777.02 420.11,-770.93 420.45,-764.89"/>
<polygon fill="#aa77aa" stroke="#aa77aa" points="423.9,-765.49 422.01,-755.07 416.98,-764.39 423.9,-765.49"/>
<text xml:space="preserve" text-anchor="middle" x="442.88" y="-773.79" font-family="Times,serif" font-size="9.00" fill="#aa77aa"> empty 5L </text>
</g>
<!-- nx_28312c203529&#45;&gt;nx_28332c203329 -->
<g id="edge28" class="edge">
<title>nx_28312c203529&#45;&gt;nx_28332c203329</title>
<path fill="none" stroke="#77aaaa" d="M499.23,-841.07C504.08,-846.95 508.85,-853.75 512,-860.76 514.4,-866.1 516.08,-872.05 517.27,-877.91"/>
<polygon fill="#77aaaa" stroke="#77aaaa" points="513.75,-878.06 518.75,-887.39 520.67,-876.97 513.75,-878.06"/>
<text xml:space="preserve" text-anchor="middle" x="532.09" y="-862.71" font-family="Times,serif" font-size="9.00" fill="#77aaaa"> 5L→3L </text>
</g>
<!-- nx_28312c203529&#45;&gt;nx_28332c203529 -->
<g id="edge29" class="edge">
<title>nx_28312c203529&#45;&gt;nx_28332c203529</title>
<path fill="none" stroke="#6688bb" d="M513.08,-836.3C526.16,-842.71 541,-851.08 553,-860.76 643.3,-933.66 668.57,-959.91 713,-1067.12 723.43,-1092.28 730.22,-1122.53 734.24,-1144.79"/>
<polygon fill="#6688bb" stroke="#6688bb" points="730.76,-1145.18 735.89,-1154.45 737.66,-1144.01 730.76,-1145.18"/>
<text xml:space="preserve" text-anchor="middle" x="705.35" y="-996.1" font-family="Times,serif" font-size="9.00" fill="#6688bb"> fill 3L </text>
</g>
<!-- nx_28322c203029&#45;&gt;nx_28302c203029 -->
<g id="edge30" class="edge">
<title>nx_28322c203029&#45;&gt;nx_28302c203029</title>
<path fill="none" stroke="#77aa77" d="M737.97,-201.09C588.1,-205.15 107,-223.15 107,-286.99 107,-644.7 107,-644.7 107,-644.7 107,-722.87 104,-742.38 104,-820.55 104,-1267.18 104,-1267.18 104,-1267.18 104,-1303.57 208.72,-1330.98 274.32,-1344.58"/>
<polygon fill="#77aa77" stroke="#77aa77" points="273.3,-1347.94 283.8,-1346.5 274.69,-1341.08 273.3,-1347.94"/>
<text xml:space="preserve" text-anchor="middle" x="123.58" y="-773.79" font-family="Times,serif" font-size="9.00" fill="#77aa77"> empty 3L </text>
</g>
<!-- nx_28322c203029&#45;&gt;nx_28302c203229 -->
<g id="edge31" class="edge">
<title>nx_28322c203029&#45;&gt;nx_28302c203229</title>
<path fill="none" stroke="#aaaa66" d="M763.04,-179.84C758.16,-173.97 753.57,-167.1 751,-159.85 748.39,-152.49 750.24,-145.09 754.08,-138.37"/>
<polygon fill="#aaaa66" stroke="#aaaa66" points="756.9,-140.45 759.95,-130.3 751.24,-136.33 756.9,-140.45"/>
<text xml:space="preserve" text-anchor="middle" x="767.5" y="-151.3" font-family="Times,serif" font-size="9.00" fill="#aaaa66"> 3L→5L </text>
</g>
<!-- nx_28322c203529 -->
<g id="node10" class="node">
<title>nx_28322c203529</title>
<path fill="#cceeee" stroke="black" stroke-width="0.5" d="M781,-287.99C781,-287.99 824.84,-287.99 824.84,-287.99 824.84,-288.69 824.77,-289.38 824.63,-290.07 824.49,-290.76 824.28,-291.45 824,-292.13 823.72,-292.81 823.37,-293.49 822.95,-294.15 822.54,-294.81 822.05,-295.47 821.5,-296.11 820.95,-296.75 820.34,-297.38 819.66,-297.99 818.99,-298.6 818.25,-299.2 817.45,-299.78 816.65,-300.36 815.8,-300.91 814.89,-301.45 813.98,-301.99 813.01,-302.5 812,-302.99 810.99,-303.48 809.92,-303.95 808.81,-304.39 807.7,-304.83 806.55,-305.24 805.36,-305.63 804.16,-306.02 802.93,-306.37 801.67,-306.7 800.4,-307.03 799.1,-307.33 797.78,-307.59 796.45,-307.86 795.1,-308.09 793.73,-308.29 792.35,-308.49 790.96,-308.66 789.55,-308.8 788.15,-308.93 786.73,-309.04 785.3,-309.1 783.87,-309.17 782.43,-309.21 781,-309.21 781,-309.21 781,-287.99 781,-287.99"/>
<path fill="#cceecc" stroke="black" stroke-width="0.5" d="M781,-287.99C781,-287.99 781,-309.21 781,-309.21 779.57,-309.21 778.13,-309.17 776.7,-309.1 775.27,-309.04 773.85,-308.93 772.45,-308.8 771.04,-308.66 769.65,-308.49 768.27,-308.29 766.9,-308.09 765.55,-307.86 764.22,-307.59 762.9,-307.33 761.6,-307.03 760.33,-306.7 759.07,-306.37 757.84,-306.02 756.64,-305.63 755.45,-305.24 754.3,-304.83 753.19,-304.39 752.08,-303.95 751.01,-303.48 750,-302.99 748.99,-302.5 748.02,-301.99 747.11,-301.45 746.2,-300.91 745.35,-300.36 744.55,-299.78 743.75,-299.2 743.01,-298.6 742.34,-297.99 741.66,-297.38 741.05,-296.75 740.5,-296.11 739.95,-295.47 739.46,-294.81 739.05,-294.15 738.63,-293.49 738.28,-292.81 738,-292.13 737.72,-291.45 737.51,-290.76 737.37,-290.07 737.23,-289.38 737.16,-288.69 737.16,-287.99 737.16,-287.99 781,-287.99 781,-287.99"/>
<path fill="#eeccee" stroke="black" stroke-width="0.5" d="M781,-287.99C781,-287.99 737.16,-287.99 737.16,-287.99 737.16,-287.3 737.23,-286.6 737.37,-285.91 737.51,-285.22 737.72,-284.53 738,-283.85 738.28,-283.17 738.63,-282.5 739.05,-281.83 739.46,-281.17 739.95,-280.52 740.5,-279.87 741.05,-279.23 741.66,-278.6 742.34,-277.99 743.01,-277.38 743.75,-276.78 744.55,-276.21 745.35,-275.63 746.2,-275.07 747.11,-274.53 748.02,-274 748.99,-273.48 750,-272.99 751.01,-272.5 752.08,-272.03 753.19,-271.59 754.3,-271.15 755.45,-270.74 756.64,-270.35 757.84,-269.97 759.07,-269.61 760.33,-269.28 761.6,-268.96 762.9,-268.66 764.22,-268.39 765.55,-268.13 766.9,-267.89 768.27,-267.69 769.65,-267.49 771.04,-267.32 772.45,-267.19 773.85,-267.05 775.27,-266.95 776.7,-266.88 778.13,-266.81 779.57,-266.78 781,-266.78 781,-266.78 781,-287.99 781,-287.99"/>
<path fill="#ccddff" stroke="black" stroke-width="0.5" d="M781,-287.99C781,-287.99 781,-266.78 781,-266.78 782.43,-266.78 783.87,-266.81 785.3,-266.88 786.73,-266.95 788.15,-267.05 789.55,-267.19 790.96,-267.32 792.35,-267.49 793.73,-267.69 795.1,-267.89 796.45,-268.13 797.78,-268.39 799.1,-268.66 800.4,-268.96 801.67,-269.28 802.93,-269.61 804.16,-269.97 805.36,-270.35 806.55,-270.74 807.7,-271.15 808.81,-271.59 809.92,-272.03 810.99,-272.5 812,-272.99 813.01,-273.48 813.98,-274 814.89,-274.53 815.8,-275.07 816.65,-275.63 817.45,-276.21 818.25,-276.78 818.99,-277.38 819.66,-277.99 820.34,-278.6 820.95,-279.23 821.5,-279.87 822.05,-280.52 822.54,-281.17 822.95,-281.83 823.37,-282.5 823.72,-283.17 824,-283.85 824.28,-284.53 824.49,-285.22 824.63,-285.91 824.77,-286.6 824.84,-287.3 824.84,-287.99 824.84,-287.99 781,-287.99 781,-287.99"/>
<ellipse fill="none" stroke="black" cx="781" cy="-287.99" rx="43.84" ry="21.21"/>
<text xml:space="preserve" text-anchor="start" x="767.38" y="-284.24" font-family="Times,serif" font-size="11.00">2</text>
<text xml:space="preserve" text-anchor="start" x="789.38" y="-284.24" font-family="Times,serif" font-size="11.00">5</text>
</g>
<!-- nx_28322c203029&#45;&gt;nx_28322c203529 -->
<g id="edge32" class="edge">
<title>nx_28322c203029&#45;&gt;nx_28322c203529</title>
<path fill="none" stroke="#ddbb99" d="M787.9,-220.39C789.76,-229.1 791.09,-239.41 790,-248.78 789.75,-250.96 789.41,-253.2 789.03,-255.45"/>
<polygon fill="#ddbb99" stroke="#ddbb99" points="785.64,-254.54 787.05,-265.04 792.5,-255.95 785.64,-254.54"/>
<text xml:space="preserve" text-anchor="middle" x="803.52" y="-240.23" font-family="Times,serif" font-size="9.00" fill="#ddbb99"> fill 5L </text>
</g>
<!-- nx_28322c203029&#45;&gt;nx_28332c203029 -->
<g id="edge33" class="edge">
<title>nx_28322c203029&#45;&gt;nx_28332c203029</title>
<path fill="none" stroke="#6688bb" d="M825.76,-201.02C883.25,-204.85 977,-221.2 977,-286.99 977,-600.23 977,-600.23 977,-600.23 977,-678.57 989,-697.75 989,-776.09 989,-1000.4 989,-1000.4 989,-1000.4 989,-1061.36 789.02,-1079.78 689.25,-1085.18"/>
<polygon fill="#6688bb" stroke="#6688bb" points="689.21,-1081.68 679.4,-1085.69 689.56,-1088.67 689.21,-1081.68"/>
<text xml:space="preserve" text-anchor="middle" x="993.24" y="-640.4" font-family="Times,serif" font-size="9.00" fill="#6688bb"> fill 3L </text>
</g>
<!-- nx_28322c203529&#45;&gt;nx_28302c203529 -->
<g id="edge34" class="edge">
<title>nx_28322c203529&#45;&gt;nx_28302c203529</title>
<path fill="none" stroke="#77aa77" d="M737.19,-290.56C596.46,-296.16 165,-318.07 165,-375.92 165,-733.62 165,-733.62 165,-733.62 165,-831.87 147,-855.7 147,-953.94 147,-1178.26 147,-1178.26 147,-1178.26 147,-1238.15 226.05,-1256.95 282.17,-1262.74"/>
<polygon fill="#77aa77" stroke="#77aa77" points="281.63,-1266.21 291.9,-1263.63 282.26,-1259.24 281.63,-1266.21"/>
<text xml:space="preserve" text-anchor="middle" x="183.09" y="-773.79" font-family="Times,serif" font-size="9.00" fill="#77aa77"> empty 3L </text>
</g>
<!-- nx_28322c203529&#45;&gt;nx_28322c203029 -->
<g id="edge35" class="edge">
<title>nx_28322c203529&#45;&gt;nx_28322c203029</title>
<path fill="none" stroke="#aa77aa" d="M758.67,-269.63C750.16,-260.8 743.43,-249.56 747.75,-238.28 749.27,-234.3 751.42,-230.48 753.91,-226.88"/>
<polygon fill="#aa77aa" stroke="#aa77aa" points="756.58,-229.14 760.14,-219.16 751.13,-224.75 756.58,-229.14"/>
<text xml:space="preserve" text-anchor="middle" x="766.88" y="-240.23" font-family="Times,serif" font-size="9.00" fill="#aa77aa"> empty 5L </text>
</g>
<!-- nx_28322c203529&#45;&gt;nx_28332c203429 -->
<g id="edge36" class="edge">
<title>nx_28322c203529&#45;&gt;nx_28332c203429</title>
<path fill="none" stroke="#77aaaa" d="M784.75,-309.55C785.65,-315.25 786.49,-321.45 787,-327.21 787.49,-332.71 787.79,-338.57 787.97,-344.26"/>
<polygon fill="#77aaaa" stroke="#77aaaa" points="784.47,-344.06 788.16,-353.99 791.47,-343.92 784.47,-344.06"/>
<text xml:space="preserve" text-anchor="middle" x="804.15" y="-329.16" font-family="Times,serif" font-size="9.00" fill="#77aaaa"> 5L→3L </text>
</g>
<!-- nx_28322c203529&#45;&gt;nx_28332c203529 -->
<g id="edge37" class="edge">
<title>nx_28322c203529&#45;&gt;nx_28332c203529</title>
<path fill="none" stroke="#6688bb" d="M822.78,-294.98C867.17,-303.98 931,-325.65 931,-375.92 931,-600.23 931,-600.23 931,-600.23 931,-678.41 935,-697.91 935,-776.09 935,-1089.33 935,-1089.33 935,-1089.33 935,-1151.27 852.18,-1169.42 794.22,-1174.53"/>
<polygon fill="#6688bb" stroke="#6688bb" points="794.2,-1171.02 784.5,-1175.27 794.73,-1178 794.2,-1171.02"/>
<text xml:space="preserve" text-anchor="middle" x="947.99" y="-729.32" font-family="Times,serif" font-size="9.00" fill="#6688bb"> fill 3L </text>
</g>
<!-- nx_28332c203029&#45;&gt;nx_28302c203029 -->
<g id="edge38" class="edge">
<title>nx_28332c203029&#45;&gt;nx_28302c203029</title>
<path fill="none" stroke="#77aa77" d="M624.79,-1109.3C606.96,-1146.71 565.04,-1228.84 515,-1287.4 502.19,-1302.39 498.58,-1306.97 481,-1315.9 449.19,-1332.04 410.19,-1341.61 379.27,-1347.13"/>
<polygon fill="#77aa77" stroke="#77aa77" points="379.04,-1343.62 369.77,-1348.74 380.21,-1350.53 379.04,-1343.62"/>
<text xml:space="preserve" text-anchor="middle" x="584.13" y="-1218.42" font-family="Times,serif" font-size="9.00" fill="#77aa77"> empty 3L </text>
</g>
<!-- nx_28332c203029&#45;&gt;nx_28302c203329 -->
<g id="edge39" class="edge">
<title>nx_28332c203029&#45;&gt;nx_28302c203329</title>
<path fill="none" stroke="#aaaa66" d="M594.17,-1079.1C572.77,-1073.27 546.8,-1063.82 527,-1049.12 519.76,-1043.74 513.33,-1036.5 507.98,-1029.24"/>
<polygon fill="#aaaa66" stroke="#aaaa66" points="511.18,-1027.72 502.65,-1021.44 505.4,-1031.67 511.18,-1027.72"/>
<text xml:space="preserve" text-anchor="middle" x="543.5" y="-1040.57" font-family="Times,serif" font-size="9.00" fill="#aaaa66"> 3L→5L </text>
</g>
<!-- nx_28332c203029&#45;&gt;nx_28332c203529 -->
<g id="edge40" class="edge">
<title>nx_28332c203029&#45;&gt;nx_28332c203529</title>
<path fill="none" stroke="#ddbb99" d="M649.52,-1108.48C657.69,-1117.95 668.18,-1129.2 678.75,-1138.04 685.7,-1143.85 693.59,-1149.46 701.33,-1154.51"/>
<polygon fill="#ddbb99" stroke="#ddbb99" points="699.35,-1157.4 709.67,-1159.77 703.08,-1151.48 699.35,-1157.4"/>
<text xml:space="preserve" text-anchor="middle" x="691.88" y="-1129.49" font-family="Times,serif" font-size="9.00" fill="#ddbb99"> fill 5L </text>
</g>
<!-- nx_28332c203129&#45;&gt;nx_28302c203129 -->
<g id="edge41" class="edge">
<title>nx_28332c203129&#45;&gt;nx_28302c203129</title>
<path fill="none" stroke="#77aa77" d="M652,-566.42C617.39,-576.35 564.22,-591.55 518,-604.48 488.05,-612.87 454.43,-622.11 427.76,-629.41"/>
<polygon fill="#77aa77" stroke="#77aa77" points="426.97,-626 418.24,-632.01 428.81,-632.75 426.97,-626"/>
<text xml:space="preserve" text-anchor="middle" x="569.88" y="-595.93" font-family="Times,serif" font-size="9.00" fill="#77aa77"> empty 3L </text>
</g>
<!-- nx_28332c203129&#45;&gt;nx_28302c203429 -->
<g id="edge42" class="edge">
<title>nx_28332c203129&#45;&gt;nx_28302c203429</title>
<path fill="none" stroke="#aaaa66" d="M660.89,-538.07C652.97,-532.13 645.35,-524.58 641,-515.56 637.64,-508.59 639.05,-501.27 642.59,-494.48"/>
<polygon fill="#aaaa66" stroke="#aaaa66" points="645.44,-496.51 648.16,-486.26 639.65,-492.58 645.44,-496.51"/>
<text xml:space="preserve" text-anchor="middle" x="657.5" y="-507.01" font-family="Times,serif" font-size="9.00" fill="#aaaa66"> 3L→5L </text>
</g>
<!-- nx_28332c203129&#45;&gt;nx_28332c203029 -->
<g id="edge43" class="edge">
<title>nx_28332c203129&#45;&gt;nx_28332c203029</title>
<path fill="none" stroke="#aa77aa" d="M696.66,-576.05C717,-632.27 769.66,-795 753,-931.69 749,-964.55 738.43,-1029.21 719,-1049.12 708.92,-1059.44 695.55,-1067.21 682.41,-1072.95"/>
<polygon fill="#aa77aa" stroke="#aa77aa" points="681.37,-1069.59 673.39,-1076.56 683.97,-1076.09 681.37,-1069.59"/>
<text xml:space="preserve" text-anchor="middle" x="774.35" y="-818.25" font-family="Times,serif" font-size="9.00" fill="#aa77aa"> empty 5L </text>
</g>
<!-- nx_28332c203129&#45;&gt;nx_28332c203529 -->
<g id="edge44" class="edge">
<title>nx_28332c203129&#45;&gt;nx_28332c203529</title>
<path fill="none" stroke="#ddbb99" d="M705.19,-574.57C709.96,-580.56 714.97,-587.36 719,-593.98 726.24,-605.88 726.75,-609.59 732,-622.48 789.19,-762.94 813,-802.29 813,-953.94 813,-1089.33 813,-1089.33 813,-1089.33 813,-1115.51 793.3,-1137.81 774.23,-1153.27"/>
<polygon fill="#ddbb99" stroke="#ddbb99" points="772.33,-1150.32 766.5,-1159.17 776.57,-1155.89 772.33,-1150.32"/>
<text xml:space="preserve" text-anchor="middle" x="822.87" y="-862.71" font-family="Times,serif" font-size="9.00" fill="#ddbb99"> fill 5L </text>
</g>
<!-- nx_28332c203229&#45;&gt;nx_28302c203229 -->
<g id="edge45" class="edge">
<title>nx_28332c203229&#45;&gt;nx_28302c203229</title>
<path fill="none" stroke="#77aa77" d="M1039.75,-35.46C1012.84,-45.89 973.83,-60.39 939,-70.93 903.85,-81.56 863.59,-91.31 832.64,-98.3"/>
<polygon fill="#77aa77" stroke="#77aa77" points="832.16,-94.82 823.16,-100.42 833.68,-101.65 832.16,-94.82"/>
<text xml:space="preserve" text-anchor="middle" x="987.86" y="-62.38" font-family="Times,serif" font-size="9.00" fill="#77aa77"> empty 3L </text>
</g>
<!-- nx_28332c203229&#45;&gt;nx_28302c203529 -->
<g id="edge46" class="edge">
<title>nx_28332c203229&#45;&gt;nx_28302c203529</title>
<path fill="none" stroke="#aaaa66" d="M1085.83,-41.69C1095.82,-58.74 1108,-84.57 1108,-109.14 1108,-1178.26 1108,-1178.26 1108,-1178.26 1108,-1250.3 569.52,-1262.64 392.59,-1264.75"/>
<polygon fill="#aaaa66" stroke="#aaaa66" points="392.7,-1261.25 382.73,-1264.86 392.77,-1268.25 392.7,-1261.25"/>
<text xml:space="preserve" text-anchor="middle" x="1124.5" y="-640.4" font-family="Times,serif" font-size="9.00" fill="#aaaa66"> 3L→5L </text>
</g>
<!-- nx_28332c203229&#45;&gt;nx_28332c203029 -->
<g id="edge47" class="edge">
<title>nx_28332c203229&#45;&gt;nx_28332c203029</title>
<path fill="none" stroke="#aa77aa" d="M1105.77,-35.72C1133.58,-49.62 1169,-74.18 1169,-109.14 1169,-1000.4 1169,-1000.4 1169,-1000.4 1169,-1048.69 825.04,-1075.43 688.71,-1084.13"/>
<polygon fill="#aa77aa" stroke="#aa77aa" points="688.6,-1080.63 678.84,-1084.75 689.04,-1087.62 688.6,-1080.63"/>
<text xml:space="preserve" text-anchor="middle" x="1188.12" y="-551.47" font-family="Times,serif" font-size="9.00" fill="#aa77aa"> empty 5L </text>
</g>
<!-- nx_28332c203229&#45;&gt;nx_28332c203529 -->
<g id="edge48" class="edge">
<title>nx_28332c203229&#45;&gt;nx_28332c203529</title>
<path fill="none" stroke="#ddbb99" d="M1115.56,-26.68C1163.56,-34.35 1235,-54.88 1235,-109.14 1235,-1089.33 1235,-1089.33 1235,-1089.33 1235,-1133.78 922,-1162.46 793.29,-1172.38"/>
<polygon fill="#ddbb99" stroke="#ddbb99" points="793.36,-1168.86 783.66,-1173.11 793.89,-1175.84 793.36,-1168.86"/>
<text xml:space="preserve" text-anchor="middle" x="1248.12" y="-595.93" font-family="Times,serif" font-size="9.00" fill="#ddbb99"> fill 5L </text>
</g>
<!-- nx_28332c203329&#45;&gt;nx_28302c203329 -->
<g id="edge49" class="edge">
<title>nx_28332c203329&#45;&gt;nx_28302c203329</title>
<path fill="none" stroke="#77aa77" d="M513.21,-931.83C509.67,-942.43 505.28,-955.61 501.33,-967.44"/>
<polygon fill="#77aa77" stroke="#77aa77" points="498.05,-966.21 498.21,-976.81 504.69,-968.43 498.05,-966.21"/>
<text xml:space="preserve" text-anchor="middle" x="526.36" y="-951.64" font-family="Times,serif" font-size="9.00" fill="#77aa77"> empty 3L </text>
</g>
<!-- nx_28332c203329&#45;&gt;nx_28312c203529 -->
<g id="edge50" class="edge">
<title>nx_28332c203329&#45;&gt;nx_28312c203529</title>
<path fill="none" stroke="#aaaa66" d="M493.61,-893.44C486.19,-887.48 479.05,-880.01 475,-871.26 472.51,-865.89 471.82,-859.85 472.13,-853.89"/>
<polygon fill="#aaaa66" stroke="#aaaa66" points="475.55,-854.65 473.53,-844.25 468.63,-853.64 475.55,-854.65"/>
<text xml:space="preserve" text-anchor="middle" x="491.5" y="-862.71" font-family="Times,serif" font-size="9.00" fill="#aaaa66"> 3L→5L </text>
</g>
<!-- nx_28332c203329&#45;&gt;nx_28332c203029 -->
<g id="edge51" class="edge">
<title>nx_28332c203329&#45;&gt;nx_28332c203029</title>
<path fill="none" stroke="#aa77aa" d="M535.46,-930.43C540.06,-936.43 544.94,-943.19 549,-949.69 567.69,-979.64 560.32,-995.13 584.75,-1020.62 596.11,-1032.47 606.44,-1026.05 617,-1038.62 621.18,-1043.59 624.35,-1049.65 626.76,-1055.79"/>
<polygon fill="#aa77aa" stroke="#aa77aa" points="623.42,-1056.83 629.84,-1065.26 630.07,-1054.66 623.42,-1056.83"/>
<text xml:space="preserve" text-anchor="middle" x="603.88" y="-996.1" font-family="Times,serif" font-size="9.00" fill="#aa77aa"> empty 5L </text>
</g>
<!-- nx_28332c203329&#45;&gt;nx_28332c203529 -->
<g id="edge52" class="edge">
<title>nx_28332c203329&#45;&gt;nx_28332c203529</title>
<path fill="none" stroke="#ddbb99" d="M549.78,-926.52C571.67,-938.53 601.27,-956.84 623,-978.19 650.11,-1004.82 647.35,-1019.18 670.75,-1049.12 677.39,-1057.61 681.01,-1058.16 687,-1067.12 703.57,-1091.89 717.76,-1122.76 727.11,-1145.35"/>
<polygon fill="#ddbb99" stroke="#ddbb99" points="723.86,-1146.65 730.85,-1154.61 730.35,-1144.03 723.86,-1146.65"/>
<text xml:space="preserve" text-anchor="middle" x="683.88" y="-1040.57" font-family="Times,serif" font-size="9.00" fill="#ddbb99"> fill 5L </text>
</g>
<!-- nx_28332c203429&#45;&gt;nx_28302c203429 -->
<g id="edge53" class="edge">
<title>nx_28332c203429&#45;&gt;nx_28302c203429</title>
<path fill="none" stroke="#77aa77" d="M768.47,-396.37C758.01,-405.87 744.7,-417.36 732,-426.63 724.05,-432.43 715.2,-438.2 706.69,-443.42"/>
<polygon fill="#77aa77" stroke="#77aa77" points="705.01,-440.35 698.24,-448.5 708.62,-446.35 705.01,-440.35"/>
<text xml:space="preserve" text-anchor="middle" x="763.99" y="-418.08" font-family="Times,serif" font-size="9.00" fill="#77aa77"> empty 3L </text>
</g>
<!-- nx_28332c203429&#45;&gt;nx_28322c203529 -->
<g id="edge54" class="edge">
<title>nx_28332c203429&#45;&gt;nx_28322c203529</title>
<path fill="none" stroke="#aaaa66" d="M765.24,-358.76C759.11,-352.84 753.28,-345.66 750,-337.71 746.9,-330.19 748.88,-322.54 753.02,-315.61"/>
<polygon fill="#aaaa66" stroke="#aaaa66" points="755.63,-317.97 758.84,-307.87 750.03,-313.76 755.63,-317.97"/>
<text xml:space="preserve" text-anchor="middle" x="766.5" y="-329.16" font-family="Times,serif" font-size="9.00" fill="#aaaa66"> 3L→5L </text>
</g>
<!-- nx_28332c203429&#45;&gt;nx_28332c203029 -->
<g id="edge55" class="edge">
<title>nx_28332c203429&#45;&gt;nx_28332c203029</title>
<path fill="none" stroke="#aa77aa" d="M800.83,-397.4C810.82,-414.45 823,-440.28 823,-464.85 823,-689.16 823,-689.16 823,-689.16 823,-809.63 879.58,-851.8 827,-960.19 802.46,-1010.78 784.42,-1018.9 737,-1049.12 720.48,-1059.64 700.64,-1067.87 682.81,-1073.95"/>
<polygon fill="#aa77aa" stroke="#aa77aa" points="681.87,-1070.58 673.44,-1077 684.04,-1077.23 681.87,-1070.58"/>
<text xml:space="preserve" text-anchor="middle" x="847.59" y="-729.32" font-family="Times,serif" font-size="9.00" fill="#aa77aa"> empty 5L </text>
</g>
<!-- nx_28332c203429&#45;&gt;nx_28332c203529 -->
<g id="edge56" class="edge">
<title>nx_28332c203429&#45;&gt;nx_28332c203529</title>
<path fill="none" stroke="#ddbb99" d="M821.91,-390.7C851.25,-404.21 889,-428.64 889,-464.85 889,-1089.33 889,-1089.33 889,-1089.33 889,-1135.57 834.98,-1157.62 791.78,-1167.85"/>
<polygon fill="#ddbb99" stroke="#ddbb99" points="791.28,-1164.38 782.26,-1169.94 792.78,-1171.22 791.28,-1164.38"/>
<text xml:space="preserve" text-anchor="middle" x="902.12" y="-773.79" font-family="Times,serif" font-size="9.00" fill="#ddbb99"> fill 5L </text>
</g>
<!-- nx_28332c203529&#45;&gt;nx_28302c203529 -->
<g id="edge57" class="edge">
<title>nx_28332c203529&#45;&gt;nx_28302c203529</title>
<path fill="none" stroke="#77aa77" d="M726,-1197.65C717.84,-1208.18 706.34,-1220.35 693,-1226.97 641.56,-1252.49 478.94,-1261.08 392.41,-1263.88"/>
<polygon fill="#77aa77" stroke="#77aa77" points="392.38,-1260.38 382.5,-1264.19 392.6,-1267.38 392.38,-1260.38"/>
<text xml:space="preserve" text-anchor="middle" x="727.15" y="-1218.42" font-family="Times,serif" font-size="9.00" fill="#77aa77"> empty 3L </text>
</g>
<!-- nx_28332c203529&#45;&gt;nx_28332c203029 -->
<g id="edge58" class="edge">
<title>nx_28332c203529&#45;&gt;nx_28332c203029</title>
<path fill="none" stroke="#aa77aa" d="M695.42,-1173.57C670.66,-1169.54 641.54,-1160.04 625.75,-1138.04 622.06,-1132.9 621.18,-1126.68 621.8,-1120.43"/>
<polygon fill="#aa77aa" stroke="#aa77aa" points="625.18,-1121.37 623.92,-1110.85 618.34,-1119.85 625.18,-1121.37"/>
<text xml:space="preserve" text-anchor="middle" x="644.88" y="-1129.49" font-family="Times,serif" font-size="9.00" fill="#aa77aa"> empty 5L </text>
</g>
</g>
</svg>
