<?xml version="1.0" encoding="UTF-8" standalone="no"?>
<!DOCTYPE svg PUBLIC "-//W3C//DTD SVG 1.1//EN"
 "http://www.w3.org/Graphics/SVG/1.1/DTD/svg11.dtd">
<!-- Generated by graphviz version 14.1.3 (20260303.0454)
 -->
<!-- Pages: 1 -->
<svg width="96pt" height="584pt"
 viewBox="0.00 0.00 96.00 584.00" xmlns="http://www.w3.org/2000/svg" xmlns:xlink="http://www.w3.org/1999/xlink">
<g id="graph0" class="graph" transform="scale(1 1) rotate(0) translate(4 579.98)">
<polygon fill="white" stroke="none" points="-4,4 -4,-579.98 91.68,-579.98 91.68,4 -4,4"/>
<!-- nx_28302c203029 -->
<g id="node1" class="node">
<title>nx_28302c203029</title>
<ellipse fill="#ffddcc" stroke="black" cx="43.84" cy="-554.77" rx="43.84" ry="21.21"/>
<text xml:space="preserve" text-anchor="start" x="30.22" y="-551.02" font-family="Times,serif" font-size="11.00">0</text>
<text xml:space="preserve" text-anchor="start" x="52.22" y="-551.02" font-family="Times,serif" font-size="11.00">0</text>
</g>
<!-- nx_28302c203529 -->
<g id="node3" class="node">
<title>nx_28302c203529</title>
<ellipse fill="#cceeee" stroke="black" cx="43.84" cy="-465.85" rx="43.84" ry="21.21"/>
<text xml:space="preserve" text-anchor="start" x="30.22" y="-462.1" font-family="Times,serif" font-size="11.00">0</text>
<text xml:space="preserve" text-anchor="start" x="52.22" y="-462.1" font-family="Times,serif" font-size="11.00">5</text>
</g>
<!-- nx_28302c203029&#45;&gt;nx_28302c203529 -->
<g id="edge1" class="edge">
<title>nx_28302c203029&#45;&gt;nx_28302c203529</title>
<path fill="none" stroke="#ddbb99" d="M43.84,-533.17C43.84,-522.89 43.84,-510.22 43.84,-498.71"/>
<polygon fill="#ddbb99" stroke="#ddbb99" points="47.34,-498.81 43.84,-488.81 40.34,-498.81 47.34,-498.81"/>
<text xml:space="preserve" text-anchor="middle" x="56.97" y="-507.01" font-family="Times,serif" font-size="9.00" fill="#ddbb99"> fill 5L </text>
</g>
<!-- nx_28302c203229 -->
<g id="node2" class="node">
<title>nx_28302c203229</title>
<ellipse fill="#cceeee" stroke="black" cx="43.84" cy="-287.99" rx="43.84" ry="21.21"/>
<text xml:space="preserve" text-anchor="start" x="30.22" y="-284.24" font-family="Times,serif" font-size="11.00">0</text>
<text xml:space="preserve" text-anchor="start" x="52.22" y="-284.24" font-family="Times,serif" font-size="11.00">2</text>
</g>
<!-- nx_28322c203029 -->
<g id="node4" class="node">
<title>nx_28322c203029</title>
<ellipse fill="#ffddcc" stroke="black" cx="43.84" cy="-199.07" rx="43.84" ry="21.21"/>
<text xml:space="preserve" text-anchor="start" x="30.22" y="-195.32" font-family="Times,serif" font-size="11.00">2</text>
<text xml:space="preserve" text-anchor="start" x="52.22" y="-195.32" font-family="Times,serif" font-size="11.00">0</text>
</g>
<!-- nx_28302c203229&#45;&gt;nx_28322c203029 -->
<g id="edge2" class="edge">
<title>nx_28302c203229&#45;&gt;nx_28322c203029</title>
<path fill="none" stroke="#77aaaa" d="M43.84,-266.39C43.84,-256.11 43.84,-243.44 43.84,-231.93"/>
<polygon fill="#77aaaa" stroke="#77aaaa" points="47.34,-232.03 43.84,-222.03 40.34,-232.03 47.34,-232.03"/>
<text xml:space="preserve" text-anchor="middle" x="60.34" y="-240.23" font-family="Times,serif" font-size="9.00" fill="#77aaaa"> 5L→3L </text>
</g>
<!-- nx_28332c203229 -->
<g id="node6" class="node">
<title>nx_28332c203229</title>
<ellipse fill="#cceecc" stroke="black" cx="43.84" cy="-376.92" rx="43.84" ry="21.21"/>
<text xml:space="preserve" text-anchor="start" x="30.22" y="-373.17" font-family="Times,serif" font-size="11.00">3</text>
<text xml:space="preserve" text-anchor="start" x="52.22" y="-373.17" font-family="Times,serif" font-size="11.00">2</text>
</g>
<!-- nx_28302c203529&#45;&gt;nx_28332c203229 -->
<g id="edge3" class="edge">
<title>nx_28302c203529&#45;&gt;nx_28332c203229</title>
<path fill="none" stroke="#77aaaa" d="M43.84,-444.24C43.84,-433.96 43.84,-421.29 43.84,-409.79"/>
<polygon fill="#77aaaa" stroke="#77aaaa" points="47.34,-409.88 43.84,-399.88 40.34,-409.88 47.34,-409.88"/>
<text xml:space="preserve" text-anchor="middle" x="60.34" y="-418.08" font-family="Times,serif" font-size="9.00" fill="#77aaaa"> 5L→3L </text>
</g>
<!-- nx_28322c203529 -->
<g id="node5" class="node">
<title>nx_28322c203529</title>
<ellipse fill="#cceeee" stroke="black" cx="43.84" cy="-110.14" rx="43.84" ry="21.21"/>
<text xml:space="preserve" text-anchor="start" x="30.22" y="-106.39" font-family="Times,serif" font-size="11.00">2</text>
<text xml:space="preserve" text-anchor="start" x="52.22" y="-106.39" font-family="Times,serif" font-size="11.00">5</text>
</g>
<!-- nx_28322c203029&#45;&gt;nx_28322c203529 -->
<g id="edge4" class="edge">
<title>nx_28322c203029&#45;&gt;nx_28322c203529</title>
<path fill="none" stroke="#ddbb99" d="M43.84,-177.47C43.84,-167.18 43.84,-154.51 43.84,-143.01"/>
<polygon fill="#ddbb99" stroke="#ddbb99" points="47.34,-143.11 43.84,-133.11 40.34,-143.11 47.34,-143.11"/>
<text xml:space="preserve" text-anchor="middle" x="56.97" y="-151.3" font-family="Times,serif" font-size="9.00" fill="#ddbb99"> fill 5L </text>
</g>
<!-- nx_28332c203429 -->
<g id="node7" class="node">
<title>nx_28332c203429</title>
<ellipse fill="none" stroke="black" cx="43.84" cy="-21.21" rx="43.84" ry="21.21"/>
<text xml:space="preserve" text-anchor="start" x="30.22" y="-17.46" font-family="Times,serif" font-size="11.00">3</text>
<text xml:space="preserve" text-anchor="start" x="52.22" y="-18.51" font-family="Times,serif" font-weight="bold" font-size="11.00">4</text>
</g>
<!-- nx_28322c203529&#45;&gt;nx_28332c203429 -->
<g id="edge5" class="edge">
<title>nx_28322c203529&#45;&gt;nx_28332c203429</title>
<path fill="none" stroke="#77aaaa" d="M43.84,-88.54C43.84,-78.25 43.84,-65.58 43.84,-54.08"/>
<polygon fill="#77aaaa" stroke="#77aaaa" points="47.34,-54.18 43.84,-44.18 40.34,-54.18 47.34,-54.18"/>
<text xml:space="preserve" text-anchor="middle" x="60.34" y="-62.38" font-family="Times,serif" font-size="9.00" fill="#77aaaa"> 5L→3L </text>
</g>
<!-- nx_28332c203229&#45;&gt;nx_28302c203229 -->
<g id="edge6" class="edge">
<title>nx_28332c203229&#45;&gt;nx_28302c203229</title>
<path fill="none" stroke="#77aa77" d="M43.84,-355.32C43.84,-345.03 43.84,-332.36 43.84,-320.86"/>
<polygon fill="#77aa77" stroke="#77aa77" points="47.34,-320.96 43.84,-310.96 40.34,-320.96 47.34,-320.96"/>
<text xml:space="preserve" text-anchor="middle" x="62.97" y="-329.16" font-family="Times,serif" font-size="9.00" fill="#77aa77"> empty 3L </text>
</g>
</g>
</svg>
