<?xml version="1.0" encoding="UTF-8" standalone="no"?>
<!DOCTYPE svg PUBLIC "-//W3C//DTD SVG 1.1//EN"
 "http://www.w3.org/Graphics/SVG/1.1/DTD/svg11.dtd">
<!-- Generated by graphviz version 14.1.3 (20260303.0454)
 -->
<!-- Pages: 1 -->
<svg width="156pt" height="174pt"
 viewBox="0.00 0.00 156.00 174.00" xmlns="http://www.w3.org/2000/svg" xmlns:xlink="http://www.w3.org/1999/xlink">
<g id="graph0" class="graph" transform="scale(1 1) rotate(0) translate(4 170.44)">
<polygon fill="white" stroke="none" points="-4,4 -4,-170.44 151.7,-170.44 151.7,4 -4,4"/>
<!-- n1 -->
<g id="node1" class="node">
<title>n1</title>
<ellipse fill="#ffddcc" stroke="black" stroke-width="3" cx="27" cy="-100.5" rx="27" ry="18"/>
<text xml:space="preserve" text-anchor="middle" x="27" y="-96.8" font-family="Times,serif" font-size="11.00">1</text>
</g>
<!-- n3 -->
<g id="node2" class="node">
<title>n3</title>
<ellipse fill="#ccddff" stroke="black" stroke-width="3" cx="63" cy="-18" rx="27" ry="18"/>
<text xml:space="preserve" text-anchor="middle" x="63" y="-14.3" font-family="Times,serif" font-size="11.00">3</text>
</g>
<!-- n1&#45;&gt;n3 -->
<g id="edge1" class="edge">
<title>n1&#45;&gt;n3</title>
<path fill="none" stroke="#ddbb99" d="M18.33,-81.97C15.25,-73.22 13.49,-62.68 17.75,-54 21.02,-47.33 26.25,-41.57 32,-36.76"/>
<polygon fill="#ddbb99" stroke="#ddbb99" points="34.05,-39.6 40.06,-30.87 29.92,-33.94 34.05,-39.6"/>
<text xml:space="preserve" text-anchor="middle" x="29.38" y="-55.95" font-family="Times,serif" font-size="9.00" fill="#ddbb99"> x + 2 </text>
</g>
<!-- n3&#45;&gt;n1 -->
<g id="edge2" class="edge">
<title>n3&#45;&gt;n1</title>
<path fill="none" stroke="#6688bb" d="M55.08,-36.71C50.51,-46.92 44.67,-59.98 39.5,-71.55"/>
<polygon fill="#6688bb" stroke="#6688bb" points="36.32,-70.09 35.43,-80.65 42.71,-72.95 36.32,-70.09"/>
<text xml:space="preserve" text-anchor="middle" x="58.41" y="-55.95" font-family="Times,serif" font-size="9.00" fill="#6688bb"> x // 3 </text>
</g>
<!-- n9 -->
<g id="node3" class="node">
<title>n9</title>
<ellipse fill="#ccddff" stroke="black" stroke-width="3" cx="109" cy="-100.5" rx="27" ry="18"/>
<text xml:space="preserve" text-anchor="middle" x="109" y="-96.8" font-family="Times,serif" font-size="11.00">9</text>
</g>
<!-- n9&#45;&gt;n3 -->
<g id="edge3" class="edge">
<title>n9&#45;&gt;n3</title>
<path fill="none" stroke="#6688bb" d="M99.24,-82.43C93.21,-71.86 85.32,-58.06 78.45,-46.04"/>
<polygon fill="#6688bb" stroke="#6688bb" points="81.49,-44.31 73.49,-37.36 75.41,-47.78 81.49,-44.31"/>
<text xml:space="preserve" text-anchor="middle" x="100" y="-55.95" font-family="Times,serif" font-size="9.00" fill="#6688bb"> x // 3 </text>
</g>
<!-- ghost_in_9_0 -->
<g id="node4" class="node">
<title>ghost_in_9_0</title>
</g>
<!-- ghost_in_9_0&#45;&gt;n9 -->
<g id="edge4" class="edge">
<title>ghost_in_9_0&#45;&gt;n9</title>
<path fill="none" stroke="#ddbb99" stroke-dasharray="5,2" d="M85.99,-164.95C85.82,-163.98 83.17,-148.24 86.75,-136.5 87.66,-133.5 88.91,-130.52 90.35,-127.62"/>
<polygon fill="#ddbb99" stroke="#ddbb99" points="93.37,-129.39 95.39,-118.99 87.33,-125.86 93.37,-129.39"/>
<text xml:space="preserve" text-anchor="middle" x="98.38" y="-138.45" font-family="Times,serif" font-size="9.00" fill="#ddbb99"> x + 2 </text>
</g>
<!-- ghost_in_9_1 -->
<g id="node5" class="node">
<title>ghost_in_9_1</title>
</g>
<!-- ghost_in_9_1&#45;&gt;n9 -->
<g id="edge5" class="edge">
<title>ghost_in_9_1&#45;&gt;n9</title>
<path fill="none" stroke="#6688bb" stroke-dasharray="5,2" d="M131.98,-164.95C131.62,-163.94 125.21,-146.26 119.26,-129.82"/>
<polygon fill="#6688bb" stroke="#6688bb" points="122.69,-129.02 115.99,-120.81 116.11,-131.4 122.69,-129.02"/>
<text xml:space="preserve" text-anchor="middle" x="136.45" y="-138.45" font-family="Times,serif" font-size="9.00" fill="#6688bb"> x // 3 </text>
</g>
</g>
</svg>
