<?xml version="1.0" encoding="UTF-8" standalone="no"?>
<!DOCTYPE svg PUBLIC "-//W3C//DTD SVG 1.1//EN"
 "http://www.w3.org/Graphics/SVG/1.1/DTD/svg11.dtd">
<!-- Generated by graphviz version 14.1.3 (20260303.0454)
 -->
<!-- Pages: 1 -->
<svg width="532pt" height="257pt"
 viewBox="0.00 0.00 532.00 257.00" xmlns="http://www.w3.org/2000/svg" xmlns:xlink="http://www.w3.org/1999/xlink">
<g id="graph0" class="graph" transform="scale(1 1) rotate(0) translate(4 252.94)">
<polygon fill="white" stroke="none" points="-4,4 -4,-252.94 527.56,-252.94 527.56,4 -4,4"/>
<!-- n1 -->
<g id="node1" class="node">
<title>n1</title>
<path fill="#ccddff" stroke="black" stroke-width="0.5" d="M114.36,-230.94C114.36,-230.94 141.36,-230.94 141.36,-230.94 141.36,-231.53 141.32,-232.12 141.23,-232.7 141.14,-233.29 141.01,-233.87 140.84,-234.45 140.67,-235.03 140.45,-235.6 140.2,-236.17 139.94,-236.73 139.64,-237.28 139.3,-237.83 138.97,-238.37 138.59,-238.91 138.17,-239.43 137.76,-239.94 137.3,-240.45 136.81,-240.94 136.32,-241.43 135.79,-241.9 135.23,-242.36 134.67,-242.81 134.08,-243.25 133.45,-243.67 132.83,-244.08 132.17,-244.48 131.49,-244.85 130.81,-245.23 130.1,-245.58 129.36,-245.91 128.63,-246.23 127.87,-246.54 127.09,-246.81 126.31,-247.09 125.51,-247.34 124.69,-247.57 123.88,-247.8 123.04,-247.99 122.2,-248.16 121.35,-248.34 120.49,-248.48 119.63,-248.59 118.76,-248.71 117.89,-248.8 117.01,-248.85 116.13,-248.91 115.24,-248.94 114.36,-248.94 113.48,-248.94 112.59,-248.91 111.71,-248.85 110.83,-248.8 109.96,-248.71 109.09,-248.59 108.23,-248.48 107.37,-248.34 106.52,-248.16 105.68,-247.99 104.84,-247.8 104.03,-247.57 103.21,-247.34 102.41,-247.09 101.63,-246.81 100.85,-246.54 100.09,-246.23 99.36,-245.91 98.62,-245.58 97.91,-245.23 97.23,-244.85 96.55,-244.48 95.89,-244.08 95.27,-243.67 94.64,-243.25 94.05,-242.81 93.49,-242.36 92.93,-241.9 92.4,-241.43 91.91,-240.94 91.42,-240.45 90.96,-239.94 90.55,-239.43 90.13,-238.91 89.75,-238.37 89.42,-237.83 89.08,-237.28 88.78,-236.73 88.52,-236.17 88.27,-235.6 88.05,-235.03 87.88,-234.45 87.71,-233.87 87.58,-233.29 87.49,-232.7 87.4,-232.12 87.36,-231.53 87.36,-230.94 87.36,-230.94 114.36,-230.94 114.36,-230.94"/>
<path fill="#ffddcc" stroke="black" stroke-width="0.5" d="M114.36,-230.94C114.36,-230.94 87.36,-230.94 87.36,-230.94 87.36,-230.35 87.4,-229.76 87.49,-229.18 87.58,-228.59 87.71,-228.01 87.88,-227.43 88.05,-226.85 88.27,-226.28 88.52,-225.71 88.78,-225.15 89.08,-224.6 89.42,-224.05 89.75,-223.51 90.13,-222.97 90.55,-222.45 90.96,-221.94 91.42,-221.43 91.91,-220.94 92.4,-220.45 92.93,-219.98 93.49,-219.52 94.05,-219.07 94.64,-218.63 95.27,-218.21 95.89,-217.8 96.55,-217.4 97.23,-217.03 97.91,-216.65 98.62,-216.3 99.36,-215.97 100.09,-215.65 100.85,-215.34 101.63,-215.07 102.41,-214.79 103.21,-214.54 104.03,-214.31 104.84,-214.08 105.68,-213.89 106.52,-213.72 107.37,-213.54 108.23,-213.4 109.09,-213.29 109.96,-213.17 110.83,-213.08 111.71,-213.03 112.59,-212.97 113.48,-212.94 114.36,-212.94 115.24,-212.94 116.13,-212.97 117.01,-213.03 117.89,-213.08 118.76,-213.17 119.63,-213.29 120.49,-213.4 121.35,-213.54 122.2,-213.72 123.04,-213.89 123.88,-214.08 124.69,-214.31 125.51,-214.54 126.31,-214.79 127.09,-215.07 127.87,-215.34 128.63,-215.65 129.36,-215.97 130.1,-216.3 130.81,-216.65 131.49,-217.03 132.17,-217.4 132.83,-217.8 133.45,-218.21 134.08,-218.63 134.67,-219.07 135.23,-219.52 135.79,-219.98 136.32,-220.45 136.81,-220.94 137.3,-221.43 137.76,-221.94 138.17,-222.45 138.59,-222.97 138.97,-223.51 139.3,-224.05 139.64,-224.6 139.94,-225.15 140.2,-225.71 140.45,-226.28 140.67,-226.85 140.84,-227.43 141.01,-228.01 141.14,-228.59 141.23,-229.18 141.32,-229.76 141.36,-230.35 141.36,-230.94 141.36,-230.94 114.36,-230.94 114.36,-230.94"/>
<ellipse fill="none" stroke="black" stroke-width="3" cx="114.36" cy="-230.94" rx="27" ry="18"/>
<text xml:space="preserve" text-anchor="middle" x="114.36" y="-227.24" font-family="Times,serif" font-size="11.00">1</text>
</g>
<!-- n2 -->
<g id="node2" class="node">
<title>n2</title>
<path fill="#ccddff" stroke="black" stroke-width="0.5" d="M81.36,-148.44C81.36,-148.44 108.36,-148.44 108.36,-148.44 108.36,-149.03 108.32,-149.62 108.23,-150.2 108.14,-150.79 108.01,-151.37 107.84,-151.95 107.67,-152.53 107.45,-153.1 107.2,-153.67 106.94,-154.23 106.64,-154.78 106.3,-155.33 105.97,-155.87 105.59,-156.41 105.17,-156.93 104.76,-157.44 104.3,-157.95 103.81,-158.44 103.32,-158.93 102.79,-159.4 102.23,-159.86 101.67,-160.31 101.08,-160.75 100.45,-161.17 99.83,-161.58 99.17,-161.98 98.49,-162.35 97.81,-162.73 97.1,-163.08 96.36,-163.41 95.63,-163.73 94.87,-164.04 94.09,-164.31 93.31,-164.59 92.51,-164.84 91.69,-165.07 90.88,-165.3 90.04,-165.49 89.2,-165.66 88.35,-165.84 87.49,-165.98 86.63,-166.09 85.76,-166.21 84.89,-166.3 84.01,-166.35 83.13,-166.41 82.24,-166.44 81.36,-166.44 80.48,-166.44 79.59,-166.41 78.71,-166.35 77.83,-166.3 76.96,-166.21 76.09,-166.09 75.23,-165.98 74.37,-165.84 73.52,-165.66 72.68,-165.49 71.84,-165.3 71.03,-165.07 70.21,-164.84 69.41,-164.59 68.63,-164.31 67.85,-164.04 67.09,-163.73 66.36,-163.41 65.62,-163.08 64.91,-162.73 64.23,-162.35 63.55,-161.98 62.89,-161.58 62.27,-161.17 61.64,-160.75 61.05,-160.31 60.49,-159.86 59.93,-159.4 59.4,-158.93 58.91,-158.44 58.42,-157.95 57.96,-157.44 57.55,-156.93 57.13,-156.41 56.75,-155.87 56.42,-155.33 56.08,-154.78 55.78,-154.23 55.52,-153.67 55.27,-153.1 55.05,-152.53 54.88,-151.95 54.71,-151.37 54.58,-150.79 54.49,-150.2 54.4,-149.62 54.36,-149.03 54.36,-148.44 54.36,-148.44 81.36,-148.44 81.36,-148.44"/>
<path fill="#ffddcc" stroke="black" stroke-width="0.5" d="M81.36,-148.44C81.36,-148.44 54.36,-148.44 54.36,-148.44 54.36,-147.85 54.4,-147.26 54.49,-146.68 54.58,-146.09 54.71,-145.51 54.88,-144.93 55.05,-144.35 55.27,-143.78 55.52,-143.21 55.78,-142.65 56.08,-142.1 56.42,-141.55 56.75,-141.01 57.13,-140.47 57.55,-139.95 57.96,-139.44 58.42,-138.93 58.91,-138.44 59.4,-137.95 59.93,-137.48 60.49,-137.02 61.05,-136.57 61.64,-136.13 62.27,-135.71 62.89,-135.3 63.55,-134.9 64.23,-134.53 64.91,-134.15 65.62,-133.8 66.36,-133.47 67.09,-133.15 67.85,-132.84 68.63,-132.57 69.41,-132.29 70.21,-132.04 71.03,-131.81 71.84,-131.58 72.68,-131.39 73.52,-131.22 74.37,-131.04 75.23,-130.9 76.09,-130.79 76.96,-130.67 77.83,-130.58 78.71,-130.53 79.59,-130.47 80.48,-130.44 81.36,-130.44 82.24,-130.44 83.13,-130.47 84.01,-130.53 84.89,-130.58 85.76,-130.67 86.63,-130.79 87.49,-130.9 88.35,-131.04 89.2,-131.22 90.04,-131.39 90.88,-131.58 91.69,-131.81 92.51,-132.04 93.31,-132.29 94.09,-132.57 94.87,-132.84 95.63,-133.15 96.36,-133.47 97.1,-133.8 97.81,-134.15 98.49,-134.53 99.17,-134.9 99.83,-135.3 100.45,-135.71 101.08,-136.13 101.67,-136.57 102.23,-137.02 102.79,-137.48 103.32,-137.95 103.81,-138.44 104.3,-138.93 104.76,-139.44 105.17,-139.95 105.59,-140.47 105.97,-141.01 106.3,-141.55 106.64,-142.1 106.94,-142.65 107.2,-143.21 107.45,-143.78 107.67,-144.35 107.84,-144.93 108.01,-145.51 108.14,-146.09 108.23,-146.68 108.32,-147.26 108.36,-147.85 108.36,-148.44 108.36,-148.44 81.36,-148.44 81.36,-148.44"/>
<ellipse fill="none" stroke="black" cx="81.36" cy="-148.44" rx="27" ry="18"/>
<text xml:space="preserve" text-anchor="middle" x="81.36" y="-144.74" font-family="Times,serif" font-size="11.00">2</text>
</g>
<!-- n1&#45;&gt;n2 -->
<g id="edge1" class="edge">
<title>n1&#45;&gt;n2</title>
<path fill="none" stroke="#6688bb" d="M104.51,-212.79C101.52,-207.2 98.36,-200.9 95.86,-194.94 93.51,-189.35 91.32,-183.24 89.39,-177.37"/>
<polygon fill="#6688bb" stroke="#6688bb" points="92.79,-176.51 86.48,-168 86.11,-178.59 92.79,-176.51"/>
<text xml:space="preserve" text-anchor="middle" x="107.11" y="-186.39" font-family="Times,serif" font-size="9.00" fill="#6688bb"> 2 * x </text>
</g>
<!-- n3 -->
<g id="node3" class="node">
<title>n3</title>
<path fill="#ccddff" stroke="black" stroke-width="0.5" d="M153.36,-148.44C153.36,-148.44 180.36,-148.44 180.36,-148.44 180.36,-149.03 180.32,-149.62 180.23,-150.2 180.14,-150.79 180.01,-151.37 179.84,-151.95 179.67,-152.53 179.45,-153.1 179.2,-153.67 178.94,-154.23 178.64,-154.78 178.3,-155.33 177.97,-155.87 177.59,-156.41 177.17,-156.93 176.76,-157.44 176.3,-157.95 175.81,-158.44 175.32,-158.93 174.79,-159.4 174.23,-159.86 173.67,-160.31 173.08,-160.75 172.45,-161.17 171.83,-161.58 171.17,-161.98 170.49,-162.35 169.81,-162.73 169.1,-163.08 168.36,-163.41 167.63,-163.73 166.87,-164.04 166.09,-164.31 165.31,-164.59 164.51,-164.84 163.69,-165.07 162.88,-165.3 162.04,-165.49 161.2,-165.66 160.35,-165.84 159.49,-165.98 158.63,-166.09 157.76,-166.21 156.89,-166.3 156.01,-166.35 155.13,-166.41 154.24,-166.44 153.36,-166.44 152.48,-166.44 151.59,-166.41 150.71,-166.35 149.83,-166.3 148.96,-166.21 148.09,-166.09 147.23,-165.98 146.37,-165.84 145.52,-165.66 144.68,-165.49 143.84,-165.3 143.03,-165.07 142.21,-164.84 141.41,-164.59 140.63,-164.31 139.85,-164.04 139.09,-163.73 138.36,-163.41 137.62,-163.08 136.91,-162.73 136.23,-162.35 135.55,-161.98 134.89,-161.58 134.27,-161.17 133.64,-160.75 133.05,-160.31 132.49,-159.86 131.93,-159.4 131.4,-158.93 130.91,-158.44 130.42,-157.95 129.96,-157.44 129.55,-156.93 129.13,-156.41 128.75,-155.87 128.42,-155.33 128.08,-154.78 127.78,-154.23 127.52,-153.67 127.27,-153.1 127.05,-152.53 126.88,-151.95 126.71,-151.37 126.58,-150.79 126.49,-150.2 126.4,-149.62 126.36,-149.03 126.36,-148.44 126.36,-148.44 153.36,-148.44 153.36,-148.44"/>
<path fill="#ffddcc" stroke="black" stroke-width="0.5" d="M153.36,-148.44C153.36,-148.44 126.36,-148.44 126.36,-148.44 126.36,-147.85 126.4,-147.26 126.49,-146.68 126.58,-146.09 126.71,-145.51 126.88,-144.93 127.05,-144.35 127.27,-143.78 127.52,-143.21 127.78,-142.65 128.08,-142.1 128.42,-141.55 128.75,-141.01 129.13,-140.47 129.55,-139.95 129.96,-139.44 130.42,-138.93 130.91,-138.44 131.4,-137.95 131.93,-137.48 132.49,-137.02 133.05,-136.57 133.64,-136.13 134.27,-135.71 134.89,-135.3 135.55,-134.9 136.23,-134.53 136.91,-134.15 137.62,-133.8 138.36,-133.47 139.09,-133.15 139.85,-132.84 140.63,-132.57 141.41,-132.29 142.21,-132.04 143.03,-131.81 143.84,-131.58 144.68,-131.39 145.52,-131.22 146.37,-131.04 147.23,-130.9 148.09,-130.79 148.96,-130.67 149.83,-130.58 150.71,-130.53 151.59,-130.47 152.48,-130.44 153.36,-130.44 154.24,-130.44 155.13,-130.47 156.01,-130.53 156.89,-130.58 157.76,-130.67 158.63,-130.79 159.49,-130.9 160.35,-131.04 161.2,-131.22 162.04,-131.39 162.88,-131.58 163.69,-131.81 164.51,-132.04 165.31,-132.29 166.09,-132.57 166.87,-132.84 167.63,-133.15 168.36,-133.47 169.1,-133.8 169.81,-134.15 170.49,-134.53 171.17,-134.9 171.83,-135.3 172.45,-135.71 173.08,-136.13 173.67,-136.57 174.23,-137.02 174.79,-137.48 175.32,-137.95 175.81,-138.44 176.3,-138.93 176.76,-139.44 177.17,-139.95 177.59,-140.47 177.97,-141.01 178.3,-141.55 178.64,-142.1 178.94,-142.65 179.2,-143.21 179.45,-143.78 179.67,-144.35 179.84,-144.93 180.01,-145.51 180.14,-146.09 180.23,-146.68 180.32,-147.26 180.36,-147.85 180.36,-148.44 180.36,-148.44 153.36,-148.44 153.36,-148.44"/>
<ellipse fill="none" stroke="black" cx="153.36" cy="-148.44" rx="27" ry="18"/>
<text xml:space="preserve" text-anchor="middle" x="153.36" y="-144.74" font-family="Times,serif" font-size="11.00">3</text>
</g>
<!-- n1&#45;&gt;n3 -->
<g id="edge2" class="edge">
<title>n1&#45;&gt;n3</title>
<path fill="none" stroke="#ddbb99" d="M122.82,-212.47C127.93,-201.92 134.55,-188.26 140.32,-176.35"/>
<polygon fill="#ddbb99" stroke="#ddbb99" points="143.44,-177.94 144.65,-167.41 137.14,-174.88 143.44,-177.94"/>
<text xml:space="preserve" text-anchor="middle" x="147.45" y="-186.39" font-family="Times,serif" font-size="9.00" fill="#ddbb99"> 3 * x </text>
</g>
<!-- n4 -->
<g id="node4" class="node">
<title>n4</title>
<path fill="#ccddff" stroke="black" stroke-width="0.5" d="M45.36,-65.94C45.36,-65.94 72.36,-65.94 72.36,-65.94 72.36,-66.53 72.32,-67.12 72.23,-67.7 72.14,-68.29 72.01,-68.87 71.84,-69.45 71.67,-70.03 71.45,-70.6 71.2,-71.17 70.94,-71.73 70.64,-72.28 70.3,-72.83 69.97,-73.37 69.59,-73.91 69.17,-74.43 68.76,-74.94 68.3,-75.45 67.81,-75.94 67.32,-76.43 66.79,-76.9 66.23,-77.36 65.67,-77.81 65.08,-78.25 64.45,-78.67 63.83,-79.08 63.17,-79.48 62.49,-79.85 61.81,-80.23 61.1,-80.58 60.36,-80.91 59.63,-81.23 58.87,-81.54 58.09,-81.81 57.31,-82.09 56.51,-82.34 55.69,-82.57 54.88,-82.8 54.04,-82.99 53.2,-83.16 52.35,-83.34 51.49,-83.48 50.63,-83.59 49.76,-83.71 48.89,-83.8 48.01,-83.85 47.13,-83.91 46.24,-83.94 45.36,-83.94 44.48,-83.94 43.59,-83.91 42.71,-83.85 41.83,-83.8 40.96,-83.71 40.09,-83.59 39.23,-83.48 38.37,-83.34 37.52,-83.16 36.68,-82.99 35.84,-82.8 35.03,-82.57 34.21,-82.34 33.41,-82.09 32.63,-81.81 31.85,-81.54 31.09,-81.23 30.36,-80.91 29.62,-80.58 28.91,-80.23 28.23,-79.85 27.55,-79.48 26.89,-79.08 26.27,-78.67 25.64,-78.25 25.05,-77.81 24.49,-77.36 23.93,-76.9 23.4,-76.43 22.91,-75.94 22.42,-75.45 21.96,-74.94 21.55,-74.43 21.13,-73.91 20.75,-73.37 20.42,-72.83 20.08,-72.28 19.78,-71.73 19.52,-71.17 19.27,-70.6 19.05,-70.03 18.88,-69.45 18.71,-68.87 18.58,-68.29 18.49,-67.7 18.4,-67.12 18.36,-66.53 18.36,-65.94 18.36,-65.94 45.36,-65.94 45.36,-65.94"/>
<path fill="#ffddcc" stroke="black" stroke-width="0.5" d="M45.36,-65.94C45.36,-65.94 18.36,-65.94 18.36,-65.94 18.36,-65.35 18.4,-64.76 18.49,-64.18 18.58,-63.59 18.71,-63.01 18.88,-62.43 19.05,-61.85 19.27,-61.28 19.52,-60.71 19.78,-60.15 20.08,-59.6 20.42,-59.05 20.75,-58.51 21.13,-57.97 21.55,-57.45 21.96,-56.94 22.42,-56.43 22.91,-55.94 23.4,-55.45 23.93,-54.98 24.49,-54.52 25.05,-54.07 25.64,-53.63 26.27,-53.21 26.89,-52.8 27.55,-52.4 28.23,-52.03 28.91,-51.65 29.62,-51.3 30.36,-50.97 31.09,-50.65 31.85,-50.34 32.63,-50.07 33.41,-49.79 34.21,-49.54 35.03,-49.31 35.84,-49.08 36.68,-48.89 37.52,-48.72 38.37,-48.54 39.23,-48.4 40.09,-48.29 40.96,-48.17 41.83,-48.08 42.71,-48.03 43.59,-47.97 44.48,-47.94 45.36,-47.94 46.24,-47.94 47.13,-47.97 48.01,-48.03 48.89,-48.08 49.76,-48.17 50.63,-48.29 51.49,-48.4 52.35,-48.54 53.2,-48.72 54.04,-48.89 54.88,-49.08 55.69,-49.31 56.51,-49.54 57.31,-49.79 58.09,-50.07 58.87,-50.34 59.63,-50.65 60.36,-50.97 61.1,-51.3 61.81,-51.65 62.49,-52.03 63.17,-52.4 63.83,-52.8 64.45,-53.21 65.08,-53.63 65.67,-54.07 66.23,-54.52 66.79,-54.98 67.32,-55.45 67.81,-55.94 68.3,-56.43 68.76,-56.94 69.17,-57.45 69.59,-57.97 69.97,-58.51 70.3,-59.05 70.64,-59.6 70.94,-60.15 71.2,-60.71 71.45,-61.28 71.67,-61.85 71.84,-62.43 72.01,-63.01 72.14,-63.59 72.23,-64.18 72.32,-64.76 72.36,-65.35 72.36,-65.94 72.36,-65.94 45.36,-65.94 45.36,-65.94"/>
<ellipse fill="none" stroke="black" cx="45.36" cy="-65.94" rx="27" ry="18"/>
<text xml:space="preserve" text-anchor="middle" x="45.36" y="-62.24" font-family="Times,serif" font-size="11.00">4</text>
</g>
<!-- n2&#45;&gt;n4 -->
<g id="edge7" class="edge">
<title>n2&#45;&gt;n4</title>
<path fill="none" stroke="#6688bb" d="M64.93,-134.1C58.8,-128.16 52.45,-120.64 48.86,-112.44 46.56,-107.18 45.28,-101.26 44.63,-95.46"/>
<polygon fill="#6688bb" stroke="#6688bb" points="48.13,-95.33 44.12,-85.52 41.14,-95.69 48.13,-95.33"/>
<text xml:space="preserve" text-anchor="middle" x="60.11" y="-103.89" font-family="Times,serif" font-size="9.00" fill="#6688bb"> 2 * x </text>
</g>
<!-- n6 -->
<g id="node6" class="node">
<title>n6</title>
<path fill="#ccddff" stroke="black" stroke-width="0.5" d="M117.36,-65.94C117.36,-65.94 144.36,-65.94 144.36,-65.94 144.36,-66.53 144.32,-67.12 144.23,-67.7 144.14,-68.29 144.01,-68.87 143.84,-69.45 143.67,-70.03 143.45,-70.6 143.2,-71.17 142.94,-71.73 142.64,-72.28 142.3,-72.83 141.97,-73.37 141.59,-73.91 141.17,-74.43 140.76,-74.94 140.3,-75.45 139.81,-75.94 139.32,-76.43 138.79,-76.9 138.23,-77.36 137.67,-77.81 137.08,-78.25 136.45,-78.67 135.83,-79.08 135.17,-79.48 134.49,-79.85 133.81,-80.23 133.1,-80.58 132.36,-80.91 131.63,-81.23 130.87,-81.54 130.09,-81.81 129.31,-82.09 128.51,-82.34 127.69,-82.57 126.88,-82.8 126.04,-82.99 125.2,-83.16 124.35,-83.34 123.49,-83.48 122.63,-83.59 121.76,-83.71 120.89,-83.8 120.01,-83.85 119.13,-83.91 118.24,-83.94 117.36,-83.94 116.48,-83.94 115.59,-83.91 114.71,-83.85 113.83,-83.8 112.96,-83.71 112.09,-83.59 111.23,-83.48 110.37,-83.34 109.52,-83.16 108.68,-82.99 107.84,-82.8 107.03,-82.57 106.21,-82.34 105.41,-82.09 104.63,-81.81 103.85,-81.54 103.09,-81.23 102.36,-80.91 101.62,-80.58 100.91,-80.23 100.23,-79.85 99.55,-79.48 98.89,-79.08 98.27,-78.67 97.64,-78.25 97.05,-77.81 96.49,-77.36 95.93,-76.9 95.4,-76.43 94.91,-75.94 94.42,-75.45 93.96,-74.94 93.55,-74.43 93.13,-73.91 92.75,-73.37 92.42,-72.83 92.08,-72.28 91.78,-71.73 91.52,-71.17 91.27,-70.6 91.05,-70.03 90.88,-69.45 90.71,-68.87 90.58,-68.29 90.49,-67.7 90.4,-67.12 90.36,-66.53 90.36,-65.94 90.36,-65.94 117.36,-65.94 117.36,-65.94"/>
<path fill="#ffddcc" stroke="black" stroke-width="0.5" d="M117.36,-65.94C117.36,-65.94 90.36,-65.94 90.36,-65.94 90.36,-65.35 90.4,-64.76 90.49,-64.18 90.58,-63.59 90.71,-63.01 90.88,-62.43 91.05,-61.85 91.27,-61.28 91.52,-60.71 91.78,-60.15 92.08,-59.6 92.42,-59.05 92.75,-58.51 93.13,-57.97 93.55,-57.45 93.96,-56.94 94.42,-56.43 94.91,-55.94 95.4,-55.45 95.93,-54.98 96.49,-54.52 97.05,-54.07 97.64,-53.63 98.27,-53.21 98.89,-52.8 99.55,-52.4 100.23,-52.03 100.91,-51.65 101.62,-51.3 102.36,-50.97 103.09,-50.65 103.85,-50.34 104.63,-50.07 105.41,-49.79 106.21,-49.54 107.03,-49.31 107.84,-49.08 108.68,-48.89 109.52,-48.72 110.37,-48.54 111.23,-48.4 112.09,-48.29 112.96,-48.17 113.83,-48.08 114.71,-48.03 115.59,-47.97 116.48,-47.94 117.36,-47.94 118.24,-47.94 119.13,-47.97 120.01,-48.03 120.89,-48.08 121.76,-48.17 122.63,-48.29 123.49,-48.4 124.35,-48.54 125.2,-48.72 126.04,-48.89 126.88,-49.08 127.69,-49.31 128.51,-49.54 129.31,-49.79 130.09,-50.07 130.87,-50.34 131.63,-50.65 132.36,-50.97 133.1,-51.3 133.81,-51.65 134.49,-52.03 135.17,-52.4 135.83,-52.8 136.45,-53.21 137.08,-53.63 137.67,-54.07 138.23,-54.52 138.79,-54.98 139.32,-55.45 139.81,-55.94 140.3,-56.43 140.76,-56.94 141.17,-57.45 141.59,-57.97 141.97,-58.51 142.3,-59.05 142.64,-59.6 142.94,-60.15 143.2,-60.71 143.45,-61.28 143.67,-61.85 143.84,-62.43 144.01,-63.01 144.14,-63.59 144.23,-64.18 144.32,-64.76 144.36,-65.35 144.36,-65.94 144.36,-65.94 117.36,-65.94 117.36,-65.94"/>
<ellipse fill="none" stroke="black" cx="117.36" cy="-65.94" rx="27" ry="18"/>
<text xml:space="preserve" text-anchor="middle" x="117.36" y="-62.24" font-family="Times,serif" font-size="11.00">6</text>
</g>
<!-- n2&#45;&gt;n6 -->
<g id="edge8" class="edge">
<title>n2&#45;&gt;n6</title>
<path fill="none" stroke="#ddbb99" d="M85.78,-130.22C88.27,-121.55 91.72,-110.98 95.86,-101.94 97.3,-98.8 98.96,-95.59 100.72,-92.46"/>
<polygon fill="#ddbb99" stroke="#ddbb99" points="103.55,-94.55 105.67,-84.17 97.54,-90.96 103.55,-94.55"/>
<text xml:space="preserve" text-anchor="middle" x="107.11" y="-103.89" font-family="Times,serif" font-size="9.00" fill="#ddbb99"> 3 * x </text>
</g>
<!-- n3&#45;&gt;n6 -->
<g id="edge9" class="edge">
<title>n3&#45;&gt;n6</title>
<path fill="none" stroke="#6688bb" d="M145.9,-130.76C141.17,-120.18 134.94,-106.25 129.51,-94.1"/>
<polygon fill="#6688bb" stroke="#6688bb" points="132.71,-92.68 125.43,-84.98 126.31,-95.54 132.71,-92.68"/>
<text xml:space="preserve" text-anchor="middle" x="148.77" y="-103.89" font-family="Times,serif" font-size="9.00" fill="#6688bb"> 2 * x </text>
</g>
<!-- n9 -->
<g id="node7" class="node">
<title>n9</title>
<path fill="#ccddff" stroke="black" stroke-width="0.5" d="M189.36,-65.94C189.36,-65.94 216.36,-65.94 216.36,-65.94 216.36,-66.53 216.32,-67.12 216.23,-67.7 216.14,-68.29 216.01,-68.87 215.84,-69.45 215.67,-70.03 215.45,-70.6 215.2,-71.17 214.94,-71.73 214.64,-72.28 214.3,-72.83 213.97,-73.37 213.59,-73.91 213.17,-74.43 212.76,-74.94 212.3,-75.45 211.81,-75.94 211.32,-76.43 210.79,-76.9 210.23,-77.36 209.67,-77.81 209.08,-78.25 208.45,-78.67 207.83,-79.08 207.17,-79.48 206.49,-79.85 205.81,-80.23 205.1,-80.58 204.36,-80.91 203.63,-81.23 202.87,-81.54 202.09,-81.81 201.31,-82.09 200.51,-82.34 199.69,-82.57 198.88,-82.8 198.04,-82.99 197.2,-83.16 196.35,-83.34 195.49,-83.48 194.63,-83.59 193.76,-83.71 192.89,-83.8 192.01,-83.85 191.13,-83.91 190.24,-83.94 189.36,-83.94 188.48,-83.94 187.59,-83.91 186.71,-83.85 185.83,-83.8 184.96,-83.71 184.09,-83.59 183.23,-83.48 182.37,-83.34 181.52,-83.16 180.68,-82.99 179.84,-82.8 179.03,-82.57 178.21,-82.34 177.41,-82.09 176.63,-81.81 175.85,-81.54 175.09,-81.23 174.36,-80.91 173.62,-80.58 172.91,-80.23 172.23,-79.85 171.55,-79.48 170.89,-79.08 170.27,-78.67 169.64,-78.25 169.05,-77.81 168.49,-77.36 167.93,-76.9 167.4,-76.43 166.91,-75.94 166.42,-75.45 165.96,-74.94 165.55,-74.43 165.13,-73.91 164.75,-73.37 164.42,-72.83 164.08,-72.28 163.78,-71.73 163.52,-71.17 163.27,-70.6 163.05,-70.03 162.88,-69.45 162.71,-68.87 162.58,-68.29 162.49,-67.7 162.4,-67.12 162.36,-66.53 162.36,-65.94 162.36,-65.94 189.36,-65.94 189.36,-65.94"/>
<path fill="#ffddcc" stroke="black" stroke-width="0.5" d="M189.36,-65.94C189.36,-65.94 162.36,-65.94 162.36,-65.94 162.36,-65.35 162.4,-64.76 162.49,-64.18 162.58,-63.59 162.71,-63.01 162.88,-62.43 163.05,-61.85 163.27,-61.28 163.52,-60.71 163.78,-60.15 164.08,-59.6 164.42,-59.05 164.75,-58.51 165.13,-57.97 165.55,-57.45 165.96,-56.94 166.42,-56.43 166.91,-55.94 167.4,-55.45 167.93,-54.98 168.49,-54.52 169.05,-54.07 169.64,-53.63 170.27,-53.21 170.89,-52.8 171.55,-52.4 172.23,-52.03 172.91,-51.65 173.62,-51.3 174.36,-50.97 175.09,-50.65 175.85,-50.34 176.63,-50.07 177.41,-49.79 178.21,-49.54 179.03,-49.31 179.84,-49.08 180.68,-48.89 181.52,-48.72 182.37,-48.54 183.23,-48.4 184.09,-48.29 184.96,-48.17 185.83,-48.08 186.71,-48.03 187.59,-47.97 188.48,-47.94 189.36,-47.94 190.24,-47.94 191.13,-47.97 192.01,-48.03 192.89,-48.08 193.76,-48.17 194.63,-48.29 195.49,-48.4 196.35,-48.54 197.2,-48.72 198.04,-48.89 198.88,-49.08 199.69,-49.31 200.51,-49.54 201.31,-49.79 202.09,-50.07 202.87,-50.34 203.63,-50.65 204.36,-50.97 205.1,-51.3 205.81,-51.65 206.49,-52.03 207.17,-52.4 207.83,-52.8 208.45,-53.21 209.08,-53.63 209.67,-54.07 210.23,-54.52 210.79,-54.98 211.32,-55.45 211.81,-55.94 212.3,-56.43 212.76,-56.94 213.17,-57.45 213.59,-57.97 213.97,-58.51 214.3,-59.05 214.64,-59.6 214.94,-60.15 215.2,-60.71 215.45,-61.28 215.67,-61.85 215.84,-62.43 216.01,-63.01 216.14,-63.59 216.23,-64.18 216.32,-64.76 216.36,-65.35 216.36,-65.94 216.36,-65.94 189.36,-65.94 189.36,-65.94"/>
<ellipse fill="none" stroke="black" cx="189.36" cy="-65.94" rx="27" ry="18"/>
<text xml:space="preserve" text-anchor="middle" x="189.36" y="-62.24" font-family="Times,serif" font-size="11.00">9</text>
</g>
<!-- n3&#45;&gt;n9 -->
<g id="edge10" class="edge">
<title>n3&#45;&gt;n9</title>
<path fill="none" stroke="#ddbb99" d="M160.82,-130.76C165.55,-120.18 171.78,-106.25 177.21,-94.1"/>
<polygon fill="#ddbb99" stroke="#ddbb99" points="180.41,-95.54 181.29,-84.98 174.01,-92.68 180.41,-95.54"/>
<text xml:space="preserve" text-anchor="middle" x="184.77" y="-103.89" font-family="Times,serif" font-size="9.00" fill="#ddbb99"> 3 * x </text>
</g>
<!-- ghost_out_4_0 -->
<g id="node13" class="node">
<title>ghost_out_4_0</title>
</g>
<!-- n4&#45;&gt;ghost_out_4_0 -->
<g id="edge13" class="edge">
<title>n4&#45;&gt;ghost_out_4_0</title>
<path fill="none" stroke="#6688bb" stroke-dasharray="5,2" d="M33.84,-49.33C29.42,-43.3 24.37,-36.33 19.86,-29.94 15.44,-23.68 10.57,-16.56 6.8,-11"/>
<polygon fill="#6688bb" stroke="#6688bb" points="9.73,-9.08 1.24,-2.74 3.92,-12.99 9.73,-9.08"/>
<text xml:space="preserve" text-anchor="middle" x="31.11" y="-21.39" font-family="Times,serif" font-size="9.00" fill="#6688bb"> 2 * x </text>
</g>
<!-- ghost_out_4_1 -->
<g id="node14" class="node">
<title>ghost_out_4_1</title>
</g>
<!-- n4&#45;&gt;ghost_out_4_1 -->
<g id="edge14" class="edge">
<title>n4&#45;&gt;ghost_out_4_1</title>
<path fill="none" stroke="#ddbb99" stroke-dasharray="5,2" d="M45.63,-47.59C45.81,-36.49 46.03,-22.41 46.18,-12.74"/>
<polygon fill="#ddbb99" stroke="#ddbb99" points="49.68,-13.09 46.33,-3.03 42.68,-12.98 49.68,-13.09"/>
<text xml:space="preserve" text-anchor="middle" x="57.31" y="-21.39" font-family="Times,serif" font-size="9.00" fill="#ddbb99"> 3 * x </text>
</g>
<!-- n5 -->
<g id="node5" class="node">
<title>n5</title>
<path fill="#ccddff" stroke="black" stroke-width="0.5" d="M396.36,-230.94C396.36,-230.94 423.36,-230.94 423.36,-230.94 423.36,-231.53 423.32,-232.12 423.23,-232.7 423.14,-233.29 423.01,-233.87 422.84,-234.45 422.67,-235.03 422.45,-235.6 422.2,-236.17 421.94,-236.73 421.64,-237.28 421.3,-237.83 420.97,-238.37 420.59,-238.91 420.17,-239.43 419.76,-239.94 419.3,-240.45 418.81,-240.94 418.32,-241.43 417.79,-241.9 417.23,-242.36 416.67,-242.81 416.08,-243.25 415.45,-243.67 414.83,-244.08 414.17,-244.48 413.49,-244.85 412.81,-245.23 412.1,-245.58 411.36,-245.91 410.63,-246.23 409.87,-246.54 409.09,-246.81 408.31,-247.09 407.51,-247.34 406.69,-247.57 405.88,-247.8 405.04,-247.99 404.2,-248.16 403.35,-248.34 402.49,-248.48 401.63,-248.59 400.76,-248.71 399.89,-248.8 399.01,-248.85 398.13,-248.91 397.24,-248.94 396.36,-248.94 395.48,-248.94 394.59,-248.91 393.71,-248.85 392.83,-248.8 391.96,-248.71 391.09,-248.59 390.23,-248.48 389.37,-248.34 388.52,-248.16 387.68,-247.99 386.84,-247.8 386.03,-247.57 385.21,-247.34 384.41,-247.09 383.63,-246.81 382.85,-246.54 382.09,-246.23 381.36,-245.91 380.62,-245.58 379.91,-245.23 379.23,-244.85 378.55,-244.48 377.89,-244.08 377.27,-243.67 376.64,-243.25 376.05,-242.81 375.49,-242.36 374.93,-241.9 374.4,-241.43 373.91,-240.94 373.42,-240.45 372.96,-239.94 372.55,-239.43 372.13,-238.91 371.75,-238.37 371.42,-237.83 371.08,-237.28 370.78,-236.73 370.52,-236.17 370.27,-235.6 370.05,-235.03 369.88,-234.45 369.71,-233.87 369.58,-233.29 369.49,-232.7 369.4,-232.12 369.36,-231.53 369.36,-230.94 369.36,-230.94 396.36,-230.94 396.36,-230.94"/>
<path fill="#ffddcc" stroke="black" stroke-width="0.5" d="M396.36,-230.94C396.36,-230.94 369.36,-230.94 369.36,-230.94 369.36,-230.35 369.4,-229.76 369.49,-229.18 369.58,-228.59 369.71,-228.01 369.88,-227.43 370.05,-226.85 370.27,-226.28 370.52,-225.71 370.78,-225.15 371.08,-224.6 371.42,-224.05 371.75,-223.51 372.13,-222.97 372.55,-222.45 372.96,-221.94 373.42,-221.43 373.91,-220.94 374.4,-220.45 374.93,-219.98 375.49,-219.52 376.05,-219.07 376.64,-218.63 377.27,-218.21 377.89,-217.8 378.55,-217.4 379.23,-217.03 379.91,-216.65 380.62,-216.3 381.36,-215.97 382.09,-215.65 382.85,-215.34 383.63,-215.07 384.41,-214.79 385.21,-214.54 386.03,-214.31 386.84,-214.08 387.68,-213.89 388.52,-213.72 389.37,-213.54 390.23,-213.4 391.09,-213.29 391.96,-213.17 392.83,-213.08 393.71,-213.03 394.59,-212.97 395.48,-212.94 396.36,-212.94 397.24,-212.94 398.13,-212.97 399.01,-213.03 399.89,-213.08 400.76,-213.17 401.63,-213.29 402.49,-213.4 403.35,-213.54 404.2,-213.72 405.04,-213.89 405.88,-214.08 406.69,-214.31 407.51,-214.54 408.31,-214.79 409.09,-215.07 409.87,-215.34 410.63,-215.65 411.36,-215.97 412.1,-216.3 412.81,-216.65 413.49,-217.03 414.17,-217.4 414.83,-217.8 415.45,-218.21 416.08,-218.63 416.67,-219.07 417.23,-219.52 417.79,-219.98 418.32,-220.45 418.81,-220.94 419.3,-221.43 419.76,-221.94 420.17,-222.45 420.59,-222.97 420.97,-223.51 421.3,-224.05 421.64,-224.6 421.94,-225.15 422.2,-225.71 422.45,-226.28 422.67,-226.85 422.84,-227.43 423.01,-228.01 423.14,-228.59 423.23,-229.18 423.32,-229.76 423.36,-230.35 423.36,-230.94 423.36,-230.94 396.36,-230.94 396.36,-230.94"/>
<ellipse fill="none" stroke="black" stroke-width="3" cx="396.36" cy="-230.94" rx="27" ry="18"/>
<text xml:space="preserve" text-anchor="middle" x="396.36" y="-227.24" font-family="Times,serif" font-size="11.00">5</text>
</g>
<!-- n10 -->
<g id="node8" class="node">
<title>n10</title>
<path fill="#ccddff" stroke="black" stroke-width="0.5" d="M361.36,-148.44C361.36,-148.44 388.36,-148.44 388.36,-148.44 388.36,-149.03 388.32,-149.62 388.23,-150.2 388.14,-150.79 388.01,-151.37 387.84,-151.95 387.67,-152.53 387.45,-153.1 387.2,-153.67 386.94,-154.23 386.64,-154.78 386.3,-155.33 385.97,-155.87 385.59,-156.41 385.17,-156.93 384.76,-157.44 384.3,-157.95 383.81,-158.44 383.32,-158.93 382.79,-159.4 382.23,-159.86 381.67,-160.31 381.08,-160.75 380.45,-161.17 379.83,-161.58 379.17,-161.98 378.49,-162.35 377.81,-162.73 377.1,-163.08 376.36,-163.41 375.63,-163.73 374.87,-164.04 374.09,-164.31 373.31,-164.59 372.51,-164.84 371.69,-165.07 370.88,-165.3 370.04,-165.49 369.2,-165.66 368.35,-165.84 367.49,-165.98 366.63,-166.09 365.76,-166.21 364.89,-166.3 364.01,-166.35 363.13,-166.41 362.24,-166.44 361.36,-166.44 360.48,-166.44 359.59,-166.41 358.71,-166.35 357.83,-166.3 356.96,-166.21 356.09,-166.09 355.23,-165.98 354.37,-165.84 353.52,-165.66 352.68,-165.49 351.84,-165.3 351.03,-165.07 350.21,-164.84 349.41,-164.59 348.63,-164.31 347.85,-164.04 347.09,-163.73 346.36,-163.41 345.62,-163.08 344.91,-162.73 344.23,-162.35 343.55,-161.98 342.89,-161.58 342.27,-161.17 341.64,-160.75 341.05,-160.31 340.49,-159.86 339.93,-159.4 339.4,-158.93 338.91,-158.44 338.42,-157.95 337.96,-157.44 337.55,-156.93 337.13,-156.41 336.75,-155.87 336.42,-155.33 336.08,-154.78 335.78,-154.23 335.52,-153.67 335.27,-153.1 335.05,-152.53 334.88,-151.95 334.71,-151.37 334.58,-150.79 334.49,-150.2 334.4,-149.62 334.36,-149.03 334.36,-148.44 334.36,-148.44 361.36,-148.44 361.36,-148.44"/>
<path fill="#ffddcc" stroke="black" stroke-width="0.5" d="M361.36,-148.44C361.36,-148.44 334.36,-148.44 334.36,-148.44 334.36,-147.85 334.4,-147.26 334.49,-146.68 334.58,-146.09 334.71,-145.51 334.88,-144.93 335.05,-144.35 335.27,-143.78 335.52,-143.21 335.78,-142.65 336.08,-142.1 336.42,-141.55 336.75,-141.01 337.13,-140.47 337.55,-139.95 337.96,-139.44 338.42,-138.93 338.91,-138.44 339.4,-137.95 339.93,-137.48 340.49,-137.02 341.05,-136.57 341.64,-136.13 342.27,-135.71 342.89,-135.3 343.55,-134.9 344.23,-134.53 344.91,-134.15 345.62,-133.8 346.36,-133.47 347.09,-133.15 347.85,-132.84 348.63,-132.57 349.41,-132.29 350.21,-132.04 351.03,-131.81 351.84,-131.58 352.68,-131.39 353.52,-131.22 354.37,-131.04 355.23,-130.9 356.09,-130.79 356.96,-130.67 357.83,-130.58 358.71,-130.53 359.59,-130.47 360.48,-130.44 361.36,-130.44 362.24,-130.44 363.13,-130.47 364.01,-130.53 364.89,-130.58 365.76,-130.67 366.63,-130.79 367.49,-130.9 368.35,-131.04 369.2,-131.22 370.04,-131.39 370.88,-131.58 371.69,-131.81 372.51,-132.04 373.31,-132.29 374.09,-132.57 374.87,-132.84 375.63,-133.15 376.36,-133.47 377.1,-133.8 377.81,-134.15 378.49,-134.53 379.17,-134.9 379.83,-135.3 380.45,-135.71 381.08,-136.13 381.67,-136.57 382.23,-137.02 382.79,-137.48 383.32,-137.95 383.81,-138.44 384.3,-138.93 384.76,-139.44 385.17,-139.95 385.59,-140.47 385.97,-141.01 386.3,-141.55 386.64,-142.1 386.94,-142.65 387.2,-143.21 387.45,-143.78 387.67,-144.35 387.84,-144.93 388.01,-145.51 388.14,-146.09 388.23,-146.68 388.32,-147.26 388.36,-147.85 388.36,-148.44 388.36,-148.44 361.36,-148.44 361.36,-148.44"/>
<ellipse fill="none" stroke="black" cx="361.36" cy="-148.44" rx="27" ry="18"/>
<text xml:space="preserve" text-anchor="middle" x="361.36" y="-144.74" font-family="Times,serif" font-size="11.00">10</text>
</g>
<!-- n5&#45;&gt;n10 -->
<g id="edge11" class="edge">
<title>n5&#45;&gt;n10</title>
<path fill="none" stroke="#6688bb" d="M388.77,-212.47C384.18,-201.92 378.24,-188.26 373.06,-176.35"/>
<polygon fill="#6688bb" stroke="#6688bb" points="376.38,-175.21 369.18,-167.44 369.96,-178 376.38,-175.21"/>
<text xml:space="preserve" text-anchor="middle" x="392.21" y="-186.39" font-family="Times,serif" font-size="9.00" fill="#6688bb"> 2 * x </text>
</g>
<!-- n15 -->
<g id="node9" class="node">
<title>n15</title>
<path fill="#ccddff" stroke="black" stroke-width="0.5" d="M433.36,-148.44C433.36,-148.44 460.36,-148.44 460.36,-148.44 460.36,-149.03 460.32,-149.62 460.23,-150.2 460.14,-150.79 460.01,-151.37 459.84,-151.95 459.67,-152.53 459.45,-153.1 459.2,-153.67 458.94,-154.23 458.64,-154.78 458.3,-155.33 457.97,-155.87 457.59,-156.41 457.17,-156.93 456.76,-157.44 456.3,-157.95 455.81,-158.44 455.32,-158.93 454.79,-159.4 454.23,-159.86 453.67,-160.31 453.08,-160.75 452.45,-161.17 451.83,-161.58 451.17,-161.98 450.49,-162.35 449.81,-162.73 449.1,-163.08 448.36,-163.41 447.63,-163.73 446.87,-164.04 446.09,-164.31 445.31,-164.59 444.51,-164.84 443.69,-165.07 442.88,-165.3 442.04,-165.49 441.2,-165.66 440.35,-165.84 439.49,-165.98 438.63,-166.09 437.76,-166.21 436.89,-166.3 436.01,-166.35 435.13,-166.41 434.24,-166.44 433.36,-166.44 432.48,-166.44 431.59,-166.41 430.71,-166.35 429.83,-166.3 428.96,-166.21 428.09,-166.09 427.23,-165.98 426.37,-165.84 425.52,-165.66 424.68,-165.49 423.84,-165.3 423.03,-165.07 422.21,-164.84 421.41,-164.59 420.63,-164.31 419.85,-164.04 419.09,-163.73 418.36,-163.41 417.62,-163.08 416.91,-162.73 416.23,-162.35 415.55,-161.98 414.89,-161.58 414.27,-161.17 413.64,-160.75 413.05,-160.31 412.49,-159.86 411.93,-159.4 411.4,-158.93 410.91,-158.44 410.42,-157.95 409.96,-157.44 409.55,-156.93 409.13,-156.41 408.75,-155.87 408.42,-155.33 408.08,-154.78 407.78,-154.23 407.52,-153.67 407.27,-153.1 407.05,-152.53 406.88,-151.95 406.71,-151.37 406.58,-150.79 406.49,-150.2 406.4,-149.62 406.36,-149.03 406.36,-148.44 406.36,-148.44 433.36,-148.44 433.36,-148.44"/>
<path fill="#ffddcc" stroke="black" stroke-width="0.5" d="M433.36,-148.44C433.36,-148.44 406.36,-148.44 406.36,-148.44 406.36,-147.85 406.4,-147.26 406.49,-146.68 406.58,-146.09 406.71,-145.51 406.88,-144.93 407.05,-144.35 407.27,-143.78 407.52,-143.21 407.78,-142.65 408.08,-142.1 408.42,-141.55 408.75,-141.01 409.13,-140.47 409.55,-139.95 409.96,-139.44 410.42,-138.93 410.91,-138.44 411.4,-137.95 411.93,-137.48 412.49,-137.02 413.05,-136.57 413.64,-136.13 414.27,-135.71 414.89,-135.3 415.55,-134.9 416.23,-134.53 416.91,-134.15 417.62,-133.8 418.36,-133.47 419.09,-133.15 419.85,-132.84 420.63,-132.57 421.41,-132.29 422.21,-132.04 423.03,-131.81 423.84,-131.58 424.68,-131.39 425.52,-131.22 426.37,-131.04 427.23,-130.9 428.09,-130.79 428.96,-130.67 429.83,-130.58 430.71,-130.53 431.59,-130.47 432.48,-130.44 433.36,-130.44 434.24,-130.44 435.13,-130.47 436.01,-130.53 436.89,-130.58 437.76,-130.67 438.63,-130.79 439.49,-130.9 440.35,-131.04 441.2,-131.22 442.04,-131.39 442.88,-131.58 443.69,-131.81 444.51,-132.04 445.31,-132.29 446.09,-132.57 446.87,-132.84 447.63,-133.15 448.36,-133.47 449.1,-133.8 449.81,-134.15 450.49,-134.53 451.17,-134.9 451.83,-135.3 452.45,-135.71 453.08,-136.13 453.67,-136.57 454.23,-137.02 454.79,-137.48 455.32,-137.95 455.81,-138.44 456.3,-138.93 456.76,-139.44 457.17,-139.95 457.59,-140.47 457.97,-141.01 458.3,-141.55 458.64,-142.1 458.94,-142.65 459.2,-143.21 459.45,-143.78 459.67,-144.35 459.84,-144.93 460.01,-145.51 460.14,-146.09 460.23,-146.68 460.32,-147.26 460.36,-147.85 460.36,-148.44 460.36,-148.44 433.36,-148.44 433.36,-148.44"/>
<ellipse fill="none" stroke="black" cx="433.36" cy="-148.44" rx="27" ry="18"/>
<text xml:space="preserve" text-anchor="middle" x="433.36" y="-144.74" font-family="Times,serif" font-size="11.00">15</text>
</g>
<!-- n5&#45;&gt;n15 -->
<g id="edge12" class="edge">
<title>n5&#45;&gt;n15</title>
<path fill="none" stroke="#ddbb99" d="M404.39,-212.47C409.24,-201.92 415.52,-188.26 420.99,-176.35"/>
<polygon fill="#ddbb99" stroke="#ddbb99" points="424.1,-177.97 425.09,-167.42 417.74,-175.05 424.1,-177.97"/>
<text xml:space="preserve" text-anchor="middle" x="428.33" y="-186.39" font-family="Times,serif" font-size="9.00" fill="#ddbb99"> 3 * x </text>
</g>
<!-- ghost_out_6_2 -->
<g id="node15" class="node">
<title>ghost_out_6_2</title>
</g>
<!-- n6&#45;&gt;ghost_out_6_2 -->
<g id="edge15" class="edge">
<title>n6&#45;&gt;ghost_out_6_2</title>
<path fill="none" stroke="#6688bb" stroke-dasharray="5,2" d="M106.05,-49.3C102.45,-43.5 98.88,-36.69 96.86,-29.94 95.23,-24.51 94.76,-18.25 94.74,-12.98"/>
<polygon fill="#6688bb" stroke="#6688bb" points="98.23,-13.17 95.27,-3 91.24,-12.8 98.23,-13.17"/>
<text xml:space="preserve" text-anchor="middle" x="108.11" y="-21.39" font-family="Times,serif" font-size="9.00" fill="#6688bb"> 2 * x </text>
</g>
<!-- ghost_out_6_3 -->
<g id="node16" class="node">
<title>ghost_out_6_3</title>
</g>
<!-- n6&#45;&gt;ghost_out_6_3 -->
<g id="edge16" class="edge">
<title>n6&#45;&gt;ghost_out_6_3</title>
<path fill="none" stroke="#ddbb99" stroke-dasharray="5,2" d="M123.67,-48.26C127.97,-36.86 133.55,-22.11 137.28,-12.23"/>
<polygon fill="#ddbb99" stroke="#ddbb99" points="140.53,-13.53 140.79,-2.94 133.98,-11.05 140.53,-13.53"/>
<text xml:space="preserve" text-anchor="middle" x="145.52" y="-21.39" font-family="Times,serif" font-size="9.00" fill="#ddbb99"> 3 * x </text>
</g>
<!-- ghost_out_9_4 -->
<g id="node17" class="node">
<title>ghost_out_9_4</title>
</g>
<!-- n9&#45;&gt;ghost_out_9_4 -->
<g id="edge17" class="edge">
<title>n9&#45;&gt;ghost_out_9_4</title>
<path fill="none" stroke="#6688bb" stroke-dasharray="5,2" d="M189.09,-47.59C188.91,-36.49 188.69,-22.41 188.54,-12.74"/>
<polygon fill="#6688bb" stroke="#6688bb" points="192.04,-12.98 188.39,-3.03 185.04,-13.09 192.04,-12.98"/>
<text xml:space="preserve" text-anchor="middle" x="200.05" y="-21.39" font-family="Times,serif" font-size="9.00" fill="#6688bb"> 2 * x </text>
</g>
<!-- ghost_out_9_5 -->
<g id="node18" class="node">
<title>ghost_out_9_5</title>
</g>
<!-- n9&#45;&gt;ghost_out_9_5 -->
<g id="edge18" class="edge">
<title>n9&#45;&gt;ghost_out_9_5</title>
<path fill="none" stroke="#ddbb99" stroke-dasharray="5,2" d="M200.48,-49.24C209.06,-37.15 220.62,-20.83 227.78,-10.73"/>
<polygon fill="#ddbb99" stroke="#ddbb99" points="230.5,-12.94 233.43,-2.76 224.79,-8.89 230.5,-12.94"/>
<text xml:space="preserve" text-anchor="middle" x="232.31" y="-21.39" font-family="Times,serif" font-size="9.00" fill="#ddbb99"> 3 * x </text>
</g>
<!-- n20 -->
<g id="node10" class="node">
<title>n20</title>
<path fill="#ccddff" stroke="black" stroke-width="0.5" d="M325.36,-65.94C325.36,-65.94 352.36,-65.94 352.36,-65.94 352.36,-66.53 352.32,-67.12 352.23,-67.7 352.14,-68.29 352.01,-68.87 351.84,-69.45 351.67,-70.03 351.45,-70.6 351.2,-71.17 350.94,-71.73 350.64,-72.28 350.3,-72.83 349.97,-73.37 349.59,-73.91 349.17,-74.43 348.76,-74.94 348.3,-75.45 347.81,-75.94 347.32,-76.43 346.79,-76.9 346.23,-77.36 345.67,-77.81 345.08,-78.25 344.45,-78.67 343.83,-79.08 343.17,-79.48 342.49,-79.85 341.81,-80.23 341.1,-80.58 340.36,-80.91 339.63,-81.23 338.87,-81.54 338.09,-81.81 337.31,-82.09 336.51,-82.34 335.69,-82.57 334.88,-82.8 334.04,-82.99 333.2,-83.16 332.35,-83.34 331.49,-83.48 330.63,-83.59 329.76,-83.71 328.89,-83.8 328.01,-83.85 327.13,-83.91 326.24,-83.94 325.36,-83.94 324.48,-83.94 323.59,-83.91 322.71,-83.85 321.83,-83.8 320.96,-83.71 320.09,-83.59 319.23,-83.48 318.37,-83.34 317.52,-83.16 316.68,-82.99 315.84,-82.8 315.03,-82.57 314.21,-82.34 313.41,-82.09 312.63,-81.81 311.85,-81.54 311.09,-81.23 310.36,-80.91 309.62,-80.58 308.91,-80.23 308.23,-79.85 307.55,-79.48 306.89,-79.08 306.27,-78.67 305.64,-78.25 305.05,-77.81 304.49,-77.36 303.93,-76.9 303.4,-76.43 302.91,-75.94 302.42,-75.45 301.96,-74.94 301.55,-74.43 301.13,-73.91 300.75,-73.37 300.42,-72.83 300.08,-72.28 299.78,-71.73 299.52,-71.17 299.27,-70.6 299.05,-70.03 298.88,-69.45 298.71,-68.87 298.58,-68.29 298.49,-67.7 298.4,-67.12 298.36,-66.53 298.36,-65.94 298.36,-65.94 325.36,-65.94 325.36,-65.94"/>
<path fill="#ffddcc" stroke="black" stroke-width="0.5" d="M325.36,-65.94C325.36,-65.94 298.36,-65.94 298.36,-65.94 298.36,-65.35 298.4,-64.76 298.49,-64.18 298.58,-63.59 298.71,-63.01 298.88,-62.43 299.05,-61.85 299.27,-61.28 299.52,-60.71 299.78,-60.15 300.08,-59.6 300.42,-59.05 300.75,-58.51 301.13,-57.97 301.55,-57.45 301.96,-56.94 302.42,-56.43 302.91,-55.94 303.4,-55.45 303.93,-54.98 304.49,-54.52 305.05,-54.07 305.64,-53.63 306.27,-53.21 306.89,-52.8 307.55,-52.4 308.23,-52.03 308.91,-51.65 309.62,-51.3 310.36,-50.97 311.09,-50.65 311.85,-50.34 312.63,-50.07 313.41,-49.79 314.21,-49.54 315.03,-49.31 315.84,-49.08 316.68,-48.89 317.52,-48.72 318.37,-48.54 319.23,-48.4 320.09,-48.29 320.96,-48.17 321.83,-48.08 322.71,-48.03 323.59,-47.97 324.48,-47.94 325.36,-47.94 326.24,-47.94 327.13,-47.97 328.01,-48.03 328.89,-48.08 329.76,-48.17 330.63,-48.29 331.49,-48.4 332.35,-48.54 333.2,-48.72 334.04,-48.89 334.88,-49.08 335.69,-49.31 336.51,-49.54 337.31,-49.79 338.09,-50.07 338.87,-50.34 339.63,-50.65 340.36,-50.97 341.1,-51.3 341.81,-51.65 342.49,-52.03 343.17,-52.4 343.83,-52.8 344.45,-53.21 345.08,-53.63 345.67,-54.07 346.23,-54.52 346.79,-54.98 347.32,-55.45 347.81,-55.94 348.3,-56.43 348.76,-56.94 349.17,-57.45 349.59,-57.97 349.97,-58.51 350.3,-59.05 350.64,-59.6 350.94,-60.15 351.2,-60.71 351.45,-61.28 351.67,-61.85 351.84,-62.43 352.01,-63.01 352.14,-63.59 352.23,-64.18 352.32,-64.76 352.36,-65.35 352.36,-65.94 352.36,-65.94 325.36,-65.94 325.36,-65.94"/>
<ellipse fill="none" stroke="black" cx="325.36" cy="-65.94" rx="27" ry="18"/>
<text xml:space="preserve" text-anchor="middle" x="325.36" y="-62.24" font-family="Times,serif" font-size="11.00">20</text>
</g>
<!-- n10&#45;&gt;n20 -->
<g id="edge3" class="edge">
<title>n10&#45;&gt;n20</title>
<path fill="none" stroke="#6688bb" d="M345.19,-133.64C339.36,-127.73 333.36,-120.37 329.86,-112.44 327.54,-107.18 326.17,-101.25 325.4,-95.46"/>
<polygon fill="#6688bb" stroke="#6688bb" points="328.89,-95.23 324.67,-85.52 321.91,-95.75 328.89,-95.23"/>
<text xml:space="preserve" text-anchor="middle" x="341.11" y="-103.89" font-family="Times,serif" font-size="9.00" fill="#6688bb"> 2 * x </text>
</g>
<!-- n30 -->
<g id="node11" class="node">
<title>n30</title>
<path fill="#ccddff" stroke="black" stroke-width="0.5" d="M397.36,-65.94C397.36,-65.94 424.36,-65.94 424.36,-65.94 424.36,-66.53 424.32,-67.12 424.23,-67.7 424.14,-68.29 424.01,-68.87 423.84,-69.45 423.67,-70.03 423.45,-70.6 423.2,-71.17 422.94,-71.73 422.64,-72.28 422.3,-72.83 421.97,-73.37 421.59,-73.91 421.17,-74.43 420.76,-74.94 420.3,-75.45 419.81,-75.94 419.32,-76.43 418.79,-76.9 418.23,-77.36 417.67,-77.81 417.08,-78.25 416.45,-78.67 415.83,-79.08 415.17,-79.48 414.49,-79.85 413.81,-80.23 413.1,-80.58 412.36,-80.91 411.63,-81.23 410.87,-81.54 410.09,-81.81 409.31,-82.09 408.51,-82.34 407.69,-82.57 406.88,-82.8 406.04,-82.99 405.2,-83.16 404.35,-83.34 403.49,-83.48 402.63,-83.59 401.76,-83.71 400.89,-83.8 400.01,-83.85 399.13,-83.91 398.24,-83.94 397.36,-83.94 396.48,-83.94 395.59,-83.91 394.71,-83.85 393.83,-83.8 392.96,-83.71 392.09,-83.59 391.23,-83.48 390.37,-83.34 389.52,-83.16 388.68,-82.99 387.84,-82.8 387.03,-82.57 386.21,-82.34 385.41,-82.09 384.63,-81.81 383.85,-81.54 383.09,-81.23 382.36,-80.91 381.62,-80.58 380.91,-80.23 380.23,-79.85 379.55,-79.48 378.89,-79.08 378.27,-78.67 377.64,-78.25 377.05,-77.81 376.49,-77.36 375.93,-76.9 375.4,-76.43 374.91,-75.94 374.42,-75.45 373.96,-74.94 373.55,-74.43 373.13,-73.91 372.75,-73.37 372.42,-72.83 372.08,-72.28 371.78,-71.73 371.52,-71.17 371.27,-70.6 371.05,-70.03 370.88,-69.45 370.71,-68.87 370.58,-68.29 370.49,-67.7 370.4,-67.12 370.36,-66.53 370.36,-65.94 370.36,-65.94 397.36,-65.94 397.36,-65.94"/>
<path fill="#ffddcc" stroke="black" stroke-width="0.5" d="M397.36,-65.94C397.36,-65.94 370.36,-65.94 370.36,-65.94 370.36,-65.35 370.4,-64.76 370.49,-64.18 370.58,-63.59 370.71,-63.01 370.88,-62.43 371.05,-61.85 371.27,-61.28 371.52,-60.71 371.78,-60.15 372.08,-59.6 372.42,-59.05 372.75,-58.51 373.13,-57.97 373.55,-57.45 373.96,-56.94 374.42,-56.43 374.91,-55.94 375.4,-55.45 375.93,-54.98 376.49,-54.52 377.05,-54.07 377.64,-53.63 378.27,-53.21 378.89,-52.8 379.55,-52.4 380.23,-52.03 380.91,-51.65 381.62,-51.3 382.36,-50.97 383.09,-50.65 383.85,-50.34 384.63,-50.07 385.41,-49.79 386.21,-49.54 387.03,-49.31 387.84,-49.08 388.68,-48.89 389.52,-48.72 390.37,-48.54 391.23,-48.4 392.09,-48.29 392.96,-48.17 393.83,-48.08 394.71,-48.03 395.59,-47.97 396.48,-47.94 397.36,-47.94 398.24,-47.94 399.13,-47.97 400.01,-48.03 400.89,-48.08 401.76,-48.17 402.63,-48.29 403.49,-48.4 404.35,-48.54 405.2,-48.72 406.04,-48.89 406.88,-49.08 407.69,-49.31 408.51,-49.54 409.31,-49.79 410.09,-50.07 410.87,-50.34 411.63,-50.65 412.36,-50.97 413.1,-51.3 413.81,-51.65 414.49,-52.03 415.17,-52.4 415.83,-52.8 416.45,-53.21 417.08,-53.63 417.67,-54.07 418.23,-54.52 418.79,-54.98 419.32,-55.45 419.81,-55.94 420.3,-56.43 420.76,-56.94 421.17,-57.45 421.59,-57.97 421.97,-58.51 422.3,-59.05 422.64,-59.6 422.94,-60.15 423.2,-60.71 423.45,-61.28 423.67,-61.85 423.84,-62.43 424.01,-63.01 424.14,-63.59 424.23,-64.18 424.32,-64.76 424.36,-65.35 424.36,-65.94 424.36,-65.94 397.36,-65.94 397.36,-65.94"/>
<ellipse fill="none" stroke="black" cx="397.36" cy="-65.94" rx="27" ry="18"/>
<text xml:space="preserve" text-anchor="middle" x="397.36" y="-62.24" font-family="Times,serif" font-size="11.00">30</text>
</g>
<!-- n10&#45;&gt;n30 -->
<g id="edge4" class="edge">
<title>n10&#45;&gt;n30</title>
<path fill="none" stroke="#ddbb99" d="M366.31,-130.27C369.03,-121.61 372.69,-111.05 376.86,-101.94 378.23,-98.94 379.79,-95.86 381.42,-92.84"/>
<polygon fill="#ddbb99" stroke="#ddbb99" points="384.39,-94.69 386.31,-84.27 378.31,-91.22 384.39,-94.69"/>
<text xml:space="preserve" text-anchor="middle" x="388.11" y="-103.89" font-family="Times,serif" font-size="9.00" fill="#ddbb99"> 3 * x </text>
</g>
<!-- n15&#45;&gt;n30 -->
<g id="edge5" class="edge">
<title>n15&#45;&gt;n30</title>
<path fill="none" stroke="#6688bb" d="M425.9,-130.76C421.17,-120.18 414.94,-106.25 409.51,-94.1"/>
<polygon fill="#6688bb" stroke="#6688bb" points="412.71,-92.68 405.43,-84.98 406.31,-95.54 412.71,-92.68"/>
<text xml:space="preserve" text-anchor="middle" x="428.77" y="-103.89" font-family="Times,serif" font-size="9.00" fill="#6688bb"> 2 * x </text>
</g>
<!-- n45 -->
<g id="node12" class="node">
<title>n45</title>
<path fill="#ccddff" stroke="black" stroke-width="0.5" d="M469.36,-65.94C469.36,-65.94 496.36,-65.94 496.36,-65.94 496.36,-66.53 496.32,-67.12 496.23,-67.7 496.14,-68.29 496.01,-68.87 495.84,-69.45 495.67,-70.03 495.45,-70.6 495.2,-71.17 494.94,-71.73 494.64,-72.28 494.3,-72.83 493.97,-73.37 493.59,-73.91 493.17,-74.43 492.76,-74.94 492.3,-75.45 491.81,-75.94 491.32,-76.43 490.79,-76.9 490.23,-77.36 489.67,-77.81 489.08,-78.25 488.45,-78.67 487.83,-79.08 487.17,-79.48 486.49,-79.85 485.81,-80.23 485.1,-80.58 484.36,-80.91 483.63,-81.23 482.87,-81.54 482.09,-81.81 481.31,-82.09 480.51,-82.34 479.69,-82.57 478.88,-82.8 478.04,-82.99 477.2,-83.16 476.35,-83.34 475.49,-83.48 474.63,-83.59 473.76,-83.71 472.89,-83.8 472.01,-83.85 471.13,-83.91 470.24,-83.94 469.36,-83.94 468.48,-83.94 467.59,-83.91 466.71,-83.85 465.83,-83.8 464.96,-83.71 464.09,-83.59 463.23,-83.48 462.37,-83.34 461.52,-83.16 460.68,-82.99 459.84,-82.8 459.03,-82.57 458.21,-82.34 457.41,-82.09 456.63,-81.81 455.85,-81.54 455.09,-81.23 454.36,-80.91 453.62,-80.58 452.91,-80.23 452.23,-79.85 451.55,-79.48 450.89,-79.08 450.27,-78.67 449.64,-78.25 449.05,-77.81 448.49,-77.36 447.93,-76.9 447.4,-76.43 446.91,-75.94 446.42,-75.45 445.96,-74.94 445.55,-74.43 445.13,-73.91 444.75,-73.37 444.42,-72.83 444.08,-72.28 443.78,-71.73 443.52,-71.17 443.27,-70.6 443.05,-70.03 442.88,-69.45 442.71,-68.87 442.58,-68.29 442.49,-67.7 442.4,-67.12 442.36,-66.53 442.36,-65.94 442.36,-65.94 469.36,-65.94 469.36,-65.94"/>
<path fill="#ffddcc" stroke="black" stroke-width="0.5" d="M469.36,-65.94C469.36,-65.94 442.36,-65.94 442.36,-65.94 442.36,-65.35 442.4,-64.76 442.49,-64.18 442.58,-63.59 442.71,-63.01 442.88,-62.43 443.05,-61.85 443.27,-61.28 443.52,-60.71 443.78,-60.15 444.08,-59.6 444.42,-59.05 444.75,-58.51 445.13,-57.97 445.55,-57.45 445.96,-56.94 446.42,-56.43 446.91,-55.94 447.4,-55.45 447.93,-54.98 448.49,-54.52 449.05,-54.07 449.64,-53.63 450.27,-53.21 450.89,-52.8 451.55,-52.4 452.23,-52.03 452.91,-51.65 453.62,-51.3 454.36,-50.97 455.09,-50.65 455.85,-50.34 456.63,-50.07 457.41,-49.79 458.21,-49.54 459.03,-49.31 459.84,-49.08 460.68,-48.89 461.52,-48.72 462.37,-48.54 463.23,-48.4 464.09,-48.29 464.96,-48.17 465.83,-48.08 466.71,-48.03 467.59,-47.97 468.48,-47.94 469.36,-47.94 470.24,-47.94 471.13,-47.97 472.01,-48.03 472.89,-48.08 473.76,-48.17 474.63,-48.29 475.49,-48.4 476.35,-48.54 477.2,-48.72 478.04,-48.89 478.88,-49.08 479.69,-49.31 480.51,-49.54 481.31,-49.79 482.09,-50.07 482.87,-50.34 483.63,-50.65 484.36,-50.97 485.1,-51.3 485.81,-51.65 486.49,-52.03 487.17,-52.4 487.83,-52.8 488.45,-53.21 489.08,-53.63 489.67,-54.07 490.23,-54.52 490.79,-54.98 491.32,-55.45 491.81,-55.94 492.3,-56.43 492.76,-56.94 493.17,-57.45 493.59,-57.97 493.97,-58.51 494.3,-59.05 494.64,-59.6 494.94,-60.15 495.2,-60.71 495.45,-61.28 495.67,-61.85 495.84,-62.43 496.01,-63.01 496.14,-63.59 496.23,-64.18 496.32,-64.76 496.36,-65.35 496.36,-65.94 496.36,-65.94 469.36,-65.94 469.36,-65.94"/>
<ellipse fill="none" stroke="black" cx="469.36" cy="-65.94" rx="27" ry="18"/>
<text xml:space="preserve" text-anchor="middle" x="469.36" y="-62.24" font-family="Times,serif" font-size="11.00">45</text>
</g>
<!-- n15&#45;&gt;n45 -->
<g id="edge6" class="edge">
<title>n15&#45;&gt;n45</title>
<path fill="none" stroke="#ddbb99" d="M440.82,-130.76C445.55,-120.18 451.78,-106.25 457.21,-94.1"/>
<polygon fill="#ddbb99" stroke="#ddbb99" points="460.41,-95.54 461.29,-84.98 454.01,-92.68 460.41,-95.54"/>
<text xml:space="preserve" text-anchor="middle" x="464.77" y="-103.89" font-family="Times,serif" font-size="9.00" fill="#ddbb99"> 3 * x </text>
</g>
<!-- ghost_out_20_6 -->
<g id="node19" class="node">
<title>ghost_out_20_6</title>
</g>
<!-- n20&#45;&gt;ghost_out_20_6 -->
<g id="edge19" class="edge">
<title>n20&#45;&gt;ghost_out_20_6</title>
<path fill="none" stroke="#6688bb" stroke-dasharray="5,2" d="M313.84,-49.33C309.42,-43.3 304.37,-36.33 299.86,-29.94 295.44,-23.68 290.57,-16.56 286.8,-11"/>
<polygon fill="#6688bb" stroke="#6688bb" points="289.73,-9.08 281.24,-2.74 283.92,-12.99 289.73,-9.08"/>
<text xml:space="preserve" text-anchor="middle" x="311.11" y="-21.39" font-family="Times,serif" font-size="9.00" fill="#6688bb"> 2 * x </text>
</g>
<!-- ghost_out_20_7 -->
<g id="node20" class="node">
<title>ghost_out_20_7</title>
</g>
<!-- n20&#45;&gt;ghost_out_20_7 -->
<g id="edge20" class="edge">
<title>n20&#45;&gt;ghost_out_20_7</title>
<path fill="none" stroke="#ddbb99" stroke-dasharray="5,2" d="M325.63,-47.59C325.81,-36.49 326.03,-22.41 326.18,-12.74"/>
<polygon fill="#ddbb99" stroke="#ddbb99" points="329.68,-13.09 326.33,-3.03 322.68,-12.98 329.68,-13.09"/>
<text xml:space="preserve" text-anchor="middle" x="337.31" y="-21.39" font-family="Times,serif" font-size="9.00" fill="#ddbb99"> 3 * x </text>
</g>
<!-- ghost_out_30_8 -->
<g id="node21" class="node">
<title>ghost_out_30_8</title>
</g>
<!-- n30&#45;&gt;ghost_out_30_8 -->
<g id="edge21" class="edge">
<title>n30&#45;&gt;ghost_out_30_8</title>
<path fill="none" stroke="#6688bb" stroke-dasharray="5,2" d="M386.05,-49.3C382.45,-43.5 378.88,-36.69 376.86,-29.94 375.23,-24.51 374.76,-18.25 374.74,-12.98"/>
<polygon fill="#6688bb" stroke="#6688bb" points="378.23,-13.17 375.27,-3 371.24,-12.8 378.23,-13.17"/>
<text xml:space="preserve" text-anchor="middle" x="388.11" y="-21.39" font-family="Times,serif" font-size="9.00" fill="#6688bb"> 2 * x </text>
</g>
<!-- ghost_out_30_9 -->
<g id="node22" class="node">
<title>ghost_out_30_9</title>
</g>
<!-- n30&#45;&gt;ghost_out_30_9 -->
<g id="edge22" class="edge">
<title>n30&#45;&gt;ghost_out_30_9</title>
<path fill="none" stroke="#ddbb99" stroke-dasharray="5,2" d="M403.67,-48.26C407.97,-36.86 413.55,-22.11 417.28,-12.23"/>
<polygon fill="#ddbb99" stroke="#ddbb99" points="420.53,-13.53 420.79,-2.94 413.98,-11.05 420.53,-13.53"/>
<text xml:space="preserve" text-anchor="middle" x="425.52" y="-21.39" font-family="Times,serif" font-size="9.00" fill="#ddbb99"> 3 * x </text>
</g>
<!-- ghost_out_45_10 -->
<g id="node23" class="node">
<title>ghost_out_45_10</title>
</g>
<!-- n45&#45;&gt;ghost_out_45_10 -->
<g id="edge23" class="edge">
<title>n45&#45;&gt;ghost_out_45_10</title>
<path fill="none" stroke="#6688bb" stroke-dasharray="5,2" d="M469.09,-47.59C468.91,-36.49 468.69,-22.41 468.54,-12.74"/>
<polygon fill="#6688bb" stroke="#6688bb" points="472.04,-12.98 468.39,-3.03 465.04,-13.09 472.04,-12.98"/>
<text xml:space="preserve" text-anchor="middle" x="480.05" y="-21.39" font-family="Times,serif" font-size="9.00" fill="#6688bb"> 2 * x </text>
</g>
<!-- ghost_out_45_11 -->
<g id="node24" class="node">
<title>ghost_out_45_11</title>
</g>
<!-- n45&#45;&gt;ghost_out_45_11 -->
<g id="edge24" class="edge">
<title>n45&#45;&gt;ghost_out_45_11</title>
<path fill="none" stroke="#ddbb99" stroke-dasharray="5,2" d="M480.48,-49.24C489.06,-37.15 500.62,-20.83 507.78,-10.73"/>
<polygon fill="#ddbb99" stroke="#ddbb99" points="510.5,-12.94 513.43,-2.76 504.79,-8.89 510.5,-12.94"/>
<text xml:space="preserve" text-anchor="middle" x="512.31" y="-21.39" font-family="Times,serif" font-size="9.00" fill="#ddbb99"> 3 * x </text>
</g>
</g>
</svg>
