<?xml version="1.0" encoding="UTF-8" standalone="no"?>
<!DOCTYPE svg PUBLIC "-//W3C//DTD SVG 1.1//EN"
 "http://www.w3.org/Graphics/SVG/1.1/DTD/svg11.dtd">
<!-- Generated by graphviz version 14.1.3 (20260303.0454)
 -->
<!-- Pages: 1 -->
<svg width="1257pt" height="1282pt"
 viewBox="0.00 0.00 1257.00 1282.00" xmlns="http://www.w3.org/2000/svg" xmlns:xlink="http://www.w3.org/1999/xlink">
<g id="graph0" class="graph" transform="scale(1 1) rotate(0) translate(4 1277.5)">
<polygon fill="white" stroke="none" points="-4,4 -4,-1277.5 1253.25,-1277.5 1253.25,4 -4,4"/>
<!-- nx_28302c203029 -->
<g id="node1" class="node">
<title>nx_28302c203029</title>
<path fill="#ccddff" stroke="black" stroke-width="0.5" d="M338,-1255.5C338,-1255.5 365,-1255.5 365,-1255.5 365,-1256.09 364.96,-1256.68 364.87,-1257.26 364.78,-1257.85 364.65,-1258.43 364.48,-1259.01 364.31,-1259.59 364.09,-1260.16 363.84,-1260.73 363.58,-1261.29 363.28,-1261.84 362.94,-1262.39 362.61,-1262.93 362.23,-1263.47 361.81,-1263.99 361.4,-1264.5 360.94,-1265.01 360.45,-1265.5 359.96,-1265.99 359.43,-1266.46 358.87,-1266.92 358.31,-1267.37 357.72,-1267.81 357.09,-1268.23 356.47,-1268.64 355.81,-1269.04 355.13,-1269.41 354.45,-1269.79 353.74,-1270.14 353,-1270.47 352.27,-1270.79 351.51,-1271.1 350.73,-1271.37 349.95,-1271.65 349.15,-1271.9 348.33,-1272.13 347.52,-1272.36 346.68,-1272.55 345.84,-1272.72 344.99,-1272.9 344.13,-1273.04 343.27,-1273.15 342.4,-1273.27 341.53,-1273.36 340.65,-1273.41 339.77,-1273.47 338.88,-1273.5 338,-1273.5 337.12,-1273.5 336.23,-1273.47 335.35,-1273.41 334.47,-1273.36 333.6,-1273.27 332.73,-1273.15 331.87,-1273.04 331.01,-1272.9 330.16,-1272.72 329.32,-1272.55 328.48,-1272.36 327.67,-1272.13 326.85,-1271.9 326.05,-1271.65 325.27,-1271.37 324.49,-1271.1 323.73,-1270.79 323,-1270.47 322.26,-1270.14 321.55,-1269.79 320.87,-1269.41 320.19,-1269.04 319.53,-1268.64 318.91,-1268.23 318.28,-1267.81 317.69,-1267.37 317.13,-1266.92 316.57,-1266.46 316.04,-1265.99 315.55,-1265.5 315.06,-1265.01 314.6,-1264.5 314.19,-1263.99 313.77,-1263.47 313.39,-1262.93 313.06,-1262.39 312.72,-1261.84 312.42,-1261.29 312.16,-1260.73 311.91,-1260.16 311.69,-1259.59 311.52,-1259.01 311.35,-1258.43 311.22,-1257.85 311.13,-1257.26 311.04,-1256.68 311,-1256.09 311,-1255.5 311,-1255.5 338,-1255.5 338,-1255.5"/>
<path fill="#ffddcc" stroke="black" stroke-width="0.5" d="M338,-1255.5C338,-1255.5 311,-1255.5 311,-1255.5 311,-1254.91 311.04,-1254.32 311.13,-1253.74 311.22,-1253.15 311.35,-1252.57 311.52,-1251.99 311.69,-1251.41 311.91,-1250.84 312.16,-1250.27 312.42,-1249.71 312.72,-1249.16 313.06,-1248.61 313.39,-1248.07 313.77,-1247.53 314.19,-1247.01 314.6,-1246.5 315.06,-1245.99 315.55,-1245.5 316.04,-1245.01 316.57,-1244.54 317.13,-1244.08 317.69,-1243.63 318.28,-1243.19 318.91,-1242.77 319.53,-1242.36 320.19,-1241.96 320.87,-1241.59 321.55,-1241.21 322.26,-1240.86 323,-1240.53 323.73,-1240.21 324.49,-1239.9 325.27,-1239.63 326.05,-1239.35 326.85,-1239.1 327.67,-1238.87 328.48,-1238.64 329.32,-1238.45 330.16,-1238.28 331.01,-1238.1 331.87,-1237.96 332.73,-1237.85 333.6,-1237.73 334.47,-1237.64 335.35,-1237.59 336.23,-1237.53 337.12,-1237.5 338,-1237.5 338.88,-1237.5 339.77,-1237.53 340.65,-1237.59 341.53,-1237.64 342.4,-1237.73 343.27,-1237.85 344.13,-1237.96 344.99,-1238.1 345.84,-1238.28 346.68,-1238.45 347.52,-1238.64 348.33,-1238.87 349.15,-1239.1 349.95,-1239.35 350.73,-1239.63 351.51,-1239.9 352.27,-1240.21 353,-1240.53 353.74,-1240.86 354.45,-1241.21 355.13,-1241.59 355.81,-1241.96 356.47,-1242.36 357.09,-1242.77 357.72,-1243.19 358.31,-1243.63 358.87,-1244.08 359.43,-1244.54 359.96,-1245.01 360.45,-1245.5 360.94,-1245.99 361.4,-1246.5 361.81,-1247.01 362.23,-1247.53 362.61,-1248.07 362.94,-1248.61 363.28,-1249.16 363.58,-1249.71 363.84,-1250.27 364.09,-1250.84 364.31,-1251.41 364.48,-1251.99 364.65,-1252.57 364.78,-1253.15 364.87,-1253.74 364.96,-1254.32 365,-1254.91 365,-1255.5 365,-1255.5 338,-1255.5 338,-1255.5"/>
<ellipse fill="none" stroke="black" stroke-width="3" cx="338" cy="-1255.5" rx="27" ry="18"/>
<text xml:space="preserve" text-anchor="middle" x="338" y="-1251.8" font-family="Times,serif" font-size="11.00">(0, 0)</text>
</g>
<!-- nx_28302c203529 -->
<g id="node6" class="node">
<title>nx_28302c203529</title>
<path fill="#cceeee" stroke="black" stroke-width="0.5" d="M361,-1173C361,-1173 388,-1173 388,-1173 388,-1173.73 387.93,-1174.45 387.8,-1175.18 387.67,-1175.9 387.47,-1176.61 387.21,-1177.32 386.95,-1178.02 386.62,-1178.72 386.24,-1179.4 385.85,-1180.08 385.4,-1180.74 384.89,-1181.38 384.38,-1182.03 383.82,-1182.65 383.2,-1183.25 382.58,-1183.85 381.9,-1184.42 381.18,-1184.96 380.45,-1185.5 379.68,-1186.02 378.86,-1186.5 378.04,-1186.98 377.18,-1187.43 376.28,-1187.84 375.38,-1188.25 374.45,-1188.63 373.48,-1188.96 372.51,-1189.3 371.52,-1189.59 370.5,-1189.85 369.48,-1190.11 368.43,-1190.32 367.37,-1190.49 366.31,-1190.66 365.24,-1190.79 364.16,-1190.88 363.07,-1190.96 361.98,-1191 360.89,-1191 359.8,-1191 358.71,-1190.95 357.63,-1190.86 356.55,-1190.77 355.48,-1190.63 354.42,-1190.46 353.36,-1190.28 352.32,-1190.06 351.3,-1189.8 351.3,-1189.8 361,-1173 361,-1173"/>
<path fill="#eeccee" stroke="black" stroke-width="0.5" d="M361,-1173C361,-1173 351.3,-1189.8 351.3,-1189.8 350.04,-1189.47 348.81,-1189.09 347.63,-1188.64 346.46,-1188.19 345.33,-1187.69 344.27,-1187.13 343.21,-1186.57 342.21,-1185.96 341.28,-1185.3 340.36,-1184.64 339.51,-1183.93 338.74,-1183.19 337.98,-1182.44 337.29,-1181.66 336.7,-1180.85 336.11,-1180.04 335.61,-1179.2 335.21,-1178.33 334.81,-1177.47 334.51,-1176.59 334.3,-1175.7 334.1,-1174.8 334,-1173.9 334,-1173 334,-1172.1 334.1,-1171.2 334.3,-1170.3 334.51,-1169.41 334.81,-1168.53 335.21,-1167.67 335.61,-1166.8 336.11,-1165.96 336.7,-1165.15 337.29,-1164.34 337.98,-1163.56 338.74,-1162.81 339.51,-1162.07 340.36,-1161.36 341.28,-1160.7 342.21,-1160.04 343.21,-1159.43 344.27,-1158.87 345.33,-1158.31 346.46,-1157.81 347.63,-1157.36 348.81,-1156.91 350.04,-1156.53 351.3,-1156.2 351.3,-1156.2 361,-1173 361,-1173"/>
<path fill="#ccddff" stroke="black" stroke-width="0.5" d="M361,-1173C361,-1173 351.3,-1156.2 351.3,-1156.2 352.32,-1155.94 353.36,-1155.72 354.42,-1155.54 355.48,-1155.37 356.55,-1155.23 357.63,-1155.14 358.71,-1155.05 359.8,-1155 360.89,-1155 361.98,-1155 363.07,-1155.04 364.16,-1155.12 365.24,-1155.21 366.31,-1155.34 367.37,-1155.51 368.43,-1155.68 369.48,-1155.89 370.5,-1156.15 371.52,-1156.41 372.51,-1156.7 373.48,-1157.04 374.45,-1157.37 375.38,-1157.75 376.28,-1158.16 377.18,-1158.57 378.04,-1159.02 378.86,-1159.5 379.68,-1159.98 380.45,-1160.5 381.18,-1161.04 381.9,-1161.58 382.58,-1162.15 383.2,-1162.75 383.82,-1163.35 384.38,-1163.97 384.89,-1164.62 385.4,-1165.26 385.85,-1165.92 386.24,-1166.6 386.62,-1167.28 386.95,-1167.98 387.21,-1168.68 387.47,-1169.39 387.67,-1170.1 387.8,-1170.82 387.93,-1171.55 388,-1172.27 388,-1173 388,-1173 361,-1173 361,-1173"/>
<ellipse fill="none" stroke="black" cx="361" cy="-1173" rx="27" ry="18"/>
<text xml:space="preserve" text-anchor="middle" x="361" y="-1169.3" font-family="Times,serif" font-size="11.00">(0, 5)</text>
</g>
<!-- nx_28302c203029&#45;&gt;nx_28302c203529 -->
<g id="edge1" class="edge">
<title>nx_28302c203029&#45;&gt;nx_28302c203529</title>
<path fill="none" stroke="#ddbb99" d="M322.58,-1239.38C315.51,-1230.54 309.69,-1219.17 314.75,-1209 318.3,-1201.85 324.09,-1195.77 330.39,-1190.79"/>
<polygon fill="#ddbb99" stroke="#ddbb99" points="332.32,-1193.71 338.54,-1185.13 328.33,-1187.96 332.32,-1193.71"/>
<text xml:space="preserve" text-anchor="middle" x="327.88" y="-1210.95" font-family="Times,serif" font-size="9.00" fill="#ddbb99"> fill 5L </text>
</g>
<!-- nx_28332c203029 -->
<g id="node11" class="node">
<title>nx_28332c203029</title>
<path fill="#eeeeaa" stroke="black" stroke-width="0.5" d="M643,-1008C643,-1008 670,-1008 670,-1008 670,-1008.73 669.93,-1009.45 669.8,-1010.18 669.67,-1010.9 669.47,-1011.61 669.21,-1012.32 668.95,-1013.02 668.62,-1013.72 668.24,-1014.4 667.85,-1015.08 667.4,-1015.74 666.89,-1016.38 666.38,-1017.03 665.82,-1017.65 665.2,-1018.25 664.58,-1018.85 663.9,-1019.42 663.18,-1019.96 662.45,-1020.5 661.68,-1021.02 660.86,-1021.5 660.04,-1021.98 659.18,-1022.43 658.28,-1022.84 657.38,-1023.25 656.45,-1023.63 655.48,-1023.96 654.51,-1024.3 653.52,-1024.59 652.5,-1024.85 651.48,-1025.11 650.43,-1025.32 649.37,-1025.49 648.31,-1025.66 647.24,-1025.79 646.16,-1025.88 645.07,-1025.96 643.98,-1026 642.89,-1026 641.8,-1026 640.71,-1025.95 639.63,-1025.86 638.55,-1025.77 637.48,-1025.63 636.42,-1025.46 635.36,-1025.28 634.32,-1025.06 633.3,-1024.8 633.3,-1024.8 643,-1008 643,-1008"/>
<path fill="#cceecc" stroke="black" stroke-width="0.5" d="M643,-1008C643,-1008 633.3,-1024.8 633.3,-1024.8 632.04,-1024.47 630.81,-1024.09 629.63,-1023.64 628.46,-1023.19 627.33,-1022.69 626.27,-1022.13 625.21,-1021.57 624.21,-1020.96 623.28,-1020.3 622.36,-1019.64 621.51,-1018.93 620.74,-1018.19 619.98,-1017.44 619.29,-1016.66 618.7,-1015.85 618.11,-1015.04 617.61,-1014.2 617.21,-1013.33 616.81,-1012.47 616.51,-1011.59 616.3,-1010.7 616.1,-1009.8 616,-1008.9 616,-1008 616,-1007.1 616.1,-1006.2 616.3,-1005.3 616.51,-1004.41 616.81,-1003.53 617.21,-1002.67 617.61,-1001.8 618.11,-1000.96 618.7,-1000.15 619.29,-999.34 619.98,-998.56 620.74,-997.81 621.51,-997.07 622.36,-996.36 623.28,-995.7 624.21,-995.04 625.21,-994.43 626.27,-993.87 627.33,-993.31 628.46,-992.81 629.63,-992.36 630.81,-991.91 632.04,-991.53 633.3,-991.2 633.3,-991.2 643,-1008 643,-1008"/>
<path fill="#ffddcc" stroke="black" stroke-width="0.5" d="M643,-1008C643,-1008 633.3,-991.2 633.3,-991.2 634.32,-990.94 635.36,-990.72 636.42,-990.54 637.48,-990.37 638.55,-990.23 639.63,-990.14 640.71,-990.05 641.8,-990 642.89,-990 643.98,-990 645.07,-990.04 646.16,-990.12 647.24,-990.21 648.31,-990.34 649.37,-990.51 650.43,-990.68 651.48,-990.89 652.5,-991.15 653.52,-991.41 654.51,-991.7 655.48,-992.04 656.45,-992.37 657.38,-992.75 658.28,-993.16 659.18,-993.57 660.04,-994.02 660.86,-994.5 661.68,-994.98 662.45,-995.5 663.18,-996.04 663.9,-996.58 664.58,-997.15 665.2,-997.75 665.82,-998.35 666.38,-998.97 666.89,-999.62 667.4,-1000.26 667.85,-1000.92 668.24,-1001.6 668.62,-1002.28 668.95,-1002.98 669.21,-1003.68 669.47,-1004.39 669.67,-1005.1 669.8,-1005.82 669.93,-1006.55 670,-1007.27 670,-1008 670,-1008 643,-1008 643,-1008"/>
<ellipse fill="none" stroke="black" cx="643" cy="-1008" rx="27" ry="18"/>
<text xml:space="preserve" text-anchor="middle" x="643" y="-1004.3" font-family="Times,serif" font-size="11.00">(3, 0)</text>
</g>
<!-- nx_28302c203029&#45;&gt;nx_28332c203029 -->
<g id="edge2" class="edge">
<title>nx_28302c203029&#45;&gt;nx_28332c203029</title>
<path fill="none" stroke="#6688bb" d="M366.04,-1253.02C394.34,-1250.23 438.03,-1242.26 468,-1219.5 540.21,-1164.67 505.47,-1105.6 572,-1044 582.45,-1034.32 596.08,-1026.75 608.59,-1021.15"/>
<polygon fill="#6688bb" stroke="#6688bb" points="609.91,-1024.4 617.8,-1017.33 607.23,-1017.93 609.91,-1024.4"/>
<text xml:space="preserve" text-anchor="middle" x="537.25" y="-1128.45" font-family="Times,serif" font-size="9.00" fill="#6688bb"> fill 3L </text>
</g>
<!-- nx_28302c203129 -->
<g id="node2" class="node">
<title>nx_28302c203129</title>
<path fill="#cceeee" stroke="black" stroke-width="0.5" d="M383,-595.5C383,-595.5 410,-595.5 410,-595.5 410,-596.09 409.96,-596.68 409.87,-597.26 409.78,-597.85 409.65,-598.43 409.48,-599.01 409.31,-599.59 409.09,-600.16 408.84,-600.73 408.58,-601.29 408.28,-601.84 407.94,-602.39 407.61,-602.93 407.23,-603.47 406.81,-603.99 406.4,-604.5 405.94,-605.01 405.45,-605.5 404.96,-605.99 404.43,-606.46 403.87,-606.92 403.31,-607.37 402.72,-607.81 402.09,-608.23 401.47,-608.64 400.81,-609.04 400.13,-609.41 399.45,-609.79 398.74,-610.14 398,-610.47 397.27,-610.79 396.51,-611.1 395.73,-611.37 394.95,-611.65 394.15,-611.9 393.33,-612.13 392.52,-612.36 391.68,-612.55 390.84,-612.72 389.99,-612.9 389.13,-613.04 388.27,-613.15 387.4,-613.27 386.53,-613.36 385.65,-613.41 384.77,-613.47 383.88,-613.5 383,-613.5 383,-613.5 383,-595.5 383,-595.5"/>
<path fill="#eeccee" stroke="black" stroke-width="0.5" d="M383,-595.5C383,-595.5 383,-613.5 383,-613.5 382.12,-613.5 381.23,-613.47 380.35,-613.41 379.47,-613.36 378.6,-613.27 377.73,-613.15 376.87,-613.04 376.01,-612.9 375.16,-612.72 374.32,-612.55 373.48,-612.36 372.67,-612.13 371.85,-611.9 371.05,-611.65 370.27,-611.37 369.49,-611.1 368.73,-610.79 368,-610.47 367.26,-610.14 366.55,-609.79 365.87,-609.41 365.19,-609.04 364.53,-608.64 363.91,-608.23 363.28,-607.81 362.69,-607.37 362.13,-606.92 361.57,-606.46 361.04,-605.99 360.55,-605.5 360.06,-605.01 359.6,-604.5 359.19,-603.99 358.77,-603.47 358.39,-602.93 358.06,-602.39 357.72,-601.84 357.42,-601.29 357.16,-600.73 356.91,-600.16 356.69,-599.59 356.52,-599.01 356.35,-598.43 356.22,-597.85 356.13,-597.26 356.04,-596.68 356,-596.09 356,-595.5 356,-595.5 383,-595.5 383,-595.5"/>
<path fill="#ccddff" stroke="black" stroke-width="0.5" d="M383,-595.5C383,-595.5 356,-595.5 356,-595.5 356,-594.91 356.04,-594.32 356.13,-593.74 356.22,-593.15 356.35,-592.57 356.52,-591.99 356.69,-591.41 356.91,-590.84 357.16,-590.27 357.42,-589.71 357.72,-589.16 358.06,-588.61 358.39,-588.07 358.77,-587.53 359.19,-587.01 359.6,-586.5 360.06,-585.99 360.55,-585.5 361.04,-585.01 361.57,-584.54 362.13,-584.08 362.69,-583.63 363.28,-583.19 363.91,-582.77 364.53,-582.36 365.19,-581.96 365.87,-581.59 366.55,-581.21 367.26,-580.86 368,-580.53 368.73,-580.21 369.49,-579.9 370.27,-579.63 371.05,-579.35 371.85,-579.1 372.67,-578.87 373.48,-578.64 374.32,-578.45 375.16,-578.28 376.01,-578.1 376.87,-577.96 377.73,-577.85 378.6,-577.73 379.47,-577.64 380.35,-577.59 381.23,-577.53 382.12,-577.5 383,-577.5 383,-577.5 383,-595.5 383,-595.5"/>
<path fill="#ffddcc" stroke="black" stroke-width="0.5" d="M383,-595.5C383,-595.5 383,-577.5 383,-577.5 383.88,-577.5 384.77,-577.53 385.65,-577.59 386.53,-577.64 387.4,-577.73 388.27,-577.85 389.13,-577.96 389.99,-578.1 390.84,-578.28 391.68,-578.45 392.52,-578.64 393.33,-578.87 394.15,-579.1 394.95,-579.35 395.73,-579.63 396.51,-579.9 397.27,-580.21 398,-580.53 398.74,-580.86 399.45,-581.21 400.13,-581.59 400.81,-581.96 401.47,-582.36 402.09,-582.77 402.72,-583.19 403.31,-583.63 403.87,-584.08 404.43,-584.54 404.96,-585.01 405.45,-585.5 405.94,-585.99 406.4,-586.5 406.81,-587.01 407.23,-587.53 407.61,-588.07 407.94,-588.61 408.28,-589.16 408.58,-589.71 408.84,-590.27 409.09,-590.84 409.31,-591.41 409.48,-591.99 409.65,-592.57 409.78,-593.15 409.87,-593.74 409.96,-594.32 410,-594.91 410,-595.5 410,-595.5 383,-595.5 383,-595.5"/>
<ellipse fill="none" stroke="black" cx="383" cy="-595.5" rx="27" ry="18"/>
<text xml:space="preserve" text-anchor="middle" x="383" y="-591.8" font-family="Times,serif" font-size="11.00">(0, 1)</text>
</g>
<!-- nx_28302c203129&#45;&gt;nx_28302c203029 -->
<g id="edge3" class="edge">
<title>nx_28302c203129&#45;&gt;nx_28302c203029</title>
<path fill="none" stroke="#aa77aa" d="M367.64,-610.46C355.77,-622.33 340.18,-640.51 333,-660 290,-776.78 265.69,-1102.83 309,-1219.5 310.46,-1223.43 312.56,-1227.24 314.98,-1230.8"/>
<polygon fill="#aa77aa" stroke="#aa77aa" points="312.01,-1232.7 320.94,-1238.4 317.52,-1228.37 312.01,-1232.7"/>
<text xml:space="preserve" text-anchor="middle" x="309.81" y="-922.2" font-family="Times,serif" font-size="9.00" fill="#aa77aa"> empty 5L </text>
</g>
<!-- nx_28302c203129&#45;&gt;nx_28302c203529 -->
<g id="edge4" class="edge">
<title>nx_28302c203129&#45;&gt;nx_28302c203529</title>
<path fill="none" stroke="#ddbb99" d="M371.41,-611.93C360.89,-627.5 347,-652.66 347,-677 347,-844 347,-844 347,-844 347,-896.22 346.22,-909.28 346,-961.5 345.98,-966.17 345.83,-967.34 346,-972 348.22,-1032.79 351.39,-1047.85 356,-1108.5 356.86,-1119.88 357.84,-1132.4 358.71,-1143.29"/>
<polygon fill="#ddbb99" stroke="#ddbb99" points="355.22,-1143.55 359.5,-1153.24 362.19,-1143 355.22,-1143.55"/>
<text xml:space="preserve" text-anchor="middle" x="359.98" y="-880.95" font-family="Times,serif" font-size="9.00" fill="#ddbb99"> fill 5L </text>
</g>
<!-- nx_28312c203029 -->
<g id="node7" class="node">
<title>nx_28312c203029</title>
<path fill="#eeeeaa" stroke="black" stroke-width="0.5" d="M430,-678C430,-678 457,-678 457,-678 457,-678.59 456.96,-679.18 456.87,-679.76 456.78,-680.35 456.65,-680.93 456.48,-681.51 456.31,-682.09 456.09,-682.66 455.84,-683.23 455.58,-683.79 455.28,-684.34 454.94,-684.89 454.61,-685.43 454.23,-685.97 453.81,-686.49 453.4,-687 452.94,-687.51 452.45,-688 451.96,-688.49 451.43,-688.96 450.87,-689.42 450.31,-689.87 449.72,-690.31 449.09,-690.73 448.47,-691.14 447.81,-691.54 447.13,-691.91 446.45,-692.29 445.74,-692.64 445,-692.97 444.27,-693.29 443.51,-693.6 442.73,-693.87 441.95,-694.15 441.15,-694.4 440.33,-694.63 439.52,-694.86 438.68,-695.05 437.84,-695.22 436.99,-695.4 436.13,-695.54 435.27,-695.65 434.4,-695.77 433.53,-695.86 432.65,-695.91 431.77,-695.97 430.88,-696 430,-696 430,-696 430,-678 430,-678"/>
<path fill="#cceecc" stroke="black" stroke-width="0.5" d="M430,-678C430,-678 430,-696 430,-696 429.12,-696 428.23,-695.97 427.35,-695.91 426.47,-695.86 425.6,-695.77 424.73,-695.65 423.87,-695.54 423.01,-695.4 422.16,-695.22 421.32,-695.05 420.48,-694.86 419.67,-694.63 418.85,-694.4 418.05,-694.15 417.27,-693.87 416.49,-693.6 415.73,-693.29 415,-692.97 414.26,-692.64 413.55,-692.29 412.87,-691.91 412.19,-691.54 411.53,-691.14 410.91,-690.73 410.28,-690.31 409.69,-689.87 409.13,-689.42 408.57,-688.96 408.04,-688.49 407.55,-688 407.06,-687.51 406.6,-687 406.19,-686.49 405.77,-685.97 405.39,-685.43 405.06,-684.89 404.72,-684.34 404.42,-683.79 404.16,-683.23 403.91,-682.66 403.69,-682.09 403.52,-681.51 403.35,-680.93 403.22,-680.35 403.13,-679.76 403.04,-679.18 403,-678.59 403,-678 403,-678 430,-678 430,-678"/>
<path fill="#ccddff" stroke="black" stroke-width="0.5" d="M430,-678C430,-678 403,-678 403,-678 403,-677.41 403.04,-676.82 403.13,-676.24 403.22,-675.65 403.35,-675.07 403.52,-674.49 403.69,-673.91 403.91,-673.34 404.16,-672.77 404.42,-672.21 404.72,-671.66 405.06,-671.11 405.39,-670.57 405.77,-670.03 406.19,-669.51 406.6,-669 407.06,-668.49 407.55,-668 408.04,-667.51 408.57,-667.04 409.13,-666.58 409.69,-666.13 410.28,-665.69 410.91,-665.27 411.53,-664.86 412.19,-664.46 412.87,-664.09 413.55,-663.71 414.26,-663.36 415,-663.03 415.73,-662.71 416.49,-662.4 417.27,-662.13 418.05,-661.85 418.85,-661.6 419.67,-661.37 420.48,-661.14 421.32,-660.95 422.16,-660.78 423.01,-660.6 423.87,-660.46 424.73,-660.35 425.6,-660.23 426.47,-660.14 427.35,-660.09 428.23,-660.03 429.12,-660 430,-660 430,-660 430,-678 430,-678"/>
<path fill="#ffddcc" stroke="black" stroke-width="0.5" d="M430,-678C430,-678 430,-660 430,-660 430.88,-660 431.77,-660.03 432.65,-660.09 433.53,-660.14 434.4,-660.23 435.27,-660.35 436.13,-660.46 436.99,-660.6 437.84,-660.78 438.68,-660.95 439.52,-661.14 440.33,-661.37 441.15,-661.6 441.95,-661.85 442.73,-662.13 443.51,-662.4 444.27,-662.71 445,-663.03 445.74,-663.36 446.45,-663.71 447.13,-664.09 447.81,-664.46 448.47,-664.86 449.09,-665.27 449.72,-665.69 450.31,-666.13 450.87,-666.58 451.43,-667.04 451.96,-667.51 452.45,-668 452.94,-668.49 453.4,-669 453.81,-669.51 454.23,-670.03 454.61,-670.57 454.94,-671.11 455.28,-671.66 455.58,-672.21 455.84,-672.77 456.09,-673.34 456.31,-673.91 456.48,-674.49 456.65,-675.07 456.78,-675.65 456.87,-676.24 456.96,-676.82 457,-677.41 457,-678 457,-678 430,-678 430,-678"/>
<ellipse fill="none" stroke="black" cx="430" cy="-678" rx="27" ry="18"/>
<text xml:space="preserve" text-anchor="middle" x="430" y="-674.3" font-family="Times,serif" font-size="11.00">(1, 0)</text>
</g>
<!-- nx_28302c203129&#45;&gt;nx_28312c203029 -->
<g id="edge5" class="edge">
<title>nx_28302c203129&#45;&gt;nx_28312c203029</title>
<path fill="none" stroke="#77aaaa" d="M398.54,-610.71C404.35,-616.67 410.59,-623.97 415,-631.5 418.2,-636.97 420.83,-643.22 422.94,-649.3"/>
<polygon fill="#77aaaa" stroke="#77aaaa" points="419.45,-649.88 425.74,-658.4 426.14,-647.82 419.45,-649.88"/>
<text xml:space="preserve" text-anchor="middle" x="436.17" y="-633.45" font-family="Times,serif" font-size="9.00" fill="#77aaaa"> 5L→3L </text>
</g>
<!-- nx_28332c203129 -->
<g id="node12" class="node">
<title>nx_28332c203129</title>
<path fill="#eeeeaa" stroke="black" stroke-width="0.5" d="M457,-513C457,-513 484,-513 484,-513 484,-513.59 483.96,-514.18 483.87,-514.76 483.78,-515.35 483.65,-515.93 483.48,-516.51 483.31,-517.09 483.09,-517.66 482.84,-518.23 482.58,-518.79 482.28,-519.34 481.94,-519.89 481.61,-520.43 481.23,-520.97 480.81,-521.49 480.4,-522 479.94,-522.51 479.45,-523 478.96,-523.49 478.43,-523.96 477.87,-524.42 477.31,-524.87 476.72,-525.31 476.09,-525.73 475.47,-526.14 474.81,-526.54 474.13,-526.91 473.45,-527.29 472.74,-527.64 472,-527.97 471.27,-528.29 470.51,-528.6 469.73,-528.87 468.95,-529.15 468.15,-529.4 467.33,-529.63 466.52,-529.86 465.68,-530.05 464.84,-530.22 463.99,-530.4 463.13,-530.54 462.27,-530.65 461.4,-530.77 460.53,-530.86 459.65,-530.91 458.77,-530.97 457.88,-531 457,-531 457,-531 457,-513 457,-513"/>
<path fill="#cceecc" stroke="black" stroke-width="0.5" d="M457,-513C457,-513 457,-531 457,-531 456.12,-531 455.23,-530.97 454.35,-530.91 453.47,-530.86 452.6,-530.77 451.73,-530.65 450.87,-530.54 450.01,-530.4 449.16,-530.22 448.32,-530.05 447.48,-529.86 446.67,-529.63 445.85,-529.4 445.05,-529.15 444.27,-528.87 443.49,-528.6 442.73,-528.29 442,-527.97 441.26,-527.64 440.55,-527.29 439.87,-526.91 439.19,-526.54 438.53,-526.14 437.91,-525.73 437.28,-525.31 436.69,-524.87 436.13,-524.42 435.57,-523.96 435.04,-523.49 434.55,-523 434.06,-522.51 433.6,-522 433.19,-521.49 432.77,-520.97 432.39,-520.43 432.06,-519.89 431.72,-519.34 431.42,-518.79 431.16,-518.23 430.91,-517.66 430.69,-517.09 430.52,-516.51 430.35,-515.93 430.22,-515.35 430.13,-514.76 430.04,-514.18 430,-513.59 430,-513 430,-513 457,-513 457,-513"/>
<path fill="#eeccee" stroke="black" stroke-width="0.5" d="M457,-513C457,-513 430,-513 430,-513 430,-512.41 430.04,-511.82 430.13,-511.24 430.22,-510.65 430.35,-510.07 430.52,-509.49 430.69,-508.91 430.91,-508.34 431.16,-507.77 431.42,-507.21 431.72,-506.66 432.06,-506.11 432.39,-505.57 432.77,-505.03 433.19,-504.51 433.6,-504 434.06,-503.49 434.55,-503 435.04,-502.51 435.57,-502.04 436.13,-501.58 436.69,-501.13 437.28,-500.69 437.91,-500.27 438.53,-499.86 439.19,-499.46 439.87,-499.09 440.55,-498.71 441.26,-498.36 442,-498.03 442.73,-497.71 443.49,-497.4 444.27,-497.13 445.05,-496.85 445.85,-496.6 446.67,-496.37 447.48,-496.14 448.32,-495.95 449.16,-495.78 450.01,-495.6 450.87,-495.46 451.73,-495.35 452.6,-495.23 453.47,-495.14 454.35,-495.09 455.23,-495.03 456.12,-495 457,-495 457,-495 457,-513 457,-513"/>
<path fill="#ffddcc" stroke="black" stroke-width="0.5" d="M457,-513C457,-513 457,-495 457,-495 457.88,-495 458.77,-495.03 459.65,-495.09 460.53,-495.14 461.4,-495.23 462.27,-495.35 463.13,-495.46 463.99,-495.6 464.84,-495.78 465.68,-495.95 466.52,-496.14 467.33,-496.37 468.15,-496.6 468.95,-496.85 469.73,-497.13 470.51,-497.4 471.27,-497.71 472,-498.03 472.74,-498.36 473.45,-498.71 474.13,-499.09 474.81,-499.46 475.47,-499.86 476.09,-500.27 476.72,-500.69 477.31,-501.13 477.87,-501.58 478.43,-502.04 478.96,-502.51 479.45,-503 479.94,-503.49 480.4,-504 480.81,-504.51 481.23,-505.03 481.61,-505.57 481.94,-506.11 482.28,-506.66 482.58,-507.21 482.84,-507.77 483.09,-508.34 483.31,-508.91 483.48,-509.49 483.65,-510.07 483.78,-510.65 483.87,-511.24 483.96,-511.82 484,-512.41 484,-513 484,-513 457,-513 457,-513"/>
<ellipse fill="none" stroke="black" cx="457" cy="-513" rx="27" ry="18"/>
<text xml:space="preserve" text-anchor="middle" x="457" y="-509.3" font-family="Times,serif" font-size="11.00">(3, 1)</text>
</g>
<!-- nx_28302c203129&#45;&gt;nx_28332c203129 -->
<g id="edge6" class="edge">
<title>nx_28302c203129&#45;&gt;nx_28332c203129</title>
<path fill="none" stroke="#6688bb" d="M384.23,-577.08C385.63,-567.94 388.58,-557.02 394.75,-549 402.01,-539.57 412.57,-532.29 422.95,-526.87"/>
<polygon fill="#6688bb" stroke="#6688bb" points="424.21,-530.14 431.76,-522.71 421.23,-523.81 424.21,-530.14"/>
<text xml:space="preserve" text-anchor="middle" x="407.88" y="-550.95" font-family="Times,serif" font-size="9.00" fill="#6688bb"> fill 3L </text>
</g>
<!-- nx_28302c203229 -->
<g id="node3" class="node">
<title>nx_28302c203229</title>
<path fill="#cceeee" stroke="black" stroke-width="0.5" d="M908,-100.5C908,-100.5 935,-100.5 935,-100.5 935,-101.09 934.96,-101.68 934.87,-102.26 934.78,-102.85 934.65,-103.43 934.48,-104.01 934.31,-104.59 934.09,-105.16 933.84,-105.73 933.58,-106.29 933.28,-106.84 932.94,-107.39 932.61,-107.93 932.23,-108.47 931.81,-108.99 931.4,-109.5 930.94,-110.01 930.45,-110.5 929.96,-110.99 929.43,-111.46 928.87,-111.92 928.31,-112.37 927.72,-112.81 927.09,-113.23 926.47,-113.64 925.81,-114.04 925.13,-114.41 924.45,-114.79 923.74,-115.14 923,-115.47 922.27,-115.79 921.51,-116.1 920.73,-116.37 919.95,-116.65 919.15,-116.9 918.33,-117.13 917.52,-117.36 916.68,-117.55 915.84,-117.72 914.99,-117.9 914.13,-118.04 913.27,-118.15 912.4,-118.27 911.53,-118.36 910.65,-118.41 909.77,-118.47 908.88,-118.5 908,-118.5 908,-118.5 908,-100.5 908,-100.5"/>
<path fill="#eeccee" stroke="black" stroke-width="0.5" d="M908,-100.5C908,-100.5 908,-118.5 908,-118.5 907.12,-118.5 906.23,-118.47 905.35,-118.41 904.47,-118.36 903.6,-118.27 902.73,-118.15 901.87,-118.04 901.01,-117.9 900.16,-117.72 899.32,-117.55 898.48,-117.36 897.67,-117.13 896.85,-116.9 896.05,-116.65 895.27,-116.37 894.49,-116.1 893.73,-115.79 893,-115.47 892.26,-115.14 891.55,-114.79 890.87,-114.41 890.19,-114.04 889.53,-113.64 888.91,-113.23 888.28,-112.81 887.69,-112.37 887.13,-111.92 886.57,-111.46 886.04,-110.99 885.55,-110.5 885.06,-110.01 884.6,-109.5 884.19,-108.99 883.77,-108.47 883.39,-107.93 883.06,-107.39 882.72,-106.84 882.42,-106.29 882.16,-105.73 881.91,-105.16 881.69,-104.59 881.52,-104.01 881.35,-103.43 881.22,-102.85 881.13,-102.26 881.04,-101.68 881,-101.09 881,-100.5 881,-100.5 908,-100.5 908,-100.5"/>
<path fill="#ccddff" stroke="black" stroke-width="0.5" d="M908,-100.5C908,-100.5 881,-100.5 881,-100.5 881,-99.91 881.04,-99.32 881.13,-98.74 881.22,-98.15 881.35,-97.57 881.52,-96.99 881.69,-96.41 881.91,-95.84 882.16,-95.27 882.42,-94.71 882.72,-94.16 883.06,-93.61 883.39,-93.07 883.77,-92.53 884.19,-92.01 884.6,-91.5 885.06,-90.99 885.55,-90.5 886.04,-90.01 886.57,-89.54 887.13,-89.08 887.69,-88.63 888.28,-88.19 888.91,-87.77 889.53,-87.36 890.19,-86.96 890.87,-86.59 891.55,-86.21 892.26,-85.86 893,-85.53 893.73,-85.21 894.49,-84.9 895.27,-84.63 896.05,-84.35 896.85,-84.1 897.67,-83.87 898.48,-83.64 899.32,-83.45 900.16,-83.28 901.01,-83.1 901.87,-82.96 902.73,-82.85 903.6,-82.73 904.47,-82.64 905.35,-82.59 906.23,-82.53 907.12,-82.5 908,-82.5 908,-82.5 908,-100.5 908,-100.5"/>
<path fill="#ffddcc" stroke="black" stroke-width="0.5" d="M908,-100.5C908,-100.5 908,-82.5 908,-82.5 908.88,-82.5 909.77,-82.53 910.65,-82.59 911.53,-82.64 912.4,-82.73 913.27,-82.85 914.13,-82.96 914.99,-83.1 915.84,-83.28 916.68,-83.45 917.52,-83.64 918.33,-83.87 919.15,-84.1 919.95,-84.35 920.73,-84.63 921.51,-84.9 922.27,-85.21 923,-85.53 923.74,-85.86 924.45,-86.21 925.13,-86.59 925.81,-86.96 926.47,-87.36 927.09,-87.77 927.72,-88.19 928.31,-88.63 928.87,-89.08 929.43,-89.54 929.96,-90.01 930.45,-90.5 930.94,-90.99 931.4,-91.5 931.81,-92.01 932.23,-92.53 932.61,-93.07 932.94,-93.61 933.28,-94.16 933.58,-94.71 933.84,-95.27 934.09,-95.84 934.31,-96.41 934.48,-96.99 934.65,-97.57 934.78,-98.15 934.87,-98.74 934.96,-99.32 935,-99.91 935,-100.5 935,-100.5 908,-100.5 908,-100.5"/>
<ellipse fill="none" stroke="black" cx="908" cy="-100.5" rx="27" ry="18"/>
<text xml:space="preserve" text-anchor="middle" x="908" y="-96.8" font-family="Times,serif" font-size="11.00">(0, 2)</text>
</g>
<!-- nx_28302c203229&#45;&gt;nx_28302c203029 -->
<g id="edge7" class="edge">
<title>nx_28302c203229&#45;&gt;nx_28302c203029</title>
<path fill="none" stroke="#aa77aa" d="M880.78,-101.55C759.77,-101.97 270.04,-105.55 120,-136.5 64.14,-148.02 0,-124.96 0,-182 0,-1174 0,-1174 0,-1174 0,-1234.76 209.31,-1249.74 298.51,-1253.37"/>
<polygon fill="#aa77aa" stroke="#aa77aa" points="298.13,-1256.86 308.25,-1253.73 298.39,-1249.86 298.13,-1256.86"/>
<text xml:space="preserve" text-anchor="middle" x="19.12" y="-674.7" font-family="Times,serif" font-size="9.00" fill="#aa77aa"> empty 5L </text>
</g>
<!-- nx_28302c203229&#45;&gt;nx_28302c203529 -->
<g id="edge8" class="edge">
<title>nx_28302c203229&#45;&gt;nx_28302c203529</title>
<path fill="none" stroke="#ddbb99" d="M880.94,-101.18C736.82,-99.84 66,-98.11 66,-182 66,-1091.5 66,-1091.5 66,-1091.5 66,-1144.12 242.92,-1163.52 322.74,-1169.59"/>
<polygon fill="#ddbb99" stroke="#ddbb99" points="322.04,-1173.05 332.27,-1170.28 322.55,-1166.07 322.04,-1173.05"/>
<text xml:space="preserve" text-anchor="middle" x="79.12" y="-633.45" font-family="Times,serif" font-size="9.00" fill="#ddbb99"> fill 5L </text>
</g>
<!-- nx_28322c203029 -->
<g id="node9" class="node">
<title>nx_28322c203029</title>
<path fill="#eeeeaa" stroke="black" stroke-width="0.5" d="M888,-183C888,-183 915,-183 915,-183 915,-183.59 914.96,-184.18 914.87,-184.76 914.78,-185.35 914.65,-185.93 914.48,-186.51 914.31,-187.09 914.09,-187.66 913.84,-188.23 913.58,-188.79 913.28,-189.34 912.94,-189.89 912.61,-190.43 912.23,-190.97 911.81,-191.49 911.4,-192 910.94,-192.51 910.45,-193 909.96,-193.49 909.43,-193.96 908.87,-194.42 908.31,-194.87 907.72,-195.31 907.09,-195.73 906.47,-196.14 905.81,-196.54 905.13,-196.91 904.45,-197.29 903.74,-197.64 903,-197.97 902.27,-198.29 901.51,-198.6 900.73,-198.87 899.95,-199.15 899.15,-199.4 898.33,-199.63 897.52,-199.86 896.68,-200.05 895.84,-200.22 894.99,-200.4 894.13,-200.54 893.27,-200.65 892.4,-200.77 891.53,-200.86 890.65,-200.91 889.77,-200.97 888.88,-201 888,-201 888,-201 888,-183 888,-183"/>
<path fill="#cceecc" stroke="black" stroke-width="0.5" d="M888,-183C888,-183 888,-201 888,-201 887.12,-201 886.23,-200.97 885.35,-200.91 884.47,-200.86 883.6,-200.77 882.73,-200.65 881.87,-200.54 881.01,-200.4 880.16,-200.22 879.32,-200.05 878.48,-199.86 877.67,-199.63 876.85,-199.4 876.05,-199.15 875.27,-198.87 874.49,-198.6 873.73,-198.29 873,-197.97 872.26,-197.64 871.55,-197.29 870.87,-196.91 870.19,-196.54 869.53,-196.14 868.91,-195.73 868.28,-195.31 867.69,-194.87 867.13,-194.42 866.57,-193.96 866.04,-193.49 865.55,-193 865.06,-192.51 864.6,-192 864.19,-191.49 863.77,-190.97 863.39,-190.43 863.06,-189.89 862.72,-189.34 862.42,-188.79 862.16,-188.23 861.91,-187.66 861.69,-187.09 861.52,-186.51 861.35,-185.93 861.22,-185.35 861.13,-184.76 861.04,-184.18 861,-183.59 861,-183 861,-183 888,-183 888,-183"/>
<path fill="#ccddff" stroke="black" stroke-width="0.5" d="M888,-183C888,-183 861,-183 861,-183 861,-182.41 861.04,-181.82 861.13,-181.24 861.22,-180.65 861.35,-180.07 861.52,-179.49 861.69,-178.91 861.91,-178.34 862.16,-177.77 862.42,-177.21 862.72,-176.66 863.06,-176.11 863.39,-175.57 863.77,-175.03 864.19,-174.51 864.6,-174 865.06,-173.49 865.55,-173 866.04,-172.51 866.57,-172.04 867.13,-171.58 867.69,-171.13 868.28,-170.69 868.91,-170.27 869.53,-169.86 870.19,-169.46 870.87,-169.09 871.55,-168.71 872.26,-168.36 873,-168.03 873.73,-167.71 874.49,-167.4 875.27,-167.13 876.05,-166.85 876.85,-166.6 877.67,-166.37 878.48,-166.14 879.32,-165.95 880.16,-165.78 881.01,-165.6 881.87,-165.46 882.73,-165.35 883.6,-165.23 884.47,-165.14 885.35,-165.09 886.23,-165.03 887.12,-165 888,-165 888,-165 888,-183 888,-183"/>
<path fill="#ffddcc" stroke="black" stroke-width="0.5" d="M888,-183C888,-183 888,-165 888,-165 888.88,-165 889.77,-165.03 890.65,-165.09 891.53,-165.14 892.4,-165.23 893.27,-165.35 894.13,-165.46 894.99,-165.6 895.84,-165.78 896.68,-165.95 897.52,-166.14 898.33,-166.37 899.15,-166.6 899.95,-166.85 900.73,-167.13 901.51,-167.4 902.27,-167.71 903,-168.03 903.74,-168.36 904.45,-168.71 905.13,-169.09 905.81,-169.46 906.47,-169.86 907.09,-170.27 907.72,-170.69 908.31,-171.13 908.87,-171.58 909.43,-172.04 909.96,-172.51 910.45,-173 910.94,-173.49 911.4,-174 911.81,-174.51 912.23,-175.03 912.61,-175.57 912.94,-176.11 913.28,-176.66 913.58,-177.21 913.84,-177.77 914.09,-178.34 914.31,-178.91 914.48,-179.49 914.65,-180.07 914.78,-180.65 914.87,-181.24 914.96,-181.82 915,-182.41 915,-183 915,-183 888,-183 888,-183"/>
<ellipse fill="none" stroke="black" cx="888" cy="-183" rx="27" ry="18"/>
<text xml:space="preserve" text-anchor="middle" x="888" y="-179.3" font-family="Times,serif" font-size="11.00">(2, 0)</text>
</g>
<!-- nx_28302c203229&#45;&gt;nx_28322c203029 -->
<g id="edge9" class="edge">
<title>nx_28302c203229&#45;&gt;nx_28322c203029</title>
<path fill="none" stroke="#77aaaa" d="M904.45,-118.84C902.64,-127.36 900.34,-137.75 898,-147 897.42,-149.3 896.8,-151.67 896.15,-154.05"/>
<polygon fill="#77aaaa" stroke="#77aaaa" points="892.83,-152.94 893.5,-163.51 899.57,-154.82 892.83,-152.94"/>
<text xml:space="preserve" text-anchor="middle" x="916.9" y="-138.45" font-family="Times,serif" font-size="9.00" fill="#77aaaa"> 5L→3L </text>
</g>
<!-- nx_28332c203229 -->
<g id="node13" class="node">
<title>nx_28332c203229</title>
<path fill="#eeeeaa" stroke="black" stroke-width="0.5" d="M1061,-18C1061,-18 1088,-18 1088,-18 1088,-18.59 1087.96,-19.18 1087.87,-19.76 1087.78,-20.35 1087.65,-20.93 1087.48,-21.51 1087.31,-22.09 1087.09,-22.66 1086.84,-23.23 1086.58,-23.79 1086.28,-24.34 1085.94,-24.89 1085.61,-25.43 1085.23,-25.97 1084.81,-26.49 1084.4,-27 1083.94,-27.51 1083.45,-28 1082.96,-28.49 1082.43,-28.96 1081.87,-29.42 1081.31,-29.87 1080.72,-30.31 1080.09,-30.73 1079.47,-31.14 1078.81,-31.54 1078.13,-31.91 1077.45,-32.29 1076.74,-32.64 1076,-32.97 1075.27,-33.29 1074.51,-33.6 1073.73,-33.87 1072.95,-34.15 1072.15,-34.4 1071.33,-34.63 1070.52,-34.86 1069.68,-35.05 1068.84,-35.22 1067.99,-35.4 1067.13,-35.54 1066.27,-35.65 1065.4,-35.77 1064.53,-35.86 1063.65,-35.91 1062.77,-35.97 1061.88,-36 1061,-36 1061,-36 1061,-18 1061,-18"/>
<path fill="#cceecc" stroke="black" stroke-width="0.5" d="M1061,-18C1061,-18 1061,-36 1061,-36 1060.12,-36 1059.23,-35.97 1058.35,-35.91 1057.47,-35.86 1056.6,-35.77 1055.73,-35.65 1054.87,-35.54 1054.01,-35.4 1053.16,-35.22 1052.32,-35.05 1051.48,-34.86 1050.67,-34.63 1049.85,-34.4 1049.05,-34.15 1048.27,-33.87 1047.49,-33.6 1046.73,-33.29 1046,-32.97 1045.26,-32.64 1044.55,-32.29 1043.87,-31.91 1043.19,-31.54 1042.53,-31.14 1041.91,-30.73 1041.28,-30.31 1040.69,-29.87 1040.13,-29.42 1039.57,-28.96 1039.04,-28.49 1038.55,-28 1038.06,-27.51 1037.6,-27 1037.19,-26.49 1036.77,-25.97 1036.39,-25.43 1036.06,-24.89 1035.72,-24.34 1035.42,-23.79 1035.16,-23.23 1034.91,-22.66 1034.69,-22.09 1034.52,-21.51 1034.35,-20.93 1034.22,-20.35 1034.13,-19.76 1034.04,-19.18 1034,-18.59 1034,-18 1034,-18 1061,-18 1061,-18"/>
<path fill="#eeccee" stroke="black" stroke-width="0.5" d="M1061,-18C1061,-18 1034,-18 1034,-18 1034,-17.41 1034.04,-16.82 1034.13,-16.24 1034.22,-15.65 1034.35,-15.07 1034.52,-14.49 1034.69,-13.91 1034.91,-13.34 1035.16,-12.77 1035.42,-12.21 1035.72,-11.66 1036.06,-11.11 1036.39,-10.57 1036.77,-10.03 1037.19,-9.51 1037.6,-9 1038.06,-8.49 1038.55,-8 1039.04,-7.51 1039.57,-7.04 1040.13,-6.58 1040.69,-6.13 1041.28,-5.69 1041.91,-5.27 1042.53,-4.86 1043.19,-4.46 1043.87,-4.09 1044.55,-3.71 1045.26,-3.36 1046,-3.03 1046.73,-2.71 1047.49,-2.4 1048.27,-2.13 1049.05,-1.85 1049.85,-1.6 1050.67,-1.37 1051.48,-1.14 1052.32,-0.95 1053.16,-0.78 1054.01,-0.6 1054.87,-0.46 1055.73,-0.35 1056.6,-0.23 1057.47,-0.14 1058.35,-0.09 1059.23,-0.03 1060.12,0 1061,0 1061,0 1061,-18 1061,-18"/>
<path fill="#ffddcc" stroke="black" stroke-width="0.5" d="M1061,-18C1061,-18 1061,0 1061,0 1061.88,0 1062.77,-0.03 1063.65,-0.09 1064.53,-0.14 1065.4,-0.23 1066.27,-0.35 1067.13,-0.46 1067.99,-0.6 1068.84,-0.78 1069.68,-0.95 1070.52,-1.14 1071.33,-1.37 1072.15,-1.6 1072.95,-1.85 1073.73,-2.13 1074.51,-2.4 1075.27,-2.71 1076,-3.03 1076.74,-3.36 1077.45,-3.71 1078.13,-4.09 1078.81,-4.46 1079.47,-4.86 1080.09,-5.27 1080.72,-5.69 1081.31,-6.13 1081.87,-6.58 1082.43,-7.04 1082.96,-7.51 1083.45,-8 1083.94,-8.49 1084.4,-9 1084.81,-9.51 1085.23,-10.03 1085.61,-10.57 1085.94,-11.11 1086.28,-11.66 1086.58,-12.21 1086.84,-12.77 1087.09,-13.34 1087.31,-13.91 1087.48,-14.49 1087.65,-15.07 1087.78,-15.65 1087.87,-16.24 1087.96,-16.82 1088,-17.41 1088,-18 1088,-18 1061,-18 1061,-18"/>
<ellipse fill="none" stroke="black" cx="1061" cy="-18" rx="27" ry="18"/>
<text xml:space="preserve" text-anchor="middle" x="1061" y="-14.3" font-family="Times,serif" font-size="11.00">(3, 2)</text>
</g>
<!-- nx_28302c203229&#45;&gt;nx_28332c203229 -->
<g id="edge10" class="edge">
<title>nx_28302c203229&#45;&gt;nx_28332c203229</title>
<path fill="none" stroke="#6688bb" d="M910.38,-82.17C912.57,-72.6 916.76,-61.22 924.75,-54 951.39,-29.93 992.35,-21.97 1022.41,-19.54"/>
<polygon fill="#6688bb" stroke="#6688bb" points="1022.47,-23.05 1032.24,-18.94 1022.04,-16.06 1022.47,-23.05"/>
<text xml:space="preserve" text-anchor="middle" x="937.88" y="-55.95" font-family="Times,serif" font-size="9.00" fill="#6688bb"> fill 3L </text>
</g>
<!-- nx_28302c203329 -->
<g id="node4" class="node">
<title>nx_28302c203329</title>
<path fill="#cceeee" stroke="black" stroke-width="0.5" d="M498,-925.5C498,-925.5 525,-925.5 525,-925.5 525,-926.09 524.96,-926.68 524.87,-927.26 524.78,-927.85 524.65,-928.43 524.48,-929.01 524.31,-929.59 524.09,-930.16 523.84,-930.73 523.58,-931.29 523.28,-931.84 522.94,-932.39 522.61,-932.93 522.23,-933.47 521.81,-933.99 521.4,-934.5 520.94,-935.01 520.45,-935.5 519.96,-935.99 519.43,-936.46 518.87,-936.92 518.31,-937.37 517.72,-937.81 517.09,-938.23 516.47,-938.64 515.81,-939.04 515.13,-939.41 514.45,-939.79 513.74,-940.14 513,-940.47 512.27,-940.79 511.51,-941.1 510.73,-941.37 509.95,-941.65 509.15,-941.9 508.33,-942.13 507.52,-942.36 506.68,-942.55 505.84,-942.72 504.99,-942.9 504.13,-943.04 503.27,-943.15 502.4,-943.27 501.53,-943.36 500.65,-943.41 499.77,-943.47 498.88,-943.5 498,-943.5 498,-943.5 498,-925.5 498,-925.5"/>
<path fill="#eeccee" stroke="black" stroke-width="0.5" d="M498,-925.5C498,-925.5 498,-943.5 498,-943.5 497.12,-943.5 496.23,-943.47 495.35,-943.41 494.47,-943.36 493.6,-943.27 492.73,-943.15 491.87,-943.04 491.01,-942.9 490.16,-942.72 489.32,-942.55 488.48,-942.36 487.67,-942.13 486.85,-941.9 486.05,-941.65 485.27,-941.37 484.49,-941.1 483.73,-940.79 483,-940.47 482.26,-940.14 481.55,-939.79 480.87,-939.41 480.19,-939.04 479.53,-938.64 478.91,-938.23 478.28,-937.81 477.69,-937.37 477.13,-936.92 476.57,-936.46 476.04,-935.99 475.55,-935.5 475.06,-935.01 474.6,-934.5 474.19,-933.99 473.77,-933.47 473.39,-932.93 473.06,-932.39 472.72,-931.84 472.42,-931.29 472.16,-930.73 471.91,-930.16 471.69,-929.59 471.52,-929.01 471.35,-928.43 471.22,-927.85 471.13,-927.26 471.04,-926.68 471,-926.09 471,-925.5 471,-925.5 498,-925.5 498,-925.5"/>
<path fill="#ccddff" stroke="black" stroke-width="0.5" d="M498,-925.5C498,-925.5 471,-925.5 471,-925.5 471,-924.91 471.04,-924.32 471.13,-923.74 471.22,-923.15 471.35,-922.57 471.52,-921.99 471.69,-921.41 471.91,-920.84 472.16,-920.27 472.42,-919.71 472.72,-919.16 473.06,-918.61 473.39,-918.07 473.77,-917.53 474.19,-917.01 474.6,-916.5 475.06,-915.99 475.55,-915.5 476.04,-915.01 476.57,-914.54 477.13,-914.08 477.69,-913.63 478.28,-913.19 478.91,-912.77 479.53,-912.36 480.19,-911.96 480.87,-911.59 481.55,-911.21 482.26,-910.86 483,-910.53 483.73,-910.21 484.49,-909.9 485.27,-909.63 486.05,-909.35 486.85,-909.1 487.67,-908.87 488.48,-908.64 489.32,-908.45 490.16,-908.28 491.01,-908.1 491.87,-907.96 492.73,-907.85 493.6,-907.73 494.47,-907.64 495.35,-907.59 496.23,-907.53 497.12,-907.5 498,-907.5 498,-907.5 498,-925.5 498,-925.5"/>
<path fill="#ffddcc" stroke="black" stroke-width="0.5" d="M498,-925.5C498,-925.5 498,-907.5 498,-907.5 498.88,-907.5 499.77,-907.53 500.65,-907.59 501.53,-907.64 502.4,-907.73 503.27,-907.85 504.13,-907.96 504.99,-908.1 505.84,-908.28 506.68,-908.45 507.52,-908.64 508.33,-908.87 509.15,-909.1 509.95,-909.35 510.73,-909.63 511.51,-909.9 512.27,-910.21 513,-910.53 513.74,-910.86 514.45,-911.21 515.13,-911.59 515.81,-911.96 516.47,-912.36 517.09,-912.77 517.72,-913.19 518.31,-913.63 518.87,-914.08 519.43,-914.54 519.96,-915.01 520.45,-915.5 520.94,-915.99 521.4,-916.5 521.81,-917.01 522.23,-917.53 522.61,-918.07 522.94,-918.61 523.28,-919.16 523.58,-919.71 523.84,-920.27 524.09,-920.84 524.31,-921.41 524.48,-921.99 524.65,-922.57 524.78,-923.15 524.87,-923.74 524.96,-924.32 525,-924.91 525,-925.5 525,-925.5 498,-925.5 498,-925.5"/>
<ellipse fill="none" stroke="black" cx="498" cy="-925.5" rx="27" ry="18"/>
<text xml:space="preserve" text-anchor="middle" x="498" y="-921.8" font-family="Times,serif" font-size="11.00">(0, 3)</text>
</g>
<!-- nx_28302c203329&#45;&gt;nx_28302c203029 -->
<g id="edge11" class="edge">
<title>nx_28302c203329&#45;&gt;nx_28302c203029</title>
<path fill="none" stroke="#aa77aa" d="M496.12,-943.78C489.68,-1000.12 466.83,-1177.31 430,-1219.5 416.51,-1234.96 395.43,-1243.62 376.85,-1248.45"/>
<polygon fill="#aa77aa" stroke="#aa77aa" points="376.15,-1245.02 367.17,-1250.66 377.7,-1251.85 376.15,-1245.02"/>
<text xml:space="preserve" text-anchor="middle" x="496.21" y="-1087.2" font-family="Times,serif" font-size="9.00" fill="#aa77aa"> empty 5L </text>
</g>
<!-- nx_28302c203329&#45;&gt;nx_28302c203529 -->
<g id="edge12" class="edge">
<title>nx_28302c203329&#45;&gt;nx_28302c203529</title>
<path fill="none" stroke="#ddbb99" d="M503.31,-943.48C512.95,-977.79 529.39,-1056.53 496,-1108.5 474.55,-1141.88 430.43,-1158.05 398.46,-1165.65"/>
<polygon fill="#ddbb99" stroke="#ddbb99" points="397.79,-1162.21 388.77,-1167.76 399.28,-1169.05 397.79,-1162.21"/>
<text xml:space="preserve" text-anchor="middle" x="528.49" y="-1045.95" font-family="Times,serif" font-size="9.00" fill="#ddbb99"> fill 5L </text>
</g>
<!-- nx_28302c203329&#45;&gt;nx_28332c203029 -->
<g id="edge13" class="edge">
<title>nx_28302c203329&#45;&gt;nx_28332c203029</title>
<path fill="none" stroke="#77aaaa" d="M520.06,-936.26C534.72,-942.95 554.27,-952.25 571,-961.5 585.85,-969.71 601.85,-979.71 614.99,-988.23"/>
<polygon fill="#77aaaa" stroke="#77aaaa" points="612.87,-991.02 623.15,-993.58 616.71,-985.17 612.87,-991.02"/>
<text xml:space="preserve" text-anchor="middle" x="603.66" y="-963.45" font-family="Times,serif" font-size="9.00" fill="#77aaaa"> 5L→3L </text>
</g>
<!-- nx_28332c203329 -->
<g id="node14" class="node">
<title>nx_28332c203329</title>
<path fill="#eeeeaa" stroke="black" stroke-width="0.5" d="M515,-843C515,-843 542,-843 542,-843 542,-843.59 541.96,-844.18 541.87,-844.76 541.78,-845.35 541.65,-845.93 541.48,-846.51 541.31,-847.09 541.09,-847.66 540.84,-848.23 540.58,-848.79 540.28,-849.34 539.94,-849.89 539.61,-850.43 539.23,-850.97 538.81,-851.49 538.4,-852 537.94,-852.51 537.45,-853 536.96,-853.49 536.43,-853.96 535.87,-854.42 535.31,-854.87 534.72,-855.31 534.09,-855.73 533.47,-856.14 532.81,-856.54 532.13,-856.91 531.45,-857.29 530.74,-857.64 530,-857.97 529.27,-858.29 528.51,-858.6 527.73,-858.87 526.95,-859.15 526.15,-859.4 525.33,-859.63 524.52,-859.86 523.68,-860.05 522.84,-860.22 521.99,-860.4 521.13,-860.54 520.27,-860.65 519.4,-860.77 518.53,-860.86 517.65,-860.91 516.77,-860.97 515.88,-861 515,-861 515,-861 515,-843 515,-843"/>
<path fill="#cceecc" stroke="black" stroke-width="0.5" d="M515,-843C515,-843 515,-861 515,-861 514.12,-861 513.23,-860.97 512.35,-860.91 511.47,-860.86 510.6,-860.77 509.73,-860.65 508.87,-860.54 508.01,-860.4 507.16,-860.22 506.32,-860.05 505.48,-859.86 504.67,-859.63 503.85,-859.4 503.05,-859.15 502.27,-858.87 501.49,-858.6 500.73,-858.29 500,-857.97 499.26,-857.64 498.55,-857.29 497.87,-856.91 497.19,-856.54 496.53,-856.14 495.91,-855.73 495.28,-855.31 494.69,-854.87 494.13,-854.42 493.57,-853.96 493.04,-853.49 492.55,-853 492.06,-852.51 491.6,-852 491.19,-851.49 490.77,-850.97 490.39,-850.43 490.06,-849.89 489.72,-849.34 489.42,-848.79 489.16,-848.23 488.91,-847.66 488.69,-847.09 488.52,-846.51 488.35,-845.93 488.22,-845.35 488.13,-844.76 488.04,-844.18 488,-843.59 488,-843 488,-843 515,-843 515,-843"/>
<path fill="#eeccee" stroke="black" stroke-width="0.5" d="M515,-843C515,-843 488,-843 488,-843 488,-842.41 488.04,-841.82 488.13,-841.24 488.22,-840.65 488.35,-840.07 488.52,-839.49 488.69,-838.91 488.91,-838.34 489.16,-837.77 489.42,-837.21 489.72,-836.66 490.06,-836.11 490.39,-835.57 490.77,-835.03 491.19,-834.51 491.6,-834 492.06,-833.49 492.55,-833 493.04,-832.51 493.57,-832.04 494.13,-831.58 494.69,-831.13 495.28,-830.69 495.91,-830.27 496.53,-829.86 497.19,-829.46 497.87,-829.09 498.55,-828.71 499.26,-828.36 500,-828.03 500.73,-827.71 501.49,-827.4 502.27,-827.13 503.05,-826.85 503.85,-826.6 504.67,-826.37 505.48,-826.14 506.32,-825.95 507.16,-825.78 508.01,-825.6 508.87,-825.46 509.73,-825.35 510.6,-825.23 511.47,-825.14 512.35,-825.09 513.23,-825.03 514.12,-825 515,-825 515,-825 515,-843 515,-843"/>
<path fill="#ffddcc" stroke="black" stroke-width="0.5" d="M515,-843C515,-843 515,-825 515,-825 515.88,-825 516.77,-825.03 517.65,-825.09 518.53,-825.14 519.4,-825.23 520.27,-825.35 521.13,-825.46 521.99,-825.6 522.84,-825.78 523.68,-825.95 524.52,-826.14 525.33,-826.37 526.15,-826.6 526.95,-826.85 527.73,-827.13 528.51,-827.4 529.27,-827.71 530,-828.03 530.74,-828.36 531.45,-828.71 532.13,-829.09 532.81,-829.46 533.47,-829.86 534.09,-830.27 534.72,-830.69 535.31,-831.13 535.87,-831.58 536.43,-832.04 536.96,-832.51 537.45,-833 537.94,-833.49 538.4,-834 538.81,-834.51 539.23,-835.03 539.61,-835.57 539.94,-836.11 540.28,-836.66 540.58,-837.21 540.84,-837.77 541.09,-838.34 541.31,-838.91 541.48,-839.49 541.65,-840.07 541.78,-840.65 541.87,-841.24 541.96,-841.82 542,-842.41 542,-843 542,-843 515,-843 515,-843"/>
<ellipse fill="none" stroke="black" cx="515" cy="-843" rx="27" ry="18"/>
<text xml:space="preserve" text-anchor="middle" x="515" y="-839.3" font-family="Times,serif" font-size="11.00">(3, 3)</text>
</g>
<!-- nx_28302c203329&#45;&gt;nx_28332c203329 -->
<g id="edge14" class="edge">
<title>nx_28302c203329&#45;&gt;nx_28332c203329</title>
<path fill="none" stroke="#6688bb" d="M477.8,-913.11C465.23,-904.43 452.69,-891.84 459.75,-879 464.63,-870.13 472.81,-863.2 481.4,-857.93"/>
<polygon fill="#6688bb" stroke="#6688bb" points="483.02,-861.03 490.16,-853.2 479.7,-854.86 483.02,-861.03"/>
<text xml:space="preserve" text-anchor="middle" x="472.88" y="-880.95" font-family="Times,serif" font-size="9.00" fill="#6688bb"> fill 3L </text>
</g>
<!-- nx_28302c203429 -->
<g id="node5" class="node">
<title>nx_28302c203429</title>
<path fill="#329595" stroke="black" stroke-width="0.5" d="M457,-430.5C457,-430.5 484,-430.5 484,-430.5 484,-431.09 483.96,-431.68 483.87,-432.26 483.78,-432.85 483.65,-433.43 483.48,-434.01 483.31,-434.59 483.09,-435.16 482.84,-435.73 482.58,-436.29 482.28,-436.84 481.94,-437.39 481.61,-437.93 481.23,-438.47 480.81,-438.99 480.4,-439.5 479.94,-440.01 479.45,-440.5 478.96,-440.99 478.43,-441.46 477.87,-441.92 477.31,-442.37 476.72,-442.81 476.09,-443.23 475.47,-443.64 474.81,-444.04 474.13,-444.41 473.45,-444.79 472.74,-445.14 472,-445.47 471.27,-445.79 470.51,-446.1 469.73,-446.37 468.95,-446.65 468.15,-446.9 467.33,-447.13 466.52,-447.36 465.68,-447.55 464.84,-447.72 463.99,-447.9 463.13,-448.04 462.27,-448.15 461.4,-448.27 460.53,-448.36 459.65,-448.41 458.77,-448.47 457.88,-448.5 457,-448.5 457,-448.5 457,-430.5 457,-430.5"/>
<path fill="#953295" stroke="black" stroke-width="0.5" d="M457,-430.5C457,-430.5 457,-448.5 457,-448.5 456.12,-448.5 455.23,-448.47 454.35,-448.41 453.47,-448.36 452.6,-448.27 451.73,-448.15 450.87,-448.04 450.01,-447.9 449.16,-447.72 448.32,-447.55 447.48,-447.36 446.67,-447.13 445.85,-446.9 445.05,-446.65 444.27,-446.37 443.49,-446.1 442.73,-445.79 442,-445.47 441.26,-445.14 440.55,-444.79 439.87,-444.41 439.19,-444.04 438.53,-443.64 437.91,-443.23 437.28,-442.81 436.69,-442.37 436.13,-441.92 435.57,-441.46 435.04,-440.99 434.55,-440.5 434.06,-440.01 433.6,-439.5 433.19,-438.99 432.77,-438.47 432.39,-437.93 432.06,-437.39 431.72,-436.84 431.42,-436.29 431.16,-435.73 430.91,-435.16 430.69,-434.59 430.52,-434.01 430.35,-433.43 430.22,-432.85 430.13,-432.26 430.04,-431.68 430,-431.09 430,-430.5 430,-430.5 457,-430.5 457,-430.5"/>
<path fill="#0045cf" stroke="black" stroke-width="0.5" d="M457,-430.5C457,-430.5 430,-430.5 430,-430.5 430,-429.91 430.04,-429.32 430.13,-428.74 430.22,-428.15 430.35,-427.57 430.52,-426.99 430.69,-426.41 430.91,-425.84 431.16,-425.27 431.42,-424.71 431.72,-424.16 432.06,-423.61 432.39,-423.07 432.77,-422.53 433.19,-422.01 433.6,-421.5 434.06,-420.99 434.55,-420.5 435.04,-420.01 435.57,-419.54 436.13,-419.08 436.69,-418.63 437.28,-418.19 437.91,-417.77 438.53,-417.36 439.19,-416.96 439.87,-416.59 440.55,-416.21 441.26,-415.86 442,-415.53 442.73,-415.21 443.49,-414.9 444.27,-414.63 445.05,-414.35 445.85,-414.1 446.67,-413.87 447.48,-413.64 448.32,-413.45 449.16,-413.28 450.01,-413.1 450.87,-412.96 451.73,-412.85 452.6,-412.73 453.47,-412.64 454.35,-412.59 455.23,-412.53 456.12,-412.5 457,-412.5 457,-412.5 457,-430.5 457,-430.5"/>
<path fill="#cf4500" stroke="black" stroke-width="0.5" d="M457,-430.5C457,-430.5 457,-412.5 457,-412.5 457.88,-412.5 458.77,-412.53 459.65,-412.59 460.53,-412.64 461.4,-412.73 462.27,-412.85 463.13,-412.96 463.99,-413.1 464.84,-413.28 465.68,-413.45 466.52,-413.64 467.33,-413.87 468.15,-414.1 468.95,-414.35 469.73,-414.63 470.51,-414.9 471.27,-415.21 472,-415.53 472.74,-415.86 473.45,-416.21 474.13,-416.59 474.81,-416.96 475.47,-417.36 476.09,-417.77 476.72,-418.19 477.31,-418.63 477.87,-419.08 478.43,-419.54 478.96,-420.01 479.45,-420.5 479.94,-420.99 480.4,-421.5 480.81,-422.01 481.23,-422.53 481.61,-423.07 481.94,-423.61 482.28,-424.16 482.58,-424.71 482.84,-425.27 483.09,-425.84 483.31,-426.41 483.48,-426.99 483.65,-427.57 483.78,-428.15 483.87,-428.74 483.96,-429.32 484,-429.91 484,-430.5 484,-430.5 457,-430.5 457,-430.5"/>
<ellipse fill="none" stroke="black" cx="457" cy="-430.5" rx="27" ry="18"/>
<text xml:space="preserve" text-anchor="middle" x="457" y="-426.8" font-family="Times,serif" font-size="11.00" fill="white">(0, 4)</text>
</g>
<!-- nx_28302c203429&#45;&gt;nx_28302c203029 -->
<g id="edge15" class="edge">
<title>nx_28302c203429&#45;&gt;nx_28302c203029</title>
<path fill="none" stroke="#aa77aa" d="M429.86,-432.67C393.17,-435.14 326.43,-442.8 275,-466.5 245.56,-480.07 218,-479.59 218,-512 218,-679 218,-679 218,-679 218,-770.13 200,-792.12 200,-883.25 200,-1174 200,-1174 200,-1174 200,-1220.17 258.35,-1240.33 299.16,-1248.79"/>
<polygon fill="#aa77aa" stroke="#aa77aa" points="298.44,-1252.22 308.92,-1250.64 299.75,-1245.34 298.44,-1252.22"/>
<text xml:space="preserve" text-anchor="middle" x="221.85" y="-839.7" font-family="Times,serif" font-size="9.00" fill="#aa77aa"> empty 5L </text>
</g>
<!-- nx_28302c203429&#45;&gt;nx_28302c203529 -->
<g id="edge16" class="edge">
<title>nx_28302c203429&#45;&gt;nx_28302c203529</title>
<path fill="none" stroke="#ddbb99" d="M429.63,-431.08C376.82,-431.85 266,-441.83 266,-512 266,-802.75 266,-802.75 266,-802.75 266,-876.26 238,-892.24 238,-965.75 238,-1091.5 238,-1091.5 238,-1091.5 238,-1133.25 288.22,-1154.51 324.48,-1164.42"/>
<polygon fill="#ddbb99" stroke="#ddbb99" points="323.19,-1167.71 333.75,-1166.77 324.92,-1160.92 323.19,-1167.71"/>
<text xml:space="preserve" text-anchor="middle" x="279.12" y="-798.45" font-family="Times,serif" font-size="9.00" fill="#ddbb99"> fill 5L </text>
</g>
<!-- nx_28302c203429&#45;&gt;nx_28332c203129 -->
<g id="edge17" class="edge">
<title>nx_28302c203429&#45;&gt;nx_28332c203129</title>
<path fill="none" stroke="#77aaaa" d="M460.51,-448.52C461.53,-454.21 462.5,-460.6 463,-466.5 463.47,-472.06 463.24,-477.99 462.65,-483.66"/>
<polygon fill="#77aaaa" stroke="#77aaaa" points="459.23,-482.86 461.26,-493.26 466.15,-483.86 459.23,-482.86"/>
<text xml:space="preserve" text-anchor="middle" x="479.75" y="-468.45" font-family="Times,serif" font-size="9.00" fill="#77aaaa"> 5L→3L </text>
</g>
<!-- nx_28332c203429 -->
<g id="node15" class="node">
<title>nx_28332c203429</title>
<path fill="#99991f" stroke="black" stroke-width="0.5" d="M797,-348C797,-348 824,-348 824,-348 824,-348.59 823.96,-349.18 823.87,-349.76 823.78,-350.35 823.65,-350.93 823.48,-351.51 823.31,-352.09 823.09,-352.66 822.84,-353.23 822.58,-353.79 822.28,-354.34 821.94,-354.89 821.61,-355.43 821.23,-355.97 820.81,-356.49 820.4,-357 819.94,-357.51 819.45,-358 818.96,-358.49 818.43,-358.96 817.87,-359.42 817.31,-359.87 816.72,-360.31 816.09,-360.73 815.47,-361.14 814.81,-361.54 814.13,-361.91 813.45,-362.29 812.74,-362.64 812,-362.97 811.27,-363.29 810.51,-363.6 809.73,-363.87 808.95,-364.15 808.15,-364.4 807.33,-364.63 806.52,-364.86 805.68,-365.05 804.84,-365.22 803.99,-365.4 803.13,-365.54 802.27,-365.65 801.4,-365.77 800.53,-365.86 799.65,-365.91 798.77,-365.97 797.88,-366 797,-366 797,-366 797,-348 797,-348"/>
<path fill="#329532" stroke="black" stroke-width="0.5" d="M797,-348C797,-348 797,-366 797,-366 796.12,-366 795.23,-365.97 794.35,-365.91 793.47,-365.86 792.6,-365.77 791.73,-365.65 790.87,-365.54 790.01,-365.4 789.16,-365.22 788.32,-365.05 787.48,-364.86 786.67,-364.63 785.85,-364.4 785.05,-364.15 784.27,-363.87 783.49,-363.6 782.73,-363.29 782,-362.97 781.26,-362.64 780.55,-362.29 779.87,-361.91 779.19,-361.54 778.53,-361.14 777.91,-360.73 777.28,-360.31 776.69,-359.87 776.13,-359.42 775.57,-358.96 775.04,-358.49 774.55,-358 774.06,-357.51 773.6,-357 773.19,-356.49 772.77,-355.97 772.39,-355.43 772.06,-354.89 771.72,-354.34 771.42,-353.79 771.16,-353.23 770.91,-352.66 770.69,-352.09 770.52,-351.51 770.35,-350.93 770.22,-350.35 770.13,-349.76 770.04,-349.18 770,-348.59 770,-348 770,-348 797,-348 797,-348"/>
<path fill="#953295" stroke="black" stroke-width="0.5" d="M797,-348C797,-348 770,-348 770,-348 770,-347.41 770.04,-346.82 770.13,-346.24 770.22,-345.65 770.35,-345.07 770.52,-344.49 770.69,-343.91 770.91,-343.34 771.16,-342.77 771.42,-342.21 771.72,-341.66 772.06,-341.11 772.39,-340.57 772.77,-340.03 773.19,-339.51 773.6,-339 774.06,-338.49 774.55,-338 775.04,-337.51 775.57,-337.04 776.13,-336.58 776.69,-336.13 777.28,-335.69 777.91,-335.27 778.53,-334.86 779.19,-334.46 779.87,-334.09 780.55,-333.71 781.26,-333.36 782,-333.03 782.73,-332.71 783.49,-332.4 784.27,-332.13 785.05,-331.85 785.85,-331.6 786.67,-331.37 787.48,-331.14 788.32,-330.95 789.16,-330.78 790.01,-330.6 790.87,-330.46 791.73,-330.35 792.6,-330.23 793.47,-330.14 794.35,-330.09 795.23,-330.03 796.12,-330 797,-330 797,-330 797,-348 797,-348"/>
<path fill="#cf4500" stroke="black" stroke-width="0.5" d="M797,-348C797,-348 797,-330 797,-330 797.88,-330 798.77,-330.03 799.65,-330.09 800.53,-330.14 801.4,-330.23 802.27,-330.35 803.13,-330.46 803.99,-330.6 804.84,-330.78 805.68,-330.95 806.52,-331.14 807.33,-331.37 808.15,-331.6 808.95,-331.85 809.73,-332.13 810.51,-332.4 811.27,-332.71 812,-333.03 812.74,-333.36 813.45,-333.71 814.13,-334.09 814.81,-334.46 815.47,-334.86 816.09,-335.27 816.72,-335.69 817.31,-336.13 817.87,-336.58 818.43,-337.04 818.96,-337.51 819.45,-338 819.94,-338.49 820.4,-339 820.81,-339.51 821.23,-340.03 821.61,-340.57 821.94,-341.11 822.28,-341.66 822.58,-342.21 822.84,-342.77 823.09,-343.34 823.31,-343.91 823.48,-344.49 823.65,-345.07 823.78,-345.65 823.87,-346.24 823.96,-346.82 824,-347.41 824,-348 824,-348 797,-348 797,-348"/>
<ellipse fill="none" stroke="black" cx="797" cy="-348" rx="27" ry="18"/>
<text xml:space="preserve" text-anchor="middle" x="797" y="-344.3" font-family="Times,serif" font-size="11.00" fill="white">(3, 4)</text>
</g>
<!-- nx_28302c203429&#45;&gt;nx_28332c203429 -->
<g id="edge18" class="edge">
<title>nx_28302c203429&#45;&gt;nx_28332c203429</title>
<path fill="none" stroke="#6688bb" d="M482.28,-423.52C541.93,-409.39 691.61,-373.95 760.84,-357.56"/>
<polygon fill="#6688bb" stroke="#6688bb" points="761.62,-360.97 770.54,-355.26 760.01,-354.16 761.62,-360.97"/>
<text xml:space="preserve" text-anchor="middle" x="660.48" y="-385.95" font-family="Times,serif" font-size="9.00" fill="#6688bb"> fill 3L </text>
</g>
<!-- nx_28302c203529&#45;&gt;nx_28302c203029 -->
<g id="edge19" class="edge">
<title>nx_28302c203529&#45;&gt;nx_28302c203029</title>
<path fill="none" stroke="#aa77aa" d="M356.15,-1190.99C353.28,-1201.04 349.56,-1214.03 346.25,-1225.64"/>
<polygon fill="#aa77aa" stroke="#aa77aa" points="342.9,-1224.6 343.52,-1235.18 349.63,-1226.53 342.9,-1224.6"/>
<text xml:space="preserve" text-anchor="middle" x="370" y="-1210.95" font-family="Times,serif" font-size="9.00" fill="#aa77aa"> empty 5L </text>
</g>
<!-- nx_28302c203529&#45;&gt;nx_28332c203229 -->
<g id="edge20" class="edge">
<title>nx_28302c203529&#45;&gt;nx_28332c203229</title>
<path fill="none" stroke="#77aaaa" d="M388.35,-1171.62C513.67,-1169.52 1027,-1156.94 1027,-1091.5 1027,-1091.5 1027,-1091.5 1027,-99.5 1027,-80.02 1035.55,-59.84 1044.07,-44.55"/>
<polygon fill="#77aaaa" stroke="#77aaaa" points="1046.99,-46.5 1049.09,-36.12 1040.97,-42.92 1046.99,-46.5"/>
<text xml:space="preserve" text-anchor="middle" x="1043.5" y="-592.2" font-family="Times,serif" font-size="9.00" fill="#77aaaa"> 5L→3L </text>
</g>
<!-- nx_28332c203529 -->
<g id="node16" class="node">
<title>nx_28332c203529</title>
<path fill="#cceecc" stroke="black" stroke-width="0.5" d="M730,-1090.5C730,-1090.5 757,-1090.5 757,-1090.5 757,-1091.09 756.96,-1091.68 756.87,-1092.26 756.78,-1092.85 756.65,-1093.43 756.48,-1094.01 756.31,-1094.59 756.09,-1095.16 755.84,-1095.73 755.58,-1096.29 755.28,-1096.84 754.94,-1097.39 754.61,-1097.93 754.23,-1098.47 753.81,-1098.99 753.4,-1099.5 752.94,-1100.01 752.45,-1100.5 751.96,-1100.99 751.43,-1101.46 750.87,-1101.92 750.31,-1102.37 749.72,-1102.81 749.09,-1103.23 748.47,-1103.64 747.81,-1104.04 747.13,-1104.41 746.45,-1104.79 745.74,-1105.14 745,-1105.47 744.27,-1105.79 743.51,-1106.1 742.73,-1106.37 741.95,-1106.65 741.15,-1106.9 740.33,-1107.13 739.52,-1107.36 738.68,-1107.55 737.84,-1107.72 736.99,-1107.9 736.13,-1108.04 735.27,-1108.15 734.4,-1108.27 733.53,-1108.36 732.65,-1108.41 731.77,-1108.47 730.88,-1108.5 730,-1108.5 729.12,-1108.5 728.23,-1108.47 727.35,-1108.41 726.47,-1108.36 725.6,-1108.27 724.73,-1108.15 723.87,-1108.04 723.01,-1107.9 722.16,-1107.72 721.32,-1107.55 720.48,-1107.36 719.67,-1107.13 718.85,-1106.9 718.05,-1106.65 717.27,-1106.37 716.49,-1106.1 715.73,-1105.79 715,-1105.47 714.26,-1105.14 713.55,-1104.79 712.87,-1104.41 712.19,-1104.04 711.53,-1103.64 710.91,-1103.23 710.28,-1102.81 709.69,-1102.37 709.13,-1101.92 708.57,-1101.46 708.04,-1100.99 707.55,-1100.5 707.06,-1100.01 706.6,-1099.5 706.19,-1098.99 705.77,-1098.47 705.39,-1097.93 705.06,-1097.39 704.72,-1096.84 704.42,-1096.29 704.16,-1095.73 703.91,-1095.16 703.69,-1094.59 703.52,-1094.01 703.35,-1093.43 703.22,-1092.85 703.13,-1092.26 703.04,-1091.68 703,-1091.09 703,-1090.5 703,-1090.5 730,-1090.5 730,-1090.5"/>
<path fill="#eeccee" stroke="black" stroke-width="0.5" d="M730,-1090.5C730,-1090.5 703,-1090.5 703,-1090.5 703,-1089.91 703.04,-1089.32 703.13,-1088.74 703.22,-1088.15 703.35,-1087.57 703.52,-1086.99 703.69,-1086.41 703.91,-1085.84 704.16,-1085.27 704.42,-1084.71 704.72,-1084.16 705.06,-1083.61 705.39,-1083.07 705.77,-1082.53 706.19,-1082.01 706.6,-1081.5 707.06,-1080.99 707.55,-1080.5 708.04,-1080.01 708.57,-1079.54 709.13,-1079.08 709.69,-1078.63 710.28,-1078.19 710.91,-1077.77 711.53,-1077.36 712.19,-1076.96 712.87,-1076.59 713.55,-1076.21 714.26,-1075.86 715,-1075.53 715.73,-1075.21 716.49,-1074.9 717.27,-1074.63 718.05,-1074.35 718.85,-1074.1 719.67,-1073.87 720.48,-1073.64 721.32,-1073.45 722.16,-1073.28 723.01,-1073.1 723.87,-1072.96 724.73,-1072.85 725.6,-1072.73 726.47,-1072.64 727.35,-1072.59 728.23,-1072.53 729.12,-1072.5 730,-1072.5 730.88,-1072.5 731.77,-1072.53 732.65,-1072.59 733.53,-1072.64 734.4,-1072.73 735.27,-1072.85 736.13,-1072.96 736.99,-1073.1 737.84,-1073.28 738.68,-1073.45 739.52,-1073.64 740.33,-1073.87 741.15,-1074.1 741.95,-1074.35 742.73,-1074.63 743.51,-1074.9 744.27,-1075.21 745,-1075.53 745.74,-1075.86 746.45,-1076.21 747.13,-1076.59 747.81,-1076.96 748.47,-1077.36 749.09,-1077.77 749.72,-1078.19 750.31,-1078.63 750.87,-1079.08 751.43,-1079.54 751.96,-1080.01 752.45,-1080.5 752.94,-1080.99 753.4,-1081.5 753.81,-1082.01 754.23,-1082.53 754.61,-1083.07 754.94,-1083.61 755.28,-1084.16 755.58,-1084.71 755.84,-1085.27 756.09,-1085.84 756.31,-1086.41 756.48,-1086.99 756.65,-1087.57 756.78,-1088.15 756.87,-1088.74 756.96,-1089.32 757,-1089.91 757,-1090.5 757,-1090.5 730,-1090.5 730,-1090.5"/>
<ellipse fill="none" stroke="black" cx="730" cy="-1090.5" rx="27" ry="18"/>
<text xml:space="preserve" text-anchor="middle" x="730" y="-1086.8" font-family="Times,serif" font-size="11.00">(3, 5)</text>
</g>
<!-- nx_28302c203529&#45;&gt;nx_28332c203529 -->
<g id="edge21" class="edge">
<title>nx_28302c203529&#45;&gt;nx_28332c203529</title>
<path fill="none" stroke="#6688bb" d="M388.22,-1171.88C439.48,-1170.95 553.33,-1165.53 644,-1137 664.42,-1130.58 685.69,-1119.37 701.97,-1109.68"/>
<polygon fill="#6688bb" stroke="#6688bb" points="703.42,-1112.9 710.12,-1104.69 699.76,-1106.93 703.42,-1112.9"/>
<text xml:space="preserve" text-anchor="middle" x="681.91" y="-1128.45" font-family="Times,serif" font-size="9.00" fill="#6688bb"> fill 3L </text>
</g>
<!-- nx_28312c203029&#45;&gt;nx_28302c203029 -->
<g id="edge22" class="edge">
<title>nx_28312c203029&#45;&gt;nx_28302c203029</title>
<path fill="none" stroke="#77aa77" d="M416.71,-693.83C404.41,-709.14 388,-734.28 388,-759.5 388,-885.25 388,-885.25 388,-885.25 388,-920.55 370.74,-926.55 365.75,-961.5 351.19,-1063.41 404.17,-1088.31 397,-1191 396.11,-1203.76 399.92,-1208.74 393,-1219.5 387.78,-1227.62 379.92,-1234.21 371.78,-1239.4"/>
<polygon fill="#77aa77" stroke="#77aa77" points="370.14,-1236.31 363.17,-1244.28 373.59,-1242.39 370.14,-1236.31"/>
<text xml:space="preserve" text-anchor="middle" x="384.88" y="-963.45" font-family="Times,serif" font-size="9.00" fill="#77aa77"> empty 3L </text>
</g>
<!-- nx_28312c203029&#45;&gt;nx_28302c203129 -->
<g id="edge23" class="edge">
<title>nx_28312c203029&#45;&gt;nx_28302c203129</title>
<path fill="none" stroke="#aaaa66" d="M407.3,-667.9C396.34,-662.22 384.24,-653.72 378,-642 375.18,-636.7 374.46,-630.56 374.84,-624.55"/>
<polygon fill="#aaaa66" stroke="#aaaa66" points="378.27,-625.31 376.44,-614.87 371.36,-624.17 378.27,-625.31"/>
<text xml:space="preserve" text-anchor="middle" x="394.5" y="-633.45" font-family="Times,serif" font-size="9.00" fill="#aaaa66"> 3L→5L </text>
</g>
<!-- nx_28312c203529 -->
<g id="node8" class="node">
<title>nx_28312c203529</title>
<path fill="#cceeee" stroke="black" stroke-width="0.5" d="M474,-760.5C474,-760.5 501,-760.5 501,-760.5 501,-761.09 500.96,-761.68 500.87,-762.26 500.78,-762.85 500.65,-763.43 500.48,-764.01 500.31,-764.59 500.09,-765.16 499.84,-765.73 499.58,-766.29 499.28,-766.84 498.94,-767.39 498.61,-767.93 498.23,-768.47 497.81,-768.99 497.4,-769.5 496.94,-770.01 496.45,-770.5 495.96,-770.99 495.43,-771.46 494.87,-771.92 494.31,-772.37 493.72,-772.81 493.09,-773.23 492.47,-773.64 491.81,-774.04 491.13,-774.41 490.45,-774.79 489.74,-775.14 489,-775.47 488.27,-775.79 487.51,-776.1 486.73,-776.37 485.95,-776.65 485.15,-776.9 484.33,-777.13 483.52,-777.36 482.68,-777.55 481.84,-777.72 480.99,-777.9 480.13,-778.04 479.27,-778.15 478.4,-778.27 477.53,-778.36 476.65,-778.41 475.77,-778.47 474.88,-778.5 474,-778.5 474,-778.5 474,-760.5 474,-760.5"/>
<path fill="#cceecc" stroke="black" stroke-width="0.5" d="M474,-760.5C474,-760.5 474,-778.5 474,-778.5 473.12,-778.5 472.23,-778.47 471.35,-778.41 470.47,-778.36 469.6,-778.27 468.73,-778.15 467.87,-778.04 467.01,-777.9 466.16,-777.72 465.32,-777.55 464.48,-777.36 463.67,-777.13 462.85,-776.9 462.05,-776.65 461.27,-776.37 460.49,-776.1 459.73,-775.79 459,-775.47 458.26,-775.14 457.55,-774.79 456.87,-774.41 456.19,-774.04 455.53,-773.64 454.91,-773.23 454.28,-772.81 453.69,-772.37 453.13,-771.92 452.57,-771.46 452.04,-770.99 451.55,-770.5 451.06,-770.01 450.6,-769.5 450.19,-768.99 449.77,-768.47 449.39,-767.93 449.06,-767.39 448.72,-766.84 448.42,-766.29 448.16,-765.73 447.91,-765.16 447.69,-764.59 447.52,-764.01 447.35,-763.43 447.22,-762.85 447.13,-762.26 447.04,-761.68 447,-761.09 447,-760.5 447,-760.5 474,-760.5 474,-760.5"/>
<path fill="#eeccee" stroke="black" stroke-width="0.5" d="M474,-760.5C474,-760.5 447,-760.5 447,-760.5 447,-759.91 447.04,-759.32 447.13,-758.74 447.22,-758.15 447.35,-757.57 447.52,-756.99 447.69,-756.41 447.91,-755.84 448.16,-755.27 448.42,-754.71 448.72,-754.16 449.06,-753.61 449.39,-753.07 449.77,-752.53 450.19,-752.01 450.6,-751.5 451.06,-750.99 451.55,-750.5 452.04,-750.01 452.57,-749.54 453.13,-749.08 453.69,-748.63 454.28,-748.19 454.91,-747.77 455.53,-747.36 456.19,-746.96 456.87,-746.59 457.55,-746.21 458.26,-745.86 459,-745.53 459.73,-745.21 460.49,-744.9 461.27,-744.63 462.05,-744.35 462.85,-744.1 463.67,-743.87 464.48,-743.64 465.32,-743.45 466.16,-743.28 467.01,-743.1 467.87,-742.96 468.73,-742.85 469.6,-742.73 470.47,-742.64 471.35,-742.59 472.23,-742.53 473.12,-742.5 474,-742.5 474,-742.5 474,-760.5 474,-760.5"/>
<path fill="#ccddff" stroke="black" stroke-width="0.5" d="M474,-760.5C474,-760.5 474,-742.5 474,-742.5 474.88,-742.5 475.77,-742.53 476.65,-742.59 477.53,-742.64 478.4,-742.73 479.27,-742.85 480.13,-742.96 480.99,-743.1 481.84,-743.28 482.68,-743.45 483.52,-743.64 484.33,-743.87 485.15,-744.1 485.95,-744.35 486.73,-744.63 487.51,-744.9 488.27,-745.21 489,-745.53 489.74,-745.86 490.45,-746.21 491.13,-746.59 491.81,-746.96 492.47,-747.36 493.09,-747.77 493.72,-748.19 494.31,-748.63 494.87,-749.08 495.43,-749.54 495.96,-750.01 496.45,-750.5 496.94,-750.99 497.4,-751.5 497.81,-752.01 498.23,-752.53 498.61,-753.07 498.94,-753.61 499.28,-754.16 499.58,-754.71 499.84,-755.27 500.09,-755.84 500.31,-756.41 500.48,-756.99 500.65,-757.57 500.78,-758.15 500.87,-758.74 500.96,-759.32 501,-759.91 501,-760.5 501,-760.5 474,-760.5 474,-760.5"/>
<ellipse fill="none" stroke="black" cx="474" cy="-760.5" rx="27" ry="18"/>
<text xml:space="preserve" text-anchor="middle" x="474" y="-756.8" font-family="Times,serif" font-size="11.00">(1, 5)</text>
</g>
<!-- nx_28312c203029&#45;&gt;nx_28312c203529 -->
<g id="edge24" class="edge">
<title>nx_28312c203029&#45;&gt;nx_28312c203529</title>
<path fill="none" stroke="#ddbb99" d="M447.19,-692.36C453.72,-698.3 460.63,-705.81 465,-714 467.82,-719.28 469.76,-725.33 471.09,-731.26"/>
<polygon fill="#ddbb99" stroke="#ddbb99" points="467.59,-731.52 472.73,-740.78 474.49,-730.34 467.59,-731.52"/>
<text xml:space="preserve" text-anchor="middle" x="482.42" y="-715.95" font-family="Times,serif" font-size="9.00" fill="#ddbb99"> fill 5L </text>
</g>
<!-- nx_28312c203029&#45;&gt;nx_28332c203029 -->
<g id="edge25" class="edge">
<title>nx_28312c203029&#45;&gt;nx_28332c203029</title>
<path fill="none" stroke="#6688bb" d="M456.19,-683.48C507.48,-693.7 621.16,-723.71 679,-796.5 727.78,-857.89 741.38,-907.36 697,-972 691.52,-979.99 683.55,-986.58 675.41,-991.81"/>
<polygon fill="#6688bb" stroke="#6688bb" points="673.77,-988.71 666.87,-996.75 677.28,-994.77 673.77,-988.71"/>
<text xml:space="preserve" text-anchor="middle" x="730.35" y="-839.7" font-family="Times,serif" font-size="9.00" fill="#6688bb"> fill 3L </text>
</g>
<!-- nx_28312c203529&#45;&gt;nx_28302c203529 -->
<g id="edge26" class="edge">
<title>nx_28312c203529&#45;&gt;nx_28302c203529</title>
<path fill="none" stroke="#77aa77" d="M464.6,-777.88C461.56,-783.64 458.37,-790.24 456,-796.5 431.29,-861.88 384.07,-1068.68 367.19,-1144.11"/>
<polygon fill="#77aa77" stroke="#77aa77" points="363.84,-1143.05 365.08,-1153.57 370.67,-1144.58 363.84,-1143.05"/>
<text xml:space="preserve" text-anchor="middle" x="428.54" y="-963.45" font-family="Times,serif" font-size="9.00" fill="#77aa77"> empty 3L </text>
</g>
<!-- nx_28312c203529&#45;&gt;nx_28312c203029 -->
<g id="edge27" class="edge">
<title>nx_28312c203529&#45;&gt;nx_28312c203029</title>
<path fill="none" stroke="#aa77aa" d="M451.35,-750.18C440.62,-744.48 428.84,-736.03 422.75,-724.5 419.81,-718.93 419.36,-712.48 420.16,-706.22"/>
<polygon fill="#aa77aa" stroke="#aa77aa" points="423.48,-707.39 422.31,-696.86 416.66,-705.82 423.48,-707.39"/>
<text xml:space="preserve" text-anchor="middle" x="441.88" y="-715.95" font-family="Times,serif" font-size="9.00" fill="#aa77aa"> empty 5L </text>
</g>
<!-- nx_28312c203529&#45;&gt;nx_28332c203329 -->
<g id="edge28" class="edge">
<title>nx_28312c203529&#45;&gt;nx_28332c203329</title>
<path fill="none" stroke="#77aaaa" d="M486.78,-776.47C491.4,-782.43 496.37,-789.51 500,-796.5 502.85,-801.99 505.31,-808.13 507.36,-814.07"/>
<polygon fill="#77aaaa" stroke="#77aaaa" points="504.02,-815.12 510.36,-823.61 510.7,-813.02 504.02,-815.12"/>
<text xml:space="preserve" text-anchor="middle" x="520.85" y="-798.45" font-family="Times,serif" font-size="9.00" fill="#77aaaa"> 5L→3L </text>
</g>
<!-- nx_28312c203529&#45;&gt;nx_28332c203529 -->
<g id="edge29" class="edge">
<title>nx_28312c203529&#45;&gt;nx_28332c203529</title>
<path fill="none" stroke="#6688bb" d="M496.51,-770.97C510.06,-777.21 527.29,-786.13 541,-796.5 621.5,-857.37 644.45,-875.34 697,-961.5 717.24,-994.68 717.79,-1006.01 726,-1044 727.17,-1049.43 728,-1055.3 728.59,-1060.95"/>
<polygon fill="#6688bb" stroke="#6688bb" points="725.07,-1060.87 729.37,-1070.55 732.05,-1060.3 725.07,-1060.87"/>
<text xml:space="preserve" text-anchor="middle" x="698.55" y="-922.2" font-family="Times,serif" font-size="9.00" fill="#6688bb"> fill 3L </text>
</g>
<!-- nx_28322c203029&#45;&gt;nx_28302c203029 -->
<g id="edge30" class="edge">
<title>nx_28322c203029&#45;&gt;nx_28302c203029</title>
<path fill="none" stroke="#77aa77" d="M860.66,-183.89C722.43,-183.67 107,-187.06 107,-264.5 107,-596.5 107,-596.5 107,-596.5 107,-668.96 104,-687.04 104,-759.5 104,-1174 104,-1174 104,-1174 104,-1214.83 233.02,-1239.41 299.45,-1249.36"/>
<polygon fill="#77aa77" stroke="#77aa77" points="298.8,-1252.8 309.2,-1250.78 299.81,-1245.87 298.8,-1252.8"/>
<text xml:space="preserve" text-anchor="middle" x="123.58" y="-715.95" font-family="Times,serif" font-size="9.00" fill="#77aa77"> empty 3L </text>
</g>
<!-- nx_28322c203029&#45;&gt;nx_28302c203229 -->
<g id="edge31" class="edge">
<title>nx_28322c203029&#45;&gt;nx_28302c203229</title>
<path fill="none" stroke="#aaaa66" d="M871.69,-168.34C863.13,-159.45 855.48,-147.5 861,-136.5 864.7,-129.12 870.78,-122.91 877.35,-117.86"/>
<polygon fill="#aaaa66" stroke="#aaaa66" points="878.88,-121.05 885.2,-112.54 874.95,-115.26 878.88,-121.05"/>
<text xml:space="preserve" text-anchor="middle" x="877.5" y="-138.45" font-family="Times,serif" font-size="9.00" fill="#aaaa66"> 3L→5L </text>
</g>
<!-- nx_28322c203529 -->
<g id="node10" class="node">
<title>nx_28322c203529</title>
<path fill="#cceeee" stroke="black" stroke-width="0.5" d="M847,-265.5C847,-265.5 874,-265.5 874,-265.5 874,-266.09 873.96,-266.68 873.87,-267.26 873.78,-267.85 873.65,-268.43 873.48,-269.01 873.31,-269.59 873.09,-270.16 872.84,-270.73 872.58,-271.29 872.28,-271.84 871.94,-272.39 871.61,-272.93 871.23,-273.47 870.81,-273.99 870.4,-274.5 869.94,-275.01 869.45,-275.5 868.96,-275.99 868.43,-276.46 867.87,-276.92 867.31,-277.37 866.72,-277.81 866.09,-278.23 865.47,-278.64 864.81,-279.04 864.13,-279.41 863.45,-279.79 862.74,-280.14 862,-280.47 861.27,-280.79 860.51,-281.1 859.73,-281.37 858.95,-281.65 858.15,-281.9 857.33,-282.13 856.52,-282.36 855.68,-282.55 854.84,-282.72 853.99,-282.9 853.13,-283.04 852.27,-283.15 851.4,-283.27 850.53,-283.36 849.65,-283.41 848.77,-283.47 847.88,-283.5 847,-283.5 847,-283.5 847,-265.5 847,-265.5"/>
<path fill="#cceecc" stroke="black" stroke-width="0.5" d="M847,-265.5C847,-265.5 847,-283.5 847,-283.5 846.12,-283.5 845.23,-283.47 844.35,-283.41 843.47,-283.36 842.6,-283.27 841.73,-283.15 840.87,-283.04 840.01,-282.9 839.16,-282.72 838.32,-282.55 837.48,-282.36 836.67,-282.13 835.85,-281.9 835.05,-281.65 834.27,-281.37 833.49,-281.1 832.73,-280.79 832,-280.47 831.26,-280.14 830.55,-279.79 829.87,-279.41 829.19,-279.04 828.53,-278.64 827.91,-278.23 827.28,-277.81 826.69,-277.37 826.13,-276.92 825.57,-276.46 825.04,-275.99 824.55,-275.5 824.06,-275.01 823.6,-274.5 823.19,-273.99 822.77,-273.47 822.39,-272.93 822.06,-272.39 821.72,-271.84 821.42,-271.29 821.16,-270.73 820.91,-270.16 820.69,-269.59 820.52,-269.01 820.35,-268.43 820.22,-267.85 820.13,-267.26 820.04,-266.68 820,-266.09 820,-265.5 820,-265.5 847,-265.5 847,-265.5"/>
<path fill="#eeccee" stroke="black" stroke-width="0.5" d="M847,-265.5C847,-265.5 820,-265.5 820,-265.5 820,-264.91 820.04,-264.32 820.13,-263.74 820.22,-263.15 820.35,-262.57 820.52,-261.99 820.69,-261.41 820.91,-260.84 821.16,-260.27 821.42,-259.71 821.72,-259.16 822.06,-258.61 822.39,-258.07 822.77,-257.53 823.19,-257.01 823.6,-256.5 824.06,-255.99 824.55,-255.5 825.04,-255.01 825.57,-254.54 826.13,-254.08 826.69,-253.63 827.28,-253.19 827.91,-252.77 828.53,-252.36 829.19,-251.96 829.87,-251.59 830.55,-251.21 831.26,-250.86 832,-250.53 832.73,-250.21 833.49,-249.9 834.27,-249.63 835.05,-249.35 835.85,-249.1 836.67,-248.87 837.48,-248.64 838.32,-248.45 839.16,-248.28 840.01,-248.1 840.87,-247.96 841.73,-247.85 842.6,-247.73 843.47,-247.64 844.35,-247.59 845.23,-247.53 846.12,-247.5 847,-247.5 847,-247.5 847,-265.5 847,-265.5"/>
<path fill="#ccddff" stroke="black" stroke-width="0.5" d="M847,-265.5C847,-265.5 847,-247.5 847,-247.5 847.88,-247.5 848.77,-247.53 849.65,-247.59 850.53,-247.64 851.4,-247.73 852.27,-247.85 853.13,-247.96 853.99,-248.1 854.84,-248.28 855.68,-248.45 856.52,-248.64 857.33,-248.87 858.15,-249.1 858.95,-249.35 859.73,-249.63 860.51,-249.9 861.27,-250.21 862,-250.53 862.74,-250.86 863.45,-251.21 864.13,-251.59 864.81,-251.96 865.47,-252.36 866.09,-252.77 866.72,-253.19 867.31,-253.63 867.87,-254.08 868.43,-254.54 868.96,-255.01 869.45,-255.5 869.94,-255.99 870.4,-256.5 870.81,-257.01 871.23,-257.53 871.61,-258.07 871.94,-258.61 872.28,-259.16 872.58,-259.71 872.84,-260.27 873.09,-260.84 873.31,-261.41 873.48,-261.99 873.65,-262.57 873.78,-263.15 873.87,-263.74 873.96,-264.32 874,-264.91 874,-265.5 874,-265.5 847,-265.5 847,-265.5"/>
<ellipse fill="none" stroke="black" cx="847" cy="-265.5" rx="27" ry="18"/>
<text xml:space="preserve" text-anchor="middle" x="847" y="-261.8" font-family="Times,serif" font-size="11.00">(2, 5)</text>
</g>
<!-- nx_28322c203029&#45;&gt;nx_28322c203529 -->
<g id="edge32" class="edge">
<title>nx_28322c203029&#45;&gt;nx_28322c203529</title>
<path fill="none" stroke="#ddbb99" d="M886.33,-201.12C884.95,-209.96 882.47,-220.71 878,-229.5 875.81,-233.81 872.95,-238.02 869.86,-241.93"/>
<polygon fill="#ddbb99" stroke="#ddbb99" points="867.37,-239.46 863.43,-249.29 872.65,-244.06 867.37,-239.46"/>
<text xml:space="preserve" text-anchor="middle" x="894.99" y="-220.95" font-family="Times,serif" font-size="9.00" fill="#ddbb99"> fill 5L </text>
</g>
<!-- nx_28322c203029&#45;&gt;nx_28332c203029 -->
<g id="edge33" class="edge">
<title>nx_28322c203029&#45;&gt;nx_28332c203029</title>
<path fill="none" stroke="#6688bb" d="M909.04,-194.48C931.84,-207.49 965,-232.01 965,-264.5 965,-555.25 965,-555.25 965,-555.25 965,-627.96 979,-645.54 979,-718.25 979,-926.5 979,-926.5 979,-926.5 979,-987.07 769.87,-1002.17 681.59,-1005.85"/>
<polygon fill="#6688bb" stroke="#6688bb" points="681.58,-1002.35 671.72,-1006.23 681.85,-1009.34 681.58,-1002.35"/>
<text xml:space="preserve" text-anchor="middle" x="981.55" y="-592.2" font-family="Times,serif" font-size="9.00" fill="#6688bb"> fill 3L </text>
</g>
<!-- nx_28322c203529&#45;&gt;nx_28302c203529 -->
<g id="edge34" class="edge">
<title>nx_28322c203529&#45;&gt;nx_28302c203529</title>
<path fill="none" stroke="#77aa77" d="M819.84,-266.8C693,-268.55 165,-279.86 165,-347 165,-679 165,-679 165,-679 165,-769.91 154,-792.34 154,-883.25 154,-1091.5 154,-1091.5 154,-1091.5 154,-1127.47 263.94,-1153.77 323.57,-1165.38"/>
<polygon fill="#77aa77" stroke="#77aa77" points="322.82,-1168.8 333.3,-1167.23 324.12,-1161.93 322.82,-1168.8"/>
<text xml:space="preserve" text-anchor="middle" x="183.49" y="-715.95" font-family="Times,serif" font-size="9.00" fill="#77aa77"> empty 3L </text>
</g>
<!-- nx_28322c203529&#45;&gt;nx_28322c203029 -->
<g id="edge35" class="edge">
<title>nx_28322c203529&#45;&gt;nx_28322c203029</title>
<path fill="none" stroke="#aa77aa" d="M837.51,-248.21C833.57,-239.21 830.92,-228.05 835.75,-219 840.16,-210.74 847.48,-204.08 855.27,-198.89"/>
<polygon fill="#aa77aa" stroke="#aa77aa" points="857.03,-201.91 863.89,-193.84 853.49,-195.87 857.03,-201.91"/>
<text xml:space="preserve" text-anchor="middle" x="854.88" y="-220.95" font-family="Times,serif" font-size="9.00" fill="#aa77aa"> empty 5L </text>
</g>
<!-- nx_28322c203529&#45;&gt;nx_28332c203429 -->
<g id="edge36" class="edge">
<title>nx_28322c203529&#45;&gt;nx_28332c203429</title>
<path fill="none" stroke="#77aaaa" d="M841.88,-283.62C838.84,-292.47 834.49,-303.21 829,-312 826.4,-316.16 823.27,-320.28 820.01,-324.16"/>
<polygon fill="#77aaaa" stroke="#77aaaa" points="817.45,-321.77 813.34,-331.53 822.64,-326.47 817.45,-321.77"/>
<text xml:space="preserve" text-anchor="middle" x="850.64" y="-303.45" font-family="Times,serif" font-size="9.00" fill="#77aaaa"> 5L→3L </text>
</g>
<!-- nx_28322c203529&#45;&gt;nx_28332c203529 -->
<g id="edge37" class="edge">
<title>nx_28322c203529&#45;&gt;nx_28332c203529</title>
<path fill="none" stroke="#6688bb" d="M867.44,-277.81C888.73,-291.27 919,-315.87 919,-347 919,-555.25 919,-555.25 919,-555.25 919,-627.74 925,-645.76 925,-718.25 925,-1009 925,-1009 925,-1009 925,-1076.02 825.37,-1088.36 768.54,-1089.95"/>
<polygon fill="#6688bb" stroke="#6688bb" points="768.57,-1086.44 758.63,-1090.11 768.68,-1093.44 768.57,-1086.44"/>
<text xml:space="preserve" text-anchor="middle" x="937.92" y="-674.7" font-family="Times,serif" font-size="9.00" fill="#6688bb"> fill 3L </text>
</g>
<!-- nx_28332c203029&#45;&gt;nx_28302c203029 -->
<g id="edge38" class="edge">
<title>nx_28332c203029&#45;&gt;nx_28302c203029</title>
<path fill="none" stroke="#77aa77" d="M632.22,-1024.66C628.08,-1030.7 623.31,-1037.66 619,-1044 599.77,-1072.3 550.35,-1187.17 488,-1219.5 453.06,-1237.62 408.71,-1246.47 377.32,-1250.73"/>
<polygon fill="#77aa77" stroke="#77aa77" points="376.96,-1247.24 367.47,-1251.95 377.83,-1254.19 376.96,-1247.24"/>
<text xml:space="preserve" text-anchor="middle" x="590.86" y="-1128.45" font-family="Times,serif" font-size="9.00" fill="#77aa77"> empty 3L </text>
</g>
<!-- nx_28332c203029&#45;&gt;nx_28302c203329 -->
<g id="edge39" class="edge">
<title>nx_28332c203029&#45;&gt;nx_28302c203329</title>
<path fill="none" stroke="#aaaa66" d="M616.86,-1003.06C593.49,-998.56 559.16,-989.44 534,-972 526.32,-966.67 519.47,-959.23 513.87,-951.9"/>
<polygon fill="#aaaa66" stroke="#aaaa66" points="516.97,-950.23 508.34,-944.09 511.26,-954.27 516.97,-950.23"/>
<text xml:space="preserve" text-anchor="middle" x="550.5" y="-963.45" font-family="Times,serif" font-size="9.00" fill="#aaaa66"> 3L→5L </text>
</g>
<!-- nx_28332c203029&#45;&gt;nx_28332c203529 -->
<g id="edge40" class="edge">
<title>nx_28332c203029&#45;&gt;nx_28332c203529</title>
<path fill="none" stroke="#ddbb99" d="M653.12,-1024.79C659.52,-1034.06 668.33,-1045.65 677.75,-1054.5 684.52,-1060.86 692.56,-1066.86 700.28,-1072.04"/>
<polygon fill="#ddbb99" stroke="#ddbb99" points="698.18,-1074.85 708.49,-1077.3 701.96,-1068.96 698.18,-1074.85"/>
<text xml:space="preserve" text-anchor="middle" x="690.88" y="-1045.95" font-family="Times,serif" font-size="9.00" fill="#ddbb99"> fill 5L </text>
</g>
<!-- nx_28332c203129&#45;&gt;nx_28302c203129 -->
<g id="edge41" class="edge">
<title>nx_28332c203129&#45;&gt;nx_28302c203129</title>
<path fill="none" stroke="#77aa77" d="M445.58,-529.66C438.77,-538.67 429.77,-550.05 421,-559.5 416.73,-564.1 411.95,-568.81 407.27,-573.21"/>
<polygon fill="#77aa77" stroke="#77aa77" points="405.19,-570.37 400.18,-579.7 409.91,-575.53 405.19,-570.37"/>
<text xml:space="preserve" text-anchor="middle" x="448.53" y="-550.95" font-family="Times,serif" font-size="9.00" fill="#77aa77"> empty 3L </text>
</g>
<!-- nx_28332c203129&#45;&gt;nx_28302c203429 -->
<g id="edge42" class="edge">
<title>nx_28332c203129&#45;&gt;nx_28302c203429</title>
<path fill="none" stroke="#aaaa66" d="M440.69,-498.32C434.89,-492.43 429.05,-485.05 426,-477 422.74,-468.39 426.32,-459.82 432.05,-452.48"/>
<polygon fill="#aaaa66" stroke="#aaaa66" points="434.2,-455.3 438.46,-445.6 429.08,-450.53 434.2,-455.3"/>
<text xml:space="preserve" text-anchor="middle" x="442.5" y="-468.45" font-family="Times,serif" font-size="9.00" fill="#aaaa66"> 3L→5L </text>
</g>
<!-- nx_28332c203129&#45;&gt;nx_28332c203029 -->
<g id="edge43" class="edge">
<title>nx_28332c203129&#45;&gt;nx_28332c203029</title>
<path fill="none" stroke="#aa77aa" d="M475.83,-526.28C530.68,-563.33 690.05,-680.41 747,-825 771.54,-887.3 763.77,-927.21 714,-972 703.49,-981.46 689.96,-988.96 677.54,-994.56"/>
<polygon fill="#aa77aa" stroke="#aa77aa" points="676.27,-991.3 668.41,-998.41 678.98,-997.75 676.27,-991.3"/>
<text xml:space="preserve" text-anchor="middle" x="743.45" y="-757.2" font-family="Times,serif" font-size="9.00" fill="#aa77aa"> empty 5L </text>
</g>
<!-- nx_28332c203129&#45;&gt;nx_28332c203529 -->
<g id="edge44" class="edge">
<title>nx_28332c203129&#45;&gt;nx_28332c203529</title>
<path fill="none" stroke="#ddbb99" d="M479.57,-523.26C505.27,-534.31 547.97,-554.25 581,-577.5 718.31,-674.18 803,-715.32 803,-883.25 803,-1009 803,-1009 803,-1009 803,-1036.08 780.06,-1058.09 759.9,-1072.21"/>
<polygon fill="#ddbb99" stroke="#ddbb99" points="758.03,-1069.25 751.6,-1077.67 761.88,-1075.1 758.03,-1069.25"/>
<text xml:space="preserve" text-anchor="middle" x="808.63" y="-798.45" font-family="Times,serif" font-size="9.00" fill="#ddbb99"> fill 5L </text>
</g>
<!-- nx_28332c203229&#45;&gt;nx_28302c203229 -->
<g id="edge45" class="edge">
<title>nx_28332c203229&#45;&gt;nx_28302c203229</title>
<path fill="none" stroke="#77aa77" d="M1037.33,-27.06C1019.64,-33.44 995.12,-43.09 974.75,-54 960.8,-61.47 946.18,-71.2 934.19,-79.74"/>
<polygon fill="#77aa77" stroke="#77aa77" points="932.46,-76.67 926.43,-85.38 936.57,-82.33 932.46,-76.67"/>
<text xml:space="preserve" text-anchor="middle" x="993.88" y="-55.95" font-family="Times,serif" font-size="9.00" fill="#77aa77"> empty 3L </text>
</g>
<!-- nx_28332c203229&#45;&gt;nx_28302c203529 -->
<g id="edge46" class="edge">
<title>nx_28332c203229&#45;&gt;nx_28302c203529</title>
<path fill="none" stroke="#aaaa66" d="M1072.46,-34.77C1082.67,-50.4 1096,-75.42 1096,-99.5 1096,-1091.5 1096,-1091.5 1096,-1091.5 1096,-1162.27 550.58,-1170.85 399.42,-1171.87"/>
<polygon fill="#aaaa66" stroke="#aaaa66" points="399.52,-1168.37 389.54,-1171.93 399.56,-1175.37 399.52,-1168.37"/>
<text xml:space="preserve" text-anchor="middle" x="1112.5" y="-592.2" font-family="Times,serif" font-size="9.00" fill="#aaaa66"> 3L→5L </text>
</g>
<!-- nx_28332c203229&#45;&gt;nx_28332c203029 -->
<g id="edge47" class="edge">
<title>nx_28332c203229&#45;&gt;nx_28332c203029</title>
<path fill="none" stroke="#aa77aa" d="M1084.73,-27.03C1113.16,-38.34 1157,-61.87 1157,-99.5 1157,-926.5 1157,-926.5 1157,-926.5 1157,-974.58 801.38,-998.37 681.74,-1005.01"/>
<polygon fill="#aa77aa" stroke="#aa77aa" points="681.58,-1001.52 671.78,-1005.56 681.96,-1008.51 681.58,-1001.52"/>
<text xml:space="preserve" text-anchor="middle" x="1176.12" y="-509.7" font-family="Times,serif" font-size="9.00" fill="#aa77aa"> empty 5L </text>
</g>
<!-- nx_28332c203229&#45;&gt;nx_28332c203529 -->
<g id="edge48" class="edge">
<title>nx_28332c203229&#45;&gt;nx_28332c203529</title>
<path fill="none" stroke="#ddbb99" d="M1088.12,-20.43C1134.23,-24.47 1223,-39.99 1223,-99.5 1223,-1009 1223,-1009 1223,-1009 1223,-1054.96 884.91,-1080.01 768.69,-1087.26"/>
<polygon fill="#ddbb99" stroke="#ddbb99" points="768.49,-1083.76 758.72,-1087.87 768.91,-1090.75 768.49,-1083.76"/>
<text xml:space="preserve" text-anchor="middle" x="1236.12" y="-550.95" font-family="Times,serif" font-size="9.00" fill="#ddbb99"> fill 5L </text>
</g>
<!-- nx_28332c203329&#45;&gt;nx_28302c203329 -->
<g id="edge49" class="edge">
<title>nx_28332c203329&#45;&gt;nx_28302c203329</title>
<path fill="none" stroke="#77aa77" d="M511.34,-861.32C509.18,-871.55 506.4,-884.74 503.93,-896.42"/>
<polygon fill="#77aa77" stroke="#77aa77" points="500.56,-895.44 501.92,-905.95 507.41,-896.89 500.56,-895.44"/>
<text xml:space="preserve" text-anchor="middle" x="526.64" y="-880.95" font-family="Times,serif" font-size="9.00" fill="#77aa77"> empty 3L </text>
</g>
<!-- nx_28332c203329&#45;&gt;nx_28312c203529 -->
<g id="edge50" class="edge">
<title>nx_28332c203329&#45;&gt;nx_28312c203529</title>
<path fill="none" stroke="#aaaa66" d="M492.3,-832.9C481.34,-827.22 469.24,-818.72 463,-807 459.99,-801.35 459.88,-794.87 461.16,-788.61"/>
<polygon fill="#aaaa66" stroke="#aaaa66" points="464.44,-789.82 464.18,-779.23 457.78,-787.67 464.44,-789.82"/>
<text xml:space="preserve" text-anchor="middle" x="479.5" y="-798.45" font-family="Times,serif" font-size="9.00" fill="#aaaa66"> 3L→5L </text>
</g>
<!-- nx_28332c203329&#45;&gt;nx_28332c203029 -->
<g id="edge51" class="edge">
<title>nx_28332c203329&#45;&gt;nx_28332c203029</title>
<path fill="none" stroke="#aa77aa" d="M529.88,-858.08C535.73,-864.13 542.18,-871.53 547,-879 563.93,-905.21 552.08,-922.06 574.75,-943.5 591.68,-959.51 607.15,-945.4 624,-961.5 629.07,-966.35 632.85,-972.76 635.63,-979.24"/>
<polygon fill="#aa77aa" stroke="#aa77aa" points="632.28,-980.26 638.93,-988.5 638.87,-977.91 632.28,-980.26"/>
<text xml:space="preserve" text-anchor="middle" x="593.88" y="-922.2" font-family="Times,serif" font-size="9.00" fill="#aa77aa"> empty 5L </text>
</g>
<!-- nx_28332c203329&#45;&gt;nx_28332c203529 -->
<g id="edge52" class="edge">
<title>nx_28332c203329&#45;&gt;nx_28332c203529</title>
<path fill="none" stroke="#ddbb99" d="M535.86,-854.91C556.68,-866.37 588.95,-885.74 613,-907.5 662.94,-952.69 700.32,-1023.86 718.23,-1062.45"/>
<polygon fill="#ddbb99" stroke="#ddbb99" points="715.02,-1063.83 722.34,-1071.49 721.39,-1060.94 715.02,-1063.83"/>
<text xml:space="preserve" text-anchor="middle" x="680.32" y="-963.45" font-family="Times,serif" font-size="9.00" fill="#ddbb99"> fill 5L </text>
</g>
<!-- nx_28332c203429&#45;&gt;nx_28302c203429 -->
<g id="edge53" class="edge">
<title>nx_28332c203429&#45;&gt;nx_28302c203429</title>
<path fill="none" stroke="#77aa77" d="M775.09,-358.97C751.55,-369.29 712.83,-385.19 678,-394.5 615.09,-411.31 539.81,-421.11 495.33,-425.88"/>
<polygon fill="#77aa77" stroke="#77aa77" points="495,-422.39 485.41,-426.91 495.72,-429.36 495,-422.39"/>
<text xml:space="preserve" text-anchor="middle" x="730.51" y="-385.95" font-family="Times,serif" font-size="9.00" fill="#77aa77"> empty 3L </text>
</g>
<!-- nx_28332c203429&#45;&gt;nx_28322c203529 -->
<g id="edge54" class="edge">
<title>nx_28332c203429&#45;&gt;nx_28322c203529</title>
<path fill="none" stroke="#aaaa66" d="M790.6,-330.07C788.28,-321.08 787.26,-310.14 792,-301.5 796.85,-292.66 804.99,-285.73 813.54,-280.46"/>
<polygon fill="#aaaa66" stroke="#aaaa66" points="815.14,-283.57 822.27,-275.73 811.81,-277.42 815.14,-283.57"/>
<text xml:space="preserve" text-anchor="middle" x="808.5" y="-303.45" font-family="Times,serif" font-size="9.00" fill="#aaaa66"> 3L→5L </text>
</g>
<!-- nx_28332c203429&#45;&gt;nx_28332c203029 -->
<g id="edge55" class="edge">
<title>nx_28332c203429&#45;&gt;nx_28332c203029</title>
<path fill="none" stroke="#aa77aa" d="M802.42,-366.08C807.06,-382.24 813,-407.27 813,-429.5 813,-637.75 813,-637.75 813,-637.75 813,-749.65 865.37,-788.59 817,-889.5 812.49,-898.92 749.1,-961.79 733,-972 716.28,-982.61 695.83,-990.88 678.65,-996.71"/>
<polygon fill="#aa77aa" stroke="#aa77aa" points="677.78,-993.31 669.34,-999.72 679.93,-999.97 677.78,-993.31"/>
<text xml:space="preserve" text-anchor="middle" x="836.95" y="-674.7" font-family="Times,serif" font-size="9.00" fill="#aa77aa"> empty 5L </text>
</g>
<!-- nx_28332c203429&#45;&gt;nx_28332c203529 -->
<g id="edge56" class="edge">
<title>nx_28332c203429&#45;&gt;nx_28332c203529</title>
<path fill="none" stroke="#ddbb99" d="M818.97,-358.89C843.26,-371.5 879,-395.79 879,-429.5 879,-1009 879,-1009 879,-1009 879,-1059.34 812.36,-1078.35 768.22,-1085.42"/>
<polygon fill="#ddbb99" stroke="#ddbb99" points="767.88,-1081.94 758.48,-1086.83 768.88,-1088.86 767.88,-1081.94"/>
<text xml:space="preserve" text-anchor="middle" x="892.12" y="-715.95" font-family="Times,serif" font-size="9.00" fill="#ddbb99"> fill 5L </text>
</g>
<!-- nx_28332c203529&#45;&gt;nx_28302c203529 -->
<g id="edge57" class="edge">
<title>nx_28332c203529&#45;&gt;nx_28302c203529</title>
<path fill="none" stroke="#77aa77" d="M723.08,-1108.18C717.98,-1118.28 710,-1130.44 699,-1137 649.31,-1166.65 477.28,-1171.41 399.6,-1172.02"/>
<polygon fill="#77aa77" stroke="#77aa77" points="399.91,-1168.51 389.93,-1172.07 399.95,-1175.51 399.91,-1168.51"/>
<text xml:space="preserve" text-anchor="middle" x="729.42" y="-1128.45" font-family="Times,serif" font-size="9.00" fill="#77aa77"> empty 3L </text>
</g>
<!-- nx_28332c203529&#45;&gt;nx_28332c203029 -->
<g id="edge58" class="edge">
<title>nx_28332c203529&#45;&gt;nx_28332c203029</title>
<path fill="none" stroke="#aa77aa" d="M702.67,-1088.72C678.05,-1086.39 643.14,-1078.68 625.75,-1054.5 621.38,-1048.42 622.1,-1041.09 624.92,-1034.11"/>
<polygon fill="#aa77aa" stroke="#aa77aa" points="627.82,-1036.11 629.48,-1025.64 621.66,-1032.79 627.82,-1036.11"/>
<text xml:space="preserve" text-anchor="middle" x="644.88" y="-1045.95" font-family="Times,serif" font-size="9.00" fill="#aa77aa"> empty 5L </text>
</g>
</g>
</svg>
